<svg xmlns="http://www.w3.org/2000/svg" width="20" height="26" viewBox="0 0 20 26"><g><g><path fill="#c8c9d0" d="M19.365 14.198c-.305.866-.794 1.714-1.45 2.513l-7.258 8.966a.847.847 0 0 1-.658.321.848.848 0 0 1-.658-.32l-7.26-8.97c-.653-.795-1.142-1.642-1.45-2.516-1.149-3.197-.715-6.815 1.163-9.674C3.68 1.646 6.672-.002 9.999-.002s6.319 1.648 8.206 4.52c1.877 2.859 2.31 6.477 1.16 9.68zm-2.583-8.645C15.222 3.178 12.75 1.816 10 1.816c-2.75 0-5.223 1.362-6.783 3.737C1.66 7.92 1.3 10.911 2.25 13.555c.238.675.622 1.336 1.143 1.97l6.606 8.162 6.603-8.156c0-.003.002-.004.004-.005.521-.636.905-1.297 1.14-1.965a9.064 9.064 0 0 0-.964-8.008zm-1.942 4.93c0 2.807-2.171 5.09-4.84 5.09-2.67 0-4.841-2.283-4.841-5.09s2.171-5.091 4.84-5.091 4.84 2.284 4.84 5.091zm-1.729 0c0-1.805-1.396-3.273-3.112-3.273-1.716 0-3.111 1.468-3.111 3.273 0 1.804 1.395 3.272 3.111 3.272 1.716 0 3.112-1.468 3.112-3.272z"/></g></g></svg>