<svg xmlns="http://www.w3.org/2000/svg" width="23" height="23" viewBox="0 0 23 23"><g><g><path fill="#c8c9d0" d="M20.876 16.915c.491.486.75 1.065.75 1.667 0 .597-.254 1.18-.735 1.68-.21.22-.424.43-.633.628-.306.297-.598.573-.851.88-.005.01-.015.014-.02.024-.74.802-1.683 1.206-2.808 1.206-.097 0-.204-.006-.306-.01-1.669-.108-3.163-.734-4.282-1.265-2.93-1.413-5.493-3.42-7.625-5.962-1.756-2.108-2.934-4.076-3.722-6.2-.321-.866-.74-2.187-.623-3.606a3.553 3.553 0 0 1 1.056-2.26L2.732 2.03l.009-.009c.487-.467 1.06-.715 1.654-.715.594 0 1.159.248 1.63.715.317.29.623.603.915.904.146.155.302.31.453.462l1.328 1.326c1.022 1.02 1.022 2.342 0 3.363-.136.136-.272.277-.409.412-.36.365-.73.744-1.128 1.109.297.656.705 1.302 1.313 2.07 1.256 1.54 2.565 2.73 4.005 3.645.141.087.307.17.482.257.121.063.248.126.374.194l1.538-1.53c.492-.491 1.066-.749 1.664-.749.603 0 1.173.263 1.645.754zm-.934.918l-2.681-2.677-.01-.01c-.15-.164-.399-.354-.7-.354-.307 0-.57.199-.736.364l-1.663 1.662c-.083.083-.336.335-.74.335-.16 0-.316-.039-.482-.121-.02-.01-.039-.025-.058-.034a5.818 5.818 0 0 0-.482-.258c-.195-.097-.4-.2-.598-.325-1.563-.987-2.978-2.275-4.321-3.927l-.005-.005c-.74-.937-1.226-1.725-1.572-2.56l-.014-.045c-.088-.276-.166-.685.252-1.102.006-.01.015-.016.025-.025.423-.379.812-.768 1.221-1.185.141-.136.277-.278.419-.418.515-.515.515-.992 0-1.507L6.468 4.315c-.155-.161-.31-.317-.462-.472-.297-.306-.58-.593-.876-.87l-.015-.014c-.155-.156-.403-.34-.71-.34-.248 0-.501.12-.74.344L2.007 4.62a2.23 2.23 0 0 0-.671 1.444c-.073.89.092 1.832.545 3.042.734 1.983 1.844 3.828 3.503 5.826 2.01 2.396 4.428 4.286 7.182 5.617 1.007.482 2.35 1.046 3.795 1.138.073.004.151.004.225.004.759 0 1.338-.247 1.829-.772.302-.354.623-.67.939-.972.21-.203.404-.388.594-.592-.005.004-.005 0 0 0 .496-.516.496-1.025-.005-1.522zM11.913 4.694a.66.66 0 0 1 .76-.535 7.505 7.505 0 0 1 4.062 2.104 7.489 7.489 0 0 1 2.107 4.057c.058.361-.18.7-.54.759-.039.005-.073.01-.112.01a.653.653 0 0 1-.647-.544 6.19 6.19 0 0 0-1.742-3.354 6.178 6.178 0 0 0-3.357-1.74.648.648 0 0 1-.53-.757zm10.564 6.186c-.039.004-.073.009-.111.009a.652.652 0 0 1-.648-.544 11.008 11.008 0 0 0-3.1-5.972 11.055 11.055 0 0 0-5.98-3.095.655.655 0 1 1 .214-1.294 12.36 12.36 0 0 1 6.69 3.466 12.326 12.326 0 0 1 3.47 6.682.644.644 0 0 1-.535.748z"/></g></g></svg>