<svg width="1915" height="1056" fill="none" xmlns="http://www.w3.org/2000/svg"><g opacity=".5"><g clip-path="url(#clip0_801_1937)"><path opacity=".2" d="M-89.201-163.842c39.515-123.39 197.28-333.424 512.207-186.417 393.658 183.758 234.162-225.236 579.764-211.005" stroke="#64A4DB" stroke-width="2"/></g><path opacity=".4" d="M1969.97.94c-39.51-123.39-197.28-333.424-512.2-186.417C1064.11-1.719 1223.6-410.713 878-396.482" stroke="#64A4DB" stroke-width="2"/></g><g opacity=".2" stroke="#64A4DB" stroke-width="2"><path d="M0 1183c85.708-212.444 530.441-116.69 1006.4-297.339C1297.17 775.3 1481.97 295.612 1947 356.283"/><path d="M1931 468c-85.71 212.444-530.44 116.691-1006.399 297.339C633.826 875.7 449.035 1355.39-16 1294.72"/></g><path d="M1947 907c-88.17-212.444-545.7-116.691-1035.346-297.339C612.516 499.3 422.41 19.612-56 80.283M-578 216c86.633 222.147 536.162 122.021 1017.254 310.919C733.165 642.321 919.949 1143.92 1390 1080.48" opacity=".2" stroke="#64A4DB" stroke-width="2"/><defs><clipPath id="clip0_801_1937"><path fill="#fff" transform="rotate(25.023 2180.63 121.109)" d="M0 0h825.028v823.667H0z"/></clipPath></defs></svg>