<svg version="1.0" xmlns="http://www.w3.org/2000/svg" width="93.333" height="93.333" viewBox="0 0 70 70"><path d="M57.4 12c2.7 3 5.1 5.7 5.3 5.9.2.2.3.2.3 0 0-1.2-4.9-7.1-7.6-9.1-1.8-1.4-1-.1 2 3.2zm-28.1 0c-4.3 1.7-5.5 6.8-2.3 10 4 4 10.7 2 12.4-3.6 1.3-4.2-5.2-8.3-10.1-6.4zm5.7 3.9c0 1.6-2.8 2-4 .5-1-1.2-.8-1.4 1.4-1.4 1.4 0 2.6.4 2.6.9zm11-1.5c0 .9.5 1.6 1 1.6.6 0 1-.4 1-.9 0-.6-.4-1.3-1-1.6-.5-.3-1 .1-1 .9zm17 5.1c0 .5.5 1.7 1 2.5s1 1 1 .5c0-.6-.5-1.7-1-2.5s-1-1.1-1-.5zM53.7 23c-.3 1.1-.1 2 .4 2s.9-.9.9-2-.2-2-.4-2-.6.9-.9 2zm-39.3 1.1c-.2.4.1 1.1.7 1.4.5.4.8 1.4.4 2.3-.5 1.3-.2 1.2 1.5-.3 1.1-1 2-2.4 2-3.1 0-1.3-3.8-1.5-4.6-.3zm24.8.9c0 1.4.2 1.9.5 1.2.2-.6.2-1.8 0-2.5-.3-.6-.5-.1-.5 1.3zm-16.3.7c-1.3 1.6-1.2 1.7.4.4 1.6-1.3 2.1-2.1 1.3-2.1-.2 0-1 .8-1.7 1.7zM65.7 31c.6 9.8 1.1 11.2 1.2 3 0-3.6-.4-7.4-.8-8.5-.5-1.1-.6 1.2-.4 5.5z"/><path d="M28.3 27.7l.2 2.8-8.9.7c-4.9.3-9.2 1-9.6 1.5-1.1 1.1-1.4 8.3-.6 10.8 2.1 5.9 3.8 8.7 6.1 9.7 1.8.8 2.9.8 3.6.1.8-.8 1.9-.6 3.9.5 2.3 1.4 3.1 1.4 4.4.3 2-1.7 2.1-5.7.1-6.5-.8-.3-1.5-1.6-1.6-2.8 0-1.5-.3-1.8-.6-.8-.7 2-3.4 5-4.5 5-.4 0-.8-.9-.8-1.9 0-1.1-.7-2.6-1.5-3.5-2-2-1.9-2.3 1-2.8 2.1-.5 2.5-.1 2.6 2.1l.1 2.6.7-2.5c1-3.5 3.7-3.7 5.3-.3 1.1 2.3 2 2.8 5.3 2.9l4 .1-3.8-.4c-3.4-.4-5.8-2.5-4.4-3.9.7-.7 13.7 1.8 13.7 2.7 0 .4-1 1-2.2 1.2-2.2.4-2.2.4-.2.6 1.2 0 2.7-.6 3.4-1.4 1.7-2 3.2-1.9 2.8.2-.2 1.2.4 1.9 1.9 2.1 1.5.2 2.3 1.1 2.5 3 .2 2.1.8 2.7 2.7 2.7 2.6 0 6.1-5.2 6.1-9.2 0-1.2.5-2.5 1-2.8 1.7-1 1.2-7.5-.5-7.5-1.1 0-1.5-1.1-1.5-4 0-2.2-.4-4-1-4-.5 0-1 1.8-1 4 0 2.4-.5 4.1-1.2 4.2-4.7.5-8 .4-12.8-.4-6.2-1.1-8.9-1.5-10.7-1.7-.7 0-1.3-.9-1.3-2 0-1-.7-2.4-1.4-3.1-1.3-1-1.5-.7-1.3 1.7zM21 34c0 .5.3 1.5.6 2.4.4 1.2 0 1.6-1.6 1.6-1.4 0-1.9-.4-1.4-1.3.5-.8.2-.7-1 .2-2.1 1.8-4.6 0-2.8-2.1 1.1-1.4 6.2-2.1 6.2-.8zm8 .9c0 1-.7 2.4-1.5 3.1-1.9 1.6-4.5-.3-4.5-3.1 0-1.4.7-1.9 3-1.9s3 .5 3 1.9zm-15.6 4c-.4.3-.9 0-1.2-.8-.4-1.1-.6-1.1-1.3 0-.6 1-.9.8-.9-.8 0-1.2.6-2.3 1.3-2.6 1.3-.4 3.2 3.2 2.1 4.2zM33 35.4c0 .8.3 2.1.6 2.9.4 1.1-.1 1.3-1.9 1-1.9-.4-2.3-1-1.9-2.9.5-2.5 3.2-3.4 3.2-1zm8.3 0c3.2-.4 3.7-.2 3.7 1.5 0 1.1-.4 2.3-1 2.6-.5.3-1-.1-1-.9 0-.9-.8-1.6-1.7-1.5-1.1 0-1.3.3-.5.6 1.7.7 1.5 2.3-.3 2.3-.8 0-1.5-.5-1.5-1.1 0-.6-.8-.8-1.9-.4-2.2.7-3.5-.9-2.7-3.2.4-1.1 1-1.2 1.9-.5.6.5 2.9.8 5 .6zm14.5 2.1c0 2.1-.5 2.5-2.9 2.5-4 0-4.1-3.7-.1-4.3 1.5-.2 2.8-.5 2.8-.6.1 0 .2 1 .2 2.4zm4.6-.9c.8 2.1.8 2.1-1.4 2.7-1.1.3-2 .1-2-.3 0-1.6 1.2-4 2-4 .4 0 1.1.7 1.4 1.6zm-12 1c.8 2.1.9 2-1.3 2.1-1.4.1-1.7-.3-1.4-1.8.6-2.3 1.9-2.5 2.7-.3zm4.7 6.7c-2 2-2.2 2.1-1.5.2.8-2.1 2.5-3.7 3.3-2.9.3.2-.5 1.5-1.8 2.7zM16 45.5c0 .5-.5.3-1-.5s-1-2-1-2.5c0-.6.5-.3 1 .5s1 1.9 1 2.5z"/><path d="M34.5 48l-4 .7 4.5.3 4.5.2-3.2 1c-1.8.6-3.3 1.4-3.3 1.9 0 .4 1.6.2 3.5-.4 1.9-.6 3.5-1.4 3.5-1.9 0-.4.7-.8 1.6-.8.8 0 1.2-.5.9-1-.7-1.1-1.9-1.1-8 0zM7 48.5c0 1.7 5.8 8.2 9.3 10.5 2.7 1.8 2.6 1.6-.6-1.1-2.1-1.7-4.9-4.8-6.3-6.8C8.1 49.1 7 48 7 48.5zm50.6 6.3c-4.9 5.6-4.9 5.6-.7 1.7 3.5-3.3 7-7.7 5.9-7.4-.2 0-2.5 2.6-5.2 5.7zm-9.3-1.3c-.8 2.2.6 3.3 1.7 1.5 1.3-2 1.2-3 0-3-.6 0-1.3.7-1.7 1.5zm-11 .2c-2.2.8-1.4 2.5.8 1.8 1.5-.5 1.9-.4 1.5.4-.4.6-.3 1.1.2 1.1 1.6 0 2.2-1.3 1.1-2.7-1.2-1.4-1.6-1.5-3.6-.6zm-18 1.9c-2 5.2 14 11.4 17.8 6.8 1.6-1.9-.2-3.4-4.1-3.4-1.4 0-4.9-1.1-7.8-2.5-4.5-2.1-5.4-2.2-5.9-.9zm22 2.1c-1.8.7-1.6 4.2.2 4.9 2.4 1 4.7-1.4 3.4-3.7-1-1.9-1.5-2.1-3.6-1.2z"/></svg>