<svg width="64" height="64" viewBox="0 0 64 64" fill="none" xmlns="http://www.w3.org/2000/svg">
<circle cx="32" cy="32" r="31.85" fill="white" stroke="#ADADAD" stroke-width="0.3"/>
<path d="M42.7425 37.019H35.2831C34.2837 38.6002 33.1872 40.118 32 41.5635C30.8128 40.118 29.7163 38.6002 28.7169 37.019H21.2575L17.7283 46.2719H46.2717L42.7425 37.019Z" fill="#DFEEF4"/>
<path d="M32 17.7295C29.9853 17.7296 28.0531 18.5299 26.6284 19.9546C25.2038 21.3792 24.4034 23.3114 24.4033 25.3262C24.3588 32.5741 32 41.5634 32 41.5634C32 41.5634 39.6412 32.5741 39.5967 25.3262C39.5966 23.3114 38.7962 21.3792 37.3716 19.9546C35.947 18.5299 34.0148 17.7296 32 17.7295ZM32 28.5494C31.3625 28.5494 30.7393 28.3603 30.2093 28.0062C29.6792 27.652 29.2661 27.1486 29.0222 26.5596C28.7782 25.9707 28.7144 25.3226 28.8387 24.6974C28.9631 24.0721 29.2701 23.4978 29.7209 23.047C30.1716 22.5962 30.746 22.2893 31.3712 22.1649C31.9964 22.0405 32.6445 22.1044 33.2335 22.3483C33.8224 22.5923 34.3258 23.0054 34.68 23.5355C35.0342 24.0655 35.2232 24.6887 35.2232 25.3262C35.2234 25.7495 35.1401 26.1687 34.9782 26.5598C34.8163 26.951 34.5789 27.3064 34.2795 27.6057C33.9802 27.905 33.6248 28.1424 33.2337 28.3044C32.8425 28.4663 32.4233 28.5496 32 28.5494Z" fill="#F45858"/>
<path d="M43.562 39.1637L29.3185 44.2298L23.7676 37.019H28.7174C29.7166 38.6002 30.8129 40.1178 32 41.5632C33.1871 40.1178 34.2834 38.6002 35.2826 37.019H42.7432L43.562 39.1637Z" fill="#F2DA30"/>
<path d="M23.5796 46.272L37.6786 41.2568L41.5385 46.272H23.5796Z" fill="#3EA2E5"/>
</svg>
