<svg width="16" height="16" viewBox="0 0 16 16" fill="none" xmlns="http://www.w3.org/2000/svg">
<path d="M15.9023 15.431L11.034 10.5627C12.0452 9.43994 12.6667 7.95966 12.6667 6.33331C12.6667 2.84116 9.82553 0 6.33334 0C2.84116 0 0 2.84116 0 6.33334C0 9.82553 2.84116 12.6667 6.33334 12.6667C7.95969 12.6667 9.43994 12.0452 10.5627 11.034L15.431 15.9023C15.4961 15.9674 15.5814 16 15.6667 16C15.752 16 15.8372 15.9674 15.9024 15.9023C16.0326 15.7721 16.0326 15.5612 15.9023 15.431ZM6.33334 12C3.209 12 0.666687 9.458 0.666687 6.33334C0.666687 3.20869 3.209 0.666656 6.33334 0.666656C9.45769 0.666656 12 3.20866 12 6.33334C12 9.45803 9.45769 12 6.33334 12Z" fill="#E5E5E5"/>
</svg>
