<svg width="18" height="18" viewBox="0 0 18 18" fill="none" xmlns="http://www.w3.org/2000/svg">
<path d="M14.5765 11.357L14.7587 7.49063C14.7587 6.76164 14.1654 6.16737 13.4296 6.16737C13.1964 6.16737 12.9774 6.22763 12.7873 6.33543C12.7016 5.68826 12.145 5.18755 11.4699 5.18755C11.2372 5.18804 11.0182 5.2483 10.8276 5.3546C10.7409 4.70841 10.1849 4.20721 9.51025 4.20771C9.28194 4.20771 9.06738 4.26551 8.87973 4.36791L8.87973 2.63163C8.87973 1.90263 8.28643 1.30837 7.55059 1.30837C6.82111 1.30789 6.22733 1.90167 6.22733 2.63163L6.22733 9.30233L3.93845 7.63465C3.32751 7.17657 2.45987 7.23781 1.91949 7.7782C1.51432 8.18337 1.51432 8.84278 1.91949 9.24795L6.53892 13.8674C7.25862 14.5871 8.21542 14.9834 9.23346 14.9834L10.7747 14.9834C11.7913 14.9839 12.7471 14.5875 13.4658 13.8688C14.137 13.1976 14.5314 12.3055 14.5765 11.357ZM10.7747 14.2906L9.23346 14.2906C8.40061 14.2906 7.61772 13.9663 7.02883 13.3774L2.4094 8.758C2.27418 8.62278 2.27418 8.40328 2.4094 8.26806C2.70728 7.97019 3.18591 7.93638 3.52689 8.19212L6.3699 10.263C6.47524 10.3399 6.61436 10.3507 6.73098 10.2919C6.84658 10.2331 6.92009 10.1136 6.92007 9.98326L6.92007 2.63161C6.92007 2.28378 7.20325 2.0006 7.55647 2.00012C7.73038 2.0006 7.88815 2.07115 8.00231 2.18531C8.11647 2.29947 8.18699 2.45721 8.18702 2.63163L8.18702 7.53376C8.18702 7.72483 8.34233 7.88014 8.5334 7.88014C8.62893 7.87963 8.71565 7.84096 8.77836 7.77825C8.84108 7.71553 8.87978 7.62884 8.87978 7.5328V5.53099C8.87978 5.18317 9.16247 4.90047 9.51618 4.90047C9.86304 4.90047 10.1467 5.18413 10.1467 5.53099L10.1467 7.53376C10.1467 7.72483 10.302 7.88014 10.4931 7.88014C10.5886 7.87964 10.6753 7.84096 10.738 7.77825C10.8008 7.71553 10.8395 7.62884 10.8395 7.5328L10.8395 6.51081C10.8395 6.16299 11.1222 5.88029 11.4759 5.88029C11.8227 5.88029 12.1064 6.16395 12.1064 6.51081L12.1064 7.53767C12.1069 7.53913 12.1064 7.53863 12.1064 7.53863V7.53959C12.1064 7.54056 12.1064 7.54056 12.1064 7.54056C12.1064 7.54152 12.1064 7.54152 12.1064 7.54152L12.1069 7.54201C12.1074 7.54249 12.1069 7.54297 12.1069 7.54297C12.1118 7.73011 12.2656 7.88005 12.4532 7.87954C12.6443 7.87954 12.7996 7.72423 12.7996 7.53316L12.7996 7.49105C12.7996 7.32253 12.8653 7.16377 12.9843 7.04472C13.1034 6.92567 13.2611 6.86002 13.4355 6.86004C13.7834 6.86103 14.0651 7.1437 14.0666 7.4744L13.8848 11.3247C13.8475 12.0997 13.5251 12.8297 12.9759 13.3789C12.388 13.9668 11.6066 14.2906 10.7747 14.2906Z" fill="white"/>
</svg>
