<svg width="18" height="16" viewBox="0 0 18 16" fill="none" xmlns="http://www.w3.org/2000/svg">
<g clip-path="url(#clip0_30:4241)">
<path d="M8.99882 16C6.70484 16 4.41086 16 2.12392 16C1.98318 16 1.84245 16 1.72282 15.8999C1.57505 15.7783 1.53987 15.6209 1.53987 15.4421C1.53987 12.9173 1.53987 10.3853 1.5469 7.86053C1.5469 7.70317 1.49765 7.6245 1.36395 7.54582C0.49139 7.0523 0.0480742 6.28699 -0.00118305 5.2785C-0.0082198 5.16406 0.0340007 5.07108 0.083258 4.97094C0.955815 3.41171 1.83541 1.85248 2.70093 0.286097C2.80648 0.100134 2.94722 0.00715244 3.15832 0.00715244C3.21461 0.00715244 3.27794 0.00715244 3.33424 0.00715244C7.11297 0.00715244 10.8987 0.00715244 14.6775 0C15.0152 0 15.2123 0.114439 15.3812 0.414841C16.1833 1.87394 16.9926 3.33304 17.8229 4.77783C17.9918 5.07823 18.034 5.36433 17.9777 5.67903C17.8159 6.51587 17.3796 7.15244 16.6337 7.56013C16.507 7.63165 16.4648 7.70317 16.4648 7.84622C16.4719 10.3639 16.4648 12.8887 16.4648 15.4063C16.4648 15.8355 16.303 15.9928 15.8808 15.9928C13.5868 16 11.2928 16 8.99882 16ZM4.73455 6.72329C4.71344 6.74475 4.69233 6.75905 4.67826 6.78051C4.14346 7.49575 3.43275 7.86768 2.54612 7.86768C2.41242 7.86768 2.4265 7.9392 2.4265 8.02503C2.4265 10.3281 2.4265 12.6384 2.4265 14.9414C2.4265 15.0702 2.46872 15.0988 2.58834 15.0988C2.9824 15.0916 3.37646 15.0988 3.76348 15.0988C3.98866 15.0988 3.98866 15.0988 3.98866 14.8628C3.98866 13.3679 3.98866 11.873 3.98866 10.3782C3.98866 9.35539 4.62196 8.71882 5.62822 8.71882C5.99413 8.71882 6.36708 8.71882 6.73299 8.71882C6.97927 8.71882 7.22556 8.76173 7.4437 8.87617C8.02071 9.18373 8.29515 9.67725 8.29515 10.3281C8.29515 11.8587 8.29515 13.3894 8.29515 14.92C8.29515 15.0416 8.31626 15.0988 8.45699 15.0916C10.7791 15.0845 13.1012 15.0845 15.4234 15.0916C15.55 15.0916 15.5782 15.0559 15.5782 14.9271C15.5782 12.6241 15.5711 10.3281 15.5782 8.02503C15.5782 7.88914 15.536 7.86053 15.4093 7.86053C14.8956 7.86053 14.4312 7.71033 14.002 7.43138C13.7205 7.24542 13.4883 7.00224 13.2842 6.71614C13.242 6.76621 13.2068 6.80912 13.1787 6.84488C12.1513 8.19669 10.1458 8.19669 9.11845 6.84488C9.02697 6.72329 8.98475 6.73044 8.90031 6.84488C8.17552 7.81046 6.86669 8.12517 5.79006 7.61734C5.35379 7.42423 5.00898 7.11667 4.73455 6.72329ZM1.29358 4.63478C6.44448 4.63478 11.5672 4.63478 16.7041 4.63478C16.69 4.59902 16.69 4.58471 16.683 4.57041C16.0215 3.3831 15.36 2.20295 14.6986 1.01565C14.6493 0.929817 14.586 0.915512 14.4945 0.915512C10.8354 0.915512 7.1763 0.915512 3.51719 0.915512C3.41164 0.915512 3.34831 0.951274 3.29905 1.05141C2.91907 1.74519 2.52501 2.43898 2.13799 3.13277C1.85652 3.61913 1.58209 4.1198 1.29358 4.63478ZM7.42259 12.5811C7.42259 11.823 7.42259 11.0648 7.42259 10.3138C7.42259 9.87036 7.16927 9.61287 6.73299 9.61287C6.34597 9.61287 5.95895 9.61287 5.57192 9.61287C5.13564 9.61287 4.88232 9.87036 4.88232 10.3138C4.88232 11.8516 4.88232 13.3894 4.87529 14.9271C4.87529 15.0559 4.90343 15.0988 5.03713 15.0988C5.77599 15.0916 6.51485 15.0916 7.25371 15.0988C7.38741 15.0988 7.42259 15.063 7.41555 14.9271C7.41555 14.1475 7.42259 13.3679 7.42259 12.5811ZM2.60242 5.55029C2.08873 5.55029 1.56801 5.55029 1.05433 5.55029C0.941742 5.55029 0.913595 5.57175 0.941742 5.69334C1.11766 6.42289 1.80023 6.96647 2.56723 6.97363C3.3272 6.98078 4.03088 6.43719 4.21383 5.7148C4.24901 5.58605 4.2279 5.55029 4.09421 5.55744C3.60163 5.55029 3.10202 5.55029 2.60242 5.55029ZM6.85965 5.55029C6.36004 5.55029 5.86043 5.55029 5.36786 5.55029C5.2412 5.55029 5.19194 5.55744 5.23416 5.7148C5.42415 6.43719 6.10672 6.96647 6.86669 6.96647C7.62666 6.96647 8.30922 6.43719 8.49921 5.7148C8.5344 5.58605 8.51329 5.55029 8.37959 5.55029C7.87294 5.55029 7.3663 5.55029 6.85965 5.55029ZM11.1591 5.55029C10.6665 5.55029 10.174 5.55744 9.68139 5.55029C9.52658 5.55029 9.47732 5.5646 9.52658 5.74341C9.72361 6.4515 10.4132 6.97363 11.1591 6.96647C11.912 6.95932 12.5876 6.43004 12.7776 5.7148C12.8127 5.5789 12.7987 5.54314 12.6509 5.54314C12.1513 5.55029 11.6517 5.55029 11.1591 5.55029ZM15.4374 5.55744C14.9308 5.55744 14.4312 5.5646 13.9245 5.55744C13.7768 5.55744 13.7627 5.60036 13.7979 5.7291C13.9949 6.4515 14.6845 6.98078 15.4374 6.97363C16.1974 6.96647 16.88 6.43004 17.0629 5.70764C17.0911 5.58605 17.07 5.55744 16.9503 5.55744C16.4507 5.55744 15.9441 5.55744 15.4374 5.55744Z" fill="#5FD3D1"/>
<path d="M11.5685 13.089C11.1885 13.089 10.8085 13.089 10.4285 13.089C9.64747 13.0819 9.14786 12.5741 9.14083 11.7801C9.14083 11.1507 9.12675 10.5142 9.14786 9.88474C9.16897 9.24103 9.65451 8.74036 10.2878 8.72605C11.1463 8.7046 11.9977 8.7046 12.8562 8.72605C13.4895 8.74036 13.9891 9.24818 14.0032 9.89905C14.0243 10.5714 14.0243 11.2437 14.0032 11.916C13.9891 12.5597 13.4966 13.0533 12.8703 13.0819C12.434 13.0962 12.0048 13.0819 11.5685 13.089C11.5685 13.0819 11.5685 13.089 11.5685 13.089ZM11.5755 12.1878C11.9555 12.1878 12.3355 12.1878 12.7155 12.1878C13.004 12.1878 13.1236 12.0662 13.1236 11.7801C13.1236 11.1936 13.1236 10.6143 13.1236 10.0278C13.1236 9.73454 13.004 9.61295 12.7225 9.61295C11.9555 9.61295 11.1885 9.61295 10.4215 9.61295C10.1471 9.61295 10.0204 9.7417 10.0204 10.0135C10.0204 10.6 10.0204 11.1936 10.0204 11.7801C10.0204 12.0662 10.14 12.1807 10.4145 12.1878C10.8015 12.195 11.1885 12.1878 11.5755 12.1878Z" fill="#5FD3D1"/>
</g>
<defs>
<clipPath id="clip0_30:4241">
<rect width="18" height="16" fill="white"/>
</clipPath>
</defs>
</svg>
