<svg width="23" height="23" viewBox="0 0 23 23" fill="none" xmlns="http://www.w3.org/2000/svg">
<g clip-path="url(#clip0_30:4224)">
<path d="M11.473 23.0007C7.87031 23.0007 4.26758 23.0007 0.673828 23.0007C0.601953 23.0007 0.521094 23.0007 0.449219 23.0007C0.125781 22.9827 0.00898437 22.8658 0 22.542C0 21.5166 0 20.4912 0 19.4657C0 19.3308 0.0179687 19.1959 0.0449219 19.061C0.161719 18.4493 0.485156 17.9726 1.04219 17.6668C2.33594 16.9472 3.66562 16.3355 5.10313 15.9577C5.30977 15.9038 5.36367 15.8138 5.36367 15.6069C5.35469 12.5127 5.35469 9.41842 5.36367 6.32417C5.36367 5.58659 5.45352 4.858 5.70508 4.16539C6.47773 2.07858 7.9332 0.720344 10.0895 0.207634C12.093 -0.278092 13.9258 0.189644 15.4891 1.54788C16.9355 2.79817 17.6094 4.42625 17.6094 6.33317C17.6094 9.42742 17.6094 12.5217 17.6004 15.6159C17.6004 15.8138 17.6633 15.8858 17.843 15.9307C19.2625 16.2905 20.5742 16.9112 21.841 17.6128C22.6047 18.0355 23 18.7102 23 19.6007C23 20.5631 23 21.5166 23 22.479C23 22.8658 22.8742 23.0097 22.4789 23.0097C22.0566 23.0187 21.6254 23.0097 21.2031 23.0097C17.9598 23.0007 14.7164 23.0007 11.473 23.0007ZM6.11836 10.5428C6.11836 12.1799 6.11836 13.8259 6.11836 15.463C6.11836 15.6159 6.13633 15.6789 6.31602 15.6429C7.0707 15.49 7.83438 15.391 8.60703 15.3461C8.77773 15.3371 8.81367 15.2741 8.81367 15.1122C8.80469 14.6265 8.80469 14.1407 8.81367 13.655C8.82266 13.4751 8.75977 13.3492 8.64297 13.2233C7.57383 12.0719 7.07969 10.6777 6.93594 9.13958C6.85508 8.31205 6.9 7.47552 6.9 6.64799C6.9 6.32417 7.00781 6.18025 7.34023 6.12629C7.85234 6.03634 8.20273 5.7485 8.4543 5.30775C8.65195 4.95695 8.72383 4.57017 8.82266 4.18338C8.86758 3.9765 9.00234 3.85957 9.22695 3.85957C9.44258 3.85957 9.55039 3.9855 9.59531 4.18338C9.64922 4.42625 9.70312 4.66911 9.76602 4.90298C10.0266 5.88342 10.368 6.15327 11.3832 6.15327C12.7937 6.15327 14.1953 6.15327 15.6059 6.15327C15.9742 6.15327 16.1 6.2792 16.091 6.639C16.082 7.41256 16.118 8.18612 16.0641 8.95069C15.9563 10.5878 15.4441 12.0539 14.3121 13.2682C14.2402 13.3492 14.2133 13.4212 14.2133 13.5291C14.2223 14.0688 14.2223 14.6085 14.2133 15.1482C14.2133 15.3101 14.2672 15.3461 14.4109 15.3551C15.1477 15.418 15.8844 15.49 16.6121 15.6339C16.8906 15.6879 16.8906 15.6879 16.8906 15.391C16.8906 12.3598 16.8906 9.33747 16.8906 6.30618C16.8906 6.06332 16.8816 5.81146 16.8457 5.5686C16.5043 2.87013 14.2672 0.864262 11.6797 0.801298C9.88281 0.756323 8.41836 1.44893 7.29531 2.84314C6.47773 3.85057 6.12734 5.01991 6.13633 6.30618C6.11836 7.70939 6.11836 9.12159 6.11836 10.5428ZM9.14609 5.61358C8.9125 6.06332 8.625 6.47709 8.1668 6.61201C7.65469 6.76492 7.62773 7.07075 7.6457 7.50251C7.67266 8.32104 7.63672 9.14857 7.82539 9.95812C8.10391 11.1904 8.61602 12.2878 9.64023 13.0973C10.8082 14.0148 12.2637 14.0148 13.4047 13.0614C14.4379 12.1978 14.941 11.0465 15.1926 9.75123C15.3543 8.89672 15.3004 8.03321 15.3184 7.17869C15.3273 6.97181 15.2734 6.89985 15.0488 6.89985C13.773 6.90884 12.4883 6.90884 11.2125 6.90884C10.7184 6.90884 10.2422 6.82789 9.83789 6.52206C9.53242 6.28819 9.32578 5.97337 9.14609 5.61358ZM7.60078 16.2186C7.62773 16.2635 7.62773 16.2905 7.6457 16.3085C8.89453 18.1255 10.1523 19.9425 11.4012 21.7684C11.527 21.9483 11.5629 21.8314 11.6258 21.7414C12.8477 19.9695 14.0695 18.1885 15.2914 16.4165C15.3273 16.3625 15.3902 16.3265 15.3543 16.2366C15.0578 16.2096 14.7613 16.1736 14.4648 16.1466C14.1684 16.1196 14.1684 16.1286 14.1594 16.4255C14.1504 16.6863 14.0605 16.8212 13.8629 16.8572C13.5844 16.9022 13.4047 16.7403 13.3957 16.4255C13.3688 15.7149 13.3418 15.0043 13.3508 14.2937C13.3598 14.0328 13.3508 14.0328 13.1172 14.1497C12.2277 14.6085 11.3113 14.6804 10.359 14.3746C10.0895 14.2847 9.84688 14.1497 9.56836 14.0238C9.56836 14.7164 9.56836 15.3731 9.56836 16.0297C9.56836 16.1916 9.57734 16.3625 9.55937 16.5244C9.54141 16.7403 9.38867 16.8572 9.18203 16.8572C8.97539 16.8572 8.83164 16.7313 8.81367 16.5154C8.80469 16.4255 8.80469 16.3355 8.80469 16.2456C8.80469 16.1646 8.78672 16.1196 8.69688 16.1196C8.3375 16.1376 7.97812 16.1646 7.60078 16.2186ZM6.14531 16.4974C6.11836 16.4974 6.10039 16.4884 6.08242 16.4884C5.89375 16.5334 5.70508 16.5694 5.51641 16.6143C4.11484 16.9652 2.81211 17.5498 1.53633 18.2244C1.05117 18.4853 0.781641 18.9081 0.772656 19.4567C0.763672 20.3203 0.772656 21.1838 0.763672 22.0383C0.763672 22.1732 0.799609 22.2182 0.934375 22.2182C2.34492 22.2182 3.76445 22.2182 5.175 22.2182C5.30977 22.2182 5.35469 22.1732 5.35469 22.0383C5.3457 21.7325 5.3457 21.4266 5.35469 21.1208C5.36367 20.842 5.49844 20.698 5.74102 20.698C5.98359 20.698 6.10938 20.842 6.11836 21.1298C6.12734 21.4176 6.12734 21.7145 6.11836 22.0023C6.10938 22.1912 6.17227 22.2272 6.35195 22.2272C7.54687 22.2182 8.75078 22.2272 9.9457 22.2182C9.99961 22.2182 10.0625 22.2452 10.1164 22.1732C10.0535 22.1372 9.99063 22.0923 9.92773 22.0563C8.39141 21.0938 6.84609 20.1314 5.30977 19.1599C4.98633 18.962 4.95039 18.8001 5.12109 18.4763C5.43555 17.8916 5.75898 17.307 6.06445 16.7223C6.09141 16.6593 6.1543 16.5964 6.14531 16.4974ZM16.8637 16.5154C16.8457 16.6144 16.9086 16.6683 16.9445 16.7313C17.25 17.307 17.5645 17.8736 17.8699 18.4493C18.0766 18.8361 18.0406 18.962 17.6633 19.1959C16.1359 20.1493 14.6086 21.1118 13.0813 22.0653C13.0184 22.1012 12.9555 22.1462 12.8836 22.1912C12.9195 22.2182 12.9195 22.2272 12.9285 22.2272C14.1863 22.2272 15.4441 22.2272 16.702 22.2362C16.8277 22.2362 16.8457 22.1732 16.8457 22.0653C16.8367 21.7594 16.8457 21.4536 16.8457 21.1478C16.8457 20.8599 16.9715 20.716 17.2141 20.707C17.4656 20.698 17.6004 20.851 17.6094 21.1478C17.6184 21.4446 17.6184 21.7504 17.6094 22.0473C17.6004 22.1912 17.6543 22.2362 17.798 22.2362C19.2086 22.2362 20.6102 22.2272 22.0207 22.2362C22.1734 22.2362 22.2094 22.1822 22.2094 22.0383C22.2004 21.2018 22.2094 20.3562 22.2094 19.5197C22.2094 18.917 21.9219 18.4763 21.3918 18.1975C20.6012 17.7747 19.7926 17.3969 18.9391 17.0911C18.2563 16.8482 17.5824 16.6233 16.8637 16.5154ZM16.0371 16.6773C14.9859 18.2154 13.9527 19.7176 12.9285 21.2197C13.0184 21.2107 13.0813 21.1748 13.1441 21.1388C14.2402 20.4642 15.3273 19.7806 16.4234 19.1059C16.6121 18.989 16.8008 18.8631 16.9984 18.7551C17.0703 18.7102 17.1242 18.6742 17.0703 18.5752C16.7199 17.9546 16.3875 17.3339 16.0371 16.6773ZM9.99961 21.2108C10.0086 21.2018 10.0266 21.1928 10.0355 21.1838C9.00234 19.6816 7.97813 18.1795 6.94492 16.6683C6.85508 16.7223 6.83711 16.7942 6.80117 16.8572C6.54062 17.3429 6.28008 17.8287 6.01055 18.3144C5.84883 18.6202 5.84883 18.6202 6.14531 18.8091C7.43906 19.6097 8.72383 20.4102 9.99961 21.2108Z" fill="#5FD3D1"/>
</g>
<defs>
<clipPath id="clip0_30:4224">
<rect width="23" height="23" fill="white"/>
</clipPath>
</defs>
</svg>
