<svg width="19" height="25" viewBox="0 0 19 25" fill="none" xmlns="http://www.w3.org/2000/svg">
<path d="M9.03126 24.0333C6.37446 24.0333 3.70826 24.0333 1.05146 24.0333C0.32858 24.0333 0 23.7047 0 22.9912C0 21.6863 0 20.372 0 19.067C0 18.9919 0 18.9074 0.00938801 18.8323C0.037552 18.6446 0.150208 18.5413 0.337968 18.5319C0.525728 18.5225 0.647772 18.6258 0.694712 18.8042C0.713489 18.8887 0.713488 18.9732 0.713488 19.0577C0.713488 20.3626 0.713488 21.6675 0.713488 22.9725C0.713488 23.2916 0.741653 23.3104 1.06084 23.3104C4.08378 23.3104 7.11611 23.3104 10.139 23.3104C10.3362 23.3104 10.3737 23.2635 10.3737 23.0663C10.3644 21.3483 10.3644 19.6209 10.3644 17.9029C10.3644 17.5368 10.4113 17.5837 10.0358 17.5837C7.01284 17.5837 3.98051 17.5837 0.957577 17.5837C0.807369 17.5837 0.7041 17.5837 0.685324 17.7903C0.666548 17.9686 0.506952 18.0719 0.32858 18.0531C0.150208 18.0344 0.018776 17.9217 0.00938801 17.7339C0 17.3584 0 16.9829 0.00938801 16.6074C0.018776 16.4102 0.14082 16.2976 0.347356 16.2788C0.535116 16.2694 0.713489 16.4008 0.7041 16.6074C0.694712 16.8609 0.816757 16.8702 1.0139 16.8702C4.03684 16.8609 7.05039 16.8702 10.0733 16.8702C10.3737 16.8702 10.3737 16.8702 10.3737 16.5698C10.3737 15.1241 10.3737 13.6783 10.3737 12.2326C10.3737 12.0354 10.3362 11.9697 10.1203 11.9697C7.06917 11.9791 4.01807 11.9791 0.966965 11.9697C0.769817 11.9697 0.7041 12.0073 0.7041 12.2232C0.713489 13.1995 0.713488 14.1759 0.713488 15.1522C0.713488 15.2461 0.722876 15.34 0.685324 15.4339C0.619608 15.5935 0.497564 15.6686 0.337968 15.6592C0.168984 15.6498 0.04694 15.5465 0.018776 15.3682C0 15.3025 0 15.2273 0 15.1616C0 12.7489 0 10.3456 0 7.93287C0 7.64184 0.0844921 7.40714 0.262864 7.18183C1.4833 5.66097 2.68497 4.1495 3.89602 2.62864C4.10256 2.37517 4.32787 2.14985 4.64706 2.04659C4.75972 2.00903 4.78788 1.94332 4.7785 1.84005C4.76911 1.65229 4.7785 1.46453 4.7785 1.27677C4.7785 0.544504 5.21034 0.0844921 5.94261 0.00938801C6.0271 0 6.11159 0 6.19608 0C8.51492 0 10.8244 0 13.1432 0C13.3967 0 13.6408 0.028164 13.8755 0.131432C14.3167 0.337968 14.589 0.666548 14.5608 1.1735C14.5326 1.6429 14.6359 2.02781 14.9175 2.45027C15.9221 3.94296 16.8515 5.4826 17.809 7.00345C17.9686 7.25693 18.0437 7.52918 18.0437 7.82021C18.0437 12.8616 18.0437 17.9123 18.0437 22.9537C18.0437 23.179 18.0156 23.3949 17.9029 23.5827C17.7246 23.8831 17.4617 24.0239 17.1049 24.0239C14.7767 24.0145 12.4391 24.0239 10.1109 24.0239C9.74475 24.0333 9.38801 24.0333 9.03126 24.0333ZM14.2041 17.5931C13.2371 17.5931 12.2701 17.5931 11.2938 17.5931C11.1436 17.5931 11.0778 17.6119 11.0778 17.7903C11.0872 19.5177 11.0778 21.2451 11.0778 22.9725C11.0778 23.2823 11.1248 23.3198 11.4346 23.3198C13.2653 23.3198 15.0959 23.3198 16.9172 23.3198C17.2833 23.3198 17.3209 23.2916 17.3209 22.9255C17.3209 21.2169 17.3209 19.5177 17.3209 17.809C17.3209 17.6401 17.2833 17.5837 17.1049 17.5837C16.1474 17.6025 15.1804 17.5931 14.2041 17.5931ZM1.4082 6.90019C1.46453 6.9659 1.51147 6.94713 1.55841 6.94713C4.53441 6.94713 7.50102 6.94713 10.477 6.94713C10.6178 6.94713 10.6836 6.8908 10.7493 6.78753C11.566 5.4826 12.3922 4.17766 13.2089 2.87273C13.2465 2.8164 13.3216 2.76007 13.284 2.69436C13.2465 2.62864 13.1526 2.66619 13.0869 2.66619C11.6317 2.66619 10.1766 2.66619 8.72146 2.66619C7.58551 2.66619 6.44956 2.66619 5.323 2.66619C4.96626 2.66619 4.68462 2.78824 4.4593 3.07927C3.5205 4.28093 2.56293 5.46382 1.61474 6.6561C1.53963 6.74059 1.47392 6.82508 1.4082 6.90019ZM5.53892 11.2656C7.06917 11.2656 8.59941 11.2656 10.139 11.2656C10.308 11.2656 10.3831 11.2374 10.3831 11.0403C10.3737 9.98884 10.3737 8.92799 10.3831 7.87654C10.3831 7.69817 10.3362 7.65123 10.1578 7.65123C7.10672 7.66061 4.05562 7.66061 1.0139 7.65123C0.788593 7.65123 0.713488 7.73572 0.713488 7.96103C0.722876 8.98432 0.722876 10.0076 0.713488 11.0309C0.713488 11.2093 0.751041 11.2656 0.948189 11.2656C2.46905 11.2562 4.00868 11.2656 5.53892 11.2656ZM14.2041 16.8796C15.1616 16.8796 16.1286 16.8702 17.0862 16.8796C17.2739 16.8796 17.3396 16.8327 17.3396 16.6355C17.3303 15.1616 17.3303 13.6783 17.3396 12.2044C17.3396 12.026 17.2927 11.9697 17.1049 11.9697C15.171 11.9791 13.2371 11.9791 11.3125 11.9697C11.1436 11.9697 11.0872 12.0073 11.0872 12.1856C11.0966 13.6689 11.0966 15.1616 11.0872 16.6449C11.0872 16.8233 11.1342 16.8796 11.3219 16.8796C12.2795 16.8702 13.2371 16.8796 14.2041 16.8796ZM14.2134 11.2562C15.1804 11.2562 16.1568 11.2562 17.1237 11.2562C17.2833 11.2562 17.3396 11.2187 17.3396 11.0497C17.3303 9.98884 17.3303 8.91861 17.3396 7.85776C17.3396 7.68878 17.2833 7.65123 17.1237 7.65123C15.1804 7.65123 13.2465 7.65123 11.3032 7.64184C11.1248 7.64184 11.0872 7.69817 11.0872 7.86715C11.0966 8.91861 11.0966 9.97945 11.0872 11.0309C11.0872 11.2093 11.1342 11.2562 11.3125 11.2562C12.2701 11.2562 13.2465 11.2562 14.2134 11.2562ZM16.9172 6.93774C16.0065 5.49198 15.1147 4.08378 14.2041 2.65681C13.2934 4.09317 12.4016 5.50137 11.4909 6.93774C13.3216 6.93774 15.0959 6.93774 16.9172 6.93774ZM9.67903 1.94332C10.9934 1.94332 12.3077 1.94332 13.622 1.94332C13.8004 1.94332 13.8755 1.89638 13.8567 1.70862C13.8379 1.55841 13.8567 1.39881 13.8567 1.23922C13.8567 0.948189 13.744 0.807369 13.4624 0.751041C13.3404 0.722877 13.2183 0.713489 13.0869 0.713489C10.815 0.713489 8.5337 0.713489 6.2618 0.713489C6.12098 0.713489 5.98016 0.722877 5.83934 0.760429C5.58586 0.816757 5.49198 0.948189 5.49198 1.21105C5.49198 1.37065 5.50137 1.53963 5.49198 1.69923C5.47321 1.90577 5.5577 1.94332 5.74546 1.94332C7.05039 1.93393 8.36471 1.94332 9.67903 1.94332Z" fill="#5FD3D1"/>
<path d="M4.65721 4.95664C4.65721 5.09746 4.60089 5.18196 4.53517 5.25706C4.23475 5.63258 3.93434 6.01749 3.63392 6.39301C3.46494 6.59955 3.24901 6.6371 3.08003 6.50567C2.92043 6.37423 2.91105 6.15831 3.08003 5.94239C3.38045 5.55748 3.69025 5.17257 4.00005 4.78766C4.11271 4.64684 4.26292 4.59051 4.4319 4.65623C4.58211 4.71256 4.64783 4.8346 4.65721 4.95664Z" fill="#5FD3D1"/>
<path d="M5.65145 3.74529C5.66084 3.80161 5.63268 3.87672 5.58574 3.94243C5.46369 4.10203 5.34165 4.26163 5.20083 4.41183C5.06001 4.56204 4.89102 4.59959 4.72204 4.46816C4.55306 4.33673 4.53428 4.15836 4.64694 3.98937C4.76898 3.811 4.9098 3.64202 5.05062 3.48242C5.15389 3.36977 5.29471 3.35099 5.43553 3.41671C5.57635 3.47303 5.64206 3.5763 5.65145 3.74529Z" fill="#5FD3D1"/>
</svg>
