<svg width="23" height="27" viewBox="0 0 23 27" fill="none" xmlns="http://www.w3.org/2000/svg">
<g clip-path="url(#clip0_30:4195)">
<path d="M12.2014 22.2356C12.2014 22.5624 12.2014 22.826 12.2014 23.079C12.2014 24.1227 12.2014 25.1665 12.2014 26.2102C12.2014 26.4527 12.1413 26.6635 11.9612 26.8217C11.771 26.9904 11.5408 27.0431 11.3106 26.9271C11.0604 26.8111 10.9203 26.6003 10.9103 26.3051C10.9003 25.8518 10.9103 25.3879 10.9103 24.9345C10.9103 24.0384 10.9103 23.1423 10.9103 22.2461C10.8102 22.2145 10.7702 22.2988 10.7201 22.3516C9.84936 23.1528 8.98861 23.9541 8.11785 24.7448C7.8276 25.0189 7.50732 25.0294 7.2571 24.808C6.93682 24.5128 6.92681 24.07 7.26711 23.7643C8.14788 22.9525 9.02864 22.1512 9.90941 21.3395C10.1897 21.0759 10.4699 20.8123 10.7601 20.5593C10.8602 20.4644 10.9103 20.3695 10.9103 20.2219C10.9003 19.6104 10.9003 18.9884 10.9103 18.3769C10.9103 18.2083 10.8602 18.1239 10.7301 18.0501C9.87938 17.5335 9.02864 17.0169 8.1779 16.4898C8.0578 16.416 7.96772 16.4054 7.83761 16.4898C7.32716 16.8061 6.81672 17.1223 6.29627 17.4175C6.18617 17.4808 6.12612 17.5651 6.1061 17.7022C5.82586 19.2414 5.53561 20.7807 5.24535 22.3305C5.22534 22.4148 5.21533 22.4992 5.1853 22.5835C5.0752 22.9525 4.76494 23.1633 4.44466 23.079C4.08434 22.9841 3.88417 22.6573 3.96424 22.2567C4.11437 21.4343 4.27451 20.6015 4.42464 19.7791C4.50471 19.3469 4.58478 18.9041 4.67486 18.4297C4.55475 18.5035 4.47468 18.5456 4.39461 18.5878C3.41376 19.1887 2.43291 19.7791 1.45205 20.3801C1.33195 20.4539 1.20184 20.5277 1.06171 20.5277C0.761453 20.5382 0.501227 20.359 0.421157 20.0849C0.331079 19.7686 0.451183 19.4418 0.751445 19.252C1.75231 18.6405 2.75319 18.029 3.76406 17.4175C3.84413 17.3648 3.9142 17.3227 4.0343 17.2383C3.51385 17.0486 3.02342 16.8693 2.52299 16.6901C1.84239 16.4476 1.15179 16.2051 0.471201 15.9521C0.210975 15.8572 0.0708527 15.6464 0.0508353 15.3512C0.0308179 15.0771 0.160931 14.8767 0.381122 14.7502C0.591305 14.6237 0.791479 14.6659 1.01167 14.7502C2.4229 15.2668 3.84413 15.7729 5.25536 16.3C5.4155 16.3633 5.54561 16.3527 5.69574 16.2578C6.17616 15.9521 6.65658 15.6674 7.14701 15.3828C7.28713 15.2985 7.32716 15.2141 7.32716 15.056C7.31715 14.0017 7.31715 12.9474 7.32716 11.8931C7.32716 11.735 7.27712 11.6401 7.14701 11.5663C6.66659 11.2817 6.18617 10.997 5.71576 10.7018C5.5356 10.5858 5.37547 10.5858 5.17529 10.6596C3.76406 11.1868 2.34283 11.6928 0.921593 12.2094C0.591305 12.3254 0.32107 12.2516 0.140914 11.988C-0.0792779 11.6717 -0.0192256 11.2817 0.291044 11.0708C0.391131 10.997 0.511236 10.9443 0.63134 10.9021C1.7323 10.5015 2.83326 10.1114 3.95423 9.71079C3.90419 9.60536 3.81411 9.57374 3.73404 9.53157C2.74318 8.93063 1.76232 8.32969 0.771462 7.72875C0.651357 7.65495 0.531253 7.58116 0.451183 7.4441C0.291044 7.18053 0.32107 6.86425 0.501227 6.64285C0.71141 6.40037 1.0417 6.3582 1.35197 6.54797C2.35284 7.15944 3.35371 7.77093 4.36459 8.38241C4.44466 8.43512 4.53473 8.47729 4.64483 8.55109C4.41463 7.2965 4.18443 6.07354 3.95423 4.85058C3.87416 4.42887 3.95423 4.14422 4.20445 3.98608C4.6148 3.71196 5.0752 3.9439 5.1853 4.48158C5.26537 4.86112 5.32542 5.24066 5.39548 5.6202C5.62568 6.83262 5.85588 8.04504 6.07608 9.25745C6.09609 9.38397 6.14614 9.47885 6.25623 9.54211C6.77668 9.84785 7.29714 10.1641 7.81759 10.4804C7.93769 10.5542 8.01776 10.5437 8.13787 10.4699C8.98861 9.93219 9.84936 9.40505 10.7001 8.88846C10.8202 8.81466 10.8502 8.73032 10.8502 8.59326C10.8402 7.99232 10.8402 7.38084 10.8502 6.77991C10.8502 6.61122 10.8102 6.50579 10.6901 6.40037C9.5491 5.35663 8.41811 4.3129 7.27712 3.26917C7.10697 3.11103 6.98687 2.9318 6.98687 2.68932C6.98687 2.19381 7.42725 1.88807 7.85762 2.09892C7.95771 2.15164 8.0578 2.22544 8.14788 2.30978C8.9786 3.06886 9.80932 3.82793 10.64 4.58701C10.6901 4.63973 10.7501 4.6819 10.8102 4.73461C10.8702 4.62918 10.8402 4.5343 10.8402 4.43941C10.8402 3.227 10.8402 2.01458 10.8402 0.802163C10.8402 0.549137 10.9003 0.338282 11.0904 0.169598C11.2906 0.000913515 11.5108 -0.0412575 11.751 0.0747128C12.0112 0.211769 12.1413 0.443709 12.1413 0.749449C12.1413 1.83535 12.1413 2.9318 12.1413 4.0177C12.1413 4.26019 12.1413 4.50267 12.1413 4.7557C12.2514 4.7557 12.2915 4.6819 12.3415 4.62918C13.2123 3.82793 14.073 3.02668 14.9438 2.23598C15.2541 1.95132 15.5843 1.96187 15.8346 2.22544C16.1148 2.53118 16.1048 2.92126 15.7845 3.21645C15.194 3.77522 14.5935 4.3129 13.993 4.86112C13.4225 5.37772 12.862 5.90486 12.2915 6.42145C12.1814 6.52688 12.1313 6.62177 12.1313 6.77991C12.1413 7.38084 12.1413 7.99232 12.1313 8.59326C12.1313 8.7514 12.1714 8.84629 12.3115 8.93063C13.1522 9.44722 13.993 9.96382 14.8337 10.491C14.9638 10.5753 15.0639 10.5753 15.194 10.491C15.6644 10.1958 16.1448 9.90056 16.6252 9.62645C16.8054 9.52102 16.9055 9.39451 16.9455 9.17311C17.2258 7.63387 17.516 6.09463 17.8063 4.54484C17.9164 3.96499 18.4068 3.70142 18.8172 4.0177C19.0273 4.17584 19.1174 4.40779 19.0674 4.6819C18.8672 5.74672 18.677 6.82208 18.4769 7.8869C18.4368 8.09775 18.4068 8.29806 18.3668 8.51946C18.4769 8.53 18.5469 8.4562 18.617 8.41403C19.6078 7.8131 20.5987 7.21216 21.5796 6.61122C21.7297 6.52688 21.8698 6.44254 22.05 6.46362C22.3402 6.48471 22.5504 6.64285 22.6305 6.91696C22.7105 7.18053 22.6105 7.50736 22.3803 7.6655C22.14 7.82364 21.8898 7.97124 21.6496 8.11884C20.7889 8.64597 19.9181 9.17311 19.0073 9.72133C19.1975 9.79513 19.3476 9.84785 19.4977 9.90056C20.5186 10.2696 21.5295 10.628 22.5504 10.997C22.8306 11.0919 22.9808 11.3027 23.0008 11.5979C23.0208 11.8615 22.8907 12.0724 22.6805 12.2094C22.4703 12.3359 22.2501 12.2938 22.0299 12.2094C20.6187 11.6928 19.1975 11.1868 17.7863 10.6596C17.6361 10.6069 17.506 10.6069 17.3659 10.7018C16.8755 11.0076 16.385 11.3027 15.8946 11.5874C15.7645 11.6612 15.7044 11.7455 15.7044 11.9142C15.7145 12.9685 15.7145 14.0228 15.7044 15.0771C15.7044 15.2352 15.7545 15.3301 15.8846 15.4039C16.355 15.678 16.8354 15.9626 17.2958 16.2578C17.486 16.3738 17.6461 16.3949 17.8563 16.3211C19.2675 15.794 20.6888 15.2879 22.1 14.7713C22.4303 14.6553 22.7005 14.7291 22.8807 14.9927C23.1009 15.309 23.0408 15.6991 22.7306 15.9099C22.6305 15.9837 22.5104 16.0259 22.3903 16.0786C21.3594 16.4476 20.3285 16.8166 19.2976 17.1856C19.2275 17.2067 19.1575 17.2383 19.0674 17.2699C19.1174 17.3754 19.2075 17.3965 19.2776 17.4492C20.2684 18.0501 21.2493 18.6511 22.2401 19.252C22.3602 19.3258 22.4803 19.3996 22.5604 19.5366C22.7105 19.8108 22.6905 20.127 22.5004 20.3484C22.2902 20.5804 21.9699 20.6331 21.6796 20.4539C20.6788 19.8529 19.6779 19.2309 18.667 18.63C18.5769 18.5772 18.4869 18.5245 18.3568 18.4507C18.587 19.7053 18.8071 20.9177 19.0373 22.1302C19.0974 22.4675 19.1074 22.7838 18.8172 23.0052C18.4168 23.3109 17.9364 23.0685 17.8163 22.5202C17.7362 22.1407 17.6762 21.7612 17.6061 21.3816C17.3759 20.1692 17.1457 18.9568 16.9255 17.7444C16.8955 17.5968 16.8354 17.5124 16.7153 17.4492C16.2049 17.154 15.6944 16.8482 15.194 16.532C15.0539 16.4476 14.9638 16.4582 14.8337 16.5425C14.003 17.0591 13.1722 17.5757 12.3315 18.0817C12.1914 18.1661 12.1313 18.2504 12.1413 18.4297C12.1514 19.0306 12.1514 19.621 12.1413 20.2219C12.1413 20.3906 12.1814 20.496 12.3015 20.6015C13.4625 21.6452 14.6135 22.71 15.7645 23.7537C15.9447 23.9224 16.0648 24.1017 16.0548 24.3652C16.0347 24.8502 15.5843 25.1454 15.164 24.924C15.0339 24.8607 14.9338 24.7553 14.8237 24.6604C13.9729 23.8697 13.1122 23.079 12.2014 22.2356ZM14.3533 13.5167C14.3533 12.979 14.3533 12.4414 14.3533 11.9142C14.3533 11.7772 14.3132 11.6928 14.1931 11.619C13.3324 11.0919 12.4816 10.5648 11.6309 10.0376C11.5208 9.96382 11.4307 9.96382 11.3106 10.0376C10.4599 10.5753 9.59914 11.1024 8.7484 11.619C8.6383 11.6928 8.58826 11.7666 8.58826 11.9037C8.59827 12.958 8.59827 14.0122 8.58826 15.0665C8.58826 15.2141 8.6383 15.2879 8.7484 15.3512C9.61916 15.8783 10.4799 16.4054 11.3407 16.9326C11.4507 16.9958 11.5208 17.0064 11.6309 16.9326C12.4816 16.4054 13.3424 15.8783 14.2031 15.3617C14.3132 15.2985 14.3533 15.2247 14.3433 15.0876C14.3533 14.571 14.3533 14.0439 14.3533 13.5167Z" fill="#5FD3D1"/>
</g>
<defs>
<clipPath id="clip0_30:4195">
<rect width="23" height="27" fill="white"/>
</clipPath>
</defs>
</svg>
