<svg width="28" height="24" viewBox="0 0 28 24" fill="none" xmlns="http://www.w3.org/2000/svg">
<path fill-rule="evenodd" clip-rule="evenodd" d="M13.4225 0.00994349C13.2621 0.0439179 13.088 0.323139 13.088 0.546484C13.088 0.710053 13.1209 0.772927 13.3028 0.956367C13.7072 1.36427 13.8988 1.62229 13.9526 1.83116C14.0682 2.27998 14.0268 2.40472 13.5508 3.0427C13.1776 3.54281 13.073 3.8638 13.0977 4.43223C13.1204 4.95478 13.2452 5.25301 13.6734 5.80862C13.8322 6.01455 13.9743 6.23998 13.9894 6.30959C14.0686 6.67679 13.8686 7.1761 13.5185 7.48507C13.1833 7.7809 13.088 7.91467 13.088 8.08935C13.088 8.50142 13.3579 8.74528 13.6871 8.63053C13.9141 8.55142 14.3693 8.11525 14.5583 7.79565C14.8405 7.31846 14.8993 7.09864 14.9007 6.51493C14.9018 6.03886 14.8887 5.95163 14.7805 5.71327C14.7137 5.56616 14.5222 5.26824 14.3549 5.05125C14.1877 4.83421 14.0383 4.59869 14.023 4.52785C13.968 4.27278 14.0429 4.02854 14.2682 3.72828C14.6944 3.16049 14.7474 3.07192 14.8358 2.77945C15.1077 1.87945 14.7499 0.830619 13.9561 0.201077C13.7405 0.030136 13.5869 -0.0248857 13.4225 0.00994349ZM10.5968 3.28698C10.4451 3.33533 10.0887 3.63442 9.89029 3.87977C9.54481 4.30707 9.36016 4.84468 9.36016 5.42294C9.36016 5.96423 9.46449 6.24655 9.86292 6.78315C10.2514 7.30628 10.3042 7.45639 10.234 7.83732C10.1839 8.109 10.0237 8.33379 9.53572 8.81777C9.38941 8.9628 9.36842 9.01349 9.36971 9.21841C9.37127 9.47023 9.4244 9.58615 9.58334 9.68465C9.8389 9.84293 10.1713 9.67936 10.5848 9.19186C10.9025 8.81734 11.0902 8.41691 11.1635 7.95724C11.27 7.28977 11.1281 6.816 10.6153 6.12647C10.3125 5.71925 10.2867 5.66568 10.2867 5.44367C10.2867 5.31113 10.3157 5.12203 10.3511 5.02337C10.4319 4.79837 10.7057 4.44249 10.9122 4.29404C11.3117 4.00686 11.2791 3.42817 10.8556 3.29003C10.7827 3.2662 10.6662 3.26487 10.5968 3.28698ZM17.9751 3.33079C17.6545 3.5005 17.2103 4.0326 17.0145 4.48132C16.8515 4.85472 16.8398 4.9137 16.8354 5.37748C16.8312 5.81835 16.845 5.90772 16.9583 6.17609C17.0284 6.34228 17.2199 6.65222 17.3838 6.86482C17.7098 7.28769 17.7489 7.39212 17.7144 7.74773C17.6839 8.06242 17.5161 8.34592 17.1896 8.63427C16.8519 8.93251 16.7772 9.09726 16.8506 9.38214C16.9175 9.64181 17.1265 9.77931 17.3727 9.72557C17.5985 9.67632 18.0187 9.2987 18.2554 8.93246C18.5324 8.50377 18.6493 8.11371 18.6506 7.6137C18.6521 6.98854 18.5564 6.74554 18.0446 6.07492C17.9001 5.88555 17.7707 5.6653 17.7569 5.58544C17.6943 5.22086 17.9031 4.71936 18.2373 4.43159C18.6046 4.1154 18.6446 4.05344 18.6446 3.80077C18.6446 3.62539 18.6161 3.52993 18.532 3.42443C18.4701 3.3467 18.3891 3.28308 18.3521 3.28308C18.315 3.28308 18.2572 3.27149 18.2236 3.25734C18.1899 3.24318 18.0781 3.27625 17.9751 3.33079ZM0.200545 10.9632C0.074395 11.0821 0 11.2535 0 11.4251C0 11.7332 0.158709 11.8358 2.22725 12.8653C4.90974 14.2003 6.00844 14.7464 6.49807 14.9881C7.00386 15.2379 7.12781 15.2458 7.30525 15.0394C7.43177 14.8922 7.46194 14.7786 7.44123 14.5278C7.41896 14.2586 7.65192 14.3846 1.50797 11.3191C0.57059 10.8514 0.375556 10.7983 0.200545 10.9632ZM14.8912 10.9509C14.6301 11.0327 14.3439 11.2251 14.1113 11.4751L13.9637 11.6339L13.721 11.5401C13.1721 11.3281 12.5671 11.3959 12.1156 11.72L11.9009 11.8741L11.7577 11.7513C11.6789 11.6836 11.4704 11.5745 11.2943 11.5086C10.9033 11.3624 10.4483 11.3811 10.0457 11.5601C9.75399 11.6898 9.33389 12.1002 9.15442 12.4309C9.09339 12.5434 9.02372 12.6211 8.99957 12.6038C8.87558 12.5146 8.38136 12.4712 8.1196 12.5264C7.8532 12.5826 7.83607 12.5795 7.72071 12.4536C7.43742 12.1445 6.81484 11.8935 6.48562 11.9557C6.15792 12.0175 5.99273 12.3659 6.13073 12.7041C6.20972 12.8977 6.33008 12.9771 6.63584 13.037C6.9004 13.0889 7.05346 13.1932 7.30112 13.4905C7.54956 13.7888 7.67373 13.8177 8.056 13.6662C8.37323 13.5404 8.71903 13.5925 8.96504 13.8029C9.10965 13.9266 9.20576 13.9669 9.35639 13.9669C9.61824 13.9669 9.75321 13.8123 9.82329 13.432C9.8935 13.0512 10.0251 12.8175 10.2562 12.6629C10.6841 12.3768 11.0423 12.4419 11.4353 12.8772C11.7947 13.2753 12.0191 13.2881 12.3172 12.9276C12.4254 12.7967 12.5908 12.6524 12.6847 12.607C13.005 12.4523 13.52 12.5337 13.6853 12.7654C13.7689 12.8825 13.9802 13.0053 14.0983 13.0053C14.2767 13.0053 14.4463 12.8552 14.5724 12.5858C14.8411 12.0114 15.3164 11.7943 15.7749 12.0366C16.1283 12.2234 16.3476 12.6414 16.3482 13.1296C16.3484 13.2856 16.3814 13.3723 16.487 13.4951L16.6255 13.6562L17.0495 13.62C17.5289 13.579 17.62 13.6062 17.9326 13.8838C18.3008 14.2107 18.5566 14.1139 18.8513 13.5364C18.9018 13.4374 19.0341 13.2855 19.1452 13.1987C19.4177 12.9859 19.775 12.977 20.0462 13.1761C20.2726 13.3424 20.3299 13.4203 20.5045 13.8003C20.6816 14.1856 20.8221 14.2718 21.1355 14.1877C21.2596 14.1544 21.4325 14.1271 21.5199 14.1271C21.7441 14.1271 22.0856 14.3448 22.2616 14.5999C22.4547 14.8797 22.6254 14.9222 22.9531 14.772C23.3681 14.5817 23.6242 14.6361 24.0364 15.0021C24.3202 15.2541 24.4791 15.257 24.6881 15.0139C24.8106 14.8713 24.8442 14.7888 24.8442 14.6301C24.8442 14.4586 24.811 14.391 24.6254 14.1841C24.5051 14.0499 24.2829 13.868 24.1317 13.7799C23.8727 13.6289 23.8249 13.6195 23.3041 13.6177C22.7819 13.6159 22.7426 13.6081 22.5923 13.4771C22.2574 13.1852 21.7025 12.9746 21.4267 13.0348C21.3133 13.0595 21.257 13.0448 21.2104 12.9782C20.8942 12.5268 20.7118 12.3441 20.3962 12.1627C20.0679 11.974 20.0271 11.9638 19.6113 11.9662C19.2108 11.9685 19.1452 11.9841 18.8554 12.1466C18.6808 12.2445 18.4518 12.4169 18.3466 12.5297L18.1552 12.7349L17.9234 12.6325C17.7959 12.5761 17.584 12.5134 17.4527 12.4932C17.2507 12.462 17.2072 12.4348 17.1703 12.3168C16.8305 11.2292 15.8598 10.6475 14.8912 10.9509ZM0.275583 16.3575C0.027554 16.5016 -0.0259919 16.6865 0.0362794 17.1835C0.167435 18.2303 0.724798 19.0076 1.627 19.402C1.72982 19.4469 2.03975 19.4984 2.3157 19.5164L2.81745 19.5492L2.89676 19.9765C3.09138 21.0247 3.46593 21.7987 4.13915 22.5437C4.81128 23.2875 5.62227 23.724 6.56585 23.8498C7.09277 23.92 20.9201 23.92 21.447 23.8498C22.3906 23.724 23.2016 23.2875 23.8737 22.5437C24.5469 21.7987 24.9215 21.0247 25.1161 19.9765L25.1954 19.5492L25.6972 19.5164C25.9731 19.4984 26.283 19.4469 26.3859 19.402C27.2871 19.0081 27.845 18.2338 27.9749 17.1967C28.039 16.6853 27.9873 16.5028 27.7373 16.3575C27.5854 16.2692 26.8339 16.264 14.0064 16.264C1.17893 16.264 0.427495 16.2692 0.275583 16.3575ZM26.9566 17.4578C26.9566 17.5583 26.7234 17.9223 26.5509 18.0912C26.2727 18.3635 25.9606 18.4541 25.3002 18.4541C24.6455 18.4541 24.4434 18.5122 24.3547 18.7262C24.3255 18.7969 24.2793 19.084 24.2523 19.3643C24.196 19.9469 24.0856 20.3589 23.8607 20.8268C23.4053 21.7741 22.6963 22.4078 21.7945 22.6738C21.4383 22.7789 21.2871 22.781 14.0182 22.781C6.68828 22.781 6.60107 22.7798 6.23539 22.6712C5.05145 22.3195 4.20661 21.356 3.85429 19.9555C3.80704 19.7676 3.7793 19.5934 3.79271 19.5682C3.80608 19.543 8.14674 19.5224 13.4386 19.5224H23.0603L23.1945 19.3663C23.4033 19.1234 23.3564 18.668 23.1079 18.5253C23.0652 18.5008 18.2979 18.4688 12.5139 18.4541L1.99764 18.4274L1.76858 18.3045C1.64261 18.237 1.49001 18.1289 1.42944 18.0642C1.27491 17.8991 1.05622 17.5439 1.05622 17.4578C1.05622 17.3974 3.16545 17.3857 14.0064 17.3857C24.8474 17.3857 26.9566 17.3974 26.9566 17.4578Z" fill="#A2B0BA"/>
<path fill-rule="evenodd" clip-rule="evenodd" d="M13.4225 0.00994349C13.2621 0.0439179 13.088 0.323139 13.088 0.546484C13.088 0.710053 13.1209 0.772927 13.3028 0.956367C13.7072 1.36427 13.8988 1.62229 13.9526 1.83116C14.0682 2.27998 14.0268 2.40472 13.5508 3.0427C13.1776 3.54281 13.073 3.8638 13.0977 4.43223C13.1204 4.95478 13.2452 5.25301 13.6734 5.80862C13.8322 6.01455 13.9743 6.23998 13.9894 6.30959C14.0686 6.67679 13.8686 7.1761 13.5185 7.48507C13.1833 7.7809 13.088 7.91467 13.088 8.08935C13.088 8.50142 13.3579 8.74528 13.6871 8.63053C13.9141 8.55142 14.3693 8.11525 14.5583 7.79565C14.8405 7.31846 14.8993 7.09864 14.9007 6.51493C14.9018 6.03886 14.8887 5.95163 14.7805 5.71327C14.7137 5.56616 14.5222 5.26824 14.3549 5.05125C14.1877 4.83421 14.0383 4.59869 14.023 4.52785C13.968 4.27278 14.0429 4.02854 14.2682 3.72828C14.6944 3.16049 14.7474 3.07192 14.8358 2.77945C15.1077 1.87945 14.7499 0.830619 13.9561 0.201077C13.7405 0.030136 13.5869 -0.0248857 13.4225 0.00994349ZM10.5968 3.28698C10.4451 3.33533 10.0887 3.63442 9.89029 3.87977C9.54481 4.30707 9.36016 4.84468 9.36016 5.42294C9.36016 5.96423 9.46449 6.24655 9.86292 6.78315C10.2514 7.30628 10.3042 7.45639 10.234 7.83732C10.1839 8.109 10.0237 8.33379 9.53572 8.81777C9.38941 8.9628 9.36842 9.01349 9.36971 9.21841C9.37127 9.47023 9.4244 9.58615 9.58334 9.68465C9.8389 9.84293 10.1713 9.67936 10.5848 9.19186C10.9025 8.81734 11.0902 8.41691 11.1635 7.95724C11.27 7.28977 11.1281 6.816 10.6153 6.12647C10.3125 5.71925 10.2867 5.66568 10.2867 5.44367C10.2867 5.31113 10.3157 5.12203 10.3511 5.02337C10.4319 4.79837 10.7057 4.44249 10.9122 4.29404C11.3117 4.00686 11.2791 3.42817 10.8556 3.29003C10.7827 3.2662 10.6662 3.26487 10.5968 3.28698ZM17.9751 3.33079C17.6545 3.5005 17.2103 4.0326 17.0145 4.48132C16.8515 4.85472 16.8398 4.9137 16.8354 5.37748C16.8312 5.81835 16.845 5.90772 16.9583 6.17609C17.0284 6.34228 17.2199 6.65222 17.3838 6.86482C17.7098 7.28769 17.7489 7.39212 17.7144 7.74773C17.6839 8.06242 17.5161 8.34592 17.1896 8.63427C16.8519 8.93251 16.7772 9.09726 16.8506 9.38214C16.9175 9.64181 17.1265 9.77931 17.3727 9.72557C17.5985 9.67632 18.0187 9.2987 18.2554 8.93246C18.5324 8.50377 18.6493 8.11371 18.6506 7.6137C18.6521 6.98854 18.5564 6.74554 18.0446 6.07492C17.9001 5.88555 17.7707 5.6653 17.7569 5.58544C17.6943 5.22086 17.9031 4.71936 18.2373 4.43159C18.6046 4.1154 18.6446 4.05344 18.6446 3.80077C18.6446 3.62539 18.6161 3.52993 18.532 3.42443C18.4701 3.3467 18.3891 3.28308 18.3521 3.28308C18.315 3.28308 18.2572 3.27149 18.2236 3.25734C18.1899 3.24318 18.0781 3.27625 17.9751 3.33079ZM0.200545 10.9632C0.074395 11.0821 0 11.2535 0 11.4251C0 11.7332 0.158709 11.8358 2.22725 12.8653C4.90974 14.2003 6.00844 14.7464 6.49807 14.9881C7.00386 15.2379 7.12781 15.2458 7.30525 15.0394C7.43177 14.8922 7.46194 14.7786 7.44123 14.5278C7.41896 14.2586 7.65192 14.3846 1.50797 11.3191C0.57059 10.8514 0.375556 10.7983 0.200545 10.9632ZM14.8912 10.9509C14.6301 11.0327 14.3439 11.2251 14.1113 11.4751L13.9637 11.6339L13.721 11.5401C13.1721 11.3281 12.5671 11.3959 12.1156 11.72L11.9009 11.8741L11.7577 11.7513C11.6789 11.6836 11.4704 11.5745 11.2943 11.5086C10.9033 11.3624 10.4483 11.3811 10.0457 11.5601C9.75399 11.6898 9.33389 12.1002 9.15442 12.4309C9.09339 12.5434 9.02372 12.6211 8.99957 12.6038C8.87558 12.5146 8.38136 12.4712 8.1196 12.5264C7.8532 12.5826 7.83607 12.5795 7.72071 12.4536C7.43742 12.1445 6.81484 11.8935 6.48562 11.9557C6.15792 12.0175 5.99273 12.3659 6.13073 12.7041C6.20972 12.8977 6.33008 12.9771 6.63584 13.037C6.9004 13.0889 7.05346 13.1932 7.30112 13.4905C7.54956 13.7888 7.67373 13.8177 8.056 13.6662C8.37323 13.5404 8.71903 13.5925 8.96504 13.8029C9.10965 13.9266 9.20576 13.9669 9.35639 13.9669C9.61824 13.9669 9.75321 13.8123 9.82329 13.432C9.8935 13.0512 10.0251 12.8175 10.2562 12.6629C10.6841 12.3768 11.0423 12.4419 11.4353 12.8772C11.7947 13.2753 12.0191 13.2881 12.3172 12.9276C12.4254 12.7967 12.5908 12.6524 12.6847 12.607C13.005 12.4523 13.52 12.5337 13.6853 12.7654C13.7689 12.8825 13.9802 13.0053 14.0983 13.0053C14.2767 13.0053 14.4463 12.8552 14.5724 12.5858C14.8411 12.0114 15.3164 11.7943 15.7749 12.0366C16.1283 12.2234 16.3476 12.6414 16.3482 13.1296C16.3484 13.2856 16.3814 13.3723 16.487 13.4951L16.6255 13.6562L17.0495 13.62C17.5289 13.579 17.62 13.6062 17.9326 13.8838C18.3008 14.2107 18.5566 14.1139 18.8513 13.5364C18.9018 13.4374 19.0341 13.2855 19.1452 13.1987C19.4177 12.9859 19.775 12.977 20.0462 13.1761C20.2726 13.3424 20.3299 13.4203 20.5045 13.8003C20.6816 14.1856 20.8221 14.2718 21.1355 14.1877C21.2596 14.1544 21.4325 14.1271 21.5199 14.1271C21.7441 14.1271 22.0856 14.3448 22.2616 14.5999C22.4547 14.8797 22.6254 14.9222 22.9531 14.772C23.3681 14.5817 23.6242 14.6361 24.0364 15.0021C24.3202 15.2541 24.4791 15.257 24.6881 15.0139C24.8106 14.8713 24.8442 14.7888 24.8442 14.6301C24.8442 14.4586 24.811 14.391 24.6254 14.1841C24.5051 14.0499 24.2829 13.868 24.1317 13.7799C23.8727 13.6289 23.8249 13.6195 23.3041 13.6177C22.7819 13.6159 22.7426 13.6081 22.5923 13.4771C22.2574 13.1852 21.7025 12.9746 21.4267 13.0348C21.3133 13.0595 21.257 13.0448 21.2104 12.9782C20.8942 12.5268 20.7118 12.3441 20.3962 12.1627C20.0679 11.974 20.0271 11.9638 19.6113 11.9662C19.2108 11.9685 19.1452 11.9841 18.8554 12.1466C18.6808 12.2445 18.4518 12.4169 18.3466 12.5297L18.1552 12.7349L17.9234 12.6325C17.7959 12.5761 17.584 12.5134 17.4527 12.4932C17.2507 12.462 17.2072 12.4348 17.1703 12.3168C16.8305 11.2292 15.8598 10.6475 14.8912 10.9509ZM0.275583 16.3575C0.027554 16.5016 -0.0259919 16.6865 0.0362794 17.1835C0.167435 18.2303 0.724798 19.0076 1.627 19.402C1.72982 19.4469 2.03975 19.4984 2.3157 19.5164L2.81745 19.5492L2.89676 19.9765C3.09138 21.0247 3.46593 21.7987 4.13915 22.5437C4.81128 23.2875 5.62227 23.724 6.56585 23.8498C7.09277 23.92 20.9201 23.92 21.447 23.8498C22.3906 23.724 23.2016 23.2875 23.8737 22.5437C24.5469 21.7987 24.9215 21.0247 25.1161 19.9765L25.1954 19.5492L25.6972 19.5164C25.9731 19.4984 26.283 19.4469 26.3859 19.402C27.2871 19.0081 27.845 18.2338 27.9749 17.1967C28.039 16.6853 27.9873 16.5028 27.7373 16.3575C27.5854 16.2692 26.8339 16.264 14.0064 16.264C1.17893 16.264 0.427495 16.2692 0.275583 16.3575ZM26.9566 17.4578C26.9566 17.5583 26.7234 17.9223 26.5509 18.0912C26.2727 18.3635 25.9606 18.4541 25.3002 18.4541C24.6455 18.4541 24.4434 18.5122 24.3547 18.7262C24.3255 18.7969 24.2793 19.084 24.2523 19.3643C24.196 19.9469 24.0856 20.3589 23.8607 20.8268C23.4053 21.7741 22.6963 22.4078 21.7945 22.6738C21.4383 22.7789 21.2871 22.781 14.0182 22.781C6.68828 22.781 6.60107 22.7798 6.23539 22.6712C5.05145 22.3195 4.20661 21.356 3.85429 19.9555C3.80704 19.7676 3.7793 19.5934 3.79271 19.5682C3.80608 19.543 8.14674 19.5224 13.4386 19.5224H23.0603L23.1945 19.3663C23.4033 19.1234 23.3564 18.668 23.1079 18.5253C23.0652 18.5008 18.2979 18.4688 12.5139 18.4541L1.99764 18.4274L1.76858 18.3045C1.64261 18.237 1.49001 18.1289 1.42944 18.0642C1.27491 17.8991 1.05622 17.5439 1.05622 17.4578C1.05622 17.3974 3.16545 17.3857 14.0064 17.3857C24.8474 17.3857 26.9566 17.3974 26.9566 17.4578Z" fill="#5FD3D1"/>
</svg>
