<svg width="49" height="57" viewBox="0 0 49 57" fill="none" xmlns="http://www.w3.org/2000/svg">
<path d="M25.9934 46.9398C25.9934 47.6297 25.9934 48.1862 25.9934 48.7203C25.9934 50.9238 25.9934 53.1272 25.9934 55.3307C25.9934 55.8426 25.8654 56.2877 25.4816 56.6216C25.0765 56.9777 24.5861 57.0889 24.0956 56.8441C23.5626 56.5993 23.2641 56.1542 23.2427 55.531C23.2214 54.5739 23.2427 53.5946 23.2427 52.6376C23.2427 50.7457 23.2427 48.8539 23.2427 46.962C23.0295 46.8953 22.9442 47.0733 22.8376 47.1846C20.9825 48.8761 19.1487 50.5677 17.2936 52.2369C16.6753 52.8156 15.9929 52.8379 15.4599 52.3705C14.7775 51.7473 14.7562 50.8125 15.4812 50.167C17.3576 48.4533 19.234 46.7617 21.1104 45.0479C21.7075 44.4915 22.3045 43.9351 22.9229 43.4009C23.1361 43.2006 23.2427 43.0003 23.2427 42.6887C23.2214 41.3978 23.2214 40.0847 23.2427 38.7938C23.2427 38.4376 23.1361 38.2596 22.8589 38.1038C21.0465 37.0132 19.234 35.9226 17.4216 34.8098C17.1657 34.654 16.9738 34.6317 16.6966 34.8098C15.6091 35.4775 14.5217 36.1452 13.4129 36.7684C13.1783 36.9019 13.0504 37.08 13.0077 37.3693C12.4107 40.6188 11.7923 43.8683 11.174 47.1401C11.1313 47.3182 11.11 47.4962 11.046 47.6743C10.8115 48.4533 10.1505 48.8984 9.46815 48.7203C8.70052 48.52 8.27406 47.8301 8.44465 46.9843C8.76449 45.2483 9.10566 43.49 9.4255 41.7539C9.59608 40.8414 9.76667 39.9066 9.95857 38.905C9.7027 39.0608 9.53211 39.1499 9.36153 39.2389C7.27189 40.5075 5.18224 41.7539 3.0926 43.0226C2.83673 43.1784 2.55953 43.3342 2.26101 43.3342C1.62132 43.3564 1.06693 42.9781 0.896343 42.3994C0.704437 41.7317 0.960312 41.0417 1.6 40.6411C3.73229 39.3502 5.86458 38.0593 8.01819 36.7684C8.18877 36.6571 8.33803 36.5681 8.59391 36.39C7.48512 35.9894 6.44029 35.611 5.37415 35.2326C3.92419 34.7207 2.45291 34.2088 1.00296 33.6747C0.448563 33.4743 0.150042 33.0292 0.107396 32.406C0.0647505 31.8273 0.341948 31.4044 0.811052 31.1374C1.25883 30.8703 1.68529 30.9593 2.15439 31.1374C5.16092 32.228 8.18877 33.2963 11.1953 34.4091C11.5365 34.5427 11.8137 34.5204 12.1335 34.3201C13.157 33.6747 14.1805 33.0737 15.2253 32.4728C15.5238 32.2947 15.6091 32.1167 15.6091 31.7828C15.5878 29.5571 15.5878 27.3314 15.6091 25.1057C15.6091 24.7719 15.5025 24.5716 15.2253 24.4158C14.2018 23.8148 13.1783 23.2139 12.1762 22.5907C11.7923 22.3459 11.4512 22.3459 11.0247 22.5017C8.01819 23.6145 4.99034 24.6829 1.96249 25.7734C1.25883 26.0183 0.683114 25.8625 0.299302 25.3061C-0.169801 24.6383 -0.0418639 23.8148 0.619146 23.3697C0.832375 23.2139 1.08825 23.1026 1.34412 23.0136C3.68964 22.1678 6.03516 21.3443 8.42332 20.4986C8.31671 20.276 8.1248 20.2092 7.95422 20.1202C5.84325 18.8515 3.75361 17.5829 1.64264 16.3143C1.38677 16.1585 1.1309 16.0027 0.960312 15.7133C0.619146 15.1569 0.683114 14.4892 1.06693 14.0218C1.51471 13.5099 2.21836 13.4208 2.87937 13.8215C5.01166 15.1124 7.14395 16.4033 9.29756 17.6942C9.46814 17.8055 9.66005 17.8945 9.8946 18.0503C9.40418 15.4017 8.91375 12.8199 8.42332 10.2381C8.25274 9.34783 8.42332 8.74689 8.9564 8.41304C9.83063 7.83436 10.8115 8.32401 11.046 9.45912C11.2166 10.2604 11.3446 11.0616 11.4938 11.8629C11.9842 14.4224 12.4747 16.982 12.9438 19.5415C12.9864 19.8086 13.093 20.0089 13.3276 20.1424C14.4364 20.7879 15.5452 21.4556 16.654 22.1233C16.9098 22.2791 17.0804 22.2569 17.3363 22.1011C19.1487 20.966 20.9825 19.8531 22.795 18.7625C23.0508 18.6067 23.1148 18.4287 23.1148 18.1393C23.0935 16.8707 23.0935 15.5798 23.1148 14.3111C23.1148 13.955 23.0295 13.7324 22.7736 13.5099C20.3428 11.3064 17.9333 9.10301 15.5025 6.89957C15.14 6.56572 14.8842 6.18735 14.8842 5.67544C14.8842 4.62936 15.8224 3.98391 16.7393 4.42905C16.9525 4.54033 17.1657 4.69613 17.3576 4.87419C19.1274 6.47669 20.8972 8.07919 22.667 9.68169C22.7736 9.79297 22.9016 9.882 23.0295 9.99328C23.1574 9.77071 23.0935 9.5704 23.0935 9.37009C23.0935 6.81054 23.0935 4.25099 23.0935 1.69145C23.0935 1.15728 23.2214 0.712143 23.6265 0.356032C24.053 -7.88476e-05 24.5221 -0.0891066 25.0339 0.15572C25.5882 0.44506 25.8654 0.934712 25.8654 1.58016C25.8654 3.87263 25.8654 6.18735 25.8654 8.47981C25.8654 8.99172 25.8654 9.50363 25.8654 10.0378C26.1 10.0378 26.1853 9.882 26.2919 9.77071C28.147 8.07919 29.9808 6.38766 31.8359 4.71839C32.4969 4.11745 33.2005 4.13971 33.7336 4.69613C34.3306 5.34158 34.3093 6.16509 33.627 6.78828C32.3689 7.9679 31.0896 9.103 29.8102 10.2604C28.5948 11.351 27.4007 12.4638 26.1853 13.5544C25.9507 13.777 25.8441 13.9773 25.8441 14.3111C25.8654 15.5798 25.8654 16.8707 25.8441 18.1393C25.8441 18.4732 25.9294 18.6735 26.2279 18.8515C28.0191 19.9421 29.8102 21.0327 31.6013 22.1456C31.8785 22.3236 32.0917 22.3236 32.3689 22.1456C33.3711 21.5224 34.3946 20.8992 35.4181 20.3205C35.8019 20.0979 36.0151 19.8308 36.1004 19.3635C36.6975 16.1139 37.3158 12.8644 37.9342 9.59266C38.1688 8.36853 39.2136 7.8121 40.0878 8.47981C40.5356 8.81366 40.7275 9.30332 40.6209 9.882C40.1944 12.1299 39.7893 14.4002 39.3628 16.6481C39.2775 17.0932 39.2136 17.5161 39.1283 17.9835C39.3628 18.0058 39.5121 17.85 39.6614 17.761C41.7723 16.4923 43.8833 15.2237 45.9729 13.955C46.2928 13.777 46.5913 13.5989 46.9751 13.6434C47.5935 13.6879 48.0413 14.0218 48.2118 14.6005C48.3824 15.1569 48.1692 15.8469 47.6788 16.1807C47.167 16.5146 46.6339 16.8262 46.1222 17.1378C44.2884 18.2506 42.4333 19.3635 40.493 20.5208C40.8981 20.6766 41.2179 20.7879 41.5378 20.8992C43.7127 21.6782 45.8663 22.4349 48.0413 23.2139C48.6383 23.4142 48.9581 23.8594 49.0008 24.4825C49.0434 25.039 48.7662 25.4841 48.3185 25.7734C47.8707 26.0405 47.4016 25.9515 46.9325 25.7734C43.9259 24.6829 40.8981 23.6145 37.8916 22.5017C37.5717 22.3904 37.2945 22.3904 36.996 22.5907C35.9512 23.2362 34.9064 23.8594 33.8615 24.4603C33.5843 24.6161 33.4564 24.7941 33.4564 25.1503C33.4777 27.3759 33.4777 29.6016 33.4564 31.8273C33.4564 32.1612 33.563 32.3615 33.8402 32.5173C34.8424 33.096 35.8659 33.6969 36.8467 34.3201C37.2519 34.5649 37.593 34.6094 38.0408 34.4537C41.0473 33.3408 44.0752 32.2725 47.0817 31.1819C47.7854 30.9371 48.3611 31.0929 48.7449 31.6493C49.214 32.317 49.0861 33.1405 48.4251 33.5856C48.2118 33.7414 47.956 33.8305 47.7001 33.9417C45.5038 34.7207 43.3076 35.4997 41.1113 36.2787C40.9621 36.3232 40.8128 36.39 40.6209 36.4568C40.7275 36.6793 40.9194 36.7239 41.0687 36.8351C43.1796 38.1038 45.2693 39.3724 47.3802 40.6411C47.6361 40.7969 47.892 40.9527 48.0626 41.242C48.3824 41.8207 48.3398 42.4884 47.9346 42.9558C47.4869 43.4454 46.8045 43.5567 46.1862 43.1784C44.0539 41.9097 41.9216 40.5966 39.768 39.3279C39.5761 39.2166 39.3842 39.1053 39.107 38.9496C39.5974 41.5981 40.0665 44.1577 40.5569 46.7172C40.6849 47.4294 40.7062 48.0971 40.0878 48.5645C39.2349 49.21 38.2114 48.6981 37.9555 47.5407C37.7849 46.7395 37.657 45.9382 37.5077 45.137C37.0173 42.5774 36.5269 40.0179 36.0578 37.4583C35.9938 37.1467 35.8659 36.9687 35.61 36.8351C34.5225 36.2119 33.4351 35.5665 32.3689 34.8988C32.0704 34.7207 31.8785 34.743 31.6013 34.921C29.8315 36.0116 28.0617 37.1022 26.2706 38.1706C25.9721 38.3486 25.8441 38.5267 25.8654 38.905C25.8868 40.1737 25.8868 41.4201 25.8654 42.6887C25.8654 43.0448 25.9507 43.2674 26.2066 43.49C28.6801 45.6934 31.1322 47.9413 33.5843 50.1448C33.9681 50.5009 34.224 50.8793 34.2027 51.4357C34.16 52.4595 33.2005 53.0827 32.305 52.6153C32.0278 52.4818 31.8145 52.2592 31.58 52.0589C29.7675 50.3896 27.9338 48.7203 25.9934 46.9398ZM30.5778 28.5333C30.5778 27.3982 30.5778 26.2631 30.5778 25.1503C30.5778 24.8609 30.4925 24.6829 30.2366 24.5271C28.4029 23.4142 26.5904 22.3014 24.778 21.1885C24.5434 21.0327 24.3515 21.0327 24.0956 21.1885C22.2832 22.3236 20.4494 23.4365 18.637 24.5271C18.4024 24.6829 18.2958 24.8387 18.2958 25.128C18.3171 27.3537 18.3171 29.5794 18.2958 31.8051C18.2958 32.1167 18.4024 32.2725 18.637 32.406C20.4921 33.5189 22.3258 34.6317 24.1596 35.7446C24.3942 35.8781 24.5434 35.9004 24.778 35.7446C26.5904 34.6317 28.4242 33.5189 30.258 32.4283C30.4925 32.2947 30.5778 32.1389 30.5565 31.8496C30.5778 30.759 30.5778 29.6462 30.5778 28.5333Z" fill="#5FD3D1"/>
</svg>
