<svg width="55" height="38" viewBox="0 0 55 38" fill="none" xmlns="http://www.w3.org/2000/svg">
<path d="M27.4754 38C19.4464 38 11.3929 38 3.36384 38C1.17857 38 0 36.8838 0 34.7938C0 24.2725 0 13.7275 0 3.20625C0 1.14 1.17857 0 3.29018 0C19.4219 0 35.5781 0 51.7098 0C53.8214 0 55 1.14 55 3.20625C55 13.7275 55 24.2725 55 34.7938C55 36.8838 53.8214 38 51.6607 38C43.5826 38 35.529 38 27.4754 38ZM27.5 1.9C19.471 1.9 11.4665 1.9 3.4375 1.9C2.23438 1.9 1.96429 2.16125 1.96429 3.325C1.96429 13.775 1.96429 24.225 1.96429 34.675C1.96429 35.8387 2.23438 36.1 3.4375 36.1C19.471 36.1 35.529 36.1 51.5625 36.1C52.7656 36.1 53.0357 35.8387 53.0357 34.675C53.0357 24.225 53.0357 13.775 53.0357 3.325C53.0357 2.16125 52.7656 1.9 51.5625 1.9C43.5335 1.9 35.529 1.9 27.5 1.9Z" fill="#5FD3D1"/>
<path d="M21.6071 26.6008C16.2054 26.6008 10.8036 26.6008 5.40179 26.6008C4.17411 26.6008 3.90402 26.3395 3.90402 25.1995C3.90402 18.5258 3.90402 11.8758 3.90402 5.20203C3.90402 4.06203 4.17411 3.80078 5.35268 3.80078C16.1808 3.80078 26.9844 3.80078 37.8125 3.80078C38.9911 3.80078 39.2612 4.06203 39.2612 5.17828C39.2612 11.8758 39.2612 18.5495 39.2612 25.247C39.2612 26.3395 38.9665 26.6008 37.8371 26.6008C32.4598 26.6008 27.0335 26.6008 21.6071 26.6008ZM21.6071 24.7008C26.6652 24.7008 31.7232 24.7008 36.7567 24.7008C37.1987 24.7008 37.346 24.6058 37.346 24.1545C37.3214 18.1695 37.3214 12.2083 37.346 6.22328C37.346 5.77203 37.1987 5.67703 36.7567 5.67703C26.6652 5.67703 16.5982 5.70078 6.5067 5.67703C6.04018 5.67703 5.89286 5.77203 5.89286 6.24703C5.91742 12.2083 5.91742 18.1458 5.89286 24.107C5.89286 24.6058 6.04018 24.677 6.5067 24.677C11.5402 24.7008 16.5737 24.7008 21.6071 24.7008Z" fill="#5FD3D1"/>
<path d="M23.596 28.5C25.1428 28.5 26.6897 28.5 28.2611 28.5C29.1451 28.5 29.4888 28.8325 29.4888 29.6875C29.4888 30.8038 29.4888 31.9437 29.4888 33.06C29.4888 33.8438 29.1205 34.2 28.3348 34.2C25.1919 34.2 22.0491 34.2 18.9062 34.2C18.0714 34.2 17.7277 33.8438 17.7277 33.0363C17.7277 31.92 17.7277 30.78 17.7277 29.6638C17.7277 28.8563 18.0714 28.5 18.9062 28.5C20.4531 28.5 22.0245 28.5 23.596 28.5ZM23.5714 32.3C24.4062 32.3 25.2411 32.3 26.0759 32.3C27.5 32.3 27.5 32.3 27.5 30.9225C27.5 30.5187 27.4018 30.3763 26.9598 30.4C24.9955 30.4238 23.0312 30.4 21.0669 30.4C19.5937 30.4 19.6183 30.4 19.6183 31.8012C19.6183 32.1812 19.7165 32.3 20.1339 32.3C21.2879 32.2763 22.4174 32.3 23.5714 32.3Z" fill="#5FD3D1"/>
<path d="M9.82142 34.2C8.27454 34.2 6.72767 34.2 5.15624 34.2C4.27231 34.2 3.92856 33.8675 3.92856 33.0125C3.92856 31.8963 3.92856 30.7563 3.92856 29.64C3.92856 28.8563 4.29686 28.5 5.08258 28.5C8.24999 28.5 11.4174 28.5 14.5848 28.5C15.346 28.5 15.7143 28.8562 15.7143 29.5925C15.7143 30.7562 15.7143 31.92 15.7143 33.0838C15.7143 33.8438 15.346 34.1762 14.5357 34.1762C12.9643 34.2 11.3928 34.2 9.82142 34.2ZM9.79686 32.3C10.6317 32.3 11.4665 32.3 12.3013 32.3C13.7745 32.3 13.75 32.3 13.75 30.8988C13.75 30.5188 13.6518 30.4 13.2344 30.4C11.2701 30.4238 9.30579 30.4 7.3415 30.4C5.81918 30.4 5.84374 30.4 5.86829 31.8488C5.86829 32.205 5.9665 32.3238 6.33481 32.3238C7.51338 32.2763 8.64284 32.3 9.79686 32.3Z" fill="#5FD3D1"/>
<path d="M46.1607 20.9004C47.3884 20.9004 48.6161 20.9004 49.8438 20.9004C50.3103 20.9004 50.7031 20.9954 50.9487 21.3991C51.1942 21.8266 51.0469 22.2066 50.8013 22.5629C49.5737 24.3441 48.346 26.1254 47.1183 27.8829C46.529 28.7141 45.7924 28.7141 45.2277 27.8829C44 26.1016 42.7723 24.3204 41.5447 22.5629C41.2991 22.1829 41.1518 21.8266 41.3973 21.3991C41.6429 20.9716 42.0357 20.9004 42.5022 20.9004C43.7054 20.9004 44.933 20.9004 46.1607 20.9004ZM44.0737 22.8241C44.7366 23.7979 45.3505 24.6766 45.9643 25.5554C46.038 25.6504 46.1116 25.8641 46.2589 25.6504C46.8973 24.7241 47.5357 23.7979 48.2232 22.8241C46.8237 22.8241 45.5223 22.8241 44.0737 22.8241Z" fill="#5FD3D1"/>
<path d="M46.1361 17.0998C44.9085 17.0998 43.6808 17.0998 42.4531 17.0998C41.9866 17.0998 41.5937 17.0048 41.3728 16.6011C41.1272 16.1736 41.2745 15.8173 41.5446 15.4373C42.7723 13.6561 43.9754 11.8748 45.2277 10.1173C45.7924 9.30982 46.5781 9.33357 47.1428 10.1411C48.3705 11.9223 49.5982 13.6798 50.8259 15.4611C51.0714 15.8173 51.2187 16.1736 50.9978 16.5773C50.7768 17.0048 50.3839 17.1236 49.9174 17.1236C48.6406 17.0998 47.3884 17.0998 46.1361 17.0998ZM48.2478 15.1761C47.5603 14.2023 46.9464 13.2998 46.3326 12.3973C46.2344 12.2548 46.1361 12.2073 46.0134 12.3736C45.3995 13.2761 44.7612 14.2023 44.0737 15.1761C45.4978 15.1761 46.7991 15.1761 48.2478 15.1761Z" fill="#5FD3D1"/>
<path d="M35.3571 34.2C34.4487 34.2 33.5156 34.2 32.6071 34.2C31.7969 34.2 31.4531 33.8438 31.4286 33.0838C31.4286 31.92 31.4286 30.7562 31.4286 29.5925C31.4286 28.8562 31.7969 28.5 32.558 28.5C34.4241 28.5 36.2656 28.5 38.1317 28.5C38.8929 28.5 39.2612 28.8562 39.2612 29.5925C39.2612 30.78 39.2857 31.9675 39.2612 33.155C39.2612 33.8438 38.8683 34.2 38.1562 34.2238C37.2478 34.2 36.2902 34.2 35.3571 34.2ZM35.3326 32.3C35.5045 32.3 35.7009 32.3 35.8728 32.3C37.3705 32.3 37.346 32.3 37.3214 30.8275C37.3214 30.495 37.2478 30.3762 36.8795 30.4C36.2165 30.4237 35.529 30.4 34.8661 30.4C33.3192 30.4 33.3437 30.4 33.3928 31.8963C33.3928 32.205 33.4665 32.3237 33.8103 32.3C34.3013 32.2762 34.817 32.3 35.3326 32.3Z" fill="#5FD3D1"/>
<path d="M23.8393 16.2213C23.8393 18.0263 23.8393 19.8075 23.8393 21.6125C23.8393 22.4675 23.4955 22.8 22.6116 22.8C20.4754 22.8 18.3147 22.8 16.1786 22.8C15.3438 22.8 15 22.4438 15 21.6363C15 17.9788 15 14.3213 15 10.6638C15 9.85625 15.3438 9.5 16.1786 9.5C18.3393 9.5 20.5 9.5 22.6853 9.5C23.471 9.5 23.8393 9.85625 23.8393 10.64C23.8393 12.4925 23.8393 14.345 23.8393 16.2213ZM21.875 16.15C21.875 14.7013 21.875 13.2525 21.875 11.8275C21.875 11.495 21.7768 11.4 21.433 11.4C20.0826 11.4238 18.7321 11.4238 17.3817 11.4C17.0134 11.4 16.9643 11.5425 16.9643 11.8513C16.9643 14.7013 16.9643 17.575 16.9643 20.4488C16.9643 20.805 17.0625 20.9238 17.4554 20.9238C18.7567 20.9 20.0826 20.9 21.3839 20.9238C21.8504 20.9238 21.9241 20.7813 21.8996 20.3775C21.8504 18.9525 21.875 17.5513 21.875 16.15Z" fill="#5FD3D1"/>
<path d="M28.7254 13.2996C27.1049 13.2759 25.779 11.9934 25.8036 10.4021C25.8281 8.85836 27.154 7.59961 28.7745 7.59961C30.3951 7.59961 31.721 8.90586 31.6964 10.4971C31.6719 12.0409 30.346 13.3234 28.7254 13.2996ZM28.7009 11.3996C29.2411 11.4234 29.7076 11.0196 29.7321 10.4971C29.7567 9.97461 29.3393 9.52336 28.7991 9.49961C28.2589 9.47586 27.7924 9.87961 27.7678 10.4021C27.7433 10.9246 28.1853 11.3759 28.7009 11.3996Z" fill="#5FD3D1"/>
</svg>
