<svg width="33" height="56" viewBox="0 0 33 56" fill="none" xmlns="http://www.w3.org/2000/svg">
<g clip-path="url(#clip0_925_2717)">
<path d="M5.09126 19.6362C5.09126 15.8752 5.06941 12.0923 5.09126 8.33127C5.11312 4.26411 7.69192 1.02788 11.582 0.175084C16.3462 -0.874506 21.1105 2.77719 21.329 7.63155C21.3946 9.0966 21.3509 10.5835 21.3509 12.0486C21.3509 18.6085 21.3509 25.1684 21.3509 31.7284C21.3509 32.1438 21.482 32.4062 21.7879 32.6905C25.9184 36.4515 27.4482 41.1091 25.8528 46.4882C24.3012 51.7799 20.5641 54.9724 15.1224 55.8252C6.88331 57.1372 -0.525295 50.2493 0.0429173 41.94C0.305169 38.2227 1.85682 35.1177 4.69788 32.6905C5.00384 32.4281 5.11312 32.1657 5.11312 31.7502C5.06941 27.7268 5.09126 23.6815 5.09126 19.6362ZM18.0727 20.4234C18.0727 20.4234 18.0509 20.4234 18.0727 20.4234C18.0509 16.2469 18.1164 12.0704 18.0509 7.91581C17.9853 4.43904 14.2482 2.2524 11.1449 3.78305C9.22172 4.74517 8.36941 6.36329 8.36941 8.48434C8.36941 16.5312 8.36941 24.5999 8.39126 32.6468C8.39126 33.587 8.0853 34.243 7.3204 34.8116C3.62702 37.4793 2.29391 42.4867 4.10782 46.685C5.92172 50.9053 10.4674 53.3762 14.9038 52.5671C18.9032 51.8455 22.0939 48.8936 22.9025 44.9357C23.7548 40.7592 22.4217 37.3262 19.0343 34.7241C18.3568 34.1993 18.0509 33.6308 18.0509 32.778C18.0727 28.6671 18.0727 24.5562 18.0727 20.4234Z" fill="#5FD3D1"/>
<path d="M28.804 9.79637C27.9954 9.79637 27.2086 9.81823 26.4 9.79637C25.351 9.7745 24.6079 9.07477 24.6298 8.13452C24.6516 7.19426 25.3728 6.53827 26.4 6.5164C28.0172 6.49453 29.6344 6.49453 31.2516 6.5164C32.2569 6.5164 33 7.23799 33 8.15638C33 9.07477 32.2788 9.7745 31.2516 9.79637C30.443 9.79637 29.6126 9.79637 28.804 9.79637Z" fill="#5FD3D1"/>
<path d="M28.804 16.3569C27.9954 16.3569 27.2086 16.3788 26.4 16.3569C25.351 16.335 24.6079 15.6353 24.6298 14.6951C24.6516 13.7767 25.3728 13.0988 26.4 13.0769C28.0172 13.0551 29.6344 13.0551 31.2516 13.0769C32.2788 13.0988 33 13.7985 33 14.7169C33 15.6353 32.2788 16.335 31.2516 16.3569C30.443 16.3569 29.6126 16.3569 28.804 16.3569Z" fill="#5FD3D1"/>
<path d="M28.804 22.9171C27.9954 22.9171 27.2086 22.9171 26.4 22.9171C25.3728 22.8952 24.6516 22.2392 24.6298 21.3208C24.6079 20.3806 25.351 19.659 26.4 19.659C27.9954 19.6371 29.5907 19.6371 31.1861 19.659C32.2569 19.659 32.9781 20.3587 32.9781 21.299C32.9781 22.2392 32.2351 22.9171 31.1861 22.9389C31.1424 22.9389 31.1205 22.9389 31.0768 22.9389C30.3338 22.9171 29.5689 22.9171 28.804 22.9171Z" fill="#5FD3D1"/>
<path d="M28.804 29.4776C27.9954 29.4776 27.2086 29.4776 26.4 29.4776C25.351 29.4558 24.6079 28.7779 24.6079 27.8376C24.6079 26.9193 25.3291 26.2195 26.3781 26.2195C27.9954 26.1977 29.6126 26.1977 31.2298 26.2195C32.2788 26.2414 33.0218 26.963 32.9781 27.9032C32.9563 28.8435 32.2351 29.4776 31.1861 29.4995C31.1424 29.4995 31.1205 29.4995 31.0768 29.4995C30.3338 29.4776 29.5689 29.4776 28.804 29.4776Z" fill="#5FD3D1"/>
<path d="M14.8609 25.2998C14.8609 28.7765 14.8609 32.2533 14.8609 35.7301C14.8609 36.1455 14.9702 36.3205 15.3636 36.4517C18.5106 37.545 20.3464 40.6937 19.7781 43.9737C19.2318 47.1006 16.3907 49.4403 13.1781 49.4185C10.0093 49.3966 7.16821 47.0131 6.68742 43.93C6.16292 40.6281 7.97682 37.5012 11.102 36.4735C11.5609 36.3205 11.6265 36.1018 11.6265 35.7082C11.6265 28.8203 11.6265 21.9323 11.6265 15.0444C11.6265 14.782 11.6265 14.5196 11.6921 14.2791C11.8887 13.5137 12.6536 12.9671 13.3967 13.0327C14.249 13.1201 14.9046 13.798 14.9046 14.6945C14.9265 16.4001 14.9046 18.1276 14.9046 19.8331C14.8609 21.6699 14.8609 23.4848 14.8609 25.2998ZM13.2 46.1385C15.0576 46.1385 16.5874 44.6297 16.5874 42.7929C16.6093 40.9343 15.0576 39.3818 13.2 39.3818C11.3642 39.3818 9.83444 40.9124 9.83444 42.7711C9.83444 44.6078 11.3642 46.1385 13.2 46.1385Z" fill="#5FD3D1"/>
</g>
<defs>
<clipPath id="clip0_925_2717">
<rect width="33" height="56" fill="white"/>
</clipPath>
</defs>
</svg>
