<svg width="20" height="17" viewBox="0 0 20 17" fill="none" xmlns="http://www.w3.org/2000/svg">
<g clip-path="url(#clip0_30:4231)">
<path d="M13.6206 14.5677C13.7552 14.5677 13.809 14.5677 13.8898 14.5677C15.4779 14.5677 17.0661 14.5677 18.6542 14.5677C18.8696 14.5677 19.058 14.62 19.1387 14.803C19.2464 15.0123 19.1387 15.1692 18.9772 15.3261C18.6811 15.5877 18.412 15.8753 18.1159 16.163C17.5237 16.7384 16.8238 17 16.0163 17C11.7363 17 7.42945 17 3.14951 17C2.31505 17 1.61519 16.7123 1.04991 16.163C0.753813 15.8753 0.457716 15.5877 0.188537 15.3261C0.0539476 15.1953 -0.0268061 15.0384 0.0539476 14.8292C0.134701 14.6461 0.296209 14.5677 0.511552 14.5677C2.09971 14.5677 3.68787 14.5677 5.30294 14.5677C5.38369 14.5677 5.43753 14.5677 5.5452 14.5677C5.46445 14.5153 5.41061 14.463 5.38369 14.4107C3.49944 12.8677 2.5304 10.9061 2.50348 8.49996C2.50348 8.21227 2.50348 7.95073 2.50348 7.66304C2.50348 7.00919 3.04184 6.51227 3.68787 6.45996C3.71478 6.45996 3.7417 6.45996 3.76862 6.45996C7.6448 6.45996 11.521 6.45996 15.3972 6.45996C16.1239 6.45996 16.6354 6.95688 16.6623 7.68919C16.6623 7.84611 16.6623 7.97688 16.6623 8.13381C16.6623 8.26458 16.6892 8.31688 16.8507 8.26458C17.3352 8.13381 17.8467 8.05535 18.3581 8.10765C19.2464 8.21227 19.8386 8.7615 19.9732 9.62458C20.1078 10.5138 19.8117 11.22 19.1657 11.8215C18.4658 12.4492 17.6583 12.8415 16.77 13.1553C16.097 13.4169 15.3972 13.6 14.6704 13.7307C14.5627 13.7569 14.455 13.783 14.3743 13.8877C14.1589 14.123 13.9167 14.3323 13.6206 14.5677ZM9.58289 14.5677C10.3635 14.5677 11.1441 14.5677 11.8978 14.5677C12.0324 14.5677 12.1401 14.5415 12.2478 14.4892C13.6475 13.7046 14.6704 12.58 15.3164 11.1153C15.8009 10.0169 15.8817 8.83996 15.8278 7.66304C15.8278 7.42765 15.6394 7.29688 15.3702 7.29688C11.521 7.29688 7.67172 7.29688 3.82245 7.29688C3.49944 7.29688 3.33793 7.45381 3.33793 7.76765C3.33793 8.05535 3.33793 8.34304 3.33793 8.63073C3.4456 11.1938 4.62999 13.1292 6.8911 14.463C7.02569 14.5415 7.13336 14.5677 7.29486 14.5677C8.04857 14.5677 8.80227 14.5677 9.58289 14.5677ZM17.7121 15.4046C12.2747 15.4046 6.86418 15.4046 1.45368 15.4046C1.4806 15.4569 1.50751 15.483 1.53443 15.483C1.99204 15.98 2.55731 16.1892 3.23026 16.1892C4.7915 16.1892 6.35274 16.1892 7.91398 16.1892C10.5788 16.1892 13.2706 16.1892 15.9355 16.1892C16.6623 16.1892 17.2276 15.9538 17.7121 15.4046ZM15.3702 12.7369C15.3972 12.7369 15.4241 12.7369 15.451 12.7369C16.2585 12.5015 17.0122 12.24 17.739 11.8477C18.1159 11.6384 18.4927 11.3769 18.7888 11.063C19.1387 10.6707 19.2464 10.2 19.1387 9.70304C19.0311 9.20611 18.735 8.94458 18.1966 8.91842C17.739 8.89227 17.2814 8.99688 16.8507 9.12765C16.6892 9.15381 16.6354 9.25842 16.6085 9.41534C16.5546 10.043 16.3931 10.6446 16.1509 11.2461C15.9624 11.7692 15.6933 12.2661 15.3702 12.7369Z" fill="#5FD3D1"/>
<path d="M9.17916 4.02775C9.17916 3.50467 9.34067 3.06005 9.63677 2.64159C10.0944 2.0139 10.1213 1.3339 9.6906 0.680054C9.55601 0.470824 9.58293 0.235439 9.77136 0.10467C9.95978 -0.0522533 10.202 5.44004e-05 10.3636 0.209285C10.9827 1.02005 10.9827 2.19698 10.3366 3.06005C9.95978 3.55698 9.90595 4.08005 10.0944 4.65544C10.1482 4.78621 10.229 4.89082 10.3097 5.02159C10.4443 5.23082 10.4174 5.46621 10.229 5.59698C10.0405 5.72775 9.79828 5.70159 9.63677 5.49236C9.31375 5.0739 9.15225 4.57698 9.17916 4.02775Z" fill="#5FD3D1"/>
<path d="M8.34477 1.6216C8.34477 2.14468 8.18326 2.61545 7.86024 3.06006C7.40264 3.6616 7.40264 4.36776 7.83333 4.99545C7.99483 5.23083 7.941 5.46622 7.75257 5.59699C7.56415 5.72776 7.32189 5.67545 7.16038 5.46622C6.54127 4.6816 6.54127 3.47853 7.16038 2.6416C7.53723 2.14468 7.61798 1.59545 7.40264 1.02006C7.3488 0.889295 7.26805 0.758526 7.1873 0.653911C7.05271 0.470834 7.10654 0.235449 7.26805 0.10468C7.45648 -0.0260892 7.69874 6.46114e-05 7.86024 0.183142C8.18326 0.601603 8.34477 1.09853 8.34477 1.6216Z" fill="#5FD3D1"/>
<path d="M13.3246 1.62157C13.3246 2.14465 13.1631 2.61542 12.867 3.03388C12.4094 3.66157 12.3824 4.34158 12.8131 4.99542C12.9746 5.20465 12.9208 5.44004 12.7324 5.57081C12.5439 5.70157 12.3017 5.64927 12.1133 5.44004C11.4942 4.65542 11.4942 3.45234 12.0863 2.66773C12.5978 1.98773 12.6247 1.30773 12.1402 0.601574C12.0056 0.418497 12.0594 0.183112 12.2209 0.0523432C12.4094 -0.0784261 12.6516 -0.0522722 12.8131 0.156959C13.19 0.601574 13.3246 1.0985 13.3246 1.62157Z" fill="#5FD3D1"/>
</g>
<defs>
<clipPath id="clip0_30:4231">
<rect width="20" height="17" fill="white"/>
</clipPath>
</defs>
</svg>
