<svg width="21" height="21" viewBox="0 0 21 21" fill="none" xmlns="http://www.w3.org/2000/svg">
<g clip-path="url(#clip0_31:4265)">
<path d="M0.78585 4.517C1.48061 5.19045 2.15056 5.83926 2.82051 6.49627C2.91976 6.59483 2.98593 6.53734 3.06864 6.49627C4.50779 5.72428 5.94694 4.95228 7.39436 4.17207C8.19664 3.745 8.99066 3.30973 9.79294 2.88267C9.85084 2.84981 9.90874 2.81696 9.99145 2.7759C9.71023 2.49667 9.43729 2.22565 9.16435 1.95462C8.77561 1.56863 8.39515 1.19084 8.01468 0.80484C7.93197 0.7145 7.8658 0.706287 7.75001 0.763776C7.0966 1.12514 6.4432 1.47007 5.78979 1.82322C5.72362 1.85607 5.65745 1.89714 5.58302 1.91356C5.43414 1.96284 5.3018 1.91356 5.23563 1.77394C5.1612 1.64254 5.18601 1.50292 5.3018 1.40437C5.35143 1.36331 5.4176 1.32224 5.47549 1.2976C6.20334 0.903393 6.93946 0.509181 7.67557 0.114969C7.97333 -0.0410731 8.04777 -0.0328604 8.28762 0.205309C8.98239 0.89518 9.67715 1.57684 10.3636 2.26671C10.496 2.40633 10.5621 2.38169 10.6862 2.2585C11.3727 1.56863 12.0675 0.878755 12.7622 0.197097C12.9938 -0.0328604 13.0682 -0.0492859 13.3577 0.106756C15.8225 1.42901 18.2872 2.75947 20.7437 4.08173C21.0911 4.27062 21.1159 4.4513 20.8347 4.73875C20.1399 5.43683 19.4369 6.14313 18.7339 6.833C18.6263 6.93155 18.6346 6.98904 18.7339 7.08759C19.4369 7.78568 20.1317 8.48376 20.8347 9.18184C21.1159 9.46108 21.0911 9.64997 20.7437 9.83886C20.049 10.2167 19.3542 10.5944 18.6512 10.9558C18.5188 11.0215 18.4857 11.1036 18.4857 11.2432C18.494 12.9761 18.4857 14.709 18.494 16.4337C18.494 16.6965 18.403 16.8443 18.1714 16.9675C15.715 18.2734 13.2668 19.5956 10.8103 20.9179C10.6035 21.0328 10.4381 21.0246 10.2396 20.9179C7.78309 19.5956 5.32661 18.2734 2.86186 16.9593C2.64682 16.8443 2.55584 16.7047 2.55584 16.4583C2.56411 14.7254 2.55584 12.9926 2.56411 11.2679C2.56411 11.1118 2.51448 11.0297 2.37388 10.9476C1.69566 10.5944 1.01744 10.2249 0.339218 9.85529C-0.057789 9.64176 -0.0826019 9.4775 0.239966 9.14899C0.926457 8.45912 1.61295 7.76925 2.30771 7.07938C2.40696 6.98083 2.40696 6.92334 2.30771 6.82479C1.60468 6.1267 0.909915 5.42862 0.206882 4.73053C-0.0743309 4.4513 -0.049518 4.26241 0.297863 4.07351C1.57986 3.38364 2.86186 2.69377 4.14387 2.0039C4.21003 1.97105 4.28447 1.9382 4.35064 1.92177C4.49952 1.88071 4.60704 1.94641 4.68148 2.0696C4.75592 2.20101 4.73111 2.3242 4.62358 2.42275C4.56569 2.48024 4.49125 2.51309 4.41681 2.55416C3.28368 3.1619 2.15056 3.76964 1.02571 4.3856C0.959541 4.41845 0.901644 4.4513 0.78585 4.517ZM10.8268 11.8263C10.8185 11.9495 10.8185 12.0235 10.8185 12.0974C10.8185 14.709 10.8185 17.3289 10.8185 19.9405C10.8185 20.2034 10.8185 20.2034 11.0501 20.0802C13.2502 18.8975 15.442 17.7149 17.6421 16.5405C17.791 16.4666 17.8489 16.3762 17.8489 16.212C17.8406 14.6926 17.8489 13.1732 17.8406 11.6539C17.8406 11.58 17.8571 11.5061 17.8158 11.4321C17.7413 11.4239 17.6835 11.4732 17.6256 11.5061C17.3443 11.6539 17.0714 11.8099 16.7902 11.9495C16.5586 12.0645 16.3436 11.9824 16.3022 11.7606C16.2691 11.5882 16.3684 11.4814 16.509 11.3993C16.8812 11.2022 17.2451 11.0051 17.6173 10.7998C18.4609 10.3398 19.3128 9.88814 20.1647 9.42823C20.1399 9.39538 20.1317 9.37074 20.1068 9.35431C19.47 8.71372 18.8248 8.07312 18.188 7.42432C18.097 7.32576 18.0308 7.35861 17.9399 7.40789C15.6901 8.61516 13.4322 9.83065 11.1825 11.0297C11.0336 11.1036 11.0253 11.1447 11.1494 11.2679C11.7614 11.8674 12.3735 12.4752 12.9773 13.0829C13.0848 13.1897 13.1592 13.2061 13.2916 13.1322C13.9367 12.779 14.5818 12.4341 15.2352 12.0809C15.3097 12.0399 15.3841 12.007 15.4586 11.9824C15.5826 11.9495 15.6901 11.9906 15.7646 12.0974C15.839 12.2041 15.839 12.3191 15.7729 12.4259C15.7232 12.5162 15.6322 12.5573 15.5495 12.5983C14.83 12.9843 14.1104 13.3703 13.3908 13.7646C13.0352 13.9535 12.9855 13.9452 12.6961 13.666C12.084 13.0747 11.4802 12.4669 10.8268 11.8263ZM17.4932 6.9644C17.4188 6.92334 17.3609 6.88227 17.303 6.85764C15.0864 5.66679 12.878 4.47594 10.6697 3.28509C10.5456 3.21939 10.4546 3.21939 10.3306 3.28509C8.13048 4.47594 5.92213 5.65858 3.72205 6.84121C3.65588 6.87406 3.58144 6.8987 3.53181 6.9644C3.57317 6.98904 3.60625 7.00547 3.63934 7.0301C5.88077 8.22917 8.1222 9.43644 10.3554 10.6437C10.4712 10.7094 10.5539 10.6848 10.6531 10.6355C12.1005 9.85529 13.548 9.08329 14.9954 8.30308C15.8308 7.85138 16.6496 7.4161 17.4932 6.9644ZM10.1899 11.8181C10.0907 11.9167 10.0328 11.966 9.98317 12.0152C9.42075 12.5737 8.86659 13.124 8.30417 13.6824C8.02295 13.9617 7.96506 13.9699 7.62595 13.781C6.20334 13.0254 4.789 12.2616 3.37467 11.4978C3.16789 11.3829 3.15962 11.3829 3.15962 11.621C3.15962 13.1568 3.15962 14.6844 3.15962 16.2202C3.15962 16.368 3.20925 16.4501 3.34158 16.524C5.54993 17.7067 7.75828 18.8893 9.9749 20.0802C10.1982 20.1951 10.1982 20.1951 10.1982 19.9405C10.1982 17.3207 10.1982 14.7008 10.1982 12.0809C10.1899 12.0152 10.1899 11.9495 10.1899 11.8181ZM20.1647 4.49236C20.1317 4.46773 20.0986 4.4513 20.0738 4.43488C17.7992 3.21118 15.5247 1.98748 13.2502 0.755563C13.1427 0.698074 13.0848 0.7145 13.0104 0.796627C12.39 1.4208 11.7697 2.03675 11.1411 2.65271C11.0336 2.75947 11.0584 2.80054 11.1742 2.85803C13.4404 4.07351 15.7067 5.289 17.9647 6.50449C18.0722 6.56198 18.1301 6.54555 18.2045 6.46342C18.8248 5.83104 19.4534 5.20687 20.082 4.5827C20.1151 4.55807 20.1399 4.52522 20.1647 4.49236ZM0.810663 9.40359C0.885102 9.45286 0.926457 9.4775 0.967812 9.49393C3.22579 10.7094 5.48376 11.9249 7.73347 13.1404C7.85753 13.2061 7.91543 13.1897 8.00641 13.0911C8.61846 12.4752 9.23879 11.8592 9.85911 11.2432C9.89219 11.2104 9.95009 11.1858 9.95009 11.1118C9.92528 11.0954 9.90874 11.079 9.88392 11.0708C7.60113 9.85529 5.31834 8.63159 3.04383 7.40789C2.9363 7.3504 2.87841 7.36683 2.7957 7.44895C2.4814 7.76925 2.1671 8.08134 1.85281 8.40163C1.5137 8.73014 1.16632 9.06687 0.810663 9.40359Z" fill="#5FD3D1"/>
</g>
<defs>
<clipPath id="clip0_31:4265">
<rect width="21" height="21" fill="white"/>
</clipPath>
</defs>
</svg>
