<svg width="27" height="20" viewBox="0 0 27 20" fill="none" xmlns="http://www.w3.org/2000/svg">
<g clip-path="url(#clip0_30:4178)">
<path d="M11.4809 5.50526C11.9131 4.95789 12.1451 4.35789 12.1767 3.67368C12.2083 3.07368 12.1978 3.07368 12.8093 3.07368C13.3575 3.07368 13.9162 3.08421 14.4645 3.06316C14.7175 3.05263 14.8229 3.11579 14.8018 3.38947C14.7597 3.92632 14.8862 4.43158 15.1287 4.91579C15.1603 4.97895 15.1708 5.05263 15.2657 5.08421C15.8245 4 16.7206 3.35789 17.8698 2.97895C18.9873 2.61053 19.5355 1.76842 19.5882 0.484211C19.6093 0 19.6093 0 20.0838 0C20.7058 0 21.3278 0.0105263 21.9498 0C22.1396 0 22.2134 0.0421053 22.2029 0.242105C22.1818 0.578947 22.2134 0.905263 22.2977 1.23158C22.5191 2.06316 23.0041 2.67368 23.8475 2.94737C24.6699 3.22105 25.4184 3.6 25.9877 4.27368C26.6203 5.02105 26.9787 5.89474 26.9787 6.87368C26.9893 10.2316 26.9893 13.5895 26.9787 16.9474C26.9787 17.4421 26.7468 17.8316 26.3145 18.0632C26.1458 18.1579 26.0931 18.2632 26.1037 18.4316C26.1142 18.6316 26.1142 18.8316 26.0615 19.0316C25.9139 19.5684 25.4289 19.9579 24.8702 19.9895C24.7964 19.9895 24.7331 19.9895 24.6593 19.9895C17.2056 19.9895 9.7624 19.9895 2.30867 19.9895C1.6023 19.9895 1.09625 19.6526 0.917023 19.0526C0.853766 18.8526 0.853766 18.6316 0.864309 18.4316C0.874852 18.2526 0.811595 18.1579 0.653454 18.0632C0.231744 17.8316 -0.000197142 17.4421 -0.000197142 16.9474C-0.000197142 13.8842 -0.0107399 10.8211 -0.000197142 7.76842C0.0103456 6.08421 1.06462 4.6 2.64604 4.01053C2.74092 3.96842 2.84635 3.93684 2.94123 3.90526C4.38559 3.47368 4.76513 2.30526 4.78622 1.32632C4.79676 0.884211 4.79676 0.88421 5.22901 0.88421C5.86158 0.88421 6.49414 0.894737 7.12671 0.88421C7.32702 0.88421 7.41136 0.936842 7.39028 1.14737C7.36919 1.43158 7.40082 1.72632 7.46408 2.01053C7.66439 2.91579 8.18098 3.55789 9.07712 3.85263C9.81511 4.09474 10.4898 4.42105 11.0275 5.01053C11.1962 5.15789 11.3333 5.32632 11.4809 5.50526ZM26.072 9.56842C25.5871 10.1368 25.0178 10.5684 24.3325 10.8C23.3098 11.1474 22.245 11.2632 21.1697 11.2947C20.9377 11.3053 20.885 11.3684 20.8745 11.5895C20.7901 13.7053 19.3352 15.5158 17.2899 16.0421C14.9073 16.6526 12.5141 16.6737 10.1103 16.1474C8.0123 15.6842 6.68391 14.4316 6.1884 12.3368C6.14623 12.1684 6.05135 12.1684 5.92483 12.1684C5.18684 12.1684 4.45939 12.0737 3.7214 11.9579C2.63549 11.7684 1.66556 11.3579 0.938108 10.4947C0.927565 10.4842 0.895937 10.4842 0.853766 10.4737C0.853766 10.5789 0.853766 10.6737 0.853766 10.7789C0.853766 12.7579 0.853766 14.7474 0.853766 16.7263C0.853766 17.3053 0.948651 17.4 1.5285 17.4C9.49883 17.4 17.4692 17.4 25.4289 17.4C25.9877 17.4 26.0931 17.2947 26.0931 16.7474C26.0931 14.4632 26.0931 12.1895 26.0931 9.90526C26.1248 9.8 26.1458 9.70526 26.072 9.56842ZM13.5051 15.6421C14.6437 15.6526 15.7718 15.5263 16.8682 15.2526C18.5551 14.8421 19.6093 13.7789 19.9572 12.0737C20.2735 10.5579 19.5566 8.9579 18.2493 8.08421C17.7854 7.76842 17.2583 7.61053 16.7312 7.42105C15.3606 6.91579 14.475 5.95789 14.0638 4.55789C14.0111 4.35789 14.0638 4.07368 13.8952 3.97895C13.7265 3.88421 13.4629 3.95789 13.252 3.94737C13.0939 3.93684 13.0307 3.97895 12.999 4.14737C12.7987 5.35789 12.1767 6.30526 11.1435 6.98947C10.6796 7.29474 10.163 7.45263 9.64643 7.63158C7.92796 8.26316 6.86314 9.83158 6.95802 11.5789C7.05291 13.3684 8.29695 14.8211 10.0892 15.2421C11.2278 15.5158 12.3559 15.6632 13.5051 15.6421ZM26.1142 6.90526C26.1037 6.06316 25.7874 5.29474 25.1443 4.65263C24.7015 4.21053 24.1533 3.97895 23.5734 3.77895C22.4453 3.38947 21.7601 2.58947 21.4543 1.45263C21.4016 1.26316 21.4649 0.989474 21.2962 0.894737C21.138 0.810526 20.9061 0.884211 20.7058 0.863158C20.5055 0.842105 20.4422 0.91579 20.4106 1.11579C20.1892 2.38947 19.5039 3.29474 18.2704 3.75789C18.0912 3.82105 17.9119 3.88421 17.7222 3.95789C16.9104 4.28421 16.3305 4.85263 15.9615 5.64211C15.8772 5.82105 15.8983 5.92632 16.0564 6.05263C16.5414 6.45263 17.1212 6.61053 17.6906 6.82105C19.2825 7.42105 20.2946 8.54737 20.748 10.1895C20.8007 10.3684 20.8745 10.4105 21.0537 10.4105C21.876 10.4 22.6878 10.3053 23.4785 10.1263C25.1021 9.77895 26.1142 8.54737 26.1142 6.90526ZM5.52421 11.2842C5.65072 11.2842 5.78778 11.2737 5.91429 11.2842C6.06189 11.2947 6.10406 11.2421 6.1146 11.0947C6.31491 8.96842 7.4219 7.54737 9.41449 6.78947C9.79402 6.64211 10.1946 6.53684 10.5531 6.31579C10.8588 6.12632 10.8588 6.13684 10.6374 5.84211C10.1525 5.18947 9.45666 4.87368 8.71866 4.62105C7.59059 4.22105 6.92639 3.41053 6.64174 2.26316C6.50468 1.73684 6.51523 1.74737 5.97755 1.72632C5.69289 1.71579 5.62964 1.82105 5.57692 2.07368C5.34498 3.31579 4.67024 4.18947 3.47891 4.63158C3.24697 4.71579 3.01503 4.8 2.79363 4.89474C1.51796 5.44211 0.779967 6.72632 0.895937 8.2C1.00136 9.49474 1.99238 10.6421 3.2786 10.9579C4.01659 11.1368 4.76513 11.2526 5.52421 11.2842ZM13.4945 18.2632C9.6886 18.2632 5.8932 18.2632 2.08727 18.2632C2.01347 18.2632 1.95021 18.2632 1.87641 18.2632C1.79207 18.2632 1.76044 18.2842 1.73936 18.3789C1.65502 18.8947 1.84479 19.1263 2.37192 19.1263C9.79403 19.1263 17.2161 19.1263 24.6277 19.1263C24.7015 19.1263 24.7858 19.1263 24.8596 19.1158C25.1548 19.0737 25.2708 18.8632 25.2392 18.4211C25.2181 18.1158 24.9861 18.2737 24.8596 18.2737C21.0853 18.2632 17.2899 18.2632 13.4945 18.2632Z" fill="#5FD3D1"/>
<path d="M19.1557 11.3896C19.1452 12.8317 18.1963 14.0317 16.7836 14.3791C16.1932 14.5264 16.2143 14.5159 16.0772 13.9264C16.0245 13.6843 16.0983 13.6317 16.3092 13.5896C16.889 13.4948 17.3951 13.2527 17.7746 12.7896C18.7446 11.6212 18.2912 9.86327 16.8679 9.30537C16.3092 9.08432 15.7399 8.9159 15.2127 8.63169C15.0651 8.54748 15.0019 8.48432 15.1284 8.32643C15.2549 8.16853 15.3076 7.9159 15.4657 7.83169C15.6344 7.74748 15.8137 7.97906 15.9929 8.04222C16.4146 8.20011 16.8363 8.34748 17.2475 8.5159C18.3966 9.00011 19.1557 10.137 19.1557 11.3896Z" fill="#5FD3D1"/>
<path d="M11.8919 7.5368C11.9446 7.52628 11.9763 7.56838 11.9974 7.59996C12.1239 7.76838 12.2504 7.9368 12.3769 8.10523C12.4823 8.24207 12.3558 8.27365 12.2925 8.31575C11.8498 8.63154 11.3753 8.86312 10.8693 9.05259C10.6268 9.14733 10.3738 9.22101 10.1313 9.31575C8.97158 9.76838 8.40227 11.0631 8.8767 12.2105C8.9505 12.3894 8.93995 12.4736 8.76073 12.5368C8.68693 12.5684 8.62367 12.6105 8.54987 12.6421C8.18088 12.8421 8.18088 12.8421 8.03328 12.4526C7.44288 10.9052 8.22305 9.1368 9.78337 8.52628C10.4792 8.25259 11.2172 8.04207 11.8287 7.57891C11.8498 7.56838 11.8708 7.55786 11.8919 7.5368Z" fill="#5FD3D1"/>
<path d="M9.58301 11.3788C9.58301 10.7998 9.93092 10.3051 10.5002 10.1051C11.2909 9.83139 12.0816 9.53665 12.7775 9.04192C12.9251 8.93665 13.0621 8.7156 13.2203 8.76823C13.3679 8.81034 13.4522 9.03139 13.5893 9.15771C13.779 9.33665 13.7158 9.43139 13.5365 9.56823C12.7353 10.1788 11.8181 10.5893 10.8692 10.8945C10.6267 10.9682 10.4581 11.1051 10.4475 11.3682C10.437 11.6314 10.5846 11.7893 10.8481 11.8524C10.9641 11.884 10.9747 11.9472 10.943 12.0524C10.9114 12.1788 10.8798 12.3051 10.8481 12.4314C10.7743 12.7682 10.7743 12.7682 10.437 12.6419C9.92038 12.4419 9.58301 11.9472 9.58301 11.3788Z" fill="#5FD3D1"/>
<path d="M25.25 6.96859C25.25 7.94754 24.649 8.82122 23.774 9.16859C23.5631 9.2528 23.4893 9.20017 23.4683 9.00017C23.4683 8.97912 23.4577 8.94754 23.4472 8.92649C23.405 8.76859 23.3207 8.6107 23.3523 8.47386C23.3734 8.30543 23.6053 8.32649 23.7213 8.23175C24.2062 7.88438 24.4276 7.4107 24.3644 6.82122C24.3011 6.24228 23.9954 5.82122 23.4577 5.60017C22.9411 5.40017 22.414 5.23175 21.9501 4.93701C21.4862 4.64228 21.5073 4.66333 21.813 4.22122C21.9817 3.97912 22.0977 3.96859 22.3402 4.14754C22.7513 4.4528 23.2469 4.58964 23.7213 4.77912C24.6596 5.11596 25.25 5.97912 25.25 6.96859Z" fill="#5FD3D1"/>
<path d="M21.1594 3.72607C21.0856 3.82081 21.054 3.86291 21.0118 3.91555C20.432 4.62081 19.694 5.10502 18.84 5.42081C18.5027 5.54713 18.1442 5.63134 17.8806 5.89449C17.8068 5.96818 17.7647 5.92607 17.7119 5.87344C17.6065 5.7787 17.5116 5.68397 17.4062 5.58923C17.1532 5.35765 17.1532 5.35765 17.4273 5.1366C17.6803 4.92607 17.9755 4.79976 18.2918 4.69449C19.1036 4.43134 19.81 4.03134 20.3582 3.35765C20.4214 3.28397 20.4742 3.23134 20.569 3.30502C20.7272 3.43134 20.8853 3.54713 21.054 3.67344C21.0751 3.69449 21.1278 3.70502 21.1594 3.72607Z" fill="#5FD3D1"/>
<path d="M1.7395 7.83161C1.7395 6.85267 2.34044 5.97898 3.25766 5.64214C3.80588 5.44214 4.36465 5.25267 4.83907 4.88424C4.92341 4.82109 4.97613 4.83161 5.03938 4.9053C5.10264 4.98951 5.1659 5.07372 5.22915 5.15793C5.50327 5.5053 5.50327 5.5053 5.12373 5.7474C4.65985 6.05267 4.15379 6.24214 3.64774 6.42109C3.01518 6.65267 2.64618 7.12635 2.62509 7.76846C2.59347 8.41056 2.92029 8.92635 3.53177 9.20004C3.65828 9.26319 3.67937 9.31583 3.64774 9.43161C3.60557 9.56846 3.5634 9.7053 3.54231 9.84214C3.51068 10.1053 3.38417 10.0842 3.1944 10.0106C2.31935 9.66319 1.7395 8.80004 1.7395 7.83161Z" fill="#5FD3D1"/>
<path d="M6.5044 4.11572C6.5782 4.11572 6.59929 4.16835 6.63092 4.21046C7.15805 4.86309 7.85387 5.27362 8.64458 5.53677C9.03466 5.66309 9.39312 5.83151 9.69886 6.1052C9.79374 6.19993 9.82537 6.26309 9.69886 6.3473C9.68831 6.3473 9.68831 6.35783 9.67777 6.36835C9.53017 6.49467 9.4142 6.66309 9.24552 6.7473C9.03466 6.84204 8.95032 6.57888 8.77109 6.51572C8.46535 6.41046 8.17016 6.29467 7.86442 6.16835C7.13697 5.87362 6.52549 5.42099 6.00889 4.83151C5.87184 4.67362 5.84021 4.57888 6.04052 4.46309C6.21975 4.35783 6.3568 4.23151 6.5044 4.11572Z" fill="#5FD3D1"/>
</g>
<defs>
<clipPath id="clip0_30:4178">
<rect width="27" height="20" fill="white"/>
</clipPath>
</defs>
</svg>
