<svg width="12" height="31" viewBox="0 0 12 31" fill="none" xmlns="http://www.w3.org/2000/svg">
<path d="M0.0262189 21.5184C0.0262189 19.1449 -0.0466115 16.7715 0.0504957 14.4102C0.135465 12.1336 1.33717 10.4625 3.37642 9.4332C3.59491 9.32422 3.66774 9.21523 3.66774 8.97305C3.6556 6.27266 3.66774 3.56016 3.66774 0.859766C3.66774 0.0484375 3.71629 0 4.51743 0C5.51278 0 6.49599 0 7.49133 0C8.12253 0 8.21964 0.096875 8.21964 0.750781C8.21964 3.49961 8.21964 6.23633 8.21964 8.98516C8.21964 9.15469 8.21964 9.3 8.42599 9.39687C10.6716 10.5109 11.8369 12.3395 11.8612 14.834C11.8854 19.4234 11.8733 24.0129 11.8612 28.6023C11.8612 30.0555 10.8901 31 9.43348 31C7.10291 31 4.78447 31 2.4539 31C0.997291 31 0.0383573 30.0555 0.0262189 28.6023C0.0140805 26.241 0.0262189 23.8797 0.0262189 21.5184C0.0262189 21.5184 0.0140805 21.5184 0.0262189 21.5184ZM5.91334 25.5508C7.49133 25.5508 9.06933 25.5508 10.6473 25.5508C10.8658 25.5508 10.9386 25.5145 10.9386 25.2723C10.9265 22.3055 10.9265 19.3387 10.9386 16.3719C10.9386 16.1418 10.8658 16.0934 10.6473 16.0934C7.50347 16.1055 4.35963 16.1055 1.21578 16.1055C0.997291 16.1055 0.92446 16.1418 0.92446 16.384C0.936599 19.3508 0.936599 22.3176 0.92446 25.2844C0.92446 25.5145 0.997291 25.5629 1.21578 25.5629C2.78164 25.5508 4.34749 25.5508 5.91334 25.5508ZM5.02724 26.459C3.75271 26.459 2.47818 26.4711 1.20364 26.459C0.973014 26.459 0.912322 26.5195 0.912322 26.7496C0.92446 27.3793 0.912322 27.9969 0.92446 28.6266C0.936599 29.5469 1.48283 30.0918 2.40535 30.1039C4.74806 30.1039 7.10291 30.1039 9.44562 30.1039C10.3803 30.1039 10.9265 29.559 10.9386 28.6145C10.9386 28.1059 10.9386 27.6094 10.9386 27.1008C10.9386 26.459 10.9386 26.459 10.2832 26.459C10.0768 26.459 10.0283 26.5316 10.0283 26.7254C10.0404 27.3066 10.0283 27.9 10.0283 28.4812C10.0283 29.0746 9.91901 29.1957 9.32423 29.1957C7.3214 29.1957 5.31856 29.1957 3.31573 29.1957C2.98799 29.1957 2.64811 29.1957 2.32038 29.1957C2.07761 29.1957 1.89553 29.0867 1.85912 28.8445C1.81056 28.4691 1.81056 28.0938 1.85912 27.7305C1.89553 27.5004 2.06547 27.3793 2.2961 27.3914C2.52673 27.3914 2.67239 27.5246 2.72094 27.7426C2.74522 27.8516 2.74522 27.9605 2.74522 28.0695C2.73308 28.2391 2.80591 28.2875 2.97585 28.2875C4.94227 28.2875 6.92083 28.2875 8.88725 28.2875C9.08146 28.2875 9.13002 28.2148 9.11788 28.0453C9.10574 27.6215 9.10574 27.1977 9.11788 26.7738C9.13002 26.5438 9.06933 26.459 8.81442 26.4711C7.55203 26.4711 6.28963 26.459 5.02724 26.459ZM5.9012 15.1973C6.89655 15.1973 7.87976 15.1973 8.87511 15.1973C9.02077 15.1973 9.10574 15.1973 9.13002 15.0035C9.2514 13.1992 7.85549 11.6371 6.08328 11.5766C4.16541 11.5039 2.63598 13.0902 2.75736 15.0035C2.7695 15.1973 2.85447 15.2094 3.00013 15.2094C3.95906 15.1973 4.93013 15.1973 5.9012 15.1973ZM5.94976 8.23438C5.57347 8.23438 5.19718 8.24648 4.83302 8.23438C4.61453 8.22227 4.55384 8.30703 4.56598 8.51289C4.57812 8.80352 4.56598 9.09414 4.56598 9.38477C4.56598 9.86914 4.51743 9.91758 4.08044 10.1113C2.1383 10.959 1.07012 12.4242 0.936599 14.5312C0.888045 15.3668 0.803076 15.1609 1.60421 15.1973C1.77415 15.2094 1.83484 15.1488 1.83484 14.9793C1.8227 14.5676 1.84698 14.1559 1.95622 13.7441C2.4539 11.7945 4.31107 10.4746 6.28963 10.6684C8.37744 10.8742 9.91901 12.509 10.0283 14.6402C10.0525 15.2094 10.0525 15.1852 10.6109 15.2094C10.8779 15.2215 10.9508 15.1488 10.9508 14.8824C10.9386 12.6664 9.76122 10.9105 7.70983 10.0871C7.4185 9.96602 7.29712 9.79648 7.29712 9.49375C7.30926 9.15469 7.29712 8.80352 7.29712 8.46445C7.29712 8.29492 7.24857 8.23438 7.06649 8.24648C6.70234 8.24648 6.32605 8.23438 5.94976 8.23438ZM4.56598 4.11719C4.56598 5.09805 4.56598 6.0668 4.56598 7.04766C4.56598 7.24141 4.6024 7.32617 4.83302 7.32617C5.57347 7.31406 6.31391 7.31406 7.04221 7.32617C7.23643 7.32617 7.30926 7.27773 7.29712 7.07188C7.28498 5.11016 7.28498 3.12422 7.29712 1.15039C7.29712 0.944531 7.22429 0.896094 7.03008 0.908203C6.31391 0.920313 5.59774 0.920313 4.88158 0.908203C4.63881 0.908203 4.55384 0.96875 4.55384 1.22305C4.57812 2.17969 4.56598 3.14844 4.56598 4.11719Z" fill="#5FD3D1"/>
</svg>
