<svg width="27" height="25" viewBox="0 0 27 25" fill="none" xmlns="http://www.w3.org/2000/svg">
<g clip-path="url(#clip0_30:4189)">
<path d="M23.6557 14.0258C23.5819 14.2391 23.5186 14.4311 23.4447 14.6231C23.4131 14.6977 23.4342 14.7617 23.4553 14.8257C24.0248 16.2762 23.6662 17.5454 22.6748 18.6653C21.8838 19.5612 20.8924 20.1478 19.8061 20.6064C17.5279 21.577 15.1338 21.8756 12.6869 21.769C10.5248 21.6836 8.43654 21.2677 6.48537 20.2758C5.50451 19.7745 4.60802 19.1452 3.96466 18.228C3.23693 17.1828 3.03654 16.0629 3.52169 14.847C3.56388 14.751 3.56388 14.6657 3.52169 14.5697C3.44787 14.3991 3.39513 14.2284 3.3213 14.0151C2.17169 14.8897 1.20138 15.8709 1.06427 17.4068C0.979897 18.3987 1.38068 19.2412 1.9924 19.9878C2.83615 21.0117 3.92248 21.6836 5.09318 22.2382C7.01271 23.1341 9.03771 23.5928 11.1365 23.8061C13.0244 23.9874 14.9123 23.9554 16.7897 23.6994C17.4014 23.6141 18.0026 23.4968 18.6037 23.3688C18.9412 23.2941 19.2154 23.4435 19.2893 23.7314C19.3736 24.0514 19.1943 24.3287 18.8252 24.414C16.8635 24.8726 14.8701 25.0433 12.8662 24.99C10.2295 24.926 7.65607 24.4887 5.20919 23.4648C3.77482 22.8675 2.44591 22.0889 1.39123 20.9264C0.505288 19.9345 -0.0536962 18.8039 -0.000961827 17.4388C0.0517725 16.2229 0.589663 15.2097 1.39123 14.3244C1.89748 13.7592 2.47755 13.2899 3.11037 12.8846C3.24748 12.7993 3.30021 12.6819 3.36349 12.5433C3.54279 12.0953 3.53224 11.6687 3.37404 11.1994C3.15255 10.5275 3.25802 9.8449 3.51115 9.19431C3.55333 9.08765 3.58498 8.99166 3.53224 8.86367C3.0049 7.51982 3.28966 6.31461 4.15451 5.22673C4.97716 4.20284 6.08458 3.55224 7.26583 3.06163C9.48068 2.14439 11.801 1.85642 14.1846 1.93108C14.733 1.95241 15.2709 1.99507 15.8088 2.05907C15.9354 2.06973 16.0092 2.03774 16.0936 1.94175C16.7686 1.14183 17.6123 0.90719 18.6037 1.21649C18.7619 1.26982 18.8147 1.21649 18.899 1.09917C19.2049 0.640552 19.5951 0.277924 20.1119 0.0752791C20.4705 -0.0740383 20.7658 0.0219515 20.8924 0.320586C21.019 0.619221 20.8924 0.90719 20.5338 1.05651C20.1858 1.20583 19.9326 1.45113 19.7322 1.7711C19.6584 1.88842 19.6373 1.97374 19.7322 2.10173C19.9326 2.3897 20.0592 2.70966 20.0803 3.06163C20.0908 3.23228 20.1963 3.2856 20.3123 3.33893C21.3248 3.84021 22.2529 4.45881 22.9385 5.38671C23.719 6.4426 23.951 7.59448 23.4447 8.85301C23.4026 8.95966 23.4026 9.04499 23.4447 9.15164C23.7928 9.99422 23.7928 10.8475 23.4447 11.69C23.4026 11.8074 23.3815 11.9033 23.4447 12.0207C23.4553 12.042 23.4764 12.0633 23.4764 12.0953C23.5291 12.6499 23.8983 12.9272 24.3201 13.2152C25.0479 13.7058 25.6701 14.3244 26.1553 15.071C27.2838 16.7882 27.2416 18.676 26.0393 20.3398C25.3432 21.3103 24.4361 22.0249 23.4342 22.6329C23.16 22.7929 22.8436 22.7075 22.6959 22.4516C22.5483 22.1956 22.6221 21.8863 22.8858 21.7156C23.4131 21.385 23.9193 21.0437 24.3729 20.6171C24.8264 20.2011 25.2166 19.7318 25.5014 19.1879C26.0498 18.132 26.0393 17.0761 25.4803 16.0309C25.069 15.199 24.4151 14.5697 23.6557 14.0258ZM15.7772 15.5723C15.7877 15.5723 15.7983 15.5723 15.8088 15.5723C15.8088 16.1376 15.7772 16.7135 15.8193 17.2788C15.851 17.7267 16.2307 18.0574 16.6526 18.1C17.1272 18.1427 17.5385 17.8867 17.6861 17.4494C17.7494 17.2788 17.7494 17.0975 17.7494 16.9268C17.7494 15.359 17.7494 13.8018 17.7494 12.234C17.7494 11.7007 17.8338 11.6047 18.3295 11.4341C18.6354 11.3274 18.9518 11.2314 19.2471 11.1034C20.2701 10.6768 21.2299 10.1435 21.9682 9.27963C22.8858 8.20241 22.8963 6.99721 22.0104 5.89866C21.4936 5.24806 20.8186 4.80011 20.1014 4.41615C19.9432 4.33082 19.8904 4.36282 19.8061 4.51214C19.2682 5.41871 18.2451 5.824 17.2643 5.55736C16.294 5.29072 15.619 4.39482 15.619 3.33893C15.619 3.16828 15.5768 3.11495 15.408 3.09362C14.0791 2.94431 12.7397 2.95497 11.4108 3.11495C9.81818 3.30693 8.26779 3.70156 6.83341 4.45881C6.03185 4.88543 5.30412 5.39738 4.78732 6.17596C4.18615 7.07187 4.1756 8.0211 4.76623 8.917C5.0299 9.33296 5.37794 9.67425 5.75763 9.97289C6.78068 10.7621 7.94083 11.2421 9.17482 11.5834C9.65998 11.722 9.7549 11.85 9.7549 12.3513C9.7549 13.0339 9.74435 13.7165 9.7549 14.3991C9.76544 14.9004 10.124 15.3057 10.6092 15.359C11.1049 15.423 11.5479 15.103 11.6744 14.6124C11.7166 14.4631 11.7061 14.3138 11.7061 14.1644C11.7272 13.0552 12.6131 12.17 13.7205 12.138C14.7963 12.1167 15.7244 12.9699 15.7772 14.0685C15.7983 14.5804 15.7772 15.071 15.7772 15.5723ZM22.6432 15.8603C21.483 17.0441 20.1119 17.7054 18.6354 18.1853C18.5193 18.228 18.4455 18.3027 18.3717 18.3987C17.7705 19.1772 16.7158 19.4225 15.8615 18.9746C15.6401 18.8573 15.4397 18.8359 15.2076 18.8573C13.0877 19.0599 10.9994 18.9106 8.94279 18.356C7.25529 17.8974 5.69435 17.2148 4.42873 15.9456C4.41818 15.9349 4.38654 15.9349 4.34435 15.9243C4.31271 16.0949 4.32326 16.2549 4.34435 16.4042C4.46037 17.2254 4.92443 17.844 5.5256 18.356C6.40099 19.1239 7.43458 19.6039 8.53146 19.9558C11.3053 20.8411 14.1213 20.9371 16.9584 20.3504C18.3928 20.0625 19.7639 19.5719 20.9873 18.7186C21.5885 18.292 22.1158 17.7907 22.4322 17.0975C22.6115 16.7348 22.7065 16.3402 22.6432 15.8603ZM4.3549 13.0126C4.32326 13.2259 4.32326 13.3752 4.34435 13.5352C4.41818 14.1111 4.68185 14.5911 5.05099 15.0283C5.63107 15.7003 6.3588 16.1696 7.14982 16.5535C8.60529 17.2574 10.1557 17.6094 11.7588 17.7801C12.708 17.876 13.6467 17.8867 14.5959 17.8334C14.6803 17.8334 14.849 17.8867 14.7963 17.6947C14.6697 17.2254 14.7225 16.7455 14.7225 16.2656C14.7225 16.0949 14.6803 16.0629 14.5115 16.0629C13.7416 16.0949 12.9717 16.1162 12.1912 16.0416C12.0541 16.0309 11.9381 16.0629 11.8221 16.1376C10.9151 16.7135 9.80763 16.5322 9.12208 15.6896C9.03771 15.5936 8.95333 15.519 8.82677 15.487C7.18146 14.9964 5.63107 14.3138 4.3549 13.0126ZM4.3549 10.2182C4.30216 10.3142 4.32326 10.4315 4.3338 10.5488C4.38654 11.2954 4.75568 11.8927 5.27248 12.4046C6.19005 13.3219 7.32912 13.8445 8.52091 14.2498C8.64748 14.2924 8.68966 14.2604 8.68966 14.1218C8.67912 13.7058 8.67912 13.2899 8.68966 12.8739C8.70021 12.6499 8.62638 12.5539 8.41544 12.49C6.93888 12.0313 5.56779 11.3807 4.46037 10.2609C4.42873 10.2289 4.40763 10.1969 4.3549 10.2182ZM22.6537 10.1329C22.3479 10.4422 22.0736 10.6981 21.7783 10.9115C20.9451 11.5407 20.0065 11.9887 19.0256 12.33C18.8674 12.3833 18.8041 12.458 18.8041 12.6286C18.8147 13.0552 18.8147 13.4818 18.8041 13.9085C18.8041 14.0898 18.8463 14.1218 19.0151 14.0578C19.7955 13.7485 20.5338 13.3752 21.2088 12.8632C21.6518 12.5219 22.042 12.1273 22.3162 11.6367C22.5693 11.1888 22.6959 10.7301 22.6537 10.1329ZM22.6537 13.0232C20.9662 14.3991 20.9662 14.3991 18.9729 15.2097C18.8568 15.263 18.8147 15.3163 18.8147 15.4443C18.8252 15.8816 18.8252 16.3189 18.8147 16.7455C18.8147 16.9161 18.8252 16.9908 19.0256 16.9055C19.6901 16.6388 20.3334 16.3295 20.9135 15.9243C21.5252 15.4976 22.0526 15.007 22.4006 14.3351C22.601 13.9405 22.6959 13.5245 22.6537 13.0232ZM17.8654 4.5548C18.5299 4.5548 19.0572 4.03219 19.0572 3.36026C19.0572 2.68833 18.5404 2.15506 17.876 2.15506C17.2221 2.15506 16.6842 2.68833 16.6736 3.3496C16.6736 4.01086 17.201 4.5548 17.8654 4.5548ZM13.6361 14.9964C13.826 14.9964 14.0264 14.9964 14.2162 14.9964C14.7225 14.975 14.7225 14.975 14.7225 14.4844C14.7225 14.3991 14.7225 14.3031 14.7225 14.2178C14.7014 13.6632 14.3111 13.2472 13.7838 13.2365C13.2354 13.2259 12.8135 13.6205 12.7713 14.1751C12.7608 14.3991 12.7818 14.6231 12.7186 14.8364C12.6869 14.9537 12.7291 14.9964 12.8451 14.9964C13.1088 14.9857 13.3725 14.9964 13.6361 14.9964Z" fill="#5FD3D1"/>
<path d="M20.5027 23.1758C20.5027 22.8772 20.7453 22.6425 21.0406 22.6532C21.3253 22.6638 21.5574 22.8985 21.5574 23.1758C21.5574 23.4744 21.3148 23.7197 21.03 23.7197C20.7347 23.7197 20.5027 23.4851 20.5027 23.1758Z" fill="#5FD3D1"/>
<path d="M10.2619 9.4497C9.01737 9.43903 8.00486 8.39381 8.02596 7.13528C8.04705 5.88741 9.0701 4.87418 10.3041 4.88485C11.5381 4.89551 12.5506 5.91941 12.54 7.16727C12.54 8.4258 11.5064 9.4497 10.2619 9.4497ZM9.10174 7.15661C9.09119 7.81787 9.61854 8.36181 10.283 8.37248C10.9263 8.38314 11.4748 7.8392 11.4853 7.17794C11.4959 6.51668 10.9685 5.97273 10.3041 5.96207C9.63963 5.9514 9.10174 6.48468 9.10174 7.15661Z" fill="#5FD3D1"/>
</g>
<defs>
<clipPath id="clip0_30:4189">
<rect width="27" height="25" fill="white"/>
</clipPath>
</defs>
</svg>
