<svg width="21" height="21" viewBox="0 0 21 21" fill="none" xmlns="http://www.w3.org/2000/svg">
<path d="M5.78456 13.8977C5.80919 13.4139 5.83382 12.9546 5.86666 12.4953C5.98162 10.8797 6.25257 9.28045 6.76985 7.73863C6.81912 7.59921 6.78627 7.5172 6.68774 7.41879C6.30184 7.04153 5.92414 6.65608 5.53823 6.27882C4.9799 5.71294 4.9799 4.95843 5.57107 4.41715C6.67953 3.392 7.99326 3.00655 9.48763 3.24438C9.61079 3.26078 9.68469 3.24438 9.78322 3.17057C11.565 1.67796 13.5684 0.644606 15.8592 0.18534C16.9348 -0.0278912 18.0104 -0.0935007 19.0943 0.18534C20.2602 0.488784 20.7939 1.3007 20.9335 2.40786C21.0813 3.62164 20.9828 4.82721 20.6379 6.01638C20.0878 7.93546 19.16 9.64951 17.8791 11.1831C17.7888 11.2979 17.7477 11.3882 17.7723 11.544C18.0022 13.0448 17.6081 14.357 16.5653 15.4641C16.0563 15.9972 15.3009 16.0136 14.7754 15.497C14.3648 15.1033 13.9707 14.6932 13.5684 14.2914C13.5027 14.2176 13.4452 14.1766 13.3221 14.2094C11.3761 14.8573 9.37268 15.1197 7.3364 15.1935C7.27071 15.1935 7.19681 15.2017 7.13113 15.2017C7.11471 15.2837 7.17218 15.3329 7.20503 15.3903C8.23138 17.1044 7.96863 19.3761 6.56458 20.8031C6.31826 21.0492 6.09657 21.0574 5.85845 20.7949C4.68431 19.5155 4.33945 18.0393 4.79105 16.3745C4.80747 16.3007 4.88137 16.2187 4.8321 16.1695C4.76642 16.1038 4.68431 16.1859 4.61041 16.2023C2.95183 16.6451 1.4903 16.3007 0.217629 15.1525C-0.0779599 14.8819 -0.0697491 14.6768 0.22584 14.398C1.64631 13.0366 3.88786 12.7742 5.57929 13.7747C5.63676 13.8157 5.70245 13.8485 5.78456 13.8977ZM18.889 8.2061C18.774 8.2061 18.6919 8.2061 18.618 8.2061C17.9612 8.2389 17.3207 8.15689 16.6967 7.95186C16.2615 7.81244 15.8428 7.61561 15.4569 7.36958C15.227 7.22196 15.1695 6.99232 15.2927 6.78729C15.4158 6.58226 15.6457 6.54126 15.8838 6.67248C15.9331 6.69708 15.9742 6.72989 16.0234 6.75449C17.0087 7.32037 18.0597 7.5254 19.1846 7.30397C19.2831 7.28757 19.3406 7.24656 19.3734 7.14815C19.8168 6.03278 20.1288 4.88462 20.1863 3.67904C20.2192 3.03935 20.1617 2.40786 19.9154 1.80917C19.7758 1.46472 19.5377 1.23509 19.201 1.09567C18.7412 0.907044 18.265 0.833233 17.7805 0.825032C16.5571 0.800429 15.383 1.07927 14.2335 1.49753C13.6751 1.70256 13.6669 1.71896 13.6259 2.32585C13.5848 3.00655 13.6669 3.66264 13.9133 4.29413C13.9789 4.45816 13.9954 4.61398 13.8804 4.7616C13.7901 4.88462 13.6587 4.94203 13.5027 4.91742C13.3303 4.89282 13.2235 4.7862 13.1579 4.63038C12.8705 3.90868 12.7555 3.16237 12.7966 2.38326C12.7966 2.30945 12.7966 2.22743 12.7966 2.12902C12.1808 2.44067 11.6306 2.79332 11.0969 3.17057C9.61079 4.22852 8.46949 5.54071 7.80441 7.26296C6.93407 9.51829 6.63848 11.8556 6.60564 14.2504C6.60564 14.4062 6.68774 14.3898 6.78627 14.3898C8.56802 14.3734 10.3333 14.1848 12.0658 13.7419C14.2335 13.1842 16.1302 12.2001 17.5014 10.3548C18.0187 9.66591 18.4949 8.97701 18.889 8.2061ZM5.57929 14.7835C4.33124 13.7419 2.22107 13.7419 1.05513 14.7835C2.21285 15.7922 4.27377 15.8824 5.57929 14.7835ZM6.21973 19.942C7.31177 18.6298 7.22145 16.5877 6.21152 15.4313C5.14411 16.6943 5.18517 18.7528 6.21973 19.942ZM8.87182 4.01529C8.81434 4.00709 8.7815 3.99069 8.74866 3.99069C7.72231 3.99069 6.83554 4.33514 6.09657 5.04864C5.89951 5.23727 5.89951 5.4669 6.09657 5.66373C6.40037 5.97538 6.72059 6.27882 7.02439 6.59867C7.12292 6.69708 7.17218 6.70528 7.22966 6.56586C7.45956 6.01638 7.74694 5.49971 8.08358 5.00764C8.31348 4.66319 8.57623 4.34334 8.87182 4.01529ZM17.0169 12.1673C16.9841 12.1673 16.9677 12.1673 16.9595 12.1755C16.2123 12.8644 15.3501 13.3892 14.4141 13.7993C14.291 13.8567 14.3238 13.8977 14.3977 13.9715C14.7015 14.275 15.0053 14.5784 15.3091 14.8819C15.5472 15.1197 15.7689 15.1115 15.9988 14.8737C16.4175 14.439 16.7049 13.9223 16.8774 13.34C16.9841 12.9546 17.0334 12.5609 17.0169 12.1673Z" fill="#5FD3D1"/>
<path d="M14.406 6.31973C14.1843 6.31973 14.0037 6.14751 14.0037 5.92607C13.9955 5.69644 14.1843 5.50781 14.4142 5.50781C14.6359 5.50781 14.8165 5.68824 14.8248 5.90967C14.8248 6.1393 14.6441 6.31973 14.406 6.31973Z" fill="#5FD3D1"/>
<path d="M17.6486 3.77751C17.4187 3.77751 17.2463 3.61348 17.2381 3.38385C17.2298 3.14602 17.4187 2.95739 17.6486 2.96559C17.8703 2.96559 18.0509 3.15422 18.0509 3.37565C18.0509 3.59708 17.8703 3.77751 17.6486 3.77751Z" fill="#5FD3D1"/>
</svg>
