<svg width="42" height="30" viewBox="0 0 42 30" fill="none" xmlns="http://www.w3.org/2000/svg">
<g clip-path="url(#clip0_31:4562)">
<path d="M39.0972 28.4211C39.786 28.4211 40.3928 28.4211 40.9832 28.4211C41.6064 28.4211 41.9836 28.7368 41.9836 29.2263C41.9672 29.7 41.6064 30 40.9996 30C37.1292 30 33.2589 30 29.4049 30C20.0242 30 10.6599 30 1.27919 30C1.13159 30 0.983991 30 0.836392 30C0.360797 29.9684 0.0327997 29.6526 0.0163998 29.2263C0.0163998 28.7842 0.360797 28.4368 0.852792 28.4368C2.29598 28.4211 3.75556 28.4368 5.19875 28.4368C5.49395 28.4368 5.78914 28.4368 6.16634 28.4368C5.64155 27.7737 5.24795 27.1263 5.08395 26.3842C5.03475 26.1474 4.95275 25.9105 4.96915 25.6895C4.98555 25.3579 4.87075 25.2632 4.52636 25.2789C3.83756 25.3105 3.16517 25.2947 2.47638 25.2789C1.09879 25.2474 0.0327997 24.2526 0.0327997 22.9105C0 16.0579 0 9.22105 0 2.36842C0 0.994737 1.08239 0 2.55838 0C8.16712 0 13.7923 0 19.401 0C21.4838 0 23.583 0 25.6658 0C27.3549 0 28.3717 0.978947 28.3717 2.58947C28.3717 4.23158 28.3881 5.87368 28.3717 7.51579C28.3717 7.83158 28.4701 7.91053 28.7817 7.89474C30.8645 7.87895 32.9309 7.89474 35.0137 7.87895C36.1945 7.86316 37.0144 8.35263 37.5392 9.36316C38.9004 11.9842 40.2616 14.6053 41.6228 17.2263C41.8852 17.7158 42.0164 18.2211 42 18.7737C41.9672 20.1 41.9836 21.4263 41.9836 22.7526C41.9836 23.7789 41.5244 24.5368 40.5568 25.0105C40.4256 25.0737 40.3272 25.1211 40.3272 25.2947C40.3272 26.4632 39.9172 27.4737 39.0972 28.4211ZM14.1695 1.57895C10.3319 1.57895 6.49434 1.57895 2.65677 1.57895C1.96798 1.57895 1.63998 1.86316 1.63998 2.49474C1.63998 7.3421 1.63998 12.2053 1.63998 17.0526C1.63998 17.3211 1.73838 17.3842 1.98438 17.3684C2.64037 17.3526 3.29637 17.3526 3.95236 17.3684C4.60836 17.3684 4.91995 17.6684 4.91995 18.2842C4.91995 19.2474 4.91995 20.2105 4.91995 21.1579C4.91995 21.8053 4.60836 22.0895 3.93596 22.1053C3.26357 22.1053 2.59118 22.1211 1.93518 22.1053C1.70558 22.1053 1.60718 22.1684 1.63998 22.3895C1.65638 22.5 1.63998 22.6263 1.63998 22.7368C1.63998 23.3842 1.95158 23.6684 2.62398 23.6684C3.36197 23.6684 4.09996 23.6526 4.83795 23.6684C5.11675 23.6684 5.23155 23.5737 5.34635 23.3368C6.23194 21.5368 7.72433 20.5263 9.80711 20.5105C11.9063 20.4947 13.4151 21.4895 14.3171 23.3053C14.4483 23.5737 14.5795 23.6526 14.8911 23.6526C18.6794 23.6368 22.4678 23.6368 26.2397 23.6526C26.6333 23.6526 26.7317 23.5737 26.7317 23.1789C26.7317 16.3737 26.7317 9.52105 26.7317 2.66842C26.7317 1.83158 26.4857 1.57895 25.6166 1.57895C21.7954 1.57895 17.9906 1.57895 14.1695 1.57895ZM36.5553 11.0526C36.3585 10.6579 36.1781 10.3421 36.0141 10.0105C35.8337 9.63158 35.5221 9.47368 35.0957 9.47368C32.9801 9.47368 30.8645 9.48947 28.7489 9.47368C28.4373 9.47368 28.3717 9.56842 28.3717 9.85263C28.3881 12.1737 28.3717 14.5105 28.3717 16.8316C28.3717 18.9947 28.3717 21.1737 28.3717 23.3368C28.3717 23.6211 28.4537 23.7 28.7325 23.6842C29.2901 23.6684 29.8477 23.6684 30.4053 23.6842C30.6677 23.7 30.7989 23.6211 30.9137 23.3684C31.7665 21.6158 33.1933 20.6211 35.1941 20.5421C37.2768 20.4632 38.802 21.3947 39.8024 23.1316C39.868 23.2421 39.868 23.4474 40.0156 23.4316C40.196 23.4158 40.2452 23.2263 40.2944 23.0842C40.3272 22.9579 40.3272 22.8316 40.3272 22.6895C40.3272 21.5684 40.3108 20.4474 40.3436 19.3421C40.3436 19.0105 40.2452 18.9316 39.9172 18.9316C36.9816 18.9474 34.0461 18.9316 31.1105 18.9316C30.2741 18.9316 30.0117 18.6789 30.0117 17.8579C30.0117 15.9474 30.0117 14.0368 30.0117 12.1421C30.0117 11.2737 30.2577 11.0368 31.1433 11.0368C32.9145 11.0526 34.7021 11.0526 36.5553 11.0526ZM31.7337 28.4053C30.9629 27.5053 30.5529 26.5579 30.5037 25.4684C30.4873 25.2474 30.3561 25.2632 30.2085 25.2632C29.6673 25.2632 29.1097 25.2632 28.5685 25.2632C24.1078 25.2632 19.6306 25.2632 15.1699 25.2632C14.8911 25.2632 14.7435 25.2947 14.7271 25.6263C14.6943 26.3211 14.4811 26.9684 14.1203 27.5684C13.9563 27.8526 13.7595 28.1053 13.5627 28.4053C19.6306 28.4053 25.6494 28.4053 31.7337 28.4053ZM39.786 17.3684C39.7696 17.2895 39.7696 17.2421 39.7368 17.1947C38.9824 15.7421 38.228 14.2895 37.4736 12.8211C37.3752 12.6316 37.244 12.6316 37.08 12.6316C35.3909 12.6316 33.7017 12.6474 31.9961 12.6316C31.7009 12.6316 31.6353 12.7105 31.6353 12.9789C31.6517 14.3211 31.6517 15.6632 31.6353 17.0053C31.6353 17.3053 31.7009 17.3842 32.0125 17.3842C33.9969 17.3684 35.9649 17.3842 37.9492 17.3842C38.5724 17.3684 39.1628 17.3684 39.786 17.3684ZM6.55994 25.2316C6.54354 26.9684 8.01952 28.4053 9.82351 28.4053C11.6111 28.4053 13.0871 27.0158 13.1199 25.2947C13.1363 23.5421 11.6767 22.1053 9.87271 22.0895C8.06872 22.0895 6.57634 23.4947 6.55994 25.2316ZM32.1437 25.2632C32.1437 27 33.6197 28.4211 35.4237 28.4211C37.2112 28.4211 38.6872 27.0158 38.6872 25.2947C38.7036 23.5579 37.2276 22.1211 35.4237 22.1211C33.6197 22.1053 32.1437 23.5105 32.1437 25.2632ZM3.27997 19.7368C3.27997 18.9474 3.27997 18.9474 2.49278 18.9474C1.63998 18.9474 1.63998 18.9474 1.63998 19.7526C1.63998 20.5105 1.63998 20.5105 2.45998 20.5105C3.27997 20.5263 3.27997 20.5263 3.27997 19.7368Z" fill="#5FD3D1"/>
<path d="M17.4495 6.31576C15.8423 6.31576 14.2352 6.31576 12.6116 6.31576C12.4968 6.31576 12.3656 6.31576 12.2508 6.31576C11.808 6.28418 11.48 5.95261 11.48 5.54208C11.48 5.13155 11.7916 4.79997 12.2344 4.75261C12.4312 4.73682 12.6116 4.73682 12.8084 4.73682C15.9407 4.73682 19.0895 4.73682 22.2219 4.73682C22.3367 4.73682 22.4351 4.73682 22.5499 4.73682C23.0747 4.75261 23.4355 5.0684 23.4355 5.52629C23.4355 5.98418 23.0747 6.29997 22.5663 6.31576C22.4515 6.31576 22.3531 6.31576 22.2383 6.31576C20.6475 6.31576 19.0567 6.31576 17.4495 6.31576Z" fill="#5FD3D1"/>
<path d="M19.1057 9.47348C17.9905 9.47348 16.8753 9.47348 15.7438 9.47348C15.137 9.47348 14.7762 9.17348 14.7598 8.6998C14.7598 8.21032 15.1206 7.89453 15.7602 7.89453C17.9905 7.89453 20.2373 7.89453 22.4677 7.89453C23.0745 7.89453 23.4353 8.19453 23.4517 8.66822C23.4517 9.15769 23.0909 9.47348 22.4513 9.47348C21.3361 9.47348 20.2209 9.47348 19.1057 9.47348Z" fill="#5FD3D1"/>
<path d="M9.0033 4.73682C9.46249 4.72103 9.83969 5.08419 9.83969 5.5263C9.83969 5.95261 9.47889 6.29998 9.0361 6.31577C8.5769 6.33156 8.19971 5.9684 8.19971 5.5263C8.19971 5.09998 8.5605 4.75261 9.0033 4.73682Z" fill="#5FD3D1"/>
<path d="M11.4797 25.263C11.4797 26.1314 10.7417 26.842 9.83969 26.842C8.9377 26.842 8.19971 26.1314 8.19971 25.263C8.19971 24.3946 8.9377 23.6841 9.83969 23.6841C10.7417 23.6841 11.4797 24.3946 11.4797 25.263Z" fill="#5FD3D1"/>
<path d="M37.0637 25.2472C37.0637 26.1157 36.3421 26.8262 35.4401 26.842C34.5381 26.842 33.8001 26.1472 33.7837 25.2788C33.7837 24.4104 34.5053 23.6999 35.4073 23.6841C36.3093 23.6841 37.0637 24.3788 37.0637 25.2472Z" fill="#5FD3D1"/>
</g>
<defs>
<clipPath id="clip0_31:4562">
<rect width="42" height="30" fill="white"/>
</clipPath>
</defs>
</svg>
