<svg width="24" height="21" viewBox="0 0 24 21" fill="none" xmlns="http://www.w3.org/2000/svg">
<path d="M15.1791 13.8409C12.9103 13.8409 10.6322 13.8409 8.36344 13.8314C8.15719 13.8314 8.10094 13.8791 8.11031 14.0891C8.12906 14.7477 8.11969 15.4064 8.11031 16.065C8.11031 16.2082 8.13844 16.2655 8.28844 16.3132C9.11344 16.5614 9.65719 17.115 9.90094 17.955C9.93844 18.0886 9.99469 18.1268 10.1259 18.1268C10.6134 18.1173 15.5822 18.1173 16.0697 18.1268C16.4072 18.1268 16.6228 18.3177 16.6134 18.6136C16.6134 18.8905 16.3978 19.0814 16.0791 19.0814C15.5916 19.0814 10.6416 19.0909 10.1541 19.0814C9.98531 19.0814 9.92906 19.1291 9.89156 19.2914C9.59156 20.3223 8.65406 21.0095 7.60406 20.9905C6.55406 20.9714 5.65406 20.2459 5.38219 19.1959C5.06344 17.9645 5.76656 16.6855 6.96656 16.3227C7.13531 16.275 7.18219 16.2082 7.18219 16.0364C7.17281 15.4923 7.14469 14.9482 7.18219 14.4136C7.25719 13.3636 6.94781 12.3805 6.73219 11.3877C6.00094 7.99909 5.24156 4.59136 4.51031 1.19318C4.47281 1.00227 4.40719 0.954545 4.21969 0.954545C2.99156 0.964091 1.77281 0.954545 0.544688 0.954545C0.244688 0.954545 0.057188 0.811364 0.010313 0.563182C-0.045937 0.257727 0.179063 0 0.525938 0C1.24781 0 1.97906 0 2.70094 0C3.37594 0 4.05094 0 4.71656 0C5.08219 0 5.22281 0.114545 5.30719 0.477273C5.56969 1.67045 5.83219 2.86364 6.08531 4.05682C6.12281 4.24773 6.19781 4.305 6.38531 4.305C12.0384 4.29545 17.6916 4.29545 23.3541 4.305C23.4759 4.305 23.6072 4.29545 23.7197 4.35273C23.9259 4.44818 24.0291 4.65818 23.9822 4.90636C23.6166 7.12091 23.2509 9.345 22.8947 11.5595C22.8009 12.1514 22.6978 12.7527 22.6041 13.3445C22.5384 13.7359 22.3978 13.8505 22.0041 13.8505C19.7259 13.8409 17.4572 13.8409 15.1791 13.8409ZM14.8884 8.59091C15.6197 8.59091 16.3603 8.59091 17.0916 8.59091C17.2416 8.59091 17.3072 8.57182 17.3072 8.39046C17.2978 7.40727 17.2978 6.42409 17.3072 5.43136C17.3072 5.28818 17.2791 5.24046 17.1291 5.24046C15.6384 5.25 14.1478 5.25 12.6572 5.24046C12.5072 5.24046 12.4791 5.28818 12.4791 5.43136C12.4884 6.41455 12.4884 7.39773 12.4791 8.39046C12.4791 8.57182 12.5447 8.59091 12.6947 8.59091C13.4166 8.59091 14.1478 8.59091 14.8884 8.59091ZM14.8978 9.54545C14.1572 9.54545 13.4166 9.54545 12.6759 9.54545C12.5353 9.54545 12.4697 9.56455 12.4697 9.73636C12.4791 10.7195 12.4791 11.7027 12.4697 12.6955C12.4697 12.8482 12.5072 12.8959 12.6666 12.8959C14.1478 12.8864 15.6291 12.8864 17.1197 12.8959C17.2791 12.8959 17.3072 12.8386 17.3072 12.6955C17.2978 11.7218 17.2978 10.7386 17.3072 9.765C17.3072 9.60273 17.2697 9.555 17.1009 9.555C16.3603 9.555 15.6291 9.54545 14.8978 9.54545ZM8.96344 5.25C8.16656 5.25 7.36969 5.25 6.57281 5.25C6.41344 5.25 6.34781 5.26909 6.39469 5.46C6.61969 6.44318 6.82594 7.42636 7.04156 8.40955C7.06969 8.55273 7.12594 8.60046 7.27594 8.59091C8.62594 8.58136 9.97594 8.58136 11.3259 8.59091C11.4853 8.59091 11.5416 8.56227 11.5416 8.39046C11.5322 7.41682 11.5322 6.43364 11.5416 5.46C11.5416 5.28818 11.4947 5.25 11.3353 5.25C10.5384 5.25955 9.75094 5.25 8.96344 5.25ZM20.6072 5.25C19.8853 5.25 19.1541 5.25 18.4322 5.25C18.3009 5.25 18.2447 5.26909 18.2447 5.43136C18.2541 6.42409 18.2541 7.41682 18.2447 8.40955C18.2447 8.56227 18.2916 8.59091 18.4322 8.59091C19.7072 8.58136 20.9822 8.59091 22.2478 8.59091C22.3884 8.59091 22.4447 8.56227 22.4728 8.4C22.6228 7.40727 22.7916 6.405 22.9603 5.41227C22.9884 5.26909 22.9416 5.24046 22.8103 5.24046C22.0697 5.25 21.3384 5.25 20.6072 5.25ZM9.43219 9.54545C8.78531 9.54545 8.13844 9.54545 7.49156 9.54545C7.35094 9.54545 7.29469 9.56455 7.33219 9.72682C7.55719 10.7291 7.77281 11.7218 7.98844 12.7241C8.01656 12.8482 8.06344 12.8864 8.19469 12.8864C9.25406 12.8768 10.3228 12.8768 11.3822 12.8864C11.5228 12.8864 11.5509 12.8386 11.5509 12.705C11.5509 11.7123 11.5416 10.7195 11.5509 9.72682C11.5509 9.57409 11.5134 9.53591 11.3634 9.54545C10.7072 9.555 10.0697 9.54545 9.43219 9.54545ZM20.2509 9.54545C19.6509 9.54545 19.0509 9.555 18.4509 9.54545C18.2916 9.54545 18.2353 9.58364 18.2447 9.75546C18.2541 10.7291 18.2541 11.7123 18.2447 12.6859C18.2447 12.8386 18.2728 12.8864 18.4322 12.8864C19.4728 12.8768 20.5134 12.8768 21.5447 12.8864C21.6853 12.8864 21.7416 12.8482 21.7697 12.6955C21.9197 11.7409 22.0791 10.7864 22.2384 9.82227C22.2853 9.53591 22.2853 9.53591 21.9947 9.53591C21.4041 9.54545 20.8228 9.54545 20.2509 9.54545ZM9.04781 18.6041C9.04781 17.8214 8.41031 17.1818 7.64156 17.1818C6.87281 17.1818 6.24469 17.8214 6.23531 18.6041C6.23531 19.3964 6.87281 20.0455 7.65094 20.0359C8.42906 20.0359 9.04781 19.3868 9.04781 18.6041Z" fill="#5FD3D1"/>
<path d="M16.9592 18.1366C17.2686 18.1366 17.5874 18.127 17.8967 18.1366C18.0655 18.1461 18.1499 18.108 18.2061 17.917C18.4874 16.9434 19.378 16.2561 20.353 16.2275C21.3749 16.1989 22.2936 16.8289 22.6405 17.793C23.0905 19.053 22.4342 20.437 21.178 20.8666C19.9405 21.2961 18.5905 20.5993 18.2061 19.3202C18.1405 19.1198 18.0561 19.072 17.8686 19.0816C17.2124 19.0911 16.5561 19.0911 15.8999 19.0816C15.6561 19.0816 15.4686 18.9193 15.4311 18.6998C15.3936 18.4802 15.478 18.3084 15.6561 18.1939C15.7405 18.1366 15.8436 18.127 15.9467 18.127C16.2936 18.1366 16.6217 18.1366 16.9592 18.1366ZM20.4467 17.182C19.678 17.182 19.0405 17.812 19.0311 18.5948C19.0217 19.3775 19.6499 20.0266 20.4186 20.0361C21.1967 20.0457 21.8436 19.3966 21.8436 18.6043C21.8436 17.8311 21.2155 17.1916 20.4467 17.182Z" fill="#5FD3D1"/>
</svg>
