<svg width="19" height="22" viewBox="0 0 19 22" fill="none" xmlns="http://www.w3.org/2000/svg">
<g clip-path="url(#clip0_30:4121)">
<path d="M4.91294 4.40353C4.52764 4.03233 4.21458 3.61163 4.02193 3.11669C3.87745 2.72074 3.8052 2.32479 3.78112 1.9041C3.78112 1.4339 3.78112 0.988459 3.78112 0.518268C3.78112 0.171811 3.94969 -0.00141688 4.28683 -0.00141688C4.88885 -0.00141688 5.4668 -0.0509107 6.06883 0.02333C7.41737 0.221305 8.54918 1.33492 8.78999 2.72074C8.78999 2.77024 8.78999 2.84448 8.86224 2.91872C9.12713 2.47327 9.39202 2.05258 9.72916 1.68137C10.2108 1.11219 10.7887 0.642003 11.4148 0.246052C12.1132 -0.174645 12.9801 0.0233301 13.3895 0.716244C13.7989 1.40916 13.6062 2.2753 12.9079 2.72074C12.2818 3.11669 11.752 3.63638 11.3908 4.2798C11.3426 4.37879 11.2703 4.47777 11.2222 4.62626C11.6316 4.52727 12.0409 4.42828 12.4503 4.40353C14.9307 4.2303 16.8331 5.24493 18.1335 7.42266C20.2285 10.1448 18.0371 14.5003 17.5796 16.1831C17.5074 16.4553 17.4351 16.7275 17.3388 16.9997C17.2425 17.3214 17.0498 17.4699 16.7849 17.3957C16.5441 17.3214 16.4478 17.074 16.52 16.777C16.6645 16.2326 17.9649 11.7534 18.0371 11.1842C18.3984 8.51152 16.6404 5.91309 14.0638 5.34392C12.5226 4.99746 11.1018 5.34391 9.84956 6.30904C9.51243 6.55651 9.4161 6.55651 9.07897 6.30904C5.99659 3.8591 1.42118 5.78936 0.891391 9.74887C0.795066 10.516 0.843229 11.2584 1.05996 11.9761C1.61382 13.9558 2.16769 15.9356 2.74564 17.9153C3.32358 19.8951 5.05742 21.1819 7.05615 21.1572C7.80267 21.1324 8.5251 20.9345 9.15121 20.5385C9.36794 20.39 9.56059 20.4148 9.8014 20.5385C12.2577 22.0233 15.3882 20.7612 16.207 17.9648C16.3274 17.5441 16.4478 17.1234 16.5682 16.678C16.6404 16.4058 16.8331 16.3068 17.0739 16.3563C17.2906 16.4058 17.4351 16.6038 17.3629 16.8512C17.0498 18.0391 16.7608 19.2517 15.918 20.2168C14.3527 22.0481 11.752 22.5678 9.63283 21.4542C9.53651 21.4047 9.46427 21.3552 9.31978 21.4294C6.38188 22.939 2.89012 21.4294 1.92688 18.1381C1.34893 16.1336 0.770985 14.1043 0.21712 12.0751C-0.697963 8.68475 1.39709 5.19543 4.76845 4.47777C4.81661 4.45303 4.86477 4.47777 4.91294 4.40353ZM7.41737 4.32929C7.03207 3.93334 6.67086 3.58688 6.33372 3.21568C6.14107 3.01771 6.11699 2.74549 6.28556 2.57226C6.45413 2.37429 6.71902 2.39903 6.93575 2.62176C7.2488 2.94347 7.58594 3.28992 7.89899 3.61163C7.92307 3.63638 7.94716 3.71062 8.0194 3.68587C8.1398 2.34954 7.36921 1.23593 6.16515 0.938966C5.70761 0.839978 5.22599 0.889472 4.76845 0.889472C4.64804 0.889472 4.64804 0.963713 4.64804 1.03795C4.64804 1.33492 4.64804 1.63188 4.64804 1.92884C4.69621 3.4384 5.94842 4.52727 7.41737 4.32929ZM12.7634 1.45865C12.7634 1.26068 12.6911 1.08745 12.4985 0.963713C12.3058 0.839978 12.0891 0.815231 11.8965 0.938966C10.3553 1.9041 9.39202 3.26517 8.93448 5.02221C8.9104 5.12119 8.93448 5.17069 9.00673 5.22018C9.12713 5.29442 9.24754 5.36866 9.36794 5.4429C9.44018 5.4924 9.48835 5.4924 9.56059 5.4429C9.92181 5.22018 10.2589 4.99746 10.3312 4.52727C10.3553 4.45303 10.4034 4.37879 10.4275 4.30454C10.861 3.36416 11.5112 2.59701 12.3781 2.05258C12.5948 1.9041 12.7393 1.75561 12.7634 1.45865Z" fill="#5FD3D1"/>
<path d="M2.60107 10.6164C2.60107 8.76034 3.75697 7.25078 5.39448 6.85483C5.46673 6.83008 5.51489 6.83008 5.58713 6.83008C5.80386 6.83008 5.97243 6.95381 6.02059 7.17653C6.06875 7.37451 5.94835 7.57249 5.7557 7.64673C5.56305 7.72097 5.34632 7.74571 5.15367 7.8447C3.90145 8.41388 3.22718 9.77496 3.54024 11.1608C3.56432 11.2103 3.56432 11.2598 3.5884 11.334C3.63656 11.5815 3.51616 11.7795 3.27535 11.8537C3.05862 11.9032 2.84189 11.7795 2.76964 11.5567C2.64924 11.2103 2.62516 10.8638 2.60107 10.6164Z" fill="#5FD3D1"/>
</g>
<defs>
<clipPath id="clip0_30:4121">
<rect width="19" height="22" fill="white"/>
</clipPath>
</defs>
</svg>
