<svg width="45" height="44" viewBox="0 0 45 44" fill="none" xmlns="http://www.w3.org/2000/svg">
<g clip-path="url(#clip0_31:4574)">
<path d="M17.0793 43.9993C13.3366 43.9993 9.57634 44.0174 5.83366 43.9993C3.60211 43.9813 1.86255 42.9706 0.720422 40.9673C0.245998 40.1191 0 39.1987 0 38.206C0 37.1232 0 36.0403 0 34.9575C0 34.3439 0.245998 34.0731 0.843421 34.0731C2.37212 34.0731 3.88325 34.0551 5.41195 34.0731C5.79852 34.0731 5.90394 33.9829 5.90394 33.5678C5.95666 25.1035 6.00937 16.6392 6.06209 8.17486C6.06209 7.21834 6.27294 7.01982 7.20422 7.01982C12.95 7.01982 18.6783 7.01982 24.4241 7.01982C24.7579 7.01982 24.916 6.92958 25.0566 6.58668C26.7259 2.52597 30.6619 -0.108976 34.9317 -0.000690227C40.2382 0.14369 44.5783 4.43901 44.9649 9.92548C45.3514 15.2676 41.5912 20.1946 36.4428 21.115C35.7927 21.2233 35.1425 21.3135 34.4748 21.2774C34.1761 21.2594 34.0707 21.3316 34.0707 21.6745C34.0882 22.4325 34.0707 23.2085 34.0707 23.9665C34.0707 28.6589 34.0707 33.3512 34.0707 38.0436C34.0707 40.9493 32.173 43.3135 29.4143 43.891C28.7993 44.0174 28.1667 43.9993 27.5342 43.9993C24.0551 43.9993 20.5759 43.9993 17.0793 43.9993ZM7.53807 21.2774C7.48536 21.2774 7.43264 21.2774 7.37993 21.2774C7.37993 25.3381 7.37993 29.3988 7.37993 33.4595C7.37993 34.1634 7.29207 34.0731 7.99492 34.0731C12.8622 34.0731 17.747 34.0731 22.6142 34.0731C24.0375 34.0731 24.0551 34.0912 24.0551 35.553C24.0551 36.6179 23.9496 37.7007 24.1078 38.7475C24.4592 41.0756 26.4623 42.6638 28.7114 42.4653C30.9078 42.2848 32.5771 40.3898 32.5947 38.0617C32.6123 32.5211 32.5947 26.9985 32.6123 21.4579C32.6123 21.1691 32.5244 21.0608 32.2433 20.9886C29.6954 20.3389 27.6572 18.9132 26.1636 16.6933C26.0055 16.4587 25.8473 16.3865 25.5838 16.3865C23.2644 16.4046 20.9274 16.3865 18.608 16.3865C18.4498 16.3865 18.2741 16.4046 18.1335 16.3504C17.7645 16.2421 17.5537 15.9895 17.5713 15.5924C17.5888 15.2134 17.7997 14.9788 18.1511 14.8886C18.3093 14.8525 18.4674 14.8705 18.6255 14.8705C20.6814 14.8705 22.7196 14.8705 24.7755 14.8705C24.9863 14.8705 25.1796 14.9066 25.039 14.5457C24.3186 12.7409 24.1253 10.864 24.4241 8.93286C24.4768 8.57191 24.3713 8.51777 24.0551 8.51777C18.6958 8.53582 13.3366 8.53582 7.97735 8.51777C7.60836 8.51777 7.5205 8.6441 7.5205 9.00505C7.53807 13.1019 7.53807 17.1987 7.53807 21.2774ZM43.524 10.6474C43.524 5.61211 39.5529 1.53335 34.6505 1.53335C29.7481 1.53335 25.7595 5.61211 25.7595 10.6474C25.7595 15.7007 29.7481 19.7975 34.6681 19.7795C39.5705 19.7614 43.524 15.7007 43.524 10.6474ZM24.4943 42.4653C23.4928 41.4907 22.8954 40.3898 22.6845 39.0904C22.5088 38.0978 22.5966 37.1051 22.6142 36.1125C22.6142 35.6613 22.5264 35.535 22.0695 35.535C15.3924 35.553 8.73292 35.553 2.05584 35.553C1.93284 35.553 1.82741 35.553 1.70441 35.553C1.56384 35.553 1.49356 35.6252 1.49356 35.7696C1.51113 36.8164 1.38813 37.8812 1.58141 38.9099C1.96798 41.0215 3.68997 42.4653 5.79852 42.4653C11.9133 42.4833 18.0281 42.4653 24.1429 42.4653C24.2132 42.4833 24.3011 42.4833 24.4943 42.4653Z" fill="#5FD3D1"/>
<path d="M23.1413 29.4896C21.5599 29.4896 19.9785 29.4896 18.3971 29.4896C17.7821 29.4896 17.4131 29.0204 17.5888 28.497C17.7118 28.1541 17.9929 27.9917 18.3443 27.9917C21.5423 27.9917 24.7227 27.9917 27.9207 27.9917C28.4127 27.9917 28.729 28.3166 28.7114 28.7677C28.6938 29.2009 28.3775 29.4896 27.868 29.4896C26.3041 29.4896 24.7227 29.4896 23.1413 29.4896Z" fill="#5FD3D1"/>
<path d="M23.1939 21.4582C24.7753 21.4582 26.3567 21.4582 27.9381 21.4582C28.4125 21.4582 28.7112 21.747 28.7288 22.1801C28.7288 22.6133 28.4477 22.902 27.9732 22.9381C27.8502 22.9381 27.7097 22.9381 27.5867 22.9381C25.566 22.9381 23.5453 22.9381 21.5246 22.9381C20.5933 22.9381 19.6445 22.9381 18.7132 22.9381C18.5902 22.9381 18.4848 22.9381 18.3618 22.9381C17.8522 22.902 17.5535 22.6133 17.571 22.1621C17.5886 21.7289 17.8873 21.4582 18.3618 21.4582C19.9783 21.4402 21.5773 21.4582 23.1939 21.4582Z" fill="#5FD3D1"/>
<path d="M15.9374 15.6831C15.9374 16.9645 14.9007 17.9932 13.6179 18.0113C12.3528 18.0113 11.281 16.9645 11.281 15.7012C11.2634 14.4198 12.3528 13.355 13.6355 13.355C14.9007 13.373 15.9374 14.4198 15.9374 15.6831ZM14.4789 15.7012C14.4965 15.25 14.0924 14.871 13.6179 14.871C13.1435 14.871 12.7394 15.2139 12.7394 15.6651C12.7394 16.1163 13.1084 16.4953 13.6004 16.4953C14.0748 16.5133 14.4789 16.1524 14.4789 15.7012Z" fill="#5FD3D1"/>
<path d="M15.9374 22.1802C15.9374 23.4616 14.9182 24.5083 13.6355 24.5083C12.3528 24.5264 11.2634 23.4435 11.281 22.1802C11.281 20.9169 12.3528 19.8701 13.6179 19.8701C14.8831 19.8701 15.9374 20.8988 15.9374 22.1802ZM13.6004 23.0104C14.0924 23.0104 14.4789 22.6494 14.4789 22.1983C14.4789 21.7651 14.0748 21.3861 13.6004 21.3861C13.126 21.3861 12.7394 21.7471 12.7218 22.1983C12.7394 22.6494 13.126 23.0104 13.6004 23.0104Z" fill="#5FD3D1"/>
<path d="M15.9371 28.7317C15.9196 30.0131 14.8653 31.0237 13.5826 31.0237C12.3175 31.0057 11.2632 29.9589 11.2632 28.6956C11.2632 27.4142 12.3526 26.3674 13.6529 26.3855C14.9532 26.4216 15.9547 27.4503 15.9371 28.7317ZM13.6353 29.5077C14.1273 29.5077 14.4963 29.1287 14.4963 28.6775C14.4787 28.2444 14.0746 27.8654 13.6002 27.8834C13.1257 27.9015 12.7392 28.2805 12.7567 28.7317C12.7567 29.1648 13.1433 29.5258 13.6353 29.5077Z" fill="#5FD3D1"/>
<path d="M31.5229 13.3912C31.5053 12.6874 31.7338 12.3625 32.1731 12.3264C32.6299 12.2903 32.8935 12.561 32.9638 13.1386C33.1043 14.3477 34.1762 15.0335 35.2129 14.6004C35.8982 14.3116 36.2847 13.5897 36.1969 12.8137C36.109 12.1098 35.5467 11.5143 34.8439 11.424C34.1762 11.3518 33.5085 11.2797 32.9286 10.8826C31.8919 10.1427 31.4175 9.13199 31.5581 7.86866C31.6811 6.64142 32.3312 5.77514 33.4382 5.3059C33.7369 5.17957 33.8599 5.03519 33.8072 4.71033C33.7896 4.584 33.8072 4.47572 33.8072 4.34938C33.8423 3.93429 34.141 3.66357 34.5276 3.66357C34.8966 3.66357 35.248 3.93429 35.2129 4.33133C35.1426 4.963 35.4413 5.17957 35.9509 5.41419C36.9876 5.88343 37.5323 6.80385 37.6553 7.9589C37.7256 8.51837 37.462 8.91542 37.0051 8.96956C36.5659 9.02371 36.2496 8.69885 36.1793 8.12133C36.0739 7.14676 35.3886 6.51509 34.4749 6.56923C33.6315 6.60533 32.9462 7.34528 32.9462 8.22961C32.9462 9.13199 33.6315 9.85389 34.5627 9.90804C36.1617 9.99827 37.3039 10.9728 37.585 12.4708C37.8837 14.0229 37.0579 15.5208 35.5994 16.0442C35.2832 16.1525 35.1777 16.2969 35.2129 16.6217C35.2304 16.7661 35.2305 16.9285 35.1953 17.0729C35.125 17.47 34.8966 17.6865 34.51 17.6865C34.1235 17.7046 33.7545 17.4339 33.8072 17.0549C33.9126 16.3149 33.5085 16.0623 32.9638 15.7555C32.0501 15.214 31.5932 14.3297 31.5229 13.3912Z" fill="#5FD3D1"/>
</g>
<defs>
<clipPath id="clip0_31:4574">
<rect width="45" height="44" fill="white"/>
</clipPath>
</defs>
</svg>
