<svg width="18" height="16" viewBox="0 0 18 16" fill="none" xmlns="http://www.w3.org/2000/svg">
<g clip-path="url(#clip0_28:3272)">
<path d="M8.99907 16C6.70509 16 4.4111 16 2.12416 16C1.98343 16 1.84269 16 1.72307 15.8999C1.57529 15.7783 1.54011 15.6209 1.54011 15.4421C1.54011 12.9173 1.54011 10.3853 1.54715 7.86053C1.54715 7.70317 1.49789 7.6245 1.36419 7.54582C0.491634 7.0523 0.0483184 6.28699 -0.000938907 5.2785C-0.00797566 5.16406 0.0342449 5.07108 0.0835021 4.97094C0.956059 3.41171 1.83565 1.85248 2.70117 0.286097C2.80673 0.100134 2.94746 0.00715244 3.15856 0.00715244C3.21486 0.00715244 3.27819 0.00715244 3.33448 0.00715244C7.11322 0.00715244 10.899 0.00715244 14.6777 0C15.0155 0 15.2125 0.114439 15.3814 0.414841C16.1836 1.87394 16.9928 3.33304 17.8232 4.77783C17.992 5.07823 18.0343 5.36433 17.978 5.67903C17.8161 6.51587 17.3798 7.15244 16.6339 7.56013C16.5073 7.63165 16.4651 7.70317 16.4651 7.84622C16.4721 10.3639 16.4651 12.8887 16.4651 15.4063C16.4651 15.8355 16.3032 15.9928 15.881 15.9928C13.587 16 11.293 16 8.99907 16ZM4.7348 6.72329C4.71368 6.74475 4.69257 6.75905 4.6785 6.78051C4.14371 7.49575 3.433 7.86768 2.54637 7.86768C2.41267 7.86768 2.42674 7.9392 2.42674 8.02503C2.42674 10.3281 2.42674 12.6384 2.42674 14.9414C2.42674 15.0702 2.46896 15.0988 2.58859 15.0988C2.98264 15.0916 3.3767 15.0988 3.76372 15.0988C3.9889 15.0988 3.9889 15.0988 3.9889 14.8628C3.9889 13.3679 3.9889 11.873 3.9889 10.3782C3.9889 9.35539 4.62221 8.71882 5.62846 8.71882C5.99437 8.71882 6.36732 8.71882 6.73323 8.71882C6.97952 8.71882 7.2258 8.76173 7.44394 8.87617C8.02096 9.18373 8.29539 9.67725 8.29539 10.3281C8.29539 11.8587 8.29539 13.3894 8.29539 14.92C8.29539 15.0416 8.3165 15.0988 8.45724 15.0916C10.7794 15.0845 13.1015 15.0845 15.4236 15.0916C15.5503 15.0916 15.5784 15.0559 15.5784 14.9271C15.5784 12.6241 15.5714 10.3281 15.5784 8.02503C15.5784 7.88914 15.5362 7.86053 15.4095 7.86053C14.8959 7.86053 14.4314 7.71033 14.0022 7.43138C13.7207 7.24542 13.4885 7.00224 13.2844 6.71614C13.2422 6.76621 13.207 6.80912 13.1789 6.84488C12.1515 8.19669 10.1461 8.19669 9.11869 6.84488C9.02721 6.72329 8.98499 6.73044 8.90055 6.84488C8.17577 7.81046 6.86693 8.12517 5.79031 7.61734C5.35403 7.42423 5.00923 7.11667 4.7348 6.72329ZM1.29382 4.63478C6.44473 4.63478 11.5675 4.63478 16.7043 4.63478C16.6902 4.59902 16.6902 4.58471 16.6832 4.57041C16.0217 3.3831 15.3603 2.20295 14.6988 1.01565C14.6496 0.929817 14.5862 0.915512 14.4948 0.915512C10.8357 0.915512 7.17655 0.915512 3.51744 0.915512C3.41189 0.915512 3.34855 0.951274 3.2993 1.05141C2.91931 1.74519 2.52525 2.43898 2.13823 3.13277C1.85676 3.61913 1.58233 4.1198 1.29382 4.63478ZM7.42283 12.5811C7.42283 11.823 7.42283 11.0648 7.42283 10.3138C7.42283 9.87036 7.16951 9.61287 6.73323 9.61287C6.34621 9.61287 5.95919 9.61287 5.57217 9.61287C5.13589 9.61287 4.88257 9.87036 4.88257 10.3138C4.88257 11.8516 4.88257 13.3894 4.87553 14.9271C4.87553 15.0559 4.90368 15.0988 5.03737 15.0988C5.77623 15.0916 6.51509 15.0916 7.25395 15.0988C7.38765 15.0988 7.42283 15.063 7.4158 14.9271C7.4158 14.1475 7.42283 13.3679 7.42283 12.5811ZM2.60266 5.55029C2.08898 5.55029 1.56826 5.55029 1.05457 5.55029C0.941986 5.55029 0.913839 5.57175 0.941986 5.69334C1.1179 6.42289 1.80047 6.96647 2.56748 6.97363C3.32744 6.98078 4.03112 6.43719 4.21408 5.7148C4.24926 5.58605 4.22815 5.55029 4.09445 5.55744C3.60188 5.55029 3.10227 5.55029 2.60266 5.55029ZM6.85989 5.55029C6.36028 5.55029 5.86068 5.55029 5.3681 5.55029C5.24144 5.55029 5.19218 5.55744 5.2344 5.7148C5.4244 6.43719 6.10696 6.96647 6.86693 6.96647C7.6269 6.96647 8.30946 6.43719 8.49946 5.7148C8.53464 5.58605 8.51353 5.55029 8.37983 5.55029C7.87319 5.55029 7.36654 5.55029 6.85989 5.55029ZM11.1593 5.55029C10.6668 5.55029 10.1742 5.55744 9.68163 5.55029C9.52682 5.55029 9.47756 5.5646 9.52682 5.74341C9.72385 6.4515 10.4135 6.97363 11.1593 6.96647C11.9123 6.95932 12.5878 6.43004 12.7778 5.7148C12.813 5.5789 12.7989 5.54314 12.6511 5.54314C12.1515 5.55029 11.6519 5.55029 11.1593 5.55029ZM15.4377 5.55744C14.931 5.55744 14.4314 5.5646 13.9248 5.55744C13.777 5.55744 13.7629 5.60036 13.7981 5.7291C13.9952 6.4515 14.6848 6.98078 15.4377 6.97363C16.1977 6.96647 16.8802 6.43004 17.0632 5.70764C17.0913 5.58605 17.0702 5.55744 16.9506 5.55744C16.451 5.55744 15.9443 5.55744 15.4377 5.55744Z" fill="#5FD3D1"/>
<path d="M11.5685 13.089C11.1885 13.089 10.8085 13.089 10.4285 13.089C9.64747 13.0819 9.14786 12.5741 9.14083 11.7801C9.14083 11.1507 9.12675 10.5142 9.14786 9.88474C9.16897 9.24103 9.65451 8.74036 10.2878 8.72605C11.1463 8.7046 11.9977 8.7046 12.8562 8.72605C13.4895 8.74036 13.9891 9.24818 14.0032 9.89905C14.0243 10.5714 14.0243 11.2437 14.0032 11.916C13.9891 12.5597 13.4966 13.0533 12.8703 13.0819C12.434 13.0962 12.0048 13.0819 11.5685 13.089C11.5685 13.0819 11.5685 13.089 11.5685 13.089ZM11.5755 12.1878C11.9555 12.1878 12.3355 12.1878 12.7155 12.1878C13.004 12.1878 13.1236 12.0662 13.1236 11.7801C13.1236 11.1936 13.1236 10.6143 13.1236 10.0278C13.1236 9.73454 13.004 9.61295 12.7225 9.61295C11.9555 9.61295 11.1885 9.61295 10.4215 9.61295C10.1471 9.61295 10.0204 9.7417 10.0204 10.0135C10.0204 10.6 10.0204 11.1936 10.0204 11.7801C10.0204 12.0662 10.14 12.1807 10.4145 12.1878C10.8015 12.195 11.1885 12.1878 11.5755 12.1878Z" fill="#5FD3D1"/>
</g>
<defs>
<clipPath id="clip0_28:3272">
<rect width="18" height="16" fill="white"/>
</clipPath>
</defs>
</svg>
