<svg width="26" height="19" viewBox="0 0 26 19" fill="none" xmlns="http://www.w3.org/2000/svg">
<path d="M0.7141 9.52178C0.733295 8.75602 0.685306 7.99027 0.75249 7.23397C0.896457 5.57956 1.51071 4.12367 2.59526 2.85687C3.75658 1.51443 5.21544 0.644687 6.97182 0.266536C7.53809 0.143637 8.10436 0.0869141 8.68022 0.0869141C11.4732 0.105822 14.2565 0.313805 16.9919 0.890485C18.7962 1.26864 20.5526 1.76969 22.165 2.69616C23.1248 3.25393 23.9694 3.9346 24.5741 4.87998C25.0636 5.64573 25.2843 6.48712 25.2843 7.39468C25.2843 8.48186 25.2939 9.56905 25.2843 10.6562C25.2555 13.1615 23.7007 15.2697 21.2916 16.0638C20.7254 16.2529 20.1399 16.3379 19.5449 16.3379C17.6925 16.3379 15.9553 16.8201 14.2565 17.5197C13.1432 17.9829 12.0394 18.4556 10.8589 18.7298C8.51706 19.2781 6.29039 19.0228 4.26526 17.6898C2.33612 16.423 1.18439 14.6268 0.810077 12.3579C0.656513 11.4125 0.733295 10.4672 0.7141 9.52178ZM1.74106 11.7623C1.72186 12.0365 1.76985 12.3012 1.82744 12.5564C2.50888 15.8369 5.52257 18.1625 8.92017 18.0302C10.2734 17.9735 11.5403 17.5764 12.7785 17.0753C13.8822 16.631 14.9667 16.1583 16.1185 15.8369C17.3182 15.4966 18.5467 15.4115 19.7944 15.3453C21.8099 15.2413 23.4607 13.984 24.0942 12.0932C24.2669 11.5922 24.3437 11.0817 24.3245 10.4766C24.2094 10.6279 24.123 10.7319 24.0462 10.8359C23.883 11.0627 23.6815 11.2613 23.4799 11.4503C23.2784 11.6394 22.9904 11.63 22.8081 11.4503C22.6353 11.2802 22.6257 11.0249 22.7985 10.8075C22.8465 10.7508 22.8945 10.7035 22.9425 10.6468C23.4607 10.1268 23.8542 9.52178 24.075 8.83165C24.5741 7.31905 24.3725 5.92935 23.2688 4.70981C22.5777 3.96296 21.7235 3.443 20.8022 3.02704C19.0842 2.24237 17.251 1.83586 15.3986 1.53334C13.2391 1.18355 11.0605 1.04175 8.88177 1.01338C7.23096 0.994476 5.73372 1.45771 4.40923 2.43145C2.25934 4.03859 1.21318 6.93145 1.87543 9.48396C2.816 13.1237 6.34797 15.3169 10.0911 14.6079C11.1948 14.3999 12.241 14.0029 13.2679 13.5774C14.842 12.9346 16.4256 12.3201 18.1436 12.1499C18.7482 12.0838 19.3529 12.0838 19.9672 12.0554C20.2839 12.0365 20.495 12.235 20.5046 12.4997C20.5142 12.7833 20.3223 12.9724 19.9864 12.9913C19.708 13.0102 19.4297 13.0197 19.1514 13.0291C18.1724 13.0575 17.2126 13.2182 16.272 13.4829C15.0339 13.8327 13.863 14.3716 12.6729 14.8348C11.118 15.4398 9.53442 15.7991 7.85482 15.6289C6.06964 15.4493 4.5244 14.7403 3.20951 13.5396C2.63365 13.0197 2.15376 12.4241 1.74106 11.7623Z" fill="#5FD3D1"/>
<path d="M9.31335 2.01562C9.71646 2.01562 10.11 2.00617 10.5131 2.01562C10.849 2.02508 11.0505 2.21415 11.0409 2.49777C11.0313 2.78138 10.8202 2.961 10.4843 2.961C9.88922 2.95155 9.30375 2.92319 8.70869 2.92319C6.28047 2.91373 4.23615 4.52087 3.70827 6.85596C3.00764 9.94734 5.54144 12.9347 8.75668 12.8496C9.74525 12.8213 10.6762 12.566 11.588 12.2162C12.8453 11.7341 14.0738 11.1858 15.3695 10.8076C16.6844 10.42 18.0185 10.212 19.3814 10.2026C19.986 10.2026 20.5523 10.0702 21.0706 9.74881C22.0208 9.15322 22.5582 7.99986 22.3567 6.9694C22.2607 6.47781 21.9728 6.10911 21.6081 5.78768C20.8978 5.15428 20.034 4.76667 19.151 4.44524C17.6058 3.86856 15.9934 3.55659 14.3618 3.32025C14.2562 3.30134 14.1602 3.28243 14.0738 3.22571C13.8819 3.10281 13.8147 2.86646 13.9107 2.65848C14.0066 2.44104 14.2178 2.33705 14.5057 2.38432C15.6095 2.54504 16.7132 2.74357 17.7978 3.02718C19.0455 3.36751 20.274 3.76457 21.3873 4.44524C22.0879 4.87066 22.7214 5.38117 23.0765 6.13747C23.5852 7.20575 23.422 8.25511 22.8462 9.23831C22.1743 10.3917 21.1378 11.0251 19.7941 11.1291C18.9687 11.1858 18.1337 11.1952 17.3083 11.337C15.7534 11.5923 14.2946 12.1501 12.8453 12.7457C11.9911 13.0954 11.1273 13.4263 10.2251 13.6343C7.37461 14.2677 4.74483 13.1238 3.37235 10.7509C1.94229 8.27402 2.64292 4.94629 4.95598 3.23516C6.09811 2.38432 7.37461 1.97781 8.79507 1.99672C8.95823 1.99672 9.13099 1.99672 9.29416 1.99672C9.31335 1.98726 9.31335 2.00617 9.31335 2.01562Z" fill="#5FD3D1"/>
<path d="M11.5211 6.033C11.5211 6.89329 10.9356 7.67795 10.0527 8.02774C9.06409 8.41535 7.91236 8.15064 7.20212 7.38489C6.40551 6.52459 6.51109 5.21052 7.42287 4.46367C8.50742 3.57502 10.0814 3.67901 11.022 4.71892C11.3483 5.08762 11.5211 5.53195 11.5211 6.033ZM10.5613 6.11808C10.5613 5.82501 10.5037 5.63594 10.3886 5.45632C9.89909 4.70002 8.66098 4.58657 7.98914 5.22943C7.48046 5.72102 7.50925 6.45842 8.06592 6.90274C8.5746 7.30926 9.37121 7.36598 9.93748 7.02564C10.3118 6.80821 10.5517 6.48678 10.5613 6.11808Z" fill="#5FD3D1"/>
<path d="M12.5293 2.57325C12.5293 2.83795 12.3181 3.05539 12.0494 3.05539C11.7902 3.05539 11.5695 2.84741 11.5599 2.60161C11.5503 2.3369 11.7614 2.11946 12.0302 2.11946C12.3181 2.11001 12.5293 2.30854 12.5293 2.57325Z" fill="#5FD3D1"/>
<path d="M21.9637 12.424C21.695 12.424 21.4934 12.2255 21.4934 11.9608C21.4934 11.7055 21.7046 11.4881 21.9541 11.4881C22.2132 11.4786 22.4532 11.715 22.4436 11.9702C22.434 12.216 22.2228 12.4334 21.9637 12.424Z" fill="#5FD3D1"/>
</svg>
