<svg xmlns="http://www.w3.org/2000/svg" xmlns:xlink="http://www.w3.org/1999/xlink" width="148" height="136"><defs><linearGradient id="b" x1="61.712%" x2="50%" y1=".694%" y2="100%"><stop offset="0%" stop-color="#EEE"/><stop offset="100%" stop-color="#D8D8D8"/></linearGradient><filter id="c" width="169.2%" height="149.8%" x="-34.6%" y="-24.9%" filterUnits="objectBoundingBox"><feGaussianBlur in="SourceGraphic" stdDeviation="10.209"/></filter><path id="a" d="M47.729 10.36L8.039 50.03C3.764 54.3 3.762 61.226 8.033 65.5c.099.098.199.194.301.29l57.77 53.543c9.785 9.068 25.035 8.61 34.257-1.029l34.946-36.524c6.265-6.547 6.035-16.933-.512-23.198-.443-.424-.91-.823-1.398-1.195L69.752 8.883c-6.677-5.087-16.086-4.456-22.023 1.477z"/></defs><g fill="none" fill-rule="evenodd"><path fill="#B0AFB1" d="M139.974 68.8c.048 4.954-.22 8.35-.803 10.189-.562 1.77-13.713 15.854-39.455 42.251a15.678 15.678 0 01-7.979 4.393c-4 .847-7.512.997-10.536.45"/><mask id="d" fill="#fff"><use xlink:href="#a"/></mask><use fill="#F6F5F6" xlink:href="#a"/><path fill="url(#b)" d="M55.437 0l14.649 122.948-88.569-88.599z" filter="url(#c)" mask="url(#d)" opacity=".643"/><path fill="#FC6336" d="M42.462 68.799l41.931 5.856L72.3 37.806z"/><path fill="#D8D8D8" d="M42.462 68.799l-1.694 1.747 42.54 5.583 1.085-1.474z"/></g></svg>