<svg xmlns="http://www.w3.org/2000/svg" xmlns:xlink="http://www.w3.org/1999/xlink" width="467" height="491"><defs><linearGradient id="b" x1="61.775%" x2="50%" y1=".694%" y2="100%"><stop offset="0%"/><stop offset="100%" stop-color="#D8D8D8"/></linearGradient><filter id="c" width="169%" height="149.8%" x="-34.5%" y="-24.9%" filterUnits="objectBoundingBox"><feGaussianBlur in="SourceGraphic" stdDeviation="28"/></filter><path id="a" d="M131.368 28.302L22.134 137.185c-11.734 11.697-11.765 30.692-.068 42.427.289.29.584.573.884.85l159.04 147.01c26.816 24.787 68.545 23.535 93.826-2.818l96.234-100.31c17.205-17.934 16.614-46.42-1.32-63.626a44.738 44.738 0 00-3.923-3.353L191.677 24.258c-18.291-13.903-44.036-12.176-60.309 4.044z"/></defs><g fill="none" fill-rule="evenodd"><path fill="#333" d="M282.574 70.821c13.161 3.39 21.97 6.511 26.422 9.365 4.291 2.75 32.248 47.692 83.87 134.827a43.003 43.003 0 015.944 24.202c-.6 11.262-2.703 20.726-6.312 28.388"/><g transform="rotate(-75 256.945 196.452)"><mask id="d" fill="#fff"><use xlink:href="#a"/></mask><use fill="#000" xlink:href="#a"/><path fill="url(#b)" d="M152.451 0l40.285 337.203L-50.829 94.208z" filter="url(#c)" mask="url(#d)" opacity=".643"/></g><path fill="#FF3B00" d="M213.17 329.841l45.356-107.223-106.227 5.965z" opacity=".777"/><path fill="#010101" d="M213.17 329.841l3.422 5.74 45.068-109.035-3.134-3.928z"/></g></svg>