<svg width="66" height="66" viewBox="0 0 66 66" fill="none" xmlns="http://www.w3.org/2000/svg">
<path d="M56.0984 46.8831V24.6935C56.0984 21.4255 53.2455 18.7763 49.726 18.7763H48.6641C47.3778 18.7763 46.2177 18.0581 45.7229 16.9556L43.374 11.7211C42.8792 10.6186 41.7191 9.90039 40.4328 9.90039H25.564C24.2777 9.90039 23.1176 10.6186 22.6228 11.7211L20.274 16.9556C19.7793 18.0581 18.6192 18.7763 17.3329 18.7763H16.2709C12.7515 18.7763 9.89844 21.4255 9.89844 24.6935V46.8831C9.89844 50.1512 12.7515 52.8004 16.2709 52.8004H49.726C53.2455 52.8004 56.0984 50.1512 56.0984 46.8831Z" stroke="white" stroke-width="4" stroke-linecap="round"/>
<path d="M42.9016 32.9996C42.9016 38.4671 38.4691 42.8996 33.0016 42.8996C27.534 42.8996 23.1016 38.4671 23.1016 32.9996C23.1016 27.5321 27.534 23.0996 33.0016 23.0996C38.4691 23.0996 42.9016 27.5321 42.9016 32.9996Z" stroke="white" stroke-width="4" stroke-linecap="round"/>
</svg>
