<svg width="19" height="19" viewBox="0 0 19 19" fill="none" xmlns="http://www.w3.org/2000/svg">
<path d="M11.0837 9.5C11.0837 10.3284 10.3748 11 9.50033 11C8.62585 11 7.91699 10.3284 7.91699 9.5C7.91699 8.67155 8.62585 8 9.50033 8C10.3748 8 11.0837 8.67155 11.0837 9.5Z" fill="black"/>
<path d="M4.74967 9.5C4.74967 10.3284 4.04078 11 3.16634 11C2.2919 11 1.58301 10.3284 1.58301 9.5C1.58301 8.67155 2.2919 8 3.16634 8C4.04078 8 4.74967 8.67155 4.74967 9.5Z" fill="black"/>
<path d="M17.4167 9.5C17.4167 10.3284 16.7078 11 15.8333 11C14.9589 11 14.25 10.3284 14.25 9.5C14.25 8.67155 14.9589 8 15.8333 8C16.7078 8 17.4167 8.67155 17.4167 9.5Z" fill="black"/>
</svg>
