<svg width="32" height="32" viewBox="0 0 32 32" fill="none" xmlns="http://www.w3.org/2000/svg">
<path d="M21 25V23C21 21.9391 20.5786 20.9217 19.8284 20.1716C19.0783 19.4214 18.0609 19 17 19H9C7.93913 19 6.92172 19.4214 6.17157 20.1716C5.42143 20.9217 5 21.9391 5 23V25" stroke-width="2" stroke-linecap="round" stroke-linejoin="round"/>
<path d="M13 15C15.2091 15 17 13.2091 17 11C17 8.79086 15.2091 7 13 7C10.7909 7 9 8.79086 9 11C9 13.2091 10.7909 15 13 15Z" stroke-width="2" stroke-linecap="round" stroke-linejoin="round"/>
<path d="M27 24.9999V22.9999C26.9993 22.1136 26.7044 21.2527 26.1614 20.5522C25.6184 19.8517 24.8581 19.3515 24 19.1299" stroke-width="2" stroke-linecap="round" stroke-linejoin="round"/>
<path d="M20 7.12988C20.8604 7.35018 21.623 7.85058 22.1676 8.55219C22.7122 9.2538 23.0078 10.1167 23.0078 11.0049C23.0078 11.8931 22.7122 12.756 22.1676 13.4576C21.623 14.1592 20.8604 14.6596 20 14.8799" stroke-width="2" stroke-linecap="round" stroke-linejoin="round"/>
</svg>
