<svg width="79" height="79" viewBox="0 0 79 79" fill="none" xmlns="http://www.w3.org/2000/svg">
<path d="M79 39.5C79 61.3152 61.3152 79 39.5 79C17.6848 79 0 61.3152 0 39.5C0 17.6848 17.6848 0 39.5 0C61.3152 0 79 17.6848 79 39.5ZM4.15796 39.5C4.15796 59.0189 19.9811 74.842 39.5 74.842C59.0189 74.842 74.842 59.0189 74.842 39.5C74.842 19.9811 59.0189 4.15796 39.5 4.15796C19.9811 4.15796 4.15796 19.9811 4.15796 39.5Z" fill="#E8E5FF"/>
<path d="M39.5 79C29.0239 79 18.977 74.8384 11.5693 67.4307C4.16159 60.023 -2.91424e-07 49.9761 0 39.5C2.91424e-07 29.0239 4.1616 18.977 11.5693 11.5693C18.977 4.16159 29.0239 -1.24926e-07 39.5 0L39.5 4.19197C30.1357 4.19197 21.155 7.91191 14.5335 14.5334C7.91191 21.155 4.19197 30.1357 4.19197 39.5C4.19197 48.8643 7.91191 57.845 14.5334 64.4665C21.155 71.0881 30.1357 74.808 39.5 74.808L39.5 79Z" fill="#2757FF"/>
</svg>
