<svg width="194" height="28" viewBox="0 0 194 28" fill="none" xmlns="http://www.w3.org/2000/svg">
<g clip-path="url(#clip0_365_2)">
<path d="M75.7242 6.98438L71.9905 20.7943H67.0035L64.3658 11.538L61.7019 20.7943H56.7149L52.9839 6.98438H57.4491L59.2556 16.2929L62.0952 6.98438H66.8462L69.7566 16.36L71.5736 6.98438H75.7242Z" fill="#929498"/>
<path d="M88.0343 7.66559C89.1749 8.23479 90.0716 9.05503 90.7244 10.1288C91.3773 11.2026 91.7024 12.4553 91.7024 13.892C91.7024 15.3286 91.3773 16.5814 90.7244 17.6551C90.0716 18.7289 89.1749 19.5492 88.0343 20.1184C86.8938 20.6876 85.6011 20.9734 84.1564 20.9734C82.7117 20.9734 81.4139 20.6876 80.2655 20.1184C79.117 19.5492 78.2151 18.7289 77.5622 17.6551C76.9094 16.5814 76.5842 15.3286 76.5842 13.892C76.5842 12.4553 76.9094 11.2026 77.5622 10.1288C78.2151 9.05751 79.1144 8.23479 80.2655 7.66559C81.4139 7.09639 82.7117 6.81055 84.1564 6.81055C85.6038 6.81055 86.8964 7.09639 88.0343 7.66559ZM82.0038 11.3542C81.4217 11.9408 81.1281 12.7859 81.1281 13.892C81.1281 14.9981 81.4191 15.8382 82.0038 16.4173C82.5859 16.994 83.3043 17.2848 84.1591 17.2848C85.0112 17.2848 85.7244 16.9965 86.3012 16.4173C86.8754 15.8407 87.1638 14.9981 87.1638 13.892C87.1638 12.7859 86.8754 11.9408 86.3012 11.3542C85.727 10.7676 85.0138 10.4768 84.1591 10.4768C83.3043 10.4743 82.5885 10.7676 82.0038 11.3542Z" fill="#929498"/>
<path d="M98.1683 1.49414V20.7972H93.7031V1.49414H98.1683Z" fill="#929498"/>
<path d="M108.727 5.10276C107.995 5.10276 107.466 5.2519 107.135 5.54768C106.805 5.84595 106.621 6.32318 106.587 6.98435H109.225V10.5487H106.585V20.7967H102.119V10.5487H100.371V6.98435H102.119V6.83522C102.119 5.12016 102.646 3.79535 103.698 2.86325C104.752 1.93116 106.278 1.46387 108.281 1.46387C108.698 1.46387 109.013 1.47132 109.22 1.48872V5.12762L108.727 5.10276Z" fill="#929498"/>
<path d="M118.169 7.57815C119.047 7.08352 120.001 6.83496 121.026 6.83496V11.3637H119.747C118.562 11.3637 117.644 11.6023 116.991 12.082C116.338 12.5617 116.013 13.3696 116.013 14.508V20.794H111.548V6.9841H116.013V9.58402C116.572 8.7414 117.29 8.07278 118.169 7.57815Z" fill="#929498"/>
<path d="M131.315 7.52844C132.115 8.00815 132.707 8.65938 133.09 9.48459V6.98409H137.529V20.794H133.09V18.296C132.707 19.1212 132.115 19.7724 131.315 20.2521C130.515 20.7319 129.556 20.9705 128.444 20.9705C127.243 20.9705 126.168 20.6846 125.219 20.1154C124.27 19.5462 123.523 18.726 122.975 17.6522C122.427 16.5784 122.151 15.3257 122.151 13.889C122.151 12.4375 122.427 11.1798 122.975 10.1134C123.523 9.04961 124.27 8.23186 125.219 7.66266C126.168 7.09346 127.243 6.80762 128.444 6.80762C129.556 6.8101 130.515 7.0512 131.315 7.52844ZM127.568 11.4159C126.986 12.0099 126.693 12.8352 126.693 13.8915C126.693 14.9479 126.984 15.7731 127.568 16.3672C128.15 16.9612 128.921 17.257 129.878 17.257C130.817 17.257 131.588 16.9513 132.188 16.3423C132.789 15.7309 133.09 14.9156 133.09 13.8915C133.09 12.8526 132.789 12.0323 132.188 11.4283C131.588 10.8268 130.817 10.526 129.878 10.526C128.921 10.5236 128.15 10.8218 127.568 11.4159Z" fill="#929498"/>
<path d="M163.591 8.40834C164.619 9.45725 165.13 10.9113 165.13 12.778V20.7965H160.691V13.2701C160.691 12.3952 160.442 11.7142 159.947 11.227C159.451 10.7398 158.775 10.4962 157.923 10.4962C157.034 10.4962 156.334 10.7572 155.82 11.2767C155.306 11.7962 155.049 12.5269 155.049 13.4665V20.7915H150.584V13.2701C150.584 12.3952 150.34 11.7142 149.852 11.227C149.365 10.7398 148.693 10.4962 147.841 10.4962C146.952 10.4962 146.25 10.7522 145.725 11.2643C145.203 11.7763 144.941 12.5095 144.941 13.4665V20.7915H140.487V6.9841H144.952V9.33546C145.335 8.55996 145.922 7.9485 146.714 7.50358C147.506 7.05866 148.431 6.83496 149.493 6.83496C150.607 6.83496 151.591 7.07855 152.443 7.56572C153.295 8.0529 153.94 8.74886 154.375 9.6561C154.879 8.79857 155.571 8.11255 156.452 7.60301C157.33 7.09098 158.3 6.83496 159.362 6.83496C161.156 6.83496 162.566 7.35942 163.591 8.40834Z" fill="#929498"/>
<path d="M181.57 14.6571H171.465C171.518 15.6961 171.795 16.4442 172.301 16.8966C172.805 17.3515 173.45 17.5777 174.234 17.5777C174.895 17.5777 175.443 17.4211 175.878 17.1079C176.313 16.7947 176.599 16.3895 176.74 15.8949H181.465C181.274 16.8693 180.857 17.7392 180.212 18.5073C179.567 19.2753 178.749 19.8768 177.758 20.3143C176.767 20.7517 175.66 20.9705 174.441 20.9705C173.015 20.9705 171.748 20.6846 170.642 20.1154C169.535 19.5462 168.67 18.726 168.043 17.6522C167.417 16.5784 167.105 15.3257 167.105 13.889C167.105 12.4375 167.414 11.1798 168.03 10.1134C168.649 9.04961 169.514 8.23186 170.629 7.66266C171.743 7.09346 173.012 6.80762 174.441 6.80762C175.886 6.80762 177.157 7.08849 178.253 7.65023C179.349 8.21197 180.199 8.9999 180.799 10.014C181.4 11.0281 181.701 12.1964 181.701 13.5162C181.699 13.8642 181.657 14.2445 181.57 14.6571ZM176.413 10.8343C175.88 10.3794 175.225 10.1532 174.441 10.1532C173.623 10.1532 172.944 10.3844 172.404 10.8467C171.864 11.309 171.559 11.9851 171.489 12.8774H177.181C177.199 11.9677 176.942 11.2866 176.413 10.8343Z" fill="#929498"/>
<path d="M190.642 7.57815C191.521 7.08352 192.475 6.83496 193.5 6.83496V11.3637H192.221C191.036 11.3637 190.118 11.6023 189.465 12.082C188.812 12.5617 188.487 13.3696 188.487 14.508V20.794H184.022V6.9841H188.487V9.58402C189.045 8.7414 189.764 8.07278 190.642 7.57815Z" fill="#929498"/>
<path d="M27.8157 25.9125L34.9947 4.09902C36.0487 0.994525 39.5595 -0.713071 42.837 0.288619C46.1118 1.28782 47.9131 4.61602 46.8564 7.723C46.589 8.50845 46.1432 9.22678 45.6057 9.81338L30.1414 27.1677C29.6432 27.7046 28.7806 27.7568 28.2143 27.2845C27.7921 26.9291 27.6532 26.3873 27.8157 25.9125Z" fill="#929498"/>
<path d="M6.63801 11.6375C10.0279 11.6375 12.776 9.03236 12.776 5.81875C12.776 2.60514 10.0279 0 6.63801 0C3.24808 0 0.5 2.60514 0.5 5.81875C0.5 9.03236 3.24808 11.6375 6.63801 11.6375Z" fill="#929498"/>
<path d="M10.9957 26.8473C8.45244 25.4728 6.79274 22.0874 8.70415 18.9084C11.0115 15.0756 16.3026 16.3656 18.0646 13.4351L18.1091 13.363C19.8711 10.4325 16.0089 6.77126 18.3136 2.93849C20.2277 -0.24057 24.1449 -0.608437 26.6882 0.766091C29.2315 2.14062 30.8912 5.52598 28.9798 8.70505C26.6725 12.5378 21.3813 11.2478 19.6194 14.1783L19.5748 14.2504C17.8128 17.1809 21.675 20.8422 19.3703 24.6749C17.4563 27.854 13.539 28.2219 10.9957 26.8473Z" fill="#929498"/>
</g>
<defs>
<clipPath id="clip0_365_2">
<rect width="193" height="27.6024" fill="white" transform="translate(0.5)"/>
</clipPath>
</defs>
</svg>
