<svg width="30" height="30" viewBox="0 0 30 30" fill="none" xmlns="http://www.w3.org/2000/svg">
<path fill-rule="evenodd" clip-rule="evenodd" d="M7.25864 13.5964C6.96182 14.3477 6.875 14.8626 6.875 15C6.875 15.175 7.00511 15.8665 7.4306 16.81C7.84047 17.7189 8.48203 18.7638 9.40496 19.665C9.77542 20.0267 9.7825 20.6203 9.42077 20.9907C9.05905 21.3612 8.4655 21.3682 8.09504 21.0065C6.97058 19.9086 6.20589 18.6552 5.72136 17.5808C5.25245 16.541 5 15.5643 5 15C5 14.5124 5.18662 13.7382 5.51479 12.9075C5.85535 12.0455 6.38582 11.0267 7.15234 10.0472C8.69777 8.07249 11.217 6.25 15 6.25C17.4531 6.25 19.3911 7.01866 20.8771 8.1174C21.2934 8.42522 21.3814 9.01226 21.0736 9.42859C20.7658 9.84492 20.1787 9.93287 19.7624 9.62505C18.5842 8.75389 17.0337 8.125 15 8.125C11.908 8.125 9.89598 9.58376 8.62891 11.2028C7.98918 12.0202 7.54308 12.8764 7.25864 13.5964ZM23.4525 11.5783C23.7439 11.6326 23.9925 11.8215 24.1229 12.0878C24.4211 12.6969 24.636 13.2701 24.7778 13.7558C24.9138 14.2214 25 14.6652 25 15C25 15.4876 24.8134 16.2618 24.4852 17.0925C24.1446 17.9545 23.6142 18.9733 22.8477 19.9528C21.3022 21.9275 18.783 23.75 15 23.75C14.0055 23.75 13.0917 23.6237 12.255 23.3972C11.926 23.3081 11.6712 23.0474 11.5897 22.7165C11.5082 22.3855 11.6127 22.0364 11.8627 21.8047L22.6436 11.8124C22.861 11.6109 23.161 11.5241 23.4525 11.5783ZM14.5561 21.8648C14.7013 21.8715 14.8493 21.875 15 21.875C18.092 21.875 20.104 20.4162 21.3711 18.7972C22.0108 17.9798 22.4569 17.1236 22.7414 16.4036C23.0382 15.6523 23.125 15.1374 23.125 15C23.125 14.9279 23.0954 14.6834 22.978 14.2815C22.9617 14.2256 22.944 14.1678 22.9249 14.1082L14.5561 21.8648Z" fill="#838383"/>
<path fill-rule="evenodd" clip-rule="evenodd" d="M24.7254 5.27459C25.0915 5.6407 25.0915 6.2343 24.7254 6.60041L6.60041 24.7254C6.2343 25.0915 5.6407 25.0915 5.27459 24.7254C4.90847 24.3593 4.90847 23.7657 5.27459 23.3996L23.3996 5.27459C23.7657 4.90847 24.3593 4.90847 24.7254 5.27459Z" fill="#838383"/>
<path fill-rule="evenodd" clip-rule="evenodd" d="M16.3258 13.6742C15.5936 12.9419 14.4064 12.9419 13.6742 13.6742C13.6742 13.6742 13.6742 13.6742 13.6742 13.6742M13.6742 13.6742C12.9419 14.4065 12.9419 15.5936 13.6742 16.3259C14.0403 16.692 14.0403 17.2856 13.6742 17.6517C13.308 18.0178 12.7144 18.0178 12.3483 17.6517C10.8839 16.1872 10.8839 13.8129 12.3483 12.3484L12.3483 12.3484C13.8128 10.8839 16.1872 10.8839 17.6517 12.3484C18.0178 12.7145 18.0178 13.3081 17.6517 13.6742C17.2855 14.0403 16.692 14.0403 16.3258 13.6742" fill="#838383"/>
</svg>
