<svg width="34" height="34" viewBox="0 0 34 34" fill="none" xmlns="http://www.w3.org/2000/svg">
<path d="M17 25.8542C21.9583 25.8542 27.2708 23.375 27.2708 17C27.2708 10.625 21.9583 8.14587 17 8.14587C12.0416 8.14587 6.72913 10.625 6.72913 17C6.72913 18.4589 7.00735 19.7138 7.49587 20.7815C7.80038 21.4472 7.97119 22.1812 7.83631 22.9006L7.46486 24.8817C7.28126 25.8609 8.13909 26.7188 9.11835 26.5352L13.6621 25.6832C14.0193 25.6162 14.3855 25.622 14.7443 25.679C15.4912 25.7974 16.2497 25.8542 17 25.8542Z" stroke="black" stroke-width="2" stroke-linecap="round" stroke-linejoin="round"/>
<path d="M13.4583 17C13.4583 17.3911 13.1412 17.7083 12.75 17.7083C12.3588 17.7083 12.0416 17.3911 12.0416 17C12.0416 16.6088 12.3588 16.2916 12.75 16.2916C13.1412 16.2916 13.4583 16.6088 13.4583 17Z" fill="black" stroke="black" stroke-linecap="round" stroke-linejoin="round"/>
<path d="M17.7083 17C17.7083 17.3911 17.3911 17.7083 17 17.7083C16.6088 17.7083 16.2916 17.3911 16.2916 17C16.2916 16.6088 16.6088 16.2916 17 16.2916C17.3911 16.2916 17.7083 16.6088 17.7083 17Z" fill="black" stroke="black" stroke-linecap="round" stroke-linejoin="round"/>
<path d="M21.9583 17C21.9583 17.3911 21.6411 17.7083 21.25 17.7083C20.8588 17.7083 20.5416 17.3911 20.5416 17C20.5416 16.6088 20.8588 16.2916 21.25 16.2916C21.6411 16.2916 21.9583 16.6088 21.9583 17Z" fill="black" stroke="black" stroke-linecap="round" stroke-linejoin="round"/>
</svg>
