<svg width="20" height="20" viewBox="0 0 20 20" fill="none" xmlns="http://www.w3.org/2000/svg">
<path d="M6.1479 9.21805L6.14026 9.21841L6.13262 9.21888C4.56572 9.31629 3.42493 10.3053 3.08224 10.648C1.95478 11.7755 1.66184 13.1006 1.80776 14.2641C1.94769 15.3799 2.4892 16.3593 3.06589 16.936C3.60916 17.4792 4.60216 18.0326 5.72131 18.1919C6.89405 18.3588 8.26862 18.0958 9.38133 16.891C9.41325 16.8564 9.44685 16.8205 9.48173 16.7833C9.72923 16.5188 10.0414 16.1853 10.2798 15.7662C10.573 15.2508 10.7391 14.6526 10.7833 13.8631L10.7834 13.8631L10.7838 13.854C10.7985 13.5391 10.8058 13.272 10.8122 13.0371C10.8245 12.5887 10.8335 12.2574 10.8852 11.9336C10.9485 11.5365 11.0661 11.2651 11.3514 10.9798C11.6368 10.6944 11.9082 10.5769 12.3053 10.5135C12.629 10.4619 12.9603 10.4528 13.4088 10.4406C13.6437 10.4342 13.9107 10.4269 14.2256 10.4121L14.2256 10.4122L14.2347 10.4117C15.9131 10.3177 16.9814 9.43277 17.3617 9.05255C18.5016 7.91261 18.7537 6.58283 18.5592 5.42403C18.3735 4.31802 17.7875 3.37333 17.2361 2.82193C16.7173 2.30309 15.7617 1.70874 14.6537 1.50816C13.5173 1.30246 12.1827 1.5127 11.076 2.65076C10.753 2.88566 10.4347 3.26058 10.1835 3.70335C9.88502 4.22925 9.6409 4.91917 9.59132 5.74738C9.56116 6.0713 9.54239 6.37476 9.52583 6.64251C9.52188 6.70629 9.51806 6.76804 9.51424 6.82756C9.49338 7.15275 9.47255 7.41177 9.43555 7.64375C9.36925 8.05937 9.25554 8.36332 8.99504 8.67697C8.71945 8.94313 8.45279 9.05534 8.0682 9.11668C7.74448 9.16832 7.41316 9.17737 6.9647 9.18961C6.72981 9.19602 6.46279 9.20331 6.1479 9.21805Z" stroke-width="2"/>
</svg>
