<svg width="24" height="24" viewBox="0 0 24 24" fill="none" xmlns="http://www.w3.org/2000/svg">
<path d="M4.61329 18.853L4.6135 18.8532C6.09315 20.3627 8.90159 20.831 10.8738 18.7765L10.8739 18.7764C12.0795 17.5201 12.1544 16.0064 12.1856 14.9081C12.1878 14.8294 12.1898 14.7535 12.1917 14.68C12.2042 14.201 12.2139 13.8267 12.2745 13.4828C12.339 13.1161 12.4482 12.8822 12.6177 12.7057L12.6189 12.7044L12.6522 12.6696C12.6524 12.6694 12.6526 12.6692 12.6528 12.669C12.8195 12.4958 13.0358 12.3869 13.3766 12.3195C13.7025 12.255 14.0578 12.2414 14.5228 12.2237C14.5943 12.2209 14.6684 12.2181 14.7454 12.215C15.8189 12.1713 17.3082 12.0755 18.5236 10.8099C20.4739 8.77902 20.0024 5.94082 18.5349 4.44287C17.0558 2.93305 14.2462 2.46628 12.2745 4.51928L12.2743 4.51953C11.0687 5.77579 10.9938 7.28946 10.9626 8.38783C10.9604 8.46649 10.9584 8.54242 10.9565 8.61588C10.944 9.0949 10.9343 9.46917 10.8737 9.81308C10.8092 10.1798 10.7 10.4137 10.5305 10.5902L10.5293 10.5915L10.496 10.6263C10.4958 10.6264 10.4957 10.6266 10.4955 10.6268C10.3288 10.8001 10.1125 10.909 9.77164 10.9764C9.44571 11.0409 9.09041 11.0545 8.6254 11.0722C8.5539 11.075 8.47981 11.0778 8.40284 11.0809C7.32929 11.1246 5.83994 11.2204 4.6246 12.486C2.67425 14.5169 3.14577 17.3551 4.61329 18.853Z" stroke="#383942" stroke-width="2"/>
</svg>
