<svg width="45" height="19" viewBox="0 0 45 19" fill="none" xmlns="http://www.w3.org/2000/svg">
<line x1="0.5" y1="9.25" x2="44.5" y2="9.25" stroke="#2757FF" stroke-width="1.5"/>
<circle cx="21.5" cy="9.5" r="8.25" fill="#F7F8FC" stroke="#2757FF" stroke-width="1.5"/>
<path fill-rule="evenodd" clip-rule="evenodd" d="M26.5554 9.50008C26.5554 9.9189 26.2159 10.2584 25.7971 10.2584H17.2027C16.7839 10.2584 16.4443 9.9189 16.4443 9.50008C16.4443 9.08127 16.7839 8.74175 17.2027 8.74175L25.7971 8.74175C26.2159 8.74175 26.5554 9.08127 26.5554 9.50008Z" fill="#2757FF"/>
<path fill-rule="evenodd" clip-rule="evenodd" d="M21.4995 4.44434C21.9184 4.44434 22.2579 4.78385 22.2579 5.20267L22.2579 13.7971C22.2579 14.2159 21.9184 14.5554 21.4995 14.5554C21.0807 14.5554 20.7412 14.2159 20.7412 13.7971L20.7412 5.20267C20.7412 4.78385 21.0807 4.44434 21.4995 4.44434Z" fill="#2757FF"/>
</svg>
