<svg width="32" height="32" viewBox="0 0 32 32" fill="none" xmlns="http://www.w3.org/2000/svg">
<path d="M17.6979 6.30993C17.5943 5.55919 16.9527 5 16.195 5H15.805C15.0473 5 14.4057 5.55919 14.3021 6.30993L14.1699 7.26844C14.0855 7.87995 13.6336 8.36671 13.0599 8.59468C12.9746 8.62857 12.89 8.6639 12.8062 8.70063C12.2405 8.94847 11.5763 8.92723 11.0823 8.5567L10.6156 8.2067C10.0116 7.75367 9.1663 7.81374 8.6324 8.34764L8.34766 8.6324C7.81375 9.1663 7.75367 10.0115 8.2067 10.6156L8.5567 11.0823C8.92724 11.5763 8.94847 12.2405 8.70063 12.8062C8.6639 12.89 8.62857 12.9746 8.59468 13.0599C8.36671 13.6336 7.87995 14.0855 7.26844 14.1699L6.30993 14.3021C5.55919 14.4057 5 15.0472 5 15.805V16.195C5 16.9527 5.55919 17.5943 6.30993 17.6979L7.26844 17.8301C7.87995 17.9145 8.36671 18.3664 8.59468 18.9401C8.62857 19.0254 8.6639 19.11 8.70063 19.1938C8.94847 19.7594 8.92723 20.4237 8.5567 20.9177L8.2067 21.3844C7.75367 21.9884 7.81374 22.8337 8.34764 23.3676L8.6324 23.6524C9.1663 24.1863 10.0115 24.2464 10.6156 23.7933L11.0823 23.4433C11.5763 23.0728 12.2405 23.0515 12.8061 23.2994C12.89 23.3362 12.9746 23.3714 13.0599 23.4054C13.6336 23.6332 14.0855 24.1201 14.1699 24.7316L14.3021 25.69C14.4057 26.4407 15.0473 27 15.805 27H16.195C16.9527 27 17.5943 26.4407 17.6979 25.69L17.8301 24.7316C17.9145 24.1201 18.3664 23.6332 18.9401 23.4054C19.0254 23.3714 19.11 23.3362 19.1938 23.2993C19.7594 23.0515 20.4237 23.0728 20.9177 23.4433L21.3844 23.7933C21.9884 24.2464 22.8337 24.1863 23.3676 23.6524L23.6524 23.3676C24.1863 22.8337 24.2464 21.9884 23.7933 21.3844L23.4433 20.9177C23.0728 20.4237 23.0515 19.7594 23.2994 19.1938C23.3362 19.11 23.3714 19.0254 23.4054 18.9401C23.6332 18.3664 24.1201 17.9145 24.7316 17.8301L25.69 17.6979C26.4407 17.5943 27 16.9527 27 16.195V15.805C27 15.0473 26.4407 14.4057 25.69 14.3021L24.7316 14.1699C24.1201 14.0855 23.6332 13.6336 23.4054 13.0599C23.3714 12.9746 23.3362 12.89 23.2993 12.8061C23.0515 12.2405 23.0728 11.5763 23.4433 11.0822L23.7933 10.6156C24.2464 10.0116 24.1863 9.16633 23.6524 8.63243L23.3676 8.34767C22.8337 7.81377 21.9884 7.7537 21.3844 8.20674L20.9177 8.5567C20.4237 8.92724 19.7594 8.94847 19.1938 8.70063C19.11 8.6639 19.0254 8.62857 18.9401 8.59468C18.3664 8.36671 17.9145 7.87995 17.8301 7.26844L17.6979 6.30993Z"  stroke-width="2" stroke-linecap="round" stroke-linejoin="round"/>
<path d="M18 16C18 17.1046 17.1046 18 16 18C14.8954 18 14 17.1046 14 16C14 14.8954 14.8954 14 16 14C17.1046 14 18 14.8954 18 16Z"  stroke-width="2" stroke-linecap="round" stroke-linejoin="round"/>
</svg>
