<svg width="30" height="30" viewBox="0 0 30 30" fill="none" xmlns="http://www.w3.org/2000/svg">
<path d="M24.0625 12.5C24.0625 15.9111 22.3125 19.0625 20.625 19.0625C18.9375 19.0625 17.1875 15.9111 17.1875 12.5C17.1875 9.08882 18.9375 5.9375 20.625 5.9375C22.3125 5.9375 24.0625 9.08882 24.0625 12.5Z" stroke="#2757FF" stroke-width="1.5"/>
<path d="M20.625 19.0625C20.625 19.0625 10 16.875 8.75 16.5625C7.5 16.25 5.9375 14.6116 5.9375 12.5C5.9375 10.3883 7.5 8.75 8.75 8.4375C10 8.125 20.625 5.9375 20.625 5.9375" stroke="#2757FF" stroke-width="1.5"/>
<path d="M8.4375 16.875V21.5625C8.4375 22.9432 9.55679 24.0625 10.9375 24.0625H11.5625C12.9432 24.0625 14.0625 22.9432 14.0625 21.5625V18.125" stroke="#2757FF" stroke-width="1.5"/>
</svg>
