<svg width="24" height="24" viewBox="0 0 24 24" fill="none" xmlns="http://www.w3.org/2000/svg">
<path d="M13.6979 2.30993C13.5943 1.55919 12.9527 1 12.195 1H11.805C11.0473 1 10.4057 1.55919 10.3021 2.30993L10.1699 3.26844C10.0855 3.87995 9.63356 4.36671 9.05989 4.59468C8.97462 4.62857 8.88997 4.6639 8.80616 4.70063C8.24053 4.94847 7.5763 4.92723 7.08226 4.5567L6.6156 4.2067C6.01155 3.75367 5.1663 3.81374 4.6324 4.34764L4.34766 4.6324C3.81375 5.1663 3.75367 6.01154 4.2067 6.61558L4.5567 7.08226C4.92724 7.57629 4.94847 8.24052 4.70063 8.80616C4.6639 8.88997 4.62857 8.97462 4.59468 9.05989C4.36671 9.63356 3.87995 10.0855 3.26844 10.1699L2.30993 10.3021C1.55919 10.4057 1 11.0472 1 11.805V12.195C1 12.9527 1.55919 13.5943 2.30993 13.6979L3.26844 13.8301C3.87995 13.9145 4.36671 14.3664 4.59468 14.9401C4.62857 15.0254 4.6639 15.11 4.70063 15.1938C4.94847 15.7594 4.92723 16.4237 4.5567 16.9177L4.2067 17.3844C3.75367 17.9884 3.81374 18.8337 4.34764 19.3676L4.6324 19.6524C5.1663 20.1863 6.01154 20.2464 6.61558 19.7933L7.08226 19.4433C7.57629 19.0728 8.24052 19.0515 8.80615 19.2994C8.88997 19.3362 8.97462 19.3714 9.05989 19.4054C9.63356 19.6332 10.0855 20.1201 10.1699 20.7316L10.3021 21.69C10.4057 22.4407 11.0473 23 11.805 23H12.195C12.9527 23 13.5943 22.4407 13.6979 21.69L13.8301 20.7316C13.9145 20.1201 14.3664 19.6332 14.9401 19.4054C15.0254 19.3714 15.11 19.3362 15.1938 19.2993C15.7594 19.0515 16.4237 19.0728 16.9177 19.4433L17.3844 19.7933C17.9884 20.2464 18.8337 20.1863 19.3676 19.6524L19.6524 19.3676C20.1863 18.8337 20.2464 17.9884 19.7933 17.3844L19.4433 16.9177C19.0728 16.4237 19.0515 15.7594 19.2994 15.1938C19.3362 15.11 19.3714 15.0254 19.4054 14.9401C19.6332 14.3664 20.1201 13.9145 20.7316 13.8301L21.69 13.6979C22.4407 13.5943 23 12.9527 23 12.195V11.805C23 11.0473 22.4407 10.4057 21.69 10.3021L20.7316 10.1699C20.1201 10.0855 19.6332 9.63356 19.4054 9.05989C19.3714 8.97462 19.3362 8.88997 19.2993 8.80615C19.0515 8.24052 19.0728 7.57629 19.4433 7.08224L19.7933 6.61561C20.2464 6.01157 20.1863 5.16633 19.6524 4.63243L19.3676 4.34767C18.8337 3.81377 17.9884 3.7537 17.3844 4.20674L16.9177 4.5567C16.4237 4.92724 15.7594 4.94847 15.1938 4.70063C15.11 4.6639 15.0254 4.62857 14.9401 4.59468C14.3664 4.36671 13.9145 3.87995 13.8301 3.26844L13.6979 2.30993Z" stroke="#383942" stroke-width="2" stroke-linecap="round" stroke-linejoin="round"/>
</svg>
