<svg width="16" height="12" viewBox="0 0 16 12" fill="none" xmlns="http://www.w3.org/2000/svg">
<path d="M11.1141 3.35688C10.7589 3.56999 10.6438 4.0307 10.8569 4.3859C11.07 4.7411 11.5307 4.8562 11.8859 4.6431L11.1141 3.35688ZM15.25 1.75H16C16 1.4798 15.8547 1.23048 15.6195 1.09735C15.3844 0.96422 15.0958 0.96786 14.8641 1.10688L15.25 1.75ZM15.25 10.25L14.8641 10.8931C15.0958 11.0321 15.3844 11.0358 15.6195 10.9026C15.8547 10.7695 16 10.5202 16 10.25H15.25ZM11.8859 7.3569C11.5307 7.1438 11.07 7.2589 10.8569 7.6141C10.6438 7.9693 10.7589 8.43 11.1141 8.6431L11.8859 7.3569ZM11.8859 4.6431L15.6359 2.39312L14.8641 1.10688L11.1141 3.35688L11.8859 4.6431ZM14.5 1.75V10.25H16V1.75H14.5ZM15.6359 9.6069L11.8859 7.3569L11.1141 8.6431L14.8641 10.8931L15.6359 9.6069ZM2.75 1.5H9.25V0H2.75V1.5ZM10.5 2.75V9.25H12V2.75H10.5ZM9.25 10.5H2.75V12H9.25V10.5ZM1.5 9.25V2.75H0V9.25H1.5ZM2.75 10.5C2.05964 10.5 1.5 9.9404 1.5 9.25H0C0 10.7688 1.23122 12 2.75 12V10.5ZM10.5 9.25C10.5 9.9404 9.9404 10.5 9.25 10.5V12C10.7688 12 12 10.7688 12 9.25H10.5ZM9.25 1.5C9.9404 1.5 10.5 2.05964 10.5 2.75H12C12 1.23122 10.7688 0 9.25 0V1.5ZM2.75 0C1.23122 0 0 1.23122 0 2.75H1.5C1.5 2.05964 2.05964 1.5 2.75 1.5V0Z" fill="white"/>
</svg>
