<svg width="255" height="169" fill="none" xmlns="http://www.w3.org/2000/svg"><path d="M.5 15C.5 6.992 6.992.5 15 .5h225c8.008 0 14.5 6.492 14.5 14.5v153.5H.5V15z" fill="#fff" stroke="#DCDCDC"/><g clip-path="url(#clip0_701_1939)" fill="#C2D6DF"><path d="M129.687 110.535c-3.336 0-6.489-.562-9.641-1.873L75.921 91.811v27.711c0 3.558 2.04 6.74 5.376 8.05l40.973 16.291c4.82 1.873 10.011 1.873 14.833 0l40.973-16.289c3.337-1.312 5.376-4.494 5.376-8.051l-.001-27.712-44.126 17.039c-3.15 1.123-6.303 1.685-9.639 1.685h.001z"/><path d="M215.156 60.168L135.434 29.46c-3.707-1.498-7.786-1.498-11.309 0L44.403 60.168c-3.523 1.311-3.523 6.365 0 7.677l79.722 30.707c3.708 1.498 7.787 1.498 11.309 0l65.817-25.278v18.537c-2.966 1.497-4.82 4.306-4.82 7.862 0 3.37 1.855 6.366 4.635 7.864l-4.264 9.362c-.927 2.06.557 4.306 2.596 4.306l11.864.002c2.225 0 3.523-2.247 2.596-4.306l-4.264-9.362c2.78-1.498 4.635-4.494 4.635-7.864s-1.855-6.366-4.635-7.864V70.09l5.562-2.06c3.523-1.498 3.523-6.554 0-7.864z"/></g><defs><clipPath id="clip0_701_1939"><path fill="#fff" transform="translate(38 24)" d="M0 0h180v121H0z"/></clipPath></defs></svg>