<svg width="134" height="133" viewBox="0 0 134 133" fill="none" xmlns="http://www.w3.org/2000/svg">
<path d="M82.4557 77.1242C82.4557 73.8178 84.4192 70.9276 86.7252 70.9276C89.0301 70.9276 90.9946 73.8027 90.9946 77.1242C90.9946 80.4457 89.0311 83.3208 86.7252 83.3208C84.4192 83.3208 82.4557 80.4305 82.4557 77.1242ZM47.3492 61.7558C49.5837 61.7558 51.6187 58.8807 51.6187 55.5592C51.6187 52.2376 49.6552 49.3626 47.3492 49.3626C45.0443 49.3626 43.0798 52.2376 43.0798 55.5592C43.0798 58.8807 45.1147 61.7558 47.3492 61.7558ZM2.96485 59.5555L5.54085 57.2701C6.91965 56.0476 7.88352 54.4181 8.29448 52.6118C8.70644 50.8057 8.54364 48.9144 7.83191 47.2064L6.50872 44.0004C5.54286 41.6678 5.61236 39.0294 6.70129 36.7538C7.79024 34.4774 9.79239 32.7815 12.2007 32.0965L15.5162 31.1619C17.2573 30.6625 18.8009 29.6286 19.9355 28.2044C21.0702 26.7803 21.7382 25.0354 21.8494 23.2114L22.034 19.7466C22.1541 17.4932 23.1239 15.3722 24.7429 13.8188C26.3629 12.2654 28.5099 11.3979 30.7434 11.3939C31.2635 11.3959 31.7827 11.4431 32.2939 11.5373L35.6808 12.1551V12.1561C37.4815 12.48 39.3358 12.2253 40.9855 11.429C42.6343 10.6317 43.9943 9.33207 44.8748 7.71341L46.5107 4.60754C47.7178 2.38123 49.8163 0.788735 52.2701 0.238057C54.7229 -0.312492 57.292 0.23204 59.3188 1.73228L62.1647 3.75901C63.6497 4.83605 65.4314 5.41468 67.259 5.41468C69.0865 5.41468 70.8682 4.83605 72.3533 3.75901L75.1992 1.74632H75.2002C77.2411 0.259109 79.818 -0.267385 82.2708 0.302239C84.7236 0.871863 86.8152 2.48341 88.0072 4.72281L89.6441 7.7704C90.3926 9.17036 91.5024 10.3397 92.8554 11.1541C94.2074 11.9694 95.7529 12.3996 97.3284 12.3996C97.8059 12.3966 98.2814 12.3535 98.7519 12.2702L102.011 11.7096C102.508 11.6234 103.013 11.5803 103.519 11.5803C105.761 11.5853 107.916 12.4608 109.538 14.0272C111.159 15.5926 112.122 17.7276 112.228 19.9909L112.385 23.4557C112.472 25.2999 113.131 27.0699 114.266 28.5171C115.403 29.9641 116.959 31.0141 118.717 31.5205L122.019 32.4692C124.435 33.1531 126.443 34.8539 127.532 37.1375C128.622 39.4209 128.686 42.0674 127.711 44.4021L126.372 47.5942H126.373C125.656 49.298 125.487 51.1863 125.891 52.9924C126.294 54.7985 127.25 56.4302 128.622 57.6576L131.183 59.9581C133.059 61.6338 134.133 64.0416 134.133 66.5709C134.133 69.101 133.059 71.5087 131.183 73.1847L128.607 75.4701H128.608C127.228 76.6926 126.264 78.3221 125.853 80.1284C125.442 81.9345 125.604 83.8258 126.316 85.5348L127.639 88.7408L127.64 88.7398C128.606 91.0724 128.535 93.7108 127.446 95.9872C126.358 98.2636 124.356 99.9585 121.947 100.644L118.631 101.579C116.873 102.049 115.304 103.063 114.144 104.478C112.983 105.893 112.288 107.638 112.156 109.471L111.972 112.936C111.852 115.189 110.882 117.31 109.263 118.864C107.643 120.417 105.496 121.285 103.262 121.289C102.742 121.287 102.223 121.24 101.712 121.145L98.31 120.599C96.5103 120.273 94.654 120.526 93.0053 121.323C91.3555 122.12 89.9955 123.421 89.117 125.041L87.495 128.075C86.2879 130.301 84.1894 131.894 81.7357 132.444C79.2828 132.995 76.7138 132.45 74.6869 130.95L71.841 128.923C70.356 127.846 68.5744 127.268 66.7467 127.268C64.9193 127.268 63.1375 127.846 61.6524 128.923L58.8065 130.936H58.8055C56.7667 132.428 54.1877 132.958 51.7329 132.387C49.2781 131.817 47.1875 130.203 45.9985 127.96L44.3616 124.912C43.492 123.287 42.14 121.98 40.4962 121.173C38.8524 120.365 36.999 120.099 35.1973 120.412L31.9949 120.973C31.4976 121.059 30.9923 121.102 30.4871 121.102C28.2447 121.097 26.0896 120.222 24.4675 118.655C22.8465 117.09 21.8836 114.955 21.7774 112.692L21.6067 109.227C21.5193 107.383 20.8612 105.613 19.7246 104.166C18.589 102.718 17.0325 101.668 15.2745 101.162L11.973 100.213C9.55688 99.5295 7.54878 97.8287 6.45887 95.5451C5.36992 93.2617 5.30441 90.6152 6.28019 88.2805L7.61828 85.0884C8.33497 83.3846 8.50373 81.4963 8.1007 79.6902C7.6967 77.8841 6.74175 76.2524 5.36994 75.025L2.80893 72.7245H2.80794C0.971524 71.0277 -0.0618224 68.6189 -0.0320905 66.1048C-0.00231032 63.5897 1.08761 61.208 2.96473 59.5552L2.96485 59.5555ZM73.3913 77.1244C73.3913 85.5922 79.3392 92.4928 86.654 92.4928C93.9688 92.4928 99.9167 85.6063 99.9167 77.1244C99.9167 68.6424 94.0392 61.7559 86.654 61.7559C79.2688 61.7559 73.3913 68.6565 73.3913 77.1244ZM49.925 87.8065C49.1636 88.8695 48.8886 90.2113 49.1715 91.4918C49.4535 92.7724 50.2655 93.8705 51.402 94.5063C52.5376 95.1421 53.8896 95.2564 55.1144 94.8192C56.3394 94.3819 57.3201 93.4352 57.8086 92.2198L84.0794 44.8769C84.8408 43.8139 85.1157 42.4721 84.8328 41.1916C84.5509 39.911 83.7389 38.8129 82.6023 38.1771C81.4667 37.5413 80.1147 37.427 78.8899 37.8642C77.665 38.3015 76.6842 39.2481 76.1957 40.4636L49.925 87.8065ZM34.0713 55.5591C34.0713 64.0269 40.0192 70.9275 47.334 70.9275C54.6488 70.9275 60.5967 64.0411 60.5967 55.5591C60.5967 47.0771 54.6488 40.1907 47.334 40.1907C40.0202 40.1907 34.0713 47.0912 34.0713 55.5591Z" fill="#D3DCEB"/>
</svg>
