<svg width="64" height="65" viewBox="0 0 64 65" fill="none" xmlns="http://www.w3.org/2000/svg">
<g clip-path="url(#clip0)">
<path d="M31.3281 32.4287L30.4119 32.4378L7.21703 32.6677C7.17893 40.8918 11.6791 48.8406 19.5196 52.8354C30.6131 58.4836 44.1812 54.0683 49.8284 42.972C55.4751 31.8766 51.052 18.3051 39.9585 12.656L31.3281 32.4287ZM31.3281 32.4287L31.399 31.5152M31.3281 32.4287L31.399 31.5152M31.399 31.5152L33.0345 10.4393M31.399 31.5152L33.0345 10.4393M33.0345 10.4393C35.3772 10.7846 37.7168 11.5183 39.9574 12.6554L33.0345 10.4393Z" stroke="#0A2B75" stroke-width="2"/>
<path d="M1.47266 29.0224L1.51257 27.9743C1.65228 24.4808 2.54043 21.1071 4.1371 17.9529C8.70756 8.98957 18.4872 3.64948 28.4963 4.65761L29.4642 4.75742L27.5981 28.7629L1.47266 29.0224Z" fill="#073FCE"/>
<path d="M1.23327 57.5393C0.963828 57.5393 0.70437 57.4295 0.504786 57.2299C0.125577 56.8306 0.145536 56.1918 0.544703 55.8225L20.7525 36.8277L31.0411 44.7031L61.9566 11.3749C62.3358 10.9657 62.9645 10.9457 63.3636 11.325C63.7728 11.7043 63.7927 12.3332 63.4135 12.7324L31.2706 47.3781L20.8823 39.4329L1.91185 57.2698C1.72225 57.4495 1.47277 57.5393 1.23327 57.5393Z" fill="#0A2B75"/>
<path d="M62.6846 21.7655C62.1357 21.7655 61.6866 21.3164 61.6866 20.7674V13.0417H53.9628C53.4139 13.0417 52.9648 12.5925 52.9648 12.0436C52.9648 11.4946 53.4139 11.0454 53.9628 11.0454H63.6825V20.7674C63.6825 21.3164 63.2334 21.7655 62.6846 21.7655Z" fill="#0A2B75"/>
</g>
<defs>
<clipPath id="clip0">
<path d="M0.0253906 0.205566H63.8921V64.087H0.0253906V0.205566Z" fill="white"/>
</clipPath>
</defs>
</svg>
