<svg width="64" height="65" viewBox="0 0 64 65" fill="none" xmlns="http://www.w3.org/2000/svg">
<path d="M28.0332 51.3229C26.7359 51.3229 25.4586 50.7938 24.5405 49.8755L10.7692 36.0912C9.84118 35.1429 9.32227 33.9052 9.32227 32.5976C9.32227 31.2801 9.84118 30.0324 10.7792 29.0941L28.4822 11.397C29.4303 10.4687 30.6677 9.94971 31.975 9.94971H46.6842C48.8896 9.94971 50.6859 11.7464 50.6859 13.9523V28.6649C50.6859 29.9925 50.167 31.2302 49.2289 32.1585L31.5159 49.8755C30.5879 50.8038 29.3504 51.3229 28.0332 51.3229ZM31.975 11.946C31.1966 11.946 30.4581 12.2554 29.8893 12.8144L12.1863 30.5115C11.6275 31.0705 11.3181 31.8191 11.3181 32.5976C11.3181 33.3762 11.6275 34.1148 12.1863 34.6838L25.9575 48.4582C27.0552 49.5561 29.0012 49.5661 30.1089 48.4582L47.8219 30.7511C48.3807 30.1921 48.69 29.4635 48.69 28.6749V13.9523C48.69 12.8443 47.7919 11.946 46.6842 11.946H31.975ZM42.8023 21.7877C42.024 21.7877 41.2157 21.5681 40.4772 21.109C40.088 20.8694 39.7687 20.55 39.5292 20.1607C38.4814 18.4339 38.671 16.3778 40.0082 15.0403C41.3454 13.7027 43.4011 13.5131 45.1175 14.5711C45.5067 14.8007 45.836 15.1301 46.0655 15.5194C47.1133 17.2462 46.9237 19.3023 45.5965 20.6299C44.8281 21.3984 43.8402 21.7877 42.8023 21.7877ZM41.2356 19.1227C41.3055 19.2325 41.4053 19.3323 41.515 19.4021C42.6527 20.0909 43.6406 19.7615 44.1795 19.2225C44.7183 18.6835 45.0576 17.6953 44.3591 16.5574C44.2892 16.4476 44.1894 16.3478 44.0797 16.278C42.942 15.5892 41.9541 15.9186 41.4152 16.4576C40.8764 16.9966 40.5371 17.9848 41.2356 19.1227Z" fill="#0A2B75"/>
<path d="M55.4552 52.7799L49.4079 46.7312L52.0523 44.0861C52.2819 43.8565 52.3717 43.5271 52.3018 43.2077C52.232 42.8883 51.9925 42.6388 51.6931 42.539L35.8362 37.2488C35.4969 37.139 35.1277 37.2288 34.8782 37.4784C34.6287 37.7279 34.5389 38.0972 34.6487 38.4366L39.9376 54.2871C40.0374 54.5966 40.2969 54.8261 40.6062 54.906C40.9256 54.9759 41.2549 54.886 41.4844 54.6565L44.1289 52.0114L49.5176 57.4014C49.6973 57.581 49.9368 57.6709 50.1763 57.6709C50.4158 57.6709 50.6553 57.581 50.8349 57.4014L55.4552 52.7799Z" fill="#073FCE"/>
</svg>
