<?xml version="1.0"?>
<svg xmlns="http://www.w3.org/2000/svg" viewBox="0 0 64 64" width="512" height="512"><g id="Outline"><g><path d="M42,32.858a1,1,0,0,0-1,1V41a9.045,9.045,0,0,1-5.159,8.13,1,1,0,0,0-.57.97L36,61.066A1,1,0,0,0,37,62l.067,0A1,1,0,0,0,38,60.934l-.687-10.312A11.055,11.055,0,0,0,43,41V33.858A1,1,0,0,0,42,32.858Z"/><path d="M60.837,14.874a16.741,16.741,0,0,0-7.184-3.485,4.013,4.013,0,0,0-1.69-1.862,2.994,2.994,0,0,0-5.937.166,1,1,0,1,0,1.989.205A.994.994,0,0,1,50,9.977c0,.015-.012.095-.013.111a1,1,0,0,0,.667,1.034,1.95,1.95,0,0,1,1.221,2.544,1,1,0,0,0,0,.668,1.978,1.978,0,0,1-2.618,2.519,1,1,0,0,0-1.337.667A2,2,0,0,1,46,19a1,1,0,0,0-1,1,2.949,2.949,0,0,1-3.879,2.85,1,1,0,0,0-1.207.551.989.989,0,0,1-1.662.251,1.03,1.03,0,0,0-1.5,0,.981.981,0,0,1-1.613-.168,1,1,0,0,0-.96-.506c-.015,0-.122.02-.137.022l-.167-.017a.981.981,0,0,0-.994.67,1.983,1.983,0,0,1-3.68.193,1,1,0,0,0-1.479-.393,3.015,3.015,0,0,1-3.965-.491,1.034,1.034,0,0,0-1.506,0A2.955,2.955,0,0,1,20,24a3.006,3.006,0,0,1-2.723-1.761,1,1,0,0,0-1.369-.472A2,2,0,0,1,13,20a1,1,0,0,0-2,0,4,4,0,0,0,4,4,3.814,3.814,0,0,0,.927-.114A5.009,5.009,0,0,0,20,26a4.957,4.957,0,0,0,3-1.019,5.045,5.045,0,0,0,4.967.613,3.975,3.975,0,0,0,6.229-.205,3.053,3.053,0,0,0,3.3.2,3.08,3.08,0,0,0,3.785-.652A4.423,4.423,0,0,0,42,25a5.007,5.007,0,0,0,4.92-4.108,4.013,4.013,0,0,0,2.552-1.928A3.882,3.882,0,0,0,50,19a3.97,3.97,0,0,0,2.652-1.028l.562-.026a.982.982,0,0,0,.451-.131,1.222,1.222,0,0,1,1.572.3l1.009,1.261a3.209,3.209,0,0,0,2.521,1.212h.052a3.231,3.231,0,0,0,2.018-5.714ZM59.753,18.1a1.231,1.231,0,0,1-1.946.03L56.8,16.865a3.215,3.215,0,0,0-2.866-1.2A3.992,3.992,0,0,0,54,15a3.781,3.781,0,0,0-.137-1,3.84,3.84,0,0,0,.094-.458,14.7,14.7,0,0,1,5.6,2.868A1.232,1.232,0,0,1,59.753,18.1Z"/><path d="M56.942,21.244A36.033,36.033,0,0,0,53.4,19.472a1,1,0,0,0-.8,1.836A34.012,34.012,0,0,1,55.95,22.98,2.09,2.09,0,0,1,57,24.79a.569.569,0,0,1-.236.469.576.576,0,0,1-.515.087,37.837,37.837,0,0,0-8.757-1.6,1.007,1.007,0,0,0-.875.414A1.977,1.977,0,0,1,45,25a1,1,0,0,0-1,1,2.984,2.984,0,0,1-5.322,1.871,1,1,0,0,0-1.257-.25,2.933,2.933,0,0,1-3.668-.659,1.034,1.034,0,0,0-1.506,0l-.073.086c-.03.035-.058.071-.091.1a1,1,0,0,0-.233,1.1,1.991,1.991,0,0,1,.012,1.487,1.95,1.95,0,0,1-1.3,1.191,2.01,2.01,0,0,1-2.362-1.08,1,1,0,0,0-1.479-.393,3.016,3.016,0,0,1-3.965-.491,1.034,1.034,0,0,0-1.506,0A2.955,2.955,0,0,1,19,30a3.006,3.006,0,0,1-2.723-1.761,1,1,0,0,0-1.369-.472A1.962,1.962,0,0,1,14,28a1,1,0,0,0,0,2,3.814,3.814,0,0,0,.927-.114A5.009,5.009,0,0,0,19,32a4.9,4.9,0,0,0,2-.444V41a11.055,11.055,0,0,0,5.689,9.622L26,60.934A1,1,0,0,0,26.934,62L27,62a1,1,0,0,0,1-.934L28.729,50.1a1,1,0,0,0-.57-.97A9.045,9.045,0,0,1,23,41V31.557a5.037,5.037,0,0,0,3.961.039A3.919,3.919,0,0,0,29,32.863V37a1,1,0,0,1-2,0V34.86a1,1,0,0,0-2,0V37a3,3,0,0,0,6,0V32.873c.023-.006.047-.007.07-.014A3.943,3.943,0,0,0,33,31.653V37a3,3,0,0,0,6,0V30.558A4.9,4.9,0,0,0,41,31a5.007,5.007,0,0,0,4.92-4.109,4.028,4.028,0,0,0,1.945-1.11,35.625,35.625,0,0,1,7.794,1.477A2.582,2.582,0,0,0,59,24.79,4.093,4.093,0,0,0,56.942,21.244ZM36,38a1,1,0,0,1-1-1V29.882a4.866,4.866,0,0,0,2-.01V37A1,1,0,0,1,36,38Z"/><path d="M11.129,25.983A.6.6,0,0,0,11,26a1.994,1.994,0,0,1-1.878-1.35,1.017,1.017,0,0,0-1.01-.671c-.064,0-.127.014-.112.021a2,2,0,0,1,0-4H9a1,1,0,0,0,0-2,2,2,0,0,1-2-2,1,1,0,0,0-1-1,1,1,0,0,1-.384-1.923,1,1,0,0,0,.538-1.308A1.995,1.995,0,1,1,9.919,10.48a1,1,0,0,0,.519.634.979.979,0,0,0,.818.033,1.939,1.939,0,0,1,1.72.123,1,1,0,0,0,1.339-.334,1.989,1.989,0,0,1,2.429-.789.986.986,0,0,0,.818-.033,1,1,0,0,0,.519-.634,1.989,1.989,0,0,1,3.568-.609,1,1,0,0,0,1.206.358,3.012,3.012,0,0,1,3.711,1.246,1,1,0,0,0,.7.474,1.008,1.008,0,0,0,.811-.223,2.938,2.938,0,0,1,4.175.312,1.034,1.034,0,0,0,1.506,0A2.938,2.938,0,0,1,35.935,10c.033.005.128.015.16.016a.977.977,0,0,0,1.011-.752,2.991,2.991,0,0,1,5.834.145A1,1,0,0,0,44.9,9.012,4.984,4.984,0,0,0,35.691,7.5,4,4,0,0,0,32.9,5.1a3.992,3.992,0,0,0-7.664-.414,1,1,0,1,0,1.889.659A1.992,1.992,0,0,1,31,6a1,1,0,0,0,1,1,2,2,0,0,1,1.921,1.474A4.982,4.982,0,0,0,33,9.019,5.025,5.025,0,0,0,27.652,8.6,5.011,5.011,0,0,0,22.8,7.146a3.986,3.986,0,0,0-6.273.89,3.97,3.97,0,0,0-3.359,1.146,3.824,3.824,0,0,0-1.7-.146,3.994,3.994,0,0,0-7.409,2.672,3,3,0,0,0,1.03,5.152,3.981,3.981,0,0,0,.846,1.712,4,4,0,0,0,1.595,7.4A3.991,3.991,0,0,0,11,28a1.436,1.436,0,0,0,.227-.019,1,1,0,0,0-.1-2Z"/><path d="M13.978,12.569a1,1,0,0,0-1.377.323A4,4,0,0,0,16,19a3.827,3.827,0,0,0,1.169-.182,4.078,4.078,0,0,0,4.452.84,3.022,3.022,0,0,0,2.879-.066,2.987,2.987,0,0,0,3.792-.655,4.012,4.012,0,0,0,3.361-.959A3,3,0,0,0,35,15a1,1,0,0,0-2,0,1,1,0,0,1-1,1,.983.983,0,0,1-.337-.066,1,1,0,0,0-1.116.313,2.012,2.012,0,0,1-2.316.6,1,1,0,0,0-1.308.538.991.991,0,0,1-1.671.268,1.03,1.03,0,0,0-1.5,0,.974.974,0,0,1-1.408.089,1,1,0,0,0-1.224-.082,2.042,2.042,0,0,1-2.8-.595,1,1,0,0,0-1.339-.334A1.96,1.96,0,0,1,16,17a2,2,0,0,1-1.7-3.054A1,1,0,0,0,13.978,12.569Z"/><path d="M45.483,13.124a1,1,0,1,1-1,1.727,1,1,0,0,0-1.072.028,1.008,1.008,0,0,0-.432.985A.872.872,0,0,1,43,16a.993.993,0,0,1-1.748.652,1.03,1.03,0,0,0-1.5,0A.993.993,0,0,1,38,16a1,1,0,0,0-2,0,2.992,2.992,0,0,0,4.5,2.592A2.99,2.99,0,0,0,44.831,17a3,3,0,0,0,1.62-5.621,1,1,0,1,0-.968,1.75Z"/><path d="M24,16a3,3,0,0,0,3-3,1,1,0,0,0-2,0,1,1,0,0,1-2,0,1,1,0,0,0-2,0A3,3,0,0,0,24,16Z"/></g></g></svg>
