<svg width="65" height="65" viewBox="0 0 65 65" fill="none" xmlns="http://www.w3.org/2000/svg">
<path d="M22.5562 40.5383C21.5783 39.4803 20.251 38.9014 18.7941 38.9014C17.7064 38.9014 16.7184 39.2407 15.8403 39.9195C15.4012 40.2588 15.002 40.6781 14.6428 41.1672C14.2935 40.6781 13.8943 40.2588 13.4453 39.9195C12.5671 39.2407 11.5792 38.9014 10.4914 38.9014C9.03448 38.9014 7.70725 39.4803 6.72929 40.5383C5.7713 41.5864 5.23242 43.0038 5.23242 44.5509C5.23242 46.1379 5.82119 47.5952 7.09852 49.1324C8.23614 50.5098 9.87272 51.8973 11.7688 53.5143C12.4174 54.0632 13.1459 54.6921 13.9143 55.3608C14.1139 55.5405 14.3733 55.6303 14.6428 55.6303C14.9122 55.6303 15.1716 55.5305 15.3712 55.3608C16.1296 54.6921 16.8681 54.0732 17.5167 53.5143C19.4128 51.8973 21.0494 50.4998 22.187 49.1324C23.4643 47.5952 24.0531 46.1379 24.0531 44.5509C24.0431 43.0137 23.5142 41.5864 22.5562 40.5383Z" fill="#073FCE"/>
<path d="M36.4675 43.034C37.3157 43.9922 37.7348 45.3697 37.7348 47.1564C37.7348 48.414 37.5053 49.482 37.0463 50.3704C36.5872 51.2588 35.9486 51.9375 35.1203 52.3966C34.292 52.8558 33.344 53.0953 32.2563 53.0953C31.6775 53.0953 31.1386 53.0355 30.6397 52.9157C30.1407 52.7959 29.6916 52.6162 29.3224 52.3767L30.0908 50.8096C30.6397 51.1689 31.3482 51.3486 32.2164 51.3486C33.2941 51.3486 34.1324 51.0192 34.7411 50.3604C35.3498 49.7016 35.6492 48.7434 35.6492 47.5057V47.4858C35.3199 47.8651 34.9008 48.1545 34.3918 48.3541C33.8829 48.5538 33.3041 48.6536 32.6654 48.6536C31.927 48.6536 31.2683 48.5138 30.6896 48.2344C30.1108 47.9549 29.6517 47.5456 29.3124 47.0266C28.9731 46.5076 28.8135 45.8987 28.8135 45.22C28.8135 44.4913 28.9931 43.8625 29.3524 43.3135C29.7116 42.7645 30.2006 42.3453 30.8193 42.0458C31.438 41.7464 32.1266 41.5967 32.8949 41.5967C34.4317 41.5967 35.6193 42.0758 36.4675 43.034ZM34.7012 46.4876C35.1203 46.1283 35.3299 45.6691 35.3299 45.1102C35.3299 44.5712 35.1203 44.122 34.7112 43.7627C34.302 43.4033 33.7332 43.2237 33.0147 43.2237C32.3661 43.2237 31.8372 43.3933 31.438 43.7427C31.0388 44.0921 30.8293 44.5512 30.8293 45.1201C30.8293 45.7091 31.0288 46.1682 31.438 46.5076C31.8471 46.8469 32.386 47.0166 33.0646 47.0166C33.7332 47.0266 34.2721 46.8469 34.7012 46.4876Z" fill="#0A2B75"/>
<path d="M46.4763 43.034C47.3245 43.9922 47.7436 45.3697 47.7436 47.1564C47.7436 48.414 47.5141 49.482 47.0551 50.3704C46.596 51.2588 45.9573 51.9375 45.1291 52.3966C44.3008 52.8558 43.3528 53.0953 42.2651 53.0953C41.6863 53.0953 41.1474 53.0355 40.6484 52.9157C40.1495 52.7959 39.7004 52.6162 39.3312 52.3767L40.0996 50.8096C40.6484 51.1689 41.357 51.3486 42.2252 51.3486C43.3029 51.3486 44.1411 51.0192 44.7499 50.3604C45.3586 49.7016 45.658 48.7434 45.658 47.5057V47.4858C45.3287 47.8651 44.9095 48.1545 44.4006 48.3541C43.8917 48.5538 43.3129 48.6536 42.6742 48.6536C41.9358 48.6536 41.2771 48.5138 40.6983 48.2344C40.1196 47.9549 39.6605 47.5456 39.3212 47.0266C38.9819 46.5076 38.8223 45.8987 38.8223 45.22C38.8223 44.4913 39.0019 43.8625 39.3611 43.3135C39.7204 42.7645 40.2094 42.3453 40.8281 42.0458C41.4468 41.7464 42.1353 41.5967 42.9037 41.5967C44.4405 41.5967 45.638 42.0758 46.4763 43.034ZM44.71 46.4876C45.1291 46.1283 45.3386 45.6691 45.3386 45.1102C45.3386 44.5712 45.1291 44.122 44.7199 43.7627C44.3108 43.4033 43.742 43.2237 43.0235 43.2237C42.3748 43.2237 41.8459 43.3933 41.4468 43.7427C41.0476 44.0921 40.8381 44.5512 40.8381 45.1201C40.8381 45.7091 41.0376 46.1682 41.4468 46.5076C41.8559 46.8469 42.3948 47.0166 43.0734 47.0166C43.742 47.0266 44.2908 46.8469 44.71 46.4876Z" fill="#0A2B75"/>
<path d="M57.2038 34.3597C58.052 35.3179 58.4712 36.6954 58.4712 38.482C58.4712 39.7397 58.2416 40.8077 57.7826 41.6961C57.3236 42.5844 56.6849 43.2632 55.8566 43.7223C55.0284 44.1815 54.0803 44.421 52.9926 44.421C52.4138 44.421 51.8749 44.3611 51.376 44.2414C50.877 44.1216 50.428 43.9419 50.0587 43.7024L50.8271 42.1353C51.376 42.4946 52.0845 42.6743 52.9527 42.6743C54.0304 42.6743 54.8687 42.3449 55.4774 41.6861C56.0861 41.0273 56.3855 40.0691 56.3855 38.8314V38.8114C56.0562 39.1907 55.6371 39.4802 55.1281 39.6798C54.6192 39.8795 54.0404 39.9793 53.4018 39.9793C52.6633 39.9793 52.0047 39.8395 51.4259 39.56C50.8471 39.2806 50.3881 38.8713 50.0488 38.3523C49.7095 37.8333 49.5498 37.2244 49.5498 36.5456C49.5498 35.817 49.7294 35.1882 50.0887 34.6392C50.4479 34.0902 50.9369 33.671 51.5556 33.3715C52.1743 33.0721 52.8629 32.9224 53.6313 32.9224C55.1681 32.9224 56.3556 33.4015 57.2038 34.3597ZM55.4275 37.8133C55.8466 37.454 56.0562 36.9948 56.0562 36.4358C56.0562 35.8968 55.8466 35.4477 55.4375 35.0883C55.0284 34.729 54.4595 34.5493 53.741 34.5493C53.0924 34.5493 52.5635 34.719 52.1643 35.0684C51.7652 35.4177 51.5556 35.8769 51.5556 36.4458C51.5556 37.0347 51.7552 37.4939 52.1643 37.8333C52.5735 38.1726 53.1124 38.3423 53.7909 38.3423C54.4695 38.3523 55.0084 38.1726 55.4275 37.8133Z" fill="#0A2B75"/>
<path d="M58.4619 57.8162C58.7713 58.2654 58.9309 58.7944 58.9309 59.4032C58.9309 60.082 58.7413 60.6809 58.3621 61.1899C57.9829 61.699 57.454 62.0883 56.7555 62.3677C56.0569 62.6472 55.2586 62.777 54.3405 62.777C53.4224 62.777 52.6241 62.6372 51.9356 62.3677C51.247 62.0982 50.7181 61.709 50.3489 61.1899C49.9796 60.6809 49.79 60.082 49.79 59.4032C49.79 58.7944 49.9497 58.2654 50.2491 57.8162C50.5584 57.367 50.9975 57.0077 51.5763 56.7382C51.1272 56.4887 50.788 56.1692 50.5485 55.77C50.309 55.3707 50.1892 54.9116 50.1892 54.3925C50.1892 53.7637 50.3589 53.2147 50.7081 52.7456C51.0574 52.2765 51.5364 51.9171 52.1651 51.6576C52.7938 51.3981 53.5123 51.2783 54.3405 51.2783C55.1688 51.2783 55.8973 51.4081 56.526 51.6576C57.1546 51.9171 57.6436 52.2765 57.9929 52.7456C58.3422 53.2147 58.5218 53.7637 58.5218 54.3925C58.5218 54.9116 58.402 55.3707 58.1526 55.77C57.9031 56.1593 57.5538 56.4887 57.0948 56.7482C57.7035 56.9977 58.1526 57.357 58.4619 57.8162ZM56.1767 60.6609C56.6258 60.3415 56.8453 59.9023 56.8453 59.3334C56.8453 58.7844 56.6258 58.3452 56.1767 58.0258C55.7276 57.7064 55.1189 57.5467 54.3605 57.5467C53.5921 57.5467 52.9933 57.7064 52.5543 58.0258C52.1152 58.3452 51.8956 58.7844 51.8956 59.3334C51.8956 59.9023 52.1152 60.3415 52.5543 60.6609C52.9933 60.9803 53.5921 61.14 54.3605 61.14C55.1189 61.14 55.7276 60.9803 56.1767 60.6609ZM52.8137 53.3145C52.4345 53.594 52.2449 53.9833 52.2449 54.4824C52.2449 54.9615 52.4345 55.3408 52.8137 55.6203C53.1929 55.8997 53.7019 56.0395 54.3505 56.0395C55.0091 56.0395 55.5281 55.8997 55.9172 55.6203C56.2964 55.3408 56.496 54.9615 56.496 54.4824C56.496 53.9833 56.3064 53.594 55.9172 53.3145C55.5281 53.0351 55.0091 52.8953 54.3605 52.8953C53.7019 52.9053 53.1929 53.0351 52.8137 53.3145Z" fill="#0A2B75"/>
</svg>
