<svg width="480" height="1724" fill="none" xmlns="http://www.w3.org/2000/svg"><path fill-rule="evenodd" clip-rule="evenodd" d="M88.08 43.931c20.365 2.086 42.458-3.02 57.318 11.044 17.128 16.211 28.384 41.075 21.598 63.648-6.485 21.575-32.734 26.098-52.064 37.703-24.032 14.429-44.369 44.406-71.212 36.31-28.484-8.591-39.754-42.358-45.518-71.515-5.519-27.916-5.96-61.068 15.642-79.62 19.75-16.964 48.323-.224 74.236 2.43z" fill="#FFF8FA"/><path fill-rule="evenodd" clip-rule="evenodd" d="M407.246 390.001c46.475-.247 77.8 44.493 89.439 90.08 9.528 37.317-11.503 72.549-42.051 95.524-31.792 23.91-73.782 38.958-106.267 16.024-34.057-24.043-39.494-70.284-27.717-110.612 13.045-44.674 40.614-90.772 86.596-91.016zM96.987 1581.27c18.055 2.9 32.673 15.39 45.118 28.79 10.588 11.4 12.711 27.16 19.73 41.05 8.852 17.51 34.504 32.83 26.711 50.84-8.08 18.67-36.86 13.57-56.637 18.32-11.667 2.8-22.929 4.02-34.922 3.67-11.597-.33-22.642-1.51-33.481-5.65-14.542-5.56-31.88-8.86-39.724-22.31-8.266-14.17-3.845-31.8-1.283-48.01 3.044-19.25 2.937-41.31 17.457-54.31 14.858-13.31 37.342-15.55 57.03-12.39z" fill="#F4FDFC"/><g opacity=".3"><path fill="#FFE9F5" d="M345 0h4v4h-4zm-31 0h4v4h-4z"/><path fill="#98E3DF" d="M331 0h4v4h-4z"/><path fill="#FFE9F5" d="M348 0h4v4h-4z"/><path fill="#F2A6C0" d="M365 0h4v4h-4z"/><path fill="#FFE9F5" d="M382 0h4v4h-4zm17 0h4v4h-4zm17 0h4v4h-4z"/><path fill="#98E3DF" d="M385 0h4v4h-4z"/><path fill="#F2A6C0" d="M402 0h4v4h-4z"/><path fill="#98E3DF" d="M345 17h4v4h-4z"/><path fill="#FFE9F5" d="M314 17h4v4h-4z"/><path fill="#98E3DF" d="M331 17h4v4h-4zm17 0h4v4h-4z"/><path fill="#F2A6C0" d="M365 17h4v4h-4zm17 0h4v4h-4z"/><path fill="#98E3DF" d="M399 17h4v4h-4zm17 0h4v4h-4z"/><path fill="#FFE9F5" d="M385 17h4v4h-4z"/><path fill="#98E3DF" d="M402 17h4v4h-4z"/><path fill="#FFE9F5" d="M345 34h4v4h-4z"/><path fill="#F2A6C0" d="M314 34h4v4h-4zm17 0h4v4h-4z"/><path fill="#FFE9F5" d="M348 34h4v4h-4z"/><path fill="#F2A6C0" d="M365 34h4v4h-4zm17 0h4v4h-4z"/><path fill="#98E3DF" d="M399 34h4v4h-4z"/><path fill="#FFE9F5" d="M416 34h4v4h-4z"/><path fill="#98E3DF" d="M385 34h4v4h-4zm17 0h4v4h-4z"/><path fill="#F2A6C0" d="M345 51h4v4h-4zm-31 0h4v4h-4z"/><path fill="#FFE9F5" d="M331 51h4v4h-4zm17 0h4v4h-4z"/><path fill="#98E3DF" d="M365 51h4v4h-4z"/><path fill="#F2A6C0" d="M382 51h4v4h-4z"/><path fill="#98E3DF" d="M399 51h4v4h-4zm17 0h4v4h-4z"/><path fill="#F2A6C0" d="M385 51h4v4h-4z"/><path fill="#98E3DF" d="M402 51h4v4h-4z"/><path fill="#FFE9F5" d="M345 68h4v4h-4zm-31 0h4v4h-4zm17 0h4v4h-4z"/><path fill="#FFE9F5" d="M348 68h4v4h-4zm17 0h4v4h-4z"/><path fill="#98E3DF" d="M382 68h4v4h-4z"/><path fill="#F2A6C0" d="M399 68h4v4h-4zm17 0h4v4h-4z"/><path fill="#98E3DF" d="M385 68h4v4h-4zm17 0h4v4h-4z"/><path fill="#FFE9F5" d="M345 85h4v4h-4zm-31 0h4v4h-4z"/><path fill="#F2A6C0" d="M331 85h4v4h-4z"/><path fill="#FFE9F5" d="M348 85h4v4h-4z"/><path fill="#98E3DF" d="M365 85h4v4h-4z"/><path fill="#F2A6C0" d="M382 85h4v4h-4z"/><path fill="#98E3DF" d="M399 85h4v4h-4z"/><path fill="#F2A6C0" d="M416 85h4v4h-4z"/><path fill="#98E3DF" d="M385 85h4v4h-4z"/><path fill="#FFE9F5" d="M402 85h4v4h-4zm-57 17h4v4h-4z"/><path fill="#F2A6C0" d="M314 102h4v4h-4zm17 0h4v4h-4z"/><path fill="#FFE9F5" d="M348 102h4v4h-4z"/><path fill="#F2A6C0" d="M365 102h4v4h-4zm17 0h4v4h-4z"/><path fill="#FFE9F5" d="M399 102h4v4h-4zm17 0h4v4h-4z"/><path fill="#98E3DF" d="M385 102h4v4h-4z"/><path fill="#FFE9F5" d="M402 102h4v4h-4z"/><path fill="#F2A6C0" d="M345 119h4v4h-4z"/><path fill="#98E3DF" d="M314 119h4v4h-4z"/><path fill="#F2A6C0" d="M331 119h4v4h-4z"/><path fill="#98E3DF" d="M348 119h4v4h-4z"/><path fill="#F2A6C0" d="M365 119h4v4h-4z"/><path fill="#FFE9F5" d="M382 119h4v4h-4z"/><path fill="#F2A6C0" d="M399 119h4v4h-4z"/><path fill="#98E3DF" d="M416 119h4v4h-4z"/><path fill="#F2A6C0" d="M385 119h4v4h-4z"/><path fill="#FFE9F5" d="M402 119h4v4h-4zm-57 17h4v4h-4z"/><path fill="#F2A6C0" d="M314 136h4v4h-4z"/><path fill="#98E3DF" d="M331 136h4v4h-4zm17 0h4v4h-4zm17 0h4v4h-4z"/><path fill="#FFE9F5" d="M382 136h4v4h-4z"/><path fill="#F2A6C0" d="M399 136h4v4h-4zm17 0h4v4h-4z"/><path fill="#98E3DF" d="M385 136h4v4h-4zm17 0h4v4h-4z"/><path fill="#FFE9F5" d="M345 153h4v4h-4zm-31 0h4v4h-4zm17 0h4v4h-4z"/><path fill="#98E3DF" d="M348 153h4v4h-4z"/><path fill="#FFE9F5" d="M365 153h4v4h-4z"/><path fill="#F2A6C0" d="M382 153h4v4h-4z"/><path fill="#98E3DF" d="M399 153h4v4h-4z"/><path fill="#F2A6C0" d="M416 153h4v4h-4zm-31 0h4v4h-4zm17 0h4v4h-4zm-57 17h4v4h-4zm-31 0h4v4h-4z"/><path fill="#98E3DF" d="M331 170h4v4h-4zm17 0h4v4h-4zm17 0h4v4h-4z"/><path fill="#F2A6C0" d="M382 170h4v4h-4z"/><path fill="#98E3DF" d="M399 170h4v4h-4z"/><path fill="#F2A6C0" d="M416 170h4v4h-4zm-31 0h4v4h-4z"/><path fill="#98E3DF" d="M402 170h4v4h-4z"/><path fill="#FFE9F5" d="M345 187h4v4h-4z"/><path fill="#F2A6C0" d="M314 187h4v4h-4zm17 0h4v4h-4z"/><path fill="#98E3DF" d="M348 187h4v4h-4z"/><path fill="#FFE9F5" d="M365 187h4v4h-4zm17 0h4v4h-4zm17 0h4v4h-4z"/><path fill="#F2A6C0" d="M416 187h4v4h-4zm-31 0h4v4h-4z"/><path fill="#98E3DF" d="M402 187h4v4h-4zm-57 17h4v4h-4zm-31 0h4v4h-4z"/><path fill="#FFE9F5" d="M331 204h4v4h-4zm17 0h4v4h-4z"/><path fill="#F2A6C0" d="M365 204h4v4h-4zm17 0h4v4h-4zm17 0h4v4h-4z"/><path fill="#FFE9F5" d="M416 204h4v4h-4z"/><path fill="#98E3DF" d="M385 204h4v4h-4zm17 0h4v4h-4z"/><path fill="#F2A6C0" d="M345 221h4v4h-4z"/><path fill="#98E3DF" d="M314 221h4v4h-4zm17 0h4v4h-4z"/><path fill="#FFE9F5" d="M348 221h4v4h-4zm17 0h4v4h-4zm17 0h4v4h-4z"/><path fill="#98E3DF" d="M399 221h4v4h-4zm17 0h4v4h-4z"/><path fill="#FFE9F5" d="M385 221h4v4h-4z"/><path fill="#98E3DF" d="M402 221h4v4h-4z"/><path fill="#F2A6C0" d="M345 238h4v4h-4zm-31 0h4v4h-4z"/><path fill="#FFE9F5" d="M331 238h4v4h-4z"/><path fill="#F2A6C0" d="M348 238h4v4h-4z"/><path fill="#FFE9F5" d="M365 238h4v4h-4zm17 0h4v4h-4z"/><path fill="#98E3DF" d="M399 238h4v4h-4z"/><path fill="#F2A6C0" d="M416 238h4v4h-4z"/><path fill="#98E3DF" d="M385 238h4v4h-4z"/><path fill="#FFE9F5" d="M402 238h4v4h-4z"/></g><g opacity=".3"><rect x="403" y="1417" width="4.214" height="4.214" rx="1" fill="#F2A6C0"/><rect x="415.643" y="1417" width="4.214" height="4.214" rx="1" fill="#FFE9F5"/><rect x="428.285" y="1417" width="4.214" height="4.214" rx="1" fill="#98E3DF"/><rect x="440.928" y="1417" width="4.214" height="4.214" rx="1" fill="#FFE9F5"/><rect x="453.572" y="1417" width="4.214" height="4.214" rx="1" fill="#F2A6C0"/><rect x="466.215" y="1417" width="4.214" height="4.214" rx="1" fill="#98E3DF"/><rect x="478.857" y="1417" width="4.214" height="4.214" rx="1" fill="#F2A6C0"/><rect x="468.785" y="1417" width="4.214" height="4.214" rx="1" fill="#F2A6C0"/><rect x="403" y="1429.64" width="4.214" height="4.214" rx="1" fill="#98E3DF"/><rect x="415.643" y="1429.64" width="4.214" height="4.214" rx="1" fill="#F2A6C0"/><rect x="428.285" y="1429.64" width="4.214" height="4.214" rx="1" fill="#FFE9F5"/><rect x="440.928" y="1429.64" width="4.214" height="4.214" rx="1" fill="#F2A6C0"/><rect x="453.572" y="1429.64" width="4.214" height="4.214" rx="1" fill="#F2A6C0"/><rect x="466.215" y="1429.64" width="4.214" height="4.214" rx="1" fill="#FFE9F5"/><rect x="478.857" y="1429.64" width="4.214" height="4.214" rx="1" fill="#FFE9F5"/><rect x="468.785" y="1429.64" width="4.214" height="4.214" rx="1" fill="#98E3DF"/><rect x="403" y="1442.29" width="4.214" height="4.214" rx="1" fill="#F2A6C0"/><rect x="415.643" y="1442.29" width="4.214" height="4.214" rx="1" fill="#FFE9F5"/><rect x="428.285" y="1442.29" width="4.214" height="4.214" rx="1" fill="#FFE9F5"/><rect x="440.928" y="1442.29" width="4.214" height="4.214" rx="1" fill="#F2A6C0"/><rect x="453.572" y="1442.29" width="4.214" height="4.214" rx="1" fill="#98E3DF"/><rect x="466.215" y="1442.29" width="4.214" height="4.214" rx="1" fill="#FFE9F5"/><rect x="478.857" y="1442.29" width="4.214" height="4.214" rx="1" fill="#FFE9F5"/><rect x="468.785" y="1442.29" width="4.214" height="4.214" rx="1" fill="#FFE9F5"/><rect x="403" y="1454.93" width="4.214" height="4.214" rx="1" fill="#98E3DF"/><rect x="415.643" y="1454.93" width="4.214" height="4.214" rx="1" fill="#F2A6C0"/><rect x="428.285" y="1454.93" width="4.214" height="4.214" rx="1" fill="#F2A6C0"/><rect x="440.928" y="1454.93" width="4.214" height="4.214" rx="1" fill="#98E3DF"/><rect x="453.572" y="1454.93" width="4.214" height="4.214" rx="1" fill="#F2A6C0"/><rect x="466.215" y="1454.93" width="4.214" height="4.214" rx="1" fill="#FFE9F5"/><rect x="478.857" y="1454.93" width="4.214" height="4.214" rx="1" fill="#98E3DF"/><rect x="468.785" y="1454.93" width="4.214" height="4.214" rx="1" fill="#F2A6C0"/><rect x="403" y="1467.57" width="4.214" height="4.214" rx="1" fill="#FFE9F5"/><rect x="415.643" y="1467.57" width="4.214" height="4.214" rx="1" fill="#F2A6C0"/><rect x="428.285" y="1467.57" width="4.214" height="4.214" rx="1" fill="#98E3DF"/><rect x="440.928" y="1467.57" width="4.214" height="4.214" rx="1" fill="#FFE9F5"/><rect x="453.572" y="1467.57" width="4.214" height="4.214" rx="1" fill="#98E3DF"/><rect x="466.215" y="1467.57" width="4.214" height="4.214" rx="1" fill="#98E3DF"/><rect x="478.857" y="1467.57" width="4.214" height="4.214" rx="1" fill="#F2A6C0"/><rect x="468.785" y="1467.57" width="4.214" height="4.214" rx="1" fill="#98E3DF"/><rect x="403" y="1480.21" width="4.214" height="4.214" rx="1" fill="#98E3DF"/><rect x="415.643" y="1480.21" width="4.214" height="4.214" rx="1" fill="#FFE9F5"/><rect x="428.285" y="1480.21" width="4.214" height="4.214" rx="1" fill="#98E3DF"/><rect x="440.928" y="1480.21" width="4.214" height="4.214" rx="1" fill="#FFE9F5"/><rect x="453.572" y="1480.21" width="4.214" height="4.214" rx="1" fill="#FFE9F5"/><rect x="466.215" y="1480.21" width="4.214" height="4.214" rx="1" fill="#98E3DF"/><rect x="478.857" y="1480.21" width="4.214" height="4.214" rx="1" fill="#98E3DF"/><rect x="468.785" y="1480.21" width="4.214" height="4.214" rx="1" fill="#FFE9F5"/><rect x="403" y="1492.86" width="4.214" height="4.214" rx="1" fill="#98E3DF"/><rect x="415.643" y="1492.86" width="4.214" height="4.214" rx="1" fill="#F2A6C0"/><rect x="428.285" y="1492.86" width="4.214" height="4.214" rx="1" fill="#F2A6C0"/><rect x="440.928" y="1492.86" width="4.214" height="4.214" rx="1" fill="#98E3DF"/><rect x="453.572" y="1492.86" width="4.214" height="4.214" rx="1" fill="#F2A6C0"/><rect x="466.215" y="1492.86" width="4.214" height="4.214" rx="1" fill="#F2A6C0"/><rect x="478.857" y="1492.86" width="4.214" height="4.214" rx="1" fill="#F2A6C0"/><rect x="468.785" y="1492.86" width="4.214" height="4.214" rx="1" fill="#98E3DF"/><rect x="403" y="1505.5" width="4.214" height="4.214" rx="1" fill="#98E3DF"/><rect x="415.643" y="1505.5" width="4.214" height="4.214" rx="1" fill="#F2A6C0"/><rect x="428.285" y="1505.5" width="4.214" height="4.214" rx="1" fill="#98E3DF"/><rect x="440.928" y="1505.5" width="4.214" height="4.214" rx="1" fill="#FFE9F5"/><rect x="453.572" y="1505.5" width="4.214" height="4.214" rx="1" fill="#FFE9F5"/><rect x="466.215" y="1505.5" width="4.214" height="4.214" rx="1" fill="#FFE9F5"/><rect x="478.857" y="1505.5" width="4.214" height="4.214" rx="1" fill="#98E3DF"/><rect x="468.785" y="1505.5" width="4.214" height="4.214" rx="1" fill="#F2A6C0"/></g><g opacity=".3"><path fill="#F2A6C0" d="M48 903h4v4h-4z"/><path fill="#98E3DF" d="M65 903h4v4h-4zm17 0h4v4h-4z"/><path fill="#F2A6C0" d="M99 903h4v4h-4z"/><path fill="#98E3DF" d="M116 903h4v4h-4z"/><path fill="#F2A6C0" d="M85 903h4v4h-4z"/><path fill="#FFE9F5" d="M102 903h4v4h-4zm17 0h4v4h-4z"/><path fill="#F2A6C0" d="M136 903h4v4h-4z"/><path fill="#FFE9F5" d="M153 903h4v4h-4z"/><path fill="#F2A6C0" d="M170 903h4v4h-4z"/><path fill="#FFE9F5" d="M187 903h4v4h-4z"/><path fill="#98E3DF" d="M204 903h4v4h-4z"/><path fill="#FFE9F5" d="M173 903h4v4h-4z"/><path fill="#98E3DF" d="M190 903h4v4h-4z"/><path fill="#FFE9F5" d="M48 920h4v4h-4zm17 0h4v4h-4z"/><path fill="#F2A6C0" d="M82 920h4v4h-4zm17 0h4v4h-4z"/><path fill="#98E3DF" d="M116 920h4v4h-4z"/><path fill="#FFE9F5" d="M85 920h4v4h-4z"/><path fill="#98E3DF" d="M102 920h4v4h-4z"/><path fill="#F2A6C0" d="M119 920h4v4h-4zm17 0h4v4h-4zm17 0h4v4h-4zm17 0h4v4h-4z"/><path fill="#FFE9F5" d="M187 920h4v4h-4zm17 0h4v4h-4zm-31 0h4v4h-4z"/><path fill="#F2A6C0" d="M190 920h4v4h-4z"/><path fill="#FFE9F5" d="M48 937h4v4h-4z"/><path fill="#98E3DF" d="M65 937h4v4h-4z"/><path fill="#FFE9F5" d="M82 937h4v4h-4z"/><path fill="#F2A6C0" d="M99 937h4v4h-4z"/><path fill="#98E3DF" d="M116 937h4v4h-4zm-31 0h4v4h-4zm17 0h4v4h-4z"/><path fill="#FFE9F5" d="M119 937h4v4h-4zm17 0h4v4h-4z"/><path fill="#F2A6C0" d="M153 937h4v4h-4z"/><path fill="#FFE9F5" d="M170 937h4v4h-4z"/><path fill="#F2A6C0" d="M187 937h4v4h-4z"/><path fill="#98E3DF" d="M204 937h4v4h-4zm-31 0h4v4h-4zm17 0h4v4h-4zM48 954h4v4h-4zm17 0h4v4h-4z"/><path fill="#F2A6C0" d="M82 954h4v4h-4z"/><path fill="#FFE9F5" d="M99 954h4v4h-4zm17 0h4v4h-4zm-31 0h4v4h-4z"/><path fill="#98E3DF" d="M102 954h4v4h-4z"/><path fill="#F2A6C0" d="M119 954h4v4h-4z"/><path fill="#98E3DF" d="M136 954h4v4h-4zm17 0h4v4h-4z"/><path fill="#FFE9F5" d="M170 954h4v4h-4z"/><path fill="#98E3DF" d="M187 954h4v4h-4z"/><path fill="#F2A6C0" d="M204 954h4v4h-4z"/><path fill="#FFE9F5" d="M173 954h4v4h-4zm17 0h4v4h-4zM48 971h4v4h-4zm17 0h4v4h-4z"/><path fill="#98E3DF" d="M82 971h4v4h-4zm17 0h4v4h-4zm17 0h4v4h-4z"/><path fill="#FFE9F5" d="M85 971h4v4h-4z"/><path fill="#98E3DF" d="M102 971h4v4h-4z"/><path fill="#F2A6C0" d="M119 971h4v4h-4zm17 0h4v4h-4zm17 0h4v4h-4z"/><path fill="#FFE9F5" d="M170 971h4v4h-4z"/><path fill="#F2A6C0" d="M187 971h4v4h-4z"/><path fill="#FFE9F5" d="M204 971h4v4h-4z"/><path fill="#F2A6C0" d="M173 971h4v4h-4z"/><path fill="#FFE9F5" d="M190 971h4v4h-4z"/><path fill="#98E3DF" d="M48 988h4v4h-4z"/><path fill="#F2A6C0" d="M65 988h4v4h-4z"/><path fill="#FFE9F5" d="M82 988h4v4h-4z"/><path fill="#98E3DF" d="M99 988h4v4h-4zm17 0h4v4h-4z"/><path fill="#FFE9F5" d="M85 988h4v4h-4zm17 0h4v4h-4z"/><path fill="#98E3DF" d="M119 988h4v4h-4z"/><path fill="#F2A6C0" d="M136 988h4v4h-4zm17 0h4v4h-4z"/><path fill="#98E3DF" d="M170 988h4v4h-4z"/><path fill="#F2A6C0" d="M187 988h4v4h-4zm17 0h4v4h-4z"/><path fill="#98E3DF" d="M173 988h4v4h-4z"/><path fill="#FFE9F5" d="M190 988h4v4h-4z"/><path fill="#98E3DF" d="M48 1005h4v4h-4z"/><path fill="#F2A6C0" d="M65 1005h4v4h-4z"/><path fill="#FFE9F5" d="M82 1005h4v4h-4z"/><path fill="#F2A6C0" d="M99 1005h4v4h-4z"/><path fill="#FFE9F5" d="M116 1005h4v4h-4z"/><path fill="#F2A6C0" d="M85 1005h4v4h-4zm17 0h4v4h-4zm17 0h4v4h-4z"/><path fill="#FFE9F5" d="M136 1005h4v4h-4z"/><path fill="#F2A6C0" d="M153 1005h4v4h-4z"/><path fill="#FFE9F5" d="M170 1005h4v4h-4z"/><path fill="#98E3DF" d="M187 1005h4v4h-4z"/><path fill="#FFE9F5" d="M204 1005h4v4h-4z"/><path fill="#98E3DF" d="M173 1005h4v4h-4z"/><path fill="#F2A6C0" d="M190 1005h4v4h-4z"/><path fill="#FFE9F5" d="M48 1022h4v4h-4zm17 0h4v4h-4z"/><path fill="#98E3DF" d="M82 1022h4v4h-4z"/><path fill="#F2A6C0" d="M99 1022h4v4h-4z"/><path fill="#98E3DF" d="M116 1022h4v4h-4z"/><path fill="#F2A6C0" d="M85 1022h4v4h-4z"/><path fill="#98E3DF" d="M102 1022h4v4h-4z"/><path fill="#F2A6C0" d="M119 1022h4v4h-4z"/><path fill="#FFE9F5" d="M136 1022h4v4h-4z"/><path fill="#98E3DF" d="M153 1022h4v4h-4z"/><path fill="#F2A6C0" d="M170 1022h4v4h-4zm17 0h4v4h-4z"/><path fill="#FFE9F5" d="M204 1022h4v4h-4z"/><path fill="#F2A6C0" d="M173 1022h4v4h-4z"/><path fill="#98E3DF" d="M190 1022h4v4h-4zm-142 17h4v4h-4z"/><path fill="#F2A6C0" d="M65 1039h4v4h-4z"/><path fill="#FFE9F5" d="M82 1039h4v4h-4z"/><path fill="#F2A6C0" d="M99 1039h4v4h-4z"/><path fill="#98E3DF" d="M116 1039h4v4h-4zm-31 0h4v4h-4zm17 0h4v4h-4z"/><path fill="#FFE9F5" d="M119 1039h4v4h-4z"/><path fill="#98E3DF" d="M136 1039h4v4h-4zm17 0h4v4h-4z"/><path fill="#FFE9F5" d="M170 1039h4v4h-4zm17 0h4v4h-4z"/><path fill="#F2A6C0" d="M204 1039h4v4h-4z"/><path fill="#98E3DF" d="M173 1039h4v4h-4z"/><path fill="#F2A6C0" d="M190 1039h4v4h-4zm-142 17h4v4h-4z"/><path fill="#98E3DF" d="M65 1056h4v4h-4z"/><path fill="#FFE9F5" d="M82 1056h4v4h-4zm17 0h4v4h-4zm17 0h4v4h-4z"/><path fill="#FFE9F5" d="M85 1056h4v4h-4z"/><path fill="#F2A6C0" d="M102 1056h4v4h-4zm17 0h4v4h-4z"/><path fill="#98E3DF" d="M136 1056h4v4h-4z"/><path fill="#F2A6C0" d="M153 1056h4v4h-4z"/><path fill="#98E3DF" d="M170 1056h4v4h-4zm17 0h4v4h-4zm17 0h4v4h-4z"/><path fill="#FFE9F5" d="M173 1056h4v4h-4z"/><path fill="#F2A6C0" d="M190 1056h4v4h-4z"/></g></svg>