<svg width="1586" height="976" fill="none" xmlns="http://www.w3.org/2000/svg"><path fill-rule="evenodd" clip-rule="evenodd" d="M99.403 14.749c34.262-.863 75.765-30.106 97.652-3.796 21.869 26.291-14.215 61.644-21.822 94.955-7.615 33.345 10.484 83.015-21.582 95.112-32.468 12.248-53.568-35.493-81.322-56.293-17.064-12.788-36.792-20.323-46.328-39.372C11.634 76.658-12.466 40.669 7.745 15.721c20.206-24.942 59.522-.163 91.658-.972z" fill="#F2FDFF"/><path fill-rule="evenodd" clip-rule="evenodd" d="M1517.75 819.734c13.89-2.489 27.91 1.636 40.5 8.08 14.51 7.429 28.73 16.617 36.26 31.216 8.36 16.173 16.86 37.525 7.19 52.923-9.98 15.878-36.54 6.472-51.5 17.62-15.13 11.266-14.54 39.248-32.45 44.917-17.81 5.634-37.93-5.386-51.49-18.356-12.82-12.254-11.82-32.27-18.68-48.719-7.82-18.734-34.49-36.692-24.28-54.208 11.18-19.194 42.41-5.173 63.17-12.531 12.09-4.285 18.66-18.682 31.28-20.942z" fill="#F4FDFC"/><g opacity=".3"><path fill="#F2A6C0" d="M674 52h4v4h-4z"/><path fill="#98E3DF" d="M691 52h4v4h-4zm17 0h4v4h-4z"/><path fill="#F2A6C0" d="M725 52h4v4h-4z"/><path fill="#98E3DF" d="M742 52h4v4h-4z"/><path fill="#F2A6C0" d="M759 52h4v4h-4z"/><path fill="#FFE9F5" d="M776 52h4v4h-4zm17 0h4v4h-4z"/><path fill="#F2A6C0" d="M810 52h4v4h-4z"/><path fill="#FFE9F5" d="M827 52h4v4h-4z"/><path fill="#F2A6C0" d="M844 52h4v4h-4z"/><path fill="#FFE9F5" d="M861 52h4v4h-4z"/><path fill="#98E3DF" d="M878 52h4v4h-4z"/><path fill="#FFE9F5" d="M895 52h4v4h-4z"/><path fill="#98E3DF" d="M912 52h4v4h-4z"/><path fill="#FFE9F5" d="M674 69h4v4h-4zm17 0h4v4h-4z"/><path fill="#F2A6C0" d="M708 69h4v4h-4zm17 0h4v4h-4z"/><path fill="#98E3DF" d="M742 69h4v4h-4z"/><path fill="#FFE9F5" d="M759 69h4v4h-4z"/><path fill="#98E3DF" d="M776 69h4v4h-4z"/><path fill="#F2A6C0" d="M793 69h4v4h-4zm17 0h4v4h-4zm17 0h4v4h-4zm17 0h4v4h-4z"/><path fill="#FFE9F5" d="M861 69h4v4h-4zm17 0h4v4h-4zm17 0h4v4h-4z"/><path fill="#F2A6C0" d="M912 69h4v4h-4z"/><path fill="#FFE9F5" d="M674 86h4v4h-4z"/><path fill="#98E3DF" d="M691 86h4v4h-4z"/><path fill="#FFE9F5" d="M708 86h4v4h-4z"/><path fill="#F2A6C0" d="M725 86h4v4h-4z"/><path fill="#98E3DF" d="M742 86h4v4h-4zm17 0h4v4h-4zm17 0h4v4h-4z"/><path fill="#FFE9F5" d="M793 86h4v4h-4zm17 0h4v4h-4z"/><path fill="#F2A6C0" d="M827 86h4v4h-4z"/><path fill="#FFE9F5" d="M844 86h4v4h-4z"/><path fill="#F2A6C0" d="M861 86h4v4h-4z"/><path fill="#98E3DF" d="M878 86h4v4h-4zm17 0h4v4h-4zm17 0h4v4h-4zm-238 17h4v4h-4zm17 0h4v4h-4z"/><path fill="#F2A6C0" d="M708 103h4v4h-4z"/><path fill="#FFE9F5" d="M725 103h4v4h-4zm17 0h4v4h-4zm17 0h4v4h-4z"/><path fill="#98E3DF" d="M776 103h4v4h-4z"/><path fill="#F2A6C0" d="M793 103h4v4h-4z"/><path fill="#98E3DF" d="M810 103h4v4h-4zm17 0h4v4h-4z"/><path fill="#FFE9F5" d="M844 103h4v4h-4z"/><path fill="#98E3DF" d="M861 103h4v4h-4z"/><path fill="#F2A6C0" d="M878 103h4v4h-4z"/><path fill="#FFE9F5" d="M895 103h4v4h-4zm17 0h4v4h-4zm-238 17h4v4h-4zm17 0h4v4h-4z"/><path fill="#98E3DF" d="M708 120h4v4h-4zm17 0h4v4h-4zm17 0h4v4h-4z"/><path fill="#FFE9F5" d="M759 120h4v4h-4z"/><path fill="#98E3DF" d="M776 120h4v4h-4z"/><path fill="#F2A6C0" d="M793 120h4v4h-4zm17 0h4v4h-4zm17 0h4v4h-4z"/><path fill="#FFE9F5" d="M844 120h4v4h-4z"/><path fill="#F2A6C0" d="M861 120h4v4h-4z"/><path fill="#FFE9F5" d="M878 120h4v4h-4z"/><path fill="#F2A6C0" d="M895 120h4v4h-4z"/><path fill="#FFE9F5" d="M912 120h4v4h-4z"/><path fill="#98E3DF" d="M674 137h4v4h-4z"/><path fill="#F2A6C0" d="M691 137h4v4h-4z"/><path fill="#FFE9F5" d="M708 137h4v4h-4z"/><path fill="#98E3DF" d="M725 137h4v4h-4zm17 0h4v4h-4z"/><path fill="#FFE9F5" d="M759 137h4v4h-4zm17 0h4v4h-4z"/><path fill="#98E3DF" d="M793 137h4v4h-4z"/><path fill="#F2A6C0" d="M810 137h4v4h-4zm17 0h4v4h-4z"/><path fill="#98E3DF" d="M844 137h4v4h-4z"/><path fill="#F2A6C0" d="M861 137h4v4h-4zm17 0h4v4h-4z"/><path fill="#98E3DF" d="M895 137h4v4h-4z"/><path fill="#FFE9F5" d="M912 137h4v4h-4z"/><path fill="#98E3DF" d="M674 154h4v4h-4z"/><path fill="#F2A6C0" d="M691 154h4v4h-4z"/><path fill="#FFE9F5" d="M708 154h4v4h-4z"/><path fill="#F2A6C0" d="M725 154h4v4h-4z"/><path fill="#FFE9F5" d="M742 154h4v4h-4z"/><path fill="#F2A6C0" d="M759 154h4v4h-4zm17 0h4v4h-4zm17 0h4v4h-4z"/><path fill="#FFE9F5" d="M810 154h4v4h-4z"/><path fill="#F2A6C0" d="M827 154h4v4h-4z"/><path fill="#FFE9F5" d="M844 154h4v4h-4z"/><path fill="#98E3DF" d="M861 154h4v4h-4z"/><path fill="#FFE9F5" d="M878 154h4v4h-4z"/><path fill="#98E3DF" d="M895 154h4v4h-4z"/><path fill="#F2A6C0" d="M912 154h4v4h-4z"/><path fill="#FFE9F5" d="M674 171h4v4h-4zm17 0h4v4h-4z"/><path fill="#98E3DF" d="M708 171h4v4h-4z"/><path fill="#F2A6C0" d="M725 171h4v4h-4z"/><path fill="#98E3DF" d="M742 171h4v4h-4z"/><path fill="#F2A6C0" d="M759 171h4v4h-4z"/><path fill="#98E3DF" d="M776 171h4v4h-4z"/><path fill="#F2A6C0" d="M793 171h4v4h-4z"/><path fill="#FFE9F5" d="M810 171h4v4h-4z"/><path fill="#98E3DF" d="M827 171h4v4h-4z"/><path fill="#F2A6C0" d="M844 171h4v4h-4zm17 0h4v4h-4z"/><path fill="#FFE9F5" d="M878 171h4v4h-4z"/><path fill="#F2A6C0" d="M895 171h4v4h-4z"/><path fill="#98E3DF" d="M912 171h4v4h-4zm-238 17h4v4h-4z"/><path fill="#F2A6C0" d="M691 188h4v4h-4z"/><path fill="#FFE9F5" d="M708 188h4v4h-4z"/><path fill="#F2A6C0" d="M725 188h4v4h-4z"/><path fill="#98E3DF" d="M742 188h4v4h-4zm17 0h4v4h-4zm17 0h4v4h-4z"/><path fill="#FFE9F5" d="M793 188h4v4h-4z"/><path fill="#98E3DF" d="M810 188h4v4h-4zm17 0h4v4h-4z"/><path fill="#FFE9F5" d="M844 188h4v4h-4zm17 0h4v4h-4z"/><path fill="#F2A6C0" d="M878 188h4v4h-4z"/><path fill="#98E3DF" d="M895 188h4v4h-4z"/><path fill="#F2A6C0" d="M912 188h4v4h-4zm-238 17h4v4h-4z"/><path fill="#98E3DF" d="M691 205h4v4h-4z"/><path fill="#FFE9F5" d="M708 205h4v4h-4zm17 0h4v4h-4zm17 0h4v4h-4zm17 0h4v4h-4z"/><path fill="#F2A6C0" d="M776 205h4v4h-4zm17 0h4v4h-4z"/><path fill="#98E3DF" d="M810 205h4v4h-4z"/><path fill="#F2A6C0" d="M827 205h4v4h-4z"/><path fill="#98E3DF" d="M844 205h4v4h-4zm17 0h4v4h-4zm17 0h4v4h-4z"/><path fill="#FFE9F5" d="M895 205h4v4h-4z"/><path fill="#F2A6C0" d="M912 205h4v4h-4z"/></g><g opacity=".3"><path fill="#FFE9F5" d="M30 538h4v4h-4zm17 0h4v4h-4z"/><path fill="#98E3DF" d="M64 538h4v4h-4z"/><path fill="#FFE9F5" d="M81 538h4v4h-4z"/><path fill="#F2A6C0" d="M98 538h4v4h-4z"/><path fill="#FFE9F5" d="M115 538h4v4h-4zm17 0h4v4h-4zm17 0h4v4h-4z"/><path fill="#98E3DF" d="M166 538h4v4h-4z"/><path fill="#F2A6C0" d="M183 538h4v4h-4z"/><path fill="#98E3DF" d="M30 555h4v4h-4z"/><path fill="#FFE9F5" d="M47 555h4v4h-4z"/><path fill="#98E3DF" d="M64 555h4v4h-4zm17 0h4v4h-4z"/><path fill="#F2A6C0" d="M98 555h4v4h-4zm17 0h4v4h-4z"/><path fill="#98E3DF" d="M132 555h4v4h-4zm17 0h4v4h-4z"/><path fill="#FFE9F5" d="M166 555h4v4h-4z"/><path fill="#98E3DF" d="M183 555h4v4h-4z"/><path fill="#FFE9F5" d="M30 572h4v4h-4z"/><path fill="#F2A6C0" d="M47 572h4v4h-4zm17 0h4v4h-4z"/><path fill="#FFE9F5" d="M81 572h4v4h-4z"/><path fill="#F2A6C0" d="M98 572h4v4h-4zm17 0h4v4h-4z"/><path fill="#98E3DF" d="M132 572h4v4h-4z"/><path fill="#FFE9F5" d="M149 572h4v4h-4z"/><path fill="#98E3DF" d="M166 572h4v4h-4zm17 0h4v4h-4z"/><path fill="#F2A6C0" d="M30 589h4v4h-4zm17 0h4v4h-4z"/><path fill="#FFE9F5" d="M64 589h4v4h-4zm17 0h4v4h-4z"/><path fill="#98E3DF" d="M98 589h4v4h-4z"/><path fill="#F2A6C0" d="M115 589h4v4h-4z"/><path fill="#98E3DF" d="M132 589h4v4h-4zm17 0h4v4h-4z"/><path fill="#F2A6C0" d="M166 589h4v4h-4z"/><path fill="#98E3DF" d="M183 589h4v4h-4z"/><path fill="#FFE9F5" d="M30 606h4v4h-4zm17 0h4v4h-4zm17 0h4v4h-4zm17 0h4v4h-4zm17 0h4v4h-4z"/><path fill="#98E3DF" d="M115 606h4v4h-4z"/><path fill="#F2A6C0" d="M132 606h4v4h-4zm17 0h4v4h-4z"/><path fill="#98E3DF" d="M166 606h4v4h-4zm17 0h4v4h-4z"/><path fill="#FFE9F5" d="M30 623h4v4h-4zm17 0h4v4h-4z"/><path fill="#F2A6C0" d="M64 623h4v4h-4z"/><path fill="#FFE9F5" d="M81 623h4v4h-4z"/><path fill="#98E3DF" d="M98 623h4v4h-4z"/><path fill="#F2A6C0" d="M115 623h4v4h-4z"/><path fill="#98E3DF" d="M132 623h4v4h-4z"/><path fill="#F2A6C0" d="M149 623h4v4h-4z"/><path fill="#98E3DF" d="M166 623h4v4h-4z"/><path fill="#FFE9F5" d="M183 623h4v4h-4zM30 640h4v4h-4z"/><path fill="#F2A6C0" d="M47 640h4v4h-4zm17 0h4v4h-4z"/><path fill="#FFE9F5" d="M81 640h4v4h-4z"/><path fill="#F2A6C0" d="M98 640h4v4h-4zm17 0h4v4h-4z"/><path fill="#FFE9F5" d="M132 640h4v4h-4zm17 0h4v4h-4z"/><path fill="#98E3DF" d="M166 640h4v4h-4z"/><path fill="#FFE9F5" d="M183 640h4v4h-4z"/><path fill="#F2A6C0" d="M30 657h4v4h-4z"/><path fill="#98E3DF" d="M47 657h4v4h-4z"/><path fill="#F2A6C0" d="M64 657h4v4h-4z"/><path fill="#98E3DF" d="M81 657h4v4h-4z"/><path fill="#F2A6C0" d="M98 657h4v4h-4z"/><path fill="#FFE9F5" d="M115 657h4v4h-4z"/><path fill="#F2A6C0" d="M132 657h4v4h-4z"/><path fill="#98E3DF" d="M149 657h4v4h-4z"/><path fill="#F2A6C0" d="M166 657h4v4h-4z"/><path fill="#FFE9F5" d="M183 657h4v4h-4zM30 674h4v4h-4z"/><path fill="#F2A6C0" d="M47 674h4v4h-4z"/><path fill="#98E3DF" d="M64 674h4v4h-4zm17 0h4v4h-4zm17 0h4v4h-4z"/><path fill="#FFE9F5" d="M115 674h4v4h-4z"/><path fill="#F2A6C0" d="M132 674h4v4h-4zm17 0h4v4h-4z"/><path fill="#98E3DF" d="M166 674h4v4h-4zm17 0h4v4h-4z"/><path fill="#FFE9F5" d="M30 691h4v4h-4zm17 0h4v4h-4zm17 0h4v4h-4z"/><path fill="#98E3DF" d="M81 691h4v4h-4z"/><path fill="#FFE9F5" d="M98 691h4v4h-4z"/><path fill="#F2A6C0" d="M115 691h4v4h-4z"/><path fill="#98E3DF" d="M132 691h4v4h-4z"/><path fill="#F2A6C0" d="M149 691h4v4h-4zm17 0h4v4h-4zm17 0h4v4h-4zM30 708h4v4h-4zm17 0h4v4h-4z"/><path fill="#98E3DF" d="M64 708h4v4h-4zm17 0h4v4h-4zm17 0h4v4h-4z"/><path fill="#F2A6C0" d="M115 708h4v4h-4z"/><path fill="#98E3DF" d="M132 708h4v4h-4z"/><path fill="#F2A6C0" d="M149 708h4v4h-4zm17 0h4v4h-4z"/><path fill="#98E3DF" d="M183 708h4v4h-4z"/><path fill="#FFE9F5" d="M30 725h4v4h-4z"/><path fill="#F2A6C0" d="M47 725h4v4h-4zm17 0h4v4h-4z"/><path fill="#98E3DF" d="M81 725h4v4h-4z"/><path fill="#FFE9F5" d="M98 725h4v4h-4zm17 0h4v4h-4zm17 0h4v4h-4z"/><path fill="#F2A6C0" d="M149 725h4v4h-4zm17 0h4v4h-4z"/><path fill="#98E3DF" d="M183 725h4v4h-4zM30 742h4v4h-4zm17 0h4v4h-4z"/><path fill="#FFE9F5" d="M64 742h4v4h-4zm17 0h4v4h-4z"/><path fill="#F2A6C0" d="M98 742h4v4h-4zm17 0h4v4h-4zm17 0h4v4h-4z"/><path fill="#FFE9F5" d="M149 742h4v4h-4z"/><path fill="#98E3DF" d="M166 742h4v4h-4zm17 0h4v4h-4z"/><path fill="#F2A6C0" d="M30 759h4v4h-4z"/><path fill="#98E3DF" d="M47 759h4v4h-4zm17 0h4v4h-4z"/><path fill="#FFE9F5" d="M81 759h4v4h-4zm17 0h4v4h-4zm17 0h4v4h-4z"/><path fill="#98E3DF" d="M132 759h4v4h-4zm17 0h4v4h-4z"/><path fill="#FFE9F5" d="M166 759h4v4h-4z"/><path fill="#98E3DF" d="M183 759h4v4h-4z"/><path fill="#F2A6C0" d="M30 776h4v4h-4zm17 0h4v4h-4z"/><path fill="#FFE9F5" d="M64 776h4v4h-4z"/><path fill="#F2A6C0" d="M81 776h4v4h-4z"/><path fill="#FFE9F5" d="M98 776h4v4h-4zm17 0h4v4h-4z"/><path fill="#98E3DF" d="M132 776h4v4h-4z"/><path fill="#F2A6C0" d="M149 776h4v4h-4z"/><path fill="#98E3DF" d="M166 776h4v4h-4z"/><path fill="#FFE9F5" d="M183 776h4v4h-4z"/></g></svg>