<svg width="223" height="88" fill="none" xmlns="http://www.w3.org/2000/svg"><path fill-rule="evenodd" clip-rule="evenodd" d="M25.753 43.965C23.984 34.298-11.172 24.611 3.627 17.13c15.243-7.706 47.1 5.888 69.827 2.721C96.562 16.63 102.172.26 126.53.004c22.714-.24 33.679 11.748 48.908 18.774 17.447 8.05 49.337 14.41 46.37 25.188-3.047 11.064-40.994 13.147-59.172 21.31-14.855 6.67-16.377 18.543-36.787 21.777-20.484 3.246-42.158-2.62-62.468-6.05-18.791-3.174-42.545-5.237-50.45-13.018-7.866-7.743 14.356-15.636 12.823-24.02z" fill="#70DBED"/><path fill-rule="evenodd" clip-rule="evenodd" d="M142.013 6.45c25.457-2.874 47.115 8.656 63.224 16.098 13.013 6.011 15.778 13.67 17.462 21.175 1.339 5.973-1.819 11.791-8.842 17.26-6.399 4.982-15.522 9.64-29.16 12.33-12.787 2.522-28.84.122-42.684 1.84-26.023 3.23-45.983 15.143-72.509 12.455-23.994-2.43-32.14-14.29-31.466-22.99.61-7.868 21.318-13.27 34.766-19.596 8.834-4.157 22.227-6.532 30.096-10.917 16.029-8.933 10.342-24.405 39.113-27.654z" fill="#F2A6C0"/></svg>