<svg width="918" height="762" fill="none" xmlns="http://www.w3.org/2000/svg"><path fill-rule="evenodd" clip-rule="evenodd" d="M610.77 68.898c-34.967 18.495-71.796 35.048-87.16 70.399-16.684 38.388-15.936 83.226 1.905 125.769 20.12 47.977 50.051 99.736 100.761 119.046 50.142 19.094 107.068 4.888 141.54-26.779 28.653-26.321 4.814-75.412 11.953-114.226 5.54-30.116 29.7-52.468 24.519-84.063-8.038-49.018-11.729-113.356-60.627-136.134C694.92.205 653.002 46.56 610.77 68.898z" fill="#98E3DF"/><path fill-rule="evenodd" clip-rule="evenodd" d="M417.665 203.184c-39.122-10.718-75.779-56.605-111.727-44.499-42.993 14.479-24.431 81.442-62.367 103.129-31.108 17.784-82.866-15.121-116.617-.807-31.47 13.347-51.606 43.903-56.374 74.176-4.836 30.702 25.18 60.725 30.167 92.21 4.615 29.139-8.303 57.121-1.912 86.162 6.996 31.79 10.227 70.409 40.969 91.309 32.435 22.052 80.928 1.67 118.029 16.791 35.617 14.516 50.253 62.355 88.381 67.332 37.685 4.919 59.805-33.666 94.455-43.468 32.103-9.081 68.268-4.771 101.249-11.895 41.255-8.911 104.279-1.893 118.545-35.58 15.718-37.117-39.174-76.439-54.251-116.243-9.593-25.326-21.58-51.223-18.847-76.739 4.147-38.731 49.736-69.857 38.724-108.865-9.596-33.993-53.29-57.989-90.517-74.602-36.518-16.297-79.112-7.783-117.907-18.411z" fill="#70DBED"/><path fill-rule="evenodd" clip-rule="evenodd" d="M841.998 413.16c-12.029-42.912-94.655-47.936-119.109-87.013-27.752-44.348 29.812-124.396-26.741-146.054-57.469-22.009-114.484 48.453-175.771 68.497-37.484 12.26-76.943 14.032-114.376 26.4-43.864 14.493-90.034 25.765-123.986 52.356-39.812 31.178-77.266 68.415-85.014 111.324-8.033 44.491 12.124 89.002 42.22 125.675 29.612 36.083 71.79 69.25 125.692 78.928 51.618 9.268 101.921-28.151 155.464-28.448 57.194-.318 109.354 43.526 163.446 26.679 52.683-16.408 70.033-68.604 97.23-107.866 26.857-38.771 72.648-78.731 60.945-120.478z" fill="#F2A6C0"/></svg>