<svg width="446" height="568" fill="none" xmlns="http://www.w3.org/2000/svg"><path fill-rule="evenodd" clip-rule="evenodd" d="M93.08 239.931c20.365 2.086 42.458-3.02 57.318 11.044 17.128 16.211 28.384 41.075 21.598 63.648-6.485 21.575-32.734 26.098-52.064 37.703-24.032 14.429-44.369 44.406-71.212 36.31-28.484-8.591-39.754-42.358-45.518-71.515-5.519-27.916-5.96-61.069 15.642-79.621 19.75-16.963 48.323-.223 74.236 2.431z" fill="#FFF8FA"/><g opacity=".3"><rect x="33" width="5" height="5" rx="1" fill="#F2A6C0"/><rect x="48" width="5" height="5" rx="1" fill="#FFE9F5"/><rect x="63" width="5" height="5" rx="1" fill="#98E3DF"/><rect x="78" width="5" height="5" rx="1" fill="#FFE9F5"/><rect x="93" width="5" height="5" rx="1" fill="#F2A6C0"/><rect x="60" width="5" height="5" rx="1" fill="#98E3DF"/><rect x="75" width="5" height="5" rx="1" fill="#F2A6C0"/><rect x="90" width="5" height="5" rx="1" fill="#FFE9F5"/><rect x="105" width="5" height="5" rx="1" fill="#F2A6C0"/><rect x="120" width="5" height="5" rx="1" fill="#F2A6C0"/><rect x="33" y="15" width="5" height="5" rx="1" fill="#98E3DF"/><rect x="48" y="15" width="5" height="5" rx="1" fill="#F2A6C0"/><rect x="63" y="15" width="5" height="5" rx="1" fill="#FFE9F5"/><rect x="78" y="15" width="5" height="5" rx="1" fill="#F2A6C0"/><rect x="93" y="15" width="5" height="5" rx="1" fill="#F2A6C0"/><rect x="60" y="15" width="5" height="5" rx="1" fill="#FFE9F5"/><rect x="75" y="15" width="5" height="5" rx="1" fill="#FFE9F5"/><rect x="90" y="15" width="5" height="5" rx="1" fill="#FFE9F5"/><rect x="105" y="15" width="5" height="5" rx="1" fill="#FFE9F5"/><rect x="120" y="15" width="5" height="5" rx="1" fill="#98E3DF"/><rect x="33" y="30" width="5" height="5" rx="1" fill="#F2A6C0"/><rect x="48" y="30" width="5" height="5" rx="1" fill="#FFE9F5"/><rect x="63" y="30" width="5" height="5" rx="1" fill="#FFE9F5"/><rect x="78" y="30" width="5" height="5" rx="1" fill="#F2A6C0"/><rect x="93" y="30" width="5" height="5" rx="1" fill="#98E3DF"/><rect x="60" y="30" width="5" height="5" rx="1" fill="#FFE9F5"/><rect x="75" y="30" width="5" height="5" rx="1" fill="#FFE9F5"/><rect x="90" y="30" width="5" height="5" rx="1" fill="#98E3DF"/><rect x="105" y="30" width="5" height="5" rx="1" fill="#98E3DF"/><rect x="120" y="30" width="5" height="5" rx="1" fill="#FFE9F5"/><rect x="33" y="45" width="5" height="5" rx="1" fill="#98E3DF"/><rect x="48" y="45" width="5" height="5" rx="1" fill="#F2A6C0"/><rect x="63" y="45" width="5" height="5" rx="1" fill="#F2A6C0"/><rect x="78" y="45" width="5" height="5" rx="1" fill="#98E3DF"/><rect x="93" y="45" width="5" height="5" rx="1" fill="#F2A6C0"/><rect x="60" y="45" width="5" height="5" rx="1" fill="#FFE9F5"/><rect x="75" y="45" width="5" height="5" rx="1" fill="#98E3DF"/><rect x="90" y="45" width="5" height="5" rx="1" fill="#98E3DF"/><rect x="105" y="45" width="5" height="5" rx="1" fill="#FFE9F5"/><rect x="120" y="45" width="5" height="5" rx="1" fill="#F2A6C0"/><rect x="33" y="60" width="5" height="5" rx="1" fill="#FFE9F5"/><rect x="48" y="60" width="5" height="5" rx="1" fill="#F2A6C0"/><rect x="63" y="60" width="5" height="5" rx="1" fill="#98E3DF"/><rect x="78" y="60" width="5" height="5" rx="1" fill="#FFE9F5"/><rect x="93" y="60" width="5" height="5" rx="1" fill="#98E3DF"/><rect x="60" y="60" width="5" height="5" rx="1" fill="#98E3DF"/><rect x="75" y="60" width="5" height="5" rx="1" fill="#F2A6C0"/><rect x="90" y="60" width="5" height="5" rx="1" fill="#F2A6C0"/><rect x="105" y="60" width="5" height="5" rx="1" fill="#F2A6C0"/><rect x="120" y="60" width="5" height="5" rx="1" fill="#98E3DF"/><rect x="33" y="75" width="5" height="5" rx="1" fill="#98E3DF"/><rect x="48" y="75" width="5" height="5" rx="1" fill="#FFE9F5"/><rect x="63" y="75" width="5" height="5" rx="1" fill="#98E3DF"/><rect x="78" y="75" width="5" height="5" rx="1" fill="#FFE9F5"/><rect x="93" y="75" width="5" height="5" rx="1" fill="#FFE9F5"/><rect x="60" y="75" width="5" height="5" rx="1" fill="#98E3DF"/><rect x="75" y="75" width="5" height="5" rx="1" fill="#98E3DF"/><rect x="90" y="75" width="5" height="5" rx="1" fill="#FFE9F5"/><rect x="105" y="75" width="5" height="5" rx="1" fill="#FFE9F5"/><rect x="120" y="75" width="5" height="5" rx="1" fill="#FFE9F5"/><rect x="33" y="90" width="5" height="5" rx="1" fill="#98E3DF"/><rect x="48" y="90" width="5" height="5" rx="1" fill="#F2A6C0"/><rect x="63" y="90" width="5" height="5" rx="1" fill="#F2A6C0"/><rect x="78" y="90" width="5" height="5" rx="1" fill="#98E3DF"/><rect x="93" y="90" width="5" height="5" rx="1" fill="#F2A6C0"/><rect x="60" y="90" width="5" height="5" rx="1" fill="#F2A6C0"/><rect x="75" y="90" width="5" height="5" rx="1" fill="#F2A6C0"/><rect x="90" y="90" width="5" height="5" rx="1" fill="#FFE9F5"/><rect x="105" y="90" width="5" height="5" rx="1" fill="#98E3DF"/><rect x="120" y="90" width="5" height="5" rx="1" fill="#98E3DF"/><rect x="33" y="105" width="5" height="5" rx="1" fill="#98E3DF"/><rect x="48" y="105" width="5" height="5" rx="1" fill="#F2A6C0"/><rect x="63" y="105" width="5" height="5" rx="1" fill="#98E3DF"/><rect x="78" y="105" width="5" height="5" rx="1" fill="#FFE9F5"/><rect x="93" y="105" width="5" height="5" rx="1" fill="#FFE9F5"/><rect x="60" y="105" width="5" height="5" rx="1" fill="#FFE9F5"/><rect x="75" y="105" width="5" height="5" rx="1" fill="#98E3DF"/><rect x="90" y="105" width="5" height="5" rx="1" fill="#98E3DF"/><rect x="105" y="105" width="5" height="5" rx="1" fill="#F2A6C0"/><rect x="120" y="105" width="5" height="5" rx="1" fill="#F2A6C0"/></g><g opacity=".3"><path fill="#F2A6C0" d="M301 411h4v4h-4z"/><path fill="#98E3DF" d="M318 411h4v4h-4zm17 0h4v4h-4z"/><path fill="#F2A6C0" d="M352 411h4v4h-4z"/><path fill="#98E3DF" d="M369 411h4v4h-4z"/><path fill="#F2A6C0" d="M338 411h4v4h-4z"/><path fill="#FFE9F5" d="M355 411h4v4h-4zm17 0h4v4h-4z"/><path fill="#F2A6C0" d="M389 411h4v4h-4z"/><path fill="#FFE9F5" d="M406 411h4v4h-4z"/><path fill="#F2A6C0" d="M423 411h4v4h-4z"/><path fill="#FFE9F5" d="M440 411h4v4h-4zm-139 17h4v4h-4zm17 0h4v4h-4z"/><path fill="#F2A6C0" d="M335 428h4v4h-4zm17 0h4v4h-4z"/><path fill="#98E3DF" d="M369 428h4v4h-4z"/><path fill="#FFE9F5" d="M338 428h4v4h-4z"/><path fill="#98E3DF" d="M355 428h4v4h-4z"/><path fill="#F2A6C0" d="M372 428h4v4h-4zm17 0h4v4h-4zm17 0h4v4h-4zm17 0h4v4h-4z"/><path fill="#FFE9F5" d="M440 428h4v4h-4zm-139 17h4v4h-4z"/><path fill="#98E3DF" d="M318 445h4v4h-4z"/><path fill="#FFE9F5" d="M335 445h4v4h-4z"/><path fill="#F2A6C0" d="M352 445h4v4h-4z"/><path fill="#98E3DF" d="M369 445h4v4h-4zm-31 0h4v4h-4zm17 0h4v4h-4z"/><path fill="#FFE9F5" d="M372 445h4v4h-4zm17 0h4v4h-4z"/><path fill="#F2A6C0" d="M406 445h4v4h-4z"/><path fill="#FFE9F5" d="M423 445h4v4h-4z"/><path fill="#F2A6C0" d="M440 445h4v4h-4z"/><path fill="#98E3DF" d="M301 462h4v4h-4zm17 0h4v4h-4z"/><path fill="#F2A6C0" d="M335 462h4v4h-4z"/><path fill="#FFE9F5" d="M352 462h4v4h-4zm17 0h4v4h-4zm-31 0h4v4h-4z"/><path fill="#98E3DF" d="M355 462h4v4h-4z"/><path fill="#F2A6C0" d="M372 462h4v4h-4z"/><path fill="#98E3DF" d="M389 462h4v4h-4zm17 0h4v4h-4z"/><path fill="#FFE9F5" d="M423 462h4v4h-4z"/><path fill="#98E3DF" d="M440 462h4v4h-4z"/><path fill="#FFE9F5" d="M301 479h4v4h-4zm17 0h4v4h-4z"/><path fill="#98E3DF" d="M335 479h4v4h-4zm17 0h4v4h-4zm17 0h4v4h-4z"/><path fill="#FFE9F5" d="M338 479h4v4h-4z"/><path fill="#98E3DF" d="M355 479h4v4h-4z"/><path fill="#F2A6C0" d="M372 479h4v4h-4zm17 0h4v4h-4zm17 0h4v4h-4z"/><path fill="#FFE9F5" d="M423 479h4v4h-4z"/><path fill="#F2A6C0" d="M440 479h4v4h-4z"/><path fill="#98E3DF" d="M301 496h4v4h-4z"/><path fill="#F2A6C0" d="M318 496h4v4h-4z"/><path fill="#FFE9F5" d="M335 496h4v4h-4z"/><path fill="#98E3DF" d="M352 496h4v4h-4zm17 0h4v4h-4z"/><path fill="#FFE9F5" d="M338 496h4v4h-4zm17 0h4v4h-4z"/><path fill="#98E3DF" d="M372 496h4v4h-4z"/><path fill="#F2A6C0" d="M389 496h4v4h-4zm17 0h4v4h-4z"/><path fill="#98E3DF" d="M423 496h4v4h-4z"/><path fill="#F2A6C0" d="M440 496h4v4h-4z"/><path fill="#98E3DF" d="M301 513h4v4h-4z"/><path fill="#F2A6C0" d="M318 513h4v4h-4z"/><path fill="#FFE9F5" d="M335 513h4v4h-4z"/><path fill="#F2A6C0" d="M352 513h4v4h-4z"/><path fill="#FFE9F5" d="M369 513h4v4h-4z"/><path fill="#F2A6C0" d="M338 513h4v4h-4zm17 0h4v4h-4zm17 0h4v4h-4z"/><path fill="#FFE9F5" d="M389 513h4v4h-4z"/><path fill="#F2A6C0" d="M406 513h4v4h-4z"/><path fill="#FFE9F5" d="M423 513h4v4h-4z"/><path fill="#98E3DF" d="M440 513h4v4h-4z"/><path fill="#FFE9F5" d="M301 530h4v4h-4zm17 0h4v4h-4z"/><path fill="#98E3DF" d="M335 530h4v4h-4z"/><path fill="#F2A6C0" d="M352 530h4v4h-4z"/><path fill="#98E3DF" d="M369 530h4v4h-4z"/><path fill="#F2A6C0" d="M338 530h4v4h-4z"/><path fill="#98E3DF" d="M355 530h4v4h-4z"/><path fill="#F2A6C0" d="M372 530h4v4h-4z"/><path fill="#FFE9F5" d="M389 530h4v4h-4z"/><path fill="#98E3DF" d="M406 530h4v4h-4z"/><path fill="#F2A6C0" d="M423 530h4v4h-4zm17 0h4v4h-4z"/><path fill="#98E3DF" d="M301 547h4v4h-4z"/><path fill="#F2A6C0" d="M318 547h4v4h-4z"/><path fill="#FFE9F5" d="M335 547h4v4h-4z"/><path fill="#F2A6C0" d="M352 547h4v4h-4z"/><path fill="#98E3DF" d="M369 547h4v4h-4zm-31 0h4v4h-4zm17 0h4v4h-4z"/><path fill="#FFE9F5" d="M372 547h4v4h-4z"/><path fill="#98E3DF" d="M389 547h4v4h-4zm17 0h4v4h-4z"/><path fill="#FFE9F5" d="M423 547h4v4h-4zm17 0h4v4h-4z"/><path fill="#F2A6C0" d="M301 564h4v4h-4z"/><path fill="#98E3DF" d="M318 564h4v4h-4z"/><path fill="#FFE9F5" d="M335 564h4v4h-4zm17 0h4v4h-4zm17 0h4v4h-4z"/><path fill="#FFE9F5" d="M338 564h4v4h-4z"/><path fill="#F2A6C0" d="M355 564h4v4h-4zm17 0h4v4h-4z"/><path fill="#98E3DF" d="M389 564h4v4h-4z"/><path fill="#F2A6C0" d="M406 564h4v4h-4z"/><path fill="#98E3DF" d="M423 564h4v4h-4zm17 0h4v4h-4z"/></g></svg>