<svg width="1684" height="680" fill="none" xmlns="http://www.w3.org/2000/svg"><path fill-rule="evenodd" clip-rule="evenodd" d="M1549.26 476.068c34.23-.087 58.5-53.472 90.85-42.267 29.38 10.174 25.05 54.814 32.54 85 6.88 27.759 15.45 55.297 9.16 83.198-6.71 29.804-15.63 69.768-45.28 77.091-32.47 8.021-54.18-39.485-87.27-44.353-24.86-3.657-47.24 30.818-70.43 21.154-22.47-9.359-30.86-39.421-31.81-63.748-.85-21.753 25.47-35.953 27.08-57.663 2.57-34.549-42.71-78.963-15.36-100.217 26.9-20.909 56.45 41.892 90.52 41.805z" fill="#FFF8FA"/><g opacity=".3"><path fill="#F2A6C0" d="M0 0h4v4H0z"/><path fill="#98E3DF" d="M17 0h4v4h-4zm17 0h4v4h-4z"/><path fill="#F2A6C0" d="M51 0h4v4h-4z"/><path fill="#98E3DF" d="M68 0h4v4h-4z"/><path fill="#F2A6C0" d="M85 0h4v4h-4z"/><path fill="#FFE9F5" d="M102 0h4v4h-4zm17 0h4v4h-4z"/><path fill="#F2A6C0" d="M136 0h4v4h-4z"/><path fill="#FFE9F5" d="M153 0h4v4h-4z"/><path fill="#F2A6C0" d="M170 0h4v4h-4z"/><path fill="#FFE9F5" d="M187 0h4v4h-4z"/><path fill="#98E3DF" d="M204 0h4v4h-4z"/><path fill="#FFE9F5" d="M221 0h4v4h-4z"/><path fill="#98E3DF" d="M238 0h4v4h-4z"/><path fill="#FFE9F5" d="M0 17h4v4H0zm17 0h4v4h-4z"/><path fill="#F2A6C0" d="M34 17h4v4h-4zm17 0h4v4h-4z"/><path fill="#98E3DF" d="M68 17h4v4h-4z"/><path fill="#FFE9F5" d="M85 17h4v4h-4z"/><path fill="#98E3DF" d="M102 17h4v4h-4z"/><path fill="#F2A6C0" d="M119 17h4v4h-4zm17 0h4v4h-4zm17 0h4v4h-4zm17 0h4v4h-4z"/><path fill="#FFE9F5" d="M187 17h4v4h-4zm17 0h4v4h-4zm17 0h4v4h-4z"/><path fill="#F2A6C0" d="M238 17h4v4h-4z"/><path fill="#FFE9F5" d="M0 34h4v4H0z"/><path fill="#98E3DF" d="M17 34h4v4h-4z"/><path fill="#FFE9F5" d="M34 34h4v4h-4z"/><path fill="#F2A6C0" d="M51 34h4v4h-4z"/><path fill="#98E3DF" d="M68 34h4v4h-4zm17 0h4v4h-4zm17 0h4v4h-4z"/><path fill="#FFE9F5" d="M119 34h4v4h-4zm17 0h4v4h-4z"/><path fill="#F2A6C0" d="M153 34h4v4h-4z"/><path fill="#FFE9F5" d="M170 34h4v4h-4z"/><path fill="#F2A6C0" d="M187 34h4v4h-4z"/><path fill="#98E3DF" d="M204 34h4v4h-4zm17 0h4v4h-4zm17 0h4v4h-4zM0 51h4v4H0zm17 0h4v4h-4z"/><path fill="#F2A6C0" d="M34 51h4v4h-4z"/><path fill="#FFE9F5" d="M51 51h4v4h-4zm17 0h4v4h-4zm17 0h4v4h-4z"/><path fill="#98E3DF" d="M102 51h4v4h-4z"/><path fill="#F2A6C0" d="M119 51h4v4h-4z"/><path fill="#98E3DF" d="M136 51h4v4h-4zm17 0h4v4h-4z"/><path fill="#FFE9F5" d="M170 51h4v4h-4z"/><path fill="#98E3DF" d="M187 51h4v4h-4z"/><path fill="#F2A6C0" d="M204 51h4v4h-4z"/><path fill="#FFE9F5" d="M221 51h4v4h-4zm17 0h4v4h-4zM0 68h4v4H0zm17 0h4v4h-4z"/><path fill="#98E3DF" d="M34 68h4v4h-4zm17 0h4v4h-4zm17 0h4v4h-4z"/><path fill="#FFE9F5" d="M85 68h4v4h-4z"/><path fill="#98E3DF" d="M102 68h4v4h-4z"/><path fill="#F2A6C0" d="M119 68h4v4h-4zm17 0h4v4h-4zm17 0h4v4h-4z"/><path fill="#FFE9F5" d="M170 68h4v4h-4z"/><path fill="#F2A6C0" d="M187 68h4v4h-4z"/><path fill="#FFE9F5" d="M204 68h4v4h-4z"/><path fill="#F2A6C0" d="M221 68h4v4h-4z"/><path fill="#FFE9F5" d="M238 68h4v4h-4z"/><path fill="#98E3DF" d="M0 85h4v4H0z"/><path fill="#F2A6C0" d="M17 85h4v4h-4z"/><path fill="#FFE9F5" d="M34 85h4v4h-4z"/><path fill="#98E3DF" d="M51 85h4v4h-4zm17 0h4v4h-4z"/><path fill="#FFE9F5" d="M85 85h4v4h-4zm17 0h4v4h-4z"/><path fill="#98E3DF" d="M119 85h4v4h-4z"/><path fill="#F2A6C0" d="M136 85h4v4h-4zm17 0h4v4h-4z"/><path fill="#98E3DF" d="M170 85h4v4h-4z"/><path fill="#F2A6C0" d="M187 85h4v4h-4zm17 0h4v4h-4z"/><path fill="#98E3DF" d="M221 85h4v4h-4z"/><path fill="#FFE9F5" d="M238 85h4v4h-4z"/><path fill="#98E3DF" d="M0 102h4v4H0z"/><path fill="#F2A6C0" d="M17 102h4v4h-4z"/><path fill="#FFE9F5" d="M34 102h4v4h-4z"/><path fill="#F2A6C0" d="M51 102h4v4h-4z"/><path fill="#FFE9F5" d="M68 102h4v4h-4z"/><path fill="#F2A6C0" d="M85 102h4v4h-4zm17 0h4v4h-4zm17 0h4v4h-4z"/><path fill="#FFE9F5" d="M136 102h4v4h-4z"/><path fill="#F2A6C0" d="M153 102h4v4h-4z"/><path fill="#FFE9F5" d="M170 102h4v4h-4z"/><path fill="#98E3DF" d="M187 102h4v4h-4z"/><path fill="#FFE9F5" d="M204 102h4v4h-4z"/><path fill="#98E3DF" d="M221 102h4v4h-4z"/><path fill="#F2A6C0" d="M238 102h4v4h-4z"/><path fill="#FFE9F5" d="M0 119h4v4H0zm17 0h4v4h-4z"/><path fill="#98E3DF" d="M34 119h4v4h-4z"/><path fill="#F2A6C0" d="M51 119h4v4h-4z"/><path fill="#98E3DF" d="M68 119h4v4h-4z"/><path fill="#F2A6C0" d="M85 119h4v4h-4z"/><path fill="#98E3DF" d="M102 119h4v4h-4z"/><path fill="#F2A6C0" d="M119 119h4v4h-4z"/><path fill="#FFE9F5" d="M136 119h4v4h-4z"/><path fill="#98E3DF" d="M153 119h4v4h-4z"/><path fill="#F2A6C0" d="M170 119h4v4h-4zm17 0h4v4h-4z"/><path fill="#FFE9F5" d="M204 119h4v4h-4z"/><path fill="#F2A6C0" d="M221 119h4v4h-4z"/><path fill="#98E3DF" d="M238 119h4v4h-4zM0 136h4v4H0z"/><path fill="#F2A6C0" d="M17 136h4v4h-4z"/><path fill="#FFE9F5" d="M34 136h4v4h-4z"/><path fill="#F2A6C0" d="M51 136h4v4h-4z"/><path fill="#98E3DF" d="M68 136h4v4h-4zm17 0h4v4h-4zm17 0h4v4h-4z"/><path fill="#FFE9F5" d="M119 136h4v4h-4z"/><path fill="#98E3DF" d="M136 136h4v4h-4zm17 0h4v4h-4z"/><path fill="#FFE9F5" d="M170 136h4v4h-4zm17 0h4v4h-4z"/><path fill="#F2A6C0" d="M204 136h4v4h-4z"/><path fill="#98E3DF" d="M221 136h4v4h-4z"/><path fill="#F2A6C0" d="M238 136h4v4h-4zM0 153h4v4H0z"/><path fill="#98E3DF" d="M17 153h4v4h-4z"/><path fill="#FFE9F5" d="M34 153h4v4h-4zm17 0h4v4h-4zm17 0h4v4h-4zm17 0h4v4h-4z"/><path fill="#F2A6C0" d="M102 153h4v4h-4zm17 0h4v4h-4z"/><path fill="#98E3DF" d="M136 153h4v4h-4z"/><path fill="#F2A6C0" d="M153 153h4v4h-4z"/><path fill="#98E3DF" d="M170 153h4v4h-4zm17 0h4v4h-4zm17 0h4v4h-4z"/><path fill="#FFE9F5" d="M221 153h4v4h-4z"/><path fill="#F2A6C0" d="M238 153h4v4h-4z"/></g></svg>