<svg width="254" height="621" fill="none" xmlns="http://www.w3.org/2000/svg"><g opacity=".3"><rect x="134" width="5" height="5" rx="1" fill="#F2A6C0"/><rect x="149" width="5" height="5" rx="1" fill="#FFE9F5"/><rect x="116" width="5" height="5" rx="1" fill="#98E3DF"/><rect x="131" width="5" height="5" rx="1" fill="#FFE9F5"/><rect x="146" width="5" height="5" rx="1" fill="#F2A6C0"/><rect x="161" width="5" height="5" rx="1" fill="#98E3DF"/><rect x="176" width="5" height="5" rx="1" fill="#F2A6C0"/><rect x="191" width="5" height="5" rx="1" fill="#FFE9F5"/><rect x="206" width="5" height="5" rx="1" fill="#F2A6C0"/><rect x="221" width="5" height="5" rx="1" fill="#F2A6C0"/><rect x="134" y="15" width="5" height="5" rx="1" fill="#98E3DF"/><rect x="149" y="15" width="5" height="5" rx="1" fill="#F2A6C0"/><rect x="116" y="15" width="5" height="5" rx="1" fill="#FFE9F5"/><rect x="131" y="15" width="5" height="5" rx="1" fill="#F2A6C0"/><rect x="146" y="15" width="5" height="5" rx="1" fill="#F2A6C0"/><rect x="161" y="15" width="5" height="5" rx="1" fill="#FFE9F5"/><rect x="176" y="15" width="5" height="5" rx="1" fill="#FFE9F5"/><rect x="191" y="15" width="5" height="5" rx="1" fill="#FFE9F5"/><rect x="206" y="15" width="5" height="5" rx="1" fill="#FFE9F5"/><rect x="221" y="15" width="5" height="5" rx="1" fill="#98E3DF"/><rect x="134" y="30" width="5" height="5" rx="1" fill="#F2A6C0"/><rect x="149" y="30" width="5" height="5" rx="1" fill="#FFE9F5"/><rect x="116" y="30" width="5" height="5" rx="1" fill="#FFE9F5"/><rect x="131" y="30" width="5" height="5" rx="1" fill="#F2A6C0"/><rect x="146" y="30" width="5" height="5" rx="1" fill="#98E3DF"/><rect x="161" y="30" width="5" height="5" rx="1" fill="#FFE9F5"/><rect x="176" y="30" width="5" height="5" rx="1" fill="#FFE9F5"/><rect x="191" y="30" width="5" height="5" rx="1" fill="#98E3DF"/><rect x="206" y="30" width="5" height="5" rx="1" fill="#98E3DF"/><rect x="221" y="30" width="5" height="5" rx="1" fill="#FFE9F5"/><rect x="134" y="45" width="5" height="5" rx="1" fill="#98E3DF"/><rect x="149" y="45" width="5" height="5" rx="1" fill="#F2A6C0"/><rect x="116" y="45" width="5" height="5" rx="1" fill="#F2A6C0"/><rect x="131" y="45" width="5" height="5" rx="1" fill="#98E3DF"/><rect x="146" y="45" width="5" height="5" rx="1" fill="#F2A6C0"/><rect x="161" y="45" width="5" height="5" rx="1" fill="#FFE9F5"/><rect x="176" y="45" width="5" height="5" rx="1" fill="#98E3DF"/><rect x="191" y="45" width="5" height="5" rx="1" fill="#98E3DF"/><rect x="206" y="45" width="5" height="5" rx="1" fill="#FFE9F5"/><rect x="221" y="45" width="5" height="5" rx="1" fill="#F2A6C0"/><rect x="134" y="60" width="5" height="5" rx="1" fill="#FFE9F5"/><rect x="149" y="60" width="5" height="5" rx="1" fill="#F2A6C0"/><rect x="116" y="60" width="5" height="5" rx="1" fill="#98E3DF"/><rect x="131" y="60" width="5" height="5" rx="1" fill="#FFE9F5"/><rect x="146" y="60" width="5" height="5" rx="1" fill="#98E3DF"/><rect x="161" y="60" width="5" height="5" rx="1" fill="#98E3DF"/><rect x="176" y="60" width="5" height="5" rx="1" fill="#F2A6C0"/><rect x="191" y="60" width="5" height="5" rx="1" fill="#F2A6C0"/><rect x="206" y="60" width="5" height="5" rx="1" fill="#F2A6C0"/><rect x="221" y="60" width="5" height="5" rx="1" fill="#98E3DF"/><rect x="134" y="75" width="5" height="5" rx="1" fill="#98E3DF"/><rect x="149" y="75" width="5" height="5" rx="1" fill="#FFE9F5"/><rect x="116" y="75" width="5" height="5" rx="1" fill="#98E3DF"/><rect x="131" y="75" width="5" height="5" rx="1" fill="#FFE9F5"/><rect x="146" y="75" width="5" height="5" rx="1" fill="#FFE9F5"/><rect x="161" y="75" width="5" height="5" rx="1" fill="#98E3DF"/><rect x="176" y="75" width="5" height="5" rx="1" fill="#98E3DF"/><rect x="191" y="75" width="5" height="5" rx="1" fill="#FFE9F5"/><rect x="206" y="75" width="5" height="5" rx="1" fill="#FFE9F5"/><rect x="221" y="75" width="5" height="5" rx="1" fill="#FFE9F5"/><rect x="134" y="90" width="5" height="5" rx="1" fill="#98E3DF"/><rect x="149" y="90" width="5" height="5" rx="1" fill="#F2A6C0"/><rect x="116" y="90" width="5" height="5" rx="1" fill="#F2A6C0"/><rect x="131" y="90" width="5" height="5" rx="1" fill="#98E3DF"/><rect x="146" y="90" width="5" height="5" rx="1" fill="#F2A6C0"/><rect x="161" y="90" width="5" height="5" rx="1" fill="#F2A6C0"/><rect x="176" y="90" width="5" height="5" rx="1" fill="#F2A6C0"/><rect x="191" y="90" width="5" height="5" rx="1" fill="#FFE9F5"/><rect x="206" y="90" width="5" height="5" rx="1" fill="#98E3DF"/><rect x="221" y="90" width="5" height="5" rx="1" fill="#98E3DF"/><rect x="134" y="105" width="5" height="5" rx="1" fill="#98E3DF"/><rect x="149" y="105" width="5" height="5" rx="1" fill="#F2A6C0"/><rect x="116" y="105" width="5" height="5" rx="1" fill="#98E3DF"/><rect x="131" y="105" width="5" height="5" rx="1" fill="#FFE9F5"/><rect x="146" y="105" width="5" height="5" rx="1" fill="#FFE9F5"/><rect x="161" y="105" width="5" height="5" rx="1" fill="#FFE9F5"/><rect x="176" y="105" width="5" height="5" rx="1" fill="#98E3DF"/><rect x="191" y="105" width="5" height="5" rx="1" fill="#98E3DF"/><rect x="206" y="105" width="5" height="5" rx="1" fill="#F2A6C0"/><rect x="221" y="105" width="5" height="5" rx="1" fill="#F2A6C0"/></g><path fill-rule="evenodd" clip-rule="evenodd" d="M146.045 349.621c23.632 4.393 49.798 4.172 67.698 20.219 17.172 15.396 22.324 40.079 25.099 62.977 2.261 18.662-12.471 35.433-10.907 54.166 2.301 27.551 37.929 55.668 21.962 78.234-15.212 21.499-52.78-9.241-77.397.111-28.237 10.728-39.077 53.823-69.231 55.595-28.9 1.698-52.435-24.9-70.692-47.372-17.91-22.047-38.809-50.331-30.827-77.593 8.475-28.944 58.985-26.642 69.61-54.867 12.044-31.992-32.993-73.353-11.375-99.83 18.607-22.79 57.137 2.984 86.06 8.36z" fill="#F2FDFF"/></svg>