<svg width="1648" height="543" fill="none" xmlns="http://www.w3.org/2000/svg"><path fill-rule="evenodd" clip-rule="evenodd" d="M980.246 281.001c46.474-.247 77.804 44.493 89.444 90.08 9.52 37.317-11.51 72.549-42.06 95.524-31.788 23.91-73.778 38.958-106.263 16.024-34.057-24.043-39.494-70.284-27.717-110.612 13.045-44.674 40.614-90.772 86.596-91.016z" fill="#F4FDFC"/><path fill-rule="evenodd" clip-rule="evenodd" d="M83.08 9.931c20.365 2.086 42.458-3.02 57.318 11.044 17.128 16.211 28.384 41.075 21.598 63.648-6.485 21.575-32.734 26.098-52.064 37.703-24.032 14.429-44.369 44.406-71.212 36.31-28.484-8.591-39.754-42.358-45.518-71.515-5.519-27.916-5.96-61.069 15.642-79.62 19.75-16.964 48.323-.224 74.236 2.43z" fill="#FFF8FA"/><g opacity=".3"><path fill="#FFE9F5" d="M1446 233h5.124v5.124H1446zm21.78 0h5.124v5.124h-5.124z"/><path fill="#98E3DF" d="M1489.55 233h5.124v5.124h-5.124z"/><path fill="#FFE9F5" d="M1511.33 233h5.124v5.124h-5.124z"/><path fill="#F2A6C0" d="M1533.11 233h5.124v5.124h-5.124z"/><path fill="#FFE9F5" d="M1554.88 233h5.124v5.124h-5.124zm21.78 0h5.124v5.124h-5.124zm21.78 0h5.124v5.124h-5.124z"/><path fill="#98E3DF" d="M1620.21 233h5.124v5.124h-5.124z"/><path fill="#F2A6C0" d="M1641.99 233h5.124v5.124h-5.124z"/><path fill="#98E3DF" d="M1446 254.777h5.124v5.124H1446z"/><path fill="#FFE9F5" d="M1467.78 254.777h5.124v5.124h-5.124z"/><path fill="#98E3DF" d="M1489.55 254.777h5.124v5.124h-5.124zm21.78 0h5.124v5.124h-5.124z"/><path fill="#F2A6C0" d="M1533.11 254.777h5.124v5.124h-5.124zm21.77 0h5.124v5.124h-5.124z"/><path fill="#98E3DF" d="M1576.66 254.777h5.124v5.124h-5.124zm21.78 0h5.124v5.124h-5.124z"/><path fill="#FFE9F5" d="M1620.21 254.777h5.124v5.124h-5.124z"/><path fill="#98E3DF" d="M1641.99 254.777h5.124v5.124h-5.124z"/><path fill="#FFE9F5" d="M1446 276.554h5.124v5.124H1446z"/><path fill="#F2A6C0" d="M1467.78 276.554h5.124v5.124h-5.124zm21.77 0h5.124v5.124h-5.124z"/><path fill="#FFE9F5" d="M1511.33 276.554h5.124v5.124h-5.124z"/><path fill="#F2A6C0" d="M1533.11 276.554h5.124v5.124h-5.124zm21.77 0h5.124v5.124h-5.124z"/><path fill="#98E3DF" d="M1576.66 276.554h5.124v5.124h-5.124z"/><path fill="#FFE9F5" d="M1598.44 276.554h5.124v5.124h-5.124z"/><path fill="#98E3DF" d="M1620.21 276.554h5.124v5.124h-5.124zm21.78 0h5.124v5.124h-5.124z"/><path fill="#F2A6C0" d="M1446 298.331h5.124v5.124H1446zm21.78 0h5.124v5.124h-5.124z"/><path fill="#FFE9F5" d="M1489.55 298.331h5.124v5.124h-5.124zm21.78 0h5.124v5.124h-5.124z"/><path fill="#98E3DF" d="M1533.11 298.331h5.124v5.124h-5.124z"/><path fill="#F2A6C0" d="M1554.88 298.331h5.124v5.124h-5.124z"/><path fill="#98E3DF" d="M1576.66 298.331h5.124v5.124h-5.124zm21.78 0h5.124v5.124h-5.124z"/><path fill="#F2A6C0" d="M1620.21 298.331h5.124v5.124h-5.124z"/><path fill="#98E3DF" d="M1641.99 298.331h5.124v5.124h-5.124z"/><path fill="#FFE9F5" d="M1446 320.107h5.124v5.124H1446zm21.78 0h5.124v5.124h-5.124zm21.77 0h5.124v5.124h-5.124zm21.78 0h5.124v5.124h-5.124zm21.78 0h5.124v5.124h-5.124z"/><path fill="#98E3DF" d="M1554.88 320.107h5.124v5.124h-5.124z"/><path fill="#F2A6C0" d="M1576.66 320.107h5.124v5.124h-5.124zm21.78 0h5.124v5.124h-5.124z"/><path fill="#98E3DF" d="M1620.21 320.107h5.124v5.124h-5.124zm21.78 0h5.124v5.124h-5.124z"/><path fill="#FFE9F5" d="M1446 341.884h5.124v5.124H1446zm21.78 0h5.124v5.124h-5.124z"/><path fill="#F2A6C0" d="M1489.55 341.884h5.124v5.124h-5.124z"/><path fill="#FFE9F5" d="M1511.33 341.884h5.124v5.124h-5.124z"/><path fill="#98E3DF" d="M1533.11 341.884h5.124v5.124h-5.124z"/><path fill="#F2A6C0" d="M1554.88 341.884h5.124v5.124h-5.124z"/><path fill="#98E3DF" d="M1576.66 341.884h5.124v5.124h-5.124z"/><path fill="#F2A6C0" d="M1598.44 341.884h5.124v5.124h-5.124z"/><path fill="#98E3DF" d="M1620.21 341.884h5.124v5.124h-5.124z"/><path fill="#FFE9F5" d="M1641.99 341.884h5.124v5.124h-5.124zM1446 363.661h5.124v5.124H1446z"/><path fill="#F2A6C0" d="M1467.78 363.661h5.124v5.124h-5.124zm21.77 0h5.124v5.124h-5.124z"/><path fill="#FFE9F5" d="M1511.33 363.661h5.124v5.124h-5.124z"/><path fill="#F2A6C0" d="M1533.11 363.661h5.124v5.124h-5.124zm21.77 0h5.124v5.124h-5.124z"/><path fill="#FFE9F5" d="M1576.66 363.661h5.124v5.124h-5.124zm21.78 0h5.124v5.124h-5.124z"/><path fill="#98E3DF" d="M1620.21 363.661h5.124v5.124h-5.124z"/><path fill="#FFE9F5" d="M1641.99 363.661h5.124v5.124h-5.124z"/><path fill="#F2A6C0" d="M1446 385.438h5.124v5.124H1446z"/><path fill="#98E3DF" d="M1467.78 385.438h5.124v5.124h-5.124z"/><path fill="#F2A6C0" d="M1489.55 385.438h5.124v5.124h-5.124z"/><path fill="#98E3DF" d="M1511.33 385.438h5.124v5.124h-5.124z"/><path fill="#F2A6C0" d="M1533.11 385.438h5.124v5.124h-5.124z"/><path fill="#FFE9F5" d="M1554.88 385.438h5.124v5.124h-5.124z"/><path fill="#F2A6C0" d="M1576.66 385.438h5.124v5.124h-5.124z"/><path fill="#98E3DF" d="M1598.44 385.438h5.124v5.124h-5.124z"/><path fill="#F2A6C0" d="M1620.21 385.438h5.124v5.124h-5.124z"/><path fill="#FFE9F5" d="M1641.99 385.438h5.124v5.124h-5.124zM1446 407.215h5.124v5.124H1446z"/><path fill="#F2A6C0" d="M1467.78 407.215h5.124v5.124h-5.124z"/><path fill="#98E3DF" d="M1489.55 407.215h5.124v5.124h-5.124zm21.78 0h5.124v5.124h-5.124zm21.78 0h5.124v5.124h-5.124z"/><path fill="#FFE9F5" d="M1554.88 407.215h5.124v5.124h-5.124z"/><path fill="#F2A6C0" d="M1576.66 407.215h5.124v5.124h-5.124zm21.78 0h5.124v5.124h-5.124z"/><path fill="#98E3DF" d="M1620.21 407.215h5.124v5.124h-5.124zm21.78 0h5.124v5.124h-5.124z"/><path fill="#FFE9F5" d="M1446 428.992h5.124v5.124H1446zm21.78 0h5.124v5.124h-5.124zm21.77 0h5.124v5.124h-5.124z"/><path fill="#98E3DF" d="M1511.33 428.992h5.124v5.124h-5.124z"/><path fill="#FFE9F5" d="M1533.11 428.992h5.124v5.124h-5.124z"/><path fill="#F2A6C0" d="M1554.88 428.992h5.124v5.124h-5.124z"/><path fill="#98E3DF" d="M1576.66 428.992h5.124v5.124h-5.124z"/><path fill="#F2A6C0" d="M1598.44 428.992h5.124v5.124h-5.124zm21.77 0h5.124v5.124h-5.124zm21.78 0h5.124v5.124h-5.124zM1446 450.769h5.124v5.124H1446zm21.78 0h5.124v5.124h-5.124z"/><path fill="#98E3DF" d="M1489.55 450.769h5.124v5.124h-5.124zm21.78 0h5.124v5.124h-5.124zm21.78 0h5.124v5.124h-5.124z"/><path fill="#F2A6C0" d="M1554.88 450.769h5.124v5.124h-5.124z"/><path fill="#98E3DF" d="M1576.66 450.769h5.124v5.124h-5.124z"/><path fill="#F2A6C0" d="M1598.44 450.769h5.124v5.124h-5.124zm21.77 0h5.124v5.124h-5.124z"/><path fill="#98E3DF" d="M1641.99 450.769h5.124v5.124h-5.124z"/><path fill="#FFE9F5" d="M1446 472.545h5.124v5.124H1446z"/><path fill="#F2A6C0" d="M1467.78 472.545h5.124v5.124h-5.124zm21.77 0h5.124v5.124h-5.124z"/><path fill="#98E3DF" d="M1511.33 472.545h5.124v5.124h-5.124z"/><path fill="#FFE9F5" d="M1533.11 472.545h5.124v5.124h-5.124zm21.77 0h5.124v5.124h-5.124zm21.78 0h5.124v5.124h-5.124z"/><path fill="#F2A6C0" d="M1598.44 472.545h5.124v5.124h-5.124zm21.77 0h5.124v5.124h-5.124z"/><path fill="#98E3DF" d="M1641.99 472.545h5.124v5.124h-5.124zM1446 494.322h5.124v5.124H1446zm21.78 0h5.124v5.124h-5.124z"/><path fill="#FFE9F5" d="M1489.55 494.322h5.124v5.124h-5.124zm21.78 0h5.124v5.124h-5.124z"/><path fill="#F2A6C0" d="M1533.11 494.322h5.124v5.124h-5.124zm21.77 0h5.124v5.124h-5.124zm21.78 0h5.124v5.124h-5.124z"/><path fill="#FFE9F5" d="M1598.44 494.322h5.124v5.124h-5.124z"/><path fill="#98E3DF" d="M1620.21 494.322h5.124v5.124h-5.124zm21.78 0h5.124v5.124h-5.124z"/><path fill="#F2A6C0" d="M1446 516.099h5.124v5.124H1446z"/><path fill="#98E3DF" d="M1467.78 516.099h5.124v5.124h-5.124zm21.77 0h5.124v5.124h-5.124z"/><path fill="#FFE9F5" d="M1511.33 516.099h5.124v5.124h-5.124zm21.78 0h5.124v5.124h-5.124zm21.77 0h5.124v5.124h-5.124z"/><path fill="#98E3DF" d="M1576.66 516.099h5.124v5.124h-5.124zm21.78 0h5.124v5.124h-5.124z"/><path fill="#FFE9F5" d="M1620.21 516.099h5.124v5.124h-5.124z"/><path fill="#98E3DF" d="M1641.99 516.099h5.124v5.124h-5.124z"/><path fill="#F2A6C0" d="M1446 537.876h5.124V543H1446zm21.78 0h5.124V543h-5.124z"/><path fill="#FFE9F5" d="M1489.55 537.876h5.124V543h-5.124z"/><path fill="#F2A6C0" d="M1511.33 537.876h5.124V543h-5.124z"/><path fill="#FFE9F5" d="M1533.11 537.876h5.124V543h-5.124zm21.77 0h5.124V543h-5.124z"/><path fill="#98E3DF" d="M1576.66 537.876h5.124V543h-5.124z"/><path fill="#F2A6C0" d="M1598.44 537.876h5.124V543h-5.124z"/><path fill="#98E3DF" d="M1620.21 537.876h5.124V543h-5.124z"/><path fill="#FFE9F5" d="M1641.99 537.876h5.124V543h-5.124z"/></g></svg>