<svg width="3368" height="564" fill="none" xmlns="http://www.w3.org/2000/svg"><path d="M158.8 468.6c0-11.2 23-54.6 69-130.2-32.8 0-54.6 1.4-65.4 4.2-18 4.4-31.4 13.4-40.2 27-3.2 4.4-6 6.8-8.4 7.2-2 .4-3-.4-3-2.4 0-2.4.8-4.4 2.4-6 15.2-20.4 30.2-34.4 45-42 14.8-7.6 38.2-11.4 70.2-11.4h14.4c24.4-37.2 58.6-92.4 102.6-165.6 16.4-30.8 24.6-55.8 24.6-75 0-30.8-18.8-46.4-56.4-46.8H307c-51.2 0-97.8 12.8-139.8 38.4-42 25.6-75.2 57.4-99.6 95.4C43.2 199.4 31 233.6 31 264c0 37.2 17.4 55.8 52.2 55.8 27.6 0 51.2-12.2 70.8-36.6 19.6-24.4 29.4-47.6 29.4-69.6 0-12.4-3.2-22.6-9.6-30.6-.8-.8-1.2-1.8-1.2-3 0-2.8 1.6-4.2 4.8-4.2 1.6 0 2.8.6 3.6 1.8 8 10.4 12 22.8 12 37.2 0 24.4-10 49.4-30 75-20 25.2-41 39.2-63 42-6.8 1.2-13.4 1.8-19.8 1.8-25.6 0-45.4-8.2-59.4-24.6C7.2 294.2.4 274.2.4 249c0-10.4 1.2-21 3.6-31.8 12-54 46.6-101.2 103.8-141.6C165.4 35.2 230 15 301.6 15c27.6 0 51.2 6 70.8 18 20 11.6 30 28 30 49.2 0 21.2-7.4 43.6-22.2 67.2L271.6 316.2c12.8.4 35.6 2.4 68.4 6 33.2 3.2 58 4.8 74.4 4.8 16.8 0 28-.2 33.6-.6l22.8-37.8c38.8-65.2 83.6-126 134.4-182.4C656.4 49.4 701 14.2 739 .6c1.2-.4 2.4-.6 3.6-.6 2.8 0 4.2 1.6 4.2 4.8 0 1.2-.6 2.2-1.8 3-25.6 14.4-62.4 49.4-110.4 105C587 168 545.8 224.8 511 283.2l-23.4 39.6c18.4-2.4 31.6-7 39.6-13.8 1.6-1.2 3-.4 4.2 2.4 1.2 2.4 1 4.2-.6 5.4-12 9.2-29 15.8-51 19.8-28 52-42 88.6-42 109.8 0 13.6 5.8 20.4 17.4 20.4 8 0 17.2-2.8 27.6-8.4 10.8-5.2 18-9.8 21.6-13.8 3.6-3.6 5.8-5.4 6.6-5.4.8 0 1 1.2.6 3.6-.4 2.8-1.2 5-2.4 6.6-6.8 6.4-17 13.2-30.6 20.4-13.6 7.2-24.6 10.8-33 10.8-8.4 0-14.6-1.4-18.6-4.2-12.8-8.4-19.2-23-19.2-43.8 0-20.8 10.6-51.2 31.8-91.2-14.8 1.2-28.6 1.8-41.4 1.8-4.4 0-51.4-1.4-141-4.2-28.4 44.8-51.2 85.6-68.4 122.4-5.2 10.8-11.6 16.2-19.2 16.2-7.2 0-10.8-3-10.8-9zm600.703-207l8.4-1.8c4.4 0 8.6 1.8 12.6 5.4 4 3.6 6 6.4 6 8.4s-12.4 21.4-37.2 58.2c-24.8 36.4-37.2 61.8-37.2 76.2 0 1.2.2 2.4.6 3.6 2 9.2 6.4 13.8 13.2 13.8 20.8 0 58.8-34.4 114-103.2 1.2-1.6 2.6-2.4 4.2-2.4s2.4 1.6 2.4 4.8c0 2.8-1.8 6.6-5.4 11.4-51.2 68.4-90.2 102.6-117 102.6-3.6 0-7-.6-10.2-1.8-17.6-6.8-26.4-20-26.4-39.6 0-6.8.8-13.6 2.4-20.4l-37.2 36c-23.6 20.8-40.8 31.2-51.6 31.2-10.4 0-20.4-3.4-30-10.2-10.8-8-16.2-18.6-16.2-31.8 0-29.2 20.4-64 61.2-104.4 40.8-40.8 78.2-61.2 112.2-61.2 13.2 0 22 4.6 26.4 13.8 1.2 3.2 2.2 6 3 8.4.8 2 1.4 3 1.8 3zm-179.4 147.6c0 14.4 5 21.6 15 21.6 23.2 0 54.8-25.4 94.8-76.2l63.6-87.6c-3.2-5.6-8.4-8.4-15.6-8.4-24.4 0-56.8 19-97.2 57-40.4 37.6-60.6 68.8-60.6 93.6zm453.067-103.8c0 32.4-18.6 63.2-55.801 92.4-36.8 28.8-68.8 43.2-96 43.2-18 0-31.2-1.2-39.6-3.6-8-2.4-17-9.6-27-21.6-6.8 5.6-16 19.8-27.6 42.6-11.6 23.2-17.4 43-17.4 59.4 0 7.6 3.8 17.6 11.4 30 .8 2 .2 3.6-1.8 4.8-2 1.6-3.4 2.4-4.2 2.4-1.2 0-2.2-.2-3-.6-16.8-9.2-25.2-27.2-25.2-54 0-26.4 22-72.2 66-137.4 44.4-65.6 75-101.2 91.8-106.8 4-.8 6.6-1.2 7.8-1.2 6.8 0 10.2 7.4 10.2 22.2 4-4 12.2-7.8 24.6-11.4 15.2-4 26-6 32.4-6 14.4 0 26.801 4.2 37.201 12.6 10.8 8 16.2 19 16.2 33zm-30.6-6c0-15.2-9.001-22.8-27.001-22.8s-34.4 3.8-49.2 11.4c-6.8 3.2-25.6 20.8-56.4 52.8-30.8 32-46.2 52.6-46.2 61.8 0 7.2 5.4 12.6 16.2 16.2 11.2 3.6 22.4 5.4 33.6 5.4 22 0 49-12.4 81-37.2 32-25.2 48.001-54.4 48.001-87.6zm256.77 6c0 32.4-18.6 63.2-55.8 92.4-36.8 28.8-68.8 43.2-96 43.2-18 0-31.2-1.2-39.6-3.6-8-2.4-17-9.6-27-21.6-6.8 5.6-16 19.8-27.6 42.6-11.6 23.2-17.399 43-17.399 59.4 0 7.6 3.8 17.6 11.399 30 .8 2 .2 3.6-1.8 4.8-2 1.6-3.4 2.4-4.2 2.4-1.2 0-2.199-.2-2.999-.6-16.8-9.2-25.2-27.2-25.2-54 0-26.4 22-72.2 65.999-137.4 44.4-65.6 75-101.2 91.8-106.8 4-.8 6.6-1.2 7.8-1.2 6.8 0 10.2 7.4 10.2 22.2 4-4 12.2-7.8 24.6-11.4 15.2-4 26-6 32.4-6 14.4 0 26.8 4.2 37.2 12.6 10.8 8 16.2 19 16.2 33zm-30.6-6c0-15.2-9-22.8-27-22.8s-34.4 3.8-49.2 11.4c-6.8 3.2-25.6 20.8-56.4 52.8-30.8 32-46.2 52.6-46.2 61.8 0 7.2 5.4 12.6 16.2 16.2 11.2 3.6 22.4 5.4 33.6 5.4 22 0 49-12.4 81-37.2 32-25.2 48-54.4 48-87.6zm-3.03 211.2c19.2 24 35.8 36 49.8 36 22.8 0 47.4-18.2 73.8-54.6 19.2-26.8 38-60.6 56.4-101.4l22.8-55.2-88.2 69c-27.2 21.2-49 31.8-65.4 31.8-8.8 0-15.8-3-21-9-5.2-6-7.8-12.8-7.8-20.4 0-17.2 14.8-45.4 44.4-84.6 29.6-39.6 51.2-59.4 64.8-59.4 13.6 0 20.4 4.6 20.4 13.8 0 3.6-17.8 24.4-53.4 62.4-35.2 37.6-52.8 63-52.8 76.2 0 5.2 3.4 7.8 10.2 7.8 12.8 0 38.4-15 76.8-45 38.8-30 68-54.8 87.6-74.4 4.4-5.2 10.6-13 18.6-23.4 7.6-8.8 16-13.2 25.2-13.2s13.8 4.4 13.8 13.2c0 1.6-9 15.8-27 42.6s-27.4 41-28.2 42.6c-12.4 24-31.4 59-57 105-38.8 62.4-77.6 93.6-116.4 93.6-12.8 0-24-5.6-33.6-16.8-9.6-10.8-14.2-23-13.8-36.6zm727.27-33.6c-136.4 0-288.6 2.6-456.6 7.8-6.8 0-10.2-4.8-10.2-14.4 0-9.6 3.4-14.4 10.2-14.4h444c10 0 15.6 5.6 16.8 16.8l-4.2 4.2zm422.2-322.2c0 3.2-4.2 4.8-12.6 4.8-8 0-16.2-4-24.6-12-8-8.4-12-18.4-12-30 0-12 3.6-22.8 10.8-32.4 15.2-20.8 40.6-35.6 76.2-44.4 25.6-6.4 51.2-9.6 76.8-9.6h4.8c3.6 0 13.4.6 29.4 1.8-.8-5.2 1.2-10 6-14.4 5.2-4.8 11-7.2 17.4-7.2 12 0 17.8 8.6 17.4 25.8 43.2 7.6 66 19.2 68.4 34.8.4 3.6.6 6.6.6 9 0 8-2.4 12-7.2 12-4.4 0-5.8-4.8-4.2-14.4-10-14.8-29.8-25.2-59.4-31.2-7.2 32.4-44.8 102.8-112.8 211.2-45.2 71.2-97.8 130.8-157.8 178.8-68.8 54.4-133.6 81.6-194.4 81.6-37.2 0-64.8-9.4-82.8-28.2-18-18.8-27-39.6-27-62.4 0-23.2 4.4-43 13.2-59.4 21.2-40.8 51.8-72.6 91.8-95.4 29.6-17.2 57-25.8 82.2-25.8 27.2 0 48.4 6.6 63.6 19.8 15.6 13.2 23.4 29.8 23.4 49.8 0 21.6-8 41.2-24 58.8-10 11.2-18 16.8-24 16.8-1.6 0-2.4-.6-2.4-1.8 0-1.6.6-3.6 1.8-6 14.4-21.2 21.6-40.8 21.6-58.8 0-18.4-5-33.4-15-45-11.6-12.4-27.4-18.6-47.4-18.6-19.6 0-41.6 8-66 24-30 19.6-54.6 49-73.8 88.2-10 19.6-15 40-15 61.2 0 20.8 7.8 37.6 23.4 50.4 15.6 13.2 36.6 19.8 63 19.8 101.6 0 207.8-89.2 318.6-267.6 66.4-106.4 100.4-171.6 102-195.6-24-1.2-36.6-1.8-37.8-1.8-18.8 0-43 5.2-72.6 15.6-29.2 10.4-48.2 23.2-57 38.4-3.6 6-5.4 12.6-5.4 19.8 0 7.2 3.8 15.2 11.4 24 7.6 8.8 11.4 14 11.4 15.6zm250.96 289.8c-2 .4-6.4.6-13.2.6-6.4 0-13-2.6-19.8-7.8-6.4-5.2-9.6-11.8-9.6-19.8 0-8.4 1.4-17.6 4.2-27.6 3.2-10 5.4-17.6 6.6-22.8-46 53.6-82 80.4-108 80.4-16.4 0-25.4-10.2-27-30.6v-4.2c0-17.2 10.4-40.4 31.2-69.6-11.6 10.4-23.4 22.4-35.4 36-1.6 1.6-3.6 2.4-6 2.4-1.6 0-2.4-1-2.4-3s1.8-5.4 5.4-10.2l82.8-97.2c10.4-12 21-18 31.8-18s16.2 3.6 16.2 10.8c0 2.8-1.2 5.4-3.6 7.8-16 14.8-36.2 39.4-60.6 73.8-24 34.4-36 59.8-36 76.2 0 7.2 2.4 10.8 7.2 10.8 16.8 0 41.2-16.6 73.2-49.8 11.2-11.2 32-35.8 62.4-73.8 30.4-38.4 50.4-57.6 60-57.6 14.4 0 21.6 5.6 21.6 16.8 0 4-8.4 15.6-25.2 34.8-22.8 27.6-40.2 50.2-52.2 67.8-12 17.2-18 31.2-18 42s3 16.2 9 16.2c2.8 0 6-.8 9.6-2.4 27.6-12 60.6-40 99-84 2.4-2.8 4.8-4.2 7.2-4.2 2.4 0 3.6 1.4 3.6 4.2 0 2.4-1.4 5.2-4.2 8.4-17.2 20-37.4 40.2-60.6 60.6-23.2 20-39.6 31-49.2 33zm110.28-33.6c0 12 6.6 18 19.8 18 13.2 0 30.2-7 51-21s41-33 60.6-57c4.8-6.4 8.6-9.6 11.4-9.6 2.8 0 4.2 1.2 4.2 3.6 0 2.4-8.2 12.8-24.6 31.2-40 44-73.4 66-100.2 66-13.2 0-24.4-3-33.6-9-9.2-6.4-13.8-16-13.8-28.8 0-13.2 3.4-28.4 10.2-45.6 11.6-27.2 30.2-61.4 55.8-102.6 46.8-76 80-114 99.6-114 4 0 8 1.6 12 4.8 4.4 2.8 6.8 6 7.2 9.6-9.2 12.4-27 36.2-53.4 71.4-26 35.2-44 60.6-54 76.2-10 15.2-17.6 26.6-22.8 34.2-4.8 7.6-8.4 13.6-10.8 18-2.4 4-5.2 9.4-8.4 16.2-6.8 13.6-10.2 26.4-10.2 38.4zm88.9 99.6c19.2 24 35.8 36 49.8 36 22.8 0 47.4-18.2 73.8-54.6 19.2-26.8 38-60.6 56.4-101.4l22.8-55.2-88.2 69c-27.2 21.2-49 31.8-65.4 31.8-8.8 0-15.8-3-21-9-5.2-6-7.8-12.8-7.8-20.4 0-17.2 14.8-45.4 44.4-84.6 29.6-39.6 51.2-59.4 64.8-59.4 13.6 0 20.4 4.6 20.4 13.8 0 3.6-17.8 24.4-53.4 62.4-35.2 37.6-52.8 63-52.8 76.2 0 5.2 3.4 7.8 10.2 7.8 12.8 0 38.4-15 76.8-45 38.8-30 68-54.8 87.6-74.4 4.4-5.2 10.6-13 18.6-23.4 7.6-8.8 16-13.2 25.2-13.2s13.8 4.4 13.8 13.2c0 1.6-9 15.8-27 42.6s-27.4 41-28.2 42.6c-12.4 24-31.4 59-57 105-38.8 62.4-77.6 93.6-116.4 93.6-12.8 0-24-5.6-33.6-16.8-9.6-10.8-14.2-23-13.8-36.6zm455.47-249l8.4-1.8c4.4 0 8.6 1.8 12.6 5.4 4 3.6 6 6.4 6 8.4s-12.4 21.4-37.2 58.2c-24.8 36.4-37.2 61.8-37.2 76.2 0 1.2.2 2.4.6 3.6 2 9.2 6.4 13.8 13.2 13.8 20.8 0 58.8-34.4 114-103.2 1.2-1.6 2.6-2.4 4.2-2.4s2.4 1.6 2.4 4.8c0 2.8-1.8 6.6-5.4 11.4-51.2 68.4-90.2 102.6-117 102.6-3.6 0-7-.6-10.2-1.8-17.6-6.8-26.4-20-26.4-39.6 0-6.8.8-13.6 2.4-20.4l-37.2 36c-23.6 20.8-40.8 31.2-51.6 31.2-10.4 0-20.4-3.4-30-10.2-10.8-8-16.2-18.6-16.2-31.8 0-29.2 20.4-64 61.2-104.4 40.8-40.8 78.2-61.2 112.2-61.2 13.2 0 22 4.6 26.4 13.8 1.2 3.2 2.2 6 3 8.4.8 2 1.4 3 1.8 3zm-179.4 147.6c0 14.4 5 21.6 15 21.6 23.2 0 54.8-25.4 94.8-76.2l63.6-87.6c-3.2-5.6-8.4-8.4-15.6-8.4-24.4 0-56.8 19-97.2 57-40.4 37.6-60.6 68.8-60.6 93.6z" fill="#EC608F"/></svg>