<svg width="1920" height="793" fill="none" xmlns="http://www.w3.org/2000/svg"><path fill-rule="evenodd" clip-rule="evenodd" d="M48.452-21.98c33.211-.567 69.19 10.49 79.74 41.888 10.771 32.055-11.095 62.576-37.524 83.756-32.754 26.25-74.741 57.978-108.937 33.623-34.56-24.614-21.395-75.717-5.027-114.79 12-28.642 40.617-43.944 71.748-44.476z" fill="#FFF9FC"/><g opacity=".3"><path fill="#FFE9F5" d="M169 248h4v4h-4zm17 0h4v4h-4z"/><path fill="#98E3DF" d="M203 248h4v4h-4z"/><path fill="#FFE9F5" d="M220 248h4v4h-4z"/><path fill="#F2A6C0" d="M237 248h4v4h-4z"/><path fill="#FFE9F5" d="M254 248h4v4h-4zm17 0h4v4h-4zm17 0h4v4h-4z"/><path fill="#98E3DF" d="M305 248h4v4h-4z"/><path fill="#F2A6C0" d="M322 248h4v4h-4z"/><path fill="#98E3DF" d="M169 265h4v4h-4z"/><path fill="#FFE9F5" d="M186 265h4v4h-4z"/><path fill="#98E3DF" d="M203 265h4v4h-4zm17 0h4v4h-4z"/><path fill="#F2A6C0" d="M237 265h4v4h-4zm17 0h4v4h-4z"/><path fill="#98E3DF" d="M271 265h4v4h-4zm17 0h4v4h-4z"/><path fill="#FFE9F5" d="M305 265h4v4h-4z"/><path fill="#98E3DF" d="M322 265h4v4h-4z"/><path fill="#FFE9F5" d="M169 282h4v4h-4z"/><path fill="#F2A6C0" d="M186 282h4v4h-4zm17 0h4v4h-4z"/><path fill="#FFE9F5" d="M220 282h4v4h-4z"/><path fill="#F2A6C0" d="M237 282h4v4h-4zm17 0h4v4h-4z"/><path fill="#98E3DF" d="M271 282h4v4h-4z"/><path fill="#FFE9F5" d="M288 282h4v4h-4z"/><path fill="#98E3DF" d="M305 282h4v4h-4zm17 0h4v4h-4z"/><path fill="#F2A6C0" d="M169 299h4v4h-4zm17 0h4v4h-4z"/><path fill="#FFE9F5" d="M203 299h4v4h-4zm17 0h4v4h-4z"/><path fill="#98E3DF" d="M237 299h4v4h-4z"/><path fill="#F2A6C0" d="M254 299h4v4h-4z"/><path fill="#98E3DF" d="M271 299h4v4h-4zm17 0h4v4h-4z"/><path fill="#F2A6C0" d="M305 299h4v4h-4z"/><path fill="#98E3DF" d="M322 299h4v4h-4z"/><path fill="#FFE9F5" d="M169 316h4v4h-4zm17 0h4v4h-4zm17 0h4v4h-4zm17 0h4v4h-4zm17 0h4v4h-4z"/><path fill="#98E3DF" d="M254 316h4v4h-4z"/><path fill="#F2A6C0" d="M271 316h4v4h-4zm17 0h4v4h-4z"/><path fill="#98E3DF" d="M305 316h4v4h-4zm17 0h4v4h-4z"/><path fill="#FFE9F5" d="M169 333h4v4h-4zm17 0h4v4h-4z"/><path fill="#F2A6C0" d="M203 333h4v4h-4z"/><path fill="#FFE9F5" d="M220 333h4v4h-4z"/><path fill="#98E3DF" d="M237 333h4v4h-4z"/><path fill="#F2A6C0" d="M254 333h4v4h-4z"/><path fill="#98E3DF" d="M271 333h4v4h-4z"/><path fill="#F2A6C0" d="M288 333h4v4h-4z"/><path fill="#98E3DF" d="M305 333h4v4h-4z"/><path fill="#FFE9F5" d="M322 333h4v4h-4zm-153 17h4v4h-4z"/><path fill="#F2A6C0" d="M186 350h4v4h-4zm17 0h4v4h-4z"/><path fill="#FFE9F5" d="M220 350h4v4h-4z"/><path fill="#F2A6C0" d="M237 350h4v4h-4zm17 0h4v4h-4z"/><path fill="#FFE9F5" d="M271 350h4v4h-4zm17 0h4v4h-4z"/><path fill="#98E3DF" d="M305 350h4v4h-4z"/><path fill="#FFE9F5" d="M322 350h4v4h-4z"/><path fill="#F2A6C0" d="M169 367h4v4h-4z"/><path fill="#98E3DF" d="M186 367h4v4h-4z"/><path fill="#F2A6C0" d="M203 367h4v4h-4z"/><path fill="#98E3DF" d="M220 367h4v4h-4z"/><path fill="#F2A6C0" d="M237 367h4v4h-4z"/><path fill="#FFE9F5" d="M254 367h4v4h-4z"/><path fill="#F2A6C0" d="M271 367h4v4h-4z"/><path fill="#98E3DF" d="M288 367h4v4h-4z"/><path fill="#F2A6C0" d="M305 367h4v4h-4z"/><path fill="#FFE9F5" d="M322 367h4v4h-4zm-153 17h4v4h-4z"/><path fill="#F2A6C0" d="M186 384h4v4h-4z"/><path fill="#98E3DF" d="M203 384h4v4h-4zm17 0h4v4h-4zm17 0h4v4h-4z"/><path fill="#FFE9F5" d="M254 384h4v4h-4z"/><path fill="#F2A6C0" d="M271 384h4v4h-4zm17 0h4v4h-4z"/><path fill="#98E3DF" d="M305 384h4v4h-4zm17 0h4v4h-4z"/><path fill="#FFE9F5" d="M169 401h4v4h-4zm17 0h4v4h-4zm17 0h4v4h-4z"/><path fill="#98E3DF" d="M220 401h4v4h-4z"/><path fill="#FFE9F5" d="M237 401h4v4h-4z"/><path fill="#F2A6C0" d="M254 401h4v4h-4z"/><path fill="#98E3DF" d="M271 401h4v4h-4z"/><path fill="#F2A6C0" d="M288 401h4v4h-4zm17 0h4v4h-4zm17 0h4v4h-4zm-153 17h4v4h-4zm17 0h4v4h-4z"/><path fill="#98E3DF" d="M203 418h4v4h-4zm17 0h4v4h-4zm17 0h4v4h-4z"/><path fill="#F2A6C0" d="M254 418h4v4h-4z"/><path fill="#98E3DF" d="M271 418h4v4h-4z"/><path fill="#F2A6C0" d="M288 418h4v4h-4zm17 0h4v4h-4z"/><path fill="#98E3DF" d="M322 418h4v4h-4z"/><path fill="#FFE9F5" d="M169 435h4v4h-4z"/><path fill="#F2A6C0" d="M186 435h4v4h-4zm17 0h4v4h-4z"/><path fill="#98E3DF" d="M220 435h4v4h-4z"/><path fill="#FFE9F5" d="M237 435h4v4h-4zm17 0h4v4h-4zm17 0h4v4h-4z"/><path fill="#F2A6C0" d="M288 435h4v4h-4zm17 0h4v4h-4z"/><path fill="#98E3DF" d="M322 435h4v4h-4zm-153 17h4v4h-4zm17 0h4v4h-4z"/><path fill="#FFE9F5" d="M203 452h4v4h-4zm17 0h4v4h-4z"/><path fill="#F2A6C0" d="M237 452h4v4h-4zm17 0h4v4h-4zm17 0h4v4h-4z"/><path fill="#FFE9F5" d="M288 452h4v4h-4z"/><path fill="#98E3DF" d="M305 452h4v4h-4zm17 0h4v4h-4z"/><path fill="#F2A6C0" d="M169 469h4v4h-4z"/><path fill="#98E3DF" d="M186 469h4v4h-4zm17 0h4v4h-4z"/><path fill="#FFE9F5" d="M220 469h4v4h-4zm17 0h4v4h-4zm17 0h4v4h-4z"/><path fill="#98E3DF" d="M271 469h4v4h-4zm17 0h4v4h-4z"/><path fill="#FFE9F5" d="M305 469h4v4h-4z"/><path fill="#98E3DF" d="M322 469h4v4h-4z"/><path fill="#F2A6C0" d="M169 486h4v4h-4zm17 0h4v4h-4z"/><path fill="#FFE9F5" d="M203 486h4v4h-4z"/><path fill="#F2A6C0" d="M220 486h4v4h-4z"/><path fill="#FFE9F5" d="M237 486h4v4h-4zm17 0h4v4h-4z"/><path fill="#98E3DF" d="M271 486h4v4h-4z"/><path fill="#F2A6C0" d="M288 486h4v4h-4z"/><path fill="#98E3DF" d="M305 486h4v4h-4z"/><path fill="#FFE9F5" d="M322 486h4v4h-4z"/></g><g opacity=".3"><rect x="493" y="587" width="5" height="5" rx="1" fill="#F2A6C0"/><rect x="508" y="587" width="5" height="5" rx="1" fill="#FFE9F5"/><rect x="523" y="587" width="5" height="5" rx="1" fill="#98E3DF"/><rect x="538" y="587" width="5" height="5" rx="1" fill="#FFE9F5"/><rect x="553" y="587" width="5" height="5" rx="1" fill="#F2A6C0"/><rect x="568" y="587" width="5" height="5" rx="1" fill="#98E3DF"/><rect x="583" y="587" width="5" height="5" rx="1" fill="#F2A6C0"/><rect x="598" y="587" width="5" height="5" rx="1" fill="#FFE9F5"/><rect x="613" y="587" width="5" height="5" rx="1" fill="#F2A6C0"/><rect x="628" y="587" width="5" height="5" rx="1" fill="#F2A6C0"/><rect x="493" y="602" width="5" height="5" rx="1" fill="#98E3DF"/><rect x="508" y="602" width="5" height="5" rx="1" fill="#F2A6C0"/><rect x="523" y="602" width="5" height="5" rx="1" fill="#FFE9F5"/><rect x="538" y="602" width="5" height="5" rx="1" fill="#F2A6C0"/><rect x="553" y="602" width="5" height="5" rx="1" fill="#F2A6C0"/><rect x="568" y="602" width="5" height="5" rx="1" fill="#FFE9F5"/><rect x="583" y="602" width="5" height="5" rx="1" fill="#FFE9F5"/><rect x="598" y="602" width="5" height="5" rx="1" fill="#FFE9F5"/><rect x="613" y="602" width="5" height="5" rx="1" fill="#FFE9F5"/><rect x="628" y="602" width="5" height="5" rx="1" fill="#98E3DF"/><rect x="493" y="617" width="5" height="5" rx="1" fill="#F2A6C0"/><rect x="508" y="617" width="5" height="5" rx="1" fill="#FFE9F5"/><rect x="523" y="617" width="5" height="5" rx="1" fill="#FFE9F5"/><rect x="538" y="617" width="5" height="5" rx="1" fill="#F2A6C0"/><rect x="553" y="617" width="5" height="5" rx="1" fill="#98E3DF"/><rect x="568" y="617" width="5" height="5" rx="1" fill="#FFE9F5"/><rect x="583" y="617" width="5" height="5" rx="1" fill="#FFE9F5"/><rect x="598" y="617" width="5" height="5" rx="1" fill="#98E3DF"/><rect x="613" y="617" width="5" height="5" rx="1" fill="#98E3DF"/><rect x="628" y="617" width="5" height="5" rx="1" fill="#FFE9F5"/><rect x="493" y="632" width="5" height="5" rx="1" fill="#98E3DF"/><rect x="508" y="632" width="5" height="5" rx="1" fill="#F2A6C0"/><rect x="523" y="632" width="5" height="5" rx="1" fill="#F2A6C0"/><rect x="538" y="632" width="5" height="5" rx="1" fill="#98E3DF"/><rect x="553" y="632" width="5" height="5" rx="1" fill="#F2A6C0"/><rect x="568" y="632" width="5" height="5" rx="1" fill="#FFE9F5"/><rect x="583" y="632" width="5" height="5" rx="1" fill="#98E3DF"/><rect x="598" y="632" width="5" height="5" rx="1" fill="#98E3DF"/><rect x="613" y="632" width="5" height="5" rx="1" fill="#FFE9F5"/><rect x="628" y="632" width="5" height="5" rx="1" fill="#F2A6C0"/><rect x="493" y="647" width="5" height="5" rx="1" fill="#FFE9F5"/><rect x="508" y="647" width="5" height="5" rx="1" fill="#F2A6C0"/><rect x="523" y="647" width="5" height="5" rx="1" fill="#98E3DF"/><rect x="538" y="647" width="5" height="5" rx="1" fill="#FFE9F5"/><rect x="553" y="647" width="5" height="5" rx="1" fill="#98E3DF"/><rect x="568" y="647" width="5" height="5" rx="1" fill="#98E3DF"/><rect x="583" y="647" width="5" height="5" rx="1" fill="#F2A6C0"/><rect x="598" y="647" width="5" height="5" rx="1" fill="#F2A6C0"/><rect x="613" y="647" width="5" height="5" rx="1" fill="#F2A6C0"/><rect x="628" y="647" width="5" height="5" rx="1" fill="#98E3DF"/><rect x="493" y="662" width="5" height="5" rx="1" fill="#98E3DF"/><rect x="508" y="662" width="5" height="5" rx="1" fill="#FFE9F5"/><rect x="523" y="662" width="5" height="5" rx="1" fill="#98E3DF"/><rect x="538" y="662" width="5" height="5" rx="1" fill="#FFE9F5"/><rect x="553" y="662" width="5" height="5" rx="1" fill="#FFE9F5"/><rect x="568" y="662" width="5" height="5" rx="1" fill="#98E3DF"/><rect x="583" y="662" width="5" height="5" rx="1" fill="#98E3DF"/><rect x="598" y="662" width="5" height="5" rx="1" fill="#FFE9F5"/><rect x="613" y="662" width="5" height="5" rx="1" fill="#FFE9F5"/><rect x="628" y="662" width="5" height="5" rx="1" fill="#FFE9F5"/><rect x="493" y="677" width="5" height="5" rx="1" fill="#98E3DF"/><rect x="508" y="677" width="5" height="5" rx="1" fill="#F2A6C0"/><rect x="523" y="677" width="5" height="5" rx="1" fill="#F2A6C0"/><rect x="538" y="677" width="5" height="5" rx="1" fill="#98E3DF"/><rect x="553" y="677" width="5" height="5" rx="1" fill="#F2A6C0"/><rect x="568" y="677" width="5" height="5" rx="1" fill="#F2A6C0"/><rect x="583" y="677" width="5" height="5" rx="1" fill="#F2A6C0"/><rect x="598" y="677" width="5" height="5" rx="1" fill="#FFE9F5"/><rect x="613" y="677" width="5" height="5" rx="1" fill="#98E3DF"/><rect x="628" y="677" width="5" height="5" rx="1" fill="#98E3DF"/><rect x="493" y="692" width="5" height="5" rx="1" fill="#98E3DF"/><rect x="508" y="692" width="5" height="5" rx="1" fill="#F2A6C0"/><rect x="523" y="692" width="5" height="5" rx="1" fill="#98E3DF"/><rect x="538" y="692" width="5" height="5" rx="1" fill="#FFE9F5"/><rect x="553" y="692" width="5" height="5" rx="1" fill="#FFE9F5"/><rect x="568" y="692" width="5" height="5" rx="1" fill="#FFE9F5"/><rect x="583" y="692" width="5" height="5" rx="1" fill="#98E3DF"/><rect x="598" y="692" width="5" height="5" rx="1" fill="#98E3DF"/><rect x="613" y="692" width="5" height="5" rx="1" fill="#F2A6C0"/><rect x="628" y="692" width="5" height="5" rx="1" fill="#F2A6C0"/></g><path fill-rule="evenodd" clip-rule="evenodd" d="M1287.13-69.813C1070.28-81.175 802.342-90.075 724.659 69.723c-84.761 174.36 82.11 346.834 271.337 459.358C1200.18 650.501 1475.87 760.597 1676.95 636c190.37-117.967 78.01-342.44-18.59-517.355-64.91-117.526-208.8-179.947-371.23-188.458z" fill="#70DBED"/><path fill-rule="evenodd" clip-rule="evenodd" d="M1720.13-158.035c-189.43-60.841-425.11-130.337-544.93 28.933-130.75 173.783-36.91 401.514 95.85 567.98 143.25 179.628 353.73 362.664 572.23 269.765 206.87-87.955 178.05-361.002 147.53-575.783-20.51-144.312-128.8-245.325-270.68-290.895z" fill="#F2A6C0"/><path fill-rule="evenodd" clip-rule="evenodd" d="M1568.55 502.09c19.12 65.107 47.9 143.718-12.23 187.864-59.78 43.882-176.36 27.642-272.15 20.904-80.3-5.65-155.71-30.187-231.28-56.32-71.832-24.836-180.445-40.426-197.422-91.916-20.098-60.952 113.837-86.701 118.814-146.476 3.514-42.215-118.201-79.42-96.844-117.4 20.359-36.207 126.262 6.458 171.772-15.847 61.53-30.159 43.92-115.688 120.74-127.522 68.89-10.612 144.55 39.387 199.09 78.253 50.33 35.866 58.77 85.095 91.03 128.495 35.63 47.955 93.56 89.163 108.48 139.965z" fill="#FFE9F5"/></svg>