<svg width="480" height="1026" fill="none" xmlns="http://www.w3.org/2000/svg"><path fill-rule="evenodd" clip-rule="evenodd" d="M48.452-21.98c33.211-.567 69.19 10.49 79.74 41.888 10.771 32.055-11.095 62.576-37.524 83.756-32.754 26.25-74.741 57.978-108.937 33.623-34.56-24.614-21.395-75.717-5.027-114.79 12-28.642 40.617-43.944 71.748-44.476z" fill="#FFF9FC"/><g opacity=".3"><path fill="#FFE9F5" d="M19 248h4v4h-4zm17 0h4v4h-4z"/><path fill="#98E3DF" d="M53 248h4v4h-4z"/><path fill="#FFE9F5" d="M70 248h4v4h-4z"/><path fill="#F2A6C0" d="M39 248h4v4h-4z"/><path fill="#FFE9F5" d="M56 248h4v4h-4zm17 0h4v4h-4zm17 0h4v4h-4z"/><path fill="#98E3DF" d="M107 248h4v4h-4z"/><path fill="#F2A6C0" d="M124 248h4v4h-4z"/><path fill="#98E3DF" d="M19 265h4v4h-4z"/><path fill="#FFE9F5" d="M36 265h4v4h-4z"/><path fill="#98E3DF" d="M53 265h4v4h-4zm17 0h4v4h-4z"/><path fill="#F2A6C0" d="M39 265h4v4h-4zm17 0h4v4h-4z"/><path fill="#98E3DF" d="M73 265h4v4h-4zm17 0h4v4h-4z"/><path fill="#FFE9F5" d="M107 265h4v4h-4z"/><path fill="#98E3DF" d="M124 265h4v4h-4z"/><path fill="#FFE9F5" d="M19 282h4v4h-4z"/><path fill="#F2A6C0" d="M36 282h4v4h-4zm17 0h4v4h-4z"/><path fill="#FFE9F5" d="M70 282h4v4h-4z"/><path fill="#F2A6C0" d="M39 282h4v4h-4zm17 0h4v4h-4z"/><path fill="#98E3DF" d="M73 282h4v4h-4z"/><path fill="#FFE9F5" d="M90 282h4v4h-4z"/><path fill="#98E3DF" d="M107 282h4v4h-4zm17 0h4v4h-4z"/><path fill="#F2A6C0" d="M19 299h4v4h-4zm17 0h4v4h-4z"/><path fill="#FFE9F5" d="M53 299h4v4h-4zm17 0h4v4h-4z"/><path fill="#98E3DF" d="M39 299h4v4h-4z"/><path fill="#F2A6C0" d="M56 299h4v4h-4z"/><path fill="#98E3DF" d="M73 299h4v4h-4zm17 0h4v4h-4z"/><path fill="#F2A6C0" d="M107 299h4v4h-4z"/><path fill="#98E3DF" d="M124 299h4v4h-4z"/><path fill="#FFE9F5" d="M19 316h4v4h-4zm17 0h4v4h-4zm17 0h4v4h-4zm17 0h4v4h-4z"/><path fill="#FFE9F5" d="M39 316h4v4h-4z"/><path fill="#98E3DF" d="M56 316h4v4h-4z"/><path fill="#F2A6C0" d="M73 316h4v4h-4zm17 0h4v4h-4z"/><path fill="#98E3DF" d="M107 316h4v4h-4zm17 0h4v4h-4z"/><path fill="#FFE9F5" d="M19 333h4v4h-4zm17 0h4v4h-4z"/><path fill="#F2A6C0" d="M53 333h4v4h-4z"/><path fill="#FFE9F5" d="M70 333h4v4h-4z"/><path fill="#98E3DF" d="M39 333h4v4h-4z"/><path fill="#F2A6C0" d="M56 333h4v4h-4z"/><path fill="#98E3DF" d="M73 333h4v4h-4z"/><path fill="#F2A6C0" d="M90 333h4v4h-4z"/><path fill="#98E3DF" d="M107 333h4v4h-4z"/><path fill="#FFE9F5" d="M124 333h4v4h-4zM19 350h4v4h-4z"/><path fill="#F2A6C0" d="M36 350h4v4h-4zm17 0h4v4h-4z"/><path fill="#FFE9F5" d="M70 350h4v4h-4z"/><path fill="#F2A6C0" d="M39 350h4v4h-4zm17 0h4v4h-4z"/><path fill="#FFE9F5" d="M73 350h4v4h-4zm17 0h4v4h-4z"/><path fill="#98E3DF" d="M107 350h4v4h-4z"/><path fill="#FFE9F5" d="M124 350h4v4h-4z"/><path fill="#F2A6C0" d="M19 367h4v4h-4z"/><path fill="#98E3DF" d="M36 367h4v4h-4z"/><path fill="#F2A6C0" d="M53 367h4v4h-4z"/><path fill="#98E3DF" d="M70 367h4v4h-4z"/><path fill="#F2A6C0" d="M39 367h4v4h-4z"/><path fill="#FFE9F5" d="M56 367h4v4h-4z"/><path fill="#F2A6C0" d="M73 367h4v4h-4z"/><path fill="#98E3DF" d="M90 367h4v4h-4z"/><path fill="#F2A6C0" d="M107 367h4v4h-4z"/><path fill="#FFE9F5" d="M124 367h4v4h-4zM19 384h4v4h-4z"/><path fill="#F2A6C0" d="M36 384h4v4h-4z"/><path fill="#98E3DF" d="M53 384h4v4h-4zm17 0h4v4h-4zm-31 0h4v4h-4z"/><path fill="#FFE9F5" d="M56 384h4v4h-4z"/><path fill="#F2A6C0" d="M73 384h4v4h-4zm17 0h4v4h-4z"/><path fill="#98E3DF" d="M107 384h4v4h-4zm17 0h4v4h-4z"/><path fill="#FFE9F5" d="M19 401h4v4h-4zm17 0h4v4h-4zm17 0h4v4h-4z"/><path fill="#98E3DF" d="M70 401h4v4h-4z"/><path fill="#FFE9F5" d="M39 401h4v4h-4z"/><path fill="#F2A6C0" d="M56 401h4v4h-4z"/><path fill="#98E3DF" d="M73 401h4v4h-4z"/><path fill="#F2A6C0" d="M90 401h4v4h-4zm17 0h4v4h-4zm17 0h4v4h-4zM19 418h4v4h-4zm17 0h4v4h-4z"/><path fill="#98E3DF" d="M53 418h4v4h-4zm17 0h4v4h-4zm-31 0h4v4h-4z"/><path fill="#F2A6C0" d="M56 418h4v4h-4z"/><path fill="#98E3DF" d="M73 418h4v4h-4z"/><path fill="#F2A6C0" d="M90 418h4v4h-4zm17 0h4v4h-4z"/><path fill="#98E3DF" d="M124 418h4v4h-4z"/><path fill="#FFE9F5" d="M19 435h4v4h-4z"/><path fill="#F2A6C0" d="M36 435h4v4h-4zm17 0h4v4h-4z"/><path fill="#98E3DF" d="M70 435h4v4h-4z"/><path fill="#FFE9F5" d="M39 435h4v4h-4zm17 0h4v4h-4zm17 0h4v4h-4z"/><path fill="#F2A6C0" d="M90 435h4v4h-4zm17 0h4v4h-4z"/><path fill="#98E3DF" d="M124 435h4v4h-4zM19 452h4v4h-4zm17 0h4v4h-4z"/><path fill="#FFE9F5" d="M53 452h4v4h-4zm17 0h4v4h-4z"/><path fill="#F2A6C0" d="M39 452h4v4h-4zm17 0h4v4h-4zm17 0h4v4h-4z"/><path fill="#FFE9F5" d="M90 452h4v4h-4z"/><path fill="#98E3DF" d="M107 452h4v4h-4zm17 0h4v4h-4z"/><path fill="#F2A6C0" d="M19 469h4v4h-4z"/><path fill="#98E3DF" d="M36 469h4v4h-4zm17 0h4v4h-4z"/><path fill="#FFE9F5" d="M70 469h4v4h-4zm-31 0h4v4h-4zm17 0h4v4h-4z"/><path fill="#98E3DF" d="M73 469h4v4h-4zm17 0h4v4h-4z"/><path fill="#FFE9F5" d="M107 469h4v4h-4z"/><path fill="#98E3DF" d="M124 469h4v4h-4z"/><path fill="#F2A6C0" d="M19 486h4v4h-4zm17 0h4v4h-4z"/><path fill="#FFE9F5" d="M53 486h4v4h-4z"/><path fill="#F2A6C0" d="M70 486h4v4h-4z"/><path fill="#FFE9F5" d="M39 486h4v4h-4zm17 0h4v4h-4z"/><path fill="#98E3DF" d="M73 486h4v4h-4z"/><path fill="#F2A6C0" d="M90 486h4v4h-4z"/><path fill="#98E3DF" d="M107 486h4v4h-4z"/><path fill="#FFE9F5" d="M124 486h4v4h-4z"/></g><g opacity=".3"><rect x="342" y="895" width="5" height="5" rx="1" fill="#F2A6C0"/><rect x="357" y="895" width="5" height="5" rx="1" fill="#FFE9F5"/><rect x="372" y="895" width="5" height="5" rx="1" fill="#98E3DF"/><rect x="387" y="895" width="5" height="5" rx="1" fill="#FFE9F5"/><rect x="402" y="895" width="5" height="5" rx="1" fill="#F2A6C0"/><rect x="417" y="895" width="5" height="5" rx="1" fill="#98E3DF"/><rect x="432" y="895" width="5" height="5" rx="1" fill="#F2A6C0"/><rect x="399" y="895" width="5" height="5" rx="1" fill="#FFE9F5"/><rect x="414" y="895" width="5" height="5" rx="1" fill="#F2A6C0"/><rect x="429" y="895" width="5" height="5" rx="1" fill="#F2A6C0"/><rect x="342" y="910" width="5" height="5" rx="1" fill="#98E3DF"/><rect x="357" y="910" width="5" height="5" rx="1" fill="#F2A6C0"/><rect x="372" y="910" width="5" height="5" rx="1" fill="#FFE9F5"/><rect x="387" y="910" width="5" height="5" rx="1" fill="#F2A6C0"/><rect x="402" y="910" width="5" height="5" rx="1" fill="#F2A6C0"/><rect x="417" y="910" width="5" height="5" rx="1" fill="#FFE9F5"/><rect x="432" y="910" width="5" height="5" rx="1" fill="#FFE9F5"/><rect x="399" y="910" width="5" height="5" rx="1" fill="#FFE9F5"/><rect x="414" y="910" width="5" height="5" rx="1" fill="#FFE9F5"/><rect x="429" y="910" width="5" height="5" rx="1" fill="#98E3DF"/><rect x="342" y="925" width="5" height="5" rx="1" fill="#F2A6C0"/><rect x="357" y="925" width="5" height="5" rx="1" fill="#FFE9F5"/><rect x="372" y="925" width="5" height="5" rx="1" fill="#FFE9F5"/><rect x="387" y="925" width="5" height="5" rx="1" fill="#F2A6C0"/><rect x="402" y="925" width="5" height="5" rx="1" fill="#98E3DF"/><rect x="417" y="925" width="5" height="5" rx="1" fill="#FFE9F5"/><rect x="432" y="925" width="5" height="5" rx="1" fill="#FFE9F5"/><rect x="399" y="925" width="5" height="5" rx="1" fill="#98E3DF"/><rect x="414" y="925" width="5" height="5" rx="1" fill="#98E3DF"/><rect x="429" y="925" width="5" height="5" rx="1" fill="#FFE9F5"/><rect x="342" y="940" width="5" height="5" rx="1" fill="#98E3DF"/><rect x="357" y="940" width="5" height="5" rx="1" fill="#F2A6C0"/><rect x="372" y="940" width="5" height="5" rx="1" fill="#F2A6C0"/><rect x="387" y="940" width="5" height="5" rx="1" fill="#98E3DF"/><rect x="402" y="940" width="5" height="5" rx="1" fill="#F2A6C0"/><rect x="417" y="940" width="5" height="5" rx="1" fill="#FFE9F5"/><rect x="432" y="940" width="5" height="5" rx="1" fill="#98E3DF"/><rect x="399" y="940" width="5" height="5" rx="1" fill="#98E3DF"/><rect x="414" y="940" width="5" height="5" rx="1" fill="#FFE9F5"/><rect x="429" y="940" width="5" height="5" rx="1" fill="#F2A6C0"/><rect x="342" y="955" width="5" height="5" rx="1" fill="#FFE9F5"/><rect x="357" y="955" width="5" height="5" rx="1" fill="#F2A6C0"/><rect x="372" y="955" width="5" height="5" rx="1" fill="#98E3DF"/><rect x="387" y="955" width="5" height="5" rx="1" fill="#FFE9F5"/><rect x="402" y="955" width="5" height="5" rx="1" fill="#98E3DF"/><rect x="417" y="955" width="5" height="5" rx="1" fill="#98E3DF"/><rect x="432" y="955" width="5" height="5" rx="1" fill="#F2A6C0"/><rect x="399" y="955" width="5" height="5" rx="1" fill="#F2A6C0"/><rect x="414" y="955" width="5" height="5" rx="1" fill="#F2A6C0"/><rect x="429" y="955" width="5" height="5" rx="1" fill="#98E3DF"/><rect x="342" y="970" width="5" height="5" rx="1" fill="#98E3DF"/><rect x="357" y="970" width="5" height="5" rx="1" fill="#FFE9F5"/><rect x="372" y="970" width="5" height="5" rx="1" fill="#98E3DF"/><rect x="387" y="970" width="5" height="5" rx="1" fill="#FFE9F5"/><rect x="402" y="970" width="5" height="5" rx="1" fill="#FFE9F5"/><rect x="417" y="970" width="5" height="5" rx="1" fill="#98E3DF"/><rect x="432" y="970" width="5" height="5" rx="1" fill="#98E3DF"/><rect x="399" y="970" width="5" height="5" rx="1" fill="#FFE9F5"/><rect x="414" y="970" width="5" height="5" rx="1" fill="#FFE9F5"/><rect x="429" y="970" width="5" height="5" rx="1" fill="#FFE9F5"/><rect x="342" y="985" width="5" height="5" rx="1" fill="#98E3DF"/><rect x="357" y="985" width="5" height="5" rx="1" fill="#F2A6C0"/><rect x="372" y="985" width="5" height="5" rx="1" fill="#F2A6C0"/><rect x="387" y="985" width="5" height="5" rx="1" fill="#98E3DF"/><rect x="402" y="985" width="5" height="5" rx="1" fill="#F2A6C0"/><rect x="417" y="985" width="5" height="5" rx="1" fill="#F2A6C0"/><rect x="432" y="985" width="5" height="5" rx="1" fill="#F2A6C0"/><rect x="399" y="985" width="5" height="5" rx="1" fill="#FFE9F5"/><rect x="414" y="985" width="5" height="5" rx="1" fill="#98E3DF"/><rect x="429" y="985" width="5" height="5" rx="1" fill="#98E3DF"/><rect x="342" y="1000" width="5" height="5" rx="1" fill="#98E3DF"/><rect x="357" y="1000" width="5" height="5" rx="1" fill="#F2A6C0"/><rect x="372" y="1000" width="5" height="5" rx="1" fill="#98E3DF"/><rect x="387" y="1000" width="5" height="5" rx="1" fill="#FFE9F5"/><rect x="402" y="1000" width="5" height="5" rx="1" fill="#FFE9F5"/><rect x="417" y="1000" width="5" height="5" rx="1" fill="#FFE9F5"/><rect x="432" y="1000" width="5" height="5" rx="1" fill="#98E3DF"/><rect x="399" y="1000" width="5" height="5" rx="1" fill="#98E3DF"/><rect x="414" y="1000" width="5" height="5" rx="1" fill="#F2A6C0"/><rect x="429" y="1000" width="5" height="5" rx="1" fill="#F2A6C0"/></g><path fill-rule="evenodd" clip-rule="evenodd" d="M97.403 837.749c34.262-.863 75.765-30.106 97.652-3.796 21.869 26.291-14.215 61.644-21.822 94.955-7.615 33.345 10.484 83.012-21.582 95.112-32.468 12.25-53.568-35.493-81.322-56.293-17.064-12.788-36.792-20.323-46.328-39.372-14.367-28.697-38.467-64.686-18.256-89.634 20.206-24.942 59.522-.163 91.658-.972z" fill="#F2FDFF"/><path fill-rule="evenodd" clip-rule="evenodd" d="M319.086-5.244C245.304-9.077 154.14-12.079 127.71 41.831c-28.84 58.824 27.936 117.012 92.319 154.974 69.472 40.963 163.271 78.106 231.685 36.071 64.773-39.798 26.545-115.529-6.323-174.54-22.084-39.65-71.043-60.708-126.305-63.58z" fill="#70DBED"/><path fill-rule="evenodd" clip-rule="evenodd" d="M466.407-35.007C401.957-55.533 321.769-78.979 281-25.247c-44.484 58.63-12.556 135.459 32.612 191.62 48.739 60.601 120.353 122.352 194.695 91.011 70.386-29.674 60.578-121.792 50.195-194.252-6.977-48.687-43.822-82.765-92.095-98.139z" fill="#F2A6C0"/><path fill-rule="evenodd" clip-rule="evenodd" d="M414.837 187.699c6.503 21.965 16.298 48.486-4.163 63.379-20.337 14.805-60.003 9.326-92.594 7.053-27.323-1.906-52.979-10.185-78.692-19.001-24.439-8.379-61.393-13.639-67.17-31.01-6.838-20.563 38.732-29.25 40.425-49.416 1.196-14.242-40.216-26.794-32.95-39.607 6.927-12.215 42.959 2.179 58.443-5.347 20.935-10.174 14.943-39.029 41.081-43.022 23.439-3.58 49.183 13.288 67.739 26.4 17.124 12.101 19.996 28.709 30.97 43.351 12.125 16.178 31.836 30.081 36.911 47.22z" fill="#FFE9F5"/></svg>