<svg width="206" height="2080" fill="none" xmlns="http://www.w3.org/2000/svg"><g opacity=".3"><path fill="#F2A6C0" d="M12 0h4v4h-4z"/><path fill="#98E3DF" d="M29 0h4v4h-4zm17 0h4v4h-4z"/><path fill="#F2A6C0" d="M63 0h4v4h-4z"/><path fill="#98E3DF" d="M80 0h4v4h-4z"/><path fill="#F2A6C0" d="M49 0h4v4h-4z"/><path fill="#FFE9F5" d="M66 0h4v4h-4zm17 0h4v4h-4z"/><path fill="#F2A6C0" d="M100 0h4v4h-4z"/><path fill="#FFE9F5" d="M117 0h4v4h-4z"/><path fill="#F2A6C0" d="M134 0h4v4h-4z"/><path fill="#FFE9F5" d="M151 0h4v4h-4z"/><path fill="#98E3DF" d="M168 0h4v4h-4z"/><path fill="#FFE9F5" d="M185 0h4v4h-4z"/><path fill="#98E3DF" d="M202 0h4v4h-4z"/><path fill="#FFE9F5" d="M12 17h4v4h-4zm17 0h4v4h-4z"/><path fill="#F2A6C0" d="M46 17h4v4h-4zm17 0h4v4h-4z"/><path fill="#98E3DF" d="M80 17h4v4h-4z"/><path fill="#FFE9F5" d="M49 17h4v4h-4z"/><path fill="#98E3DF" d="M66 17h4v4h-4z"/><path fill="#F2A6C0" d="M83 17h4v4h-4zm17 0h4v4h-4zm17 0h4v4h-4zm17 0h4v4h-4z"/><path fill="#FFE9F5" d="M151 17h4v4h-4zm17 0h4v4h-4zm17 0h4v4h-4z"/><path fill="#F2A6C0" d="M202 17h4v4h-4z"/><path fill="#FFE9F5" d="M12 34h4v4h-4z"/><path fill="#98E3DF" d="M29 34h4v4h-4z"/><path fill="#FFE9F5" d="M46 34h4v4h-4z"/><path fill="#F2A6C0" d="M63 34h4v4h-4z"/><path fill="#98E3DF" d="M80 34h4v4h-4zm-31 0h4v4h-4zm17 0h4v4h-4z"/><path fill="#FFE9F5" d="M83 34h4v4h-4zm17 0h4v4h-4z"/><path fill="#F2A6C0" d="M117 34h4v4h-4z"/><path fill="#FFE9F5" d="M134 34h4v4h-4z"/><path fill="#F2A6C0" d="M151 34h4v4h-4z"/><path fill="#98E3DF" d="M168 34h4v4h-4zm17 0h4v4h-4zm17 0h4v4h-4zM12 51h4v4h-4zm17 0h4v4h-4z"/><path fill="#F2A6C0" d="M46 51h4v4h-4z"/><path fill="#FFE9F5" d="M63 51h4v4h-4zm17 0h4v4h-4zm-31 0h4v4h-4z"/><path fill="#98E3DF" d="M66 51h4v4h-4z"/><path fill="#F2A6C0" d="M83 51h4v4h-4z"/><path fill="#98E3DF" d="M100 51h4v4h-4zm17 0h4v4h-4z"/><path fill="#FFE9F5" d="M134 51h4v4h-4z"/><path fill="#98E3DF" d="M151 51h4v4h-4z"/><path fill="#F2A6C0" d="M168 51h4v4h-4z"/><path fill="#FFE9F5" d="M185 51h4v4h-4zm17 0h4v4h-4zM12 68h4v4h-4zm17 0h4v4h-4z"/><path fill="#98E3DF" d="M46 68h4v4h-4zm17 0h4v4h-4zm17 0h4v4h-4z"/><path fill="#FFE9F5" d="M49 68h4v4h-4z"/><path fill="#98E3DF" d="M66 68h4v4h-4z"/><path fill="#F2A6C0" d="M83 68h4v4h-4zm17 0h4v4h-4zm17 0h4v4h-4z"/><path fill="#FFE9F5" d="M134 68h4v4h-4z"/><path fill="#F2A6C0" d="M151 68h4v4h-4z"/><path fill="#FFE9F5" d="M168 68h4v4h-4z"/><path fill="#F2A6C0" d="M185 68h4v4h-4z"/><path fill="#FFE9F5" d="M202 68h4v4h-4z"/><path fill="#98E3DF" d="M12 85h4v4h-4z"/><path fill="#F2A6C0" d="M29 85h4v4h-4z"/><path fill="#FFE9F5" d="M46 85h4v4h-4z"/><path fill="#98E3DF" d="M63 85h4v4h-4zm17 0h4v4h-4z"/><path fill="#FFE9F5" d="M49 85h4v4h-4zm17 0h4v4h-4z"/><path fill="#98E3DF" d="M83 85h4v4h-4z"/><path fill="#F2A6C0" d="M100 85h4v4h-4zm17 0h4v4h-4z"/><path fill="#98E3DF" d="M134 85h4v4h-4z"/><path fill="#F2A6C0" d="M151 85h4v4h-4zm17 0h4v4h-4z"/><path fill="#98E3DF" d="M185 85h4v4h-4z"/><path fill="#FFE9F5" d="M202 85h4v4h-4z"/><path fill="#98E3DF" d="M12 102h4v4h-4z"/><path fill="#F2A6C0" d="M29 102h4v4h-4z"/><path fill="#FFE9F5" d="M46 102h4v4h-4z"/><path fill="#F2A6C0" d="M63 102h4v4h-4z"/><path fill="#FFE9F5" d="M80 102h4v4h-4z"/><path fill="#F2A6C0" d="M49 102h4v4h-4zm17 0h4v4h-4zm17 0h4v4h-4z"/><path fill="#FFE9F5" d="M100 102h4v4h-4z"/><path fill="#F2A6C0" d="M117 102h4v4h-4z"/><path fill="#FFE9F5" d="M134 102h4v4h-4z"/><path fill="#98E3DF" d="M151 102h4v4h-4z"/><path fill="#FFE9F5" d="M168 102h4v4h-4z"/><path fill="#98E3DF" d="M185 102h4v4h-4z"/><path fill="#F2A6C0" d="M202 102h4v4h-4z"/><path fill="#FFE9F5" d="M12 119h4v4h-4zm17 0h4v4h-4z"/><path fill="#98E3DF" d="M46 119h4v4h-4z"/><path fill="#F2A6C0" d="M63 119h4v4h-4z"/><path fill="#98E3DF" d="M80 119h4v4h-4z"/><path fill="#F2A6C0" d="M49 119h4v4h-4z"/><path fill="#98E3DF" d="M66 119h4v4h-4z"/><path fill="#F2A6C0" d="M83 119h4v4h-4z"/><path fill="#FFE9F5" d="M100 119h4v4h-4z"/><path fill="#98E3DF" d="M117 119h4v4h-4z"/><path fill="#F2A6C0" d="M134 119h4v4h-4zm17 0h4v4h-4z"/><path fill="#FFE9F5" d="M168 119h4v4h-4z"/><path fill="#F2A6C0" d="M185 119h4v4h-4z"/><path fill="#98E3DF" d="M202 119h4v4h-4zM12 136h4v4h-4z"/><path fill="#F2A6C0" d="M29 136h4v4h-4z"/><path fill="#FFE9F5" d="M46 136h4v4h-4z"/><path fill="#F2A6C0" d="M63 136h4v4h-4z"/><path fill="#98E3DF" d="M80 136h4v4h-4zm-31 0h4v4h-4zm17 0h4v4h-4z"/><path fill="#FFE9F5" d="M83 136h4v4h-4z"/><path fill="#98E3DF" d="M100 136h4v4h-4zm17 0h4v4h-4z"/><path fill="#FFE9F5" d="M134 136h4v4h-4zm17 0h4v4h-4z"/><path fill="#F2A6C0" d="M168 136h4v4h-4z"/><path fill="#98E3DF" d="M185 136h4v4h-4z"/><path fill="#F2A6C0" d="M202 136h4v4h-4zM12 153h4v4h-4z"/><path fill="#98E3DF" d="M29 153h4v4h-4z"/><path fill="#FFE9F5" d="M46 153h4v4h-4zm17 0h4v4h-4zm17 0h4v4h-4z"/><path fill="#FFE9F5" d="M49 153h4v4h-4z"/><path fill="#F2A6C0" d="M66 153h4v4h-4zm17 0h4v4h-4z"/><path fill="#98E3DF" d="M100 153h4v4h-4z"/><path fill="#F2A6C0" d="M117 153h4v4h-4z"/><path fill="#98E3DF" d="M134 153h4v4h-4zm17 0h4v4h-4zm17 0h4v4h-4z"/><path fill="#FFE9F5" d="M185 153h4v4h-4z"/><path fill="#F2A6C0" d="M202 153h4v4h-4z"/></g><g opacity=".3"><path fill="#FFE9F5" d="M0 1838h4v4H0zm17 0h4v4h-4z"/><path fill="#98E3DF" d="M34 1838h4v4h-4z"/><path fill="#FFE9F5" d="M51 1838h4v4h-4z"/><path fill="#F2A6C0" d="M20 1838h4v4h-4z"/><path fill="#FFE9F5" d="M37 1838h4v4h-4zm17 0h4v4h-4zm17 0h4v4h-4z"/><path fill="#98E3DF" d="M88 1838h4v4h-4z"/><path fill="#F2A6C0" d="M105 1838h4v4h-4z"/><path fill="#98E3DF" d="M0 1855h4v4H0z"/><path fill="#FFE9F5" d="M17 1855h4v4h-4z"/><path fill="#98E3DF" d="M34 1855h4v4h-4zm17 0h4v4h-4z"/><path fill="#F2A6C0" d="M20 1855h4v4h-4zm17 0h4v4h-4z"/><path fill="#98E3DF" d="M54 1855h4v4h-4zm17 0h4v4h-4z"/><path fill="#FFE9F5" d="M88 1855h4v4h-4z"/><path fill="#98E3DF" d="M105 1855h4v4h-4z"/><path fill="#FFE9F5" d="M0 1872h4v4H0z"/><path fill="#F2A6C0" d="M17 1872h4v4h-4zm17 0h4v4h-4z"/><path fill="#FFE9F5" d="M51 1872h4v4h-4z"/><path fill="#F2A6C0" d="M20 1872h4v4h-4zm17 0h4v4h-4z"/><path fill="#98E3DF" d="M54 1872h4v4h-4z"/><path fill="#FFE9F5" d="M71 1872h4v4h-4z"/><path fill="#98E3DF" d="M88 1872h4v4h-4zm17 0h4v4h-4z"/><path fill="#F2A6C0" d="M0 1889h4v4H0zm17 0h4v4h-4z"/><path fill="#FFE9F5" d="M34 1889h4v4h-4zm17 0h4v4h-4z"/><path fill="#98E3DF" d="M20 1889h4v4h-4z"/><path fill="#F2A6C0" d="M37 1889h4v4h-4z"/><path fill="#98E3DF" d="M54 1889h4v4h-4zm17 0h4v4h-4z"/><path fill="#F2A6C0" d="M88 1889h4v4h-4z"/><path fill="#98E3DF" d="M105 1889h4v4h-4z"/><path fill="#FFE9F5" d="M0 1906h4v4H0zm17 0h4v4h-4zm17 0h4v4h-4zm17 0h4v4h-4z"/><path fill="#FFE9F5" d="M20 1906h4v4h-4z"/><path fill="#98E3DF" d="M37 1906h4v4h-4z"/><path fill="#F2A6C0" d="M54 1906h4v4h-4zm17 0h4v4h-4z"/><path fill="#98E3DF" d="M88 1906h4v4h-4zm17 0h4v4h-4z"/><path fill="#FFE9F5" d="M0 1923h4v4H0zm17 0h4v4h-4z"/><path fill="#F2A6C0" d="M34 1923h4v4h-4z"/><path fill="#FFE9F5" d="M51 1923h4v4h-4z"/><path fill="#98E3DF" d="M20 1923h4v4h-4z"/><path fill="#F2A6C0" d="M37 1923h4v4h-4z"/><path fill="#98E3DF" d="M54 1923h4v4h-4z"/><path fill="#F2A6C0" d="M71 1923h4v4h-4z"/><path fill="#98E3DF" d="M88 1923h4v4h-4z"/><path fill="#FFE9F5" d="M105 1923h4v4h-4zM0 1940h4v4H0z"/><path fill="#F2A6C0" d="M17 1940h4v4h-4zm17 0h4v4h-4z"/><path fill="#FFE9F5" d="M51 1940h4v4h-4z"/><path fill="#F2A6C0" d="M20 1940h4v4h-4zm17 0h4v4h-4z"/><path fill="#FFE9F5" d="M54 1940h4v4h-4zm17 0h4v4h-4z"/><path fill="#98E3DF" d="M88 1940h4v4h-4z"/><path fill="#FFE9F5" d="M105 1940h4v4h-4z"/><path fill="#F2A6C0" d="M0 1957h4v4H0z"/><path fill="#98E3DF" d="M17 1957h4v4h-4z"/><path fill="#F2A6C0" d="M34 1957h4v4h-4z"/><path fill="#98E3DF" d="M51 1957h4v4h-4z"/><path fill="#F2A6C0" d="M20 1957h4v4h-4z"/><path fill="#FFE9F5" d="M37 1957h4v4h-4z"/><path fill="#F2A6C0" d="M54 1957h4v4h-4z"/><path fill="#98E3DF" d="M71 1957h4v4h-4z"/><path fill="#F2A6C0" d="M88 1957h4v4h-4z"/><path fill="#FFE9F5" d="M105 1957h4v4h-4zM0 1974h4v4H0z"/><path fill="#F2A6C0" d="M17 1974h4v4h-4z"/><path fill="#98E3DF" d="M34 1974h4v4h-4zm17 0h4v4h-4zm-31 0h4v4h-4z"/><path fill="#FFE9F5" d="M37 1974h4v4h-4z"/><path fill="#F2A6C0" d="M54 1974h4v4h-4zm17 0h4v4h-4z"/><path fill="#98E3DF" d="M88 1974h4v4h-4zm17 0h4v4h-4z"/><path fill="#FFE9F5" d="M0 1991h4v4H0zm17 0h4v4h-4zm17 0h4v4h-4z"/><path fill="#98E3DF" d="M51 1991h4v4h-4z"/><path fill="#FFE9F5" d="M20 1991h4v4h-4z"/><path fill="#F2A6C0" d="M37 1991h4v4h-4z"/><path fill="#98E3DF" d="M54 1991h4v4h-4z"/><path fill="#F2A6C0" d="M71 1991h4v4h-4zm17 0h4v4h-4zm17 0h4v4h-4zM0 2008h4v4H0zm17 0h4v4h-4z"/><path fill="#98E3DF" d="M34 2008h4v4h-4zm17 0h4v4h-4zm-31 0h4v4h-4z"/><path fill="#F2A6C0" d="M37 2008h4v4h-4z"/><path fill="#98E3DF" d="M54 2008h4v4h-4z"/><path fill="#F2A6C0" d="M71 2008h4v4h-4zm17 0h4v4h-4z"/><path fill="#98E3DF" d="M105 2008h4v4h-4z"/><path fill="#FFE9F5" d="M0 2025h4v4H0z"/><path fill="#F2A6C0" d="M17 2025h4v4h-4zm17 0h4v4h-4z"/><path fill="#98E3DF" d="M51 2025h4v4h-4z"/><path fill="#FFE9F5" d="M20 2025h4v4h-4zm17 0h4v4h-4zm17 0h4v4h-4z"/><path fill="#F2A6C0" d="M71 2025h4v4h-4zm17 0h4v4h-4z"/><path fill="#98E3DF" d="M105 2025h4v4h-4zM0 2042h4v4H0zm17 0h4v4h-4z"/><path fill="#FFE9F5" d="M34 2042h4v4h-4zm17 0h4v4h-4z"/><path fill="#F2A6C0" d="M20 2042h4v4h-4zm17 0h4v4h-4zm17 0h4v4h-4z"/><path fill="#FFE9F5" d="M71 2042h4v4h-4z"/><path fill="#98E3DF" d="M88 2042h4v4h-4zm17 0h4v4h-4z"/><path fill="#F2A6C0" d="M0 2059h4v4H0z"/><path fill="#98E3DF" d="M17 2059h4v4h-4zm17 0h4v4h-4z"/><path fill="#FFE9F5" d="M51 2059h4v4h-4zm-31 0h4v4h-4zm17 0h4v4h-4z"/><path fill="#98E3DF" d="M54 2059h4v4h-4zm17 0h4v4h-4z"/><path fill="#FFE9F5" d="M88 2059h4v4h-4z"/><path fill="#98E3DF" d="M105 2059h4v4h-4z"/><path fill="#F2A6C0" d="M0 2076h4v4H0zm17 0h4v4h-4z"/><path fill="#FFE9F5" d="M34 2076h4v4h-4z"/><path fill="#F2A6C0" d="M51 2076h4v4h-4z"/><path fill="#FFE9F5" d="M20 2076h4v4h-4zm17 0h4v4h-4z"/><path fill="#98E3DF" d="M54 2076h4v4h-4z"/><path fill="#F2A6C0" d="M71 2076h4v4h-4z"/><path fill="#98E3DF" d="M88 2076h4v4h-4z"/><path fill="#FFE9F5" d="M105 2076h4v4h-4z"/></g></svg>