<svg width="1729" height="1213" fill="none" xmlns="http://www.w3.org/2000/svg"><path fill-rule="evenodd" clip-rule="evenodd" d="M328.045 941.621c23.632 4.393 49.798 4.172 67.698 20.219 17.172 15.396 22.324 40.08 25.099 62.98 2.261 18.66-12.471 35.43-10.907 54.16 2.301 27.55 37.929 55.67 21.962 78.24-15.212 21.5-52.78-9.24-77.397.11-28.237 10.73-39.077 53.82-69.231 55.59-28.9 1.7-52.435-24.9-70.692-47.37-17.909-22.05-38.809-50.33-30.827-77.59 8.475-28.95 58.985-26.64 69.611-54.87 12.043-31.99-32.994-73.352-11.376-99.829 18.607-22.79 57.137 2.984 86.06 8.36z" fill="#F2FDFF"/><path fill-rule="evenodd" clip-rule="evenodd" d="M1635.99 26.27c18.05 2.9 32.67 15.388 45.12 28.79 10.58 11.403 12.71 27.159 19.73 41.047 8.85 17.514 34.5 32.83 26.71 50.84-8.08 18.674-36.86 13.573-56.64 18.324-11.67 2.803-22.93 4.019-34.92 3.671-11.6-.336-22.65-1.515-33.48-5.655-14.55-5.554-31.88-8.856-39.73-22.306-8.26-14.174-3.84-31.799-1.28-48.007 3.04-19.256 2.94-41.314 17.46-54.316 14.85-13.306 37.34-15.549 57.03-12.387z" fill="#F4FDFC"/><path fill-rule="evenodd" clip-rule="evenodd" d="M204.568.661c35.313.287 79.852-3.945 91.187 29.097 11.521 33.583-23.563 60.976-53.657 80.302-24.248 15.572-53.774 19.537-78.347 4.47-32.339-19.827-67.811-50.849-55.106-86.292C120.935-6.048 167.753.362 204.568.66z" fill="#FFF8FA"/><path fill-rule="evenodd" clip-rule="evenodd" d="M1408.77 506.898c-34.97 18.495-71.8 35.048-87.16 70.399-16.68 38.388-15.94 83.226 1.9 125.769 20.12 47.977 50.06 99.736 100.77 119.046 50.14 19.094 107.06 4.888 141.54-26.779 28.65-26.321 4.81-75.412 11.95-114.226 5.54-30.116 29.7-52.468 24.52-84.063-8.04-49.018-11.73-113.356-60.63-136.134-48.74-22.705-90.66 23.651-132.89 45.988z" fill="#98E3DF"/><path fill-rule="evenodd" clip-rule="evenodd" d="M1215.67 641.184c-39.13-10.718-75.78-56.605-111.73-44.499-42.99 14.479-24.43 81.442-62.37 103.129-31.11 17.784-82.865-15.121-116.616-.807-31.47 13.347-51.606 43.903-56.374 74.176-4.836 30.702 25.179 60.725 30.167 92.21 4.615 29.139-8.303 57.121-1.912 86.162 6.996 31.79 10.227 70.405 40.969 91.305 32.435 22.06 80.926 1.67 118.026 16.79 35.62 14.52 50.26 62.36 88.38 67.34 37.69 4.92 59.81-33.67 94.46-43.47 32.1-9.08 68.27-4.77 101.25-11.9 41.25-8.91 104.28-1.89 118.54-35.58 15.72-37.113-39.17-76.435-54.25-116.239-9.59-25.326-21.58-51.223-18.85-76.739 4.15-38.731 49.74-69.857 38.73-108.865-9.6-33.993-53.29-57.989-90.52-74.602-36.52-16.297-79.11-7.783-117.9-18.411z" fill="#70DBED"/><path fill-rule="evenodd" clip-rule="evenodd" d="M1640 851.16c-12.03-42.912-94.66-47.936-119.11-87.013-27.75-44.348 29.81-124.396-26.74-146.054-57.47-22.009-114.49 48.453-175.77 68.497-37.49 12.26-76.95 14.032-114.38 26.4-43.86 14.493-90.03 25.765-123.99 52.356-39.81 31.178-77.26 68.415-85.009 111.324-8.033 44.491 12.119 89.002 42.219 125.67 29.61 36.09 71.79 69.26 125.69 78.93 51.62 9.27 101.92-28.15 155.47-28.45 57.19-.31 109.35 43.53 163.44 26.68 52.69-16.4 70.04-68.6 97.23-107.862 26.86-38.771 72.65-78.731 60.95-120.478z" fill="#F2A6C0"/><g opacity=".3"><rect x="766" y="1034" width="5" height="5" rx="1" fill="#F2A6C0"/><rect x="781" y="1034" width="5" height="5" rx="1" fill="#FFE9F5"/><rect x="796" y="1034" width="5" height="5" rx="1" fill="#98E3DF"/><rect x="811" y="1034" width="5" height="5" rx="1" fill="#FFE9F5"/><rect x="826" y="1034" width="5" height="5" rx="1" fill="#F2A6C0"/><rect x="841" y="1034" width="5" height="5" rx="1" fill="#98E3DF"/><rect x="856" y="1034" width="5" height="5" rx="1" fill="#F2A6C0"/><rect x="871" y="1034" width="5" height="5" rx="1" fill="#FFE9F5"/><rect x="886" y="1034" width="5" height="5" rx="1" fill="#F2A6C0"/><rect x="901" y="1034" width="5" height="5" rx="1" fill="#F2A6C0"/><rect x="766" y="1049" width="5" height="5" rx="1" fill="#98E3DF"/><rect x="781" y="1049" width="5" height="5" rx="1" fill="#F2A6C0"/><rect x="796" y="1049" width="5" height="5" rx="1" fill="#FFE9F5"/><rect x="811" y="1049" width="5" height="5" rx="1" fill="#F2A6C0"/><rect x="826" y="1049" width="5" height="5" rx="1" fill="#F2A6C0"/><rect x="841" y="1049" width="5" height="5" rx="1" fill="#FFE9F5"/><rect x="856" y="1049" width="5" height="5" rx="1" fill="#FFE9F5"/><rect x="871" y="1049" width="5" height="5" rx="1" fill="#FFE9F5"/><rect x="886" y="1049" width="5" height="5" rx="1" fill="#FFE9F5"/><rect x="901" y="1049" width="5" height="5" rx="1" fill="#98E3DF"/><rect x="766" y="1064" width="5" height="5" rx="1" fill="#F2A6C0"/><rect x="781" y="1064" width="5" height="5" rx="1" fill="#FFE9F5"/><rect x="796" y="1064" width="5" height="5" rx="1" fill="#FFE9F5"/><rect x="811" y="1064" width="5" height="5" rx="1" fill="#F2A6C0"/><rect x="826" y="1064" width="5" height="5" rx="1" fill="#98E3DF"/><rect x="841" y="1064" width="5" height="5" rx="1" fill="#FFE9F5"/><rect x="856" y="1064" width="5" height="5" rx="1" fill="#FFE9F5"/><rect x="871" y="1064" width="5" height="5" rx="1" fill="#98E3DF"/><rect x="886" y="1064" width="5" height="5" rx="1" fill="#98E3DF"/><rect x="901" y="1064" width="5" height="5" rx="1" fill="#FFE9F5"/><rect x="766" y="1079" width="5" height="5" rx="1" fill="#98E3DF"/><rect x="781" y="1079" width="5" height="5" rx="1" fill="#F2A6C0"/><rect x="796" y="1079" width="5" height="5" rx="1" fill="#F2A6C0"/><rect x="811" y="1079" width="5" height="5" rx="1" fill="#98E3DF"/><rect x="826" y="1079" width="5" height="5" rx="1" fill="#F2A6C0"/><rect x="841" y="1079" width="5" height="5" rx="1" fill="#FFE9F5"/><rect x="856" y="1079" width="5" height="5" rx="1" fill="#98E3DF"/><rect x="871" y="1079" width="5" height="5" rx="1" fill="#98E3DF"/><rect x="886" y="1079" width="5" height="5" rx="1" fill="#FFE9F5"/><rect x="901" y="1079" width="5" height="5" rx="1" fill="#F2A6C0"/><rect x="766" y="1094" width="5" height="5" rx="1" fill="#FFE9F5"/><rect x="781" y="1094" width="5" height="5" rx="1" fill="#F2A6C0"/><rect x="796" y="1094" width="5" height="5" rx="1" fill="#98E3DF"/><rect x="811" y="1094" width="5" height="5" rx="1" fill="#FFE9F5"/><rect x="826" y="1094" width="5" height="5" rx="1" fill="#98E3DF"/><rect x="841" y="1094" width="5" height="5" rx="1" fill="#98E3DF"/><rect x="856" y="1094" width="5" height="5" rx="1" fill="#F2A6C0"/><rect x="871" y="1094" width="5" height="5" rx="1" fill="#F2A6C0"/><rect x="886" y="1094" width="5" height="5" rx="1" fill="#F2A6C0"/><rect x="901" y="1094" width="5" height="5" rx="1" fill="#98E3DF"/><rect x="766" y="1109" width="5" height="5" rx="1" fill="#98E3DF"/><rect x="781" y="1109" width="5" height="5" rx="1" fill="#FFE9F5"/><rect x="796" y="1109" width="5" height="5" rx="1" fill="#98E3DF"/><rect x="811" y="1109" width="5" height="5" rx="1" fill="#FFE9F5"/><rect x="826" y="1109" width="5" height="5" rx="1" fill="#FFE9F5"/><rect x="841" y="1109" width="5" height="5" rx="1" fill="#98E3DF"/><rect x="856" y="1109" width="5" height="5" rx="1" fill="#98E3DF"/><rect x="871" y="1109" width="5" height="5" rx="1" fill="#FFE9F5"/><rect x="886" y="1109" width="5" height="5" rx="1" fill="#FFE9F5"/><rect x="901" y="1109" width="5" height="5" rx="1" fill="#FFE9F5"/><rect x="766" y="1124" width="5" height="5" rx="1" fill="#98E3DF"/><rect x="781" y="1124" width="5" height="5" rx="1" fill="#F2A6C0"/><rect x="796" y="1124" width="5" height="5" rx="1" fill="#F2A6C0"/><rect x="811" y="1124" width="5" height="5" rx="1" fill="#98E3DF"/><rect x="826" y="1124" width="5" height="5" rx="1" fill="#F2A6C0"/><rect x="841" y="1124" width="5" height="5" rx="1" fill="#F2A6C0"/><rect x="856" y="1124" width="5" height="5" rx="1" fill="#F2A6C0"/><rect x="871" y="1124" width="5" height="5" rx="1" fill="#FFE9F5"/><rect x="886" y="1124" width="5" height="5" rx="1" fill="#98E3DF"/><rect x="901" y="1124" width="5" height="5" rx="1" fill="#98E3DF"/><rect x="766" y="1139" width="5" height="5" rx="1" fill="#98E3DF"/><rect x="781" y="1139" width="5" height="5" rx="1" fill="#F2A6C0"/><rect x="796" y="1139" width="5" height="5" rx="1" fill="#98E3DF"/><rect x="811" y="1139" width="5" height="5" rx="1" fill="#FFE9F5"/><rect x="826" y="1139" width="5" height="5" rx="1" fill="#FFE9F5"/><rect x="841" y="1139" width="5" height="5" rx="1" fill="#FFE9F5"/><rect x="856" y="1139" width="5" height="5" rx="1" fill="#98E3DF"/><rect x="871" y="1139" width="5" height="5" rx="1" fill="#98E3DF"/><rect x="886" y="1139" width="5" height="5" rx="1" fill="#F2A6C0"/><rect x="901" y="1139" width="5" height="5" rx="1" fill="#F2A6C0"/></g><g opacity=".3"><path fill="#FFE9F5" d="M0 484h4v4H0zm17 0h4v4h-4z"/><path fill="#98E3DF" d="M34 484h4v4h-4z"/><path fill="#FFE9F5" d="M51 484h4v4h-4z"/><path fill="#F2A6C0" d="M68 484h4v4h-4z"/><path fill="#FFE9F5" d="M85 484h4v4h-4zm17 0h4v4h-4zm17 0h4v4h-4z"/><path fill="#98E3DF" d="M136 484h4v4h-4z"/><path fill="#F2A6C0" d="M153 484h4v4h-4z"/><path fill="#98E3DF" d="M0 501h4v4H0z"/><path fill="#FFE9F5" d="M17 501h4v4h-4z"/><path fill="#98E3DF" d="M34 501h4v4h-4zm17 0h4v4h-4z"/><path fill="#F2A6C0" d="M68 501h4v4h-4zm17 0h4v4h-4z"/><path fill="#98E3DF" d="M102 501h4v4h-4zm17 0h4v4h-4z"/><path fill="#FFE9F5" d="M136 501h4v4h-4z"/><path fill="#98E3DF" d="M153 501h4v4h-4z"/><path fill="#FFE9F5" d="M0 518h4v4H0z"/><path fill="#F2A6C0" d="M17 518h4v4h-4zm17 0h4v4h-4z"/><path fill="#FFE9F5" d="M51 518h4v4h-4z"/><path fill="#F2A6C0" d="M68 518h4v4h-4zm17 0h4v4h-4z"/><path fill="#98E3DF" d="M102 518h4v4h-4z"/><path fill="#FFE9F5" d="M119 518h4v4h-4z"/><path fill="#98E3DF" d="M136 518h4v4h-4zm17 0h4v4h-4z"/><path fill="#F2A6C0" d="M0 535h4v4H0zm17 0h4v4h-4z"/><path fill="#FFE9F5" d="M34 535h4v4h-4zm17 0h4v4h-4z"/><path fill="#98E3DF" d="M68 535h4v4h-4z"/><path fill="#F2A6C0" d="M85 535h4v4h-4z"/><path fill="#98E3DF" d="M102 535h4v4h-4zm17 0h4v4h-4z"/><path fill="#F2A6C0" d="M136 535h4v4h-4z"/><path fill="#98E3DF" d="M153 535h4v4h-4z"/><path fill="#FFE9F5" d="M0 552h4v4H0zm17 0h4v4h-4zm17 0h4v4h-4zm17 0h4v4h-4zm17 0h4v4h-4z"/><path fill="#98E3DF" d="M85 552h4v4h-4z"/><path fill="#F2A6C0" d="M102 552h4v4h-4zm17 0h4v4h-4z"/><path fill="#98E3DF" d="M136 552h4v4h-4zm17 0h4v4h-4z"/><path fill="#FFE9F5" d="M0 569h4v4H0zm17 0h4v4h-4z"/><path fill="#F2A6C0" d="M34 569h4v4h-4z"/><path fill="#FFE9F5" d="M51 569h4v4h-4z"/><path fill="#98E3DF" d="M68 569h4v4h-4z"/><path fill="#F2A6C0" d="M85 569h4v4h-4z"/><path fill="#98E3DF" d="M102 569h4v4h-4z"/><path fill="#F2A6C0" d="M119 569h4v4h-4z"/><path fill="#98E3DF" d="M136 569h4v4h-4z"/><path fill="#FFE9F5" d="M153 569h4v4h-4zM0 586h4v4H0z"/><path fill="#F2A6C0" d="M17 586h4v4h-4zm17 0h4v4h-4z"/><path fill="#FFE9F5" d="M51 586h4v4h-4z"/><path fill="#F2A6C0" d="M68 586h4v4h-4zm17 0h4v4h-4z"/><path fill="#FFE9F5" d="M102 586h4v4h-4zm17 0h4v4h-4z"/><path fill="#98E3DF" d="M136 586h4v4h-4z"/><path fill="#FFE9F5" d="M153 586h4v4h-4z"/><path fill="#F2A6C0" d="M0 603h4v4H0z"/><path fill="#98E3DF" d="M17 603h4v4h-4z"/><path fill="#F2A6C0" d="M34 603h4v4h-4z"/><path fill="#98E3DF" d="M51 603h4v4h-4z"/><path fill="#F2A6C0" d="M68 603h4v4h-4z"/><path fill="#FFE9F5" d="M85 603h4v4h-4z"/><path fill="#F2A6C0" d="M102 603h4v4h-4z"/><path fill="#98E3DF" d="M119 603h4v4h-4z"/><path fill="#F2A6C0" d="M136 603h4v4h-4z"/><path fill="#FFE9F5" d="M153 603h4v4h-4zM0 620h4v4H0z"/><path fill="#F2A6C0" d="M17 620h4v4h-4z"/><path fill="#98E3DF" d="M34 620h4v4h-4zm17 0h4v4h-4zm17 0h4v4h-4z"/><path fill="#FFE9F5" d="M85 620h4v4h-4z"/><path fill="#F2A6C0" d="M102 620h4v4h-4zm17 0h4v4h-4z"/><path fill="#98E3DF" d="M136 620h4v4h-4zm17 0h4v4h-4z"/><path fill="#FFE9F5" d="M0 637h4v4H0zm17 0h4v4h-4zm17 0h4v4h-4z"/><path fill="#98E3DF" d="M51 637h4v4h-4z"/><path fill="#FFE9F5" d="M68 637h4v4h-4z"/><path fill="#F2A6C0" d="M85 637h4v4h-4z"/><path fill="#98E3DF" d="M102 637h4v4h-4z"/><path fill="#F2A6C0" d="M119 637h4v4h-4zm17 0h4v4h-4zm17 0h4v4h-4zM0 654h4v4H0zm17 0h4v4h-4z"/><path fill="#98E3DF" d="M34 654h4v4h-4zm17 0h4v4h-4zm17 0h4v4h-4z"/><path fill="#F2A6C0" d="M85 654h4v4h-4z"/><path fill="#98E3DF" d="M102 654h4v4h-4z"/><path fill="#F2A6C0" d="M119 654h4v4h-4zm17 0h4v4h-4z"/><path fill="#98E3DF" d="M153 654h4v4h-4z"/><path fill="#FFE9F5" d="M0 671h4v4H0z"/><path fill="#F2A6C0" d="M17 671h4v4h-4zm17 0h4v4h-4z"/><path fill="#98E3DF" d="M51 671h4v4h-4z"/><path fill="#FFE9F5" d="M68 671h4v4h-4zm17 0h4v4h-4zm17 0h4v4h-4z"/><path fill="#F2A6C0" d="M119 671h4v4h-4zm17 0h4v4h-4z"/><path fill="#98E3DF" d="M153 671h4v4h-4zM0 688h4v4H0zm17 0h4v4h-4z"/><path fill="#FFE9F5" d="M34 688h4v4h-4zm17 0h4v4h-4z"/><path fill="#F2A6C0" d="M68 688h4v4h-4zm17 0h4v4h-4zm17 0h4v4h-4z"/><path fill="#FFE9F5" d="M119 688h4v4h-4z"/><path fill="#98E3DF" d="M136 688h4v4h-4zm17 0h4v4h-4z"/><path fill="#F2A6C0" d="M0 705h4v4H0z"/><path fill="#98E3DF" d="M17 705h4v4h-4zm17 0h4v4h-4z"/><path fill="#FFE9F5" d="M51 705h4v4h-4zm17 0h4v4h-4zm17 0h4v4h-4z"/><path fill="#98E3DF" d="M102 705h4v4h-4zm17 0h4v4h-4z"/><path fill="#FFE9F5" d="M136 705h4v4h-4z"/><path fill="#98E3DF" d="M153 705h4v4h-4z"/><path fill="#F2A6C0" d="M0 722h4v4H0zm17 0h4v4h-4z"/><path fill="#FFE9F5" d="M34 722h4v4h-4z"/><path fill="#F2A6C0" d="M51 722h4v4h-4z"/><path fill="#FFE9F5" d="M68 722h4v4h-4zm17 0h4v4h-4z"/><path fill="#98E3DF" d="M102 722h4v4h-4z"/><path fill="#F2A6C0" d="M119 722h4v4h-4z"/><path fill="#98E3DF" d="M136 722h4v4h-4z"/><path fill="#FFE9F5" d="M153 722h4v4h-4z"/></g></svg>