<svg width="431" height="925" fill="none" xmlns="http://www.w3.org/2000/svg"><path fill-rule="evenodd" clip-rule="evenodd" d="M94.211 738.025c18.137-.852 28.488 20.485 44.347 29.348 19.196 10.727 49.336 7.606 58.007 27.851 8.53 19.913-7.064 42.959-20.354 60.051-10.748 13.823-30.4 14.725-45.129 24.166-13.384 8.58-21.083 26.618-36.87 28.395-16.137 1.816-29.013-11.852-43.421-19.358-17.633-9.185-45.588-10.04-50.21-29.415-4.728-19.823 20.633-33.381 31.055-50.882 7.417-12.455 11.503-25.966 21.148-36.78 12.105-13.571 23.287-32.524 41.427-33.376z" fill="#FFF9FC"/><g opacity=".3"><rect x="50" width="5" height="5" rx="1" fill="#F2A6C0"/><rect x="65" width="5" height="5" rx="1" fill="#FFE9F5"/><rect x="80" width="5" height="5" rx="1" fill="#98E3DF"/><rect x="95" width="5" height="5" rx="1" fill="#FFE9F5"/><rect x="110" width="5" height="5" rx="1" fill="#F2A6C0"/><rect x="125" width="5" height="5" rx="1" fill="#98E3DF"/><rect x="140" width="5" height="5" rx="1" fill="#F2A6C0"/><rect x="155" width="5" height="5" rx="1" fill="#FFE9F5"/><rect x="170" width="5" height="5" rx="1" fill="#F2A6C0"/><rect x="185" width="5" height="5" rx="1" fill="#F2A6C0"/><rect x="50" y="15" width="5" height="5" rx="1" fill="#98E3DF"/><rect x="65" y="15" width="5" height="5" rx="1" fill="#F2A6C0"/><rect x="80" y="15" width="5" height="5" rx="1" fill="#FFE9F5"/><rect x="95" y="15" width="5" height="5" rx="1" fill="#F2A6C0"/><rect x="110" y="15" width="5" height="5" rx="1" fill="#F2A6C0"/><rect x="125" y="15" width="5" height="5" rx="1" fill="#FFE9F5"/><rect x="140" y="15" width="5" height="5" rx="1" fill="#FFE9F5"/><rect x="155" y="15" width="5" height="5" rx="1" fill="#FFE9F5"/><rect x="170" y="15" width="5" height="5" rx="1" fill="#FFE9F5"/><rect x="185" y="15" width="5" height="5" rx="1" fill="#98E3DF"/><rect x="50" y="30" width="5" height="5" rx="1" fill="#F2A6C0"/><rect x="65" y="30" width="5" height="5" rx="1" fill="#FFE9F5"/><rect x="80" y="30" width="5" height="5" rx="1" fill="#FFE9F5"/><rect x="95" y="30" width="5" height="5" rx="1" fill="#F2A6C0"/><rect x="110" y="30" width="5" height="5" rx="1" fill="#98E3DF"/><rect x="125" y="30" width="5" height="5" rx="1" fill="#FFE9F5"/><rect x="140" y="30" width="5" height="5" rx="1" fill="#FFE9F5"/><rect x="155" y="30" width="5" height="5" rx="1" fill="#98E3DF"/><rect x="170" y="30" width="5" height="5" rx="1" fill="#98E3DF"/><rect x="185" y="30" width="5" height="5" rx="1" fill="#FFE9F5"/><rect x="50" y="45" width="5" height="5" rx="1" fill="#98E3DF"/><rect x="65" y="45" width="5" height="5" rx="1" fill="#F2A6C0"/><rect x="80" y="45" width="5" height="5" rx="1" fill="#F2A6C0"/><rect x="95" y="45" width="5" height="5" rx="1" fill="#98E3DF"/><rect x="110" y="45" width="5" height="5" rx="1" fill="#F2A6C0"/><rect x="125" y="45" width="5" height="5" rx="1" fill="#FFE9F5"/><rect x="140" y="45" width="5" height="5" rx="1" fill="#98E3DF"/><rect x="155" y="45" width="5" height="5" rx="1" fill="#98E3DF"/><rect x="170" y="45" width="5" height="5" rx="1" fill="#FFE9F5"/><rect x="185" y="45" width="5" height="5" rx="1" fill="#F2A6C0"/><rect x="50" y="60" width="5" height="5" rx="1" fill="#FFE9F5"/><rect x="65" y="60" width="5" height="5" rx="1" fill="#F2A6C0"/><rect x="80" y="60" width="5" height="5" rx="1" fill="#98E3DF"/><rect x="95" y="60" width="5" height="5" rx="1" fill="#FFE9F5"/><rect x="110" y="60" width="5" height="5" rx="1" fill="#98E3DF"/><rect x="125" y="60" width="5" height="5" rx="1" fill="#98E3DF"/><rect x="140" y="60" width="5" height="5" rx="1" fill="#F2A6C0"/><rect x="155" y="60" width="5" height="5" rx="1" fill="#F2A6C0"/><rect x="170" y="60" width="5" height="5" rx="1" fill="#F2A6C0"/><rect x="185" y="60" width="5" height="5" rx="1" fill="#98E3DF"/><rect x="50" y="75" width="5" height="5" rx="1" fill="#98E3DF"/><rect x="65" y="75" width="5" height="5" rx="1" fill="#FFE9F5"/><rect x="80" y="75" width="5" height="5" rx="1" fill="#98E3DF"/><rect x="95" y="75" width="5" height="5" rx="1" fill="#FFE9F5"/><rect x="110" y="75" width="5" height="5" rx="1" fill="#FFE9F5"/><rect x="125" y="75" width="5" height="5" rx="1" fill="#98E3DF"/><rect x="140" y="75" width="5" height="5" rx="1" fill="#98E3DF"/><rect x="155" y="75" width="5" height="5" rx="1" fill="#FFE9F5"/><rect x="170" y="75" width="5" height="5" rx="1" fill="#FFE9F5"/><rect x="185" y="75" width="5" height="5" rx="1" fill="#FFE9F5"/><rect x="50" y="90" width="5" height="5" rx="1" fill="#98E3DF"/><rect x="65" y="90" width="5" height="5" rx="1" fill="#F2A6C0"/><rect x="80" y="90" width="5" height="5" rx="1" fill="#F2A6C0"/><rect x="95" y="90" width="5" height="5" rx="1" fill="#98E3DF"/><rect x="110" y="90" width="5" height="5" rx="1" fill="#F2A6C0"/><rect x="125" y="90" width="5" height="5" rx="1" fill="#F2A6C0"/><rect x="140" y="90" width="5" height="5" rx="1" fill="#F2A6C0"/><rect x="155" y="90" width="5" height="5" rx="1" fill="#FFE9F5"/><rect x="170" y="90" width="5" height="5" rx="1" fill="#98E3DF"/><rect x="185" y="90" width="5" height="5" rx="1" fill="#98E3DF"/><rect x="50" y="105" width="5" height="5" rx="1" fill="#98E3DF"/><rect x="65" y="105" width="5" height="5" rx="1" fill="#F2A6C0"/><rect x="80" y="105" width="5" height="5" rx="1" fill="#98E3DF"/><rect x="95" y="105" width="5" height="5" rx="1" fill="#FFE9F5"/><rect x="110" y="105" width="5" height="5" rx="1" fill="#FFE9F5"/><rect x="125" y="105" width="5" height="5" rx="1" fill="#FFE9F5"/><rect x="140" y="105" width="5" height="5" rx="1" fill="#98E3DF"/><rect x="155" y="105" width="5" height="5" rx="1" fill="#98E3DF"/><rect x="170" y="105" width="5" height="5" rx="1" fill="#F2A6C0"/><rect x="185" y="105" width="5" height="5" rx="1" fill="#F2A6C0"/></g><g opacity=".3"><path fill="#FFE9F5" d="M322 683h4v4h-4zm17 0h4v4h-4z"/><path fill="#98E3DF" d="M356 683h4v4h-4z"/><path fill="#FFE9F5" d="M373 683h4v4h-4z"/><path fill="#F2A6C0" d="M390 683h4v4h-4z"/><path fill="#FFE9F5" d="M407 683h4v4h-4zm17 0h4v4h-4zm-31 0h4v4h-4z"/><path fill="#98E3DF" d="M410 683h4v4h-4z"/><path fill="#F2A6C0" d="M427 683h4v4h-4z"/><path fill="#98E3DF" d="M322 700h4v4h-4z"/><path fill="#FFE9F5" d="M339 700h4v4h-4z"/><path fill="#98E3DF" d="M356 700h4v4h-4zm17 0h4v4h-4z"/><path fill="#F2A6C0" d="M390 700h4v4h-4zm17 0h4v4h-4z"/><path fill="#98E3DF" d="M424 700h4v4h-4zm-31 0h4v4h-4z"/><path fill="#FFE9F5" d="M410 700h4v4h-4z"/><path fill="#98E3DF" d="M427 700h4v4h-4z"/><path fill="#FFE9F5" d="M322 717h4v4h-4z"/><path fill="#F2A6C0" d="M339 717h4v4h-4zm17 0h4v4h-4z"/><path fill="#FFE9F5" d="M373 717h4v4h-4z"/><path fill="#F2A6C0" d="M390 717h4v4h-4zm17 0h4v4h-4z"/><path fill="#98E3DF" d="M424 717h4v4h-4z"/><path fill="#FFE9F5" d="M393 717h4v4h-4z"/><path fill="#98E3DF" d="M410 717h4v4h-4zm17 0h4v4h-4z"/><path fill="#F2A6C0" d="M322 734h4v4h-4zm17 0h4v4h-4z"/><path fill="#FFE9F5" d="M356 734h4v4h-4zm17 0h4v4h-4z"/><path fill="#98E3DF" d="M390 734h4v4h-4z"/><path fill="#F2A6C0" d="M407 734h4v4h-4z"/><path fill="#98E3DF" d="M424 734h4v4h-4zm-31 0h4v4h-4z"/><path fill="#F2A6C0" d="M410 734h4v4h-4z"/><path fill="#98E3DF" d="M427 734h4v4h-4z"/><path fill="#FFE9F5" d="M322 751h4v4h-4zm17 0h4v4h-4zm17 0h4v4h-4zm17 0h4v4h-4zm17 0h4v4h-4z"/><path fill="#98E3DF" d="M407 751h4v4h-4z"/><path fill="#F2A6C0" d="M424 751h4v4h-4zm-31 0h4v4h-4z"/><path fill="#98E3DF" d="M410 751h4v4h-4zm17 0h4v4h-4z"/><path fill="#FFE9F5" d="M322 768h4v4h-4zm17 0h4v4h-4z"/><path fill="#F2A6C0" d="M356 768h4v4h-4z"/><path fill="#FFE9F5" d="M373 768h4v4h-4z"/><path fill="#98E3DF" d="M390 768h4v4h-4z"/><path fill="#F2A6C0" d="M407 768h4v4h-4z"/><path fill="#98E3DF" d="M424 768h4v4h-4z"/><path fill="#F2A6C0" d="M393 768h4v4h-4z"/><path fill="#98E3DF" d="M410 768h4v4h-4z"/><path fill="#FFE9F5" d="M427 768h4v4h-4zm-105 17h4v4h-4z"/><path fill="#F2A6C0" d="M339 785h4v4h-4zm17 0h4v4h-4z"/><path fill="#FFE9F5" d="M373 785h4v4h-4z"/><path fill="#F2A6C0" d="M390 785h4v4h-4zm17 0h4v4h-4z"/><path fill="#FFE9F5" d="M424 785h4v4h-4zm-31 0h4v4h-4z"/><path fill="#98E3DF" d="M410 785h4v4h-4z"/><path fill="#FFE9F5" d="M427 785h4v4h-4z"/><path fill="#F2A6C0" d="M322 802h4v4h-4z"/><path fill="#98E3DF" d="M339 802h4v4h-4z"/><path fill="#F2A6C0" d="M356 802h4v4h-4z"/><path fill="#98E3DF" d="M373 802h4v4h-4z"/><path fill="#F2A6C0" d="M390 802h4v4h-4z"/><path fill="#FFE9F5" d="M407 802h4v4h-4z"/><path fill="#F2A6C0" d="M424 802h4v4h-4z"/><path fill="#98E3DF" d="M393 802h4v4h-4z"/><path fill="#F2A6C0" d="M410 802h4v4h-4z"/><path fill="#FFE9F5" d="M427 802h4v4h-4zm-105 17h4v4h-4z"/><path fill="#F2A6C0" d="M339 819h4v4h-4z"/><path fill="#98E3DF" d="M356 819h4v4h-4zm17 0h4v4h-4zm17 0h4v4h-4z"/><path fill="#FFE9F5" d="M407 819h4v4h-4z"/><path fill="#F2A6C0" d="M424 819h4v4h-4zm-31 0h4v4h-4z"/><path fill="#98E3DF" d="M410 819h4v4h-4zm17 0h4v4h-4z"/><path fill="#FFE9F5" d="M322 836h4v4h-4zm17 0h4v4h-4zm17 0h4v4h-4z"/><path fill="#98E3DF" d="M373 836h4v4h-4z"/><path fill="#FFE9F5" d="M390 836h4v4h-4z"/><path fill="#F2A6C0" d="M407 836h4v4h-4z"/><path fill="#98E3DF" d="M424 836h4v4h-4z"/><path fill="#F2A6C0" d="M393 836h4v4h-4zm17 0h4v4h-4zm17 0h4v4h-4zm-105 17h4v4h-4zm17 0h4v4h-4z"/><path fill="#98E3DF" d="M356 853h4v4h-4zm17 0h4v4h-4zm17 0h4v4h-4z"/><path fill="#F2A6C0" d="M407 853h4v4h-4z"/><path fill="#98E3DF" d="M424 853h4v4h-4z"/><path fill="#F2A6C0" d="M393 853h4v4h-4zm17 0h4v4h-4z"/><path fill="#98E3DF" d="M427 853h4v4h-4z"/><path fill="#FFE9F5" d="M322 870h4v4h-4z"/><path fill="#F2A6C0" d="M339 870h4v4h-4zm17 0h4v4h-4z"/><path fill="#98E3DF" d="M373 870h4v4h-4z"/><path fill="#FFE9F5" d="M390 870h4v4h-4zm17 0h4v4h-4zm17 0h4v4h-4z"/><path fill="#F2A6C0" d="M393 870h4v4h-4zm17 0h4v4h-4z"/><path fill="#98E3DF" d="M427 870h4v4h-4zm-105 17h4v4h-4zm17 0h4v4h-4z"/><path fill="#FFE9F5" d="M356 887h4v4h-4zm17 0h4v4h-4z"/><path fill="#F2A6C0" d="M390 887h4v4h-4zm17 0h4v4h-4zm17 0h4v4h-4z"/><path fill="#FFE9F5" d="M393 887h4v4h-4z"/><path fill="#98E3DF" d="M410 887h4v4h-4zm17 0h4v4h-4z"/><path fill="#F2A6C0" d="M322 904h4v4h-4z"/><path fill="#98E3DF" d="M339 904h4v4h-4zm17 0h4v4h-4z"/><path fill="#FFE9F5" d="M373 904h4v4h-4zm17 0h4v4h-4zm17 0h4v4h-4z"/><path fill="#98E3DF" d="M424 904h4v4h-4zm-31 0h4v4h-4z"/><path fill="#FFE9F5" d="M410 904h4v4h-4z"/><path fill="#98E3DF" d="M427 904h4v4h-4z"/><path fill="#F2A6C0" d="M322 921h4v4h-4zm17 0h4v4h-4z"/><path fill="#FFE9F5" d="M356 921h4v4h-4z"/><path fill="#F2A6C0" d="M373 921h4v4h-4z"/><path fill="#FFE9F5" d="M390 921h4v4h-4zm17 0h4v4h-4z"/><path fill="#98E3DF" d="M424 921h4v4h-4z"/><path fill="#F2A6C0" d="M393 921h4v4h-4z"/><path fill="#98E3DF" d="M410 921h4v4h-4z"/><path fill="#FFE9F5" d="M427 921h4v4h-4z"/></g></svg>