<svg width="1721" height="699" fill="none" xmlns="http://www.w3.org/2000/svg"><path fill-rule="evenodd" clip-rule="evenodd" d="M79.562 19.488C97.031 18.15 114.533-8.455 128.05 2.745c13.924 11.535-10.638 35.643-4.916 52.842 5.818 17.487 35.397 21.732 35.86 40.165.431 17.189-21.227 25.487-33.923 37.011-14.545 13.203-26.037 37.336-45.509 35.091-19.99-2.306-23.755-31.022-38.504-44.779-12.051-11.241-33.504-12.393-39.347-27.839-5.865-15.5 4.735-31.903 10.932-47.273 5.733-14.22 9.462-32.196 23.521-38.178 13.99-5.953 28.25 10.864 43.398 9.703z" fill="#FFF9FC"/><path fill-rule="evenodd" clip-rule="evenodd" d="M1135.68 277.347c26.08.464 53.57-2.527 72.83 15.01 23.11 21.032 46.51 53.65 34 82.24-12.12 27.682-55.34 12.797-81.93 27.261-30.59 16.64-45.09 68.657-78.89 60.224-33.79-8.429-36.66-55.71-41.1-90.159-3.77-29.341-2.08-61.324 18.92-82.215 19.16-19.059 49.11-12.842 76.17-12.361z" fill="#FFF8FA"/><g opacity=".3"><path fill="#FFE9F5" d="M1564 213h4v4h-4zm17 0h4v4h-4z"/><path fill="#98E3DF" d="M1598 213h4v4h-4z"/><path fill="#FFE9F5" d="M1615 213h4v4h-4z"/><path fill="#F2A6C0" d="M1632 213h4v4h-4z"/><path fill="#FFE9F5" d="M1649 213h4v4h-4zm17 0h4v4h-4zm17 0h4v4h-4z"/><path fill="#98E3DF" d="M1700 213h4v4h-4z"/><path fill="#F2A6C0" d="M1717 213h4v4h-4z"/><path fill="#98E3DF" d="M1564 230h4v4h-4z"/><path fill="#FFE9F5" d="M1581 230h4v4h-4z"/><path fill="#98E3DF" d="M1598 230h4v4h-4zm17 0h4v4h-4z"/><path fill="#F2A6C0" d="M1632 230h4v4h-4zm17 0h4v4h-4z"/><path fill="#98E3DF" d="M1666 230h4v4h-4zm17 0h4v4h-4z"/><path fill="#FFE9F5" d="M1700 230h4v4h-4z"/><path fill="#98E3DF" d="M1717 230h4v4h-4z"/><path fill="#FFE9F5" d="M1564 247h4v4h-4z"/><path fill="#F2A6C0" d="M1581 247h4v4h-4zm17 0h4v4h-4z"/><path fill="#FFE9F5" d="M1615 247h4v4h-4z"/><path fill="#F2A6C0" d="M1632 247h4v4h-4zm17 0h4v4h-4z"/><path fill="#98E3DF" d="M1666 247h4v4h-4z"/><path fill="#FFE9F5" d="M1683 247h4v4h-4z"/><path fill="#98E3DF" d="M1700 247h4v4h-4zm17 0h4v4h-4z"/><path fill="#F2A6C0" d="M1564 264h4v4h-4zm17 0h4v4h-4z"/><path fill="#FFE9F5" d="M1598 264h4v4h-4zm17 0h4v4h-4z"/><path fill="#98E3DF" d="M1632 264h4v4h-4z"/><path fill="#F2A6C0" d="M1649 264h4v4h-4z"/><path fill="#98E3DF" d="M1666 264h4v4h-4zm17 0h4v4h-4z"/><path fill="#F2A6C0" d="M1700 264h4v4h-4z"/><path fill="#98E3DF" d="M1717 264h4v4h-4z"/><path fill="#FFE9F5" d="M1564 281h4v4h-4zm17 0h4v4h-4zm17 0h4v4h-4zm17 0h4v4h-4zm17 0h4v4h-4z"/><path fill="#98E3DF" d="M1649 281h4v4h-4z"/><path fill="#F2A6C0" d="M1666 281h4v4h-4zm17 0h4v4h-4z"/><path fill="#98E3DF" d="M1700 281h4v4h-4zm17 0h4v4h-4z"/><path fill="#FFE9F5" d="M1564 298h4v4h-4zm17 0h4v4h-4z"/><path fill="#F2A6C0" d="M1598 298h4v4h-4z"/><path fill="#FFE9F5" d="M1615 298h4v4h-4z"/><path fill="#98E3DF" d="M1632 298h4v4h-4z"/><path fill="#F2A6C0" d="M1649 298h4v4h-4z"/><path fill="#98E3DF" d="M1666 298h4v4h-4z"/><path fill="#F2A6C0" d="M1683 298h4v4h-4z"/><path fill="#98E3DF" d="M1700 298h4v4h-4z"/><path fill="#FFE9F5" d="M1717 298h4v4h-4zm-153 17h4v4h-4z"/><path fill="#F2A6C0" d="M1581 315h4v4h-4zm17 0h4v4h-4z"/><path fill="#FFE9F5" d="M1615 315h4v4h-4z"/><path fill="#F2A6C0" d="M1632 315h4v4h-4zm17 0h4v4h-4z"/><path fill="#FFE9F5" d="M1666 315h4v4h-4zm17 0h4v4h-4z"/><path fill="#98E3DF" d="M1700 315h4v4h-4z"/><path fill="#FFE9F5" d="M1717 315h4v4h-4z"/><path fill="#F2A6C0" d="M1564 332h4v4h-4z"/><path fill="#98E3DF" d="M1581 332h4v4h-4z"/><path fill="#F2A6C0" d="M1598 332h4v4h-4z"/><path fill="#98E3DF" d="M1615 332h4v4h-4z"/><path fill="#F2A6C0" d="M1632 332h4v4h-4z"/><path fill="#FFE9F5" d="M1649 332h4v4h-4z"/><path fill="#F2A6C0" d="M1666 332h4v4h-4z"/><path fill="#98E3DF" d="M1683 332h4v4h-4z"/><path fill="#F2A6C0" d="M1700 332h4v4h-4z"/><path fill="#FFE9F5" d="M1717 332h4v4h-4zm-153 17h4v4h-4z"/><path fill="#F2A6C0" d="M1581 349h4v4h-4z"/><path fill="#98E3DF" d="M1598 349h4v4h-4zm17 0h4v4h-4zm17 0h4v4h-4z"/><path fill="#FFE9F5" d="M1649 349h4v4h-4z"/><path fill="#F2A6C0" d="M1666 349h4v4h-4zm17 0h4v4h-4z"/><path fill="#98E3DF" d="M1700 349h4v4h-4zm17 0h4v4h-4z"/><path fill="#FFE9F5" d="M1564 366h4v4h-4zm17 0h4v4h-4zm17 0h4v4h-4z"/><path fill="#98E3DF" d="M1615 366h4v4h-4z"/><path fill="#FFE9F5" d="M1632 366h4v4h-4z"/><path fill="#F2A6C0" d="M1649 366h4v4h-4z"/><path fill="#98E3DF" d="M1666 366h4v4h-4z"/><path fill="#F2A6C0" d="M1683 366h4v4h-4zm17 0h4v4h-4zm17 0h4v4h-4zm-153 17h4v4h-4zm17 0h4v4h-4z"/><path fill="#98E3DF" d="M1598 383h4v4h-4zm17 0h4v4h-4zm17 0h4v4h-4z"/><path fill="#F2A6C0" d="M1649 383h4v4h-4z"/><path fill="#98E3DF" d="M1666 383h4v4h-4z"/><path fill="#F2A6C0" d="M1683 383h4v4h-4zm17 0h4v4h-4z"/><path fill="#98E3DF" d="M1717 383h4v4h-4z"/><path fill="#FFE9F5" d="M1564 400h4v4h-4z"/><path fill="#F2A6C0" d="M1581 400h4v4h-4zm17 0h4v4h-4z"/><path fill="#98E3DF" d="M1615 400h4v4h-4z"/><path fill="#FFE9F5" d="M1632 400h4v4h-4zm17 0h4v4h-4zm17 0h4v4h-4z"/><path fill="#F2A6C0" d="M1683 400h4v4h-4zm17 0h4v4h-4z"/><path fill="#98E3DF" d="M1717 400h4v4h-4zm-153 17h4v4h-4zm17 0h4v4h-4z"/><path fill="#FFE9F5" d="M1598 417h4v4h-4zm17 0h4v4h-4z"/><path fill="#F2A6C0" d="M1632 417h4v4h-4zm17 0h4v4h-4zm17 0h4v4h-4z"/><path fill="#FFE9F5" d="M1683 417h4v4h-4z"/><path fill="#98E3DF" d="M1700 417h4v4h-4zm17 0h4v4h-4z"/><path fill="#F2A6C0" d="M1564 434h4v4h-4z"/><path fill="#98E3DF" d="M1581 434h4v4h-4zm17 0h4v4h-4z"/><path fill="#FFE9F5" d="M1615 434h4v4h-4zm17 0h4v4h-4zm17 0h4v4h-4z"/><path fill="#98E3DF" d="M1666 434h4v4h-4zm17 0h4v4h-4z"/><path fill="#FFE9F5" d="M1700 434h4v4h-4z"/><path fill="#98E3DF" d="M1717 434h4v4h-4z"/><path fill="#F2A6C0" d="M1564 451h4v4h-4zm17 0h4v4h-4z"/><path fill="#FFE9F5" d="M1598 451h4v4h-4z"/><path fill="#F2A6C0" d="M1615 451h4v4h-4z"/><path fill="#FFE9F5" d="M1632 451h4v4h-4zm17 0h4v4h-4z"/><path fill="#98E3DF" d="M1666 451h4v4h-4z"/><path fill="#F2A6C0" d="M1683 451h4v4h-4z"/><path fill="#98E3DF" d="M1700 451h4v4h-4z"/><path fill="#FFE9F5" d="M1717 451h4v4h-4z"/></g><g opacity=".3"><path fill="#FFE9F5" d="M408 457h4v4h-4zm17 0h4v4h-4z"/><path fill="#98E3DF" d="M442 457h4v4h-4z"/><path fill="#FFE9F5" d="M459 457h4v4h-4z"/><path fill="#F2A6C0" d="M476 457h4v4h-4z"/><path fill="#FFE9F5" d="M493 457h4v4h-4zm17 0h4v4h-4zm17 0h4v4h-4z"/><path fill="#98E3DF" d="M544 457h4v4h-4z"/><path fill="#F2A6C0" d="M561 457h4v4h-4z"/><path fill="#98E3DF" d="M408 474h4v4h-4z"/><path fill="#FFE9F5" d="M425 474h4v4h-4z"/><path fill="#98E3DF" d="M442 474h4v4h-4zm17 0h4v4h-4z"/><path fill="#F2A6C0" d="M476 474h4v4h-4zm17 0h4v4h-4z"/><path fill="#98E3DF" d="M510 474h4v4h-4zm17 0h4v4h-4z"/><path fill="#FFE9F5" d="M544 474h4v4h-4z"/><path fill="#98E3DF" d="M561 474h4v4h-4z"/><path fill="#FFE9F5" d="M408 491h4v4h-4z"/><path fill="#F2A6C0" d="M425 491h4v4h-4zm17 0h4v4h-4z"/><path fill="#FFE9F5" d="M459 491h4v4h-4z"/><path fill="#F2A6C0" d="M476 491h4v4h-4zm17 0h4v4h-4z"/><path fill="#98E3DF" d="M510 491h4v4h-4z"/><path fill="#FFE9F5" d="M527 491h4v4h-4z"/><path fill="#98E3DF" d="M544 491h4v4h-4zm17 0h4v4h-4z"/><path fill="#F2A6C0" d="M408 508h4v4h-4zm17 0h4v4h-4z"/><path fill="#FFE9F5" d="M442 508h4v4h-4zm17 0h4v4h-4z"/><path fill="#98E3DF" d="M476 508h4v4h-4z"/><path fill="#F2A6C0" d="M493 508h4v4h-4z"/><path fill="#98E3DF" d="M510 508h4v4h-4zm17 0h4v4h-4z"/><path fill="#F2A6C0" d="M544 508h4v4h-4z"/><path fill="#98E3DF" d="M561 508h4v4h-4z"/><path fill="#FFE9F5" d="M408 525h4v4h-4zm17 0h4v4h-4zm17 0h4v4h-4zm17 0h4v4h-4zm17 0h4v4h-4z"/><path fill="#98E3DF" d="M493 525h4v4h-4z"/><path fill="#F2A6C0" d="M510 525h4v4h-4zm17 0h4v4h-4z"/><path fill="#98E3DF" d="M544 525h4v4h-4zm17 0h4v4h-4z"/><path fill="#FFE9F5" d="M408 542h4v4h-4zm17 0h4v4h-4z"/><path fill="#F2A6C0" d="M442 542h4v4h-4z"/><path fill="#FFE9F5" d="M459 542h4v4h-4z"/><path fill="#98E3DF" d="M476 542h4v4h-4z"/><path fill="#F2A6C0" d="M493 542h4v4h-4z"/><path fill="#98E3DF" d="M510 542h4v4h-4z"/><path fill="#F2A6C0" d="M527 542h4v4h-4z"/><path fill="#98E3DF" d="M544 542h4v4h-4z"/><path fill="#FFE9F5" d="M561 542h4v4h-4zm-153 17h4v4h-4z"/><path fill="#F2A6C0" d="M425 559h4v4h-4zm17 0h4v4h-4z"/><path fill="#FFE9F5" d="M459 559h4v4h-4z"/><path fill="#F2A6C0" d="M476 559h4v4h-4zm17 0h4v4h-4z"/><path fill="#FFE9F5" d="M510 559h4v4h-4zm17 0h4v4h-4z"/><path fill="#98E3DF" d="M544 559h4v4h-4z"/><path fill="#FFE9F5" d="M561 559h4v4h-4z"/><path fill="#F2A6C0" d="M408 576h4v4h-4z"/><path fill="#98E3DF" d="M425 576h4v4h-4z"/><path fill="#F2A6C0" d="M442 576h4v4h-4z"/><path fill="#98E3DF" d="M459 576h4v4h-4z"/><path fill="#F2A6C0" d="M476 576h4v4h-4z"/><path fill="#FFE9F5" d="M493 576h4v4h-4z"/><path fill="#F2A6C0" d="M510 576h4v4h-4z"/><path fill="#98E3DF" d="M527 576h4v4h-4z"/><path fill="#F2A6C0" d="M544 576h4v4h-4z"/><path fill="#FFE9F5" d="M561 576h4v4h-4zm-153 17h4v4h-4z"/><path fill="#F2A6C0" d="M425 593h4v4h-4z"/><path fill="#98E3DF" d="M442 593h4v4h-4zm17 0h4v4h-4zm17 0h4v4h-4z"/><path fill="#FFE9F5" d="M493 593h4v4h-4z"/><path fill="#F2A6C0" d="M510 593h4v4h-4zm17 0h4v4h-4z"/><path fill="#98E3DF" d="M544 593h4v4h-4zm17 0h4v4h-4z"/><path fill="#FFE9F5" d="M408 610h4v4h-4zm17 0h4v4h-4zm17 0h4v4h-4z"/><path fill="#98E3DF" d="M459 610h4v4h-4z"/><path fill="#FFE9F5" d="M476 610h4v4h-4z"/><path fill="#F2A6C0" d="M493 610h4v4h-4z"/><path fill="#98E3DF" d="M510 610h4v4h-4z"/><path fill="#F2A6C0" d="M527 610h4v4h-4zm17 0h4v4h-4zm17 0h4v4h-4zm-153 17h4v4h-4zm17 0h4v4h-4z"/><path fill="#98E3DF" d="M442 627h4v4h-4zm17 0h4v4h-4zm17 0h4v4h-4z"/><path fill="#F2A6C0" d="M493 627h4v4h-4z"/><path fill="#98E3DF" d="M510 627h4v4h-4z"/><path fill="#F2A6C0" d="M527 627h4v4h-4zm17 0h4v4h-4z"/><path fill="#98E3DF" d="M561 627h4v4h-4z"/><path fill="#FFE9F5" d="M408 644h4v4h-4z"/><path fill="#F2A6C0" d="M425 644h4v4h-4zm17 0h4v4h-4z"/><path fill="#98E3DF" d="M459 644h4v4h-4z"/><path fill="#FFE9F5" d="M476 644h4v4h-4zm17 0h4v4h-4zm17 0h4v4h-4z"/><path fill="#F2A6C0" d="M527 644h4v4h-4zm17 0h4v4h-4z"/><path fill="#98E3DF" d="M561 644h4v4h-4zm-153 17h4v4h-4zm17 0h4v4h-4z"/><path fill="#FFE9F5" d="M442 661h4v4h-4zm17 0h4v4h-4z"/><path fill="#F2A6C0" d="M476 661h4v4h-4zm17 0h4v4h-4zm17 0h4v4h-4z"/><path fill="#FFE9F5" d="M527 661h4v4h-4z"/><path fill="#98E3DF" d="M544 661h4v4h-4zm17 0h4v4h-4z"/><path fill="#F2A6C0" d="M408 678h4v4h-4z"/><path fill="#98E3DF" d="M425 678h4v4h-4zm17 0h4v4h-4z"/><path fill="#FFE9F5" d="M459 678h4v4h-4zm17 0h4v4h-4zm17 0h4v4h-4z"/><path fill="#98E3DF" d="M510 678h4v4h-4zm17 0h4v4h-4z"/><path fill="#FFE9F5" d="M544 678h4v4h-4z"/><path fill="#98E3DF" d="M561 678h4v4h-4z"/><path fill="#F2A6C0" d="M408 695h4v4h-4zm17 0h4v4h-4z"/><path fill="#FFE9F5" d="M442 695h4v4h-4z"/><path fill="#F2A6C0" d="M459 695h4v4h-4z"/><path fill="#FFE9F5" d="M476 695h4v4h-4zm17 0h4v4h-4z"/><path fill="#98E3DF" d="M510 695h4v4h-4z"/><path fill="#F2A6C0" d="M527 695h4v4h-4z"/><path fill="#98E3DF" d="M544 695h4v4h-4z"/><path fill="#FFE9F5" d="M561 695h4v4h-4z"/></g></svg>