<svg width="1841" height="790" fill="none" xmlns="http://www.w3.org/2000/svg"><path fill-rule="evenodd" clip-rule="evenodd" d="M422.616 636.328c11.256 2.083 19.209 11.89 30.382 14.377 20.121 4.478 54.62-13.869 60.325 5.811 6.183 21.328-31.672 29.744-44.815 47.694-5.413 7.392-5.201 16.986-8.728 25.429-5.242 12.551-6.992 26.935-17.009 36.189-13.088 12.089-30.162 28.641-47.126 23.054-17.165-5.653-18.966-29.703-24.743-46.722-4.025-11.858-4.358-24.125-3.543-36.613.673-10.324 5.377-19.342 7.846-29.394 3.183-12.957-1.491-29.609 8.762-38.222 10.049-8.441 25.711-3.997 38.649-1.603z" fill="#F2FDFF"/><path fill-rule="evenodd" clip-rule="evenodd" d="M73.753 144.701c12.876-2.82 25.328 3.505 37.817 7.654 18.381 6.105 48.025 3.736 52.056 22.198 4.217 19.316-28.447 27.208-37.399 44.935-6.866 13.596 2.971 32.412-7.379 43.736-10.718 11.727-28.968 14.359-45.095 13.676-15.686-.664-29.537-8.529-42.327-17.378-12.907-8.929-28.593-18.22-31.099-33.421-2.468-14.971 9.53-28.28 18.934-40.379 6.935-8.922 18.225-12.284 27.321-19.132 9.534-7.176 15.406-19.311 27.171-21.889z" fill="#FFF9FC"/><path fill-rule="evenodd" clip-rule="evenodd" d="M1625.08 586.931c20.36 2.086 42.46-3.02 57.32 11.044 17.13 16.211 28.38 41.075 21.6 63.648-6.49 21.575-32.74 26.098-52.07 37.703-24.03 14.429-44.37 44.406-71.21 36.31-28.48-8.591-39.75-42.358-45.52-71.515-5.52-27.916-5.96-61.069 15.64-79.621 19.75-16.963 48.33-.223 74.24 2.431z" fill="#FFF8FA"/><g opacity=".3"><path fill="#FFE9F5" d="M1687 0h5.124v5.124H1687zm21.78 0h5.124v5.124h-5.124z"/><path fill="#98E3DF" d="M1730.55 0h5.124v5.124h-5.124z"/><path fill="#FFE9F5" d="M1752.33 0h5.124v5.124h-5.124z"/><path fill="#F2A6C0" d="M1774.11 0h5.124v5.124h-5.124z"/><path fill="#FFE9F5" d="M1795.88 0h5.124v5.124h-5.124zm21.78 0h5.124v5.124h-5.124zm21.78 0h5.124v5.124h-5.124z"/><path fill="#98E3DF" d="M1687 21.777h5.124v5.124H1687z"/><path fill="#FFE9F5" d="M1708.78 21.777h5.124v5.124h-5.124z"/><path fill="#98E3DF" d="M1730.55 21.777h5.124v5.124h-5.124zm21.78 0h5.124v5.124h-5.124z"/><path fill="#F2A6C0" d="M1774.11 21.777h5.124v5.124h-5.124zm21.77 0h5.124v5.124h-5.124z"/><path fill="#98E3DF" d="M1817.66 21.777h5.124v5.124h-5.124zm21.78 0h5.124v5.124h-5.124z"/><path fill="#FFE9F5" d="M1687 43.554h5.124v5.124H1687z"/><path fill="#F2A6C0" d="M1708.78 43.554h5.124v5.124h-5.124zm21.77 0h5.124v5.124h-5.124z"/><path fill="#FFE9F5" d="M1752.33 43.554h5.124v5.124h-5.124z"/><path fill="#F2A6C0" d="M1774.11 43.554h5.124v5.124h-5.124zm21.77 0h5.124v5.124h-5.124z"/><path fill="#98E3DF" d="M1817.66 43.554h5.124v5.124h-5.124z"/><path fill="#FFE9F5" d="M1839.44 43.554h5.124v5.124h-5.124z"/><path fill="#F2A6C0" d="M1687 65.331h5.124v5.124H1687zm21.78 0h5.124v5.124h-5.124z"/><path fill="#FFE9F5" d="M1730.55 65.331h5.124v5.124h-5.124zm21.78 0h5.124v5.124h-5.124z"/><path fill="#98E3DF" d="M1774.11 65.331h5.124v5.124h-5.124z"/><path fill="#F2A6C0" d="M1795.88 65.331h5.124v5.124h-5.124z"/><path fill="#98E3DF" d="M1817.66 65.331h5.124v5.124h-5.124zm21.78 0h5.124v5.124h-5.124z"/><path fill="#FFE9F5" d="M1687 87.107h5.124v5.124H1687zm21.78 0h5.124v5.124h-5.124zm21.77 0h5.124v5.124h-5.124zm21.78 0h5.124v5.124h-5.124zm21.78 0h5.124v5.124h-5.124z"/><path fill="#98E3DF" d="M1795.88 87.107h5.124v5.124h-5.124z"/><path fill="#F2A6C0" d="M1817.66 87.107h5.124v5.124h-5.124zm21.78 0h5.124v5.124h-5.124z"/><path fill="#FFE9F5" d="M1687 108.884h5.124v5.124H1687zm21.78 0h5.124v5.124h-5.124z"/><path fill="#F2A6C0" d="M1730.55 108.884h5.124v5.124h-5.124z"/><path fill="#FFE9F5" d="M1752.33 108.884h5.124v5.124h-5.124z"/><path fill="#98E3DF" d="M1774.11 108.884h5.124v5.124h-5.124z"/><path fill="#F2A6C0" d="M1795.88 108.884h5.124v5.124h-5.124z"/><path fill="#98E3DF" d="M1817.66 108.884h5.124v5.124h-5.124z"/><path fill="#F2A6C0" d="M1839.44 108.884h5.124v5.124h-5.124z"/><path fill="#FFE9F5" d="M1687 130.661h5.124v5.124H1687z"/><path fill="#F2A6C0" d="M1708.78 130.661h5.124v5.124h-5.124zm21.77 0h5.124v5.124h-5.124z"/><path fill="#FFE9F5" d="M1752.33 130.661h5.124v5.124h-5.124z"/><path fill="#F2A6C0" d="M1774.11 130.661h5.124v5.124h-5.124zm21.77 0h5.124v5.124h-5.124z"/><path fill="#FFE9F5" d="M1817.66 130.661h5.124v5.124h-5.124zm21.78 0h5.124v5.124h-5.124z"/><path fill="#F2A6C0" d="M1687 152.438h5.124v5.124H1687z"/><path fill="#98E3DF" d="M1708.78 152.438h5.124v5.124h-5.124z"/><path fill="#F2A6C0" d="M1730.55 152.438h5.124v5.124h-5.124z"/><path fill="#98E3DF" d="M1752.33 152.438h5.124v5.124h-5.124z"/><path fill="#F2A6C0" d="M1774.11 152.438h5.124v5.124h-5.124z"/><path fill="#FFE9F5" d="M1795.88 152.438h5.124v5.124h-5.124z"/><path fill="#F2A6C0" d="M1817.66 152.438h5.124v5.124h-5.124z"/><path fill="#98E3DF" d="M1839.44 152.438h5.124v5.124h-5.124z"/><path fill="#FFE9F5" d="M1687 174.215h5.124v5.124H1687z"/><path fill="#F2A6C0" d="M1708.78 174.215h5.124v5.124h-5.124z"/><path fill="#98E3DF" d="M1730.55 174.215h5.124v5.124h-5.124zm21.78 0h5.124v5.124h-5.124zm21.78 0h5.124v5.124h-5.124z"/><path fill="#FFE9F5" d="M1795.88 174.215h5.124v5.124h-5.124z"/><path fill="#F2A6C0" d="M1817.66 174.215h5.124v5.124h-5.124zm21.78 0h5.124v5.124h-5.124z"/><path fill="#FFE9F5" d="M1687 195.992h5.124v5.124H1687zm21.78 0h5.124v5.124h-5.124zm21.77 0h5.124v5.124h-5.124z"/><path fill="#98E3DF" d="M1752.33 195.992h5.124v5.124h-5.124z"/><path fill="#FFE9F5" d="M1774.11 195.992h5.124v5.124h-5.124z"/><path fill="#F2A6C0" d="M1795.88 195.992h5.124v5.124h-5.124z"/><path fill="#98E3DF" d="M1817.66 195.992h5.124v5.124h-5.124z"/><path fill="#F2A6C0" d="M1839.44 195.992h5.124v5.124h-5.124zM1687 217.769h5.124v5.124H1687zm21.78 0h5.124v5.124h-5.124z"/><path fill="#98E3DF" d="M1730.55 217.769h5.124v5.124h-5.124zm21.78 0h5.124v5.124h-5.124zm21.78 0h5.124v5.124h-5.124z"/><path fill="#F2A6C0" d="M1795.88 217.769h5.124v5.124h-5.124z"/><path fill="#98E3DF" d="M1817.66 217.769h5.124v5.124h-5.124z"/><path fill="#F2A6C0" d="M1839.44 217.769h5.124v5.124h-5.124z"/><path fill="#FFE9F5" d="M1687 239.545h5.124v5.124H1687z"/><path fill="#F2A6C0" d="M1708.78 239.545h5.124v5.124h-5.124zm21.77 0h5.124v5.124h-5.124z"/><path fill="#98E3DF" d="M1752.33 239.545h5.124v5.124h-5.124z"/><path fill="#FFE9F5" d="M1774.11 239.545h5.124v5.124h-5.124zm21.77 0h5.124v5.124h-5.124zm21.78 0h5.124v5.124h-5.124z"/><path fill="#F2A6C0" d="M1839.44 239.545h5.124v5.124h-5.124z"/><path fill="#98E3DF" d="M1687 261.322h5.124v5.124H1687zm21.78 0h5.124v5.124h-5.124z"/><path fill="#FFE9F5" d="M1730.55 261.322h5.124v5.124h-5.124zm21.78 0h5.124v5.124h-5.124z"/><path fill="#F2A6C0" d="M1774.11 261.322h5.124v5.124h-5.124zm21.77 0h5.124v5.124h-5.124zm21.78 0h5.124v5.124h-5.124z"/><path fill="#FFE9F5" d="M1839.44 261.322h5.124v5.124h-5.124z"/><path fill="#F2A6C0" d="M1687 283.099h5.124v5.124H1687z"/><path fill="#98E3DF" d="M1708.78 283.099h5.124v5.124h-5.124zm21.77 0h5.124v5.124h-5.124z"/><path fill="#FFE9F5" d="M1752.33 283.099h5.124v5.124h-5.124zm21.78 0h5.124v5.124h-5.124zm21.77 0h5.124v5.124h-5.124z"/><path fill="#98E3DF" d="M1817.66 283.099h5.124v5.124h-5.124zm21.78 0h5.124v5.124h-5.124z"/><path fill="#F2A6C0" d="M1687 304.876h5.124V310H1687zm21.78 0h5.124V310h-5.124z"/><path fill="#FFE9F5" d="M1730.55 304.876h5.124V310h-5.124z"/><path fill="#F2A6C0" d="M1752.33 304.876h5.124V310h-5.124z"/><path fill="#FFE9F5" d="M1774.11 304.876h5.124V310h-5.124zm21.77 0h5.124V310h-5.124z"/><path fill="#98E3DF" d="M1817.66 304.876h5.124V310h-5.124z"/><path fill="#F2A6C0" d="M1839.44 304.876h5.124V310h-5.124z"/></g><g opacity=".3"><path fill="#FFE9F5" d="M588 456h5.124v5.124H588zm21.777 0h5.124v5.124h-5.124z"/><path fill="#98E3DF" d="M631.555 456h5.124v5.124h-5.124z"/><path fill="#FFE9F5" d="M653.33 456h5.124v5.124h-5.124z"/><path fill="#F2A6C0" d="M675.107 456h5.124v5.124h-5.124z"/><path fill="#FFE9F5" d="M696.885 456h5.124v5.124h-5.124zm21.777 0h5.124v5.124h-5.124zm21.776 0h5.124v5.124h-5.124z"/><path fill="#98E3DF" d="M762.215 456h5.124v5.124h-5.124z"/><path fill="#F2A6C0" d="M783.992 456h5.124v5.124h-5.124z"/><path fill="#98E3DF" d="M588 477.777h5.124v5.124H588z"/><path fill="#FFE9F5" d="M609.777 477.777h5.124v5.124h-5.124z"/><path fill="#98E3DF" d="M631.555 477.777h5.124v5.124h-5.124zm21.775 0h5.124v5.124h-5.124z"/><path fill="#F2A6C0" d="M675.107 477.777h5.124v5.124h-5.124zm21.778 0h5.124v5.124h-5.124z"/><path fill="#98E3DF" d="M718.662 477.777h5.124v5.124h-5.124zm21.776 0h5.124v5.124h-5.124z"/><path fill="#FFE9F5" d="M762.215 477.777h5.124v5.124h-5.124z"/><path fill="#98E3DF" d="M783.992 477.777h5.124v5.124h-5.124z"/><path fill="#FFE9F5" d="M588 499.554h5.124v5.124H588z"/><path fill="#F2A6C0" d="M609.777 499.554h5.124v5.124h-5.124zm21.778 0h5.124v5.124h-5.124z"/><path fill="#FFE9F5" d="M653.33 499.554h5.124v5.124h-5.124z"/><path fill="#F2A6C0" d="M675.107 499.554h5.124v5.124h-5.124zm21.778 0h5.124v5.124h-5.124z"/><path fill="#98E3DF" d="M718.662 499.554h5.124v5.124h-5.124z"/><path fill="#FFE9F5" d="M740.438 499.554h5.124v5.124h-5.124z"/><path fill="#98E3DF" d="M762.215 499.554h5.124v5.124h-5.124zm21.777 0h5.124v5.124h-5.124z"/><path fill="#F2A6C0" d="M588 521.331h5.124v5.124H588zm21.777 0h5.124v5.124h-5.124z"/><path fill="#FFE9F5" d="M631.555 521.331h5.124v5.124h-5.124zm21.775 0h5.124v5.124h-5.124z"/><path fill="#98E3DF" d="M675.107 521.331h5.124v5.124h-5.124z"/><path fill="#F2A6C0" d="M696.885 521.331h5.124v5.124h-5.124z"/><path fill="#98E3DF" d="M718.662 521.331h5.124v5.124h-5.124zm21.776 0h5.124v5.124h-5.124z"/><path fill="#F2A6C0" d="M762.215 521.331h5.124v5.124h-5.124z"/><path fill="#98E3DF" d="M783.992 521.331h5.124v5.124h-5.124z"/><path fill="#FFE9F5" d="M588 543.107h5.124v5.124H588zm21.777 0h5.124v5.124h-5.124zm21.778 0h5.124v5.124h-5.124zm21.775 0h5.124v5.124h-5.124zm21.777 0h5.124v5.124h-5.124z"/><path fill="#98E3DF" d="M696.885 543.107h5.124v5.124h-5.124z"/><path fill="#F2A6C0" d="M718.662 543.107h5.124v5.124h-5.124zm21.776 0h5.124v5.124h-5.124z"/><path fill="#98E3DF" d="M762.215 543.107h5.124v5.124h-5.124zm21.777 0h5.124v5.124h-5.124z"/><path fill="#FFE9F5" d="M588 564.884h5.124v5.124H588zm21.777 0h5.124v5.124h-5.124z"/><path fill="#F2A6C0" d="M631.555 564.884h5.124v5.124h-5.124z"/><path fill="#FFE9F5" d="M653.33 564.884h5.124v5.124h-5.124z"/><path fill="#98E3DF" d="M675.107 564.884h5.124v5.124h-5.124z"/><path fill="#F2A6C0" d="M696.885 564.884h5.124v5.124h-5.124z"/><path fill="#98E3DF" d="M718.662 564.884h5.124v5.124h-5.124z"/><path fill="#F2A6C0" d="M740.438 564.884h5.124v5.124h-5.124z"/><path fill="#98E3DF" d="M762.215 564.884h5.124v5.124h-5.124z"/><path fill="#FFE9F5" d="M783.992 564.884h5.124v5.124h-5.124zM588 586.661h5.124v5.124H588z"/><path fill="#F2A6C0" d="M609.777 586.661h5.124v5.124h-5.124zm21.778 0h5.124v5.124h-5.124z"/><path fill="#FFE9F5" d="M653.33 586.661h5.124v5.124h-5.124z"/><path fill="#F2A6C0" d="M675.107 586.661h5.124v5.124h-5.124zm21.778 0h5.124v5.124h-5.124z"/><path fill="#FFE9F5" d="M718.662 586.661h5.124v5.124h-5.124zm21.776 0h5.124v5.124h-5.124z"/><path fill="#98E3DF" d="M762.215 586.661h5.124v5.124h-5.124z"/><path fill="#FFE9F5" d="M783.992 586.661h5.124v5.124h-5.124z"/><path fill="#F2A6C0" d="M588 608.438h5.124v5.124H588z"/><path fill="#98E3DF" d="M609.777 608.438h5.124v5.124h-5.124z"/><path fill="#F2A6C0" d="M631.555 608.438h5.124v5.124h-5.124z"/><path fill="#98E3DF" d="M653.33 608.438h5.124v5.124h-5.124z"/><path fill="#F2A6C0" d="M675.107 608.438h5.124v5.124h-5.124z"/><path fill="#FFE9F5" d="M696.885 608.438h5.124v5.124h-5.124z"/><path fill="#F2A6C0" d="M718.662 608.438h5.124v5.124h-5.124z"/><path fill="#98E3DF" d="M740.438 608.438h5.124v5.124h-5.124z"/><path fill="#F2A6C0" d="M762.215 608.438h5.124v5.124h-5.124z"/><path fill="#FFE9F5" d="M783.992 608.438h5.124v5.124h-5.124zM588 630.215h5.124v5.124H588z"/><path fill="#F2A6C0" d="M609.777 630.215h5.124v5.124h-5.124z"/><path fill="#98E3DF" d="M631.555 630.215h5.124v5.124h-5.124zm21.775 0h5.124v5.124h-5.124zm21.777 0h5.124v5.124h-5.124z"/><path fill="#FFE9F5" d="M696.885 630.215h5.124v5.124h-5.124z"/><path fill="#F2A6C0" d="M718.662 630.215h5.124v5.124h-5.124zm21.776 0h5.124v5.124h-5.124z"/><path fill="#98E3DF" d="M762.215 630.215h5.124v5.124h-5.124zm21.777 0h5.124v5.124h-5.124z"/><path fill="#FFE9F5" d="M588 651.992h5.124v5.124H588zm21.777 0h5.124v5.124h-5.124zm21.778 0h5.124v5.124h-5.124z"/><path fill="#98E3DF" d="M653.33 651.992h5.124v5.124h-5.124z"/><path fill="#FFE9F5" d="M675.107 651.992h5.124v5.124h-5.124z"/><path fill="#F2A6C0" d="M696.885 651.992h5.124v5.124h-5.124z"/><path fill="#98E3DF" d="M718.662 651.992h5.124v5.124h-5.124z"/><path fill="#F2A6C0" d="M740.438 651.992h5.124v5.124h-5.124zm21.777 0h5.124v5.124h-5.124zm21.777 0h5.124v5.124h-5.124zM588 673.769h5.124v5.124H588zm21.777 0h5.124v5.124h-5.124z"/><path fill="#98E3DF" d="M631.555 673.769h5.124v5.124h-5.124zm21.775 0h5.124v5.124h-5.124zm21.777 0h5.124v5.124h-5.124z"/><path fill="#F2A6C0" d="M696.885 673.769h5.124v5.124h-5.124z"/><path fill="#98E3DF" d="M718.662 673.769h5.124v5.124h-5.124z"/><path fill="#F2A6C0" d="M740.438 673.769h5.124v5.124h-5.124zm21.777 0h5.124v5.124h-5.124z"/><path fill="#98E3DF" d="M783.992 673.769h5.124v5.124h-5.124z"/><path fill="#FFE9F5" d="M588 695.545h5.124v5.124H588z"/><path fill="#F2A6C0" d="M609.777 695.545h5.124v5.124h-5.124zm21.778 0h5.124v5.124h-5.124z"/><path fill="#98E3DF" d="M653.33 695.545h5.124v5.124h-5.124z"/><path fill="#FFE9F5" d="M675.107 695.545h5.124v5.124h-5.124zm21.778 0h5.124v5.124h-5.124zm21.777 0h5.124v5.124h-5.124z"/><path fill="#F2A6C0" d="M740.438 695.545h5.124v5.124h-5.124zm21.777 0h5.124v5.124h-5.124z"/><path fill="#98E3DF" d="M783.992 695.545h5.124v5.124h-5.124zM588 717.322h5.124v5.124H588zm21.777 0h5.124v5.124h-5.124z"/><path fill="#FFE9F5" d="M631.555 717.322h5.124v5.124h-5.124zm21.775 0h5.124v5.124h-5.124z"/><path fill="#F2A6C0" d="M675.107 717.322h5.124v5.124h-5.124zm21.778 0h5.124v5.124h-5.124zm21.777 0h5.124v5.124h-5.124z"/><path fill="#FFE9F5" d="M740.438 717.322h5.124v5.124h-5.124z"/><path fill="#98E3DF" d="M762.215 717.322h5.124v5.124h-5.124zm21.777 0h5.124v5.124h-5.124z"/><path fill="#F2A6C0" d="M588 739.099h5.124v5.124H588z"/><path fill="#98E3DF" d="M609.777 739.099h5.124v5.124h-5.124zm21.778 0h5.124v5.124h-5.124z"/><path fill="#FFE9F5" d="M653.33 739.099h5.124v5.124h-5.124zm21.777 0h5.124v5.124h-5.124zm21.778 0h5.124v5.124h-5.124z"/><path fill="#98E3DF" d="M718.662 739.099h5.124v5.124h-5.124zm21.776 0h5.124v5.124h-5.124z"/><path fill="#FFE9F5" d="M762.215 739.099h5.124v5.124h-5.124z"/><path fill="#98E3DF" d="M783.992 739.099h5.124v5.124h-5.124z"/><path fill="#F2A6C0" d="M588 760.876h5.124V766H588zm21.777 0h5.124V766h-5.124z"/><path fill="#FFE9F5" d="M631.555 760.876h5.124V766h-5.124z"/><path fill="#F2A6C0" d="M653.33 760.876h5.124V766h-5.124z"/><path fill="#FFE9F5" d="M675.107 760.876h5.124V766h-5.124zm21.778 0h5.124V766h-5.124z"/><path fill="#98E3DF" d="M718.662 760.876h5.124V766h-5.124z"/><path fill="#F2A6C0" d="M740.438 760.876h5.124V766h-5.124z"/><path fill="#98E3DF" d="M762.215 760.876h5.124V766h-5.124z"/><path fill="#FFE9F5" d="M783.992 760.876h5.124V766h-5.124z"/></g></svg>