<svg width="1866" height="1850" fill="none" xmlns="http://www.w3.org/2000/svg"><path fill-rule="evenodd" clip-rule="evenodd" d="M1805.21 169.025c18.14-.852 28.49 20.485 44.35 29.348 19.19 10.727 49.33 7.606 58.01 27.851 8.53 19.913-7.07 42.959-20.36 60.051-10.75 13.823-30.4 14.725-45.13 24.166-13.38 8.58-21.08 26.618-36.87 28.395-16.13 1.816-29.01-11.852-43.42-19.358-17.63-9.185-45.59-10.04-50.21-29.415-4.73-19.823 20.63-33.381 31.06-50.882 7.41-12.455 11.5-25.966 21.14-36.78 12.11-13.571 23.29-32.524 41.43-33.376z" fill="#FFF9FC"/><path fill-rule="evenodd" clip-rule="evenodd" d="M146.045 349.621c23.632 4.393 49.798 4.172 67.698 20.219 17.172 15.396 22.324 40.079 25.099 62.977 2.261 18.662-12.471 35.433-10.907 54.166 2.301 27.551 37.929 55.668 21.962 78.234-15.212 21.499-52.78-9.241-77.397.111-28.237 10.728-39.077 53.823-69.231 55.595-28.9 1.698-52.435-24.9-70.692-47.372-17.91-22.047-38.809-50.331-30.827-77.593 8.475-28.944 58.985-26.642 69.61-54.867 12.044-31.992-32.993-73.353-11.375-99.83 18.607-22.79 57.137 2.984 86.06 8.36zM1550.86 1364.15c18.38-6.52 34.98 16.22 48.97 29.83 12.02 11.7 16.71 27.93 25.23 42.38 9.77 16.55 36.3 31.16 28.54 48.74-8.81 19.93-45.65 5.92-59.94 22.35-14.23 16.36 3.11 48.54-13.66 62.28-15.05 12.35-41.69 7.67-57.02-4.34-15.48-12.13-4.04-41.49-18.5-54.83-17.77-16.4-60.78-.53-66.88-23.94-5.73-22.05 30.79-31.83 48.73-45.83 10.31-8.06 25.27-8.52 33.7-18.53 14.41-17.12 9.76-50.64 30.83-58.11z" fill="#F2FDFF"/><g opacity=".3"><rect x="35" width="5" height="5" rx="1" fill="#F2A6C0"/><rect x="50" width="5" height="5" rx="1" fill="#FFE9F5"/><rect x="65" width="5" height="5" rx="1" fill="#98E3DF"/><rect x="80" width="5" height="5" rx="1" fill="#FFE9F5"/><rect x="95" width="5" height="5" rx="1" fill="#F2A6C0"/><rect x="110" width="5" height="5" rx="1" fill="#98E3DF"/><rect x="125" width="5" height="5" rx="1" fill="#F2A6C0"/><rect x="140" width="5" height="5" rx="1" fill="#FFE9F5"/><rect x="155" width="5" height="5" rx="1" fill="#F2A6C0"/><rect x="170" width="5" height="5" rx="1" fill="#F2A6C0"/><rect x="35" y="15" width="5" height="5" rx="1" fill="#98E3DF"/><rect x="50" y="15" width="5" height="5" rx="1" fill="#F2A6C0"/><rect x="65" y="15" width="5" height="5" rx="1" fill="#FFE9F5"/><rect x="80" y="15" width="5" height="5" rx="1" fill="#F2A6C0"/><rect x="95" y="15" width="5" height="5" rx="1" fill="#F2A6C0"/><rect x="110" y="15" width="5" height="5" rx="1" fill="#FFE9F5"/><rect x="125" y="15" width="5" height="5" rx="1" fill="#FFE9F5"/><rect x="140" y="15" width="5" height="5" rx="1" fill="#FFE9F5"/><rect x="155" y="15" width="5" height="5" rx="1" fill="#FFE9F5"/><rect x="170" y="15" width="5" height="5" rx="1" fill="#98E3DF"/><rect x="35" y="30" width="5" height="5" rx="1" fill="#F2A6C0"/><rect x="50" y="30" width="5" height="5" rx="1" fill="#FFE9F5"/><rect x="65" y="30" width="5" height="5" rx="1" fill="#FFE9F5"/><rect x="80" y="30" width="5" height="5" rx="1" fill="#F2A6C0"/><rect x="95" y="30" width="5" height="5" rx="1" fill="#98E3DF"/><rect x="110" y="30" width="5" height="5" rx="1" fill="#FFE9F5"/><rect x="125" y="30" width="5" height="5" rx="1" fill="#FFE9F5"/><rect x="140" y="30" width="5" height="5" rx="1" fill="#98E3DF"/><rect x="155" y="30" width="5" height="5" rx="1" fill="#98E3DF"/><rect x="170" y="30" width="5" height="5" rx="1" fill="#FFE9F5"/><rect x="35" y="45" width="5" height="5" rx="1" fill="#98E3DF"/><rect x="50" y="45" width="5" height="5" rx="1" fill="#F2A6C0"/><rect x="65" y="45" width="5" height="5" rx="1" fill="#F2A6C0"/><rect x="80" y="45" width="5" height="5" rx="1" fill="#98E3DF"/><rect x="95" y="45" width="5" height="5" rx="1" fill="#F2A6C0"/><rect x="110" y="45" width="5" height="5" rx="1" fill="#FFE9F5"/><rect x="125" y="45" width="5" height="5" rx="1" fill="#98E3DF"/><rect x="140" y="45" width="5" height="5" rx="1" fill="#98E3DF"/><rect x="155" y="45" width="5" height="5" rx="1" fill="#FFE9F5"/><rect x="170" y="45" width="5" height="5" rx="1" fill="#F2A6C0"/><rect x="35" y="60" width="5" height="5" rx="1" fill="#FFE9F5"/><rect x="50" y="60" width="5" height="5" rx="1" fill="#F2A6C0"/><rect x="65" y="60" width="5" height="5" rx="1" fill="#98E3DF"/><rect x="80" y="60" width="5" height="5" rx="1" fill="#FFE9F5"/><rect x="95" y="60" width="5" height="5" rx="1" fill="#98E3DF"/><rect x="110" y="60" width="5" height="5" rx="1" fill="#98E3DF"/><rect x="125" y="60" width="5" height="5" rx="1" fill="#F2A6C0"/><rect x="140" y="60" width="5" height="5" rx="1" fill="#F2A6C0"/><rect x="155" y="60" width="5" height="5" rx="1" fill="#F2A6C0"/><rect x="170" y="60" width="5" height="5" rx="1" fill="#98E3DF"/><rect x="35" y="75" width="5" height="5" rx="1" fill="#98E3DF"/><rect x="50" y="75" width="5" height="5" rx="1" fill="#FFE9F5"/><rect x="65" y="75" width="5" height="5" rx="1" fill="#98E3DF"/><rect x="80" y="75" width="5" height="5" rx="1" fill="#FFE9F5"/><rect x="95" y="75" width="5" height="5" rx="1" fill="#FFE9F5"/><rect x="110" y="75" width="5" height="5" rx="1" fill="#98E3DF"/><rect x="125" y="75" width="5" height="5" rx="1" fill="#98E3DF"/><rect x="140" y="75" width="5" height="5" rx="1" fill="#FFE9F5"/><rect x="155" y="75" width="5" height="5" rx="1" fill="#FFE9F5"/><rect x="170" y="75" width="5" height="5" rx="1" fill="#FFE9F5"/><rect x="35" y="90" width="5" height="5" rx="1" fill="#98E3DF"/><rect x="50" y="90" width="5" height="5" rx="1" fill="#F2A6C0"/><rect x="65" y="90" width="5" height="5" rx="1" fill="#F2A6C0"/><rect x="80" y="90" width="5" height="5" rx="1" fill="#98E3DF"/><rect x="95" y="90" width="5" height="5" rx="1" fill="#F2A6C0"/><rect x="110" y="90" width="5" height="5" rx="1" fill="#F2A6C0"/><rect x="125" y="90" width="5" height="5" rx="1" fill="#F2A6C0"/><rect x="140" y="90" width="5" height="5" rx="1" fill="#FFE9F5"/><rect x="155" y="90" width="5" height="5" rx="1" fill="#98E3DF"/><rect x="170" y="90" width="5" height="5" rx="1" fill="#98E3DF"/><rect x="35" y="105" width="5" height="5" rx="1" fill="#98E3DF"/><rect x="50" y="105" width="5" height="5" rx="1" fill="#F2A6C0"/><rect x="65" y="105" width="5" height="5" rx="1" fill="#98E3DF"/><rect x="80" y="105" width="5" height="5" rx="1" fill="#FFE9F5"/><rect x="95" y="105" width="5" height="5" rx="1" fill="#FFE9F5"/><rect x="110" y="105" width="5" height="5" rx="1" fill="#FFE9F5"/><rect x="125" y="105" width="5" height="5" rx="1" fill="#98E3DF"/><rect x="140" y="105" width="5" height="5" rx="1" fill="#98E3DF"/><rect x="155" y="105" width="5" height="5" rx="1" fill="#F2A6C0"/><rect x="170" y="105" width="5" height="5" rx="1" fill="#F2A6C0"/></g><g opacity=".3"><path fill="#FFE9F5" d="M1385 23h4v4h-4zm17 0h4v4h-4z"/><path fill="#98E3DF" d="M1419 23h4v4h-4z"/><path fill="#FFE9F5" d="M1436 23h4v4h-4z"/><path fill="#F2A6C0" d="M1453 23h4v4h-4z"/><path fill="#FFE9F5" d="M1470 23h4v4h-4zm17 0h4v4h-4zm17 0h4v4h-4z"/><path fill="#98E3DF" d="M1521 23h4v4h-4z"/><path fill="#F2A6C0" d="M1538 23h4v4h-4z"/><path fill="#98E3DF" d="M1385 40h4v4h-4z"/><path fill="#FFE9F5" d="M1402 40h4v4h-4z"/><path fill="#98E3DF" d="M1419 40h4v4h-4zm17 0h4v4h-4z"/><path fill="#F2A6C0" d="M1453 40h4v4h-4zm17 0h4v4h-4z"/><path fill="#98E3DF" d="M1487 40h4v4h-4zm17 0h4v4h-4z"/><path fill="#FFE9F5" d="M1521 40h4v4h-4z"/><path fill="#98E3DF" d="M1538 40h4v4h-4z"/><path fill="#FFE9F5" d="M1385 57h4v4h-4z"/><path fill="#F2A6C0" d="M1402 57h4v4h-4zm17 0h4v4h-4z"/><path fill="#FFE9F5" d="M1436 57h4v4h-4z"/><path fill="#F2A6C0" d="M1453 57h4v4h-4zm17 0h4v4h-4z"/><path fill="#98E3DF" d="M1487 57h4v4h-4z"/><path fill="#FFE9F5" d="M1504 57h4v4h-4z"/><path fill="#98E3DF" d="M1521 57h4v4h-4zm17 0h4v4h-4z"/><path fill="#F2A6C0" d="M1385 74h4v4h-4zm17 0h4v4h-4z"/><path fill="#FFE9F5" d="M1419 74h4v4h-4zm17 0h4v4h-4z"/><path fill="#98E3DF" d="M1453 74h4v4h-4z"/><path fill="#F2A6C0" d="M1470 74h4v4h-4z"/><path fill="#98E3DF" d="M1487 74h4v4h-4zm17 0h4v4h-4z"/><path fill="#F2A6C0" d="M1521 74h4v4h-4z"/><path fill="#98E3DF" d="M1538 74h4v4h-4z"/><path fill="#FFE9F5" d="M1385 91h4v4h-4zm17 0h4v4h-4zm17 0h4v4h-4zm17 0h4v4h-4zm17 0h4v4h-4z"/><path fill="#98E3DF" d="M1470 91h4v4h-4z"/><path fill="#F2A6C0" d="M1487 91h4v4h-4zm17 0h4v4h-4z"/><path fill="#98E3DF" d="M1521 91h4v4h-4zm17 0h4v4h-4z"/><path fill="#FFE9F5" d="M1385 108h4v4h-4zm17 0h4v4h-4z"/><path fill="#F2A6C0" d="M1419 108h4v4h-4z"/><path fill="#FFE9F5" d="M1436 108h4v4h-4z"/><path fill="#98E3DF" d="M1453 108h4v4h-4z"/><path fill="#F2A6C0" d="M1470 108h4v4h-4z"/><path fill="#98E3DF" d="M1487 108h4v4h-4z"/><path fill="#F2A6C0" d="M1504 108h4v4h-4z"/><path fill="#98E3DF" d="M1521 108h4v4h-4z"/><path fill="#FFE9F5" d="M1538 108h4v4h-4zm-153 17h4v4h-4z"/><path fill="#F2A6C0" d="M1402 125h4v4h-4zm17 0h4v4h-4z"/><path fill="#FFE9F5" d="M1436 125h4v4h-4z"/><path fill="#F2A6C0" d="M1453 125h4v4h-4zm17 0h4v4h-4z"/><path fill="#FFE9F5" d="M1487 125h4v4h-4zm17 0h4v4h-4z"/><path fill="#98E3DF" d="M1521 125h4v4h-4z"/><path fill="#FFE9F5" d="M1538 125h4v4h-4z"/><path fill="#F2A6C0" d="M1385 142h4v4h-4z"/><path fill="#98E3DF" d="M1402 142h4v4h-4z"/><path fill="#F2A6C0" d="M1419 142h4v4h-4z"/><path fill="#98E3DF" d="M1436 142h4v4h-4z"/><path fill="#F2A6C0" d="M1453 142h4v4h-4z"/><path fill="#FFE9F5" d="M1470 142h4v4h-4z"/><path fill="#F2A6C0" d="M1487 142h4v4h-4z"/><path fill="#98E3DF" d="M1504 142h4v4h-4z"/><path fill="#F2A6C0" d="M1521 142h4v4h-4z"/><path fill="#FFE9F5" d="M1538 142h4v4h-4zm-153 17h4v4h-4z"/><path fill="#F2A6C0" d="M1402 159h4v4h-4z"/><path fill="#98E3DF" d="M1419 159h4v4h-4zm17 0h4v4h-4zm17 0h4v4h-4z"/><path fill="#FFE9F5" d="M1470 159h4v4h-4z"/><path fill="#F2A6C0" d="M1487 159h4v4h-4zm17 0h4v4h-4z"/><path fill="#98E3DF" d="M1521 159h4v4h-4zm17 0h4v4h-4z"/><path fill="#FFE9F5" d="M1385 176h4v4h-4zm17 0h4v4h-4zm17 0h4v4h-4z"/><path fill="#98E3DF" d="M1436 176h4v4h-4z"/><path fill="#FFE9F5" d="M1453 176h4v4h-4z"/><path fill="#F2A6C0" d="M1470 176h4v4h-4z"/><path fill="#98E3DF" d="M1487 176h4v4h-4z"/><path fill="#F2A6C0" d="M1504 176h4v4h-4zm17 0h4v4h-4zm17 0h4v4h-4zm-153 17h4v4h-4zm17 0h4v4h-4z"/><path fill="#98E3DF" d="M1419 193h4v4h-4zm17 0h4v4h-4zm17 0h4v4h-4z"/><path fill="#F2A6C0" d="M1470 193h4v4h-4z"/><path fill="#98E3DF" d="M1487 193h4v4h-4z"/><path fill="#F2A6C0" d="M1504 193h4v4h-4zm17 0h4v4h-4z"/><path fill="#98E3DF" d="M1538 193h4v4h-4z"/><path fill="#FFE9F5" d="M1385 210h4v4h-4z"/><path fill="#F2A6C0" d="M1402 210h4v4h-4zm17 0h4v4h-4z"/><path fill="#98E3DF" d="M1436 210h4v4h-4z"/><path fill="#FFE9F5" d="M1453 210h4v4h-4zm17 0h4v4h-4zm17 0h4v4h-4z"/><path fill="#F2A6C0" d="M1504 210h4v4h-4zm17 0h4v4h-4z"/><path fill="#98E3DF" d="M1538 210h4v4h-4zm-153 17h4v4h-4zm17 0h4v4h-4z"/><path fill="#FFE9F5" d="M1419 227h4v4h-4zm17 0h4v4h-4z"/><path fill="#F2A6C0" d="M1453 227h4v4h-4zm17 0h4v4h-4zm17 0h4v4h-4z"/><path fill="#FFE9F5" d="M1504 227h4v4h-4z"/><path fill="#98E3DF" d="M1521 227h4v4h-4zm17 0h4v4h-4z"/><path fill="#F2A6C0" d="M1385 244h4v4h-4z"/><path fill="#98E3DF" d="M1402 244h4v4h-4zm17 0h4v4h-4z"/><path fill="#FFE9F5" d="M1436 244h4v4h-4zm17 0h4v4h-4zm17 0h4v4h-4z"/><path fill="#98E3DF" d="M1487 244h4v4h-4zm17 0h4v4h-4z"/><path fill="#FFE9F5" d="M1521 244h4v4h-4z"/><path fill="#98E3DF" d="M1538 244h4v4h-4z"/><path fill="#F2A6C0" d="M1385 261h4v4h-4zm17 0h4v4h-4z"/><path fill="#FFE9F5" d="M1419 261h4v4h-4z"/><path fill="#F2A6C0" d="M1436 261h4v4h-4z"/><path fill="#FFE9F5" d="M1453 261h4v4h-4zm17 0h4v4h-4z"/><path fill="#98E3DF" d="M1487 261h4v4h-4z"/><path fill="#F2A6C0" d="M1504 261h4v4h-4z"/><path fill="#98E3DF" d="M1521 261h4v4h-4z"/><path fill="#FFE9F5" d="M1538 261h4v4h-4z"/></g><g opacity=".3"><path fill="#F2A6C0" d="M1452 758h4.281v4.281H1452z"/><path fill="#98E3DF" d="M1470.19 758h4.281v4.281h-4.281zm18.2 0h4.281v4.281h-4.281z"/><path fill="#F2A6C0" d="M1506.58 758h4.281v4.281h-4.281z"/><path fill="#98E3DF" d="M1524.78 758h4.281v4.281h-4.281z"/><path fill="#F2A6C0" d="M1542.97 758h4.281v4.281h-4.281z"/><path fill="#FFE9F5" d="M1561.17 758h4.281v4.281h-4.281zm18.19 0h4.281v4.281h-4.281z"/><path fill="#F2A6C0" d="M1597.55 758h4.281v4.281h-4.281z"/><path fill="#FFE9F5" d="M1615.75 758h4.281v4.281h-4.281z"/><path fill="#F2A6C0" d="M1633.94 758h4.281v4.281h-4.281z"/><path fill="#FFE9F5" d="M1652.14 758h4.281v4.281h-4.281z"/><path fill="#98E3DF" d="M1670.33 758h4.281v4.281h-4.281z"/><path fill="#FFE9F5" d="M1688.53 758h4.281v4.281h-4.281z"/><path fill="#98E3DF" d="M1706.72 758h4.281v4.281h-4.281z"/><path fill="#FFE9F5" d="M1452 776.194h4.281v4.281H1452zm18.19 0h4.281v4.281h-4.281z"/><path fill="#F2A6C0" d="M1488.39 776.194h4.281v4.281h-4.281zm18.19 0h4.281v4.281h-4.281z"/><path fill="#98E3DF" d="M1524.78 776.194h4.281v4.281h-4.281z"/><path fill="#FFE9F5" d="M1542.97 776.194h4.281v4.281h-4.281z"/><path fill="#98E3DF" d="M1561.17 776.194h4.281v4.281h-4.281z"/><path fill="#F2A6C0" d="M1579.36 776.194h4.281v4.281h-4.281zm18.19 0h4.281v4.281h-4.281zm18.2 0h4.281v4.281h-4.281zm18.19 0h4.281v4.281h-4.281z"/><path fill="#FFE9F5" d="M1652.14 776.194h4.281v4.281h-4.281zm18.19 0h4.281v4.281h-4.281zm18.2 0h4.281v4.281h-4.281z"/><path fill="#F2A6C0" d="M1706.72 776.194h4.281v4.281h-4.281z"/><path fill="#FFE9F5" d="M1452 794.388h4.281v4.281H1452z"/><path fill="#98E3DF" d="M1470.19 794.388h4.281v4.281h-4.281z"/><path fill="#FFE9F5" d="M1488.39 794.388h4.281v4.281h-4.281z"/><path fill="#F2A6C0" d="M1506.58 794.388h4.281v4.281h-4.281z"/><path fill="#98E3DF" d="M1524.78 794.388h4.281v4.281h-4.281zm18.19 0h4.281v4.281h-4.281zm18.2 0h4.281v4.281h-4.281z"/><path fill="#FFE9F5" d="M1579.36 794.388h4.281v4.281h-4.281zm18.19 0h4.281v4.281h-4.281z"/><path fill="#F2A6C0" d="M1615.75 794.388h4.281v4.281h-4.281z"/><path fill="#FFE9F5" d="M1633.94 794.388h4.281v4.281h-4.281z"/><path fill="#F2A6C0" d="M1652.14 794.388h4.281v4.281h-4.281z"/><path fill="#98E3DF" d="M1670.33 794.388h4.281v4.281h-4.281zm18.2 0h4.281v4.281h-4.281zm18.19 0h4.281v4.281h-4.281zM1452 812.583h4.281v4.281H1452zm18.19 0h4.281v4.281h-4.281z"/><path fill="#F2A6C0" d="M1488.39 812.583h4.281v4.281h-4.281z"/><path fill="#FFE9F5" d="M1506.58 812.583h4.281v4.281h-4.281zm18.2 0h4.281v4.281h-4.281zm18.19 0h4.281v4.281h-4.281z"/><path fill="#98E3DF" d="M1561.17 812.583h4.281v4.281h-4.281z"/><path fill="#F2A6C0" d="M1579.36 812.583h4.281v4.281h-4.281z"/><path fill="#98E3DF" d="M1597.55 812.583h4.281v4.281h-4.281zm18.2 0h4.281v4.281h-4.281z"/><path fill="#FFE9F5" d="M1633.94 812.583h4.281v4.281h-4.281z"/><path fill="#98E3DF" d="M1652.14 812.583h4.281v4.281h-4.281z"/><path fill="#F2A6C0" d="M1670.33 812.583h4.281v4.281h-4.281z"/><path fill="#FFE9F5" d="M1688.53 812.583h4.281v4.281h-4.281zm18.19 0h4.281v4.281h-4.281zM1452 830.777h4.281v4.281H1452zm18.19 0h4.281v4.281h-4.281z"/><path fill="#98E3DF" d="M1488.39 830.777h4.281v4.281h-4.281zm18.19 0h4.281v4.281h-4.281zm18.2 0h4.281v4.281h-4.281z"/><path fill="#FFE9F5" d="M1542.97 830.777h4.281v4.281h-4.281z"/><path fill="#98E3DF" d="M1561.17 830.777h4.281v4.281h-4.281z"/><path fill="#F2A6C0" d="M1579.36 830.777h4.281v4.281h-4.281zm18.19 0h4.281v4.281h-4.281zm18.2 0h4.281v4.281h-4.281z"/><path fill="#FFE9F5" d="M1633.94 830.777h4.281v4.281h-4.281z"/><path fill="#F2A6C0" d="M1652.14 830.777h4.281v4.281h-4.281z"/><path fill="#FFE9F5" d="M1670.33 830.777h4.281v4.281h-4.281z"/><path fill="#F2A6C0" d="M1688.53 830.777h4.281v4.281h-4.281z"/><path fill="#FFE9F5" d="M1706.72 830.777h4.281v4.281h-4.281z"/><path fill="#98E3DF" d="M1452 848.971h4.281v4.281H1452z"/><path fill="#F2A6C0" d="M1470.19 848.971h4.281v4.281h-4.281z"/><path fill="#FFE9F5" d="M1488.39 848.971h4.281v4.281h-4.281z"/><path fill="#98E3DF" d="M1506.58 848.971h4.281v4.281h-4.281zm18.2 0h4.281v4.281h-4.281z"/><path fill="#FFE9F5" d="M1542.97 848.971h4.281v4.281h-4.281zm18.2 0h4.281v4.281h-4.281z"/><path fill="#98E3DF" d="M1579.36 848.971h4.281v4.281h-4.281z"/><path fill="#F2A6C0" d="M1597.55 848.971h4.281v4.281h-4.281zm18.2 0h4.281v4.281h-4.281z"/><path fill="#98E3DF" d="M1633.94 848.971h4.281v4.281h-4.281z"/><path fill="#F2A6C0" d="M1652.14 848.971h4.281v4.281h-4.281zm18.19 0h4.281v4.281h-4.281z"/><path fill="#98E3DF" d="M1688.53 848.971h4.281v4.281h-4.281z"/><path fill="#FFE9F5" d="M1706.72 848.971h4.281v4.281h-4.281z"/><path fill="#98E3DF" d="M1452 867.165h4.281v4.281H1452z"/><path fill="#F2A6C0" d="M1470.19 867.165h4.281v4.281h-4.281z"/><path fill="#FFE9F5" d="M1488.39 867.165h4.281v4.281h-4.281z"/><path fill="#F2A6C0" d="M1506.58 867.165h4.281v4.281h-4.281z"/><path fill="#FFE9F5" d="M1524.78 867.165h4.281v4.281h-4.281z"/><path fill="#F2A6C0" d="M1542.97 867.165h4.281v4.281h-4.281zm18.2 0h4.281v4.281h-4.281zm18.19 0h4.281v4.281h-4.281z"/><path fill="#FFE9F5" d="M1597.55 867.165h4.281v4.281h-4.281z"/><path fill="#F2A6C0" d="M1615.75 867.165h4.281v4.281h-4.281z"/><path fill="#FFE9F5" d="M1633.94 867.165h4.281v4.281h-4.281z"/><path fill="#98E3DF" d="M1652.14 867.165h4.281v4.281h-4.281z"/><path fill="#FFE9F5" d="M1670.33 867.165h4.281v4.281h-4.281z"/><path fill="#98E3DF" d="M1688.53 867.165h4.281v4.281h-4.281z"/><path fill="#F2A6C0" d="M1706.72 867.165h4.281v4.281h-4.281z"/><path fill="#FFE9F5" d="M1452 885.36h4.281v4.281H1452zm18.19 0h4.281v4.281h-4.281z"/><path fill="#98E3DF" d="M1488.39 885.36h4.281v4.281h-4.281z"/><path fill="#F2A6C0" d="M1506.58 885.36h4.281v4.281h-4.281z"/><path fill="#98E3DF" d="M1524.78 885.36h4.281v4.281h-4.281z"/><path fill="#F2A6C0" d="M1542.97 885.36h4.281v4.281h-4.281z"/><path fill="#98E3DF" d="M1561.17 885.36h4.281v4.281h-4.281z"/><path fill="#F2A6C0" d="M1579.36 885.36h4.281v4.281h-4.281z"/><path fill="#FFE9F5" d="M1597.55 885.36h4.281v4.281h-4.281z"/><path fill="#98E3DF" d="M1615.75 885.36h4.281v4.281h-4.281z"/><path fill="#F2A6C0" d="M1633.94 885.36h4.281v4.281h-4.281zm18.2 0h4.281v4.281h-4.281z"/><path fill="#FFE9F5" d="M1670.33 885.36h4.281v4.281h-4.281z"/><path fill="#F2A6C0" d="M1688.53 885.36h4.281v4.281h-4.281z"/><path fill="#98E3DF" d="M1706.72 885.36h4.281v4.281h-4.281zM1452 903.554h4.281v4.281H1452z"/><path fill="#F2A6C0" d="M1470.19 903.554h4.281v4.281h-4.281z"/><path fill="#FFE9F5" d="M1488.39 903.554h4.281v4.281h-4.281z"/><path fill="#F2A6C0" d="M1506.58 903.554h4.281v4.281h-4.281z"/><path fill="#98E3DF" d="M1524.78 903.554h4.281v4.281h-4.281zm18.19 0h4.281v4.281h-4.281zm18.2 0h4.281v4.281h-4.281z"/><path fill="#FFE9F5" d="M1579.36 903.554h4.281v4.281h-4.281z"/><path fill="#98E3DF" d="M1597.55 903.554h4.281v4.281h-4.281zm18.2 0h4.281v4.281h-4.281z"/><path fill="#FFE9F5" d="M1633.94 903.554h4.281v4.281h-4.281zm18.2 0h4.281v4.281h-4.281z"/><path fill="#F2A6C0" d="M1670.33 903.554h4.281v4.281h-4.281z"/><path fill="#98E3DF" d="M1688.53 903.554h4.281v4.281h-4.281z"/><path fill="#F2A6C0" d="M1706.72 903.554h4.281v4.281h-4.281zM1452 921.748h4.281v4.281H1452z"/><path fill="#98E3DF" d="M1470.19 921.748h4.281v4.281h-4.281z"/><path fill="#FFE9F5" d="M1488.39 921.748h4.281v4.281h-4.281zm18.19 0h4.281v4.281h-4.281zm18.2 0h4.281v4.281h-4.281zm18.19 0h4.281v4.281h-4.281z"/><path fill="#F2A6C0" d="M1561.17 921.748h4.281v4.281h-4.281zm18.19 0h4.281v4.281h-4.281z"/><path fill="#98E3DF" d="M1597.55 921.748h4.281v4.281h-4.281z"/><path fill="#F2A6C0" d="M1615.75 921.748h4.281v4.281h-4.281z"/><path fill="#98E3DF" d="M1633.94 921.748h4.281v4.281h-4.281zm18.2 0h4.281v4.281h-4.281zm18.19 0h4.281v4.281h-4.281z"/><path fill="#FFE9F5" d="M1688.53 921.748h4.281v4.281h-4.281z"/><path fill="#F2A6C0" d="M1706.72 921.748h4.281v4.281h-4.281z"/></g><g opacity=".3"><rect x="125" y="1153" width="5" height="5" rx="1" fill="#F2A6C0"/><rect x="140" y="1153" width="5" height="5" rx="1" fill="#FFE9F5"/><rect x="155" y="1153" width="5" height="5" rx="1" fill="#98E3DF"/><rect x="170" y="1153" width="5" height="5" rx="1" fill="#FFE9F5"/><rect x="185" y="1153" width="5" height="5" rx="1" fill="#F2A6C0"/><rect x="200" y="1153" width="5" height="5" rx="1" fill="#98E3DF"/><rect x="215" y="1153" width="5" height="5" rx="1" fill="#F2A6C0"/><rect x="230" y="1153" width="5" height="5" rx="1" fill="#FFE9F5"/><rect x="245" y="1153" width="5" height="5" rx="1" fill="#F2A6C0"/><rect x="260" y="1153" width="5" height="5" rx="1" fill="#F2A6C0"/><rect x="125" y="1168" width="5" height="5" rx="1" fill="#98E3DF"/><rect x="140" y="1168" width="5" height="5" rx="1" fill="#F2A6C0"/><rect x="155" y="1168" width="5" height="5" rx="1" fill="#FFE9F5"/><rect x="170" y="1168" width="5" height="5" rx="1" fill="#F2A6C0"/><rect x="185" y="1168" width="5" height="5" rx="1" fill="#F2A6C0"/><rect x="200" y="1168" width="5" height="5" rx="1" fill="#FFE9F5"/><rect x="215" y="1168" width="5" height="5" rx="1" fill="#FFE9F5"/><rect x="230" y="1168" width="5" height="5" rx="1" fill="#FFE9F5"/><rect x="245" y="1168" width="5" height="5" rx="1" fill="#FFE9F5"/><rect x="260" y="1168" width="5" height="5" rx="1" fill="#98E3DF"/><rect x="125" y="1183" width="5" height="5" rx="1" fill="#F2A6C0"/><rect x="140" y="1183" width="5" height="5" rx="1" fill="#FFE9F5"/><rect x="155" y="1183" width="5" height="5" rx="1" fill="#FFE9F5"/><rect x="170" y="1183" width="5" height="5" rx="1" fill="#F2A6C0"/><rect x="185" y="1183" width="5" height="5" rx="1" fill="#98E3DF"/><rect x="200" y="1183" width="5" height="5" rx="1" fill="#FFE9F5"/><rect x="215" y="1183" width="5" height="5" rx="1" fill="#FFE9F5"/><rect x="230" y="1183" width="5" height="5" rx="1" fill="#98E3DF"/><rect x="245" y="1183" width="5" height="5" rx="1" fill="#98E3DF"/><rect x="260" y="1183" width="5" height="5" rx="1" fill="#FFE9F5"/><rect x="125" y="1198" width="5" height="5" rx="1" fill="#98E3DF"/><rect x="140" y="1198" width="5" height="5" rx="1" fill="#F2A6C0"/><rect x="155" y="1198" width="5" height="5" rx="1" fill="#F2A6C0"/><rect x="170" y="1198" width="5" height="5" rx="1" fill="#98E3DF"/><rect x="185" y="1198" width="5" height="5" rx="1" fill="#F2A6C0"/><rect x="200" y="1198" width="5" height="5" rx="1" fill="#FFE9F5"/><rect x="215" y="1198" width="5" height="5" rx="1" fill="#98E3DF"/><rect x="230" y="1198" width="5" height="5" rx="1" fill="#98E3DF"/><rect x="245" y="1198" width="5" height="5" rx="1" fill="#FFE9F5"/><rect x="260" y="1198" width="5" height="5" rx="1" fill="#F2A6C0"/><rect x="125" y="1213" width="5" height="5" rx="1" fill="#FFE9F5"/><rect x="140" y="1213" width="5" height="5" rx="1" fill="#F2A6C0"/><rect x="155" y="1213" width="5" height="5" rx="1" fill="#98E3DF"/><rect x="170" y="1213" width="5" height="5" rx="1" fill="#FFE9F5"/><rect x="185" y="1213" width="5" height="5" rx="1" fill="#98E3DF"/><rect x="200" y="1213" width="5" height="5" rx="1" fill="#98E3DF"/><rect x="215" y="1213" width="5" height="5" rx="1" fill="#F2A6C0"/><rect x="230" y="1213" width="5" height="5" rx="1" fill="#F2A6C0"/><rect x="245" y="1213" width="5" height="5" rx="1" fill="#F2A6C0"/><rect x="260" y="1213" width="5" height="5" rx="1" fill="#98E3DF"/><rect x="125" y="1228" width="5" height="5" rx="1" fill="#98E3DF"/><rect x="140" y="1228" width="5" height="5" rx="1" fill="#FFE9F5"/><rect x="155" y="1228" width="5" height="5" rx="1" fill="#98E3DF"/><rect x="170" y="1228" width="5" height="5" rx="1" fill="#FFE9F5"/><rect x="185" y="1228" width="5" height="5" rx="1" fill="#FFE9F5"/><rect x="200" y="1228" width="5" height="5" rx="1" fill="#98E3DF"/><rect x="215" y="1228" width="5" height="5" rx="1" fill="#98E3DF"/><rect x="230" y="1228" width="5" height="5" rx="1" fill="#FFE9F5"/><rect x="245" y="1228" width="5" height="5" rx="1" fill="#FFE9F5"/><rect x="260" y="1228" width="5" height="5" rx="1" fill="#FFE9F5"/><rect x="125" y="1243" width="5" height="5" rx="1" fill="#98E3DF"/><rect x="140" y="1243" width="5" height="5" rx="1" fill="#F2A6C0"/><rect x="155" y="1243" width="5" height="5" rx="1" fill="#F2A6C0"/><rect x="170" y="1243" width="5" height="5" rx="1" fill="#98E3DF"/><rect x="185" y="1243" width="5" height="5" rx="1" fill="#F2A6C0"/><rect x="200" y="1243" width="5" height="5" rx="1" fill="#F2A6C0"/><rect x="215" y="1243" width="5" height="5" rx="1" fill="#F2A6C0"/><rect x="230" y="1243" width="5" height="5" rx="1" fill="#FFE9F5"/><rect x="245" y="1243" width="5" height="5" rx="1" fill="#98E3DF"/><rect x="260" y="1243" width="5" height="5" rx="1" fill="#98E3DF"/><rect x="125" y="1258" width="5" height="5" rx="1" fill="#98E3DF"/><rect x="140" y="1258" width="5" height="5" rx="1" fill="#F2A6C0"/><rect x="155" y="1258" width="5" height="5" rx="1" fill="#98E3DF"/><rect x="170" y="1258" width="5" height="5" rx="1" fill="#FFE9F5"/><rect x="185" y="1258" width="5" height="5" rx="1" fill="#FFE9F5"/><rect x="200" y="1258" width="5" height="5" rx="1" fill="#FFE9F5"/><rect x="215" y="1258" width="5" height="5" rx="1" fill="#98E3DF"/><rect x="230" y="1258" width="5" height="5" rx="1" fill="#98E3DF"/><rect x="245" y="1258" width="5" height="5" rx="1" fill="#F2A6C0"/><rect x="260" y="1258" width="5" height="5" rx="1" fill="#F2A6C0"/></g><g opacity=".3"><path fill="#FFE9F5" d="M973 1407h4v4h-4zm17 0h4v4h-4z"/><path fill="#98E3DF" d="M1007 1407h4v4h-4z"/><path fill="#FFE9F5" d="M1024 1407h4v4h-4z"/><path fill="#F2A6C0" d="M1041 1407h4v4h-4z"/><path fill="#FFE9F5" d="M1058 1407h4v4h-4zm17 0h4v4h-4zm17 0h4v4h-4z"/><path fill="#98E3DF" d="M1109 1407h4v4h-4z"/><path fill="#F2A6C0" d="M1126 1407h4v4h-4z"/><path fill="#98E3DF" d="M973 1424h4v4h-4z"/><path fill="#FFE9F5" d="M990 1424h4v4h-4z"/><path fill="#98E3DF" d="M1007 1424h4v4h-4zm17 0h4v4h-4z"/><path fill="#F2A6C0" d="M1041 1424h4v4h-4zm17 0h4v4h-4z"/><path fill="#98E3DF" d="M1075 1424h4v4h-4zm17 0h4v4h-4z"/><path fill="#FFE9F5" d="M1109 1424h4v4h-4z"/><path fill="#98E3DF" d="M1126 1424h4v4h-4z"/><path fill="#FFE9F5" d="M973 1441h4v4h-4z"/><path fill="#F2A6C0" d="M990 1441h4v4h-4zm17 0h4v4h-4z"/><path fill="#FFE9F5" d="M1024 1441h4v4h-4z"/><path fill="#F2A6C0" d="M1041 1441h4v4h-4zm17 0h4v4h-4z"/><path fill="#98E3DF" d="M1075 1441h4v4h-4z"/><path fill="#FFE9F5" d="M1092 1441h4v4h-4z"/><path fill="#98E3DF" d="M1109 1441h4v4h-4zm17 0h4v4h-4z"/><path fill="#F2A6C0" d="M973 1458h4v4h-4zm17 0h4v4h-4z"/><path fill="#FFE9F5" d="M1007 1458h4v4h-4zm17 0h4v4h-4z"/><path fill="#98E3DF" d="M1041 1458h4v4h-4z"/><path fill="#F2A6C0" d="M1058 1458h4v4h-4z"/><path fill="#98E3DF" d="M1075 1458h4v4h-4zm17 0h4v4h-4z"/><path fill="#F2A6C0" d="M1109 1458h4v4h-4z"/><path fill="#98E3DF" d="M1126 1458h4v4h-4z"/><path fill="#FFE9F5" d="M973 1475h4v4h-4zm17 0h4v4h-4zm17 0h4v4h-4zm17 0h4v4h-4zm17 0h4v4h-4z"/><path fill="#98E3DF" d="M1058 1475h4v4h-4z"/><path fill="#F2A6C0" d="M1075 1475h4v4h-4zm17 0h4v4h-4z"/><path fill="#98E3DF" d="M1109 1475h4v4h-4zm17 0h4v4h-4z"/><path fill="#FFE9F5" d="M973 1492h4v4h-4zm17 0h4v4h-4z"/><path fill="#F2A6C0" d="M1007 1492h4v4h-4z"/><path fill="#FFE9F5" d="M1024 1492h4v4h-4z"/><path fill="#98E3DF" d="M1041 1492h4v4h-4z"/><path fill="#F2A6C0" d="M1058 1492h4v4h-4z"/><path fill="#98E3DF" d="M1075 1492h4v4h-4z"/><path fill="#F2A6C0" d="M1092 1492h4v4h-4z"/><path fill="#98E3DF" d="M1109 1492h4v4h-4z"/><path fill="#FFE9F5" d="M1126 1492h4v4h-4zm-153 17h4v4h-4z"/><path fill="#F2A6C0" d="M990 1509h4v4h-4zm17 0h4v4h-4z"/><path fill="#FFE9F5" d="M1024 1509h4v4h-4z"/><path fill="#F2A6C0" d="M1041 1509h4v4h-4zm17 0h4v4h-4z"/><path fill="#FFE9F5" d="M1075 1509h4v4h-4zm17 0h4v4h-4z"/><path fill="#98E3DF" d="M1109 1509h4v4h-4z"/><path fill="#FFE9F5" d="M1126 1509h4v4h-4z"/><path fill="#F2A6C0" d="M973 1526h4v4h-4z"/><path fill="#98E3DF" d="M990 1526h4v4h-4z"/><path fill="#F2A6C0" d="M1007 1526h4v4h-4z"/><path fill="#98E3DF" d="M1024 1526h4v4h-4z"/><path fill="#F2A6C0" d="M1041 1526h4v4h-4z"/><path fill="#FFE9F5" d="M1058 1526h4v4h-4z"/><path fill="#F2A6C0" d="M1075 1526h4v4h-4z"/><path fill="#98E3DF" d="M1092 1526h4v4h-4z"/><path fill="#F2A6C0" d="M1109 1526h4v4h-4z"/><path fill="#FFE9F5" d="M1126 1526h4v4h-4zm-153 17h4v4h-4z"/><path fill="#F2A6C0" d="M990 1543h4v4h-4z"/><path fill="#98E3DF" d="M1007 1543h4v4h-4zm17 0h4v4h-4zm17 0h4v4h-4z"/><path fill="#FFE9F5" d="M1058 1543h4v4h-4z"/><path fill="#F2A6C0" d="M1075 1543h4v4h-4zm17 0h4v4h-4z"/><path fill="#98E3DF" d="M1109 1543h4v4h-4zm17 0h4v4h-4z"/><path fill="#FFE9F5" d="M973 1560h4v4h-4zm17 0h4v4h-4zm17 0h4v4h-4z"/><path fill="#98E3DF" d="M1024 1560h4v4h-4z"/><path fill="#FFE9F5" d="M1041 1560h4v4h-4z"/><path fill="#F2A6C0" d="M1058 1560h4v4h-4z"/><path fill="#98E3DF" d="M1075 1560h4v4h-4z"/><path fill="#F2A6C0" d="M1092 1560h4v4h-4zm17 0h4v4h-4zm17 0h4v4h-4zm-153 17h4v4h-4zm17 0h4v4h-4z"/><path fill="#98E3DF" d="M1007 1577h4v4h-4zm17 0h4v4h-4zm17 0h4v4h-4z"/><path fill="#F2A6C0" d="M1058 1577h4v4h-4z"/><path fill="#98E3DF" d="M1075 1577h4v4h-4z"/><path fill="#F2A6C0" d="M1092 1577h4v4h-4zm17 0h4v4h-4z"/><path fill="#98E3DF" d="M1126 1577h4v4h-4z"/><path fill="#FFE9F5" d="M973 1594h4v4h-4z"/><path fill="#F2A6C0" d="M990 1594h4v4h-4zm17 0h4v4h-4z"/><path fill="#98E3DF" d="M1024 1594h4v4h-4z"/><path fill="#FFE9F5" d="M1041 1594h4v4h-4zm17 0h4v4h-4zm17 0h4v4h-4z"/><path fill="#F2A6C0" d="M1092 1594h4v4h-4zm17 0h4v4h-4z"/><path fill="#98E3DF" d="M1126 1594h4v4h-4zm-153 17h4v4h-4zm17 0h4v4h-4z"/><path fill="#FFE9F5" d="M1007 1611h4v4h-4zm17 0h4v4h-4z"/><path fill="#F2A6C0" d="M1041 1611h4v4h-4zm17 0h4v4h-4zm17 0h4v4h-4z"/><path fill="#FFE9F5" d="M1092 1611h4v4h-4z"/><path fill="#98E3DF" d="M1109 1611h4v4h-4zm17 0h4v4h-4z"/><path fill="#F2A6C0" d="M973 1628h4v4h-4z"/><path fill="#98E3DF" d="M990 1628h4v4h-4zm17 0h4v4h-4z"/><path fill="#FFE9F5" d="M1024 1628h4v4h-4zm17 0h4v4h-4zm17 0h4v4h-4z"/><path fill="#98E3DF" d="M1075 1628h4v4h-4zm17 0h4v4h-4z"/><path fill="#FFE9F5" d="M1109 1628h4v4h-4z"/><path fill="#98E3DF" d="M1126 1628h4v4h-4z"/><path fill="#F2A6C0" d="M973 1645h4v4h-4zm17 0h4v4h-4z"/><path fill="#FFE9F5" d="M1007 1645h4v4h-4z"/><path fill="#F2A6C0" d="M1024 1645h4v4h-4z"/><path fill="#FFE9F5" d="M1041 1645h4v4h-4zm17 0h4v4h-4z"/><path fill="#98E3DF" d="M1075 1645h4v4h-4z"/><path fill="#F2A6C0" d="M1092 1645h4v4h-4z"/><path fill="#98E3DF" d="M1109 1645h4v4h-4z"/><path fill="#FFE9F5" d="M1126 1645h4v4h-4z"/></g><g opacity=".3"><path fill="#F2A6C0" d="M626 1693h4v4h-4z"/><path fill="#98E3DF" d="M643 1693h4v4h-4zm17 0h4v4h-4z"/><path fill="#F2A6C0" d="M677 1693h4v4h-4z"/><path fill="#98E3DF" d="M694 1693h4v4h-4z"/><path fill="#F2A6C0" d="M711 1693h4v4h-4z"/><path fill="#FFE9F5" d="M728 1693h4v4h-4zm17 0h4v4h-4z"/><path fill="#F2A6C0" d="M762 1693h4v4h-4z"/><path fill="#FFE9F5" d="M779 1693h4v4h-4z"/><path fill="#F2A6C0" d="M796 1693h4v4h-4z"/><path fill="#FFE9F5" d="M813 1693h4v4h-4z"/><path fill="#98E3DF" d="M830 1693h4v4h-4z"/><path fill="#FFE9F5" d="M847 1693h4v4h-4z"/><path fill="#98E3DF" d="M864 1693h4v4h-4z"/><path fill="#FFE9F5" d="M626 1710h4v4h-4zm17 0h4v4h-4z"/><path fill="#F2A6C0" d="M660 1710h4v4h-4zm17 0h4v4h-4z"/><path fill="#98E3DF" d="M694 1710h4v4h-4z"/><path fill="#FFE9F5" d="M711 1710h4v4h-4z"/><path fill="#98E3DF" d="M728 1710h4v4h-4z"/><path fill="#F2A6C0" d="M745 1710h4v4h-4zm17 0h4v4h-4zm17 0h4v4h-4zm17 0h4v4h-4z"/><path fill="#FFE9F5" d="M813 1710h4v4h-4zm17 0h4v4h-4zm17 0h4v4h-4z"/><path fill="#F2A6C0" d="M864 1710h4v4h-4z"/><path fill="#FFE9F5" d="M626 1727h4v4h-4z"/><path fill="#98E3DF" d="M643 1727h4v4h-4z"/><path fill="#FFE9F5" d="M660 1727h4v4h-4z"/><path fill="#F2A6C0" d="M677 1727h4v4h-4z"/><path fill="#98E3DF" d="M694 1727h4v4h-4zm17 0h4v4h-4zm17 0h4v4h-4z"/><path fill="#FFE9F5" d="M745 1727h4v4h-4zm17 0h4v4h-4z"/><path fill="#F2A6C0" d="M779 1727h4v4h-4z"/><path fill="#FFE9F5" d="M796 1727h4v4h-4z"/><path fill="#F2A6C0" d="M813 1727h4v4h-4z"/><path fill="#98E3DF" d="M830 1727h4v4h-4zm17 0h4v4h-4zm17 0h4v4h-4zm-238 17h4v4h-4zm17 0h4v4h-4z"/><path fill="#F2A6C0" d="M660 1744h4v4h-4z"/><path fill="#FFE9F5" d="M677 1744h4v4h-4zm17 0h4v4h-4zm17 0h4v4h-4z"/><path fill="#98E3DF" d="M728 1744h4v4h-4z"/><path fill="#F2A6C0" d="M745 1744h4v4h-4z"/><path fill="#98E3DF" d="M762 1744h4v4h-4zm17 0h4v4h-4z"/><path fill="#FFE9F5" d="M796 1744h4v4h-4z"/><path fill="#98E3DF" d="M813 1744h4v4h-4z"/><path fill="#F2A6C0" d="M830 1744h4v4h-4z"/><path fill="#FFE9F5" d="M847 1744h4v4h-4zm17 0h4v4h-4zm-238 17h4v4h-4zm17 0h4v4h-4z"/><path fill="#98E3DF" d="M660 1761h4v4h-4zm17 0h4v4h-4zm17 0h4v4h-4z"/><path fill="#FFE9F5" d="M711 1761h4v4h-4z"/><path fill="#98E3DF" d="M728 1761h4v4h-4z"/><path fill="#F2A6C0" d="M745 1761h4v4h-4zm17 0h4v4h-4zm17 0h4v4h-4z"/><path fill="#FFE9F5" d="M796 1761h4v4h-4z"/><path fill="#F2A6C0" d="M813 1761h4v4h-4z"/><path fill="#FFE9F5" d="M830 1761h4v4h-4z"/><path fill="#F2A6C0" d="M847 1761h4v4h-4z"/><path fill="#FFE9F5" d="M864 1761h4v4h-4z"/><path fill="#98E3DF" d="M626 1778h4v4h-4z"/><path fill="#F2A6C0" d="M643 1778h4v4h-4z"/><path fill="#FFE9F5" d="M660 1778h4v4h-4z"/><path fill="#98E3DF" d="M677 1778h4v4h-4zm17 0h4v4h-4z"/><path fill="#FFE9F5" d="M711 1778h4v4h-4zm17 0h4v4h-4z"/><path fill="#98E3DF" d="M745 1778h4v4h-4z"/><path fill="#F2A6C0" d="M762 1778h4v4h-4zm17 0h4v4h-4z"/><path fill="#98E3DF" d="M796 1778h4v4h-4z"/><path fill="#F2A6C0" d="M813 1778h4v4h-4zm17 0h4v4h-4z"/><path fill="#98E3DF" d="M847 1778h4v4h-4z"/><path fill="#FFE9F5" d="M864 1778h4v4h-4z"/><path fill="#98E3DF" d="M626 1795h4v4h-4z"/><path fill="#F2A6C0" d="M643 1795h4v4h-4z"/><path fill="#FFE9F5" d="M660 1795h4v4h-4z"/><path fill="#F2A6C0" d="M677 1795h4v4h-4z"/><path fill="#FFE9F5" d="M694 1795h4v4h-4z"/><path fill="#F2A6C0" d="M711 1795h4v4h-4zm17 0h4v4h-4zm17 0h4v4h-4z"/><path fill="#FFE9F5" d="M762 1795h4v4h-4z"/><path fill="#F2A6C0" d="M779 1795h4v4h-4z"/><path fill="#FFE9F5" d="M796 1795h4v4h-4z"/><path fill="#98E3DF" d="M813 1795h4v4h-4z"/><path fill="#FFE9F5" d="M830 1795h4v4h-4z"/><path fill="#98E3DF" d="M847 1795h4v4h-4z"/><path fill="#F2A6C0" d="M864 1795h4v4h-4z"/><path fill="#FFE9F5" d="M626 1812h4v4h-4zm17 0h4v4h-4z"/><path fill="#98E3DF" d="M660 1812h4v4h-4z"/><path fill="#F2A6C0" d="M677 1812h4v4h-4z"/><path fill="#98E3DF" d="M694 1812h4v4h-4z"/><path fill="#F2A6C0" d="M711 1812h4v4h-4z"/><path fill="#98E3DF" d="M728 1812h4v4h-4z"/><path fill="#F2A6C0" d="M745 1812h4v4h-4z"/><path fill="#FFE9F5" d="M762 1812h4v4h-4z"/><path fill="#98E3DF" d="M779 1812h4v4h-4z"/><path fill="#F2A6C0" d="M796 1812h4v4h-4zm17 0h4v4h-4z"/><path fill="#FFE9F5" d="M830 1812h4v4h-4z"/><path fill="#F2A6C0" d="M847 1812h4v4h-4z"/><path fill="#98E3DF" d="M864 1812h4v4h-4zm-238 17h4v4h-4z"/><path fill="#F2A6C0" d="M643 1829h4v4h-4z"/><path fill="#FFE9F5" d="M660 1829h4v4h-4z"/><path fill="#F2A6C0" d="M677 1829h4v4h-4z"/><path fill="#98E3DF" d="M694 1829h4v4h-4zm17 0h4v4h-4zm17 0h4v4h-4z"/><path fill="#FFE9F5" d="M745 1829h4v4h-4z"/><path fill="#98E3DF" d="M762 1829h4v4h-4zm17 0h4v4h-4z"/><path fill="#FFE9F5" d="M796 1829h4v4h-4zm17 0h4v4h-4z"/><path fill="#F2A6C0" d="M830 1829h4v4h-4z"/><path fill="#98E3DF" d="M847 1829h4v4h-4z"/><path fill="#F2A6C0" d="M864 1829h4v4h-4zm-238 17h4v4h-4z"/><path fill="#98E3DF" d="M643 1846h4v4h-4z"/><path fill="#FFE9F5" d="M660 1846h4v4h-4zm17 0h4v4h-4zm17 0h4v4h-4zm17 0h4v4h-4z"/><path fill="#F2A6C0" d="M728 1846h4v4h-4zm17 0h4v4h-4z"/><path fill="#98E3DF" d="M762 1846h4v4h-4z"/><path fill="#F2A6C0" d="M779 1846h4v4h-4z"/><path fill="#98E3DF" d="M796 1846h4v4h-4zm17 0h4v4h-4zm17 0h4v4h-4z"/><path fill="#FFE9F5" d="M847 1846h4v4h-4z"/><path fill="#F2A6C0" d="M864 1846h4v4h-4z"/></g></svg>