<svg width="480" height="4808" fill="none" xmlns="http://www.w3.org/2000/svg"><path fill-rule="evenodd" clip-rule="evenodd" d="M122.677 1.347c26.079.464 53.573-2.527 72.837 15.01 23.104 21.032 46.508 53.65 33.993 82.24-12.116 27.682-55.334 12.797-81.923 27.261-30.59 16.64-45.095 68.657-78.898 60.224-33.787-8.429-36.66-55.71-41.093-90.159-3.775-29.341-2.087-61.324 18.915-82.215C65.67-5.352 95.618.866 122.677 1.348z" fill="#FFF8FA"/><g opacity=".3"><path fill="#FFE9F5" d="M349 85h4v4h-4zm-31 0h4v4h-4z"/><path fill="#98E3DF" d="M335 85h4v4h-4z"/><path fill="#FFE9F5" d="M352 85h4v4h-4z"/><path fill="#F2A6C0" d="M369 85h4v4h-4z"/><path fill="#FFE9F5" d="M386 85h4v4h-4zm17 0h4v4h-4zm17 0h4v4h-4z"/><path fill="#98E3DF" d="M389 85h4v4h-4z"/><path fill="#F2A6C0" d="M406 85h4v4h-4z"/><path fill="#98E3DF" d="M349 102h4v4h-4z"/><path fill="#FFE9F5" d="M318 102h4v4h-4z"/><path fill="#98E3DF" d="M335 102h4v4h-4zm17 0h4v4h-4z"/><path fill="#F2A6C0" d="M369 102h4v4h-4zm17 0h4v4h-4z"/><path fill="#98E3DF" d="M403 102h4v4h-4zm17 0h4v4h-4z"/><path fill="#FFE9F5" d="M389 102h4v4h-4z"/><path fill="#98E3DF" d="M406 102h4v4h-4z"/><path fill="#FFE9F5" d="M349 119h4v4h-4z"/><path fill="#F2A6C0" d="M318 119h4v4h-4zm17 0h4v4h-4z"/><path fill="#FFE9F5" d="M352 119h4v4h-4z"/><path fill="#F2A6C0" d="M369 119h4v4h-4zm17 0h4v4h-4z"/><path fill="#98E3DF" d="M403 119h4v4h-4z"/><path fill="#FFE9F5" d="M420 119h4v4h-4z"/><path fill="#98E3DF" d="M389 119h4v4h-4zm17 0h4v4h-4z"/><path fill="#F2A6C0" d="M349 136h4v4h-4zm-31 0h4v4h-4z"/><path fill="#FFE9F5" d="M335 136h4v4h-4zm17 0h4v4h-4z"/><path fill="#98E3DF" d="M369 136h4v4h-4z"/><path fill="#F2A6C0" d="M386 136h4v4h-4z"/><path fill="#98E3DF" d="M403 136h4v4h-4zm17 0h4v4h-4z"/><path fill="#F2A6C0" d="M389 136h4v4h-4z"/><path fill="#98E3DF" d="M406 136h4v4h-4z"/><path fill="#FFE9F5" d="M349 153h4v4h-4zm-31 0h4v4h-4zm17 0h4v4h-4z"/><path fill="#FFE9F5" d="M352 153h4v4h-4zm17 0h4v4h-4z"/><path fill="#98E3DF" d="M386 153h4v4h-4z"/><path fill="#F2A6C0" d="M403 153h4v4h-4zm17 0h4v4h-4z"/><path fill="#98E3DF" d="M389 153h4v4h-4zm17 0h4v4h-4z"/><path fill="#FFE9F5" d="M349 170h4v4h-4zm-31 0h4v4h-4z"/><path fill="#F2A6C0" d="M335 170h4v4h-4z"/><path fill="#FFE9F5" d="M352 170h4v4h-4z"/><path fill="#98E3DF" d="M369 170h4v4h-4z"/><path fill="#F2A6C0" d="M386 170h4v4h-4z"/><path fill="#98E3DF" d="M403 170h4v4h-4z"/><path fill="#F2A6C0" d="M420 170h4v4h-4z"/><path fill="#98E3DF" d="M389 170h4v4h-4z"/><path fill="#FFE9F5" d="M406 170h4v4h-4zm-57 17h4v4h-4z"/><path fill="#F2A6C0" d="M318 187h4v4h-4zm17 0h4v4h-4z"/><path fill="#FFE9F5" d="M352 187h4v4h-4z"/><path fill="#F2A6C0" d="M369 187h4v4h-4zm17 0h4v4h-4z"/><path fill="#FFE9F5" d="M403 187h4v4h-4zm17 0h4v4h-4z"/><path fill="#98E3DF" d="M389 187h4v4h-4z"/><path fill="#FFE9F5" d="M406 187h4v4h-4z"/><path fill="#F2A6C0" d="M349 204h4v4h-4z"/><path fill="#98E3DF" d="M318 204h4v4h-4z"/><path fill="#F2A6C0" d="M335 204h4v4h-4z"/><path fill="#98E3DF" d="M352 204h4v4h-4z"/><path fill="#F2A6C0" d="M369 204h4v4h-4z"/><path fill="#FFE9F5" d="M386 204h4v4h-4z"/><path fill="#F2A6C0" d="M403 204h4v4h-4z"/><path fill="#98E3DF" d="M420 204h4v4h-4z"/><path fill="#F2A6C0" d="M389 204h4v4h-4z"/><path fill="#FFE9F5" d="M406 204h4v4h-4zm-57 17h4v4h-4z"/><path fill="#F2A6C0" d="M318 221h4v4h-4z"/><path fill="#98E3DF" d="M335 221h4v4h-4zm17 0h4v4h-4zm17 0h4v4h-4z"/><path fill="#FFE9F5" d="M386 221h4v4h-4z"/><path fill="#F2A6C0" d="M403 221h4v4h-4zm17 0h4v4h-4z"/><path fill="#98E3DF" d="M389 221h4v4h-4zm17 0h4v4h-4z"/><path fill="#FFE9F5" d="M349 238h4v4h-4zm-31 0h4v4h-4zm17 0h4v4h-4z"/><path fill="#98E3DF" d="M352 238h4v4h-4z"/><path fill="#FFE9F5" d="M369 238h4v4h-4z"/><path fill="#F2A6C0" d="M386 238h4v4h-4z"/><path fill="#98E3DF" d="M403 238h4v4h-4z"/><path fill="#F2A6C0" d="M420 238h4v4h-4zm-31 0h4v4h-4zm17 0h4v4h-4zm-57 17h4v4h-4zm-31 0h4v4h-4z"/><path fill="#98E3DF" d="M335 255h4v4h-4zm17 0h4v4h-4zm17 0h4v4h-4z"/><path fill="#F2A6C0" d="M386 255h4v4h-4z"/><path fill="#98E3DF" d="M403 255h4v4h-4z"/><path fill="#F2A6C0" d="M420 255h4v4h-4zm-31 0h4v4h-4z"/><path fill="#98E3DF" d="M406 255h4v4h-4z"/><path fill="#FFE9F5" d="M349 272h4v4h-4z"/><path fill="#F2A6C0" d="M318 272h4v4h-4zm17 0h4v4h-4z"/><path fill="#98E3DF" d="M352 272h4v4h-4z"/><path fill="#FFE9F5" d="M369 272h4v4h-4zm17 0h4v4h-4zm17 0h4v4h-4z"/><path fill="#F2A6C0" d="M420 272h4v4h-4zm-31 0h4v4h-4z"/><path fill="#98E3DF" d="M406 272h4v4h-4zm-57 17h4v4h-4zm-31 0h4v4h-4z"/><path fill="#FFE9F5" d="M335 289h4v4h-4zm17 0h4v4h-4z"/><path fill="#F2A6C0" d="M369 289h4v4h-4zm17 0h4v4h-4zm17 0h4v4h-4z"/><path fill="#FFE9F5" d="M420 289h4v4h-4z"/><path fill="#98E3DF" d="M389 289h4v4h-4zm17 0h4v4h-4z"/><path fill="#F2A6C0" d="M349 306h4v4h-4z"/><path fill="#98E3DF" d="M318 306h4v4h-4zm17 0h4v4h-4z"/><path fill="#FFE9F5" d="M352 306h4v4h-4zm17 0h4v4h-4zm17 0h4v4h-4z"/><path fill="#98E3DF" d="M403 306h4v4h-4zm17 0h4v4h-4z"/><path fill="#FFE9F5" d="M389 306h4v4h-4z"/><path fill="#98E3DF" d="M406 306h4v4h-4z"/><path fill="#F2A6C0" d="M349 323h4v4h-4zm-31 0h4v4h-4z"/><path fill="#FFE9F5" d="M335 323h4v4h-4z"/><path fill="#F2A6C0" d="M352 323h4v4h-4z"/><path fill="#FFE9F5" d="M369 323h4v4h-4zm17 0h4v4h-4z"/><path fill="#98E3DF" d="M403 323h4v4h-4z"/><path fill="#F2A6C0" d="M420 323h4v4h-4z"/><path fill="#98E3DF" d="M389 323h4v4h-4z"/><path fill="#FFE9F5" d="M406 323h4v4h-4z"/></g><g opacity=".3"><rect x="4" y="1807" width="5" height="5" rx="1" fill="#F2A6C0"/><rect x="19" y="1807" width="5" height="5" rx="1" fill="#FFE9F5"/><rect x="34" y="1807" width="5" height="5" rx="1" fill="#98E3DF"/><rect x="49" y="1807" width="5" height="5" rx="1" fill="#FFE9F5"/><rect x="64" y="1807" width="5" height="5" rx="1" fill="#F2A6C0"/><rect x="79" y="1807" width="5" height="5" rx="1" fill="#98E3DF"/><rect x="94" y="1807" width="5" height="5" rx="1" fill="#F2A6C0"/><rect x="109" y="1807" width="5" height="5" rx="1" fill="#FFE9F5"/><rect x="124" y="1807" width="5" height="5" rx="1" fill="#F2A6C0"/><rect x="139" y="1807" width="5" height="5" rx="1" fill="#F2A6C0"/><rect x="4" y="1822" width="5" height="5" rx="1" fill="#98E3DF"/><rect x="19" y="1822" width="5" height="5" rx="1" fill="#F2A6C0"/><rect x="34" y="1822" width="5" height="5" rx="1" fill="#FFE9F5"/><rect x="49" y="1822" width="5" height="5" rx="1" fill="#F2A6C0"/><rect x="64" y="1822" width="5" height="5" rx="1" fill="#F2A6C0"/><rect x="79" y="1822" width="5" height="5" rx="1" fill="#FFE9F5"/><rect x="94" y="1822" width="5" height="5" rx="1" fill="#FFE9F5"/><rect x="109" y="1822" width="5" height="5" rx="1" fill="#FFE9F5"/><rect x="124" y="1822" width="5" height="5" rx="1" fill="#FFE9F5"/><rect x="139" y="1822" width="5" height="5" rx="1" fill="#98E3DF"/><rect x="4" y="1837" width="5" height="5" rx="1" fill="#F2A6C0"/><rect x="19" y="1837" width="5" height="5" rx="1" fill="#FFE9F5"/><rect x="34" y="1837" width="5" height="5" rx="1" fill="#FFE9F5"/><rect x="49" y="1837" width="5" height="5" rx="1" fill="#F2A6C0"/><rect x="64" y="1837" width="5" height="5" rx="1" fill="#98E3DF"/><rect x="79" y="1837" width="5" height="5" rx="1" fill="#FFE9F5"/><rect x="94" y="1837" width="5" height="5" rx="1" fill="#FFE9F5"/><rect x="109" y="1837" width="5" height="5" rx="1" fill="#98E3DF"/><rect x="124" y="1837" width="5" height="5" rx="1" fill="#98E3DF"/><rect x="139" y="1837" width="5" height="5" rx="1" fill="#FFE9F5"/><rect x="4" y="1852" width="5" height="5" rx="1" fill="#98E3DF"/><rect x="19" y="1852" width="5" height="5" rx="1" fill="#F2A6C0"/><rect x="34" y="1852" width="5" height="5" rx="1" fill="#F2A6C0"/><rect x="49" y="1852" width="5" height="5" rx="1" fill="#98E3DF"/><rect x="64" y="1852" width="5" height="5" rx="1" fill="#F2A6C0"/><rect x="79" y="1852" width="5" height="5" rx="1" fill="#FFE9F5"/><rect x="94" y="1852" width="5" height="5" rx="1" fill="#98E3DF"/><rect x="109" y="1852" width="5" height="5" rx="1" fill="#98E3DF"/><rect x="124" y="1852" width="5" height="5" rx="1" fill="#FFE9F5"/><rect x="139" y="1852" width="5" height="5" rx="1" fill="#F2A6C0"/><rect x="4" y="1867" width="5" height="5" rx="1" fill="#FFE9F5"/><rect x="19" y="1867" width="5" height="5" rx="1" fill="#F2A6C0"/><rect x="34" y="1867" width="5" height="5" rx="1" fill="#98E3DF"/><rect x="49" y="1867" width="5" height="5" rx="1" fill="#FFE9F5"/><rect x="64" y="1867" width="5" height="5" rx="1" fill="#98E3DF"/><rect x="79" y="1867" width="5" height="5" rx="1" fill="#98E3DF"/><rect x="94" y="1867" width="5" height="5" rx="1" fill="#F2A6C0"/><rect x="109" y="1867" width="5" height="5" rx="1" fill="#F2A6C0"/><rect x="124" y="1867" width="5" height="5" rx="1" fill="#F2A6C0"/><rect x="139" y="1867" width="5" height="5" rx="1" fill="#98E3DF"/><rect x="4" y="1882" width="5" height="5" rx="1" fill="#98E3DF"/><rect x="19" y="1882" width="5" height="5" rx="1" fill="#FFE9F5"/><rect x="34" y="1882" width="5" height="5" rx="1" fill="#98E3DF"/><rect x="49" y="1882" width="5" height="5" rx="1" fill="#FFE9F5"/><rect x="64" y="1882" width="5" height="5" rx="1" fill="#FFE9F5"/><rect x="79" y="1882" width="5" height="5" rx="1" fill="#98E3DF"/><rect x="94" y="1882" width="5" height="5" rx="1" fill="#98E3DF"/><rect x="109" y="1882" width="5" height="5" rx="1" fill="#FFE9F5"/><rect x="124" y="1882" width="5" height="5" rx="1" fill="#FFE9F5"/><rect x="139" y="1882" width="5" height="5" rx="1" fill="#FFE9F5"/><rect x="4" y="1897" width="5" height="5" rx="1" fill="#98E3DF"/><rect x="19" y="1897" width="5" height="5" rx="1" fill="#F2A6C0"/><rect x="34" y="1897" width="5" height="5" rx="1" fill="#F2A6C0"/><rect x="49" y="1897" width="5" height="5" rx="1" fill="#98E3DF"/><rect x="64" y="1897" width="5" height="5" rx="1" fill="#F2A6C0"/><rect x="79" y="1897" width="5" height="5" rx="1" fill="#F2A6C0"/><rect x="94" y="1897" width="5" height="5" rx="1" fill="#F2A6C0"/><rect x="109" y="1897" width="5" height="5" rx="1" fill="#FFE9F5"/><rect x="124" y="1897" width="5" height="5" rx="1" fill="#98E3DF"/><rect x="139" y="1897" width="5" height="5" rx="1" fill="#98E3DF"/><rect x="4" y="1912" width="5" height="5" rx="1" fill="#98E3DF"/><rect x="19" y="1912" width="5" height="5" rx="1" fill="#F2A6C0"/><rect x="34" y="1912" width="5" height="5" rx="1" fill="#98E3DF"/><rect x="49" y="1912" width="5" height="5" rx="1" fill="#FFE9F5"/><rect x="64" y="1912" width="5" height="5" rx="1" fill="#FFE9F5"/><rect x="79" y="1912" width="5" height="5" rx="1" fill="#FFE9F5"/><rect x="94" y="1912" width="5" height="5" rx="1" fill="#98E3DF"/><rect x="109" y="1912" width="5" height="5" rx="1" fill="#98E3DF"/><rect x="124" y="1912" width="5" height="5" rx="1" fill="#F2A6C0"/><rect x="139" y="1912" width="5" height="5" rx="1" fill="#F2A6C0"/></g><g opacity=".3"><path fill="#FFE9F5" d="M18 1040h4v4h-4zm17 0h4v4h-4z"/><path fill="#98E3DF" d="M52 1040h4v4h-4z"/><path fill="#FFE9F5" d="M69 1040h4v4h-4z"/><path fill="#F2A6C0" d="M86 1040h4v4h-4z"/><path fill="#FFE9F5" d="M103 1040h4v4h-4zm17 0h4v4h-4zm-31 0h4v4h-4z"/><path fill="#98E3DF" d="M106 1040h4v4h-4z"/><path fill="#F2A6C0" d="M123 1040h4v4h-4z"/><path fill="#98E3DF" d="M18 1057h4v4h-4z"/><path fill="#FFE9F5" d="M35 1057h4v4h-4z"/><path fill="#98E3DF" d="M52 1057h4v4h-4zm17 0h4v4h-4z"/><path fill="#F2A6C0" d="M86 1057h4v4h-4zm17 0h4v4h-4z"/><path fill="#98E3DF" d="M120 1057h4v4h-4zm-31 0h4v4h-4z"/><path fill="#FFE9F5" d="M106 1057h4v4h-4z"/><path fill="#98E3DF" d="M123 1057h4v4h-4z"/><path fill="#FFE9F5" d="M18 1074h4v4h-4z"/><path fill="#F2A6C0" d="M35 1074h4v4h-4zm17 0h4v4h-4z"/><path fill="#FFE9F5" d="M69 1074h4v4h-4z"/><path fill="#F2A6C0" d="M86 1074h4v4h-4zm17 0h4v4h-4z"/><path fill="#98E3DF" d="M120 1074h4v4h-4z"/><path fill="#FFE9F5" d="M89 1074h4v4h-4z"/><path fill="#98E3DF" d="M106 1074h4v4h-4zm17 0h4v4h-4z"/><path fill="#F2A6C0" d="M18 1091h4v4h-4zm17 0h4v4h-4z"/><path fill="#FFE9F5" d="M52 1091h4v4h-4zm17 0h4v4h-4z"/><path fill="#98E3DF" d="M86 1091h4v4h-4z"/><path fill="#F2A6C0" d="M103 1091h4v4h-4z"/><path fill="#98E3DF" d="M120 1091h4v4h-4zm-31 0h4v4h-4z"/><path fill="#F2A6C0" d="M106 1091h4v4h-4z"/><path fill="#98E3DF" d="M123 1091h4v4h-4z"/><path fill="#FFE9F5" d="M18 1108h4v4h-4zm17 0h4v4h-4zm17 0h4v4h-4zm17 0h4v4h-4zm17 0h4v4h-4z"/><path fill="#98E3DF" d="M103 1108h4v4h-4z"/><path fill="#F2A6C0" d="M120 1108h4v4h-4zm-31 0h4v4h-4z"/><path fill="#98E3DF" d="M106 1108h4v4h-4zm17 0h4v4h-4z"/><path fill="#FFE9F5" d="M18 1125h4v4h-4zm17 0h4v4h-4z"/><path fill="#F2A6C0" d="M52 1125h4v4h-4z"/><path fill="#FFE9F5" d="M69 1125h4v4h-4z"/><path fill="#98E3DF" d="M86 1125h4v4h-4z"/><path fill="#F2A6C0" d="M103 1125h4v4h-4z"/><path fill="#98E3DF" d="M120 1125h4v4h-4z"/><path fill="#F2A6C0" d="M89 1125h4v4h-4z"/><path fill="#98E3DF" d="M106 1125h4v4h-4z"/><path fill="#FFE9F5" d="M123 1125h4v4h-4zm-105 17h4v4h-4z"/><path fill="#F2A6C0" d="M35 1142h4v4h-4zm17 0h4v4h-4z"/><path fill="#FFE9F5" d="M69 1142h4v4h-4z"/><path fill="#F2A6C0" d="M86 1142h4v4h-4zm17 0h4v4h-4z"/><path fill="#FFE9F5" d="M120 1142h4v4h-4zm-31 0h4v4h-4z"/><path fill="#98E3DF" d="M106 1142h4v4h-4z"/><path fill="#FFE9F5" d="M123 1142h4v4h-4z"/><path fill="#F2A6C0" d="M18 1159h4v4h-4z"/><path fill="#98E3DF" d="M35 1159h4v4h-4z"/><path fill="#F2A6C0" d="M52 1159h4v4h-4z"/><path fill="#98E3DF" d="M69 1159h4v4h-4z"/><path fill="#F2A6C0" d="M86 1159h4v4h-4z"/><path fill="#FFE9F5" d="M103 1159h4v4h-4z"/><path fill="#F2A6C0" d="M120 1159h4v4h-4z"/><path fill="#98E3DF" d="M89 1159h4v4h-4z"/><path fill="#F2A6C0" d="M106 1159h4v4h-4z"/><path fill="#FFE9F5" d="M123 1159h4v4h-4zm-105 17h4v4h-4z"/><path fill="#F2A6C0" d="M35 1176h4v4h-4z"/><path fill="#98E3DF" d="M52 1176h4v4h-4zm17 0h4v4h-4zm17 0h4v4h-4z"/><path fill="#FFE9F5" d="M103 1176h4v4h-4z"/><path fill="#F2A6C0" d="M120 1176h4v4h-4zm-31 0h4v4h-4z"/><path fill="#98E3DF" d="M106 1176h4v4h-4zm17 0h4v4h-4z"/><path fill="#FFE9F5" d="M18 1193h4v4h-4zm17 0h4v4h-4zm17 0h4v4h-4z"/><path fill="#98E3DF" d="M69 1193h4v4h-4z"/><path fill="#FFE9F5" d="M86 1193h4v4h-4z"/><path fill="#F2A6C0" d="M103 1193h4v4h-4z"/><path fill="#98E3DF" d="M120 1193h4v4h-4z"/><path fill="#F2A6C0" d="M89 1193h4v4h-4zm17 0h4v4h-4zm17 0h4v4h-4zm-105 17h4v4h-4zm17 0h4v4h-4z"/><path fill="#98E3DF" d="M52 1210h4v4h-4zm17 0h4v4h-4zm17 0h4v4h-4z"/><path fill="#F2A6C0" d="M103 1210h4v4h-4z"/><path fill="#98E3DF" d="M120 1210h4v4h-4z"/><path fill="#F2A6C0" d="M89 1210h4v4h-4zm17 0h4v4h-4z"/><path fill="#98E3DF" d="M123 1210h4v4h-4z"/><path fill="#FFE9F5" d="M18 1227h4v4h-4z"/><path fill="#F2A6C0" d="M35 1227h4v4h-4zm17 0h4v4h-4z"/><path fill="#98E3DF" d="M69 1227h4v4h-4z"/><path fill="#FFE9F5" d="M86 1227h4v4h-4zm17 0h4v4h-4zm17 0h4v4h-4z"/><path fill="#F2A6C0" d="M89 1227h4v4h-4zm17 0h4v4h-4z"/><path fill="#98E3DF" d="M123 1227h4v4h-4zm-105 17h4v4h-4zm17 0h4v4h-4z"/><path fill="#FFE9F5" d="M52 1244h4v4h-4zm17 0h4v4h-4z"/><path fill="#F2A6C0" d="M86 1244h4v4h-4zm17 0h4v4h-4zm17 0h4v4h-4z"/><path fill="#FFE9F5" d="M89 1244h4v4h-4z"/><path fill="#98E3DF" d="M106 1244h4v4h-4zm17 0h4v4h-4z"/><path fill="#F2A6C0" d="M18 1261h4v4h-4z"/><path fill="#98E3DF" d="M35 1261h4v4h-4zm17 0h4v4h-4z"/><path fill="#FFE9F5" d="M69 1261h4v4h-4zm17 0h4v4h-4zm17 0h4v4h-4z"/><path fill="#98E3DF" d="M120 1261h4v4h-4zm-31 0h4v4h-4z"/><path fill="#FFE9F5" d="M106 1261h4v4h-4z"/><path fill="#98E3DF" d="M123 1261h4v4h-4z"/><path fill="#F2A6C0" d="M18 1278h4v4h-4zm17 0h4v4h-4z"/><path fill="#FFE9F5" d="M52 1278h4v4h-4z"/><path fill="#F2A6C0" d="M69 1278h4v4h-4z"/><path fill="#FFE9F5" d="M86 1278h4v4h-4zm17 0h4v4h-4z"/><path fill="#98E3DF" d="M120 1278h4v4h-4z"/><path fill="#F2A6C0" d="M89 1278h4v4h-4z"/><path fill="#98E3DF" d="M106 1278h4v4h-4z"/><path fill="#FFE9F5" d="M123 1278h4v4h-4z"/></g><g opacity=".3"><path fill="#FFE9F5" d="M402 2308h5.124v5.124H402zm21.777 0h5.124v5.124h-5.124z"/><path fill="#98E3DF" d="M445.555 2308h5.124v5.124h-5.124z"/><path fill="#FFE9F5" d="M467.33 2308h5.124v5.124h-5.124z"/><path fill="#F2A6C0" d="M441.107 2308h5.124v5.124h-5.124z"/><path fill="#FFE9F5" d="M462.885 2308h5.124v5.124h-5.124z"/><path fill="#98E3DF" d="M402 2329.78h5.124v5.124H402z"/><path fill="#FFE9F5" d="M423.777 2329.78h5.124v5.124h-5.124z"/><path fill="#98E3DF" d="M445.555 2329.78h5.124v5.124h-5.124zm21.775 0h5.124v5.124h-5.124z"/><path fill="#F2A6C0" d="M441.107 2329.78h5.124v5.124h-5.124zm21.778 0h5.124v5.124h-5.124z"/><path fill="#FFE9F5" d="M402 2351.55h5.124v5.124H402z"/><path fill="#F2A6C0" d="M423.777 2351.55h5.124v5.124h-5.124zm21.778 0h5.124v5.124h-5.124z"/><path fill="#FFE9F5" d="M467.33 2351.55h5.124v5.124h-5.124z"/><path fill="#F2A6C0" d="M441.107 2351.55h5.124v5.124h-5.124zm21.778 0h5.124v5.124h-5.124zM402 2373.33h5.124v5.124H402zm21.777 0h5.124v5.124h-5.124z"/><path fill="#FFE9F5" d="M445.555 2373.33h5.124v5.124h-5.124zm21.775 0h5.124v5.124h-5.124z"/><path fill="#98E3DF" d="M441.107 2373.33h5.124v5.124h-5.124z"/><path fill="#F2A6C0" d="M462.885 2373.33h5.124v5.124h-5.124z"/><path fill="#FFE9F5" d="M402 2395.11h5.124v5.124H402zm21.777 0h5.124v5.124h-5.124zm21.778 0h5.124v5.124h-5.124zm21.775 0h5.124v5.124h-5.124z"/><path fill="#FFE9F5" d="M441.107 2395.11h5.124v5.124h-5.124z"/><path fill="#98E3DF" d="M462.885 2395.11h5.124v5.124h-5.124z"/><path fill="#FFE9F5" d="M402 2416.88h5.124v5.124H402zm21.777 0h5.124v5.124h-5.124z"/><path fill="#F2A6C0" d="M445.555 2416.88h5.124v5.124h-5.124z"/><path fill="#FFE9F5" d="M467.33 2416.88h5.124v5.124h-5.124z"/><path fill="#98E3DF" d="M441.107 2416.88h5.124v5.124h-5.124z"/><path fill="#F2A6C0" d="M462.885 2416.88h5.124v5.124h-5.124z"/><path fill="#FFE9F5" d="M402 2438.66h5.124v5.124H402z"/><path fill="#F2A6C0" d="M423.777 2438.66h5.124v5.124h-5.124zm21.778 0h5.124v5.124h-5.124z"/><path fill="#FFE9F5" d="M467.33 2438.66h5.124v5.124h-5.124z"/><path fill="#F2A6C0" d="M441.107 2438.66h5.124v5.124h-5.124zm21.778 0h5.124v5.124h-5.124zM402 2460.44h5.124v5.124H402z"/><path fill="#98E3DF" d="M423.777 2460.44h5.124v5.124h-5.124z"/><path fill="#F2A6C0" d="M445.555 2460.44h5.124v5.124h-5.124z"/><path fill="#98E3DF" d="M467.33 2460.44h5.124v5.124h-5.124z"/><path fill="#F2A6C0" d="M441.107 2460.44h5.124v5.124h-5.124z"/><path fill="#FFE9F5" d="M462.885 2460.44h5.124v5.124h-5.124zM402 2482.21h5.124v5.124H402z"/><path fill="#F2A6C0" d="M423.777 2482.21h5.124v5.124h-5.124z"/><path fill="#98E3DF" d="M445.555 2482.21h5.124v5.124h-5.124zm21.775 0h5.124v5.124h-5.124z"/><path fill="#98E3DF" d="M441.107 2482.21h5.124v5.124h-5.124z"/><path fill="#FFE9F5" d="M462.885 2482.21h5.124v5.124h-5.124zM402 2503.99h5.124v5.124H402zm21.777 0h5.124v5.124h-5.124zm21.778 0h5.124v5.124h-5.124z"/><path fill="#98E3DF" d="M467.33 2503.99h5.124v5.124h-5.124z"/><path fill="#FFE9F5" d="M441.107 2503.99h5.124v5.124h-5.124z"/><path fill="#F2A6C0" d="M462.885 2503.99h5.124v5.124h-5.124zM402 2525.77h5.124v5.124H402zm21.777 0h5.124v5.124h-5.124z"/><path fill="#98E3DF" d="M445.555 2525.77h5.124v5.124h-5.124zm21.775 0h5.124v5.124h-5.124z"/><path fill="#98E3DF" d="M441.107 2525.77h5.124v5.124h-5.124z"/><path fill="#F2A6C0" d="M462.885 2525.77h5.124v5.124h-5.124z"/><path fill="#FFE9F5" d="M402 2547.55h5.124v5.124H402z"/><path fill="#F2A6C0" d="M423.777 2547.55h5.124v5.124h-5.124zm21.778 0h5.124v5.124h-5.124z"/><path fill="#98E3DF" d="M467.33 2547.55h5.124v5.124h-5.124z"/><path fill="#FFE9F5" d="M441.107 2547.55h5.124v5.124h-5.124zm21.778 0h5.124v5.124h-5.124z"/><path fill="#98E3DF" d="M402 2569.32h5.124v5.124H402zm21.777 0h5.124v5.124h-5.124z"/><path fill="#FFE9F5" d="M445.555 2569.32h5.124v5.124h-5.124zm21.775 0h5.124v5.124h-5.124z"/><path fill="#F2A6C0" d="M441.107 2569.32h5.124v5.124h-5.124zm21.778 0h5.124v5.124h-5.124zM402 2591.1h5.124v5.124H402z"/><path fill="#98E3DF" d="M423.777 2591.1h5.124v5.124h-5.124zm21.778 0h5.124v5.124h-5.124z"/><path fill="#FFE9F5" d="M467.33 2591.1h5.124v5.124h-5.124zm-26.223 0h5.124v5.124h-5.124z"/><path fill="#FFE9F5" d="M462.885 2591.1h5.124v5.124h-5.124z"/><path fill="#F2A6C0" d="M402 2612.88h5.124v5.124H402zm21.777 0h5.124v5.124h-5.124z"/><path fill="#FFE9F5" d="M445.555 2612.88h5.124v5.124h-5.124z"/><path fill="#F2A6C0" d="M467.33 2612.88h5.124v5.124h-5.124z"/><path fill="#FFE9F5" d="M441.107 2612.88h5.124v5.124h-5.124zm21.778 0h5.124v5.124h-5.124z"/></g><g opacity=".3"><path fill="#FFE9F5" d="M263 4045h5.124v5.124H263zm21.777 0h5.124v5.124h-5.124z"/><path fill="#98E3DF" d="M306.555 4045h5.124v5.124h-5.124z"/><path fill="#FFE9F5" d="M328.33 4045h5.124v5.124h-5.124z"/><path fill="#F2A6C0" d="M350.107 4045h5.124v5.124h-5.124z"/><path fill="#FFE9F5" d="M371.885 4045h5.124v5.124h-5.124zm21.777 0h5.124v5.124h-5.124zm21.776 0h5.124v5.124h-5.124z"/><path fill="#98E3DF" d="M437.215 4045h5.124v5.124h-5.124z"/><path fill="#F2A6C0" d="M458.992 4045h5.124v5.124h-5.124z"/><path fill="#98E3DF" d="M263 4066.78h5.124v5.124H263z"/><path fill="#FFE9F5" d="M284.777 4066.78h5.124v5.124h-5.124z"/><path fill="#98E3DF" d="M306.555 4066.78h5.124v5.124h-5.124zm21.775 0h5.124v5.124h-5.124z"/><path fill="#F2A6C0" d="M350.107 4066.78h5.124v5.124h-5.124zm21.778 0h5.124v5.124h-5.124z"/><path fill="#98E3DF" d="M393.662 4066.78h5.124v5.124h-5.124zm21.776 0h5.124v5.124h-5.124z"/><path fill="#FFE9F5" d="M437.215 4066.78h5.124v5.124h-5.124z"/><path fill="#98E3DF" d="M458.992 4066.78h5.124v5.124h-5.124z"/><path fill="#FFE9F5" d="M263 4088.55h5.124v5.124H263z"/><path fill="#F2A6C0" d="M284.777 4088.55h5.124v5.124h-5.124zm21.778 0h5.124v5.124h-5.124z"/><path fill="#FFE9F5" d="M328.33 4088.55h5.124v5.124h-5.124z"/><path fill="#F2A6C0" d="M350.107 4088.55h5.124v5.124h-5.124zm21.778 0h5.124v5.124h-5.124z"/><path fill="#98E3DF" d="M393.662 4088.55h5.124v5.124h-5.124z"/><path fill="#FFE9F5" d="M415.438 4088.55h5.124v5.124h-5.124z"/><path fill="#98E3DF" d="M437.215 4088.55h5.124v5.124h-5.124zm21.777 0h5.124v5.124h-5.124z"/><path fill="#F2A6C0" d="M263 4110.33h5.124v5.124H263zm21.777 0h5.124v5.124h-5.124z"/><path fill="#FFE9F5" d="M306.555 4110.33h5.124v5.124h-5.124zm21.775 0h5.124v5.124h-5.124z"/><path fill="#98E3DF" d="M350.107 4110.33h5.124v5.124h-5.124z"/><path fill="#F2A6C0" d="M371.885 4110.33h5.124v5.124h-5.124z"/><path fill="#98E3DF" d="M393.662 4110.33h5.124v5.124h-5.124zm21.776 0h5.124v5.124h-5.124z"/><path fill="#F2A6C0" d="M437.215 4110.33h5.124v5.124h-5.124z"/><path fill="#98E3DF" d="M458.992 4110.33h5.124v5.124h-5.124z"/><path fill="#FFE9F5" d="M263 4132.11h5.124v5.124H263zm21.777 0h5.124v5.124h-5.124zm21.778 0h5.124v5.124h-5.124zm21.775 0h5.124v5.124h-5.124zm21.777 0h5.124v5.124h-5.124z"/><path fill="#98E3DF" d="M371.885 4132.11h5.124v5.124h-5.124z"/><path fill="#F2A6C0" d="M393.662 4132.11h5.124v5.124h-5.124zm21.776 0h5.124v5.124h-5.124z"/><path fill="#98E3DF" d="M437.215 4132.11h5.124v5.124h-5.124zm21.777 0h5.124v5.124h-5.124z"/><path fill="#FFE9F5" d="M263 4153.88h5.124v5.124H263zm21.777 0h5.124v5.124h-5.124z"/><path fill="#F2A6C0" d="M306.555 4153.88h5.124v5.124h-5.124z"/><path fill="#FFE9F5" d="M328.33 4153.88h5.124v5.124h-5.124z"/><path fill="#98E3DF" d="M350.107 4153.88h5.124v5.124h-5.124z"/><path fill="#F2A6C0" d="M371.885 4153.88h5.124v5.124h-5.124z"/><path fill="#98E3DF" d="M393.662 4153.88h5.124v5.124h-5.124z"/><path fill="#F2A6C0" d="M415.438 4153.88h5.124v5.124h-5.124z"/><path fill="#98E3DF" d="M437.215 4153.88h5.124v5.124h-5.124z"/><path fill="#FFE9F5" d="M458.992 4153.88h5.124v5.124h-5.124zM263 4175.66h5.124v5.124H263z"/><path fill="#F2A6C0" d="M284.777 4175.66h5.124v5.124h-5.124zm21.778 0h5.124v5.124h-5.124z"/><path fill="#FFE9F5" d="M328.33 4175.66h5.124v5.124h-5.124z"/><path fill="#F2A6C0" d="M350.107 4175.66h5.124v5.124h-5.124zm21.778 0h5.124v5.124h-5.124z"/><path fill="#FFE9F5" d="M393.662 4175.66h5.124v5.124h-5.124zm21.776 0h5.124v5.124h-5.124z"/><path fill="#98E3DF" d="M437.215 4175.66h5.124v5.124h-5.124z"/><path fill="#FFE9F5" d="M458.992 4175.66h5.124v5.124h-5.124z"/><path fill="#F2A6C0" d="M263 4197.44h5.124v5.124H263z"/><path fill="#98E3DF" d="M284.777 4197.44h5.124v5.124h-5.124z"/><path fill="#F2A6C0" d="M306.555 4197.44h5.124v5.124h-5.124z"/><path fill="#98E3DF" d="M328.33 4197.44h5.124v5.124h-5.124z"/><path fill="#F2A6C0" d="M350.107 4197.44h5.124v5.124h-5.124z"/><path fill="#FFE9F5" d="M371.885 4197.44h5.124v5.124h-5.124z"/><path fill="#F2A6C0" d="M393.662 4197.44h5.124v5.124h-5.124z"/><path fill="#98E3DF" d="M415.438 4197.44h5.124v5.124h-5.124z"/><path fill="#F2A6C0" d="M437.215 4197.44h5.124v5.124h-5.124z"/><path fill="#FFE9F5" d="M458.992 4197.44h5.124v5.124h-5.124zM263 4219.21h5.124v5.124H263z"/><path fill="#F2A6C0" d="M284.777 4219.21h5.124v5.124h-5.124z"/><path fill="#98E3DF" d="M306.555 4219.21h5.124v5.124h-5.124zm21.775 0h5.124v5.124h-5.124zm21.777 0h5.124v5.124h-5.124z"/><path fill="#FFE9F5" d="M371.885 4219.21h5.124v5.124h-5.124z"/><path fill="#F2A6C0" d="M393.662 4219.21h5.124v5.124h-5.124zm21.776 0h5.124v5.124h-5.124z"/><path fill="#98E3DF" d="M437.215 4219.21h5.124v5.124h-5.124zm21.777 0h5.124v5.124h-5.124z"/><path fill="#FFE9F5" d="M263 4240.99h5.124v5.124H263zm21.777 0h5.124v5.124h-5.124zm21.778 0h5.124v5.124h-5.124z"/><path fill="#98E3DF" d="M328.33 4240.99h5.124v5.124h-5.124z"/><path fill="#FFE9F5" d="M350.107 4240.99h5.124v5.124h-5.124z"/><path fill="#F2A6C0" d="M371.885 4240.99h5.124v5.124h-5.124z"/><path fill="#98E3DF" d="M393.662 4240.99h5.124v5.124h-5.124z"/><path fill="#F2A6C0" d="M415.438 4240.99h5.124v5.124h-5.124zm21.777 0h5.124v5.124h-5.124zm21.777 0h5.124v5.124h-5.124zM263 4262.77h5.124v5.124H263zm21.777 0h5.124v5.124h-5.124z"/><path fill="#98E3DF" d="M306.555 4262.77h5.124v5.124h-5.124zm21.775 0h5.124v5.124h-5.124zm21.777 0h5.124v5.124h-5.124z"/><path fill="#F2A6C0" d="M371.885 4262.77h5.124v5.124h-5.124z"/><path fill="#98E3DF" d="M393.662 4262.77h5.124v5.124h-5.124z"/><path fill="#F2A6C0" d="M415.438 4262.77h5.124v5.124h-5.124zm21.777 0h5.124v5.124h-5.124z"/><path fill="#98E3DF" d="M458.992 4262.77h5.124v5.124h-5.124z"/><path fill="#FFE9F5" d="M263 4284.55h5.124v5.124H263z"/><path fill="#F2A6C0" d="M284.777 4284.55h5.124v5.124h-5.124zm21.778 0h5.124v5.124h-5.124z"/><path fill="#98E3DF" d="M328.33 4284.55h5.124v5.124h-5.124z"/><path fill="#FFE9F5" d="M350.107 4284.55h5.124v5.124h-5.124zm21.778 0h5.124v5.124h-5.124zm21.777 0h5.124v5.124h-5.124z"/><path fill="#F2A6C0" d="M415.438 4284.55h5.124v5.124h-5.124zm21.777 0h5.124v5.124h-5.124z"/><path fill="#98E3DF" d="M458.992 4284.55h5.124v5.124h-5.124zM263 4306.32h5.124v5.124H263zm21.777 0h5.124v5.124h-5.124z"/><path fill="#FFE9F5" d="M306.555 4306.32h5.124v5.124h-5.124zm21.775 0h5.124v5.124h-5.124z"/><path fill="#F2A6C0" d="M350.107 4306.32h5.124v5.124h-5.124zm21.778 0h5.124v5.124h-5.124zm21.777 0h5.124v5.124h-5.124z"/><path fill="#FFE9F5" d="M415.438 4306.32h5.124v5.124h-5.124z"/><path fill="#98E3DF" d="M437.215 4306.32h5.124v5.124h-5.124zm21.777 0h5.124v5.124h-5.124z"/><path fill="#F2A6C0" d="M263 4328.1h5.124v5.124H263z"/><path fill="#98E3DF" d="M284.777 4328.1h5.124v5.124h-5.124zm21.778 0h5.124v5.124h-5.124z"/><path fill="#FFE9F5" d="M328.33 4328.1h5.124v5.124h-5.124zm21.777 0h5.124v5.124h-5.124zm21.778 0h5.124v5.124h-5.124z"/><path fill="#98E3DF" d="M393.662 4328.1h5.124v5.124h-5.124zm21.776 0h5.124v5.124h-5.124z"/><path fill="#FFE9F5" d="M437.215 4328.1h5.124v5.124h-5.124z"/><path fill="#98E3DF" d="M458.992 4328.1h5.124v5.124h-5.124z"/><path fill="#F2A6C0" d="M263 4349.88h5.124v5.124H263zm21.777 0h5.124v5.124h-5.124z"/><path fill="#FFE9F5" d="M306.555 4349.88h5.124v5.124h-5.124z"/><path fill="#F2A6C0" d="M328.33 4349.88h5.124v5.124h-5.124z"/><path fill="#FFE9F5" d="M350.107 4349.88h5.124v5.124h-5.124zm21.778 0h5.124v5.124h-5.124z"/><path fill="#98E3DF" d="M393.662 4349.88h5.124v5.124h-5.124z"/><path fill="#F2A6C0" d="M415.438 4349.88h5.124v5.124h-5.124z"/><path fill="#98E3DF" d="M437.215 4349.88h5.124v5.124h-5.124z"/><path fill="#FFE9F5" d="M458.992 4349.88h5.124v5.124h-5.124z"/></g><path fill-rule="evenodd" clip-rule="evenodd" d="M96.747 604.734c13.889-2.489 27.911 1.636 40.501 8.08 14.512 7.429 28.728 16.617 36.267 31.216 8.351 16.173 16.855 37.525 7.181 52.923-9.975 15.878-36.534 6.472-51.5 17.62-15.123 11.266-14.533 39.248-32.45 44.917-17.802 5.634-37.922-5.386-51.49-18.356-12.82-12.254-11.813-32.27-18.679-48.719-7.82-18.734-34.487-36.692-24.28-54.208 11.184-19.194 42.408-5.173 63.17-12.531 12.092-4.285 18.666-18.682 31.28-20.942zM349.295 4594.94c30.561-12.51 60.673-47.71 90.578-33.7 28.055 13.14 14.629 57.87 24.03 87.37 9.318 29.24 42.145 55.92 30.707 84.39-11.579 28.83-50.564 35.45-81.123 41.11-22.088 4.09-42.241-18.96-64.192-14.19-33.45 7.27-54.832 54.59-88.282 47.32-30.404-6.6-44.685-46.15-48.49-77.01-3.536-28.67 11.377-56.6 29.209-79.33 14.117-18 38.233-21.96 58.529-32.52 16.475-8.57 31.846-16.41 49.034-23.44z" fill="#F4FDFC"/><path fill-rule="evenodd" clip-rule="evenodd" d="M88.857 3076.15c18.384-6.52 34.984 16.22 48.97 29.83 12.022 11.7 16.708 27.93 25.237 42.38 9.765 16.55 36.297 31.16 28.532 48.74-8.804 19.93-45.645 5.92-59.937 22.35-14.224 16.36 3.107 48.54-13.654 62.28-15.057 12.35-41.697 7.67-57.022-4.34-15.485-12.13-4.044-41.49-18.504-54.83-17.772-16.4-60.782-.53-66.875-23.94-5.734-22.05 30.788-31.83 48.723-45.83 10.317-8.06 25.271-8.52 33.704-18.53 14.41-17.12 9.755-50.64 30.826-58.11z" fill="#F2FDFF"/><path fill-rule="evenodd" clip-rule="evenodd" d="M107.568 2137.66c35.313.29 79.852-3.94 91.187 29.1 11.521 33.58-23.563 60.97-53.657 80.3-24.248 15.57-53.774 19.54-78.347 4.47-32.339-19.83-67.811-50.85-55.106-86.29 12.29-34.29 59.108-27.88 95.923-27.58z" fill="#FFF8FA"/><path fill-rule="evenodd" clip-rule="evenodd" d="M366.045 1579.62c23.632 4.39 49.798 4.17 67.698 20.22 17.172 15.4 22.324 40.08 25.099 62.98 2.261 18.66-12.471 35.43-10.907 54.16 2.301 27.55 37.929 55.67 21.962 78.24-15.212 21.5-52.78-9.24-77.397.11-28.237 10.73-39.077 53.82-69.231 55.59-28.9 1.7-52.435-24.9-70.692-47.37-17.909-22.05-38.809-50.33-30.827-77.59 8.475-28.95 58.985-26.64 69.611-54.87 12.043-31.99-32.994-73.35-11.376-99.83 18.607-22.79 57.137 2.99 86.06 8.36zm21.571 1052.71c11.256 2.08 19.209 11.89 30.382 14.37 20.121 4.48 54.62-13.86 60.325 5.82 6.183 21.32-31.672 29.74-44.815 47.69-5.413 7.39-5.201 16.99-8.728 25.43-5.242 12.55-6.992 26.93-17.009 36.19-13.088 12.09-30.162 28.64-47.126 23.05-17.165-5.65-18.966-29.7-24.743-46.72-4.025-11.86-4.358-24.13-3.543-36.61.673-10.33 5.377-19.35 7.846-29.4 3.183-12.95-1.491-29.61 8.762-38.22 10.049-8.44 25.711-4 38.649-1.6z" fill="#F2FDFF"/></svg>