<svg width="109" height="44" fill="none" xmlns="http://www.w3.org/2000/svg"><path fill-rule="evenodd" clip-rule="evenodd" d="M12.588 21.49c-.865-4.726-18.049-9.46-10.815-13.117 7.45-3.767 23.022 2.878 34.13 1.33C47.2 8.129 49.94.127 61.847.002c11.102-.117 16.462 5.742 23.906 9.177 8.528 3.934 24.115 7.043 22.665 12.31-1.489 5.409-20.037 6.427-28.923 10.417-7.26 3.26-8.004 9.064-17.98 10.645-10.013 1.586-20.607-1.281-30.535-2.958-9.184-1.55-20.795-2.56-24.659-6.363-3.845-3.784 7.017-7.642 6.268-11.74z" fill="#70DBED"/><path fill-rule="evenodd" clip-rule="evenodd" d="M69.415 3.153c12.443-1.405 23.029 4.23 30.903 7.868 6.36 2.938 7.712 6.682 8.535 10.35.655 2.92-.889 5.764-4.322 8.437-3.127 2.435-7.587 4.712-14.253 6.026-6.25 1.233-14.097.06-20.863.9-12.72 1.579-22.476 7.402-35.442 6.088-11.728-1.188-15.71-6.985-15.38-11.237.298-3.846 10.42-6.487 16.993-9.579 4.318-2.031 10.864-3.192 14.71-5.336 7.835-4.366 5.056-11.929 19.119-13.517z" fill="#F2A6C0"/></svg>