<?xml version="1.0" standalone="no"?>
<!DOCTYPE svg PUBLIC "-//W3C//DTD SVG 20010904//EN"
 "http://www.w3.org/TR/2001/REC-SVG-20010904/DTD/svg10.dtd">
<svg version="1.0" xmlns="http://www.w3.org/2000/svg"
 width="552.000000pt" height="552.000000pt" viewBox="0 0 552.000000 552.000000"
 preserveAspectRatio="xMidYMid meet">
<metadata>
Created by potrace 1.11, written by Peter Selinger 2001-2013
</metadata>
<g transform="translate(0.000000,552.000000) scale(0.100000,-0.100000)"
fill="#000000" stroke="none">
<path d="M2595 5501 c-81 -23 -155 -65 -208 -118 l-44 -44 -79 25 c-112 35
-299 85 -342 92 -21 3 -44 7 -52 9 -32 8 -138 18 -200 18 -174 0 -300 -45
-405 -147 -102 -100 -145 -194 -151 -336 -8 -161 31 -291 206 -700 48 -113 91
-215 94 -227 7 -23 7 -24 -69 -53 -72 -28 -183 -85 -235 -120 -58 -39 -80 -44
-80 -16 0 7 -13 25 -28 39 -118 113 -428 81 -650 -66 -202 -135 -316 -360
-258 -511 l17 -44 -44 -65 c-99 -144 -86 -309 33 -428 44 -43 141 -99 175 -99
32 0 21 -20 -33 -62 -172 -134 -248 -306 -238 -545 10 -241 110 -481 327 -786
60 -83 248 -320 268 -337 3 -3 24 -25 45 -50 223 -256 432 -464 591 -589 44
-34 87 -68 95 -74 31 -25 148 -95 215 -130 266 -137 562 -173 781 -94 180 65
325 190 629 542 217 252 408 405 581 466 85 30 115 34 249 34 164 -1 154 1
515 -86 322 -77 390 -88 520 -85 152 4 249 50 324 153 131 177 101 386 -102
718 -85 139 -92 154 -81 160 13 9 1 25 -14 19 -12 -4 -90 121 -151 244 -24 47
-25 52 -9 53 10 0 25 2 33 3 8 2 51 6 95 10 127 10 261 32 310 50 160 59 250
163 284 324 17 81 6 232 -24 342 -41 152 -146 377 -235 510 -68 100 -193 218
-325 307 -40 27 -61 48 -62 62 -4 44 -65 263 -98 351 -141 371 -357 598 -688
726 -80 32 -269 85 -342 97 -98 16 -166 27 -210 33 -27 3 -55 9 -61 13 -9 5
-94 80 -188 166 -76 69 -205 156 -298 200 -134 64 -266 79 -383 46z m-1682
-1558 c41 -21 58 -69 48 -134 -1 -4 -56 -35 -123 -70 -324 -166 -312 -160
-321 -144 -11 20 -26 10 -21 -13 3 -13 -16 -28 -78 -62 -45 -25 -122 -73 -170
-107 -48 -35 -89 -63 -92 -63 -3 0 -4 28 -2 63 9 163 173 381 358 474 85 44
148 62 243 72 87 9 115 6 158 -16z"/>
</g>
</svg>
