<svg width="73" height="100" viewBox="0 0 73 100" fill="none" xmlns="http://www.w3.org/2000/svg">
<path d="M54.1955 78.9189C53.7912 78.2184 52.8955 77.9783 52.1945 78.3826C51.494 78.7871 51.2539 79.683 51.6584 80.3836L62.5598 99.2674C62.9682 99.9756 63.8703 100.202 64.5607 99.8037C65.2613 99.3992 65.5014 98.5033 65.0969 97.8027L54.1955 78.9189ZM36.0295 10.4029C34.525 10.4029 33.0731 10.718 31.7141 11.3395C30.9783 11.676 30.6547 12.5451 30.9912 13.2809C31.3275 14.0164 32.1969 14.34 32.9324 14.0039C33.9063 13.5584 34.9482 13.3326 36.0293 13.3326C40.1404 13.3326 43.4852 16.6773 43.4852 20.7885C43.4852 24.8996 40.1404 28.2441 36.0293 28.2441C31.9182 28.2441 28.5734 24.8994 28.5734 20.7885C28.5734 19.8811 28.7342 18.9951 29.0516 18.1551C29.3373 17.3982 28.9555 16.5529 28.1986 16.2672C27.4428 15.9814 26.5967 16.3631 26.3108 17.1199C25.8682 18.292 25.6438 19.5262 25.6438 20.7885C25.6438 26.515 30.3027 31.1738 36.0293 31.1738C41.7559 31.1738 46.4149 26.5148 46.4149 20.7885C46.415 15.0619 41.7561 10.4029 36.0295 10.4029ZM71.8625 97.8027L51.3285 62.2328H54.9994C57.9609 62.2328 60.3705 59.8234 60.3705 56.8617V53.5695C60.3705 50.6078 57.9609 48.1984 54.9994 48.1984H40.424V42.3705H47.207C49.0916 42.3705 50.625 40.8371 50.625 38.9525V36.5111H55.1701C59.2088 36.5111 62.4943 33.2256 62.4943 29.1869V12.39C62.4943 8.35137 59.2088 5.06582 55.1701 5.06582H47.3291C47.0598 5.06582 46.8408 4.84668 46.8408 4.57754V3.41797C46.8408 1.5334 45.3074 0 43.4229 0H28.6363C26.7518 0 25.2184 1.5334 25.2184 3.41797V4.57754C25.2184 4.84668 24.9994 5.06582 24.7301 5.06582H16.8889C12.8502 5.06582 9.56466 8.35137 9.56466 12.39V29.1869C9.56466 33.2256 12.8502 36.5111 16.8889 36.5111H21.4336V38.9525C21.4336 40.8371 22.967 42.3705 24.8516 42.3705H31.635V48.1984H17.059C14.0975 48.1984 11.6879 50.6078 11.6879 53.5695V56.8617C11.6879 59.8234 14.0975 62.2328 17.059 62.2328H20.7305L0.196492 97.8027C-0.208 98.5033 0.0320379 99.3992 0.732624 99.8037C1.42091 100.201 2.32501 99.9762 2.7336 99.2674L24.1131 62.2328H27.4959L6.96212 97.8027C6.55762 98.5033 6.79766 99.3992 7.49825 99.8037C8.18653 100.201 9.09063 99.9762 9.49923 99.2674L30.8787 62.2328H31.635V98.5352C31.635 99.3441 32.2906 100 33.0998 100C33.909 100 34.5647 99.3441 34.5647 98.5352V62.2328H37.4943V98.5352C37.4943 99.3441 38.15 100 38.9592 100C39.7684 100 40.424 99.3441 40.424 98.5352V62.2328H41.1803L48.2473 74.4746C48.6557 75.1828 49.558 75.4096 50.2482 75.0109C50.9488 74.6064 51.1889 73.7105 50.7844 73.01L44.5629 62.2328H47.9457L69.3254 99.2676C69.7338 99.9758 70.6359 100.202 71.3264 99.8039C72.027 99.3992 72.267 98.5033 71.8625 97.8027ZM53.7053 7.99551H55.1701C57.5932 7.99551 59.5647 9.9668 59.5647 12.39V29.1869C59.5647 31.6102 57.5932 33.5814 55.1701 33.5814H53.7053V7.99551ZM18.3537 33.5814H16.8889C14.4658 33.5814 12.4943 31.6102 12.4943 29.1869V12.39C12.4943 9.9668 14.4658 7.99551 16.8889 7.99551H18.3537V33.5814ZM21.2834 33.5814V7.99551H24.7299C26.6145 7.99551 28.1479 6.46211 28.1479 4.57754V3.41797C28.1479 3.14883 28.3668 2.92969 28.6361 2.92969H43.4227C43.692 2.92969 43.9109 3.14883 43.9109 3.41797V4.57754C43.9109 6.46211 45.4443 7.99551 47.3289 7.99551H50.7756V33.5814H21.2834ZM24.8516 39.4408C24.5822 39.4408 24.3633 39.2217 24.3633 38.9525V36.5111H47.6953V38.9525C47.6953 39.2217 47.4764 39.4408 47.207 39.4408H24.8516ZM37.4943 42.3705V48.1984H34.5647V42.3705H37.4943ZM17.059 59.3031C15.7127 59.3031 14.6176 58.208 14.6176 56.8617V53.5695C14.6176 52.2232 15.7127 51.1281 17.059 51.1281H54.9994C56.3457 51.1281 57.4408 52.2232 57.4408 53.5695V56.8617C57.4408 58.208 56.3457 59.3031 54.9994 59.3031H17.059ZM27.5029 11.0975C27.5029 10.2898 26.8457 9.63262 26.0381 9.63262C25.2303 9.63262 24.5732 10.2898 24.5732 11.0975C24.5732 11.9051 25.2303 12.5623 26.0381 12.5623C26.8457 12.5623 27.5029 11.9051 27.5029 11.0975ZM40.5557 20.7885C40.5557 18.2928 38.5252 16.2623 36.0295 16.2623C33.5338 16.2623 31.5033 18.2928 31.5033 20.7885C31.5033 23.2842 33.5338 25.3145 36.0295 25.3145C38.5252 25.3145 40.5557 23.2842 40.5557 20.7885ZM34.433 20.7885C34.433 19.9082 35.1492 19.192 36.0295 19.192C36.9098 19.192 37.626 19.9082 37.626 20.7885C37.626 21.6687 36.9098 22.3848 36.0295 22.3848C35.1492 22.3848 34.433 21.6687 34.433 20.7885Z" fill="#3F3F45"/>
</svg>
