<svg width="112" height="87" viewBox="0 0 112 87" fill="none" xmlns="http://www.w3.org/2000/svg">
<path d="M72.2862 57.4715C72.6972 57.4715 73.1082 57.3147 73.4218 57.0012C74.0491 56.374 74.0491 55.3573 73.422 54.7301L71.1185 52.4265C70.4914 51.7994 69.4746 51.7991 68.8475 52.4265C68.2201 53.0536 68.2201 54.0704 68.8473 54.6975L71.1507 57.0012C71.4643 57.3147 71.8753 57.4715 72.2862 57.4715Z" fill="#3F3F45"/>
<path d="M12.5182 27.8071C13.5864 27.8071 14.4524 26.9412 14.4524 25.8729C14.4524 24.8047 13.5864 23.9387 12.5182 23.9387C11.45 23.9387 10.584 24.8047 10.584 25.8729C10.584 26.9412 11.45 27.8071 12.5182 27.8071Z" fill="#3F3F45"/>
<path d="M110.488 23.4751L96.3652 9.35182C95.738 8.7247 94.7215 8.7247 94.0939 9.35182C93.4668 9.97894 93.4668 10.9957 94.0939 11.6229L107.99 25.5189L99.0518 34.4572L76.8778 12.2828L85.8159 3.34458L88.7695 6.29819C89.3964 6.92553 90.4132 6.92531 91.0405 6.29819C91.6676 5.67107 91.6676 4.65427 91.0403 4.02715L87.8599 0.846746C87.3139 0.300732 86.588 0 85.8159 0C85.0439 0 84.3178 0.300514 83.7716 0.846746L74.3798 10.2388C73.8336 10.7848 73.5326 11.5107 73.5326 12.283C73.5326 12.6268 73.5955 12.9604 73.7098 13.2742L69.9782 17.0058C69.4337 17.5503 68.6828 17.836 67.9118 17.7841L48.2487 16.5039C46.1875 16.3706 44.2462 17.2674 43.0124 18.8476C42.3513 18.4551 41.742 17.9817 41.1921 17.4316L37.6227 13.8621C37.9936 12.8393 37.7729 11.6481 36.9542 10.8292L27.5617 1.43668C27.0157 0.890671 26.2897 0.590156 25.5177 0.590156C24.7456 0.590156 24.0197 0.890888 23.4737 1.4369L0.845115 24.0651C-0.281705 25.1921 -0.281705 27.0258 0.845115 28.1529L10.2376 37.5452C10.7836 38.0912 11.5095 38.3919 12.2816 38.3919C13.0536 38.3919 13.7796 38.0914 14.3259 37.5452L35.5449 16.3261L38.9211 19.7022C39.6897 20.4709 40.5454 21.1265 41.4748 21.6664L40.3986 23.8472C40.2251 24.1988 40.0016 24.5228 39.7341 24.81L33.9452 31.0252C33.2154 31.8086 32.9053 32.9031 33.1156 33.9531C33.3257 35.003 34.0339 35.8938 35.0092 36.3357L37.4591 37.4462C38.4566 37.8176 39.5188 37.9746 40.5482 37.9803C42.6784 37.9803 44.7672 37.2455 46.4683 35.8417L51.1806 31.9526C51.3087 31.8471 51.4809 31.8067 51.642 31.8436L65.5888 35.0675C65.7316 35.1006 65.8749 35.1304 66.0182 35.1589L66.2376 35.9552C66.5107 36.9446 67.0383 37.8511 67.7639 38.5767L89.2548 60.0676C89.8808 60.6939 89.8808 61.7126 89.2548 62.3387L86.2782 65.3153C85.975 65.6187 85.5717 65.7857 85.1426 65.7857C84.7136 65.7857 84.3105 65.6187 84.0071 65.3153L81.6063 62.9142C81.6058 62.9138 81.6054 62.9134 81.605 62.9129L79.0867 60.3949C78.4593 59.7675 77.4428 59.7678 76.8154 60.3949C76.1883 61.022 76.1883 62.0388 76.8157 62.6659L80.0326 65.8829C80.6588 66.5091 80.6588 67.5279 80.0326 68.1541L77.0559 71.1308C76.7528 71.4341 76.3494 71.6011 75.9204 71.6011C75.4914 71.6011 75.0882 71.4341 74.7849 71.1308L63.5995 59.9454C63.0901 59.4357 62.3233 59.3403 61.7171 59.6588C61.5773 59.7323 61.4459 59.8278 61.3283 59.9454C60.7012 60.5725 60.7012 61.5893 61.3283 62.2165L70.7756 71.6637C71.401 72.29 71.4007 73.3081 70.7747 73.9341L67.7983 76.9106C67.172 77.5364 66.1533 77.537 65.527 76.9106L56.0806 67.4641C55.4533 66.837 54.4367 66.837 53.8093 67.4641C53.7519 67.5216 53.7017 67.5831 53.6547 67.6464L52.6064 66.5983H52.6066C52.0856 66.0773 51.4642 65.6954 50.7883 65.4599C50.9623 64.9581 51.058 64.427 51.058 63.8802C51.058 62.5933 50.5567 61.3834 49.6467 60.4734L46.6701 57.4969H46.6703C45.7603 56.5869 44.5504 56.0857 43.2635 56.0857C42.7158 56.0857 42.1837 56.1818 41.6809 56.3562C41.45 55.6919 41.0751 55.0667 40.5454 54.537L37.5687 51.5606C35.94 49.9321 33.4268 49.7182 31.5626 50.9135C31.3295 50.3901 31.0037 49.8984 30.5752 49.4698L27.5985 46.4932H27.5983C26.7244 45.6192 25.573 45.1274 24.3433 45.0895C24.2589 45.0008 20.035 40.7706 20.035 40.7706C19.4079 40.1434 18.3913 40.1434 17.7637 40.7706C17.1366 41.3977 17.1366 42.4145 17.7637 43.0416L21.0109 46.2888C20.935 46.356 20.8576 46.4212 20.7854 46.4934L18.283 48.9954C16.0524 51.2262 16.0522 54.856 18.2832 57.0873L19.9813 58.7851C21.062 59.8661 22.4987 60.461 24.0273 60.461C24.0613 60.461 24.095 60.459 24.1287 60.4586C24.128 60.4925 24.1263 60.526 24.1263 60.5599C24.1263 62.0884 24.7214 63.5251 25.8022 64.6058L27.5004 66.3041C28.6157 67.4194 30.0811 67.9771 31.5463 67.9771C31.55 67.9771 31.5537 67.9769 31.5574 67.9769C31.5308 69.4186 32.0649 70.8687 33.1626 71.9664L35.1775 73.9813C36.2158 75.0196 37.5964 75.5917 39.065 75.5917C39.0983 75.5917 39.1311 75.59 39.1642 75.5893C39.1642 75.5922 39.1639 75.595 39.1639 75.5978C39.1639 77.1263 39.7591 78.563 40.8398 79.6437L42.5379 81.3417C43.6188 82.4225 45.0555 83.0176 46.584 83.0176C48.0528 83.0176 49.436 82.4666 50.5009 81.4646L54.1544 85.1182C55.0645 86.0282 56.2743 86.5294 57.5612 86.5294C58.8481 86.5294 60.058 86.0282 60.968 85.1182L63.9444 82.1417C64.4663 81.6199 64.8484 80.9975 65.0839 80.3206C65.5946 80.4969 66.1278 80.5907 66.6625 80.5907C67.8965 80.5907 69.1301 80.1212 70.0695 79.1818L73.0462 76.2052C73.5522 75.6992 73.9171 75.1064 74.1504 74.4754C74.7068 74.695 75.3042 74.813 75.9204 74.813C77.2073 74.813 78.4172 74.3118 79.3272 73.4018L82.3038 70.4251C82.8153 69.9137 83.1823 69.3136 83.4152 68.6749C83.9597 68.8839 84.542 68.9974 85.1426 68.9974C86.4295 68.9974 87.6394 68.4962 88.5494 67.5861L91.5261 64.6095C93.4042 62.7312 93.4042 59.6745 91.5261 57.7962L86.3604 52.6304L89.3907 47.2255C89.8948 46.3273 90.5193 45.5025 91.2473 44.7745L98.3181 37.7037C98.5584 37.7663 98.8047 37.8007 99.0518 37.8007C99.7919 37.8007 100.532 37.5188 101.096 36.9554L110.488 27.5629C111.616 26.4359 111.616 24.6022 110.488 23.4751ZM12.2814 35.0471L3.34338 26.1089L25.5177 3.93452L34.4557 12.8728L12.2814 35.0471ZM24.0276 57.2488C23.3572 57.2488 22.727 56.9879 22.2527 56.5136L20.5547 54.8158C19.5762 53.8371 19.5762 52.2447 20.5545 51.2662L23.0569 48.7642C23.36 48.4609 23.7631 48.2939 24.1924 48.2939C24.6212 48.2939 25.0246 48.4609 25.3279 48.7642L28.3046 51.7409C28.9306 52.3669 28.9308 53.3852 28.305 54.0115L25.8026 56.5139C25.3283 56.9879 24.6979 57.2488 24.0276 57.2488ZM29.7717 64.0328L28.0734 62.3345C27.5994 61.8605 27.3384 61.2303 27.3384 60.5599C27.3384 59.8895 27.5994 59.2594 28.0736 58.7851L33.0267 53.8318C33.6531 53.2056 34.6717 53.2056 35.2981 53.8318L38.2746 56.8083C38.9006 57.4343 38.9008 58.4529 38.275 59.0789L33.3181 64.0356C32.3391 65.0111 30.7491 65.0102 29.7717 64.0328ZM40.682 71.7098C39.8309 72.5968 38.3 72.5968 37.4489 71.7098L35.434 69.695C34.5429 68.8036 34.5429 67.3535 35.434 66.4621L42.1286 59.7678C42.7262 59.1448 43.8019 59.1448 44.3995 59.7678H44.3997L47.3763 62.7444C47.6795 63.0478 47.8467 63.4509 47.8467 63.8799C47.8467 64.3087 47.6797 64.7121 47.3761 65.0155L40.682 71.7098ZM46.5842 79.8057C45.9138 79.8057 45.2836 79.5445 44.8096 79.0705L43.1113 77.3722C42.6373 76.8982 42.3763 76.268 42.3763 75.5976C42.3763 74.9276 42.6368 74.2979 43.1106 73.8239L48.0652 68.8693C48.6628 68.2463 49.7385 68.2463 50.336 68.8693H50.3363L53.3127 71.8457C53.9389 72.472 53.9389 73.4907 53.3127 74.117L48.3592 79.0705C47.8847 79.5445 47.2546 79.8057 46.5842 79.8057ZM61.6734 79.8703L58.6967 82.8469C58.3936 83.1503 57.9902 83.3173 57.5612 83.3173C57.1324 83.3173 56.729 83.1503 56.4257 82.8469L52.7752 79.1964L55.5835 76.3883C56.5396 75.4321 57.0063 74.1707 56.9889 72.9149L61.6747 77.6007C61.9772 77.9039 62.1437 78.3066 62.1437 78.735C62.1439 79.1636 61.9769 79.5669 61.6734 79.8703ZM88.9763 42.5034C88.0404 43.4395 87.2373 44.4996 86.5895 45.6545L84.001 50.2709L70.0354 36.3053C69.7786 36.0485 69.5772 35.7416 69.4402 35.4068C70.8051 35.3367 72.159 35.0669 73.4617 34.5961C74.2959 34.2947 74.7277 33.374 74.4263 32.5399C74.1249 31.7058 73.2043 31.2739 72.3701 31.5753C70.4235 32.2788 68.3282 32.4038 66.312 31.938L52.365 28.7141C51.2371 28.4536 50.0294 28.738 49.1359 29.475L44.4234 33.3643C42.8173 34.69 40.6843 35.1056 38.7008 34.4826L36.3343 33.4101C36.2717 33.4106 36.2366 33.2377 36.2949 33.214L36.3967 33.1046L42.0839 26.9987C42.5648 26.4824 42.9667 25.8999 43.2785 25.2676L45.2175 21.338C45.7442 20.2706 46.8547 19.63 48.0398 19.7083L67.7028 20.9884C69.3943 21.0975 71.0509 20.4743 72.2492 19.2762L75.7891 15.7363L95.7659 35.7129L88.9763 42.5034Z" fill="#3F3F45"/>
</svg>
