<svg width="68" height="100" viewBox="0 0 68 100" fill="none" xmlns="http://www.w3.org/2000/svg">
<path d="M65.9389 81.024C65.1299 81.024 64.474 81.6799 64.474 82.4889V96.2611C64.474 96.707 64.1111 97.0699 63.6652 97.0699H55.7908V68.2228C55.7908 67.4139 55.135 66.758 54.326 66.758C53.517 66.758 52.8611 67.4139 52.8611 68.2228V97.0701H37.0047L41.6029 92.0115C42.1053 91.4588 42.3422 90.6715 42.2365 89.9047C42.2346 89.8898 42.2322 89.875 42.2297 89.8602L37.8502 63.9877L39.0301 62.2115C39.6824 62.6748 40.185 63.1209 41.1273 63.1209C42.0859 63.1209 42.9822 62.5844 43.4232 61.7012V61.701L48.0424 52.4432L58.565 56.5184C58.9457 56.6816 64.4736 59.1711 64.4736 65.7445V75.6527C64.4734 76.4615 65.1293 77.1176 65.9385 77.1176C66.7475 77.1176 67.4033 76.4617 67.4033 75.6527V65.7445C67.4033 57.0836 59.9875 53.9354 59.6719 53.8055C59.6627 53.8016 59.6533 53.7979 59.644 53.7943L42.1307 47.0119V42.9045C44.9123 40.7412 46.841 37.5344 47.3252 33.8758C48.7121 33.7781 49.999 33.2602 51.05 32.3564C52.4225 31.1762 53.21 29.4584 53.21 27.6443C53.21 26.1389 52.6668 24.7014 51.6988 23.5812V18.1549C51.6986 8.14434 43.5545 0 33.5439 0C23.5334 0 15.3893 8.14434 15.3893 18.1549V23.7234C14.4109 24.8322 13.8789 26.1971 13.8789 27.6441C13.8789 29.4588 14.666 31.1764 16.0389 32.3568C17.0891 33.2602 18.3752 33.7775 19.7617 33.8754C20.2498 37.6025 22.2348 40.9289 25.2533 43.1213V47.0119L7.75898 53.7941C7.7498 53.7977 7.74063 53.8014 7.73145 53.8051C7.41563 53.935 0 57.0832 0 65.7441V96.2607C0 98.3223 1.67715 99.9994 3.73867 99.9994H17.6951C18.5041 99.9994 19.16 99.3436 19.16 98.5346C19.16 97.7256 18.5041 97.0697 17.6951 97.0697H14.5434V68.2228C14.5434 67.4139 13.8875 66.758 13.0785 66.758C12.2695 66.758 11.6137 67.4139 11.6137 68.2228V97.0701H3.73887C3.29297 97.0701 2.93008 96.7072 2.93008 96.2613V65.7443C2.93008 59.1488 8.49512 56.665 8.83692 56.5189L19.3514 52.4428L23.9709 61.701C24.4129 62.5863 25.3104 63.1209 26.267 63.1209C27.2047 63.1209 27.7023 62.6816 28.3643 62.2115L29.5441 63.9877L25.165 89.8604C25.1625 89.875 25.1604 89.8896 25.1582 89.9045C25.0523 90.6709 25.2893 91.4586 25.7918 92.0117L30.39 97.0703H24.5316C23.7227 97.0703 23.0668 97.7262 23.0668 98.5352C23.0668 99.3441 23.7227 100 24.5316 100H63.6654C65.727 100 67.4041 98.3227 67.4041 96.2613V82.4891C67.4037 81.6799 66.7479 81.024 65.9389 81.024ZM45.2984 51.3807L40.992 60.0115C40.885 59.9355 38.6027 58.3141 35.8129 56.333C37.0234 54.8387 35.6072 56.5867 41.1322 49.7672L45.2984 51.3807ZM36.6398 60.5143L35.5231 62.1953H31.8701L30.7533 60.5143L33.6967 58.4238L36.6398 60.5143ZM28.1828 47.4846V44.7432C29.9625 45.4605 31.8645 45.7932 33.7219 45.7932C35.6424 45.7932 37.5258 45.3838 39.2008 44.6514V47.4965L33.6967 54.2904L28.1828 47.4846ZM50.2801 27.6443C50.2799 28.6039 49.8643 29.5119 49.1397 30.1352C48.6605 30.5473 48.0818 30.8107 47.4481 30.9139V24.3754C49.1316 24.6488 50.2801 26.0453 50.2801 27.6443ZM19.6406 30.9139C17.9379 30.6375 16.8086 29.2297 16.8086 27.6441C16.8086 26.0781 18.1068 24.8035 19.6406 24.449V30.9139ZM19.7193 21.4641C19.2527 21.5176 18.718 21.6439 18.3193 21.7795V18.1549C18.3193 9.75977 25.149 2.92988 33.5441 2.92988C41.9393 2.92988 48.769 9.75977 48.769 18.1549V21.6789C48.3432 21.5494 47.9016 21.4639 47.4482 21.4236C47.4482 20.0102 47.4605 20.2828 42.8365 15.3115C41.9861 14.3979 40.5795 14.2064 39.509 14.9059C34.4055 18.2396 28.1799 19.9145 22.4357 19.502C21.1758 19.4076 20.0281 20.2375 19.7193 21.4641ZM22.5705 32.0672V22.9281V22.4467C28.8938 22.817 35.5232 20.9385 40.8789 17.5086C42.9996 19.7855 44.1481 20.9799 44.5184 21.4342C44.5184 22.5834 44.5184 30.7516 44.5184 32.067C44.5184 38.0137 39.6695 42.8631 33.7221 42.8631C27.0436 42.8633 22.5705 37.6824 22.5705 32.0672ZM26.4016 60.0115L22.0951 51.3807L26.2539 49.7699L31.5744 56.3373C28.8688 58.2586 26.6471 59.8371 26.4016 60.0115ZM28.0822 90.1762L32.3223 65.1248H35.0705L39.3106 90.1762L33.6965 96.3525L28.0822 90.1762Z" fill="#3F3F45"/>
</svg>
