<svg width="100" height="100" viewBox="0 0 100 100" fill="none" xmlns="http://www.w3.org/2000/svg">
<path d="M45.1614 32.2574C45.1614 33.1482 44.4392 33.8703 43.5485 33.8703C42.6577 33.8703 41.9355 33.1482 41.9355 32.2574C41.9355 31.3667 42.6577 30.6445 43.5485 30.6445C44.4392 30.6445 45.1614 31.3667 45.1614 32.2574Z" fill="#3F3F45"/>
<path d="M29.0305 32.2574C29.0305 33.1482 28.3083 33.8703 27.4176 33.8703C26.5269 33.8703 25.8047 33.1482 25.8047 32.2574C25.8047 31.3667 26.5269 30.6445 27.4176 30.6445C28.3083 30.6445 29.0305 31.3667 29.0305 32.2574Z" fill="#3F3F45"/>
<path d="M35.4829 48.3862C39.041 48.3862 41.9345 45.4927 41.9345 41.9346H38.7087C38.7087 43.7136 37.2619 45.1604 35.4829 45.1604C33.7038 45.1604 32.2571 43.7136 32.2571 41.9346H29.0312C29.0312 45.4927 31.9247 48.3862 35.4829 48.3862Z" fill="#3F3F45"/>
<path d="M89.376 0H61.2891V51.6123H99.9983V10.6232L89.376 0ZM90.321 5.50649L94.4918 9.67731H90.321V5.50649ZM64.5148 48.3866V3.22577H87.0952V12.9031H96.7726V48.3866H64.5148Z" fill="#3F3F45"/>
<path d="M79.0318 34.8158L75.3335 31.1168L73.0527 33.3975L79.0318 39.3765L94.6881 23.7202L92.4074 21.4395L79.0318 34.8158Z" fill="#3F3F45"/>
<path d="M90.3207 41.9341H70.966V27.4182H83.8691V24.1924H67.7402V45.1599H93.5464V32.2568H90.3207V41.9341Z" fill="#3F3F45"/>
<path d="M67.7402 6.45117H70.966V9.67698H67.7402V6.45117Z" fill="#3F3F45"/>
<path d="M74.1934 6.45117H83.8708V9.67698H74.1934V6.45117Z" fill="#3F3F45"/>
<path d="M67.7402 12.9033H70.966V16.1291H67.7402V12.9033Z" fill="#3F3F45"/>
<path d="M74.1934 12.9033H83.8708V16.1291H74.1934V12.9033Z" fill="#3F3F45"/>
<path d="M74.1922 70.9666H80.6437C81.5336 70.9666 82.2566 71.6895 82.2566 72.5795H85.4824C85.4824 69.9121 83.3111 67.7408 80.6437 67.7408H79.0308V66.1279H75.8051V67.7408H74.1922C71.524 67.7408 69.3535 69.9121 69.3535 72.5795V74.1924C69.3535 76.8605 71.524 79.031 74.1922 79.031H80.6437C81.5336 79.031 82.2566 79.754 82.2566 80.6439V82.2568C82.2566 83.1475 81.5336 83.8697 80.6437 83.8697H74.1922C73.3015 83.8697 72.5793 83.1475 72.5793 82.2568H69.3535C69.3535 84.925 71.524 87.0954 74.1922 87.0954H75.8051V88.7083H79.0308V87.0954H80.6437C83.3111 87.0954 85.4824 84.925 85.4824 82.2568V80.6439C85.4824 77.9765 83.3111 75.8052 80.6437 75.8052H74.1922C73.3015 75.8052 72.5793 75.0831 72.5793 74.1924V72.5795C72.5793 71.6895 73.3015 70.9666 74.1922 70.9666Z" fill="#3F3F45"/>
<path d="M94.4128 68.1939L96.555 64.6232L90.2129 58.2811L86.6422 60.4232C85.4553 59.7774 84.2055 59.2584 82.9116 58.8765L81.9035 54.8387H72.9326L71.9246 58.878C70.6299 59.26 69.3816 59.779 68.194 60.4248L64.6233 58.2827L62.8702 60.0357C62.5442 59.9389 62.2213 59.8326 61.8913 59.7664L46.7737 56.7438V51.6791C48.5716 49.8536 49.9522 47.602 50.7689 45.0843C54.8507 44.6889 58.0639 41.2796 58.0639 37.097V23.204C58.0639 10.9364 48.7591 0.763768 36.8814 0.0431672C31.3158 -0.300989 25.8495 1.42215 21.4959 4.87474C17.5385 8.01703 13.2157 11.3042 8.44166 14.0488L5.63013 15.6688L6.80436 17.136C8.53537 19.2994 10.6074 21.0863 12.9031 22.4747V37.097C12.9031 41.2411 16.0564 44.6243 20.0799 45.0717C20.8659 47.6083 22.2756 49.9339 24.1933 51.8201V56.7422L9.07563 59.7648C3.81564 60.8178 0 65.4761 0 70.8377V99.9995H70.9669V95.6224C71.2859 95.735 71.5993 95.8657 71.9246 95.961L72.9326 99.9995H81.9035L82.9116 95.961C84.2071 95.5791 85.4553 95.0593 86.6422 94.4143L90.2129 96.5564L96.555 90.2143L94.4128 86.6436C95.0586 85.4568 95.5776 84.2062 95.9604 82.913L99.9989 81.905V72.9341L95.9604 71.926C95.5776 70.6305 95.0602 69.3823 94.4128 68.1939ZM48.0479 60.2854L44.4473 69.8871L38.1753 64.6602L45.4994 59.7774L48.0479 60.2854ZM33.6572 77.4191H37.3106L40.0748 96.7738H30.8929L33.6572 77.4191ZM37.7122 74.1934H33.2539L31.2347 70.1564L35.4835 66.6164L39.7299 70.1549L37.7122 74.1934ZM27.419 54.2812C29.8494 55.6924 32.5963 56.4516 35.4669 56.4516C35.8268 56.4516 36.1883 56.4406 36.553 56.4178C39.0959 56.2532 41.4672 55.468 43.5479 54.2245V57.2022L35.4835 62.5779L27.419 57.2022V54.2812ZM51.5036 41.6734C51.5698 41.0646 51.6123 40.4504 51.6123 39.8251V32.5553C53.4843 33.2231 54.8381 34.9974 54.8381 37.097C54.8381 39.2375 53.4331 41.0363 51.5036 41.6734ZM23.501 7.40274C27.23 4.44474 31.9238 2.98149 36.6868 3.26421C46.865 3.88007 54.8381 12.6399 54.8381 23.204V30.688C53.8962 29.9745 52.8102 29.4413 51.6123 29.1972V27.4197C51.6123 24.7523 49.4411 22.581 46.7737 22.581H24.843C19.4074 22.581 14.3041 20.4011 10.5735 16.5445C15.3208 13.7574 19.5901 10.5088 23.501 7.40274ZM19.3546 25.1539V29.1956C18.156 29.4413 17.0707 29.9729 16.1288 30.6864V24.0994C17.1755 24.5247 18.2497 24.8846 19.3546 25.1539ZM16.1288 37.097C16.1288 34.9974 17.4818 33.2231 19.3546 32.5553V40.3228C19.3546 40.7717 19.3869 41.2166 19.4239 41.66C17.5157 41.0119 16.1288 39.2234 16.1288 37.097ZM22.5804 25.6989C23.3286 25.7714 24.083 25.8068 24.843 25.8068H46.7737C47.6636 25.8068 48.3866 26.5298 48.3866 27.4197V39.8251C48.3866 46.8862 43.0974 52.762 36.3443 53.1975C32.72 53.429 29.2895 52.2036 26.6606 49.7394C24.0287 47.2728 22.5804 43.9281 22.5804 40.3228V25.6989ZM25.4659 59.7758L32.7901 64.6586L26.5173 69.8855L22.9175 60.2838L25.4659 59.7758ZM3.22577 70.8377C3.22577 67.0071 5.95145 63.6813 9.7096 62.9292L19.7137 60.928L25.095 75.2747L28.6901 72.2773L30.5897 76.0756L27.6317 96.7738H16.1288V72.5805H12.9031V96.7738H3.22577V70.8377ZM43.3345 96.7738L40.378 76.0772L42.2784 72.2789L45.8735 75.2762L51.254 60.9296L60.1894 62.7165L58.2812 64.6247L60.4233 68.1955C59.7783 69.3823 59.2586 70.6321 58.8766 71.926L54.8381 72.9341V81.905L58.8766 82.913C59.2586 84.2078 59.7783 85.4568 60.4233 86.6436L58.2812 90.2143L64.6233 96.5564L67.7412 94.6852V96.7738H43.3345ZM96.7731 79.3856L93.3119 80.2519L93.0827 81.2017C92.6889 82.8319 92.0439 84.3857 91.1666 85.8191L90.6571 86.6531L92.4952 89.7142L89.7136 92.4966L86.6524 90.6577L85.8184 91.168C84.3827 92.0454 82.8297 92.6888 81.2003 93.0841L80.2505 93.3125L79.3842 96.7738H75.452L74.5857 93.3125L73.6359 93.0841C72.0057 92.6904 70.4519 92.0454 69.0186 91.168L68.1846 90.6577L65.1234 92.4966L62.341 89.7142L64.1799 86.6531L63.6704 85.8191C62.7923 84.3842 62.1488 82.8303 61.7543 81.2017L61.5251 80.2519L58.0639 79.3856V75.4534L61.5251 74.5871L61.7543 73.6374C62.1473 72.0064 62.7923 70.4533 63.6704 69.0192L64.1799 68.186L62.341 65.124L65.1234 62.3424L68.1846 64.1806L69.0186 63.671C70.4535 62.7937 72.0073 62.1503 73.6359 61.7549L74.5857 61.5258L75.452 58.0645H79.3842L80.2505 61.5258L81.2003 61.7549C82.8313 62.1487 84.3843 62.7937 85.8184 63.671L86.6524 64.1806L89.7136 62.3424L92.4952 65.124L90.6571 68.186L91.1666 69.0192C92.0439 70.4549 92.6873 72.0079 93.0827 73.6374L93.3119 74.5871L96.7731 75.4534V79.3856Z" fill="#3F3F45"/>
</svg>
