<svg width="95" height="100" viewBox="0 0 95 100" fill="none" xmlns="http://www.w3.org/2000/svg">
<path d="M68.6021 38.8998C67.8508 38.5963 66.9957 38.9592 66.6922 39.7105C66.2955 40.6928 65.5617 41.5109 64.6264 42.0143C62.6842 43.059 61.1527 44.1439 59.7094 45.4611C58.798 46.2689 57.9492 47.1516 57.1762 48.0947C56.3012 47.0209 55.3147 46.0344 54.268 45.1289C52.9738 43.9816 51.4881 42.9629 49.7258 42.0145C48.199 41.1928 47.2824 39.6055 47.3336 37.8719C47.4035 35.5023 49.3127 33.5693 51.6799 33.4709C53.3731 33.4045 54.9518 34.2658 55.8037 35.7281C56.0873 36.215 56.6131 36.5176 57.176 36.5176C57.7389 36.5176 58.2646 36.2152 58.5482 35.7281C59.4 34.2656 60.9775 33.4043 62.6717 33.4709C63.6186 33.5102 64.517 33.8438 65.2699 34.4357C65.907 34.9361 66.8295 34.8256 67.3301 34.1885C67.8309 33.5514 67.7201 32.6291 67.083 32.1283C66.1049 31.3596 64.9752 30.8568 63.7734 30.6461V5.37969C63.7738 2.41348 61.3605 0 58.3941 0H5.37969C2.41328 0 0 2.41348 0 5.37969V19.2744C0 20.0848 0.656836 20.7416 1.46719 20.7416C2.27754 20.7416 2.93438 20.0848 2.93438 19.2744V15.9922H60.8395V30.7125C59.4502 31.0232 58.1801 31.725 57.1762 32.735C55.7162 31.266 53.6912 30.4502 51.5586 30.5389C47.66 30.7006 44.5158 33.8836 44.4008 37.7848C44.3166 40.6359 45.8242 43.2465 48.3354 44.598C49.8953 45.4377 51.1992 46.3295 52.3219 47.3244C53.6301 48.4428 54.8063 49.7227 55.8031 51.1254C56.1234 51.5594 56.6369 51.8188 57.1764 51.8188C57.7158 51.8188 58.2293 51.5596 58.5496 51.1254L58.8195 50.7598C59.4309 49.9314 60.108 49.1492 60.8396 48.4236V83.225H2.93438V26.3656C2.93438 25.5553 2.27754 24.8984 1.46719 24.8984C0.656836 24.8984 0 25.5553 0 26.3656V94.6199C0 97.5861 2.41328 99.9996 5.37969 99.9996H43.2156C44.026 99.9996 44.6828 99.3428 44.6828 98.5324C44.6828 97.7221 44.026 97.0652 43.2156 97.0652H5.37969C4.03125 97.0652 2.93438 95.9684 2.93438 94.6199V86.1594H60.8395V94.6199C60.8395 95.9684 59.7426 97.0652 58.3941 97.0652H50.6248C49.8145 97.0652 49.1576 97.7221 49.1576 98.5324C49.1576 99.3428 49.8145 99.9996 50.6248 99.9996H58.3941C61.3605 99.9996 63.7738 97.5861 63.7738 94.6199V45.9637C64.4594 45.4895 65.2027 45.0363 66.0174 44.5979C67.5545 43.7705 68.7604 42.425 69.4131 40.8094C69.7166 40.0584 69.3535 39.2033 68.6021 38.8998ZM2.93438 13.0578V5.37969C2.93438 4.03125 4.03125 2.93438 5.37969 2.93438H58.3941C59.7426 2.93438 60.8395 4.03125 60.8395 5.37969V13.0578H2.93438Z" fill="#3F3F45"/>
<path d="M31.8865 93.4322C32.9457 93.4322 33.8043 92.5736 33.8043 91.5145C33.8043 90.4553 32.9457 89.5967 31.8865 89.5967C30.8274 89.5967 29.9688 90.4553 29.9688 91.5145C29.9688 92.5736 30.8274 93.4322 31.8865 93.4322Z" fill="#3F3F45"/>
<path d="M36.4482 6.5498H27.3246C26.5143 6.5498 25.8574 7.20664 25.8574 8.01699C25.8574 8.82734 26.5143 9.48418 27.3246 9.48418H36.4482C37.2586 9.48418 37.9154 8.82734 37.9154 8.01699C37.9154 7.20664 37.2586 6.5498 36.4482 6.5498Z" fill="#3F3F45"/>
<path d="M21.3623 9.48096C22.1708 9.48096 22.8262 8.82556 22.8262 8.01709C22.8262 7.20862 22.1708 6.55322 21.3623 6.55322C20.5538 6.55322 19.8984 7.20862 19.8984 8.01709C19.8984 8.82556 20.5538 9.48096 21.3623 9.48096Z" fill="#3F3F45"/>
<path d="M78.7287 27.9501C84.5131 27.9501 89.2191 23.2442 89.2191 17.4597C89.2191 11.6751 84.5131 6.96924 78.7287 6.96924C72.9443 6.96924 68.2383 11.6751 68.2383 17.4597C68.2383 23.2442 72.9441 27.9501 78.7287 27.9501ZM78.7287 9.90361C82.8951 9.90361 86.2848 13.2933 86.2848 17.4597C86.2848 21.6261 82.8951 25.0157 78.7287 25.0157C74.5623 25.0157 71.1727 21.6261 71.1727 17.4597C71.1727 13.2933 74.5623 9.90361 78.7287 9.90361Z" fill="#3F3F45"/>
<path d="M94.71 55.0685C94.71 54.1679 94.4281 53.4701 94.1088 52.9683C94.3768 52.3 94.4547 51.5674 94.3279 50.8365C94.1455 49.7855 93.5609 48.8736 92.682 48.2683C92.0424 47.8279 91.2941 47.5953 90.5176 47.5953C90.5139 47.5953 90.5104 47.5953 90.5066 47.5953C89.7215 47.5976 87.4891 47.6013 86.0066 47.6037C86.052 47.2527 86.0937 46.8982 86.1262 46.543C86.2578 45.0976 86.2723 43.2168 85.2043 41.4846C83.984 39.5053 81.9053 38.7441 79.7791 39.498C78.8611 39.8244 78.3746 40.5865 78.4779 41.5373C78.5885 42.5572 78.7123 43.7609 78.7908 44.9549C78.7984 45.0705 78.7791 45.1666 78.7758 45.1787C78.1551 46.3853 76.1082 50.2736 75.7213 51.0148C74.4119 51.0228 73.8313 51.0123 73.1311 51.0019C72.458 50.989 71.8154 51.2513 71.3334 51.7275C70.8514 52.2037 70.5859 52.839 70.5859 53.5164V62.4246C70.5859 63.1015 70.8514 63.7369 71.3332 64.2129C71.8076 64.6816 72.4338 64.9387 73.1025 64.9387C73.1131 64.9387 73.1238 64.9387 73.1342 64.9385C73.8266 64.9283 86.9467 64.9295 88.591 64.9133C89.6066 64.9031 90.5789 64.456 91.2584 63.6869C91.9041 62.9562 92.2312 62.0033 92.1697 61.0484C93.3555 60.157 93.716 58.7978 93.6359 57.5896C94.1553 57.0797 94.71 56.2566 94.71 55.0685ZM91.4053 55.6371C90.7939 56.0271 90.4949 56.7637 90.6613 57.4693C90.9096 58.5244 90.3514 58.7619 90.142 58.8512C89.3602 59.1834 88.9373 60.0521 89.1586 60.8715C89.3502 61.3681 89.192 61.9209 88.5619 61.9793C86.9324 61.9957 74.5795 61.9945 73.5203 62.001V53.942C74.1971 53.9492 74.9221 53.9506 76.4629 53.9494C77.1043 53.9494 77.6863 53.5959 77.9828 53.026C78.4795 52.0689 80.7578 47.7404 81.3852 46.5217C81.732 45.8472 81.7432 45.1299 81.7189 44.7623C81.6598 43.8638 81.5772 42.9685 81.4928 42.1457C81.8861 42.1765 82.3156 42.3912 82.7064 43.0252C83.1977 43.8219 83.3418 44.7638 83.2039 46.2767C83.1521 46.8429 83.0728 47.4148 82.9891 48.0201C82.6281 49.1724 83.2875 50.5629 84.6092 50.5404C84.6092 50.5404 89.2988 50.5336 90.5152 50.5299C91.2773 50.5144 91.7217 51.4947 91.2713 52.0847C90.7383 52.8002 90.8447 53.806 91.5174 54.3957C91.6389 54.5195 91.7756 54.7332 91.7756 55.0685C91.7756 55.3433 91.5746 55.5291 91.4053 55.6371Z" fill="#3F3F45"/>
<path d="M11.9303 33.1503C11.9213 33.1503 11.9121 33.1503 11.9031 33.1503C10.6164 33.1503 10.0354 33.1476 9.34004 33.1374C8.65605 33.124 8.02441 33.3867 7.54238 33.863C7.06035 34.3392 6.79492 34.9746 6.79492 35.6517V44.5599C6.79492 45.2371 7.06035 45.8724 7.54219 46.3484C8.0168 46.8171 8.64277 47.0742 9.31172 47.0742C9.32227 47.0742 9.33301 47.0742 9.34336 47.074C10.0371 47.0638 23.1588 47.065 24.8 47.0488C25.8156 47.0386 26.7877 46.5915 27.4672 45.8224C28.1129 45.0915 28.4402 44.1384 28.3787 43.1839C29.5645 42.2925 29.9248 40.9335 29.8449 39.7253C30.3643 39.215 30.9189 38.3917 30.9189 37.2037C30.9189 36.3015 30.6361 35.6031 30.318 35.1029C30.5857 34.4345 30.6637 33.7023 30.5367 32.9716C30.3543 31.9206 29.7697 31.0087 28.8908 30.4035C28.2512 29.963 27.5029 29.7304 26.7264 29.7304C26.7227 29.7304 26.7191 29.7304 26.7154 29.7304C25.9303 29.7328 23.6977 29.7365 22.2152 29.7388C22.2607 29.3878 22.3025 29.0333 22.3348 28.6781C22.4666 27.2328 22.4811 25.3521 21.4131 23.6199C20.1926 21.6402 18.1141 20.8789 15.9889 21.6328C15.0703 21.9583 14.5834 22.7206 14.6865 23.6724C14.7969 24.69 14.9205 25.8915 14.9994 27.0898C15.007 27.2054 14.9877 27.3015 14.9844 27.3136C14.3627 28.5234 12.316 32.4113 11.9303 33.1503ZM17.5939 28.6566C17.9408 27.9822 17.952 27.2648 17.9277 26.8972C17.8684 25.9962 17.7857 25.1017 17.7018 24.2806C18.0949 24.3115 18.5244 24.5261 18.9154 25.1601C19.4066 25.9568 19.5508 26.899 19.4129 28.4117C19.3611 28.9765 19.282 29.5474 19.1984 30.1517C18.8369 31.3052 19.4941 32.6976 20.818 32.6755C20.818 32.6755 25.5076 32.6687 26.724 32.665C26.8977 32.6626 27.0781 32.7181 27.2266 32.8205V32.8206C27.6783 33.1163 27.7986 33.7841 27.4816 34.2177C26.948 34.9314 27.0523 35.9357 27.7248 36.5296C28.0428 36.7583 28.0889 37.5933 27.6141 37.7722C27.0027 38.1622 26.7037 38.8988 26.8701 39.6042C27.1184 40.6595 26.5602 40.897 26.3508 40.9863C25.5693 41.3181 25.1465 42.1865 25.3676 43.0074C25.5592 43.5037 25.4002 44.056 24.7709 44.1144C23.1445 44.1306 10.7908 44.1294 9.7293 44.1361V36.0771C10.4059 36.0843 11.1307 36.0857 12.6719 36.0845C13.3139 36.0845 13.8963 35.7306 14.1918 35.1613C14.6873 34.2064 16.9656 29.8781 17.5939 28.6566Z" fill="#3F3F45"/>
<path d="M75.959 17.5613C76.7457 17.3754 77.2327 16.5869 77.0467 15.8003C76.8608 15.0136 76.0723 14.5267 75.2857 14.7126C74.499 14.8986 74.0121 15.687 74.198 16.4737C74.384 17.2603 75.1724 17.7473 75.959 17.5613Z" fill="#3F3F45"/>
<path d="M82.8431 17.2019C83.4147 16.6304 83.4147 15.7036 82.8431 15.132C82.2715 14.5605 81.3448 14.5604 80.7732 15.132C80.2016 15.7036 80.2016 16.6304 80.7732 17.2019C81.3448 17.7735 82.2715 17.7735 82.8431 17.2019Z" fill="#3F3F45"/>
<path d="M78.7277 23.2425C79.5482 23.2425 80.2133 22.5774 80.2133 21.7569V20.1491C80.2133 19.3286 79.5482 18.6636 78.7277 18.6636C77.9072 18.6636 77.2422 19.3286 77.2422 20.1491V21.7569C77.2422 22.5774 77.9072 23.2425 78.7277 23.2425Z" fill="#3F3F45"/>
<path d="M36.5409 46.6138C32.9412 46.6138 29.76 48.4366 27.87 51.2073C26.8453 51.5855 25.92 52.1817 25.1569 52.9485C23.6967 51.4788 21.6715 50.6622 19.5383 50.7519C15.6397 50.9134 12.4955 54.0962 12.3803 57.9978C12.2961 60.8487 13.8037 63.4593 16.3149 64.811C17.8744 65.6503 19.1785 66.5421 20.3012 67.5372C21.6096 68.6558 22.7858 69.9358 23.7828 71.3386C24.1032 71.7724 24.6162 72.0315 25.1555 72.0317H25.1559C25.695 72.0315 26.2082 71.773 26.5295 71.338L26.7989 70.9726C27.3532 70.2216 27.9623 69.5091 28.6164 68.8415C29.0385 71.0149 30.4032 72.9048 32.4135 73.987C33.9733 74.8263 35.2772 75.7181 36.3998 76.7132C37.7082 77.8319 38.8848 79.1122 39.8817 80.5151C40.202 80.9487 40.7153 81.2075 41.2543 81.2075C41.7936 81.2075 42.3067 80.9489 42.628 80.514C43.6246 79.1112 44.801 77.8314 46.1088 76.7134C47.2313 75.7185 48.5352 74.8265 50.0952 73.9868C52.6065 72.6353 54.1141 70.0245 54.0297 67.1733C53.9143 63.2718 50.7702 60.089 46.8717 59.9276C46.7954 59.9243 46.7194 59.9239 46.6432 59.923C46.894 59.0253 47.0311 58.0806 47.0311 57.104C47.0313 51.3196 42.3254 46.6138 36.5409 46.6138ZM36.5409 49.5481C40.7073 49.5481 44.0969 52.9378 44.0969 57.1042C44.0969 61.2706 40.7073 64.6603 36.5409 64.6603C32.3744 64.6603 28.9848 61.2706 28.9848 57.1042C28.9848 52.9378 32.3744 49.5481 36.5409 49.5481ZM27.6893 65.6737C26.778 66.4815 25.9291 67.364 25.1559 68.3073C24.2809 67.2335 23.2946 66.2466 22.2477 65.3413C20.9532 64.1937 19.4674 63.1751 17.7055 62.2272C16.1787 61.4054 15.2621 59.8179 15.3133 58.0843C15.3832 55.7146 17.2924 53.7817 19.6598 53.6835C21.3518 53.6118 22.9317 54.4782 23.7836 55.9405C24.0672 56.4274 24.593 56.73 25.1559 56.73C25.4897 56.73 25.8092 56.6214 26.0743 56.4333C26.0602 56.6554 26.0504 56.8788 26.0504 57.1044C26.0504 59.9724 27.2231 62.5899 29.0946 64.4856L29.0791 64.4966C29.0791 64.4966 28.3793 65.062 28.0637 65.3417L27.6893 65.6737ZM46.7504 62.8595C49.1176 62.9575 51.0268 64.8903 51.0969 67.2601C51.1483 68.9939 50.2317 70.5812 48.7047 71.4028C46.7625 72.4472 45.2313 73.5327 43.7877 74.8497C42.8762 75.6577 42.0276 76.5401 41.2545 77.4833C40.4817 76.5405 39.6329 75.6579 38.7211 74.8497C37.278 73.5327 35.7455 72.447 33.8043 71.4032C32.2776 70.5815 31.361 68.994 31.4121 67.2603C31.4215 66.9409 31.4659 66.6286 31.5405 66.3243C33.0278 67.1343 34.7317 67.5948 36.5411 67.5948C40.1077 67.5948 43.2625 65.8042 45.1588 63.0763C45.6698 62.9108 46.2045 62.837 46.7504 62.8595Z" fill="#3F3F45"/>
<path d="M33.7911 57.2058C34.5777 57.0199 35.0647 56.2315 34.8787 55.4448C34.6928 54.6582 33.9043 54.1712 33.1177 54.3572C32.3311 54.5431 31.8441 55.3315 32.03 56.1182C32.216 56.9048 33.0044 57.3918 33.7911 57.2058Z" fill="#3F3F45"/>
<path d="M40.6556 56.8382C41.2272 56.2666 41.2272 55.3399 40.6556 54.7683C40.0841 54.1967 39.1573 54.1967 38.5857 54.7683C38.0141 55.3399 38.0141 56.2666 38.5857 56.8382C39.1573 57.4098 40.0841 57.4098 40.6556 56.8382Z" fill="#3F3F45"/>
<path d="M36.5402 62.887C37.3607 62.887 38.0258 62.222 38.0258 61.4015V59.7937C38.0258 58.9731 37.3607 58.3081 36.5402 58.3081C35.7197 58.3081 35.0547 58.9731 35.0547 59.7937V61.4015C35.0547 62.222 35.7197 62.887 36.5402 62.887Z" fill="#3F3F45"/>
</svg>
