<svg width="94" height="100" viewBox="0 0 94 100" fill="none" xmlns="http://www.w3.org/2000/svg">
<path d="M84.4303 68.4342H81.5641C81.8211 67.5768 81.9539 66.6795 81.9539 65.7604V9.28262C81.9539 4.16426 77.7896 0 72.6713 0H9.28262C4.16426 0 0 4.16426 0 9.28262V26.9355C0 27.7449 0.65625 28.4012 1.46562 28.4012C2.275 28.4012 2.93125 27.7449 2.93125 26.9355V20.2027H48.8217C49.6311 20.2027 50.2873 19.5465 50.2873 18.7371C50.2873 17.9277 49.6311 17.2715 48.8217 17.2715H2.93125V9.28262C2.93125 5.78047 5.78047 2.93125 9.28262 2.93125H72.6713C76.1734 2.93125 79.0227 5.78047 79.0227 9.28262V17.2715H67.6131V15.0777C67.6131 13.4074 66.2543 12.0486 64.584 12.0486H61.6537C59.9131 12.0486 58.3584 13.0877 57.6928 14.6961C55.6213 19.7004 50.7832 22.9342 45.367 22.9342H21.6199C18.6566 22.9342 16.2457 25.3451 16.2457 28.3084V29.3236H12.0727C9.13262 29.3236 6.74082 31.7154 6.74082 34.6555C6.74082 37.5955 9.13262 39.9873 12.0727 39.9873H16.2459V41.0023C16.2459 43.9656 18.6568 46.3766 21.6201 46.3766H25.1219L27.6859 51.25C28.0645 51.9734 28.9637 52.2381 29.6654 51.8646C30.3818 51.4877 30.657 50.6014 30.2801 49.8852L28.4342 46.3768H39.5961L39.0947 51.8146C38.7486 55.5676 40.1984 59.3309 42.973 61.8816L43.4809 62.3484C42.4672 63.567 41.8564 65.132 41.8564 66.8371V67.134L40.2486 67.8504C40.0143 67.9549 39.7369 67.859 39.6176 67.6316L33.3539 55.7271C32.977 55.0107 32.0906 54.7355 31.3744 55.1125C30.658 55.4895 30.3828 56.3758 30.7598 57.092L37.0232 68.9965C37.6311 70.152 38.8227 70.8656 40.0572 70.8231C41.0426 70.7891 41.8564 70.3434 41.8564 70.3434V72.1123H9.28262C5.78047 72.1123 2.93125 69.2631 2.93125 65.7609V34.1201C2.93125 33.3107 2.275 32.6545 1.46562 32.6545C0.65625 32.6545 0 33.3107 0 34.1201V65.7605C0 70.8791 4.16426 75.0432 9.28262 75.0432H41.8563V84.3436C41.8563 88.2197 45.0098 91.373 48.8857 91.373H57.9777V92.9705C57.9777 96.8467 61.1313 100 65.0072 100H84.4301C88.3063 100 91.4596 96.8465 91.4596 92.9705V75.4639C91.4598 71.5875 88.3064 68.4342 84.4303 68.4342ZM88.5285 75.4637V77.866H75.3383V71.3654H84.4303C86.69 71.3654 88.5285 73.2039 88.5285 75.4637ZM44.7877 66.8367C44.7877 64.577 46.6262 62.7387 48.8859 62.7387H68.3088C70.5686 62.7387 72.407 64.5771 72.407 66.8367V69.2391H44.7879V66.8367H44.7877ZM67.6131 28.4072C70.9527 28.5314 73.6318 31.2857 73.6318 34.6551C73.6318 38.0244 70.9527 40.7787 67.6131 40.9029V28.4072ZM60.4014 15.817C60.6119 15.3086 61.1033 14.9801 61.6537 14.9801H64.584C64.6379 14.9801 64.6816 15.0238 64.6816 15.0777V54.2326C64.6816 54.2865 64.6379 54.3303 64.584 54.3303H61.6537C61.1033 54.3303 60.6117 54.0018 60.4014 53.4932C57.8748 47.3891 51.9736 43.4447 45.3672 43.4447H39.6883V25.8652H45.3672C51.9734 25.8654 57.8748 21.9211 60.4014 15.817ZM12.0727 37.0557C10.749 37.0557 9.67227 35.9789 9.67227 34.6553C9.67227 33.3316 10.749 32.2549 12.0727 32.2549H16.2459V37.0559H12.0727V37.0557ZM19.1773 41.0021V28.3082C19.1773 26.9611 20.2732 25.8654 21.6201 25.8654H30.5777V43.4451H21.6201C20.273 43.4449 19.1773 42.349 19.1773 41.0021ZM33.5092 43.4449V25.8652H36.7568V43.4447H33.5092V43.4449ZM45.3672 46.3764C50.7834 46.3764 55.6215 49.61 57.693 54.6145C58.3586 56.2227 59.9133 57.2619 61.6539 57.2619H64.5842C66.2545 57.2619 67.6133 55.9031 67.6133 54.2328V43.8348C72.5695 43.7092 76.5635 39.6414 76.5635 34.6555C76.5635 29.6695 72.5695 25.6018 67.6133 25.4762V20.2031H79.0229V65.7607C79.0229 66.6998 78.8176 67.6041 78.4307 68.4346H75.3387V66.8371C75.3387 62.9609 72.1852 59.8076 68.3092 59.8076H48.8863C47.7865 59.8076 46.7451 60.0621 45.8172 60.5143L44.957 59.7236C44.6143 59.4086 44.3012 59.0668 44.0131 58.707C45.9939 57.9314 47.4012 56.0027 47.4012 53.7502C47.4012 50.9064 45.1594 48.5766 42.3502 48.435L42.54 46.3768H45.3672V46.3764ZM42.5438 56.0943C42.0793 54.824 41.8873 53.4533 42.0137 52.0834L42.0805 51.3592C43.398 51.36 44.4697 52.432 44.4697 53.7498C44.4697 54.9088 43.6402 55.8771 42.5438 56.0943ZM44.7877 84.3436V72.1705H72.4068V84.3436C72.4068 86.6033 70.5684 88.4418 68.3086 88.4418H48.8857C46.6262 88.4416 44.7877 86.6033 44.7877 84.3436ZM84.4303 97.0686H65.0074C62.7477 97.0686 60.9094 95.2301 60.9094 92.9703V91.3729H64.7191C64.7098 91.4397 64.7033 91.5072 64.7033 91.5766C64.7033 92.3861 65.3596 93.0422 66.1689 93.0422H83.5164C84.3258 93.0422 84.982 92.3859 84.982 91.5766C84.982 90.7672 84.3258 90.1109 83.5164 90.1109H72.3201C73.4195 89.3439 74.2902 88.2719 74.8082 87.0176H83.5162C84.3256 87.0176 84.9818 86.3613 84.9818 85.552C84.9818 84.7426 84.3256 84.0863 83.5162 84.0863H75.3379V80.7975H88.5281V92.9705C88.5285 95.2303 86.69 97.0686 84.4303 97.0686Z" fill="#3F3F45"/>
<path d="M8.38672 10.2333C8.38672 12.7698 10.4504 14.8334 12.9869 14.8334C15.5234 14.8334 17.5871 12.7698 17.5871 10.2333C17.5871 7.69673 15.5234 5.63306 12.9869 5.63306C10.4504 5.63306 8.38672 7.69673 8.38672 10.2333ZM14.6559 10.2333C14.6559 11.1534 13.9072 11.902 12.9871 11.902C12.067 11.902 11.3184 11.1534 11.3184 10.2333C11.3184 9.31313 12.067 8.5645 12.9871 8.5645C13.9072 8.5645 14.6559 9.31294 14.6559 10.2333Z" fill="#3F3F45"/>
<path d="M23.8113 8.96094C23.002 8.96094 22.3457 9.61719 22.3457 10.4266C22.3457 11.2359 23.002 11.8922 23.8113 11.8922H35.5418C36.3512 11.8922 37.0074 11.2359 37.0074 10.4266C37.0074 9.61719 36.3512 8.96094 35.5418 8.96094H23.8113Z" fill="#3F3F45"/>
<path d="M41.782 8.96094C40.9727 8.96094 40.3164 9.61719 40.3164 10.4266C40.3164 11.2359 40.9727 11.8922 41.782 11.8922H46.0295C46.8389 11.8922 47.4951 11.2359 47.4951 10.4266C47.4951 9.61719 46.8389 8.96094 46.0295 8.96094H41.782Z" fill="#3F3F45"/>
<path d="M92.3391 34.5579H86.5984C85.7891 34.5579 85.1328 35.2141 85.1328 36.0235C85.1328 36.8329 85.7891 37.4891 86.5984 37.4891H92.3391C93.1484 37.4891 93.8047 36.8329 93.8047 36.0235C93.8047 35.2141 93.1484 34.5579 92.3391 34.5579Z" fill="#3F3F45"/>
<path d="M86.599 25.6734C86.9404 25.6734 87.2834 25.5548 87.5609 25.313L91.8408 21.5865C92.4514 21.055 92.5154 20.1291 91.9838 19.5187C91.4523 18.9082 90.5264 18.8441 89.916 19.3757L85.6361 23.1023C85.0256 23.6337 84.9615 24.5597 85.4932 25.1701C85.7828 25.5031 86.1898 25.6734 86.599 25.6734Z" fill="#3F3F45"/>
<path d="M91.8408 50.4595L87.5609 46.7329C86.9506 46.2013 86.0246 46.2653 85.4932 46.8759C84.9615 47.4862 85.0256 48.4122 85.6361 48.9436L89.916 52.6702C90.1936 52.912 90.5365 53.0305 90.8779 53.0305C91.2871 53.0305 91.6941 52.86 91.9838 52.5272C92.5152 51.9169 92.4514 50.9909 91.8408 50.4595Z" fill="#3F3F45"/>
<path d="M68.8607 76.9253C68.8607 76.116 68.2045 75.4597 67.3951 75.4597H50.0477C49.2383 75.4597 48.582 76.116 48.582 76.9253C48.582 77.7347 49.2383 78.391 50.0477 78.391H67.3951C68.2047 78.391 68.8607 77.7349 68.8607 76.9253Z" fill="#3F3F45"/>
<path d="M61.2602 81.4839H50.0477C49.2383 81.4839 48.582 82.1401 48.582 82.9495C48.582 83.7591 49.2383 84.4151 50.0477 84.4151H61.2602C62.0695 84.4151 62.7258 83.7589 62.7258 82.9495C62.7258 82.1401 62.0695 81.4839 61.2602 81.4839Z" fill="#3F3F45"/>
</svg>
