<svg width="97" height="97" viewBox="0 0 97 97" fill="none" xmlns="http://www.w3.org/2000/svg">
<path d="M18.75 68.75H15.625V71.875C13.0406 71.875 10.9375 73.9781 10.9375 76.5625C10.9375 79.1469 13.0406 81.25 15.625 81.25H18.75C19.6125 81.25 20.3125 81.9516 20.3125 82.8125C20.3125 83.6734 19.6125 84.375 18.75 84.375H14.0625V82.8125H10.9375V87.5H15.625V90.625H18.75V87.5C21.3344 87.5 23.4375 85.3969 23.4375 82.8125C23.4375 80.2281 21.3344 78.125 18.75 78.125H15.625C14.7625 78.125 14.0625 77.4234 14.0625 76.5625C14.0625 75.7016 14.7625 75 15.625 75H20.3125V76.5625H23.4375V71.875H18.75V68.75Z" fill="#3F3F45"/>
<path d="M78.125 43.75H81.25V40.625C83.8344 40.625 85.9375 38.5219 85.9375 35.9375C85.9375 33.3531 83.8344 31.25 81.25 31.25H78.125C77.2625 31.25 76.5625 30.5484 76.5625 29.6875C76.5625 28.8266 77.2625 28.125 78.125 28.125H82.8125V29.6875H85.9375V25H81.25V21.875H78.125V25C75.5406 25 73.4375 27.1031 73.4375 29.6875C73.4375 32.2719 75.5406 34.375 78.125 34.375H81.25C82.1125 34.375 82.8125 35.0766 82.8125 35.9375C82.8125 36.7984 82.1125 37.5 81.25 37.5H76.5625V35.9375H73.4375V40.625H78.125V43.75Z" fill="#3F3F45"/>
<path d="M79.6875 50C89.1641 50 96.875 42.2891 96.875 32.8125C96.875 23.3359 89.1641 15.625 79.6875 15.625C70.2109 15.625 62.5 23.3359 62.5 32.8125C62.5 42.2891 70.2109 50 79.6875 50ZM79.6875 18.75C87.4422 18.75 93.75 25.0594 93.75 32.8125C93.75 40.5656 87.4422 46.875 79.6875 46.875C71.9328 46.875 65.625 40.5656 65.625 32.8125C65.625 25.0594 71.9328 18.75 79.6875 18.75Z" fill="#3F3F45"/>
<path d="M79.6875 56.25H91.5406L71.875 75.9156L64.0625 68.1031L52.9953 79.1703L39.0047 68.2891L33.1656 73.3984C31.9203 70.2453 29.7734 67.55 27.0375 65.6266H56.25V58.5875C56.25 52.8109 52.6281 47.5359 47.2359 45.4625L35.6922 41.0234L34.7266 37.1594C37.4062 35.4828 39.4016 32.8266 40.2125 29.6891H40.625C44.0719 29.6891 46.875 26.8859 46.875 23.4391C46.875 22.2047 46.5031 21.0594 45.8828 20.0875C46.5312 17.5234 46.875 14.8922 46.875 12.2469V9.81094L43.0609 8.53906L46.1188 3.95156L42.1562 2.36875C38.2297 0.796875 34.0938 0 29.8625 0H25.075C21.6516 0 18.3359 1.00469 15.4828 2.90313C11.6578 5.45312 9.375 9.72031 9.375 14.3187C9.375 16.2078 9.79375 18.0891 10.55 19.8172C9.81719 20.8406 9.375 22.0859 9.375 23.4375C9.375 26.8844 12.1781 29.6875 15.625 29.6875H16.0359C16.8484 32.8234 18.8422 35.4813 21.5219 37.1562L20.5562 41.0203L9.0125 45.4594C3.62188 47.5328 0 52.8078 0 58.5859V65.625H7.33594C2.90781 68.7375 0 73.875 0 79.6875C0 89.1641 7.71094 96.875 17.1875 96.875H96.875V93.75H87.5V64.7094L93.75 58.4594V70.3125H96.875V53.125H79.6875V56.25ZM75 77.2094V93.75H68.75V77.2094L71.875 80.3344L75 77.2094ZM65.625 74.0844V93.75H59.375V77.2094L64.0625 72.5219L65.625 74.0844ZM53.2547 83.3313L56.25 80.3344V93.75H50V80.7984L53.2547 83.3313ZM40.625 73.5078L46.875 78.3687V93.75H40.625V73.5078ZM40.625 26.5625V20.3125C42.3484 20.3125 43.75 21.7141 43.75 23.4375C43.75 25.1609 42.3484 26.5625 40.625 26.5625ZM15.625 26.5625C13.9016 26.5625 12.5 25.1609 12.5 23.4375C12.5 21.7141 13.9016 20.3125 15.625 20.3125V26.5625ZM16.0156 17.1875H15.625C14.7172 17.1875 13.8594 17.3922 13.0797 17.7422C12.7031 16.6406 12.5 15.4797 12.5 14.3187C12.5 10.7687 14.2641 7.47344 17.2172 5.50469C19.5531 3.94687 22.2703 3.125 25.075 3.125H29.8625C33.6937 3.125 37.4406 3.84688 40.9969 5.27031L41.3812 5.42344L38.1891 10.2109L43.75 12.0641V12.2469C43.75 14.1 43.5625 15.9469 43.2094 17.7625C42.4188 17.4016 41.5484 17.1875 40.625 17.1875H40.2344C39.8984 16.1969 39.3656 15.2797 38.6047 14.5187C37.3016 13.2172 35.5703 12.5 33.7281 12.5H22.5219C20.6797 12.5 18.9484 13.2172 17.6453 14.5187C16.8844 15.2797 16.3516 16.1969 16.0156 17.1875ZM18.75 26.5625V19.3984C18.75 18.3906 19.1422 17.4438 19.8547 16.7313C20.5672 16.0172 21.5156 15.625 22.5219 15.625H33.7281C34.7359 15.625 35.6828 16.0172 36.3953 16.7313C37.1078 17.4422 37.5 18.3891 37.5 19.3969V26.5625C37.5 31.7313 33.2953 35.9375 28.1266 35.9375C22.9562 35.9375 18.75 31.7313 18.75 26.5625ZM28.1266 39.0625C29.4203 39.0625 30.6687 38.8641 31.8437 38.4984L32.7437 42.0984C32.0219 44.025 30.1953 45.3125 28.125 45.3125C26.0562 45.3125 24.2297 44.025 23.5078 42.0953L24.4063 38.4969C25.5828 38.8641 26.8312 39.0625 28.1266 39.0625ZM3.125 62.5V58.5859C3.125 54.0938 5.94219 49.9906 10.1359 48.3766L21.0266 44.1875C22.4125 46.7734 25.1156 48.4375 28.125 48.4375C31.1359 48.4375 33.8391 46.7719 35.225 44.1875L46.1141 48.3766C50.3078 49.9891 53.125 54.0922 53.125 58.5859V62.5H3.125ZM3.125 79.6875C3.125 71.9344 9.43281 65.625 17.1875 65.625C24.9422 65.625 31.25 71.9344 31.25 79.6875C31.25 87.4406 24.9422 93.75 17.1875 93.75C9.43281 93.75 3.125 87.4406 3.125 79.6875ZM34.375 79.6875C34.375 78.6766 34.2703 77.6922 34.1016 76.7297L37.5 73.7547V93.75H27.0391C31.4672 90.6375 34.375 85.5 34.375 79.6875ZM84.375 93.75H78.125V74.0844L84.375 67.8344V93.75Z" fill="#3F3F45"/>
</svg>
