<svg width="112" height="82" viewBox="0 0 112 82" fill="none" xmlns="http://www.w3.org/2000/svg">
<path d="M98.5484 36.9117C94.7475 35.0115 87.6213 34.9895 87.3198 34.9895C86.4162 34.9895 85.6836 35.7221 85.6836 36.6257C85.6836 37.5293 86.4162 38.2619 87.3198 38.2619C89.1587 38.2621 94.4978 38.5453 97.0849 39.8388C97.3199 39.9564 97.5695 40.0118 97.8153 40.0118C98.4155 40.0118 98.9934 39.6802 99.2801 39.1071C99.6843 38.2988 99.3566 37.316 98.5484 36.9117Z" fill="#3F3F45"/>
<path d="M106.705 60.2071L99.9478 58.2764C99.6562 58.193 99.4524 57.923 99.4524 57.6195V55.3639C100.002 54.983 100.527 54.5567 101.017 54.0809C103.393 51.7754 104.701 48.6829 104.701 45.373V42.2605L105.354 40.9539C106.071 39.5195 106.45 37.9136 106.45 36.3101V27.8782C106.45 26.9746 105.718 26.242 104.814 26.242H89.0688C83.3434 26.242 78.6852 30.9002 78.6852 36.6256V36.7231C78.6852 38.0565 79.0004 39.3919 79.5966 40.5844L80.4346 42.2603V44.9328C80.4346 49.1681 82.5218 52.9683 85.6831 55.2551L85.6836 57.6191C85.6836 57.9836 85.6836 58.1346 84.3325 58.5207L81.0352 59.4627L71.497 55.9944C71.5312 55.5443 71.3794 55.0866 71.051 54.7417L68.0031 51.5396V46.1641C68.3253 45.8985 68.643 45.6258 68.9508 45.3374C72.7959 41.7334 75.0011 36.645 75.0011 31.3771V27.0841C76.1621 24.5576 76.7505 21.884 76.7505 19.1306V1.63621C76.7505 0.732586 76.0179 0 75.1143 0H50.6215C42.002 0 34.9896 7.01258 34.9896 15.6319V19.131C34.9896 21.8844 35.578 24.558 36.739 27.0845V30.7782C36.739 36.8946 39.4586 42.4049 43.737 46.0377V51.5398L40.6891 54.7419C40.3607 55.0869 40.2089 55.5446 40.2432 55.9946L30.1761 59.6552C29.4466 59.9204 28.7687 60.2798 28.1533 60.715L26.5725 59.9246C31.2782 57.8763 32.7689 54.9954 32.8405 54.8523C33.0709 54.3918 33.0709 53.8494 32.8405 53.3889C31.6609 51.0297 31.518 46.7055 31.4033 43.2311C31.3651 42.0744 31.3289 40.9816 31.2597 40.0086C30.7019 32.1605 24.7356 26.242 17.3814 26.242C10.0271 26.242 4.06064 32.1603 3.50302 40.0086C3.43386 40.9818 3.39765 42.0746 3.35947 43.2315C3.24472 46.7057 3.1016 51.0295 1.92222 53.3887C1.69184 53.8492 1.69184 54.3916 1.92222 54.8521C1.99378 54.9952 3.48142 57.8702 8.19654 59.9209L3.80561 62.1162C1.45819 63.2908 0 65.6502 0 68.2745V80.3626C0 81.2662 0.732586 81.9988 1.63621 81.9988C2.53984 81.9988 3.27242 81.2662 3.27242 80.3626V68.2745C3.27242 66.8975 4.03751 65.6594 5.26904 65.0435L10.7368 62.3097L12.6387 64.1172C13.9687 65.381 15.6747 66.0126 17.3814 66.0126C19.0876 66.0126 20.7945 65.3806 22.124 64.1172L24.0257 62.31L25.8085 63.2014C24.969 64.5446 24.4926 66.1197 24.4926 67.7697V80.363C24.4926 81.2667 25.2251 81.9993 26.1288 81.9993C27.0324 81.9993 27.765 81.2667 27.765 80.363V67.7697C27.765 65.5235 29.1832 63.4985 31.2944 62.7308L41.9084 58.8713L46.3268 65.4993C46.8916 66.3466 47.7968 66.89 48.8101 66.9904C48.9231 67.0015 49.0355 67.007 49.1476 67.007C50.0417 67.007 50.8979 66.6551 51.538 66.0152L54.2336 63.3196V80.3633C54.2336 81.2669 54.9662 81.9995 55.8698 81.9995C56.7735 81.9995 57.5061 81.2669 57.5061 80.3633V63.3196L60.2017 66.0152C60.8415 66.6553 61.6978 67.0072 62.5921 67.0072C62.704 67.0072 62.8165 67.0017 62.9293 66.9906C63.9429 66.8903 64.8481 66.3468 65.4129 65.4995L69.8315 58.8717L80.4453 62.7312C82.5562 63.4989 83.9747 65.5239 83.9747 67.7701V80.3635C83.9747 81.2671 84.7073 81.9997 85.6109 81.9997C86.5146 81.9997 87.2471 81.2671 87.2471 80.3635V67.7701C87.2471 65.4951 86.3433 63.3615 84.8271 61.7835L85.2313 61.6681C85.6391 61.5516 86.1954 61.3922 86.7539 61.1184L90.9314 65.2959V80.3635C90.9314 81.2671 91.664 81.9997 92.5677 81.9997C93.4713 81.9997 94.2039 81.2671 94.2039 80.3635V65.2959L98.3524 61.1474C98.573 61.2595 98.8047 61.3542 99.0486 61.4238L105.806 63.3545C107.349 63.7952 108.426 65.2235 108.426 66.8279V80.3635C108.426 81.2671 109.159 81.9997 110.062 81.9997C110.966 81.9997 111.699 81.2671 111.699 80.3635V66.8279C111.699 63.7697 109.645 61.0472 106.705 60.2071ZM10.4968 57.3171C7.43625 56.2158 5.90105 54.7476 5.24569 53.9459C5.69249 52.7778 5.98221 51.4401 6.17833 50.0279C7.08065 52.1914 8.59185 54.0384 10.4968 55.3561V57.3171ZM19.8701 61.7454C18.4746 63.0714 16.2884 63.0711 14.8932 61.7451L13.3716 60.2992C13.6283 59.8181 13.7695 59.2727 13.7695 58.7014V56.9574C14.9109 57.3141 16.1243 57.5065 17.3818 57.5065C18.6378 57.5065 19.8505 57.3132 20.9939 56.9585L20.9937 58.7011C20.9937 59.2727 21.1346 59.8183 21.3916 60.2996L19.8701 61.7454ZM17.3822 54.2341C12.4963 54.2341 8.52161 50.2592 8.52161 45.3734C8.52161 44.4698 7.78902 43.7372 6.88539 43.7372C6.79377 43.7372 6.70432 43.7466 6.61684 43.7612C6.62164 43.6205 6.62622 43.4796 6.63102 43.3402C6.66745 42.2151 6.70258 41.1524 6.76737 40.241C6.97637 37.301 8.15117 34.5919 10.0754 32.6123C12.0168 30.6148 14.6116 29.5148 17.3818 29.5148C20.152 29.5148 22.7466 30.6148 24.6882 32.6123C26.6124 34.5919 27.7872 37.301 27.9962 40.241C28.0608 41.1522 28.0961 42.2147 28.1332 43.3395C28.1365 43.4362 28.1398 43.5341 28.1431 43.6314C26.3629 40.8887 23.6136 38.8674 20.0613 37.726C16.7795 36.6716 13.9569 36.7369 13.8378 36.7399C13.4093 36.7519 13.0026 36.9312 12.7053 37.2397L9.75313 40.3014C9.12591 40.952 9.14467 41.9878 9.79523 42.615C10.4458 43.2422 11.4816 43.2232 12.1088 42.5729L14.5653 40.0254C16.6808 40.1288 23.4868 40.9203 26.1338 46.7489C25.4677 51.0441 21.776 54.2341 17.3822 54.2341ZM24.2659 57.3226L24.2661 55.3711C26.1696 54.0606 27.6829 52.2172 28.5859 50.0373C28.782 51.4462 29.0715 52.7809 29.5175 53.9463C28.8658 54.7404 27.3234 56.2217 24.2659 57.3226ZM40.0115 30.778V26.7185C40.0115 26.4721 39.9558 26.2289 39.8487 26.007C38.7959 23.8267 38.262 21.5133 38.262 19.131V15.6321C38.262 8.817 43.8066 3.27264 50.6215 3.27264H73.4781V19.1312C73.4781 21.5136 72.9443 23.8269 71.8914 26.0072C71.7843 26.2291 71.7287 26.4724 71.7287 26.7187V31.3775C71.7287 35.8086 69.9474 39.9185 66.7129 42.9503C66.3091 43.3286 65.89 43.6833 65.4567 44.0139C65.4471 44.0204 65.438 44.0276 65.4286 44.0344C62.3985 46.3349 58.6872 47.453 54.8113 47.2019C46.5122 46.6645 40.0115 39.4504 40.0115 30.778ZM49.2242 63.701C49.2129 63.7123 49.1865 63.7391 49.133 63.7335C49.0798 63.7282 49.0588 63.697 49.0499 63.6835L43.9613 56.0505L45.5988 54.3298L53.3184 59.6065L49.2242 63.701ZM55.8701 57.3867L47.0094 51.3301V48.2759C49.3021 49.5152 51.8692 50.2904 54.5995 50.4671C55.0308 50.495 55.4595 50.5087 55.8869 50.5087C59.0155 50.5087 62.0266 49.7609 64.7307 48.3413V51.3301L55.8701 57.3867ZM62.6902 63.6839C62.6813 63.6975 62.6603 63.7287 62.6071 63.7339C62.5537 63.7407 62.5275 63.7125 62.5159 63.7014L58.4217 59.6072L66.1413 54.3303L67.7791 56.0509L62.6902 63.6839ZM92.5677 62.3034L88.8546 58.5905C88.9193 58.2962 88.956 57.974 88.9558 57.6186L88.9556 56.9281C89.9859 57.2663 91.0719 57.467 92.1957 57.5006C92.3218 57.5045 92.4468 57.5063 92.5725 57.5063C93.8142 57.5063 95.0263 57.3186 96.18 56.9606V57.6195C96.18 57.9459 96.221 58.2657 96.2982 58.5731L92.5677 62.3034ZM98.7379 51.7326C97.0038 53.4155 94.7128 54.3043 92.2941 54.2297C87.5591 54.0877 83.707 49.9171 83.707 44.9332V41.8743C83.707 41.6202 83.6479 41.3697 83.5342 41.1426L82.5235 39.1211C82.1533 38.3805 81.9576 37.5515 81.9576 36.7233V36.6258C81.9576 32.7046 85.1478 29.5146 89.0688 29.5146H103.178V36.3104C103.178 37.4086 102.918 38.5083 102.427 39.4907L101.601 41.1426C101.488 41.37 101.429 41.6202 101.429 41.8743V45.3732C101.429 47.7904 100.473 50.0489 98.7379 51.7326Z" fill="#3F3F45"/>
<path d="M103.062 68.2297C102.158 68.2297 101.426 68.9623 101.426 69.8659V80.3628C101.426 81.2664 102.158 81.999 103.062 81.999C103.966 81.999 104.698 81.2664 104.698 80.3628V69.8659C104.698 68.9625 103.966 68.2297 103.062 68.2297Z" fill="#3F3F45"/>
<path d="M8.63426 70.3936C7.73063 70.3936 6.99805 71.1261 6.99805 72.0298V80.3637C6.99805 81.2674 7.73063 82 8.63426 82C9.53788 82 10.2705 81.2674 10.2705 80.3637V72.0298C10.2705 71.1264 9.53788 70.3936 8.63426 70.3936Z" fill="#3F3F45"/>
<path d="M69.2742 19.7245C63.0858 13.5361 50.1381 14.7192 44.8582 15.515C43.1952 15.7657 41.9883 17.1731 41.9883 18.8614V22.6308C41.9883 23.5344 42.7209 24.267 43.6245 24.267C44.5281 24.267 45.2607 23.5344 45.2607 22.6308V18.8612C45.2607 18.8056 45.2974 18.758 45.3462 18.7506C47.4552 18.4327 51.6402 17.9423 55.9761 18.2314C61.0785 18.571 64.7742 19.8519 66.9604 22.0383C67.5994 22.6773 68.6354 22.6773 69.2742 22.0383C69.9132 21.3993 69.9132 20.3632 69.2742 19.7245Z" fill="#3F3F45"/>
<path d="M36.6245 71.7295C35.7209 71.7295 34.9883 72.4621 34.9883 73.3657V80.3637C34.9883 81.2673 35.7209 81.9999 36.6245 81.9999C37.5281 81.9999 38.2607 81.2673 38.2607 80.3637V73.3657C38.2607 72.4623 37.5281 71.7295 36.6245 71.7295Z" fill="#3F3F45"/>
<path d="M75.1147 71.7295C74.2111 71.7295 73.4785 72.4621 73.4785 73.3657V80.3637C73.4785 81.2673 74.2111 81.9999 75.1147 81.9999C76.0184 81.9999 76.7509 81.2673 76.7509 80.3637V73.3657C76.7509 72.4623 76.0184 71.7295 75.1147 71.7295Z" fill="#3F3F45"/>
</svg>
