<svg width="100" height="100" viewBox="0 0 100 100" fill="none" xmlns="http://www.w3.org/2000/svg">
<path d="M33.3346 30.0002C33.7767 30.0002 34.2006 29.8246 34.5131 29.512C34.8257 29.1994 35.0013 28.7755 35.0013 28.3335C35.0013 27.8915 35.1769 27.4675 35.4895 27.155C35.802 26.8424 36.2259 26.6668 36.668 26.6668C37.11 26.6668 37.5339 26.8424 37.8465 27.155C38.159 27.4675 38.3346 27.8915 38.3346 28.3335C38.3346 28.7755 38.5102 29.1994 38.8228 29.512C39.1353 29.8246 39.5593 30.0002 40.0013 30.0002C40.4433 30.0002 40.8673 29.8246 41.1798 29.512C41.4924 29.1994 41.668 28.7755 41.668 28.3335C41.668 27.0074 41.1412 25.7356 40.2035 24.798C39.2658 23.8603 37.9941 23.3335 36.668 23.3335C35.3419 23.3335 34.0701 23.8603 33.1324 24.798C32.1948 25.7356 31.668 27.0074 31.668 28.3335C31.668 28.7755 31.8436 29.1994 32.1561 29.512C32.4687 29.8246 32.8926 30.0002 33.3346 30.0002Z" fill="#3F3F45"/>
<path d="M25 28.3335C25 27.0074 24.4732 25.7356 23.5355 24.798C22.5979 23.8603 21.3261 23.3335 20 23.3335C18.6739 23.3335 17.4021 23.8603 16.4645 24.798C15.5268 25.7356 15 27.0074 15 28.3335C15 28.7755 15.1756 29.1994 15.4882 29.512C15.8007 29.8246 16.2246 30.0002 16.6667 30.0002C17.1087 30.0002 17.5326 29.8246 17.8452 29.512C18.1577 29.1994 18.3333 28.7755 18.3333 28.3335C18.3333 27.8915 18.5089 27.4675 18.8215 27.155C19.134 26.8424 19.558 26.6668 20 26.6668C20.442 26.6668 20.866 26.8424 21.1785 27.155C21.4911 27.4675 21.6667 27.8915 21.6667 28.3335C21.6667 28.7755 21.8423 29.1994 22.1548 29.512C22.4674 29.8246 22.8913 30.0002 23.3333 30.0002C23.7754 30.0002 24.1993 29.8246 24.5118 29.512C24.8244 29.1994 25 28.7755 25 28.3335Z" fill="#3F3F45"/>
<path d="M28.332 78.3335C27.3431 78.3335 26.3764 78.6267 25.5542 79.1761C24.7319 79.7256 24.0911 80.5065 23.7126 81.4201C23.3342 82.3337 23.2352 83.339 23.4281 84.3089C23.621 85.2789 24.0972 86.1698 24.7965 86.869C25.4958 87.5683 26.3867 88.0445 27.3566 88.2374C28.3265 88.4303 29.3318 88.3313 30.2454 87.9529C31.1591 87.5745 31.94 86.9336 32.4894 86.1113C33.0388 85.2891 33.332 84.3224 33.332 83.3335C33.332 82.0074 32.8052 80.7356 31.8676 79.798C30.9299 78.8603 29.6581 78.3335 28.332 78.3335ZM28.332 85.0002C28.0024 85.0002 27.6802 84.9024 27.4061 84.7193C27.132 84.5361 26.9184 84.2758 26.7922 83.9713C26.6661 83.6668 26.6331 83.3316 26.6974 83.0083C26.7617 82.685 26.9204 82.3881 27.1535 82.155C27.3866 81.9219 27.6836 81.7632 28.0069 81.6989C28.3302 81.6345 28.6653 81.6676 28.9698 81.7937C29.2744 81.9198 29.5347 82.1335 29.7178 82.4075C29.901 82.6816 29.9987 83.0039 29.9987 83.3335C29.9987 83.7755 29.8231 84.1994 29.5105 84.512C29.198 84.8246 28.7741 85.0002 28.332 85.0002Z" fill="#3F3F45"/>
<path d="M95 76.6667C94.3405 76.6631 93.6869 76.791 93.0774 77.0428C92.4679 77.2946 91.9147 77.6653 91.45 78.1333C90.8168 78.8082 90.3907 79.6507 90.2223 80.5607C90.0539 81.4707 90.1503 82.4099 90.5 83.2667L94.7333 94.3167C94.8487 94.5699 94.897 94.8485 94.8736 95.1258C94.8503 95.403 94.7561 95.6696 94.6 95.9C94.4511 96.1363 94.2444 96.3308 93.9995 96.4649C93.7545 96.5991 93.4793 96.6685 93.2 96.6667H89.1667L85 91.1167V81.6667C84.995 80.3686 84.6864 79.0897 84.0989 77.9321C83.5115 76.7745 82.6614 75.7704 81.6167 75C82.6614 74.2296 83.5115 73.2255 84.0989 72.0679C84.6864 70.9103 84.995 69.6314 85 68.3333V63.65L88.2167 55.6167C88.3379 55.3138 88.3676 54.982 88.302 54.6624C88.2365 54.3428 88.0785 54.0495 87.8479 53.8188C87.6172 53.5881 87.3239 53.4302 87.0043 53.3646C86.6847 53.2991 86.3529 53.3288 86.05 53.45L78.0167 56.6667H68.65L60.6167 53.45C60.3138 53.3288 59.982 53.2991 59.6624 53.3646C59.3428 53.4302 59.0495 53.5881 58.8188 53.8188C58.5881 54.0495 58.4302 54.3428 58.3646 54.6624C58.2991 54.982 58.3288 55.3138 58.45 55.6167L61.6667 63.65V68.3333C61.6717 69.6314 61.9803 70.9103 62.5677 72.0679C63.1552 73.2255 64.0052 74.2296 65.05 75C64.0052 75.7704 63.1552 76.7745 62.5677 77.9321C61.9803 79.0897 61.6717 80.3686 61.6667 81.6667V91.1167L57.5 96.6667H50V90H51.6667C52.9915 89.996 54.261 89.468 55.1978 88.5312C56.1347 87.5943 56.6627 86.3249 56.6667 85V63.3333C56.6631 60.2402 55.4328 57.2748 53.2457 55.0876C51.0585 52.9005 48.0931 51.6702 45 51.6667H36.6667C36.2246 51.6667 35.8007 51.4911 35.4882 51.1785C35.1756 50.866 35 50.442 35 50V45.95C35.6557 45.7685 36.3011 45.5515 36.9333 45.3C40.2096 46.8647 43.7862 47.7006 47.4167 47.75C49.7047 47.8199 51.9803 47.3875 54.0833 46.4833C54.3381 46.3577 54.5563 46.1686 54.7168 45.9343C54.8774 45.6999 54.9749 45.4282 55 45.1453C55.0251 44.8623 54.977 44.5777 54.8602 44.3187C54.7435 44.0597 54.562 43.8352 54.3333 43.6667C49.4167 39.9833 48.3333 26.5333 48.3333 21.6667V18.3333C48.3302 13.472 46.3977 8.81062 42.9602 5.37312C39.5227 1.93563 34.8614 0.00309064 30 0H26.6667C21.8053 0.00309064 17.144 1.93563 13.7065 5.37312C10.269 8.81062 8.33642 13.472 8.33333 18.3333V21.6667C8.33333 26.5333 7.25 39.9833 2.33333 43.6667C2.10466 43.8352 1.92322 44.0597 1.80646 44.3187C1.6897 44.5777 1.64156 44.8623 1.66668 45.1453C1.69179 45.4282 1.78931 45.6999 1.94985 45.9343C2.11039 46.1686 2.32855 46.3577 2.58333 46.4833C4.68633 47.3875 6.96193 47.8199 9.25 47.75C12.8804 47.7006 16.457 46.8647 19.7333 45.3C20.3655 45.5515 21.0109 45.7685 21.6667 45.95V50C21.6667 50.442 21.4911 50.866 21.1785 51.1785C20.8659 51.4911 20.442 51.6667 20 51.6667H11.6667C8.57356 51.6702 5.60815 52.9005 3.42099 55.0876C1.23383 57.2748 0.00352894 60.2402 0 63.3333V86.6667C0.00395682 87.9915 0.532012 89.261 1.46884 90.1978C2.40566 91.1347 3.67513 91.6627 5 91.6667H6.66667V98.3333C6.66667 98.7754 6.84226 99.1993 7.15482 99.5118C7.46738 99.8244 7.89131 100 8.33333 100H93.2C94.035 100 94.8569 99.7917 95.5906 99.3928C96.3242 98.994 96.9463 98.4177 97.4 97.7167C97.8494 97.0334 98.1213 96.2488 98.1912 95.434C98.261 94.6192 98.1266 93.7998 97.8 93.05L93.6167 82.0833C93.4981 81.8244 93.454 81.5375 93.4894 81.2549C93.5247 80.9723 93.638 80.7051 93.8167 80.4833C93.9718 80.3281 94.1564 80.2054 94.3596 80.1224C94.5628 80.0394 94.7805 79.9978 95 80C95.442 80 95.866 80.1756 96.1785 80.4882C96.4911 80.8007 96.6667 81.2246 96.6667 81.6667V83.3333C96.6667 83.7754 96.8423 84.1993 97.1548 84.5118C97.4674 84.8244 97.8913 85 98.3333 85C98.7754 85 99.1993 84.8244 99.5118 84.5118C99.8244 84.1993 100 83.7754 100 83.3333V81.6667C99.996 80.3418 99.468 79.0723 98.5312 78.1355C97.5943 77.1987 96.3249 76.6706 95 76.6667ZM40 58.3333V55H43.3333V66.6667H36.4833C37.597 65.5834 38.482 64.2877 39.086 62.8563C39.6901 61.4249 40.0009 59.8869 40 58.3333ZM50.2333 44.1833C47.0183 44.6767 43.7304 44.3381 40.6833 43.2C43.284 41.3297 45.352 38.8136 46.6833 35.9C47.325 38.8631 48.5301 41.6752 50.2333 44.1833ZM11.6667 18.3333C11.6728 14.357 13.2552 10.5453 16.0669 7.73355C18.8786 4.92184 22.6903 3.3395 26.6667 3.33333H30C33.9764 3.3395 37.7881 4.92184 40.5998 7.73355C43.4115 10.5453 44.9938 14.357 45 18.3333V18.8667C42.2645 16.5896 39.9319 13.8683 38.1 10.8167C37.9636 10.5834 37.7722 10.387 37.5424 10.2447C37.3127 10.1024 37.0516 10.0186 36.7819 10.0005C36.5123 9.98244 36.2423 10.0307 35.9956 10.141C35.7489 10.2513 35.533 10.4203 35.3667 10.6333C30.35 16.9 16.6167 19.1667 11.6667 19.8V18.3333ZM6.41667 44.2C8.12915 41.6889 9.34025 38.8706 9.98333 35.9C11.3102 38.8164 13.3791 41.3335 15.9833 43.2C12.9334 44.3501 9.6385 44.6945 6.41667 44.2ZM11.6667 28.3333V23.1667C16.2333 22.6333 29.6667 20.55 36.4167 14.35C38.1167 16.8167 41.3833 20.9833 45 22.75V28.3333C44.9938 32.3097 43.4115 36.1214 40.5998 38.9331C37.7881 41.7448 33.9764 43.3272 30 43.3333H26.6667C22.6903 43.3272 18.8786 41.7448 16.0669 38.9331C13.2552 36.1214 11.6728 32.3097 11.6667 28.3333ZM20 55C21.3249 54.996 22.5943 54.468 23.5312 53.5312C24.468 52.5943 24.996 51.3249 25 50V46.5833C25.55 46.6333 26.1 46.6667 26.6667 46.6667H30C30.5667 46.6667 31.1167 46.6333 31.6667 46.5833V50C31.6706 51.3249 32.1987 52.5943 33.1355 53.5312C34.0723 54.468 35.3418 54.996 36.6667 55V58.3333C36.6667 60.5435 35.7887 62.6631 34.2259 64.2259C32.6631 65.7887 30.5435 66.6667 28.3333 66.6667C26.1232 66.6667 24.0036 65.7887 22.4408 64.2259C20.878 62.6631 20 60.5435 20 58.3333V55ZM13.3333 55H16.6667V58.3333C16.6658 59.8869 16.9766 61.4249 17.5806 62.8563C18.1847 64.2877 19.0697 65.5834 20.1833 66.6667H13.3333V55ZM6.66667 71.6667V88.3333H5C4.55797 88.3333 4.13405 88.1577 3.82149 87.8452C3.50893 87.5326 3.33333 87.1087 3.33333 86.6667V63.3333C3.33825 61.4137 4.00355 59.5541 5.21751 58.067C6.43148 56.5799 8.12017 55.5558 10 55.1667V66.9667C9.02876 67.3126 8.18769 67.9494 7.59126 68.7904C6.99482 69.6313 6.67198 70.6357 6.66667 71.6667ZM46.6667 96.6667H10V71.6667C10 71.2246 10.1756 70.8007 10.4882 70.4882C10.8007 70.1756 11.2246 70 11.6667 70H45C45.442 70 45.866 70.1756 46.1785 70.4882C46.4911 70.8007 46.6667 71.2246 46.6667 71.6667V96.6667ZM46.6667 66.9667V55.1667C48.5465 55.5558 50.2352 56.5799 51.4492 58.067C52.6631 59.5541 53.3284 61.4137 53.3333 63.3333V85C53.3333 85.442 53.1577 85.866 52.8452 86.1785C52.5326 86.4911 52.1087 86.6667 51.6667 86.6667H50V71.6667C49.9947 70.6357 49.6718 69.6313 49.0754 68.7904C48.479 67.9494 47.6379 67.3126 46.6667 66.9667ZM65 68.3333V63.3333C65.0032 63.122 64.9636 62.9122 64.8833 62.7167L62.9833 57.9833L67.7167 59.8833C67.9122 59.9636 68.122 60.0032 68.3333 60H78.3333C78.5447 60.0032 78.7545 59.9636 78.95 59.8833L83.6833 57.9833L81.7833 62.7167C81.7031 62.9122 81.6634 63.122 81.6667 63.3333V68.3333C81.6627 69.6582 81.1347 70.9277 80.1978 71.8645C79.261 72.8013 77.9915 73.3294 76.6667 73.3333H70C68.6751 73.3294 67.4057 72.8013 66.4688 71.8645C65.532 70.9277 65.004 69.6582 65 68.3333ZM75 96.6667V91.6667C75 91.2246 74.8244 90.8007 74.5118 90.4882C74.1993 90.1756 73.7754 90 73.3333 90C72.8913 90 72.4674 90.1756 72.1548 90.4882C71.8423 90.8007 71.6667 91.2246 71.6667 91.6667V96.6667H61.6667L64.6667 92.6667C64.8848 92.3791 65.002 92.0276 65 91.6667V81.6667C65.004 80.3418 65.532 79.0723 66.4688 78.1355C67.4057 77.1987 68.6751 76.6706 70 76.6667H76.6667C77.9915 76.6706 79.261 77.1987 80.1978 78.1355C81.1347 79.0723 81.6627 80.3418 81.6667 81.6667V91.6667C81.6647 92.0276 81.7819 92.3791 82 92.6667L85 96.6667H75Z" fill="#3F3F45"/>
<path d="M69.9987 63.3335C69.5567 63.3335 69.1327 63.5091 68.8202 63.8217C68.5076 64.1342 68.332 64.5581 68.332 65.0002V68.3335C68.332 68.7755 68.5076 69.1994 68.8202 69.512C69.1327 69.8246 69.5567 70.0002 69.9987 70.0002C70.4407 70.0002 70.8647 69.8246 71.1772 69.512C71.4898 69.1994 71.6654 68.7755 71.6654 68.3335V65.0002C71.6654 64.5581 71.4898 64.1342 71.1772 63.8217C70.8647 63.5091 70.4407 63.3335 69.9987 63.3335Z" fill="#3F3F45"/>
<path d="M78.3333 68.3335V65.0002C78.3333 64.5581 78.1577 64.1342 77.8452 63.8217C77.5326 63.5091 77.1087 63.3335 76.6667 63.3335C76.2246 63.3335 75.8007 63.5091 75.4882 63.8217C75.1756 64.1342 75 64.5581 75 65.0002V68.3335C75 68.7755 75.1756 69.1994 75.4882 69.512C75.8007 69.8246 76.2246 70.0002 76.6667 70.0002C77.1087 70.0002 77.5326 69.8246 77.8452 69.512C78.1577 69.1994 78.3333 68.7755 78.3333 68.3335Z" fill="#3F3F45"/>
<path d="M73.3346 80C72.8926 80 72.4687 80.1756 72.1561 80.4882C71.8436 80.8007 71.668 81.2246 71.668 81.6667V85C71.668 85.442 71.8436 85.866 72.1561 86.1785C72.4687 86.4911 72.8926 86.6667 73.3346 86.6667C73.7767 86.6667 74.2006 86.4911 74.5131 86.1785C74.8257 85.866 75.0013 85.442 75.0013 85V81.6667C75.0013 81.2246 74.8257 80.8007 74.5131 80.4882C74.2006 80.1756 73.7767 80 73.3346 80Z" fill="#3F3F45"/>
<path d="M95.0013 0H58.3346C57.8926 0 57.4687 0.175595 57.1561 0.488155C56.8436 0.800716 56.668 1.22464 56.668 1.66667V38.3333C56.668 38.7754 56.8436 39.1993 57.1561 39.5118C57.4687 39.8244 57.8926 40 58.3346 40H95.0013C95.4433 40 95.8673 39.8244 96.1798 39.5118C96.4924 39.1993 96.668 38.7754 96.668 38.3333V1.66667C96.668 1.22464 96.4924 0.800716 96.1798 0.488155C95.8673 0.175595 95.4433 0 95.0013 0ZM70.0013 36.6667H66.668V16.6667H70.0013V36.6667ZM76.668 36.6667H73.3346V10H76.668V36.6667ZM93.3346 36.6667H80.0013V8.33333C80.0013 7.89131 79.8257 7.46738 79.5131 7.15482C79.2006 6.84226 78.7767 6.66667 78.3346 6.66667H71.668C71.2259 6.66667 70.802 6.84226 70.4895 7.15482C70.1769 7.46738 70.0013 7.89131 70.0013 8.33333V13.3333H65.0013C64.5593 13.3333 64.1353 13.5089 63.8228 13.8215C63.5102 14.134 63.3346 14.558 63.3346 15V36.6667H60.0013V3.33333H93.3346V36.6667Z" fill="#3F3F45"/>
<path d="M33.332 35.0002C33.332 34.5581 33.1564 34.1342 32.8439 33.8217C32.5313 33.5091 32.1074 33.3335 31.6654 33.3335C31.2233 33.3335 30.7994 33.5091 30.4869 33.8217C30.1743 34.1342 29.9987 34.5581 29.9987 35.0002C29.9987 35.4422 29.8231 35.8661 29.5105 36.1787C29.198 36.4912 28.7741 36.6668 28.332 36.6668C27.89 36.6668 27.4661 36.4912 27.1535 36.1787C26.841 35.8661 26.6654 35.4422 26.6654 35.0002C26.6654 34.5581 26.4898 34.1342 26.1772 33.8217C25.8646 33.5091 25.4407 33.3335 24.9987 33.3335C24.5567 33.3335 24.1327 33.5091 23.8202 33.8217C23.5076 34.1342 23.332 34.5581 23.332 35.0002C23.332 36.3262 23.8588 37.598 24.7965 38.5357C25.7342 39.4734 27.0059 40.0002 28.332 40.0002C29.6581 40.0002 30.9299 39.4734 31.8676 38.5357C32.8052 37.598 33.332 36.3262 33.332 35.0002Z" fill="#3F3F45"/>
</svg>
