<svg width="78" height="100" viewBox="0 0 78 100" fill="none" xmlns="http://www.w3.org/2000/svg">
<path d="M76.3025 61.0529C77.1107 61.0529 77.766 60.3977 77.766 59.5895V12.6127C77.766 9.65371 75.3588 7.24649 72.3998 7.24649H55.2875C54.8762 6.47871 54.0666 5.95508 53.1363 5.95508H46.2496V4.25195C46.2496 1.90742 44.3422 0 41.9977 0H36.7857C34.4412 0 32.5338 1.90742 32.5338 4.25195V5.95508H25.4098C24.0648 5.95508 22.9705 7.04922 22.9705 8.39434V11.8336H21.4781C19.9395 11.8336 18.6031 12.708 17.9342 13.9848H10.1102C8.11953 13.9848 6.50019 15.6043 6.50019 17.5947V75.3397C6.50019 76.1479 7.15547 76.8031 7.96367 76.8031C8.77187 76.8031 9.42715 76.1479 9.42715 75.3397V17.5947C9.42715 17.2182 9.73359 16.9117 10.1102 16.9117H17.4779V21.107C17.4779 23.3127 19.2725 25.1072 21.4781 25.1072H57.0678C59.2734 25.1072 61.068 23.3127 61.068 21.107V16.9117H67.6551C68.0316 16.9117 68.3381 17.2182 68.3381 17.5947V96.3898C68.3381 96.7664 68.0316 97.0729 67.6551 97.0729H57.9592V92.7545C57.9592 89.6342 56.2637 86.7564 53.5346 85.2443L34.2895 74.5811L59.4898 68.6416C61.7875 68.1004 63.4789 66.2393 63.799 63.9002C64.1187 61.5613 62.9891 59.3143 60.9211 58.1758L43.566 48.6232V41.7039L44.3014 42.3033C44.8064 42.715 45.441 42.9057 46.0896 42.8395C46.7379 42.7734 47.3217 42.459 47.7332 41.9541L50.5687 38.4754C51.4185 37.4332 51.2619 35.8937 50.2193 35.0436L40.6705 27.26C39.6346 26.4156 38.1309 26.4156 37.0949 27.26L27.5459 35.0438C26.5037 35.8938 26.3471 37.4332 27.1967 38.4754L30.0322 41.9539C30.4438 42.459 31.0275 42.7734 31.6758 42.8395C32.3232 42.9051 32.959 42.7152 33.4641 42.3035L34.1994 41.7041V49.0848C34.1994 52.2148 35.9031 55.0973 38.6453 56.6066L47.9629 61.7352L22.8008 67.6658C20.5064 68.2066 18.8156 70.0648 18.4934 72.4002C18.1711 74.735 19.2951 76.9816 21.3566 78.1236L48.5926 93.2145V97.0731H10.1105C9.73398 97.0731 9.42754 96.7666 9.42754 96.39V82.4535C9.42754 81.6453 8.77227 80.99 7.96406 80.99C7.15586 80.99 6.50059 81.6453 6.50059 82.4535V96.39C6.50059 96.6236 6.5248 96.8516 6.56738 97.0731H5.36621C4.02129 97.0731 2.92695 95.9789 2.92695 94.6338V12.6127C2.92695 11.2678 4.02109 10.1734 5.36621 10.1734H17.1865C17.9947 10.1734 18.65 9.51816 18.65 8.70996C18.65 7.90176 17.9947 7.24649 17.1865 7.24649H5.36621C2.40723 7.24649 0 9.65371 0 12.6127V94.6336C0 97.5926 2.40723 99.9998 5.36621 99.9998H72.3998C75.3588 99.9998 77.766 97.5926 77.766 94.6336V66.9344C77.766 66.1262 77.1107 65.4709 76.3025 65.4709C75.4943 65.4709 74.8391 66.1262 74.8391 66.9344V94.6336C74.8391 95.9785 73.7449 97.0729 72.3998 97.0729H71.1986C71.2412 96.8514 71.2654 96.6234 71.2654 96.3898V17.5947C71.2654 15.6041 69.6459 13.9848 67.6555 13.9848H60.6119C59.943 12.708 58.6066 11.8336 57.068 11.8336H55.5756V10.1736H72.3996C73.7445 10.1736 74.8389 11.2678 74.8389 12.6129V59.5897C74.8391 60.3977 75.4943 61.0529 76.3025 61.0529ZM51.5201 97.0729V92.7545C51.5201 91.9744 51.0963 91.2549 50.4139 90.877L22.7756 75.5631C21.7805 75.0117 21.2379 73.9274 21.3936 72.8002C21.5492 71.6729 22.3652 70.7756 23.473 70.5147L52.3373 63.7115C52.9266 63.5727 53.3695 63.0852 53.4516 62.4854C53.5336 61.8855 53.2377 61.2971 52.7072 61.0051L40.0574 54.0426C38.25 53.0477 37.1271 51.148 37.1271 49.085V38.6229C37.1271 38.0578 36.8019 37.5434 36.2916 37.301C35.7814 37.0584 35.177 37.1316 34.7391 37.4885L31.9932 39.7264L29.774 37.0039L38.883 29.5787L47.992 37.0039L45.7728 39.7264L43.0273 37.4885C42.5891 37.1314 41.9848 37.0586 41.4748 37.301C40.9644 37.5434 40.6393 38.0578 40.6393 38.6229V49.0848C40.6393 49.8678 41.0654 50.5885 41.751 50.9652L59.51 60.74C60.5086 61.2896 61.0539 62.3744 60.8996 63.5035C60.7451 64.6326 59.9285 65.5313 58.8191 65.7926L29.9318 72.601C29.3434 72.7396 28.9006 73.2262 28.8178 73.8252C28.7352 74.4242 29.0293 75.0123 29.5582 75.3057L52.1166 87.8045C53.9152 88.8012 55.0328 90.6979 55.0328 92.7545V97.0729H51.5201ZM35.4609 4.25176C35.4609 3.52109 36.0553 2.92676 36.7859 2.92676H41.9978C42.7285 2.92676 43.3228 3.52109 43.3228 4.25176V5.95488H35.4611V4.25176H35.4609ZM25.8979 8.88203H52.6486V16.9314H25.8979V8.88203ZM58.1414 21.107C58.1414 21.6988 57.66 22.1803 57.0682 22.1803H21.4785C20.8867 22.1803 20.4053 21.6988 20.4053 21.107V16.9117H22.9709V17.4191C22.9709 18.7641 24.065 19.8584 25.4102 19.8584H53.1367C54.4816 19.8584 55.576 18.7643 55.576 17.4191V16.9117H58.1416V21.107H58.1414Z" fill="#3F3F45"/>
<path d="M63.544 72.0604C62.9725 71.489 62.0458 71.489 61.4743 72.0604L59.584 73.9507L57.6938 72.0604C57.1223 71.489 56.1956 71.489 55.6241 72.0604C55.0524 72.6319 55.0524 73.5587 55.6241 74.1302L57.5143 76.0204L55.6241 77.9106C55.0524 78.4821 55.0524 79.4089 55.6241 79.9804C55.9098 80.2661 56.2844 80.4091 56.6588 80.4091C57.0333 80.4091 57.4079 80.2661 57.6936 79.9804L59.5838 78.0901L61.4741 79.9804C61.7598 80.2661 62.1344 80.4091 62.5088 80.4091C62.8832 80.4091 63.2579 80.2661 63.5436 79.9804C64.1153 79.4089 64.1153 78.4821 63.5436 77.9106L61.6534 76.0204L63.5436 74.1302C64.1155 73.5587 64.1155 72.6319 63.544 72.0604Z" fill="#3F3F45"/>
<path d="M14.3838 47.9726C14.9553 48.544 15.8821 48.544 16.4536 47.9726L18.3438 46.0823L20.234 47.9726C20.8055 48.544 21.7323 48.544 22.3038 47.9726C22.8754 47.4011 22.8754 46.4743 22.3038 45.9028L20.4135 44.0126L22.3038 42.1224C22.8754 41.5509 22.8754 40.6241 22.3038 40.0526C21.7323 39.4812 20.8055 39.4812 20.234 40.0526L18.3438 41.9429L16.4536 40.0526C15.8821 39.4812 14.9553 39.4812 14.3838 40.0526C13.8122 40.6241 13.8122 41.5509 14.3838 42.1224L16.2741 44.0126L14.3838 45.9028C13.8124 46.4743 13.8124 47.4009 14.3838 47.9726Z" fill="#3F3F45"/>
<path d="M20.3315 93.5482C20.6172 93.834 20.9918 93.9769 21.3663 93.9769C21.7409 93.9769 22.1153 93.834 22.401 93.5482L24.2913 91.658L26.1815 93.5482C26.4672 93.834 26.8418 93.9769 27.2163 93.9769C27.5909 93.9769 27.9653 93.834 28.251 93.5482C28.8227 92.9767 28.8227 92.05 28.251 91.4785L26.3608 89.5883L28.251 87.698C28.8227 87.1266 28.8227 86.1998 28.251 85.6283C27.6795 85.0568 26.7528 85.0568 26.1813 85.6283L24.2911 87.5186L22.4008 85.6283C21.8293 85.0568 20.9026 85.0568 20.3311 85.6283C19.7594 86.1998 19.7594 87.1266 20.3311 87.698L22.2213 89.5883L20.3311 91.4785C19.7598 92.05 19.7598 92.9767 20.3315 93.5482Z" fill="#3F3F45"/>
<path d="M28.251 52.7045C27.6795 52.133 26.7528 52.133 26.1813 52.7045L24.2911 54.5947L22.4008 52.7045C21.8293 52.133 20.9026 52.133 20.3311 52.7045C19.7594 53.276 19.7594 54.2027 20.3311 54.7742L22.2213 56.6645L20.3311 58.5547C19.7594 59.1262 19.7594 60.0529 20.3311 60.6244C20.9026 61.1959 21.8293 61.1959 22.4008 60.6244L24.2911 58.7342L26.1813 60.6244C26.7528 61.1959 27.6795 61.1959 28.251 60.6244C28.8227 60.0529 28.8227 59.1262 28.251 58.5547L26.3608 56.6645L28.251 54.7742C28.8225 54.2027 28.8225 53.276 28.251 52.7045Z" fill="#3F3F45"/>
<path d="M56.9655 49.3239C57.3536 49.3239 57.7258 49.1698 58.0002 48.8952L63.0084 43.887C63.5801 43.3155 63.5801 42.3888 63.0084 41.8173C62.437 41.2458 61.5102 41.2458 60.9387 41.8173L56.9655 45.7907L55.3422 44.1675C54.7708 43.596 53.844 43.596 53.2725 44.1675C52.7008 44.739 52.7008 45.6657 53.2725 46.2372L55.9305 48.8952C56.2049 49.1698 56.5772 49.3239 56.9655 49.3239Z" fill="#3F3F45"/>
</svg>
