<svg width="82" height="100" viewBox="0 0 82 100" fill="none" xmlns="http://www.w3.org/2000/svg">
<path d="M38.5018 100C37.9325 100 37.3911 99.6662 37.1538 99.1094L31.3057 85.3979C30.9884 84.6538 31.3343 83.7932 32.0786 83.4758C32.8231 83.1589 33.6833 83.5046 34.0007 84.2487L39.8487 97.9602C40.1661 98.7043 39.8202 99.5648 39.0758 99.8822C38.8883 99.9621 38.6936 100 38.5018 100ZM21.3144 100C20.745 100 20.2036 99.6662 19.9663 99.1094C16.7451 91.5567 15.1792 83.9079 15.1792 75.7261C15.1792 69.9511 16.8181 64.6329 18.4031 59.49C19.8945 54.65 21.3034 50.0783 21.3034 45.4041C21.3034 44.2313 21.1587 43.1578 20.9052 42.1426C18.1288 43.2633 14.891 43.9631 11.4939 43.4711C8.53747 43.0426 5.83045 41.6379 3.87206 39.5159C1.79511 37.2655 0.697266 34.4249 0.697266 31.301C0.697266 27.9597 2.00214 24.9015 4.37167 22.6901C6.66521 20.5497 9.76559 19.4179 13.166 19.4339C13.5476 13.2345 16.2462 8.17907 21.0282 4.74647C25.2919 1.68554 31.1401 0 37.495 0C40.5473 0 43.4709 0.336913 46.1844 1.00117C46.9701 1.19355 47.4512 1.98652 47.2588 2.77225C47.0666 3.55799 46.274 4.03905 45.4877 3.84666C43.0369 3.24686 40.2733 2.92968 37.495 2.92968C31.7479 2.92968 26.5065 4.4201 22.7366 7.12634C18.2988 10.3119 16.0486 14.9738 16.0486 20.9821C16.0486 26.6233 18.197 30.3063 20.2747 33.8678C21.0706 35.2323 21.8777 36.6155 22.5534 38.0993C24.1894 37.185 25.669 36.1194 26.8899 35.0573C26.3231 33.8567 26.0118 32.4823 26.0118 30.9901C26.0118 27.5956 28.6694 24.8337 31.9362 24.8337C33.2841 24.8337 34.5719 25.3099 35.6042 26.1552C40.1094 21.037 41.0711 16.4376 41.0809 16.3884C41.2178 15.7031 41.8194 15.2103 42.5172 15.2103C42.5209 15.2103 42.5182 15.2105 42.5291 15.2103C42.6162 15.2103 45.5408 15.1995 48.4104 14.1638C51.8189 12.9332 53.6558 10.8175 53.876 7.87165C52.8486 6.99646 51.6607 6.22712 50.3117 5.56424C49.5857 5.2074 49.2863 4.32967 49.6432 3.6035C49.9998 2.87733 50.8777 2.57811 51.6039 2.93495C57.4318 5.799 63.8001 12.025 61.0425 25.4202C60.6742 27.2095 60.6425 28.3688 60.9332 29.422C61.2609 30.6096 62.0185 31.4362 62.8207 32.3114C63.7521 33.3278 64.808 34.4797 64.808 36.1391C64.808 38.1075 63.2468 40.2508 60.3291 40.8034C59.2738 45.3123 58.1388 49.0047 56.651 51.6521C57.0711 51.6168 57.4947 51.5988 57.9209 51.5988C60.166 51.5988 62.3236 52.0879 64.3345 53.0523C65.0638 53.4021 65.3716 54.2771 65.0218 55.0066C64.6718 55.7359 63.7972 56.0439 63.0675 55.6939C61.4554 54.9207 59.7238 54.5287 57.9209 54.5287C51.5418 54.5287 46.2639 59.6337 46.0135 65.9712C46.6531 66.8693 47.2029 67.8448 47.6481 68.888L48.8375 71.6769C49.3594 71.6983 49.8484 71.3991 50.0674 70.8995C50.3924 70.1587 51.2566 69.8216 51.9971 70.146C52.7381 70.4708 53.0754 71.3347 52.7506 72.0757C52.2219 73.2817 51.2027 74.1237 50.0221 74.4542L52.3793 79.9811C54.9486 81.6589 58.5375 80.9661 61.1058 79.7464C61.1148 77.2518 62.389 74.9612 64.6523 73.5778L69.2683 70.7562C69.2695 70.7556 69.2704 70.7548 69.2716 70.7542C70.3702 70.0827 70.8599 69.2829 70.8599 68.1609C70.8599 67.2913 70.3025 66.557 69.6429 66.557C69.2552 66.557 68.9794 66.8062 68.8495 66.955C68.3169 67.5642 67.3917 67.6263 66.7826 67.0941C66.1734 66.5617 66.1111 65.6363 66.6435 65.0271C67.3894 64.1738 68.4259 63.6695 69.5056 63.6298C69.0439 61.7085 68.1097 59.9421 66.7529 58.4453C66.2095 57.8459 66.255 56.9195 66.8544 56.3761C67.4538 55.8328 68.3804 55.8783 68.9236 56.4777C71.0819 58.8589 72.422 61.9187 72.7077 65.1105C73.3794 65.9163 73.7896 66.9874 73.7896 68.1611C73.7896 68.7429 73.7128 69.2968 73.5616 69.8191C73.9466 69.865 74.3292 69.9448 74.7054 70.0587C76.5247 70.6097 78.0261 71.914 78.8245 73.6368C80.8973 78.1102 81.303 86.1536 81.303 98.535C81.303 99.3439 80.6471 99.9998 79.8382 99.9998C79.0292 99.9998 78.3733 99.3439 78.3733 98.535C78.3733 94.6748 78.3456 90.792 78.1786 87.2442H68.4984C65.4025 87.2442 62.8119 85.4874 61.6835 82.6989C59.3548 83.6837 56.5779 84.2337 53.975 83.7227L60.0281 97.9146C60.3455 98.6588 59.9996 99.5193 59.2552 99.8367C58.5113 100.154 57.6506 99.8082 57.3332 99.0639L44.9532 70.0378C42.9784 65.4074 38.4495 62.4154 33.4155 62.4154C32.6065 62.4154 31.9507 61.7595 31.9507 60.9505C31.9507 60.1416 32.6065 59.4857 33.4155 59.4857C35.4702 59.4857 37.4563 59.8896 39.2831 60.6373V53.7449C38.0829 53.24 37.3104 52.8484 37.2192 52.8017C36.4989 52.4332 36.2137 51.5508 36.5821 50.8305C36.9504 50.1103 37.8327 49.8252 38.5526 50.1932C38.6147 50.2248 44.8252 53.3642 49.8816 53.3642C52.3693 53.3642 54.2246 51.1242 55.9707 45.6942C53.9662 45.3168 51.7621 44.3377 50.4342 42.4805C49.9637 41.8223 50.1156 40.9075 50.7738 40.4369C51.432 39.9666 52.3469 40.1186 52.8174 40.7766C53.6564 41.9502 55.3025 42.6323 56.7961 42.8627C57.0986 41.7283 57.4002 40.4911 57.7039 39.1459C57.8498 38.5002 58.4103 38.0327 59.0716 38.0049C60.4212 37.9487 61.8781 37.2196 61.8781 36.1395C61.8781 35.6446 61.4154 35.1147 60.6607 34.2911C59.7535 33.3012 58.6246 32.0694 58.1091 30.2016C57.7424 28.8725 57.7119 27.4737 58.0222 25.6323C56.5658 24.4573 54.0055 23.8767 51.0533 24.0698C50.2477 24.1233 49.5488 23.5112 49.4959 22.7038C49.443 21.8966 50.0545 21.1993 50.8619 21.1464C53.8707 20.9485 56.5609 21.4353 58.5644 22.5024C59.1857 17.6613 58.4299 13.6716 56.3094 10.5644C55.3256 13.4771 52.958 15.6556 49.3297 16.9464C47.1121 17.7355 44.9287 18.0032 43.6492 18.0939C43.0084 20.1423 41.1918 24.6671 36.6692 29.3159C36.5772 29.4141 36.4712 29.5001 36.3538 29.5706C35.7219 29.9493 34.9075 29.8011 34.4508 29.2237C34.4173 29.1811 34.3862 29.1374 34.3579 29.0923C33.7936 28.2595 32.8911 27.7634 31.9362 27.7634C30.2848 27.7634 28.9415 29.2108 28.9415 30.9901C28.9415 34.5286 31.4042 37 34.9305 37C35.7395 37 36.3954 37.6559 36.3954 38.4649C36.3954 39.2739 35.7395 39.9297 34.9305 39.9297C32.3757 39.9297 30.1673 39.011 28.587 37.4559C27.5483 38.3301 25.8056 39.6649 23.5901 40.8702C23.9894 42.2575 24.2327 43.7522 24.2327 45.4041C24.2327 50.2143 22.8706 54.9215 21.4695 59.4857H27.5565C28.3655 59.4857 29.0214 60.1416 29.0214 60.9505C29.0214 61.7595 28.3655 62.4154 27.5565 62.4154H20.5712C19.2755 66.7081 18.1087 71.1318 18.1087 75.7263C18.1087 83.5053 19.5978 90.7782 22.661 97.9602C22.9784 98.7043 22.6325 99.5648 21.8882 99.8822C21.7009 99.9621 21.5062 100 21.3144 100ZM70.7978 73.2554L66.1808 76.0776C64.063 77.3722 63.7796 79.5073 64.2205 81.0739C64.6613 82.6405 66.0167 84.3143 68.4988 84.3143H78.0009C77.6964 80.3387 77.1483 76.9868 76.1667 74.8685C75.7126 73.8886 74.8923 73.1761 73.8566 72.8624C72.8308 72.5515 71.7179 72.6937 70.8027 73.2523C70.8017 73.2528 70.8009 73.2532 70.7999 73.2538C70.7993 73.2544 70.7986 73.2548 70.7978 73.2554ZM42.2133 62.2246C42.6366 62.5169 43.045 62.8304 43.4375 63.164C44.0326 60.5148 45.3475 58.0781 47.2793 56.0935C45.5035 55.8361 43.7487 55.3605 42.2133 54.8492V62.2246ZM13.0664 22.3632C10.4451 22.3632 8.09177 23.2253 6.37049 24.8317C4.60116 26.4831 3.62694 28.7804 3.62694 31.3009C3.62694 36.0522 7.03474 39.8643 11.9142 40.5715C14.5945 40.9596 17.365 40.4045 19.9185 39.3688C19.3097 38.0276 18.5501 36.7254 17.7441 35.344C15.7353 31.9005 13.4781 28.0307 13.1576 22.3636C13.1273 22.3634 13.0968 22.3632 13.0664 22.3632ZM55.4437 78.0614C55.2984 78.0614 55.1556 78.0542 55.0158 78.0393C54.2113 77.954 53.6283 77.2325 53.7139 76.428C53.7992 75.6235 54.5183 75.0386 55.3252 75.1261C55.8377 75.18 56.724 74.8579 57.0814 74.4868C57.6429 73.9044 58.5703 73.8874 59.1525 74.4485C59.7351 75.0099 59.7523 75.9372 59.1908 76.5198C58.2943 77.4503 56.7779 78.0614 55.4437 78.0614ZM58.6277 70.7808C58.0511 70.7808 57.4756 70.6612 56.9316 70.4228C56.1908 70.098 55.8533 69.2341 56.1783 68.4931C56.5031 67.7521 57.3668 67.4148 58.108 67.7398C58.4254 67.8786 58.7777 67.8859 59.1006 67.7601C59.4234 67.6339 59.6777 67.3898 59.8168 67.0724C60.1418 66.3316 61.006 65.9939 61.7464 66.3189C62.4875 66.6437 62.8248 67.5075 62.5 68.2486C62.0466 69.2827 61.2177 70.0784 60.166 70.4892C59.6677 70.6837 59.1472 70.7808 58.6277 70.7808ZM51.7172 33.5167C50.0303 33.5167 48.3356 32.8096 47.1656 31.5426C46.6168 30.9483 46.6539 30.0216 47.2483 29.4727C47.843 28.9241 48.7697 28.961 49.3182 29.5554C50.125 30.4292 51.4562 30.8034 52.5545 30.4649C53.3281 30.227 54.1474 30.6606 54.3855 31.4337C54.6236 32.2069 54.1898 33.0266 53.4168 33.2647C52.8652 33.4346 52.2916 33.5167 51.7172 33.5167Z" fill="#3F3F45"/>
</svg>
