<svg width="64" height="65" viewBox="0 0 64 65" fill="none" xmlns="http://www.w3.org/2000/svg">
<path d="M28.9348 63.9632C28.5556 63.9632 28.1764 63.8734 27.8371 63.6937C27.0687 63.3044 26.5897 62.5259 26.5897 61.6675V48.1925C26.5897 47.8731 26.45 47.5637 26.2005 47.3441L12.8683 34.6576C11.9802 33.8691 11.4912 32.7911 11.4912 31.6632V30.8048C11.4912 28.5889 13.3473 26.7822 15.6226 26.7822H48.2944C50.5697 26.7822 52.4258 28.5889 52.4258 30.8048V31.6632C52.4258 32.7911 51.9368 33.8791 51.0786 34.6376L37.6866 47.364C37.457 47.5636 37.3173 47.8631 37.3173 48.1825V55.5488C37.3173 56.8764 36.6487 58.1041 35.531 58.8627L30.2121 63.5739C29.8429 63.8235 29.3939 63.9632 28.9348 63.9632ZM15.6226 28.7785C14.445 28.7785 13.487 29.6868 13.487 30.8048V31.6632C13.487 32.2221 13.7365 32.7611 14.1656 33.1404L27.4978 45.8269C28.1964 46.4457 28.5855 47.2941 28.5855 48.1925V61.6675C28.5855 61.7673 28.6454 61.8671 28.7552 61.917C28.845 61.9669 28.9448 61.9969 29.0845 61.927L34.3934 57.2257C34.9822 56.8464 35.3315 56.2276 35.3315 55.5488V48.1825C35.3315 47.2842 35.7207 46.4357 36.3992 45.8369L49.7813 33.1105C50.1805 32.7511 50.43 32.2121 50.43 31.6532V30.7948C50.43 29.6769 49.472 28.7685 48.2944 28.7685H15.6226V28.7785Z" fill="#0A2B75"/>
<path d="M46.339 9.21911L43.2695 6.14893L36.6507 12.7692L39.7202 15.8394L46.339 9.21911Z" fill="#073FCE"/>
<path d="M38.715 16.8446L35.6455 13.7744L29.0267 20.3947L32.0962 23.4649L38.715 16.8446Z" fill="#073FCE"/>
<path d="M36.3048 6.328L33.2354 3.25781L28.6064 7.88779L31.6759 10.958L36.3048 6.328Z" fill="#073FCE"/>
<path d="M22.4171 8.03356L19.3477 4.96338L16.2782 8.03356L19.3477 11.1037L22.4171 8.03356Z" fill="#073FCE"/>
<path d="M22.6691 19.9696L19.5996 16.8994L16.5301 19.9696L19.5996 23.0398L22.6691 19.9696Z" fill="#073FCE"/>
<path d="M30.4943 12.14L27.4248 9.06982L20.806 15.6901L23.8755 18.7603L30.4943 12.14Z" fill="#073FCE"/>
<path d="M52.6144 16.243L49.5449 13.1729L42.9261 19.7932L45.9956 22.8633L52.6144 16.243Z" fill="#073FCE"/>
<path d="M52.4481 33.6593H11.4802C10.6134 33.6593 9.91992 32.8907 9.91992 31.9524V29.1077C9.91992 28.1595 10.6225 27.4009 11.4802 27.4009H52.439C53.3058 27.4009 53.9992 28.1695 53.9992 29.1077V31.9524C54.0084 32.9007 53.3058 33.6593 52.4481 33.6593Z" fill="white"/>
<path d="M52.4474 34.6575H11.4795C10.1109 34.6575 9.00684 33.4398 9.00684 31.9525V29.1078C9.00684 27.6106 10.12 26.4028 11.4795 26.4028H52.4383C53.807 26.4028 54.911 27.6206 54.911 29.1078V31.9525C54.9201 33.4497 53.807 34.6575 52.4474 34.6575ZM11.4795 28.3991C11.1237 28.3991 10.8317 28.7185 10.8317 29.1078V31.9525C10.8317 32.3418 11.1237 32.6612 11.4795 32.6612H52.4383C52.7942 32.6612 53.0861 32.3418 53.0861 31.9525V29.1078C53.0861 28.7185 52.7942 28.3991 52.4383 28.3991H11.4795Z" fill="#0A2B75"/>
</svg>
