<svg width="190" height="24" viewBox="0 0 190 24" fill="none" xmlns="http://www.w3.org/2000/svg">
<path d="M7.512 19.288C12.312 19.288 14.64 16.888 14.64 14.08C14.64 7.912 4.872 10.048 4.872 6.952C4.872 5.896 5.76 5.032 8.064 5.032C9.552 5.032 11.16 5.464 12.72 6.352L13.92 3.4C12.36 2.416 10.2 1.912 8.088 1.912C3.312 1.912 1.008 4.288 1.008 7.144C1.008 13.384 10.776 11.224 10.776 14.368C10.776 15.4 9.84 16.168 7.536 16.168C5.52 16.168 3.408 15.448 1.992 14.416L0.672 17.344C2.16 18.496 4.848 19.288 7.512 19.288ZM18.9047 4.288C20.2967 4.288 21.2327 3.376 21.2327 2.128C21.2327 0.975999 20.2967 0.111999 18.9047 0.111999C17.5127 0.111999 16.5767 1.024 16.5767 2.2C16.5767 3.376 17.5127 4.288 18.9047 4.288ZM17.0327 19H20.7767V6.088H17.0327V19ZM28.5954 19.192C32.4594 19.192 34.6914 17.488 34.6914 15.088C34.6914 10 26.8914 12.136 26.8914 9.928C26.8914 9.256 27.6114 8.728 29.2914 8.728C30.4674 8.728 31.7394 8.968 33.0114 9.688L34.2594 7.024C33.0354 6.304 31.0674 5.896 29.2914 5.896C25.5234 5.896 23.3154 7.624 23.3154 10.072C23.3154 15.232 31.1154 13.072 31.1154 15.184C31.1154 15.904 30.4674 16.36 28.7394 16.36C27.1554 16.36 25.4034 15.856 24.2514 15.112L23.0034 17.8C24.2034 18.592 26.4114 19.192 28.5954 19.192ZM44.3214 15.736C43.9134 16.048 43.3614 16.216 42.8094 16.216C41.8014 16.216 41.2014 15.616 41.2014 14.512V9.256H44.4174V6.376H41.2014V3.232H37.4574V6.376H35.4654V9.256H37.4574V14.56C37.4574 17.632 39.2334 19.192 42.2814 19.192C43.4334 19.192 44.5614 18.928 45.3294 18.376L44.3214 15.736ZM59.6807 12.592C59.6807 8.44 56.7527 5.896 52.9607 5.896C49.0247 5.896 46.0727 8.68 46.0727 12.544C46.0727 16.384 48.9767 19.192 53.4407 19.192C55.7687 19.192 57.5687 18.472 58.7687 17.104L56.7767 14.944C55.8887 15.784 54.9047 16.192 53.5367 16.192C51.5687 16.192 50.2007 15.208 49.8407 13.6H59.6087C59.6327 13.288 59.6807 12.88 59.6807 12.592ZM52.9847 8.728C54.6647 8.728 55.8887 9.784 56.1527 11.416H49.7927C50.0567 9.76 51.2807 8.728 52.9847 8.728ZM78.7093 5.896C76.7653 5.896 75.0853 6.688 74.0533 8.008C73.1413 6.592 71.6053 5.896 69.8053 5.896C68.1493 5.896 66.7093 6.472 65.7493 7.576V6.088H62.1733V19H65.9173V12.52C65.9173 10.216 67.0933 9.136 68.7493 9.136C70.3093 9.136 71.1973 10.096 71.1973 12.184V19H74.9413V12.52C74.9413 10.216 76.1173 9.136 77.7973 9.136C79.3093 9.136 80.2453 10.096 80.2453 12.184V19H83.9893V11.608C83.9893 7.672 81.7813 5.896 78.7093 5.896ZM92.5532 5.896C90.4892 5.896 88.4012 6.448 86.9852 7.456L88.3292 10.072C89.2652 9.328 90.6812 8.872 92.0492 8.872C94.0652 8.872 95.0252 9.808 95.0252 11.416H92.0492C88.1132 11.416 86.5052 13 86.5052 15.28C86.5052 17.512 88.3052 19.192 91.3292 19.192C93.2252 19.192 94.5692 18.568 95.2652 17.392V19H98.7692V11.632C98.7692 7.72 96.4892 5.896 92.5532 5.896ZM92.2652 16.672C90.9452 16.672 90.1532 16.048 90.1532 15.112C90.1532 14.248 90.7052 13.6 92.4572 13.6H95.0252V14.92C94.5932 16.096 93.5132 16.672 92.2652 16.672ZM109.219 19H116.851C122.347 19 126.115 15.688 126.115 10.6C126.115 5.512 122.347 2.2 116.851 2.2H109.219V19ZM113.107 15.808V5.392H116.659C119.995 5.392 122.179 7.384 122.179 10.6C122.179 13.816 119.995 15.808 116.659 15.808H113.107ZM130.655 4.288C132.047 4.288 132.983 3.376 132.983 2.128C132.983 0.975999 132.047 0.111999 130.655 0.111999C129.263 0.111999 128.327 1.024 128.327 2.2C128.327 3.376 129.263 4.288 130.655 4.288ZM128.783 19H132.527V6.088H128.783V19ZM145.769 6.088V7.744C144.785 6.496 143.297 5.896 141.497 5.896C137.921 5.896 135.041 8.368 135.041 12.136C135.041 15.904 137.921 18.376 141.497 18.376C143.177 18.376 144.593 17.848 145.577 16.768V17.32C145.577 19.648 144.425 20.848 141.785 20.848C140.129 20.848 138.329 20.272 137.225 19.384L135.737 22.072C137.249 23.248 139.625 23.848 142.073 23.848C146.729 23.848 149.321 21.64 149.321 16.84V6.088H145.769ZM142.241 15.304C140.273 15.304 138.833 14.032 138.833 12.136C138.833 10.24 140.273 8.968 142.241 8.968C144.209 8.968 145.625 10.24 145.625 12.136C145.625 14.032 144.209 15.304 142.241 15.304ZM154.678 4.288C156.07 4.288 157.006 3.376 157.006 2.128C157.006 0.975999 156.07 0.111999 154.678 0.111999C153.286 0.111999 152.35 1.024 152.35 2.2C152.35 3.376 153.286 4.288 154.678 4.288ZM152.806 19H156.55V6.088H152.806V19ZM167.345 15.736C166.937 16.048 166.385 16.216 165.833 16.216C164.825 16.216 164.225 15.616 164.225 14.512V9.256H167.441V6.376H164.225V3.232H160.481V6.376H158.489V9.256H160.481V14.56C160.481 17.632 162.257 19.192 165.305 19.192C166.457 19.192 167.585 18.928 168.353 18.376L167.345 15.736ZM175.663 5.896C173.599 5.896 171.511 6.448 170.095 7.456L171.439 10.072C172.375 9.328 173.791 8.872 175.159 8.872C177.175 8.872 178.135 9.808 178.135 11.416H175.159C171.223 11.416 169.615 13 169.615 15.28C169.615 17.512 171.415 19.192 174.439 19.192C176.335 19.192 177.679 18.568 178.375 17.392V19H181.879V11.632C181.879 7.72 179.599 5.896 175.663 5.896ZM175.375 16.672C174.055 16.672 173.263 16.048 173.263 15.112C173.263 14.248 173.815 13.6 175.567 13.6H178.135V14.92C177.703 16.096 176.623 16.672 175.375 16.672ZM185.267 19H189.011V1.192H185.267V19Z" fill="white"/>
</svg>
