<svg width="65" height="65" viewBox="0 0 65 65" fill="none" xmlns="http://www.w3.org/2000/svg">
<path d="M58.7347 42.0119H18.4089L11.6131 6.69746H2.35241C1.80355 6.69746 1.35449 6.2483 1.35449 5.69932C1.35449 5.15034 1.80355 4.70117 2.35241 4.70117H13.2596L15.1756 14.6427L63.6046 14.9521L58.7347 42.0119ZM20.0555 40.0156H57.0682L61.2096 16.9384L15.5549 16.649L20.0555 40.0156Z" fill="#0A2B75"/>
<path d="M30.9426 42.012C30.4237 42.012 29.9846 41.6027 29.9447 41.0837L28.3181 16.3097C28.2781 15.7607 28.6973 15.2816 29.2461 15.2517C29.805 15.2117 30.274 15.631 30.3039 16.1799L31.9305 40.9439C31.9704 41.4929 31.5513 41.972 31.0025 42.002C30.9825 42.002 30.9625 42.012 30.9426 42.012Z" fill="#0A2B75"/>
<path d="M45.2134 42.012C45.1935 42.012 45.1735 42.012 45.1436 42.012C44.5947 41.972 44.1756 41.5029 44.2155 40.9539L45.8421 16.1799C45.882 15.631 46.3511 15.2117 46.8999 15.2517C47.4488 15.2916 47.8679 15.7607 47.828 16.3097L46.2014 41.0737C46.1714 41.6027 45.7324 42.012 45.2134 42.012Z" fill="#0A2B75"/>
<path d="M59.3535 29.6247H17.5008C16.952 29.6247 16.5029 29.1755 16.5029 28.6266C16.5029 28.0776 16.952 27.6284 17.5008 27.6284H59.3535C59.9023 27.6284 60.3514 28.0776 60.3514 28.6266C60.3514 29.1755 59.9123 29.6247 59.3535 29.6247Z" fill="#0A2B75"/>
<path d="M27.8691 62.8933C30.465 62.8933 32.5693 60.7884 32.5693 58.192C32.5693 55.5956 30.465 53.4907 27.8691 53.4907C25.2733 53.4907 23.1689 55.5956 23.1689 58.192C23.1689 60.7884 25.2733 62.8933 27.8691 62.8933Z" fill="#073FCE"/>
<path d="M49.9131 62.8933C52.5089 62.8933 54.6133 60.7884 54.6133 58.192C54.6133 55.5956 52.5089 53.4907 49.9131 53.4907C47.3172 53.4907 45.2129 55.5956 45.2129 58.192C45.2129 60.7884 47.3172 62.8933 49.9131 62.8933Z" fill="#073FCE"/>
<path d="M54.4642 51.7938H19.9762L18.2498 41.1735C18.16 40.6345 18.5292 40.1155 19.0781 40.0257C19.6369 39.9358 20.1358 40.3051 20.2257 40.8541L21.6826 49.7975H54.4642C55.0131 49.7975 55.4621 50.2467 55.4621 50.7957C55.4621 51.3446 55.0131 51.7938 54.4642 51.7938Z" fill="#0A2B75"/>
</svg>
