<svg width="64" height="65" viewBox="0 0 64 65" fill="none" xmlns="http://www.w3.org/2000/svg">
<path d="M47.6058 16.2497C39.9018 8.54401 27.3979 8.54401 19.684 16.2597C12.8583 23.087 12.0799 33.6574 17.319 41.3431C17.9975 42.3513 18.7859 43.2995 19.674 44.1879C20.5123 45.0263 21.4104 45.7749 22.3584 46.4237C30.0524 51.8037 40.7401 51.0551 47.6058 44.1879C55.3197 36.4722 55.3197 23.9654 47.6058 16.2497ZM22.9173 40.9339C16.9996 35.0149 16.9996 25.4127 22.9173 19.4937C28.8349 13.5747 38.4449 13.5647 44.3625 19.4837C50.2902 25.4127 50.2802 35.0249 44.3625 40.9439C38.4449 46.8629 28.8449 46.8629 22.9173 40.9339Z" stroke="#0A2B75" stroke-width="2" stroke-miterlimit="10"/>
<path d="M7.92876 61.2662C7.28012 61.2662 6.68137 61.0167 6.2323 60.5575L3.14874 57.4633C2.69967 57.0141 2.4502 56.4152 2.4502 55.7764C2.4502 55.1376 2.69967 54.5387 3.14874 54.0895L17.4689 39.7661L18.1474 40.7742C18.7861 41.7225 19.5345 42.6308 20.3828 43.4692C21.1711 44.2578 22.0293 44.9764 22.9275 45.5953L23.9154 46.274L9.61524 60.5775C9.16618 61.0267 8.56743 61.2662 7.92876 61.2662ZM17.1994 42.8704L4.5558 55.5169C4.45601 55.6167 4.44603 55.7265 4.44603 55.7964C4.44603 55.8563 4.45601 55.976 4.5558 56.0659L7.63937 59.1601C7.73916 59.2599 7.85891 59.2799 7.92876 59.2799C7.98864 59.2799 8.10839 59.2699 8.1982 59.1701L20.8219 46.5435C20.1732 46.0345 19.5545 45.4855 18.9657 44.8966C18.3271 44.2478 17.7383 43.579 17.1994 42.8704Z" fill="#0A2B75"/>
<path d="M43.6241 30.3137L42.6462 30.1041C42.5564 29.8445 42.4566 29.585 42.3269 29.3455L42.8657 28.497C42.9655 28.3473 42.9456 28.1477 42.8158 28.0179L41.289 26.4908C41.1593 26.361 40.9597 26.341 40.81 26.4409L39.9618 26.9798C39.7123 26.8501 39.4628 26.7503 39.2034 26.6604L38.9938 25.6823C38.9539 25.5026 38.8042 25.3828 38.6246 25.3828H36.4591C36.2795 25.3828 36.1198 25.5126 36.0899 25.6823L35.8803 26.6604C35.6208 26.7503 35.3614 26.8501 35.1219 26.9798L34.2737 26.4409C34.124 26.341 33.9244 26.361 33.7947 26.4908L32.2678 28.0179C32.1381 28.1477 32.1182 28.3473 32.2179 28.497L32.7568 29.3455C32.6271 29.595 32.5273 29.8445 32.4375 30.1041L31.4595 30.3137C31.2799 30.3536 31.1602 30.5033 31.1602 30.683V32.849C31.1602 33.0286 31.2899 33.1883 31.4595 33.2183L32.4375 33.4279C32.5273 33.6874 32.6271 33.9469 32.7568 34.1865L32.2179 35.0349C32.1182 35.1846 32.1381 35.3843 32.2678 35.514L33.7947 37.0412C33.9244 37.1709 34.124 37.1909 34.2737 37.0911L35.1219 36.5521C35.3714 36.6818 35.6208 36.7817 35.8803 36.8715L36.0899 37.8497C36.1298 38.0293 36.2795 38.1491 36.4591 38.1491H38.6246C38.8042 38.1491 38.9639 38.0194 38.9938 37.8497L39.2034 36.8715C39.4628 36.7817 39.7223 36.6818 39.9618 36.5521L40.81 37.0911C40.9597 37.1909 41.1593 37.1709 41.289 37.0412L42.8158 35.514C42.9456 35.3843 42.9655 35.1846 42.8657 35.0349L42.3269 34.1865C42.4566 33.9369 42.5564 33.6874 42.6462 33.4279L43.6241 33.2183C43.8038 33.1784 43.9235 33.0286 43.9235 32.849V30.683C43.9235 30.5133 43.8038 30.3536 43.6241 30.3137ZM39.8321 31.771C39.8321 33.0386 38.8042 34.0567 37.5468 34.0567C36.2895 34.0567 35.2616 33.0286 35.2616 31.771C35.2616 30.5033 36.2895 29.4852 37.5468 29.4852C38.8042 29.4852 39.8321 30.5033 39.8321 31.771Z" fill="#073FCE"/>
<path d="M60.7884 51.7639L59.8105 51.5542C59.7207 51.2947 59.6209 51.0352 59.4911 50.7957L60.03 49.9472C60.1298 49.7975 60.1098 49.5979 59.9801 49.4681L58.4533 47.941C58.3236 47.8112 58.124 47.7912 57.9743 47.891L57.1261 48.43C56.8766 48.3003 56.6271 48.2005 56.3676 48.1106L56.1581 47.1325C56.1182 46.9528 55.9685 46.833 55.7889 46.833H53.6134C53.4338 46.833 53.2741 46.9628 53.2442 47.1325L53.0346 48.1106C52.7751 48.2005 52.5157 48.3003 52.2762 48.43L51.428 47.891C51.2783 47.7912 51.0787 47.8112 50.949 47.941L49.4221 49.4681C49.2924 49.5979 49.2725 49.7975 49.3722 49.9472L49.9111 50.7957C49.7814 51.0452 49.6816 51.2947 49.5918 51.5542L48.6138 51.7639C48.4342 51.8038 48.3145 51.9535 48.3145 52.1332V54.2992C48.3145 54.4788 48.4442 54.6385 48.6138 54.6685L49.5918 54.8781C49.6816 55.1376 49.7814 55.3971 49.9111 55.6367L49.3722 56.4851C49.2725 56.6348 49.2924 56.8344 49.4221 56.9642L50.949 58.4914C51.0787 58.6211 51.2783 58.6411 51.428 58.5413L52.2762 58.0023C52.5257 58.132 52.7751 58.2319 53.0346 58.3217L53.2442 59.2999C53.2841 59.4795 53.4338 59.5993 53.6134 59.5993H55.7789C55.9585 59.5993 56.1182 59.4696 56.1481 59.2999L56.3577 58.3217C56.6171 58.2319 56.8766 58.132 57.1161 58.0023L57.9643 58.5413C58.114 58.6411 58.3136 58.6211 58.4433 58.4914L59.9701 56.9642C60.0999 56.8344 60.1198 56.6348 60.02 56.4851L59.4812 55.6367C59.6109 55.3871 59.7107 55.1376 59.8005 54.8781L60.7784 54.6685C60.9581 54.6285 61.0778 54.4788 61.0778 54.2992V52.1332C61.0878 51.9635 60.9581 51.8038 60.7884 51.7639ZM56.9864 53.2212C56.9864 54.4888 55.9585 55.5069 54.7011 55.5069C53.4338 55.5069 52.4159 54.4788 52.4159 53.2212C52.4159 51.9535 53.4438 50.9354 54.7011 50.9354C55.9585 50.9254 56.9864 51.9535 56.9864 53.2212Z" fill="#073FCE"/>
<path d="M60.7884 9.0131L59.8005 8.79351C59.7107 8.53399 59.6109 8.27447 59.4812 8.03491L60.02 7.18649C60.1198 7.03676 60.0999 6.83714 59.9701 6.70738L58.4433 5.18021C58.3136 5.05045 58.114 5.03049 57.9643 5.1303L57.1161 5.6693C56.8666 5.53954 56.6171 5.43973 56.3577 5.34989L56.1481 4.37171C56.1082 4.19204 55.9585 4.07227 55.7789 4.07227H53.6134C53.4338 4.07227 53.2741 4.20202 53.2442 4.37171L53.0346 5.34989C52.7751 5.43973 52.5157 5.53954 52.2762 5.6693L51.428 5.1303C51.2783 5.03049 51.0787 5.05045 50.949 5.18021L49.4221 6.71736C49.2924 6.84712 49.2725 7.04675 49.3722 7.19647L49.9111 8.04489C49.7814 8.29443 49.6816 8.54397 49.5918 8.80349L48.6138 9.0131C48.4342 9.05302 48.3145 9.20275 48.3145 9.38241V11.5484C48.3145 11.7281 48.4442 11.8878 48.6138 11.9177L49.5918 12.1273C49.6816 12.3868 49.7814 12.6464 49.9111 12.8859L49.3722 13.7343C49.2725 13.8841 49.2924 14.0837 49.4221 14.2134L50.949 15.7406C51.0787 15.8704 51.2783 15.8903 51.428 15.7905L52.2762 15.2515C52.5257 15.3813 52.7751 15.4811 53.0346 15.5709L53.2442 16.5491C53.2841 16.7288 53.4338 16.8486 53.6134 16.8486H55.7789C55.9585 16.8486 56.1182 16.7188 56.1481 16.5491L56.3577 15.5709C56.6171 15.4811 56.8766 15.3813 57.1161 15.2515L57.9643 15.7905C58.114 15.8903 58.3136 15.8704 58.4433 15.7406L59.9701 14.2134C60.0999 14.0837 60.1198 13.8841 60.02 13.7343L59.4812 12.8859C59.6109 12.6364 59.7107 12.3868 59.8005 12.1273L60.7784 11.9177C60.9581 11.8778 61.0778 11.7281 61.0778 11.5484V9.38241C61.0878 9.20275 60.9581 9.05302 60.7884 9.0131ZM56.9864 10.4704C56.9864 11.738 55.9585 12.7562 54.7011 12.7562C53.4338 12.7562 52.4159 11.7281 52.4159 10.4704C52.4159 9.21273 53.4438 8.18464 54.7011 8.18464C55.9585 8.17465 56.9864 9.20275 56.9864 10.4704Z" fill="#073FCE"/>
</svg>
