<svg width="64" height="64" viewBox="0 0 64 64" fill="none" xmlns="http://www.w3.org/2000/svg">
<path d="M33.6001 31.8902C35.2459 31.8902 36.5801 30.556 36.5801 28.9102C36.5801 27.2644 35.2459 25.9302 33.6001 25.9302C31.9543 25.9302 30.6201 27.2644 30.6201 28.9102C30.6201 30.556 31.9543 31.8902 33.6001 31.8902Z" fill="#073FCE"/>
<path d="M33.5996 33.3799C31.5896 33.3799 27.6396 34.3499 27.6396 36.3599V37.8499H39.5696V36.3599C39.5696 34.3499 35.6196 33.3799 33.5996 33.3799Z" fill="#073FCE"/>
<path d="M14.8999 18.0699C16.5457 18.0699 17.8799 16.7357 17.8799 15.0899C17.8799 13.4441 16.5457 12.1099 14.8999 12.1099C13.2541 12.1099 11.9199 13.4441 11.9199 15.0899C11.9199 16.7357 13.2541 18.0699 14.8999 18.0699Z" fill="#073FCE"/>
<path d="M14.9004 19.5601C12.8904 19.5601 8.94043 20.5301 8.94043 22.5401V24.0301H20.8704V22.5401C20.8704 20.5301 16.9204 19.5601 14.9004 19.5601Z" fill="#073FCE"/>
<path d="M54.3404 24.98C55.9862 24.98 57.3204 23.6458 57.3204 22C57.3204 20.3542 55.9862 19.02 54.3404 19.02C52.6945 19.02 51.3604 20.3542 51.3604 22C51.3604 23.6458 52.6945 24.98 54.3404 24.98Z" fill="#073FCE"/>
<path d="M54.3399 26.4702C52.3299 26.4702 48.3799 27.4402 48.3799 29.4502V30.9402H60.2999V29.4502C60.2999 27.4402 56.3499 26.4702 54.3399 26.4702Z" fill="#073FCE"/>
<path d="M35.6402 11.1602C37.286 11.1602 38.6202 9.826 38.6202 8.1802C38.6202 6.53439 37.286 5.2002 35.6402 5.2002C33.9943 5.2002 32.6602 6.53439 32.6602 8.1802C32.6602 9.826 33.9943 11.1602 35.6402 11.1602Z" fill="#073FCE"/>
<path d="M35.6397 12.6499C33.6297 12.6499 29.6797 13.6199 29.6797 15.6299V17.1199H41.5997V15.6299C41.5997 13.6199 37.6497 12.6499 35.6397 12.6499Z" fill="#073FCE"/>
<path d="M48.94 48.67C50.5858 48.67 51.92 47.3358 51.92 45.69C51.92 44.0442 50.5858 42.71 48.94 42.71C47.2942 42.71 45.96 44.0442 45.96 45.69C45.96 47.3358 47.2942 48.67 48.94 48.67Z" fill="#073FCE"/>
<path d="M48.9405 50.1602C46.9305 50.1602 42.9805 51.1302 42.9805 53.1402V54.6302H54.9005V53.1402C54.9005 51.1302 50.9505 50.1602 48.9405 50.1602Z" fill="#073FCE"/>
<path d="M31.3299 52.1302L24.1699 44.9802L27.0099 42.1402C27.7899 41.3602 29.0599 41.3602 29.8499 42.1402L34.1699 46.4602C34.5499 46.8402 34.7599 47.3402 34.7599 47.8802C34.7599 48.4202 34.5499 48.9202 34.1699 49.3002L31.3299 52.1302ZM27.0099 44.9802L31.3399 49.3102L32.7699 47.8702L28.4499 43.5502L27.0099 44.9802Z" fill="#0A2B75"/>
<path d="M18.4703 39.2698L11.3203 32.1198L14.1603 29.2798C14.9403 28.4998 16.2103 28.4998 17.0003 29.2798L21.3203 33.5998C21.7003 33.9798 21.9103 34.4798 21.9103 35.0198C21.9103 35.5598 21.7003 36.0598 21.3203 36.4398L18.4703 39.2698ZM14.1503 32.1198L18.4703 36.4498L19.9003 35.0198L15.5803 30.6998L14.1503 32.1198Z" fill="#0A2B75"/>
<path d="M17.0197 60.61C13.3897 60.61 9.75973 59.23 6.98973 56.46C1.46973 50.94 1.44973 41.99 6.93973 36.49L12.7197 30.71L19.8697 37.86L14.0897 43.64C12.5197 45.21 12.5197 47.77 14.0897 49.34C14.8497 50.1 15.8597 50.52 16.9397 50.52C18.0197 50.52 19.0297 50.1 19.7897 49.34L25.5697 43.56L32.7297 50.71L26.9497 56.49C24.2197 59.24 20.6297 60.61 17.0197 60.61ZM8.35973 37.9C3.64973 42.61 3.66973 50.3 8.40973 55.04C13.1497 59.78 20.8297 59.8 25.5497 55.09L29.9197 50.72L25.5897 46.39L21.2197 50.76C20.0797 51.9 18.5697 52.52 16.9497 52.52C15.3397 52.52 13.8197 51.89 12.6797 50.76C10.3297 48.41 10.3297 44.58 12.6797 42.23L17.0497 37.86L12.7197 33.53L8.35973 37.9Z" fill="#0A2B75"/>
</svg>
