<svg width="40" height="40" viewBox="0 0 40 40" fill="none" xmlns="http://www.w3.org/2000/svg">
<circle cx="20" cy="20" r="19" stroke="#073FCE" stroke-width="2"/>
<g clip-path="url(#clip0)">
<path d="M29.8217 24.4726C29.768 24.3825 29.4355 23.66 27.8353 22.1749C26.1602 20.6198 26.3852 20.8723 28.4029 18.1833C29.6317 16.5457 30.123 15.5456 29.9692 15.1181C29.823 14.7106 28.9192 14.8181 28.9192 14.8181L25.914 14.8356C25.914 14.8356 25.6914 14.8056 25.5252 14.9043C25.3639 15.0018 25.2602 15.2269 25.2602 15.2269C25.2602 15.2269 24.7839 16.4945 24.1488 17.572C22.81 19.846 22.2737 19.966 22.0549 19.8247C21.5461 19.4959 21.6736 18.5021 21.6736 17.7971C21.6736 15.5931 22.0074 14.6743 21.0223 14.4368C20.6948 14.3581 20.4548 14.3055 19.6185 14.2968C18.5459 14.2855 17.6371 14.3005 17.1233 14.5518C16.7808 14.7193 16.517 15.0931 16.6783 15.1144C16.877 15.1406 17.3271 15.2356 17.5658 15.5606C17.8746 15.9794 17.8634 16.922 17.8634 16.922C17.8634 16.922 18.0409 19.5159 17.4496 19.8385C17.0433 20.0597 16.487 19.6084 15.2932 17.5445C14.6819 16.4882 14.2193 15.3194 14.2193 15.3194C14.2193 15.3194 14.1306 15.1019 13.9718 14.9856C13.7793 14.8443 13.5093 14.7993 13.5093 14.7993L10.6516 14.8168C10.6516 14.8168 10.2228 14.8293 10.0653 15.0156C9.92527 15.1819 10.054 15.5244 10.054 15.5244C10.054 15.5244 12.2917 20.7585 14.8244 23.3975C17.1483 25.8164 19.786 25.6576 19.786 25.6576H20.9811C20.9811 25.6576 21.3424 25.6176 21.5261 25.4189C21.6961 25.2364 21.6899 24.8938 21.6899 24.8938C21.6899 24.8938 21.6661 23.29 22.4112 23.0537C23.145 22.8212 24.0876 24.6038 25.0864 25.2901C25.8414 25.8089 26.4152 25.6951 26.4152 25.6951L29.0867 25.6576C29.0867 25.6576 30.4843 25.5714 29.8217 24.4726Z" fill="#073FCE"/>
</g>
<defs>
<clipPath id="clip0">
<rect x="10" y="10" width="20" height="20" fill="white"/>
</clipPath>
</defs>
</svg>
