<svg width="26" height="26" viewBox="0 0 26 26" fill="none" xmlns="http://www.w3.org/2000/svg">
<path d="M14.4359 13.0013L25.702 1.73505C26.0987 1.3384 26.0987 0.69531 25.702 0.298709C25.3054 -0.0978914 24.6623 -0.0979422 24.2657 0.298709L12.9995 11.5649L1.73335 0.298709C1.33669 -0.0979422 0.693601 -0.0979422 0.297 0.298709C-0.0996004 0.695361 -0.0996512 1.33845 0.297 1.73505L11.5632 13.0012L0.297 24.2674C-0.0996512 24.6641 -0.0996512 25.3072 0.297 25.7038C0.495301 25.9021 0.755249 26.0012 1.0152 26.0012C1.27515 26.0012 1.53504 25.9021 1.7334 25.7038L12.9995 14.4376L24.2657 25.7038C24.464 25.9021 24.7239 26.0012 24.9839 26.0012C25.2438 26.0012 25.5037 25.9021 25.702 25.7038C26.0987 25.3071 26.0987 24.664 25.702 24.2674L14.4359 13.0013Z" fill="#006964"/>
</svg>
