<svg width="253" height="61" viewBox="0 0 253 61" fill="none" xmlns="http://www.w3.org/2000/svg">
<path d="M161.686 1.02614C162.302 1.04551 162.917 1.08318 163.533 1.10257L166.449 1.24894C168.23 1.35963 170.011 1.48859 171.758 1.67113C173.731 1.86081 175.736 2.10608 177.637 2.51232C179.314 2.85684 180.989 3.25568 182.631 3.65403C181.793 3.4815 180.987 3.31054 180.149 3.13828C179.278 2.965 178.44 2.79274 177.569 2.63774C176.697 2.48275 175.826 2.32775 174.92 2.22632C174.145 2.12897 173.368 2.04991 172.592 1.97084L172.657 1.97289C170.295 1.75269 167.898 1.60434 165.5 1.51057C164.366 1.45686 163.231 1.42116 162.096 1.38546L160.961 1.34976C159.177 1.32996 157.426 1.29317 155.642 1.27337C154.02 1.25894 152.366 1.22521 150.743 1.2105C150.063 1.18909 149.348 1.20294 148.667 1.2181C145.16 1.27169 141.654 1.30728 138.148 1.34286C137.597 1.34382 137.044 1.36277 136.492 1.382L131.424 1.55067C128.566 1.64294 125.74 1.73625 122.881 1.82853C120.248 1.98281 117.613 2.1551 114.979 2.32738C113.224 2.43607 111.435 2.56228 109.679 2.67096L108.02 2.78296L107.532 2.82224C102.355 3.37021 97.1467 3.89888 91.9697 4.44712C91.8393 4.46105 91.6765 4.47423 91.5134 4.50571C97.8991 3.81061 104.324 3.30126 110.773 2.97882C112.853 2.88008 114.964 2.80091 117.044 2.72045C117.921 2.6934 118.799 2.64807 119.675 2.63904C120.909 2.62321 122.142 2.62568 123.375 2.60985L134.574 2.52451L136.035 2.51584C136.165 2.50162 136.262 2.50469 136.392 2.50876C137.527 2.52646 138.661 2.56215 139.796 2.59786C143.59 2.6989 147.35 2.81722 151.112 2.91725L153.187 2.98253C154.255 3.05276 155.292 3.10342 156.328 3.17263C160.086 3.40011 163.811 3.60856 167.568 3.83605C168.087 3.85238 168.637 3.88799 169.155 3.9226L171.389 4.10215C175.338 4.42691 179.286 4.78797 183.23 5.24018C191.087 6.16189 198.87 7.35474 206.349 8.95709C210.02 9.72153 213.662 10.5656 217.27 11.4881C220.844 12.4027 224.383 13.3705 227.789 14.4622C229.528 15.0117 231.251 15.5886 232.959 16.1924C234.499 16.7329 236.039 17.31 237.512 17.9399C239.059 18.5832 240.564 19.2815 242.022 20.0321C243.363 20.7122 244.671 21.4279 245.815 22.2113C247.054 23.0521 248.227 23.9457 249.203 24.8881C249.643 25.3393 250.083 25.7906 250.458 26.258C250.833 26.7075 251.176 27.1737 251.42 27.6373C251.695 28.1929 251.937 28.7655 252.081 29.335C252.196 29.8129 252.278 30.3075 252.294 30.8C252.328 31.8037 252.135 32.7819 251.65 33.7327C251.368 34.3009 251.025 34.8509 250.625 35.3775C250.287 35.8226 249.916 36.2666 249.481 36.6723C248.612 37.4834 247.582 38.253 246.488 38.9841C245.261 39.8023 243.94 40.5445 242.49 41.2463C241.133 41.9018 239.739 42.5147 238.311 43.0835C235.254 44.318 232.007 45.419 228.666 46.3891C225.26 47.3759 221.761 48.2318 218.199 49.0311C214.571 49.8466 210.848 50.5862 207.094 51.2702C205.3 51.5965 203.471 51.94 201.646 52.2107C198.222 52.7228 194.831 53.2358 191.407 53.7479C189.908 53.9742 188.441 54.1832 186.941 54.4095C186.517 54.4691 186.093 54.5287 185.637 54.587C179.775 55.2593 173.879 55.9488 168.017 56.6211C167.887 56.6353 167.724 56.6485 167.594 56.6625L166.227 56.7837L161.248 57.2286C157.636 57.534 154.056 57.859 150.444 58.1828C149.923 58.221 149.402 58.2776 148.882 58.3159C147.906 58.3947 146.898 58.454 145.923 58.5145C142.097 58.7602 138.271 59.0044 134.444 59.247C133.014 59.3295 131.615 59.4314 130.185 59.514C129.665 59.5343 129.144 59.5725 128.625 59.5925C125.538 59.6959 122.42 59.78 119.334 59.8835C116.086 59.9818 112.805 60.0974 109.557 60.1957C109.167 60.2018 108.777 60.2075 108.355 60.2126C106.993 60.2063 105.597 60.217 104.234 60.2105C100.373 60.1986 96.4783 60.2036 92.617 60.1914C91.6111 60.1961 90.5729 60.1817 89.5669 60.1867L87.8809 60.1336C84.1522 60.0344 80.4563 59.9181 76.7276 59.8191C75.1713 59.7701 73.6473 59.7405 72.091 59.6915C70.275 59.6524 68.4281 59.558 66.6138 59.4645C62.4988 59.2621 58.3852 59.0232 54.2747 58.6753C50.3259 58.3505 46.3457 57.9882 42.4021 57.4997C40.3709 57.2516 38.3456 56.9751 36.3271 56.6703C34.5008 56.3985 32.6818 56.0983 30.8711 55.7698C28.9351 55.4171 27.0327 55.0292 25.1652 54.5694C23.5226 54.1713 21.8805 53.7552 20.3052 53.2863C18.5693 52.7577 16.8666 52.2121 15.2318 51.5774C13.7566 51.0204 12.3472 50.4294 11.0052 49.7673C9.53478 49.0465 8.16367 48.2742 6.95772 47.4161C5.87828 46.653 4.86563 45.8374 4.0166 44.9722C3.10575 44.0139 2.32544 43.0231 1.77418 41.9851C1.2528 41.0207 0.894477 40.0251 0.731545 39.0174C0.409683 36.8747 0.835369 34.6823 2.00303 32.6412C3.10257 30.7071 4.78259 28.8823 6.91045 27.2541C9.03868 25.6259 11.5187 24.1544 14.1901 22.7987C16.8611 21.4425 19.7566 20.1846 22.7449 19.0574C25.8651 17.8798 29.1438 16.8161 32.4529 15.8083C35.8607 14.7673 39.2985 13.7999 42.767 12.8881C43.7807 12.6466 44.7625 12.3859 45.7437 12.1433C45.9073 12.0939 46.0707 12.0624 46.2669 12.0139C46.6354 11.924 47.006 11.8385 47.3784 11.7574C50.7451 10.9883 54.1113 10.2375 57.478 9.46835L60.4195 8.79541C60.5835 8.74593 60.7791 8.71547 60.9747 8.68529C61.464 8.60944 61.9214 8.51456 62.4104 8.4387C65.9023 7.81941 69.4269 7.18312 72.9513 6.56485C73.8977 6.3941 74.811 6.24062 75.7577 6.0696C75.9533 6.03942 76.1158 6.02623 76.3118 5.99606C76.8333 5.92122 77.3873 5.84768 77.9088 5.77284C81.5266 5.26679 85.1774 4.76177 88.7952 4.256L91.6313 3.85321C91.8269 3.82275 92.0219 3.81086 92.2169 3.79869L93.8773 3.6321C97.5231 3.27282 101.202 2.89654 104.88 2.53828C105.498 2.48479 106.118 2.41302 106.736 2.3598C106.898 2.34661 107.094 2.31616 107.289 2.30427C108.264 2.262 109.207 2.20042 110.182 2.14014C113.889 1.91007 117.563 1.69783 121.237 1.46702C121.855 1.43181 122.441 1.3773 123.025 1.35909C124.324 1.32729 125.592 1.27591 126.891 1.24384C130.333 1.15163 133.744 1.04011 137.187 0.947905C137.804 0.930996 138.388 0.931062 139.005 0.93244C140.855 0.917699 142.673 0.901945 144.523 0.886939C146.211 0.867391 147.931 0.866589 149.619 0.84703C149.879 0.836908 150.172 0.828075 150.431 0.836228C150.787 0.847451 151.177 0.841399 151.534 0.852623C154.744 0.917025 157.923 0.962405 161.134 1.02708C161.361 1.03423 161.555 1.04034 161.686 1.02614ZM110.851 4.6218C110.949 4.60658 111.078 4.61066 111.209 4.59673C95.4439 5.41316 79.9376 7.29497 65.1743 10.3304C65.1742 10.3295 65.1742 10.3287 65.1743 10.3279C65.1664 10.3301 65.1582 10.3299 65.1417 10.3293C65.0439 10.3443 64.9456 10.3778 64.8478 10.393C64.9456 10.3778 65.0108 10.3616 65.1086 10.3463C59.5552 11.5206 54.0627 12.8061 48.7906 14.3171C43.5513 15.8111 38.5006 17.4935 33.7346 19.4215C30.743 20.6398 27.8456 21.9703 25.2039 23.4184C23.8172 24.1769 22.4941 24.9737 21.2029 25.7898C20.077 26.5018 18.9184 27.2309 17.8556 27.9995C17.2248 28.4537 16.5935 28.9258 16.0268 29.4003C15.7266 29.6643 15.4257 29.9463 15.1251 30.2104C14.9582 30.351 14.7917 30.4916 14.6574 30.633C14.2553 31.0397 13.886 31.4291 13.4845 31.8176C12.8143 32.489 12.1447 33.1425 11.5712 33.8353C11.8194 33.1688 12.1322 32.5042 12.4776 31.8405C12.6166 31.5531 12.7876 31.267 12.9266 30.9796C13.133 30.6034 13.3395 30.2271 13.5785 29.8519C14.1561 29.0314 14.765 28.2487 15.5352 27.4891C16.3049 26.7476 17.1066 26.0254 18.0364 25.3438C19.0009 24.6086 20.0292 23.8935 21.1533 23.2364C22.1785 22.6307 23.2353 22.0441 24.3565 21.4778C27.16 20.053 30.154 18.7436 33.275 17.5294C36.5105 16.2809 39.8162 15.1322 43.1837 14.0861C45.6654 13.3167 48.1769 12.5994 50.7154 11.9351C49.8652 12.1274 49.015 12.3372 48.1652 12.5293C47.8382 12.6103 47.5117 12.673 47.1846 12.7536C46.6945 12.8658 46.2034 12.9962 45.7127 13.1267C43.054 13.8096 40.4132 14.5286 37.7916 15.2835C35.0897 16.0661 32.4129 16.8935 29.763 17.7653C27.2707 18.5799 24.8749 19.4342 22.5418 20.3634C17.7752 22.3097 13.3244 24.5213 9.6403 27.1212C7.74744 28.5016 6.17496 30.0017 4.95635 31.6039C4.5207 32.2153 4.14296 32.849 3.8258 33.5006C3.5451 34.166 3.29729 34.8327 3.11323 35.5198C2.96285 36.1712 2.87697 36.8428 2.88887 37.4996C2.86997 38.1003 2.94885 38.6864 3.05933 39.2911C3.20385 39.8609 3.38054 40.4314 3.65502 40.987C3.92186 41.5701 4.24003 42.1403 4.60744 42.6938C5.04363 43.2728 5.51199 43.8525 6.07908 44.3989C6.67718 44.983 7.3084 45.5495 8.00544 46.082C8.76698 46.6346 9.56163 47.17 10.4221 47.671C11.3692 48.2041 12.3499 48.7033 13.3605 49.1669C15.1019 49.9374 16.9003 50.633 18.7467 51.2503C20.5879 51.8562 22.4661 52.3959 24.3747 52.8674C26.3073 53.3292 28.2405 53.7731 30.2084 54.1448C32.1439 54.5155 34.1458 54.8336 36.1161 55.1327C38.2798 55.456 40.4446 55.7609 42.6435 56.0123C44.6802 56.2589 46.7181 56.4686 48.7886 56.6616C52.7367 57.0227 56.7185 57.3302 60.7023 57.5651C62.6789 57.6636 64.6549 57.7804 66.6317 57.8609C67.6037 57.9098 68.6089 57.9414 69.5809 57.99C70.099 58.0246 70.5855 58.04 71.1041 58.0563L79.4053 58.2628L89.0354 58.5111C89.4893 58.5254 89.9113 58.5204 90.3333 58.5154C91.696 58.5219 93.0917 58.5112 94.4547 58.5175L106.04 58.4992C106.982 58.4925 107.955 58.5048 108.928 58.4988C109.058 58.5029 109.189 58.489 109.318 58.4931C109.741 58.4698 110.163 58.4647 110.585 58.4417C116.628 58.2308 122.67 58.0381 128.713 57.8272C133.559 57.4876 138.436 57.1851 143.281 56.8638C144.647 56.7792 146.045 56.6773 147.411 56.5927C147.801 56.5684 148.224 56.5454 148.615 56.503C151.836 56.2213 155.026 55.9209 158.247 55.6393C161.176 55.3853 164.073 55.1117 167.002 54.8574C167.489 54.8181 168.011 54.7436 168.5 54.686C170.063 54.4981 171.659 54.3297 173.222 54.1418C176.772 53.7248 180.29 53.3252 183.84 52.9083C184.362 52.8334 184.882 52.7952 185.372 52.7196L188.697 52.2226L199.554 50.5956C200.435 50.4591 201.315 50.3409 202.196 50.1864C205.883 49.555 209.538 48.8862 213.164 48.1435C215.32 47.701 217.444 47.2209 219.569 46.7228C221.531 46.2559 223.493 45.7707 225.425 45.2299C229.288 44.1666 233.025 42.9538 236.509 41.5504C238.121 40.872 239.7 40.1925 241.185 39.4188C241.943 39.0236 242.67 38.6271 243.365 38.1933C243.886 37.8681 244.395 37.5315 244.889 37.184C245.542 36.7365 246.144 36.2494 246.688 35.7277C247.156 35.2867 247.527 34.8244 247.899 34.3621C248.232 33.924 248.507 33.4626 248.721 32.9843C248.894 32.6253 249.003 32.2643 249.112 31.903C249.189 31.5044 249.234 31.1231 249.214 30.7397C249.194 30.338 249.174 29.9546 249.088 29.5689C249.003 29.2016 248.885 28.8386 248.733 28.4825C248.55 28.0898 248.334 27.7056 248.087 27.332C247.652 26.753 247.182 26.1913 246.615 25.6631C246.048 25.0987 245.384 24.5491 244.72 24.0179C242.563 22.4188 239.913 21.041 237.13 19.7686C235.466 19.0237 233.734 18.3494 231.97 17.7106C230.14 17.0698 228.278 16.4279 226.415 15.8407C222.655 14.6468 218.795 13.5777 214.899 12.5984C208.781 11.0752 202.527 9.7665 196.134 8.70866C192.874 8.16842 189.579 7.70031 186.282 7.26848C182.952 6.85393 179.622 6.49398 176.289 6.17031L176.296 6.17052C174.984 6.0599 173.649 5.93552 172.341 5.82725C171.726 5.77157 171.078 5.73289 170.431 5.67619C170.107 5.6477 169.784 5.60093 169.46 5.59073C168.941 5.57441 168.423 5.54008 167.905 5.50548C165.411 5.35407 162.949 5.22197 160.455 5.07056C158.22 4.9456 156.017 4.80336 153.815 4.67942C152.941 4.61531 152.065 4.60606 151.157 4.5775C147.363 4.47645 143.603 4.35813 139.841 4.25782C138.706 4.24041 137.572 4.20471 136.437 4.16901C136.275 4.16391 136.144 4.17812 136.015 4.17403C135.56 4.17805 135.073 4.18075 134.619 4.18476L123.42 4.26981C122.187 4.28592 120.954 4.28373 119.72 4.29929L119.493 4.29214C118.519 4.31613 117.577 4.34141 116.602 4.38341C114.685 4.45067 112.736 4.53523 110.851 4.6218ZM176.424 6.18121C176.493 6.18893 176.569 6.19742 176.645 6.1998L176.424 6.1812L176.424 6.18121ZM65.2066 10.3134C65.2066 10.3134 65.1774 10.3124 65.1739 10.3281C65.1857 10.3244 65.1967 10.3194 65.2066 10.3134ZM176.295 6.17077L176.424 6.18147C176.381 6.17655 176.338 6.17299 176.296 6.17078L176.295 6.17077ZM214.673 12.5552C214.649 12.5497 214.625 12.5445 214.609 12.5349L214.673 12.5552ZM214.737 12.5753L214.673 12.5552C214.696 12.5589 214.718 12.5657 214.737 12.5753ZM17.7394 28.0868C17.7544 28.0741 17.7711 28.0624 17.7892 28.0521L17.7394 28.0868ZM17.6896 28.1219L17.7394 28.0868C17.7225 28.1002 17.706 28.1133 17.6896 28.1219ZM4.89071 31.6201C4.87435 31.6288 4.86568 31.6424 4.85703 31.6557L4.89071 31.6201ZM4.85703 31.6557L4.82373 31.691C4.83873 31.6817 4.8502 31.6696 4.85702 31.656L4.85703 31.6557ZM13.1369 49.0505C13.1689 49.0699 13.2011 49.0709 13.2005 49.0892L13.1369 49.0505ZM65.0759 10.3636C65.1086 10.3463 65.1086 10.3463 65.1412 10.3473L65.0759 10.3636Z" fill="#10B899"/>
</svg>
