<svg width="24" height="20" viewBox="0 0 24 20" fill="none" xmlns="http://www.w3.org/2000/svg">
<path d="M2.4248 8.54228C8.59469 5.85695 12.7089 4.08661 14.7675 3.23127C20.6451 0.789109 21.8664 0.364879 22.6625 0.350722C22.8375 0.34779 23.229 0.391135 23.4826 0.596681C23.6967 0.770241 23.7556 1.00469 23.7838 1.16925C23.812 1.3338 23.8471 1.70866 23.8192 2.00156C23.5007 5.34469 22.1225 13.4576 21.4213 17.202C21.1247 18.7864 20.5405 19.3176 19.9749 19.3696C18.7459 19.4826 17.8126 18.5582 16.6222 17.7787C14.7594 16.5589 13.7071 15.7995 11.899 14.6093C9.80936 13.2337 11.164 12.4776 12.3548 11.242C12.6665 10.9187 18.0818 5.99817 18.1866 5.5518C18.1997 5.49598 18.2118 5.28788 18.0881 5.178C17.9643 5.06812 17.7817 5.1057 17.6499 5.13558C17.4631 5.17794 14.4873 7.14278 8.72257 11.0301C7.87791 11.6095 7.11284 11.8918 6.42736 11.877C5.67168 11.8607 4.21805 11.4502 3.13742 11.0993C1.81199 10.6689 0.758565 10.4413 0.850295 9.71037C0.898073 9.32965 1.42291 8.94028 2.4248 8.54228Z" fill="white"/>
</svg>
