<svg width="31" height="32" viewBox="0 0 31 32" fill="none" xmlns="http://www.w3.org/2000/svg">
<path fill-rule="evenodd" clip-rule="evenodd" d="M25.9766 5.08495C23.1116 2.22286 19.2915 0.696411 15.2804 0.696411C6.87616 0.696411 0 7.56543 0 15.9609C0 18.6322 0.76403 21.3035 2.10106 23.5931L0 31.2254L8.02221 29.1265C10.3143 30.2713 12.7973 31.0346 15.2804 31.0346C23.6846 31.0346 30.5607 24.1656 30.5607 15.7701C30.5607 11.7632 28.8417 7.94704 25.9766 5.08495ZM15.2804 28.5541C12.9883 28.5541 10.6963 27.9817 8.78622 26.8368L8.40419 26.646L3.62907 27.9817L4.96613 23.4023L4.5841 22.8299C3.24707 20.731 2.67405 18.4414 2.67405 16.1517C2.67405 9.28268 8.4042 3.5585 15.2804 3.5585C18.7184 3.5585 21.7745 4.89414 24.2576 7.18382C26.7407 9.66429 27.8867 12.7172 27.8867 16.1517C27.8867 22.8299 22.3475 28.5541 15.2804 28.5541ZM22.1565 19.0138C21.7745 18.823 19.8645 17.869 19.4825 17.869C19.1005 17.6781 18.9094 17.6781 18.7184 18.0598C18.5274 18.4414 17.7634 19.2046 17.5724 19.5862C17.3814 19.777 17.1904 19.777 16.8084 19.777C16.4264 19.5862 15.2804 19.2046 13.7523 17.869C12.6063 16.9149 11.8423 15.5793 11.6513 15.1977C11.4603 14.8161 11.6513 14.6253 11.8423 14.4344C12.0333 14.2436 12.2243 14.0528 12.4153 13.862C12.6063 13.6712 12.6063 13.4804 12.7973 13.2896C12.9883 13.0988 12.7973 12.908 12.7973 12.7172C12.7973 12.5264 12.0333 10.6183 11.6513 9.8551C11.4603 9.28268 11.0783 9.28268 10.8873 9.28268C10.6963 9.28268 10.5052 9.28268 10.1232 9.28268C9.93221 9.28268 9.5502 9.28268 9.16819 9.66429C8.78619 10.0459 7.8312 10.9999 7.8312 12.908C7.8312 14.8161 9.16821 16.5333 9.35921 16.9149C9.55021 17.1057 12.0333 21.1127 15.8534 22.6391C19.1004 23.9747 19.6735 23.5931 20.4375 23.5931C21.2015 23.5931 22.7295 22.6391 22.9205 21.8759C23.3026 20.9219 23.3026 20.1586 23.1116 20.1586C22.9206 19.2046 22.5385 19.2046 22.1565 19.0138Z" fill="white"/>
</svg>
