<svg width="47" height="47" viewBox="0 0 47 47" fill="none" xmlns="http://www.w3.org/2000/svg">
<g clip-path="url(#clip0_0:668)">
<path d="M33.7499 22.826C34.3675 21.6631 34.8875 20.4872 35.219 19.2365C35.778 17.1032 37.8741 15.8003 39.9294 16.3576C41.4489 16.764 42.4903 17.7366 42.8061 19.307C43.143 20.905 42.6274 22.27 41.3276 23.2624C39.2688 24.8431 37.5522 26.7226 35.9594 28.7525C35.7834 28.992 35.7579 29.1077 36.0281 29.2777C36.623 29.6548 37.2237 30.0625 37.7968 30.4914C39.4251 31.716 39.8394 33.885 38.7772 35.6236C38.5139 36.0697 38.2141 36.4911 37.9144 36.9125C37.5557 37.4402 37.2376 37.5168 36.6572 37.216C36.6208 37.1913 36.5815 37.1513 36.4803 37.2023C36.6467 38.0729 36.8159 38.9589 36.9851 39.8448C37.1398 40.6544 36.9572 40.9425 36.147 41.0973C32.8145 41.7339 29.4668 42.3734 26.1343 43.01C26.0273 43.0305 25.905 43.0538 25.7951 43.059C25.3889 43.0891 25.0525 42.8209 24.9795 42.439C24.9066 42.0572 25.1357 41.6809 25.5062 41.5468C25.6256 41.5082 25.7632 41.4819 25.8855 41.4585C28.9122 40.8803 31.9542 40.2992 34.9809 39.721C35.2867 39.6626 35.382 39.5811 35.3207 39.2603C35.0947 38.2428 34.9115 37.2012 34.7313 36.1749C34.6817 35.9152 34.5732 35.7618 34.3577 35.6288C30.9563 33.3338 27.5521 31.0235 24.1479 28.7132C23.4015 28.2067 23.3431 27.9012 23.8655 27.1523C24.1253 26.7702 24.3697 26.3911 24.6353 26.0395C25.846 24.415 28.0262 23.9669 29.7658 25.0278C30.4094 25.4114 31.016 25.8497 31.6379 26.285C31.8199 26.4086 31.9299 26.4034 32.0171 26.1967C32.0142 26.1815 32.0295 26.1785 32.0419 26.1603C32.5323 25.5759 32.6049 24.9604 32.4408 24.1843C31.1263 17.4693 29.8577 10.7456 28.5738 4.02477C28.5067 3.67345 28.3851 3.61752 28.0488 3.68176C21.4938 4.9498 14.9359 6.20256 8.37507 7.44004C8.00819 7.51013 7.93398 7.6193 8.00401 7.98589C8.33513 9.55333 8.62039 11.1295 8.91801 12.6875C9.05224 13.3902 8.84197 13.6995 8.13879 13.8338C6.5337 14.1404 4.92862 14.447 3.32353 14.7537C3.04838 14.8062 3.00182 14.8943 3.05142 15.154C4.91305 24.8991 6.77759 34.6596 8.63921 44.4048C8.7034 44.7408 8.82861 44.7327 9.10377 44.6802C12.2069 44.0874 24.1151 41.8126 27.2183 41.2198C27.3406 41.1964 27.4782 41.1701 27.6034 41.162C28.0096 41.1319 28.346 41.4001 28.4343 41.7791C28.5072 42.1609 28.2933 42.5343 27.9075 42.6713C27.8035 42.707 27.6812 42.7304 27.5742 42.7508C24.15 43.4049 11.936 45.7382 8.51186 46.3923C7.74754 46.5383 7.45626 46.3406 7.31329 45.5922C5.33787 35.2513 3.36536 24.9257 1.38994 14.5848C1.31991 14.2182 1.37148 13.9075 1.58174 13.5982C3.15548 11.3027 4.72629 8.992 6.28182 6.68418C6.4586 6.36544 6.7257 6.18776 7.09257 6.11767C14.3078 4.73934 21.5383 3.3581 28.7536 1.97977C29.4721 1.84252 29.7815 2.05254 29.9216 2.78572C31.1675 9.30797 32.4164 15.8455 33.6623 22.3677C33.6944 22.5358 33.7236 22.6885 33.7499 22.826ZM27.3332 26.0624C26.6577 26.1756 26.1599 26.5557 25.7765 27.1197C25.3931 27.6838 25.3901 27.6685 25.9363 28.0391C29.4133 30.3988 32.9086 32.7709 36.3856 35.1306C36.9864 35.5383 36.9864 35.5383 37.3916 34.9226C38.1279 33.8003 37.9141 32.4321 36.8218 31.6909C34.2309 29.906 31.6124 28.1422 29.0092 26.3755C28.5024 26.0449 27.9294 25.9485 27.3332 26.0624ZM38.442 17.8608C37.6893 18.0679 37.0285 18.59 36.7763 19.5089C36.1111 21.9158 34.9989 24.1389 33.7833 26.3185C33.5941 26.6554 33.1546 27.0085 33.2588 27.3053C33.3659 27.6173 33.8588 27.7923 34.1865 28.0146C34.2047 28.027 34.2382 28.0364 34.2593 28.064C34.3955 28.1964 34.4967 28.1454 34.5956 27.9998C36.3186 25.7392 38.2353 23.6632 40.503 21.9317C41.3451 21.2801 41.5695 20.0498 41.1047 19.1095C40.6763 18.1939 39.5885 17.6418 38.442 17.8608ZM6.63654 9.03871C5.72126 10.3851 4.81835 11.7133 3.90307 13.0598C4.97313 12.8553 6.04319 12.6509 7.11325 12.4465C7.2814 12.4144 7.26097 12.3075 7.23763 12.1853C7.03921 11.1466 6.83788 10.0927 6.63654 9.03871Z" fill="#5FD3D1"/>
<path d="M16.7121 14.2542C20.3044 13.5679 23.8967 12.8817 27.4891 12.1954C28.284 12.0436 28.5752 12.2413 28.7241 13.0203C28.8933 13.9062 29.0655 14.8074 29.2347 15.6933C29.3485 16.289 29.1164 16.65 28.5202 16.7639C21.2438 18.1539 13.9522 19.5468 6.67578 20.9368C6.07961 21.0507 5.74901 20.8131 5.61701 20.205C5.44485 19.3038 5.27269 18.4026 5.10054 17.5014C4.96631 16.7988 5.17366 16.4742 5.87684 16.3398C9.48155 15.6354 13.1045 14.9433 16.7121 14.2542ZM20.5975 16.6783C22.8141 16.2549 25.0306 15.8315 27.2472 15.408C27.5071 15.3584 27.6024 15.2769 27.5193 15.0078C27.4479 14.7997 27.4376 14.5801 27.3967 14.3662C27.2917 13.8163 27.2917 13.8163 26.7567 13.9185C22.6599 14.7012 18.5631 15.4838 14.4663 16.2664C14.0841 16.3394 13.5629 16.2648 13.3803 16.553C13.2377 16.8019 13.4839 17.2615 13.5081 17.6368C13.5417 17.9787 13.688 17.9982 13.9938 17.9398C16.195 17.5193 18.3963 17.0988 20.5975 16.6783ZM9.51481 18.7955C10.2639 18.6524 11.01 18.494 11.7619 18.3662C12.0065 18.3195 12.0531 18.2314 11.994 18.0052C11.9204 17.7026 11.862 17.3971 11.8189 17.0887C11.7875 16.8414 11.6965 16.7797 11.4366 16.8293C10.2625 17.0694 9.06724 17.2819 7.89017 17.5068C7.50801 17.5798 6.96201 17.5416 6.80122 17.7781C6.58803 18.0722 6.90125 18.5506 6.93126 18.9565C6.95974 19.1886 7.03548 19.2532 7.28006 19.2065C8.0473 19.0758 8.78106 18.9356 9.51481 18.7955Z" fill="#5FD3D1"/>
<path d="M18.1679 36.1409C18.7335 36.0329 19.3114 35.9066 19.88 35.8138C20.1245 35.7671 20.2228 35.7009 20.2496 35.4266C20.4374 33.5067 22.0289 31.9678 23.8882 31.9134C25.952 31.8516 27.6189 33.1956 27.9618 35.1566C28.2748 37.0441 27.1785 38.8526 25.2896 39.4984C23.5812 40.0939 21.5528 39.2623 20.6975 37.605C20.5503 37.3323 20.4287 37.2764 20.1383 37.3319C19.0253 37.5603 17.8941 37.7764 16.7752 37.9743C16.2096 38.0823 15.8179 37.8564 15.7151 37.4011C15.6093 36.9305 15.9178 36.5549 16.4987 36.4439C17.052 36.3541 17.6023 36.2489 18.1679 36.1409ZM22.1437 36.9646C22.6267 37.9172 23.8863 38.3732 24.9061 37.9884C26.0729 37.5439 26.6999 36.3475 26.3777 35.1584C26.0642 34.015 24.9108 33.2854 23.7461 33.4921C22.7343 33.6696 21.8472 34.5831 21.8978 35.4284C22.4634 35.3203 23.0137 35.2152 23.5793 35.1072C23.7016 35.0838 23.8392 35.0575 23.9615 35.0342C24.423 34.9618 24.8206 35.2183 24.9023 35.646C24.984 36.0737 24.7242 36.4558 24.2685 36.5587C23.5377 36.7141 22.8469 36.8303 22.1437 36.9646Z" fill="#5FD3D1"/>
<path d="M18.4628 23.4189C22.0399 22.7356 25.6169 22.0522 29.194 21.3689C29.3163 21.3456 29.4538 21.3193 29.5761 21.2959C29.9823 21.2658 30.334 21.5311 30.407 21.913C30.4981 22.3072 30.2566 22.7016 29.8526 22.8263C29.7333 22.8649 29.5928 22.8759 29.4705 22.8993C22.3164 24.2659 15.1623 25.6326 8.00818 26.9992C7.305 27.1336 6.90672 26.9563 6.79514 26.4552C6.68357 25.954 7.01321 25.6061 7.73167 25.4689C11.3087 24.7855 14.8858 24.1022 18.4628 23.4189Z" fill="#5FD3D1"/>
<path d="M18.1252 21.9004C14.5634 22.5808 11.0016 23.2612 7.4246 23.9445C7.28702 23.9708 7.15236 24.0124 7.00894 24.0081C6.61511 24.02 6.27575 23.7365 6.20281 23.3547C6.14806 22.9851 6.36486 22.6271 6.72007 22.4959C6.85473 22.4544 6.99231 22.4281 7.12989 22.4018C14.284 21.0351 21.4381 19.6685 28.5922 18.3018C29.2954 18.1675 29.6936 18.3447 29.8052 18.8459C29.9197 19.3623 29.5871 19.695 28.884 19.8293C25.3098 20.5279 21.7175 21.2141 18.1252 21.9004Z" fill="#5FD3D1"/>
<path d="M14.3381 27.3732C16.356 26.9878 18.3891 26.5994 20.4069 26.2139C20.5292 26.1905 20.6668 26.1643 20.792 26.1562C21.1705 26.1472 21.504 26.4001 21.5894 26.7638C21.6776 27.1427 21.4666 27.5313 21.0809 27.6684C20.9615 27.707 20.8239 27.7333 20.7016 27.7566C16.6507 28.5305 12.615 29.3014 8.5641 30.0753C8.4571 30.0957 8.36538 30.1132 8.25837 30.1337C7.82451 30.1849 7.4393 29.9102 7.3758 29.4948C7.31523 29.0948 7.54731 28.7338 7.96658 28.6062C8.07067 28.5705 8.19588 28.5624 8.30288 28.542C10.3178 28.1412 12.3356 27.7558 14.3381 27.3732Z" fill="#5FD3D1"/>
<path d="M13.7001 32.2448C12.1409 32.5427 10.597 32.8376 9.03775 33.1355C8.77788 33.1851 8.52746 33.2013 8.2908 33.0407C8.05123 32.8648 7.92811 32.635 7.95202 32.3455C7.98538 32.0225 8.16437 31.7983 8.47372 31.6759C8.60838 31.6343 8.74596 31.608 8.88354 31.5817C11.8797 31.0094 14.8911 30.4341 17.8873 29.8618C17.9943 29.8413 18.086 29.8238 18.193 29.8034C18.6575 29.7463 19.0398 30.0057 19.1062 30.4364C19.1697 30.8517 18.9252 31.2309 18.4848 31.3308C17.7693 31.4833 17.0632 31.6024 16.3447 31.7396C15.4734 31.9061 14.5868 32.0755 13.7001 32.2448Z" fill="#5FD3D1"/>
<path d="M26.0552 7.26072C26.3151 7.21107 26.5567 7.14908 26.8195 7.11471C27.2534 7.06349 27.6233 7.34113 27.6992 7.73827C27.775 8.13541 27.5335 8.52985 27.1237 8.62397C26.5916 8.74145 26.0566 8.84366 25.5186 8.93059C25.0877 8.99708 24.7148 8.70417 24.639 8.30703C24.5602 7.89462 24.8199 7.51253 25.2603 7.41257C25.5325 7.34473 25.7924 7.29508 26.0552 7.26072C26.0523 7.24544 26.0523 7.24544 26.0552 7.26072Z" fill="#5FD3D1"/>
<path d="M21.4663 8.12142C21.7262 8.07178 21.9679 8.00978 22.2306 7.97541C22.6645 7.92419 23.0468 8.18364 23.1103 8.59897C23.1891 9.01138 22.9293 9.39347 22.5042 9.49051C21.9874 9.60507 21.4677 9.70436 20.945 9.78837C20.5141 9.85486 20.1289 9.58015 20.0654 9.16481C19.9866 8.7524 20.2463 8.37031 20.6714 8.27327C20.9313 8.22362 21.2064 8.17106 21.4663 8.12142Z" fill="#5FD3D1"/>
<path d="M17.1263 10.5339C16.8817 10.5806 16.6401 10.6426 16.4078 10.6711C15.9463 10.7434 15.5611 10.4687 15.4823 10.0563C15.4036 9.64388 15.6633 9.26179 16.0884 9.16475C16.6052 9.05019 17.125 8.95091 17.6476 8.86689C18.0786 8.8004 18.4638 9.07512 18.5273 9.49046C18.6061 9.90287 18.3463 10.285 17.9212 10.382C17.649 10.4498 17.3862 10.4842 17.1263 10.5339Z" fill="#5FD3D1"/>
<path d="M20.6654 30.1384C20.5866 29.726 20.8434 29.3286 21.2503 29.2192C21.6754 29.1222 22.0912 29.3911 22.1882 29.8158C22.2699 30.2435 21.9854 30.662 21.5727 30.7408C21.1447 30.8226 20.7442 30.5508 20.6654 30.1384Z" fill="#5FD3D1"/>
</g>
<defs>
<clipPath id="clip0_0:668">
<rect width="39.8256" height="39.8256" fill="white" transform="translate(0 7.47266) rotate(-10.8149)"/>
</clipPath>
</defs>
</svg>
