<svg width="42" height="33" viewBox="0 0 42 33" fill="none" xmlns="http://www.w3.org/2000/svg">
<g clip-path="url(#clip0_0:701)">
<path d="M0.0143872 16.2238C0.0673061 14.9417 -0.10909 13.3437 0.0849458 11.7643C0.473018 8.51262 2.18406 6.3758 5.11225 5.27951C7.47596 4.4062 9.92787 4.42478 12.3798 4.57343C15.8901 4.79641 19.3651 4.62918 22.699 3.21701C23.9161 2.69674 25.0803 2.08357 26.2622 1.48897C29.0669 0.0582304 32.0127 -0.257648 35.0644 0.206879C36.2286 0.374109 37.3752 0.634244 38.4512 1.15451C40.7443 2.28796 41.9438 4.16465 41.9791 6.82174C42.0144 9.31161 42.0144 11.8015 41.9791 14.2913C41.9438 16.6697 41.0971 18.788 39.8976 20.7576C37.3575 24.9383 33.8296 27.9484 29.649 30.141C26.5444 31.7761 23.2458 32.5937 19.7884 32.8724C17.2836 33.0768 14.7964 33.0954 12.3092 32.668C9.11644 32.1292 6.17062 30.9771 3.75399 28.6359C1.86655 26.815 0.561216 24.6224 0.137865 21.9096C0.0143872 21.1663 0.0143872 20.4231 0.0143872 19.6798C0.0143872 18.6393 0.0143872 17.5802 0.0143872 16.2238ZM12.7149 5.7812C11.9741 5.7812 11.2508 5.7812 10.51 5.7812C8.83421 5.76262 7.19372 5.87411 5.60615 6.45012C3.18952 7.34201 1.67251 9.05147 1.33736 11.7829C1.07277 13.9197 1.51376 15.9079 2.60742 17.7288C4.44194 20.8133 7.17608 22.5599 10.4218 23.489C14.5671 24.6596 18.7477 24.4923 22.9283 23.7119C27.6381 22.8201 31.7128 20.4974 35.2584 17.1157C37.287 15.1832 38.9627 12.9907 40.0387 10.2964C40.3739 9.44168 40.6032 8.54978 40.709 7.62073C40.9736 5.0008 39.88 3.01262 37.481 2.17647C33.8296 0.894379 30.2135 0.931541 26.6855 2.73391C25.045 3.57005 23.4222 4.44337 21.6759 5.0008C18.7301 5.92985 15.7313 6.04134 12.7149 5.7812ZM40.6738 11.9501C40.5503 12.1731 40.4621 12.3403 40.3739 12.5261C40.2857 12.6934 40.1799 12.8792 40.0917 13.0464C37.3575 17.6545 33.4944 20.869 28.8552 23.1359C25.3978 24.8082 21.7112 25.44 17.9363 25.5701C15.0257 25.6815 12.1505 25.4586 9.3634 24.5295C5.99423 23.4146 3.24244 21.4265 1.42556 18.1748C1.40792 18.1376 1.355 18.119 1.28444 18.0633C1.30208 19.3454 1.19624 20.5717 1.40792 21.7981C1.79599 24.2136 3.01313 26.1646 4.72417 27.7812C7.10552 30.0295 10.0161 31.0515 13.1206 31.4974C16.2781 31.9434 19.4356 31.8133 22.5579 31.2187C29.0845 29.9738 34.3588 26.5177 38.363 20.9434C40.1975 18.2863 41.0971 15.3319 40.6738 11.9501Z" fill="#5FD3D1"/>
<path d="M17.4633 21.7399C14.341 21.7214 11.3247 21.2197 8.53759 19.6217C6.68543 18.5626 5.18606 17.1133 4.37464 14.995C4.05712 14.1589 3.88073 13.3041 3.93365 12.4122C4.02184 10.6285 4.93911 9.45784 6.45612 8.82609C9.19026 7.67406 11.8891 7.95278 14.5174 9.29061C15.223 9.64366 15.7875 10.2383 16.2461 10.9072C16.4754 11.2416 16.7048 11.5947 16.9164 11.9477C17.5515 13.0254 18.4687 13.6943 19.5977 14.0845C21.5027 14.7535 23.4784 15.1994 25.4011 15.8312C26.0714 16.0541 26.7417 16.2585 27.3944 16.5744C27.6061 16.6859 27.8177 16.7788 28.0118 16.9089C29.2642 17.7078 29.2642 18.8227 27.9941 19.5845C26.777 20.3092 25.4187 20.6065 24.0781 20.9224C21.8908 21.4798 19.6859 21.7399 17.4633 21.7399ZM17.2163 20.4578C20.1445 20.4393 22.667 20.0305 25.1541 19.3244C25.9126 19.12 26.6535 18.8785 27.3415 18.5068C27.6766 18.321 27.6413 18.191 27.3415 18.0237C27.1298 17.9122 26.9181 17.8008 26.7064 17.7078C24.819 16.9089 22.861 16.3886 20.8853 15.8869C18.504 15.2737 16.5107 14.1589 15.2936 11.7805C14.8173 10.87 13.9882 10.3312 13.0533 9.9967C12.2772 9.71798 11.4658 9.55075 10.6367 9.47643C9.19026 9.34636 7.77909 9.49501 6.49139 10.2568C5.55649 10.7957 5.1155 11.669 5.15078 12.7839C5.16842 13.3041 5.25662 13.7872 5.43302 14.2889C6.10332 16.1842 7.40866 17.4663 9.04914 18.4139C11.6951 19.9562 14.5704 20.4393 17.2163 20.4578Z" fill="#5FD3D1"/>
<path d="M30.7283 15.0134C28.1352 15.032 25.7186 14.2144 23.3549 13.211C22.3142 12.7651 21.2734 12.282 20.3032 11.6688C19.827 11.3715 19.386 11.0371 19.0685 10.5539C18.5569 9.81071 18.6451 9.04888 19.2978 8.45429C19.9857 7.82253 20.8324 7.54381 21.7144 7.41375C24.0252 7.0607 26.1949 6.29888 28.2058 5.07253C29.3347 4.40361 30.4813 3.77185 31.8043 3.6232C33.1802 3.47455 34.5032 3.6232 35.7556 4.25496C37.2902 5.01678 38.084 6.55902 37.8547 8.36138C37.5901 10.6097 36.5494 12.3935 34.9265 13.8428C33.9211 14.7347 32.6863 14.8833 31.4515 14.9948C31.2222 15.032 30.9752 15.0134 30.7283 15.0134ZM30.7106 13.6942C30.9399 13.6942 31.1869 13.7127 31.4162 13.6942C32.4393 13.5827 33.4801 13.5455 34.3091 12.7465C35.4557 11.6502 36.2495 10.3124 36.5846 8.71442C36.9374 7.09787 36.373 5.8901 34.9794 5.33266C33.5859 4.77523 32.1747 4.70091 30.7636 5.23976C29.9168 5.55564 29.1407 6.03875 28.3646 6.48469C26.4771 7.56239 24.4838 8.28706 22.3494 8.62152C21.6262 8.733 20.903 8.91881 20.268 9.3276C19.9681 9.51341 19.9681 9.69922 20.1974 9.94077C20.4444 10.2009 20.709 10.4053 21.0088 10.5725C21.979 11.1671 23.0021 11.6317 24.0252 12.0776C26.1596 12.9881 28.3646 13.7127 30.7106 13.6942Z" fill="#5FD3D1"/>
<path d="M16.987 30.1201C15.5229 30.1387 14.0764 29.9714 12.6652 29.5998C12.2242 29.4883 11.9949 29.1539 12.1008 28.7637C12.189 28.3921 12.5241 28.2248 12.9475 28.3363C15.7345 29.0238 18.5216 28.9309 21.3087 28.3735C21.3792 28.3549 21.4498 28.3363 21.5203 28.3177C21.9613 28.262 22.2612 28.4292 22.3318 28.8194C22.4023 29.2096 22.1907 29.5255 21.7673 29.5998C21.0264 29.7485 20.2856 29.8785 19.5447 29.9714C18.698 30.0829 17.8513 30.1015 16.987 30.1201Z" fill="#5FD3D1"/>
<path d="M24.5544 28.7449C24.2369 28.7263 23.9899 28.5776 23.9194 28.2618C23.8488 27.9273 23.9547 27.6114 24.2722 27.4999C25.1365 27.2212 26.0009 26.9239 26.8652 26.6081C27.1827 26.4966 27.4473 26.6638 27.5884 26.9797C27.7119 27.2956 27.6413 27.63 27.3415 27.7787C26.4418 28.206 25.4893 28.5033 24.5544 28.7449Z" fill="#5FD3D1"/>
</g>
<defs>
<clipPath id="clip0_0:701">
<rect width="42" height="33" fill="white"/>
</clipPath>
</defs>
</svg>
