<svg width="38" height="41" viewBox="0 0 38 41" fill="none" xmlns="http://www.w3.org/2000/svg">
<g clip-path="url(#clip0_0:782)">
<path d="M17.6533 17.3837C17.6533 21.7417 17.6533 26.1157 17.6533 30.4736C17.6533 30.746 17.7163 30.9383 17.8898 31.1626C19.3566 32.973 19.7509 35.0078 18.915 37.1868C18.0949 39.3177 16.5177 40.5834 14.2782 40.9359C11.8178 41.3204 9.4363 40.0868 8.2692 37.8757C7.10211 35.6968 7.40177 33.0051 9.02624 31.1305C9.19972 30.9222 9.24704 30.73 9.24704 30.4896C9.24704 21.8058 9.24704 13.1379 9.24704 4.45409C9.24704 2.30715 10.5088 0.624855 12.4802 0.128176C14.8617 -0.480655 17.3378 1.26573 17.6217 3.7331C17.6533 4.02149 17.669 4.32591 17.669 4.6143C17.6533 8.87613 17.6533 13.1219 17.6533 17.3837ZM15.9499 17.576C15.9499 13.6346 15.9499 9.69324 15.9499 5.76788C15.9499 5.20711 15.9657 4.64635 15.9342 4.08558C15.8238 2.25909 13.8523 1.15358 12.2752 2.01876C11.25 2.57952 10.903 3.49277 10.903 4.6143C10.903 13.3783 10.903 22.1262 10.9188 30.8902C10.9188 31.3548 10.7926 31.7233 10.4614 32.0758C8.69504 33.8863 8.85275 36.7222 10.7769 38.3404C12.4802 39.7663 14.9879 39.6221 16.4546 38.0199C18.0475 36.2735 18.0475 33.7581 16.4231 32.1079C16.0761 31.7554 15.9499 31.3869 15.9499 30.8902C15.9657 26.4361 15.9499 21.998 15.9499 17.576Z" fill="#5FD3D1"/>
<path d="M22.7002 19.6589C22.7002 20.7163 22.7317 21.7738 22.7002 22.8152C22.6371 24.5456 23.9146 25.7152 25.4759 25.6351C25.9018 25.619 26.3434 25.6351 26.7692 25.6351C28.2675 25.619 29.2611 24.6898 29.4188 23.1837C29.4504 22.7832 29.5765 22.4467 29.9708 22.2865C30.5386 22.0622 31.0906 22.4788 31.1064 23.1196C31.1064 24.3533 30.6332 25.3787 29.75 26.2119C28.8984 27.0129 27.889 27.3815 26.7377 27.3494C26.0122 27.3334 25.2867 27.4135 24.577 27.3013C22.5109 26.9489 21.0599 25.2345 21.0284 23.0395C20.9968 20.7965 20.9968 18.5534 21.0284 16.3103C21.0599 13.9231 22.7002 12.1607 25.0343 12.0004C26.0122 11.9363 27.0058 11.8723 27.9836 12.1286C29.7658 12.5932 31.0748 14.2595 31.1064 16.086C31.1221 16.6788 30.8225 17.0634 30.3336 17.0954C29.8289 17.1274 29.4977 16.791 29.4346 16.1982C29.2611 14.596 28.299 13.7148 26.7061 13.7148C26.1383 13.7148 25.5706 13.6988 25.0186 13.7308C23.8199 13.7949 22.7948 14.8203 22.7475 16.038C22.7002 17.2556 22.7317 18.4733 22.7317 19.6749C22.7159 19.6589 22.7002 19.6589 22.7002 19.6589Z" fill="#5FD3D1"/>
<path d="M35.3174 17.0794C33.9295 17.0794 32.8097 15.9579 32.7939 14.5479C32.7782 13.138 33.9137 11.9684 35.3016 11.9524C36.6737 11.9524 37.8408 13.138 37.825 14.5319C37.825 15.9418 36.6895 17.0794 35.3174 17.0794ZM35.3331 13.6828C34.8758 13.6667 34.4972 14.0513 34.4815 14.4999C34.4657 14.9485 34.86 15.349 35.3016 15.3651C35.7432 15.3811 36.1375 14.9965 36.1533 14.5319C36.1533 14.0833 35.7905 13.6988 35.3331 13.6828Z" fill="#5FD3D1"/>
<path d="M4.18438 8.55589C3.39581 8.55589 2.60723 8.55589 1.81865 8.55589C1.25088 8.55589 0.919677 8.28352 0.840819 7.81889C0.777733 7.3863 1.03008 6.98575 1.44014 6.88962C1.58208 6.85757 1.72402 6.84155 1.86597 6.84155C3.39581 6.84155 4.94142 6.84155 6.47125 6.84155C6.67628 6.84155 6.89708 6.85757 7.08634 6.96973C7.40177 7.14597 7.55949 7.43436 7.51217 7.80287C7.46486 8.18739 7.25983 8.42772 6.88131 8.52385C6.66051 8.58794 6.43971 8.57192 6.21891 8.57192C5.5565 8.55589 4.86256 8.55589 4.18438 8.55589Z" fill="#5FD3D1"/>
<path d="M4.18438 17.0796C4.97296 17.0796 5.76154 17.0796 6.55011 17.0796C7.11789 17.0796 7.44909 17.3519 7.52795 17.8166C7.59103 18.2492 7.33869 18.6497 6.92863 18.7458C6.78668 18.7779 6.64474 18.7939 6.5028 18.7939C4.97296 18.7939 3.42735 18.7939 1.89751 18.7939C1.69248 18.7939 1.47168 18.7779 1.28242 18.6657C0.966992 18.4895 0.809276 18.2011 0.856591 17.8326C0.903905 17.4481 1.10894 17.2077 1.48745 17.1116C1.70825 17.0475 1.92905 17.0635 2.14986 17.0635C2.82803 17.0796 3.50621 17.0796 4.18438 17.0796Z" fill="#5FD3D1"/>
<path d="M4.37363 29.0638C3.42734 29.0638 2.67031 29.0638 1.89751 29.0638C1.69248 29.0638 1.47167 29.0477 1.28242 28.9516C0.951214 28.7754 0.777727 28.487 0.840814 28.1024C0.888128 27.7019 1.1247 27.4135 1.51899 27.3975C3.2854 27.3174 5.05181 27.3174 6.83399 27.3975C7.2756 27.4135 7.54371 27.798 7.54371 28.2146C7.54371 28.6312 7.2756 28.9836 6.83399 29.0317C5.95079 29.1278 5.06758 29.0317 4.37363 29.0638Z" fill="#5FD3D1"/>
<path d="M5.87193 11.9525C5.57227 11.9525 5.27261 11.9686 4.97295 11.9525C4.53135 11.9205 4.21592 11.568 4.20015 11.1354C4.18438 10.7349 4.48404 10.3504 4.8941 10.3023C5.54073 10.2382 6.20313 10.2222 6.84977 10.3023C7.2756 10.3504 7.54371 10.7349 7.52794 11.1514C7.51217 11.584 7.21251 11.9045 6.75514 11.9686C6.72359 11.9686 6.67628 11.9846 6.64474 11.9846C6.39239 11.9525 6.12428 11.9525 5.87193 11.9525Z" fill="#5FD3D1"/>
<path d="M5.85615 15.3812C5.58804 15.3812 5.33569 15.3973 5.06758 15.3812C4.54712 15.3492 4.20014 14.9967 4.18437 14.5321C4.18437 14.0674 4.53135 13.6989 5.05181 13.6829C5.60381 13.6669 6.15581 13.6669 6.70782 13.6829C7.19673 13.6989 7.54371 14.0514 7.54371 14.5161C7.54371 14.9647 7.21251 15.3332 6.72359 15.3652C6.4397 15.3973 6.14004 15.3812 5.85615 15.3812Z" fill="#5FD3D1"/>
<path d="M5.87193 22.2066C5.57227 22.2066 5.27261 22.2226 4.97295 22.2066C4.53135 22.1745 4.21592 21.822 4.20015 21.4055C4.18438 20.9889 4.48404 20.5884 4.92564 20.5563C5.5565 20.5082 6.18736 20.5082 6.81822 20.5563C7.25983 20.5884 7.55948 20.9729 7.55948 21.4055C7.54371 21.8541 7.22828 22.1905 6.75514 22.2226C6.45548 22.2226 6.17159 22.2066 5.87193 22.2066Z" fill="#5FD3D1"/>
<path d="M5.88771 23.9527C6.18737 23.9527 6.48703 23.9367 6.78668 23.9527C7.21252 23.9847 7.51217 24.3052 7.54372 24.7378C7.57526 25.1543 7.30714 25.5388 6.88131 25.6029C6.20314 25.683 5.52496 25.6991 4.84679 25.6029C4.4525 25.5388 4.18438 25.1543 4.20015 24.7698C4.21593 24.3532 4.53136 24.0328 4.94142 23.9687C4.97296 23.9687 5.02027 23.9527 5.05182 23.9527C5.3357 23.9367 5.60382 23.9367 5.88771 23.9527C5.88771 23.9367 5.88771 23.9367 5.88771 23.9527Z" fill="#5FD3D1"/>
<path d="M14.2781 25.2185C14.2781 27.5737 14.2781 29.9129 14.2781 32.2681C14.2781 32.5245 14.3412 32.6527 14.5936 32.7808C15.6345 33.2935 16.1707 34.4952 15.9026 35.6007C15.6187 36.7863 14.6251 37.5874 13.458 37.6034C12.3067 37.6034 11.2973 36.8183 10.9977 35.6808C10.7138 34.5593 11.2342 33.3416 12.2752 32.8129C12.5433 32.6687 12.6064 32.5245 12.6064 32.2361C12.5906 27.6218 12.6064 22.9915 12.6064 18.3772C12.6064 18.2009 12.6064 18.0247 12.6221 17.8645C12.6694 17.4479 12.9849 17.1595 13.3949 17.1275C13.7892 17.0954 14.1362 17.3518 14.2466 17.7523C14.2939 17.9125 14.2939 18.0888 14.2939 18.265C14.2781 20.5722 14.2781 22.8953 14.2781 25.2185ZM12.6221 35.0239C12.6221 35.4885 12.9849 35.8731 13.4423 35.8731C13.8839 35.8731 14.2781 35.4725 14.2781 35.0399C14.2781 34.5913 13.8996 34.1908 13.4423 34.1908C12.9849 34.1908 12.6221 34.5593 12.6221 35.0239Z" fill="#5FD3D1"/>
</g>
<defs>
<clipPath id="clip0_0:782">
<rect width="37" height="41" fill="white" transform="translate(0.84082)"/>
</clipPath>
</defs>
</svg>
