<svg width="41" height="29" viewBox="0 0 41 29" fill="none" xmlns="http://www.w3.org/2000/svg">
<g clip-path="url(#clip0_120:742)">
<path d="M41 13.9475C41 13.5624 40.9173 13.2443 40.7024 12.9261C38.8343 9.97926 36.9496 7.04912 35.098 4.10224C34.85 3.7004 34.5524 3.53296 34.0895 3.53296C31.6758 3.5497 29.2621 3.53296 26.8649 3.5497H25.129C25.129 3.5497 25.1125 10.13 25.129 15.1698C25.129 15.5214 25.0298 15.6051 24.6992 15.6051C20.8637 15.5884 17.0448 15.6051 13.2093 15.6051C9.39032 15.6051 5.5879 15.6051 1.76895 15.6051C1.42177 15.6051 1.30605 15.5549 1.30605 15.1698C1.32258 10.1467 1.32258 11.1848 1.32258 6.16171C1.32258 5.2743 1.68629 4.92268 2.54597 4.92268C5.6375 4.92268 5.60444 3.58319 2.49637 3.58319C0.942339 3.58319 0 4.55432 0 6.14497C0 10.1132 0 8.00351 0 11.9718C0 16.007 0 20.0422 0 24.0607C0 24.7639 0.214919 24.9816 0.909274 24.9816C1.60363 24.9816 2.31452 24.9983 3.00887 24.9816C3.25686 24.9816 3.33952 25.0485 3.40565 25.3164C3.90161 27.5099 5.75323 29 7.91895 29C10.0847 29 11.9363 27.5099 12.4323 25.3164C12.4984 25.0151 12.6306 24.9816 12.8786 24.9816C17.954 24.9816 23.0129 24.9816 28.0883 24.9816C28.3694 24.9816 28.4851 25.0318 28.5512 25.3332C29.0306 27.4261 30.8161 28.9331 32.8827 29C35.1476 29.067 37.0653 27.5768 37.5778 25.3332C37.644 25.0485 37.7431 24.9816 38.0077 24.9816C38.702 24.9983 39.3798 24.9816 40.0742 24.9816C40.8016 24.9816 41 24.7806 41 24.0439C41 20.6785 41 17.313 41 13.9475ZM7.91895 27.6606C6.1004 27.6606 4.6125 26.1369 4.62903 24.2951C4.64556 22.47 6.11694 20.9798 7.93548 20.9798C9.75403 20.9798 11.2585 22.4868 11.2419 24.3286C11.2254 26.1536 9.75403 27.6606 7.91895 27.6606ZM25.129 23.257C25.129 23.5751 25.0464 23.6421 24.7323 23.6421C20.7811 23.6253 16.8298 23.6253 12.8786 23.6421C12.581 23.6421 12.4984 23.5584 12.4323 23.2737C11.9363 21.097 10.0681 19.6069 7.88589 19.6236C5.73669 19.6403 3.90161 21.1473 3.40565 23.3072C3.33952 23.5751 3.27339 23.6588 3.00887 23.6421C2.54597 23.6253 2.06653 23.6253 1.60363 23.6421C1.37218 23.6588 1.30605 23.5751 1.30605 23.3407C1.32258 21.3147 1.32258 19.2887 1.30605 17.2795C1.30605 16.9279 1.47137 16.9446 1.70282 16.9446C4.54637 16.9446 7.37339 16.9446 10.2169 16.9446C11.2089 16.9446 12.2008 16.9446 13.1927 16.9446C17.0282 16.9446 20.8472 16.9446 24.6827 16.9279C25.0629 16.9279 25.129 17.0451 25.129 17.3967C25.1125 19.339 25.129 21.298 25.129 23.257ZM34.9988 6.89843C35.1641 6.89843 35.3129 6.89843 35.4286 7.08261C36.6355 9.00813 37.8589 10.9337 39.1319 12.9261C38.9169 12.9261 38.7847 12.9261 38.6524 12.9261C35.8419 12.9261 33.0315 12.9094 30.221 12.9429C29.8242 12.9429 29.7581 12.8257 29.7581 12.4573C29.7746 10.7327 29.7746 8.99139 29.7581 7.26679C29.7581 6.96541 29.8407 6.89843 30.1218 6.89843C31.7419 6.89843 33.3786 6.89843 34.9988 6.89843ZM33.0315 27.6606C31.2129 27.6438 29.7415 26.1201 29.7581 24.2783C29.7746 22.4365 31.279 20.9464 33.1141 20.9798C34.9161 20.9966 36.3875 22.5203 36.371 24.3453C36.3544 26.1704 34.8665 27.6606 33.0315 27.6606ZM39.6774 17.4972C39.6774 18.2674 39.6774 18.2674 38.9004 18.2674C38.702 18.2674 38.4871 18.2841 38.2887 18.2674C37.9415 18.2339 37.677 17.9325 37.6935 17.5976C37.7101 17.2293 37.925 16.9949 38.2722 16.9614C38.669 16.9279 39.0657 16.9614 39.4625 16.9446C39.6278 16.9446 39.6774 17.0283 39.6609 17.179C39.6774 17.2795 39.6774 17.3967 39.6774 17.4972ZM38.7516 15.5884C38.0738 15.5716 37.4621 15.6554 36.9661 16.1744C36.3875 16.7772 36.2056 17.4972 36.4867 18.2841C36.7843 19.0878 37.3794 19.5399 38.2391 19.6069C38.6194 19.6403 39.0161 19.6236 39.3964 19.6069C39.6113 19.5901 39.6774 19.6738 39.6774 19.8915C39.6609 21.0468 39.6774 22.2021 39.6774 23.3574C39.6774 23.5584 39.6113 23.6253 39.4129 23.6253C38.9335 23.6086 38.454 23.6086 37.9746 23.6253C37.7266 23.6421 37.644 23.5584 37.5778 23.2905C37.0653 21.0301 35.1641 19.5399 32.8992 19.6069C30.8161 19.6571 29.0306 21.164 28.5512 23.2905C28.4851 23.5584 28.4024 23.6253 28.1544 23.6253C27.6915 23.6086 27.2121 23.6086 26.7492 23.6253C26.5177 23.6421 26.4185 23.5584 26.4516 23.3239C26.4516 23.2737 26.4516 23.2067 26.4516 23.1565C26.4516 17.2125 26.4516 11.2685 26.4351 5.32453C26.4351 4.95617 26.5177 4.85571 26.8815 4.87245C29.0637 4.88919 31.2625 4.90594 33.4448 4.87245C33.9407 4.87245 34.2052 5.03989 34.3706 5.55894C32.9653 5.55894 31.6097 5.55894 30.254 5.55894C29.8738 5.55894 29.477 5.5422 29.0968 5.55894C28.6835 5.57568 28.419 5.82684 28.419 6.24543C28.419 8.69 28.419 11.1346 28.419 13.5624C28.419 14.0145 28.7 14.2489 29.1794 14.2489C30.469 14.2489 31.775 14.2489 33.0645 14.2489C35.131 14.2489 37.1976 14.2656 39.2641 14.2321C39.5948 14.2321 39.6774 14.3326 39.6609 14.6507C39.6609 15.6051 39.6774 15.6219 38.7516 15.5884Z" fill="#5FD3D1"/>
<path d="M19.8387 18.2841C20.6818 18.2841 21.5085 18.2841 22.3516 18.2841C22.8476 18.2841 23.1451 18.5352 23.1451 18.9371C23.1617 19.3556 22.8476 19.6235 22.3351 19.6235C20.6653 19.6235 19.0121 19.6235 17.3423 19.6235C16.8298 19.6235 16.5157 19.3724 16.5322 18.9538C16.5322 18.5352 16.8298 18.2841 17.3589 18.2841C18.1855 18.2673 19.0121 18.2841 19.8387 18.2841Z" fill="#5FD3D1"/>
<path d="M21.5085 21.6329C21.1779 21.6329 20.8472 21.6497 20.5166 21.6329C20.1033 21.6162 19.8387 21.3148 19.8387 20.9464C19.8553 20.5781 20.1198 20.3102 20.5166 20.3102C21.1779 20.2934 21.8391 20.2934 22.4839 20.3102C22.8807 20.3269 23.1452 20.6116 23.1287 20.9799C23.1287 21.3483 22.8641 21.6329 22.4674 21.6497C22.1533 21.6329 21.8391 21.6329 21.5085 21.6329Z" fill="#5FD3D1"/>
<path d="M30.0886 15.6051C30.4193 15.6051 30.7499 15.5884 31.0806 15.6051C31.4774 15.6218 31.7419 15.8897 31.7419 16.2581C31.7584 16.6432 31.4774 16.9278 31.0641 16.9446C30.4193 16.9613 29.7745 16.9613 29.1298 16.9446C28.7165 16.9446 28.4354 16.6432 28.4354 16.2748C28.4354 15.8897 28.7165 15.6218 29.1298 15.6218C29.4604 15.5884 29.7745 15.6051 30.0886 15.6051Z" fill="#5FD3D1"/>
<path d="M7.95206 22.3025C9.02666 22.3025 9.9194 23.2234 9.9194 24.3117C9.9194 25.4335 9.01013 26.3377 7.919 26.321C6.8444 26.3042 5.95166 25.4168 5.95166 24.3117C5.95166 23.1899 6.86093 22.2857 7.95206 22.3025ZM7.93553 23.642C7.57182 23.642 7.27424 23.9434 7.27424 24.3117C7.27424 24.6801 7.57182 24.9815 7.93553 24.9815C8.29924 24.9815 8.59682 24.6801 8.59682 24.3117C8.59682 23.9434 8.29924 23.642 7.93553 23.642Z" fill="#5FD3D1"/>
<path d="M35.0484 24.3117C35.0484 25.4336 34.1392 26.3377 33.048 26.321C31.9734 26.3042 31.0807 25.4001 31.0807 24.3117C31.0807 23.2066 31.9734 22.3025 33.0811 22.3025C34.1557 22.3025 35.0484 23.2066 35.0484 24.3117ZM33.7259 24.3117C33.7259 23.9434 33.4283 23.642 33.0646 23.642C32.7009 23.642 32.4033 23.9434 32.4033 24.3117C32.4033 24.6801 32.7009 24.9815 33.0646 24.9815C33.4283 24.9647 33.7259 24.6634 33.7259 24.3117Z" fill="#5FD3D1"/>
<path d="M26.4516 3.58325H2.51294V4.87251H26.4516V3.58325Z" fill="#5FD3D1"/>
<path d="M18.8798 4.2194H17.7225V0H26.3854V3.5664H25.2282V1.17206H18.8798V4.2194Z" fill="#5FD3D1"/>
</g>
<defs>
<clipPath id="clip0_120:742">
<rect width="41" height="29" fill="white"/>
</clipPath>
</defs>
</svg>
