<svg width="38" height="41" viewBox="0 0 38 41" fill="none" xmlns="http://www.w3.org/2000/svg">
<g clip-path="url(#clip0_120:234)">
<path d="M17.6535 17.3837C17.6535 21.7417 17.6535 26.1157 17.6535 30.4736C17.6535 30.746 17.7166 30.9383 17.89 31.1626C19.3568 32.973 19.7511 35.0078 18.9152 37.1868C18.0951 39.3177 16.5179 40.5834 14.2784 40.9359C11.818 41.3204 9.43651 40.0868 8.26942 37.8757C7.10233 35.6968 7.40199 33.0051 9.02645 31.1305C9.19994 30.9222 9.24725 30.73 9.24725 30.4896C9.24725 21.8058 9.24725 13.1379 9.24725 4.45409C9.24725 2.30715 10.509 0.624855 12.4804 0.128176C14.8619 -0.480655 17.338 1.26573 17.6219 3.7331C17.6535 4.02149 17.6692 4.32591 17.6692 4.6143C17.6535 8.87613 17.6535 13.1219 17.6535 17.3837ZM15.9501 17.576C15.9501 13.6346 15.9501 9.69324 15.9501 5.76788C15.9501 5.20711 15.9659 4.64635 15.9344 4.08558C15.824 2.25909 13.8525 1.15358 12.2754 2.01876C11.2502 2.57952 10.9033 3.49277 10.9033 4.6143C10.9033 13.3783 10.9033 22.1262 10.919 30.8902C10.919 31.3548 10.7929 31.7233 10.4617 32.0758C8.69525 33.8863 8.85296 36.7222 10.7771 38.3404C12.4804 39.7663 14.9881 39.6221 16.4548 38.0199C18.0478 36.2735 18.0478 33.7581 16.4233 32.1079C16.0763 31.7554 15.9501 31.3869 15.9501 30.8902C15.9659 26.4361 15.9501 21.998 15.9501 17.576Z" fill="#5FD3D1"/>
<path d="M22.7003 19.6591C22.7003 20.7166 22.7319 21.774 22.7003 22.8155C22.6372 24.5458 23.9147 25.7154 25.4761 25.6353C25.9019 25.6193 26.3435 25.6353 26.7694 25.6353C28.2677 25.6193 29.2613 24.69 29.419 23.184C29.4505 22.7834 29.5767 22.447 29.971 22.2867C30.5388 22.0624 31.0908 22.479 31.1065 23.1199C31.1065 24.3536 30.6334 25.379 29.7502 26.2121C28.8985 27.0132 27.8892 27.3817 26.7378 27.3497C26.0123 27.3336 25.2869 27.4137 24.5771 27.3016C22.5111 26.9491 21.0601 25.2348 21.0285 23.0398C20.997 20.7967 20.997 18.5536 21.0285 16.3106C21.0601 13.9233 22.7003 12.1609 25.0345 12.0007C26.0123 11.9366 27.0059 11.8725 27.9838 12.1289C29.766 12.5935 31.075 14.2598 31.1065 16.0863C31.1223 16.6791 30.8227 17.0636 30.3337 17.0956C29.8291 17.1277 29.4978 16.7912 29.4348 16.1984C29.2613 14.5962 28.2992 13.715 26.7063 13.715C26.1385 13.715 25.5707 13.699 25.0187 13.731C23.8201 13.7951 22.7949 14.8205 22.7476 16.0382C22.7003 17.2559 22.7319 18.4735 22.7319 19.6752C22.7161 19.6591 22.7003 19.6591 22.7003 19.6591Z" fill="#5FD3D1"/>
<path d="M35.3176 17.0796C33.9297 17.0796 32.8099 15.9581 32.7941 14.5482C32.7783 13.1383 33.9139 11.9687 35.3018 11.9526C36.6739 11.9526 37.841 13.1383 37.8252 14.5322C37.8252 15.9421 36.6897 17.0796 35.3176 17.0796ZM35.3333 13.683C34.8759 13.667 34.4974 14.0515 34.4817 14.5001C34.4659 14.9487 34.8602 15.3493 35.3018 15.3653C35.7434 15.3813 36.1377 14.9968 36.1534 14.5322C36.1534 14.0835 35.7907 13.699 35.3333 13.683Z" fill="#5FD3D1"/>
<path d="M4.18449 8.55565C3.39591 8.55565 2.60734 8.55565 1.81876 8.55565C1.25099 8.55565 0.919783 8.28328 0.840926 7.81864C0.77784 7.38605 1.03018 6.98551 1.44024 6.88937C1.58219 6.85733 1.72413 6.84131 1.86607 6.84131C3.39591 6.84131 4.94152 6.84131 6.47136 6.84131C6.67639 6.84131 6.89719 6.85733 7.08645 6.96948C7.40188 7.14572 7.5596 7.43412 7.51228 7.80262C7.46497 8.18715 7.25994 8.42747 6.88142 8.52361C6.66062 8.58769 6.43982 8.57167 6.21902 8.57167C5.55661 8.55565 4.86266 8.55565 4.18449 8.55565Z" fill="#5FD3D1"/>
<path d="M4.18444 17.0793C4.97302 17.0793 5.7616 17.0793 6.55017 17.0793C7.11795 17.0793 7.44915 17.3517 7.52801 17.8163C7.59109 18.2489 7.33875 18.6495 6.92869 18.7456C6.78674 18.7776 6.6448 18.7937 6.50286 18.7937C4.97302 18.7937 3.42741 18.7937 1.89757 18.7937C1.69254 18.7937 1.47174 18.7776 1.28248 18.6655C0.967053 18.4892 0.809337 18.2009 0.856652 17.8324C0.903966 17.4478 1.109 17.2075 1.48751 17.1114C1.70831 17.0473 1.92912 17.0633 2.14992 17.0633C2.82809 17.0793 3.50627 17.0793 4.18444 17.0793Z" fill="#5FD3D1"/>
<path d="M4.37376 29.0638C3.42747 29.0638 2.67043 29.0638 1.89763 29.0638C1.6926 29.0638 1.4718 29.0477 1.28254 28.9516C0.951336 28.7754 0.77785 28.487 0.840936 28.1024C0.88825 27.7019 1.12482 27.4135 1.51911 27.3975C3.28552 27.3174 5.05193 27.3174 6.83411 27.3975C7.27572 27.4135 7.54383 27.798 7.54383 28.2146C7.54383 28.6312 7.27572 28.9836 6.83411 29.0317C5.95091 29.1278 5.0677 29.0317 4.37376 29.0638Z" fill="#5FD3D1"/>
<path d="M5.87208 11.9525C5.57243 11.9525 5.27277 11.9686 4.97311 11.9525C4.5315 11.9205 4.21607 11.568 4.2003 11.1354C4.18453 10.7349 4.48419 10.3504 4.89425 10.3023C5.54088 10.2382 6.20329 10.2222 6.84992 10.3023C7.27575 10.3504 7.54387 10.7349 7.5281 11.1514C7.51232 11.584 7.21266 11.9045 6.75529 11.9686C6.72375 11.9686 6.67643 11.9846 6.64489 11.9846C6.39254 11.9525 6.12443 11.9525 5.87208 11.9525Z" fill="#5FD3D1"/>
<path d="M5.85635 15.3812C5.58824 15.3812 5.33589 15.3973 5.06778 15.3812C4.54732 15.3492 4.20034 14.9967 4.18457 14.5321C4.18457 14.0674 4.53154 13.6989 5.052 13.6829C5.60401 13.6669 6.15601 13.6669 6.70801 13.6829C7.19693 13.6989 7.54391 14.0514 7.54391 14.5161C7.54391 14.9647 7.2127 15.3332 6.72379 15.3652C6.4399 15.3973 6.14024 15.3812 5.85635 15.3812Z" fill="#5FD3D1"/>
<path d="M5.87208 22.2063C5.57242 22.2063 5.27277 22.2223 4.97311 22.2063C4.5315 22.1743 4.21607 21.8218 4.2003 21.4052C4.18453 20.9887 4.48419 20.5881 4.92579 20.5561C5.55665 20.508 6.18751 20.508 6.81838 20.5561C7.25998 20.5881 7.55964 20.9726 7.55964 21.4052C7.54387 21.8538 7.22843 22.1903 6.75529 22.2223C6.45563 22.2223 6.17174 22.2063 5.87208 22.2063Z" fill="#5FD3D1"/>
<path d="M5.88792 23.9529C6.18758 23.9529 6.48724 23.9369 6.7869 23.9529C7.21273 23.985 7.51239 24.3054 7.54393 24.738C7.57547 25.1546 7.30736 25.5391 6.88153 25.6032C6.20335 25.6833 5.52518 25.6993 4.847 25.6032C4.45271 25.5391 4.1846 25.1546 4.20037 24.77C4.21614 24.3535 4.53157 24.033 4.94163 23.969C4.97317 23.969 5.02049 23.9529 5.05203 23.9529C5.33592 23.9369 5.60403 23.9369 5.88792 23.9529C5.88792 23.9369 5.88792 23.9369 5.88792 23.9529Z" fill="#5FD3D1"/>
<path d="M14.2782 25.2187C14.2782 27.574 14.2782 29.9132 14.2782 32.2684C14.2782 32.5247 14.3412 32.6529 14.5936 32.7811C15.6345 33.2938 16.1707 34.4954 15.9026 35.6009C15.6187 36.7865 14.6251 37.5876 13.458 37.6037C12.3067 37.6037 11.2973 36.8186 10.9977 35.681C10.7138 34.5595 11.2343 33.3418 12.2752 32.8131C12.5433 32.6689 12.6064 32.5247 12.6064 32.2363C12.5906 27.622 12.6064 22.9917 12.6064 18.3774C12.6064 18.2012 12.6064 18.0249 12.6221 17.8647C12.6695 17.4481 12.9849 17.1597 13.395 17.1277C13.7892 17.0957 14.1362 17.352 14.2466 17.7525C14.2939 17.9128 14.2939 18.089 14.2939 18.2652C14.2782 20.5724 14.2782 22.8956 14.2782 25.2187ZM12.6221 35.0241C12.6221 35.4888 12.9849 35.8733 13.4423 35.8733C13.8839 35.8733 14.2782 35.4727 14.2782 35.0402C14.2782 34.5915 13.8996 34.191 13.4423 34.191C12.9849 34.191 12.6221 34.5595 12.6221 35.0241Z" fill="#5FD3D1"/>
</g>
<defs>
<clipPath id="clip0_120:234">
<rect width="37" height="41" fill="white" transform="translate(0.84082)"/>
</clipPath>
</defs>
</svg>
