<svg width="47" height="47" viewBox="0 0 47 47" fill="none" xmlns="http://www.w3.org/2000/svg">
<g clip-path="url(#clip0_120:457)">
<path d="M33.7498 22.826C34.3674 21.6631 34.8875 20.4872 35.219 19.2365C35.7779 17.1032 37.874 15.8003 39.9293 16.3576C41.4488 16.764 42.4902 17.7366 42.806 19.307C43.143 20.905 42.6274 22.27 41.3276 23.2624C39.2687 24.8431 37.5522 26.7226 35.9594 28.7525C35.7833 28.992 35.7579 29.1077 36.028 29.2777C36.6229 29.6548 37.2237 30.0625 37.7968 30.4914C39.425 31.716 39.8394 33.885 38.7772 35.6236C38.5138 36.0697 38.2141 36.4911 37.9143 36.9125C37.5556 37.4402 37.2375 37.5168 36.6572 37.216C36.6208 37.1913 36.5815 37.1513 36.4803 37.2023C36.6466 38.0729 36.8159 38.9589 36.9851 39.8448C37.1397 40.6544 36.9571 40.9425 36.1469 41.0973C32.8145 41.7339 29.4667 42.3734 26.1343 43.01C26.0273 43.0305 25.905 43.0538 25.795 43.059C25.3888 43.0891 25.0524 42.8209 24.9795 42.439C24.9065 42.0572 25.1357 41.6809 25.5062 41.5468C25.6255 41.5082 25.7631 41.4819 25.8854 41.4585C28.9122 40.8803 31.9542 40.2992 34.9809 39.721C35.2866 39.6626 35.382 39.5811 35.3207 39.2603C35.0946 38.2428 34.9115 37.2012 34.7313 36.1749C34.6817 35.9152 34.5731 35.7618 34.3576 35.6288C30.9563 33.3338 27.5521 31.0235 24.1478 28.7132C23.4015 28.2067 23.3431 27.9012 23.8655 27.1523C24.1252 26.7702 24.3697 26.3911 24.6353 26.0395C25.846 24.415 28.0261 23.9669 29.7657 25.0278C30.4094 25.4114 31.016 25.8497 31.6378 26.285C31.8199 26.4086 31.9298 26.4034 32.0171 26.1967C32.0142 26.1815 32.0295 26.1785 32.0418 26.1603C32.5323 25.5759 32.6048 24.9604 32.4407 24.1843C31.1263 17.4693 29.8577 10.7456 28.5738 4.02477C28.5067 3.67345 28.3851 3.61752 28.0488 3.68176C21.4938 4.9498 14.9359 6.20256 8.37503 7.44004C8.00815 7.51013 7.93394 7.6193 8.00397 7.98589C8.33508 9.55333 8.62034 11.1295 8.91797 12.6875C9.05219 13.3902 8.84192 13.6995 8.13874 13.8338C6.53366 14.1404 4.92857 14.447 3.32349 14.7537C3.04833 14.8062 3.00177 14.8943 3.05138 15.154C4.913 24.8991 6.77754 34.6596 8.63916 44.4048C8.70336 44.7408 8.82857 44.7327 9.10373 44.6802C12.2069 44.0874 24.1151 41.8126 27.2183 41.2198C27.3406 41.1964 27.4781 41.1701 27.6033 41.162C28.0095 41.1319 28.346 41.4001 28.4342 41.7791C28.5072 42.1609 28.2933 42.5343 27.9075 42.6713C27.8034 42.707 27.6811 42.7304 27.5741 42.7508C24.1499 43.4049 11.936 45.7382 8.51182 46.3923C7.74749 46.5383 7.45622 46.3406 7.31324 45.5922C5.33782 35.2513 3.36532 24.9257 1.38989 14.5848C1.31987 14.2182 1.37143 13.9075 1.5817 13.5982C3.15543 11.3027 4.72625 8.992 6.28177 6.68418C6.45855 6.36544 6.72565 6.18776 7.09253 6.11767C14.3078 4.73934 21.5383 3.3581 28.7535 1.97977C29.472 1.84252 29.7815 2.05254 29.9215 2.78572C31.1675 9.30797 32.4164 15.8455 33.6623 22.3677C33.6944 22.5358 33.7236 22.6885 33.7498 22.826ZM27.3332 26.0624C26.6577 26.1756 26.1599 26.5557 25.7764 27.1197C25.393 27.6838 25.3901 27.6685 25.9362 28.0391C29.4133 30.3988 32.9085 32.7709 36.3856 35.1306C36.9863 35.5383 36.9863 35.5383 37.3916 34.9226C38.1278 33.8003 37.914 32.4321 36.8217 31.6909C34.2309 29.906 31.6124 28.1422 29.0091 26.3755C28.5023 26.0449 27.9294 25.9485 27.3332 26.0624ZM38.4419 17.8608C37.6893 18.0679 37.0285 18.59 36.7762 19.5089C36.1111 21.9158 34.9988 24.1389 33.7832 26.3185C33.5941 26.6554 33.1545 27.0085 33.2587 27.3053C33.3659 27.6173 33.8588 27.7923 34.1865 28.0146C34.2047 28.027 34.2382 28.0364 34.2593 28.064C34.3955 28.1964 34.4966 28.1454 34.5956 27.9998C36.3186 25.7392 38.2353 23.6632 40.503 21.9317C41.345 21.2801 41.5695 20.0498 41.1047 19.1095C40.6762 18.1939 39.5884 17.6418 38.4419 17.8608ZM6.63649 9.03871C5.72122 10.3851 4.81831 11.7133 3.90303 13.0598C4.97309 12.8553 6.04314 12.6509 7.1132 12.4465C7.28135 12.4144 7.26093 12.3075 7.23758 12.1853C7.03917 11.1466 6.83783 10.0927 6.63649 9.03871Z" fill="#5FD3D1"/>
<path d="M16.712 14.2542C20.3043 13.5679 23.8966 12.8817 27.489 12.1954C28.2839 12.0436 28.5751 12.2413 28.724 13.0203C28.8932 13.9062 29.0653 14.8074 29.2346 15.6933C29.3484 16.289 29.1163 16.65 28.5201 16.7639C21.2437 18.1539 13.9521 19.5468 6.67567 20.9368C6.0795 21.0507 5.7489 20.8131 5.6169 20.205C5.44474 19.3038 5.27259 18.4026 5.10043 17.5014C4.96621 16.7988 5.17356 16.4742 5.87674 16.3398C9.48144 15.6354 13.1043 14.9433 16.712 14.2542ZM20.5974 16.6783C22.814 16.2549 25.0305 15.8315 27.2471 15.408C27.5069 15.3584 27.6023 15.2769 27.5192 15.0078C27.4478 14.7997 27.4375 14.5801 27.3966 14.3662C27.2916 13.8163 27.2916 13.8163 26.7566 13.9185C22.6598 14.7012 18.563 15.4838 14.4662 16.2664C14.084 16.3394 13.5628 16.2648 13.3802 16.553C13.2376 16.8019 13.4838 17.2615 13.508 17.6368C13.5416 17.9787 13.6879 17.9982 13.9937 17.9398C16.1949 17.5193 18.3962 17.0988 20.5974 16.6783ZM9.5147 18.7955C10.2637 18.6524 11.0099 18.494 11.7618 18.3662C12.0064 18.3195 12.053 18.2314 11.9939 18.0052C11.9203 17.7026 11.8619 17.3971 11.8188 17.0887C11.7874 16.8414 11.6964 16.7797 11.4365 16.8293C10.2624 17.0694 9.06713 17.2819 7.89007 17.5068C7.5079 17.5798 6.9619 17.5416 6.80111 17.7781C6.58793 18.0722 6.90115 18.5506 6.93115 18.9565C6.95963 19.1886 7.03537 19.2532 7.27995 19.2065C8.0472 19.0758 8.78095 18.9356 9.5147 18.7955Z" fill="#5FD3D1"/>
<path d="M18.1679 36.1409C18.7335 36.0329 19.3115 35.9066 19.88 35.8138C20.1246 35.7671 20.2228 35.7009 20.2496 35.4266C20.4374 33.5067 22.0289 31.9678 23.8882 31.9134C25.952 31.8516 27.6189 33.1956 27.9618 35.1566C28.2748 37.0441 27.1785 38.8526 25.2896 39.4984C23.5813 40.0939 21.5528 39.2623 20.6975 37.605C20.5503 37.3323 20.4287 37.2764 20.1383 37.3319C19.0253 37.5603 17.8941 37.7764 16.7752 37.9743C16.2096 38.0823 15.8179 37.8564 15.7151 37.4011C15.6093 36.9305 15.9178 36.5549 16.4987 36.4439C17.052 36.3541 17.6023 36.2489 18.1679 36.1409ZM22.1437 36.9646C22.6268 37.9172 23.8863 38.3732 24.9061 37.9884C26.0729 37.5439 26.6999 36.3475 26.3777 35.1584C26.0642 34.015 24.9108 33.2854 23.7461 33.4921C22.7343 33.6696 21.8472 34.5831 21.8978 35.4284C22.4634 35.3203 23.0137 35.2152 23.5793 35.1072C23.7016 35.0838 23.8392 35.0575 23.9615 35.0342C24.423 34.9618 24.8206 35.2183 24.9023 35.646C24.984 36.0737 24.7242 36.4558 24.2686 36.5587C23.5377 36.7141 22.8469 36.8303 22.1437 36.9646Z" fill="#5FD3D1"/>
<path d="M18.4627 23.4189C22.0397 22.7356 25.6168 22.0522 29.1938 21.3689C29.3161 21.3456 29.4537 21.3193 29.576 21.2959C29.9822 21.2658 30.3339 21.5311 30.4069 21.913C30.498 22.3072 30.2565 22.7016 29.8525 22.8263C29.7331 22.8649 29.5926 22.8759 29.4703 22.8993C22.3162 24.2659 15.1621 25.6326 8.00804 26.9992C7.30486 27.1336 6.90658 26.9563 6.79501 26.4552C6.68343 25.954 7.01307 25.6061 7.73154 25.4689C11.3086 24.7855 14.8856 24.1022 18.4627 23.4189Z" fill="#5FD3D1"/>
<path d="M18.1252 21.9004C14.5634 22.5808 11.0016 23.2612 7.42458 23.9445C7.287 23.9708 7.15234 24.0124 7.00893 24.0081C6.61509 24.02 6.27574 23.7365 6.20279 23.3547C6.14805 22.9851 6.36485 22.6271 6.72005 22.4959C6.85471 22.4544 6.99229 22.4281 7.12987 22.4018C14.284 21.0351 21.4381 19.6685 28.5922 18.3018C29.2953 18.1675 29.6936 18.3447 29.8052 18.8459C29.9197 19.3623 29.5871 19.695 28.8839 19.8293C25.3098 20.5279 21.7175 21.2141 18.1252 21.9004Z" fill="#5FD3D1"/>
<path d="M14.338 27.3732C16.3558 26.9878 18.3889 26.5994 20.4068 26.2139C20.5291 26.1905 20.6666 26.1643 20.7918 26.1562C21.1704 26.1472 21.5039 26.4001 21.5892 26.7638C21.6775 27.1427 21.4665 27.5313 21.0807 27.6684C20.9613 27.707 20.8238 27.7333 20.7015 27.7566C16.6505 28.5305 12.6149 29.3014 8.56396 30.0753C8.45696 30.0957 8.36524 30.1132 8.25823 30.1337C7.82438 30.1849 7.43916 29.9102 7.37567 29.4948C7.31509 29.0948 7.54717 28.7338 7.96644 28.6062C8.07053 28.5705 8.19574 28.5624 8.30275 28.542C10.3177 28.1412 12.3355 27.7558 14.338 27.3732Z" fill="#5FD3D1"/>
<path d="M13.7002 32.2448C12.141 32.5427 10.597 32.8376 9.0378 33.1355C8.77793 33.1851 8.52751 33.2013 8.29085 33.0407C8.05127 32.8648 7.92815 32.635 7.95206 32.3455C7.98542 32.0225 8.16442 31.7983 8.47377 31.6759C8.60843 31.6343 8.74601 31.608 8.88358 31.5817C11.8797 31.0094 14.8912 30.4341 17.8874 29.8618C17.9944 29.8413 18.0861 29.8238 18.1931 29.8034C18.6575 29.7463 19.0398 30.0057 19.1062 30.4364C19.1697 30.8517 18.9253 31.2309 18.4849 31.3308C17.7693 31.4833 17.0632 31.6024 16.3448 31.7396C15.4734 31.9061 14.5868 32.0755 13.7002 32.2448Z" fill="#5FD3D1"/>
<path d="M26.0551 7.26072C26.3149 7.21107 26.5566 7.14908 26.8194 7.11471C27.2533 7.06349 27.6232 7.34113 27.699 7.73827C27.7749 8.13541 27.5334 8.52985 27.1236 8.62397C26.5914 8.74145 26.0564 8.84366 25.5185 8.93059C25.0875 8.99708 24.7147 8.70417 24.6388 8.30703C24.56 7.89462 24.8198 7.51253 25.2602 7.41257C25.5324 7.34473 25.7923 7.29508 26.0551 7.26072C26.0521 7.24544 26.0521 7.24544 26.0551 7.26072Z" fill="#5FD3D1"/>
<path d="M21.4662 8.12142C21.726 8.07178 21.9677 8.00978 22.2305 7.97541C22.6644 7.92419 23.0466 8.18364 23.1101 8.59897C23.1889 9.01138 22.9292 9.39347 22.5041 9.49051C21.9873 9.60507 21.4675 9.70436 20.9449 9.78837C20.5139 9.85486 20.1287 9.58015 20.0652 9.16481C19.9864 8.7524 20.2462 8.37031 20.6713 8.27327C20.9311 8.22362 21.2063 8.17106 21.4662 8.12142Z" fill="#5FD3D1"/>
<path d="M17.1263 10.5339C16.8817 10.5806 16.64 10.6426 16.4078 10.6711C15.9463 10.7434 15.5611 10.4687 15.4823 10.0563C15.4035 9.64388 15.6633 9.26179 16.0884 9.16475C16.6052 9.05019 17.125 8.95091 17.6476 8.86689C18.0786 8.8004 18.4638 9.07512 18.5273 9.49046C18.606 9.90287 18.3463 10.285 17.9212 10.382C17.649 10.4498 17.3862 10.4842 17.1263 10.5339Z" fill="#5FD3D1"/>
<path d="M20.6653 30.1384C20.5865 29.726 20.8433 29.3286 21.2502 29.2192C21.6753 29.1222 22.0911 29.3911 22.1881 29.8158C22.2698 30.2435 21.9853 30.662 21.5726 30.7408C21.1445 30.8226 20.744 30.5508 20.6653 30.1384Z" fill="#5FD3D1"/>
</g>
<defs>
<clipPath id="clip0_120:457">
<rect width="39.8256" height="39.8256" fill="white" transform="translate(0 7.47266) rotate(-10.8149)"/>
</clipPath>
</defs>
</svg>
