<svg width="38" height="46" viewBox="0 0 38 46" fill="none" xmlns="http://www.w3.org/2000/svg">
<path fill-rule="evenodd" clip-rule="evenodd" d="M17.648 0.649348C16.1469 1.53608 14.4061 2.47829 12.7518 3.29935C9.32056 5.00238 5.47222 6.51647 1.75338 7.62679C0.496937 8.00187 0.330317 8.08181 0.142723 8.39968C0.00445816 8.63384 1.31329e-07 8.8218 1.31329e-07 14.4537C-7.29476e-05 20.4633 0.0302562 21.2813 0.33346 23.4365C0.956019 27.8627 2.66336 32.1607 5.27644 35.8798C8.40371 40.3308 13.4907 44.3908 17.6846 45.7827C18.5585 46.0728 19.4442 46.0724 20.3154 45.7815C24.5391 44.3711 29.5889 40.3413 32.7236 35.8798C35.3366 32.1607 37.044 27.8627 37.6665 23.4365C37.9697 21.2813 38.0001 20.4633 38 14.4537C38 8.8218 37.9955 8.63384 37.8573 8.39968C37.6697 8.08181 37.5031 8.00187 36.2466 7.62671C33.3331 6.75689 29.8988 5.45295 26.9291 4.089C25.6138 3.48497 22.3795 1.82843 21.4116 1.26305C19.4242 0.102153 19.2248 -0.00171526 18.9874 2.09063e-05C18.8181 0.00130416 18.4112 0.198548 17.648 0.649348ZM20.352 2.86863C23.487 4.66911 26.4416 6.07276 30.583 7.72914C31.1972 7.97477 34.7192 9.18534 35.6985 9.48735L36.137 9.62262L36.1335 14.9066C36.13 20.2317 36.1094 20.782 35.8343 22.9458C35.3449 26.7951 33.8592 30.7544 31.6562 34.08C29.8669 36.781 27.371 39.3567 24.679 41.2802C22.5697 42.7872 19.9456 44.0818 19 44.0818C18.3318 44.0818 16.5567 43.3209 14.9076 42.3277C11.6565 40.3694 8.49001 37.3198 6.34383 34.08C4.47206 31.2543 3.19764 28.1909 2.48366 24.8004C1.95998 22.314 1.89135 21.2682 1.84743 15.1081C1.82544 12.0148 1.83669 9.69509 1.87389 9.65667C1.90962 9.61976 2.48081 9.42214 3.1432 9.21742C8.17585 7.66226 13.4852 5.32153 18.0481 2.64632C18.5496 2.3523 18.9771 2.11211 18.9982 2.11249C19.0193 2.11286 19.6285 2.45315 20.352 2.86863ZM12.0063 7.92118C11.2061 8.42505 11.5365 9.6615 12.4707 9.65984C12.9896 9.65893 13.3973 9.24391 13.3973 8.7168C13.3973 7.97742 12.6215 7.53364 12.0063 7.92118ZM9.49974 8.95767C9.43945 8.97986 8.83107 9.21229 8.14779 9.47414C7.4645 9.73608 6.29706 10.1591 5.55348 10.4142C4.35952 10.8239 4.17376 10.9099 3.96402 11.1499L3.72651 11.4217L3.7268 13.5794C3.72702 15.5861 3.73704 15.7539 3.86975 15.9786C4.23339 16.5948 4.99436 16.6093 5.38686 16.0078C5.54727 15.7619 5.55348 15.693 5.55348 14.1499C5.55348 12.9573 5.57687 12.5285 5.64483 12.4739C5.69511 12.4336 6.19658 12.24 6.75929 12.0437C9.32962 11.1469 10.26 10.7507 10.5237 10.4404C11.1165 9.74302 10.3567 8.6429 9.49974 8.95767ZM27.0514 13.9658C26.8373 13.9975 26.4427 14.1334 26.1744 14.2679C25.7282 14.4914 25.2729 14.9386 20.8256 19.5208L15.9644 24.5293L14.2119 22.7106C13.248 21.7104 12.2851 20.7745 12.0721 20.6309C11.5699 20.2924 11.1164 20.1547 10.5004 20.1537C9.87515 20.1526 9.41848 20.2697 8.95165 20.5506C7.53611 21.4023 7.04349 23.1007 7.7533 24.682C7.95325 25.1274 8.25426 25.4623 11.0204 28.3162C12.6961 30.0451 14.211 31.5513 14.3868 31.6632C15.3246 32.2605 16.7168 32.2483 17.613 31.6349C18.0203 31.3561 29.8396 19.144 30.121 18.7112C30.6385 17.9151 30.7099 16.6679 30.2919 15.7205C30.0875 15.2569 29.5408 14.6281 29.1216 14.3743C28.5011 13.9988 27.7839 13.8572 27.0514 13.9658ZM28.0127 15.9531C28.3267 16.0886 28.6286 16.4679 28.6895 16.8033C28.8105 17.4697 29.03 17.2148 22.6298 23.8404C19.1799 27.4119 16.5996 30.0254 16.4628 30.0869C16.1593 30.2232 15.8454 30.2208 15.5182 30.0795C15.1555 29.923 9.54257 24.127 9.39115 23.7526C9.24587 23.3935 9.25361 23.1275 9.42038 22.7483C9.65387 22.2171 10.1925 21.9641 10.7604 22.1188C11.0297 22.1921 11.362 22.5027 13.2633 24.4578C14.4903 25.7195 15.5508 26.749 15.6716 26.7957C15.7916 26.842 16.019 26.8573 16.1832 26.8301C16.4573 26.7847 16.8591 26.389 21.7039 21.3945C24.5777 18.4318 27.0113 15.9745 27.1118 15.9338C27.3755 15.8269 27.7383 15.8347 28.0127 15.9531ZM29.3041 31.1518C29.1034 31.228 28.9296 31.4299 28.4408 32.1541C27.3797 33.7263 25.6853 35.6043 24.1886 36.8673C23.3586 37.5676 23.1655 37.8219 23.1655 38.2144C23.1655 38.9752 23.8453 39.4015 24.5005 39.0516C25.1877 38.6845 27.7052 36.2265 28.7875 34.8659C29.5047 33.9643 30.2483 32.9161 30.4269 32.5552C30.6699 32.064 30.5209 31.4321 30.1104 31.2128C29.8987 31.0997 29.5173 31.0709 29.3041 31.1518ZM21.3689 38.9806C21.2449 39.0363 21.069 39.1794 20.978 39.2984C20.7548 39.5905 20.7913 40.216 21.0479 40.4981C21.4369 40.9258 22.0972 40.904 22.4659 40.4512C23.1219 39.6459 22.31 38.5574 21.3689 38.9806Z" fill="#5FD3D1"/>
</svg>
