<svg width="40" height="32" viewBox="0 0 40 32" fill="none" xmlns="http://www.w3.org/2000/svg">
<g clip-path="url(#clip0_120:1551)">
<path d="M13.349 30.3494C13.4271 29.0488 13.5053 27.7147 14.0993 26.4974C14.2243 26.2473 14.0524 26.214 13.9273 26.1639C13.1927 25.8137 12.458 25.4802 11.7233 25.1134C10.4885 24.4964 9.28488 23.8127 8.14381 22.9789C7.9406 22.8289 7.83118 22.8289 7.6905 23.0623C6.39312 25.08 4.50176 26.0472 2.3134 26.4974C1.8601 26.5808 1.4068 26.6308 0.953497 26.6642C0.390778 26.6975 0 26.3307 0.0156311 25.747C0.0468933 23.0957 0.42204 20.5443 1.78195 18.2598C2.03204 17.8429 2.32903 17.4427 2.65729 17.0925C2.76671 16.9758 2.8136 16.8758 2.67292 16.7257C1.10981 14.9581 0.453302 12.7903 0.156311 10.4724C0.0625244 9.72204 0 8.95497 0 8.1879C0 7.42084 0.375147 7.07066 1.07855 7.12068C2.96991 7.25409 4.70496 7.82105 6.22118 9.05502C6.7839 9.52193 7.26846 10.0555 7.65924 10.6892C7.78429 10.8893 7.89371 10.9727 8.11254 10.8059C9.31614 9.90547 10.6292 9.18843 11.9578 8.52141C12.2235 8.38801 12.3017 8.27128 12.2235 7.93777C11.6608 5.78665 10.8792 3.70224 10.1758 1.60114C10.1602 1.50109 10.129 1.40104 10.0821 1.30099C9.83197 0.50057 10.3009 -0.0997426 11.0825 0.0169848C12.0828 0.167063 13.0676 0.300466 14.0524 0.50057C16.4127 0.96748 18.7261 1.58447 20.9144 2.65169C22.2743 3.3187 23.5561 4.10244 24.5408 5.33642C24.6503 5.46982 24.7753 5.4865 24.916 5.51985C27.0105 5.80333 29.027 6.38697 30.934 7.35414C34.1071 8.95497 36.6549 11.3395 38.6557 14.3745C39.0621 14.9914 39.4216 15.6585 39.8124 16.3088C40.0469 16.709 40.0313 17.0759 39.8124 17.4761C37.8585 21.0779 35.2638 23.9795 31.8093 25.9805C29.6522 27.2145 27.3544 27.9815 24.9316 28.2817C24.8535 28.2984 24.7753 28.2984 24.6971 28.315C24.1188 28.3651 23.5248 28.2817 22.9934 28.4818C22.4619 28.6652 22.1649 29.2822 21.696 29.6324C20.1485 30.8164 18.3978 31.4333 16.5377 31.7668C15.8499 31.9002 15.1465 31.9669 14.4431 32.0003C13.6303 32.0503 13.3177 31.7001 13.3333 30.8497C13.349 30.6996 13.349 30.5495 13.349 30.3494ZM22.4775 26.6642C25.1036 26.6308 27.4326 26.1473 29.6366 25.1134C33.263 23.4458 35.9984 20.7111 38.0461 17.1426C38.1555 16.9591 38.1712 16.8257 38.0617 16.6256C35.7796 12.6736 32.6846 9.75539 28.558 8.20458C25.4631 7.03731 22.3056 6.73715 19.0699 7.60427C16.6159 8.27128 14.2712 9.25513 12.0047 10.4558C10.676 11.1561 9.36303 11.8898 8.22196 12.9237C7.65924 13.4406 7.11215 13.3239 6.76827 12.6069C6.5807 12.19 6.37749 11.7898 6.09613 11.4396C5.03322 10.0389 3.56389 9.3385 1.92263 9.005C1.64127 8.95497 1.70379 9.15507 1.71942 9.30515C1.78195 10.4224 1.95389 11.5063 2.28214 12.5735C2.73544 14.0243 3.42321 15.3083 4.65807 16.1921C5.15826 16.5423 5.11137 17.2593 4.61118 17.6262C4.2204 17.9263 3.84525 18.2431 3.54826 18.66C2.28214 20.3776 1.8601 22.412 1.71942 24.5297C1.70379 24.7966 1.82884 24.7799 2.00078 24.7465C4.09535 24.313 5.81477 23.3124 6.79953 21.178C7.14341 20.4276 7.6905 20.3109 8.28449 20.8445C8.644 21.178 9.03478 21.4782 9.44119 21.7616C11.9265 23.4125 14.5995 24.6631 17.3662 25.6303C19.0856 26.2473 20.8675 26.6809 22.4775 26.6642ZM21.9617 5.30307C18.9605 3.3187 15.5842 2.56831 12.1766 1.968C12.1454 2.18478 12.2235 2.30151 12.2704 2.45159C12.7862 4.01907 13.3646 5.56987 13.7397 7.18738C13.8335 7.57092 13.9586 7.62094 14.2868 7.47086C16.0063 6.72047 17.7726 6.10349 19.6014 5.70328C20.383 5.51985 21.1801 5.4198 21.9617 5.30307ZM20.5549 28.265C18.9918 27.9982 17.5694 27.5813 16.1782 27.0644C15.8343 26.931 15.6936 27.0477 15.5529 27.3479C15.1778 28.1816 15.1153 29.0821 15.0371 29.9659C15.0215 30.216 15.1778 30.1493 15.2872 30.1327C16.0063 30.0326 16.7253 29.9326 17.4287 29.7325C18.5229 29.4323 19.5545 29.0154 20.5549 28.265Z" fill="#5FD3D1"/>
<path d="M23.3373 16.8588C23.3842 14.2575 23.8375 11.7895 25.0254 9.48833C25.1818 9.20485 25.3693 8.95472 25.6976 8.90469C26.0102 8.85466 26.2916 8.95472 26.4948 9.2382C26.7136 9.55503 26.7292 9.88854 26.5573 10.222C26.1665 10.9724 25.8383 11.7562 25.6194 12.5899C24.6347 16.3252 24.8066 19.9438 26.4948 23.4289C26.7761 24.0126 26.6823 24.4962 26.2447 24.763C25.807 25.0298 25.3381 24.8463 25.0411 24.296C23.8218 21.9948 23.3842 19.4769 23.3373 16.8588Z" fill="#5FD3D1"/>
<path d="M20.0078 16.859C20.0703 14.2576 20.508 11.773 21.7116 9.47177C21.8679 9.17162 22.0711 8.95484 22.3993 8.90481C22.7276 8.85478 22.9933 8.97151 23.1809 9.25499C23.3997 9.5885 23.3685 9.93868 23.1965 10.2722C22.7901 11.0393 22.4775 11.8397 22.2587 12.6901C21.4771 15.5583 21.5084 18.4431 22.3212 21.2946C22.3837 21.5114 22.4619 21.7115 22.5088 21.9283C22.6182 22.4619 22.3837 22.9288 21.9617 23.0622C21.524 23.1956 21.102 22.9621 20.9144 22.4452C20.6487 21.6448 20.4298 20.8277 20.2891 19.9939C20.1172 18.96 19.9922 17.9262 20.0078 16.859Z" fill="#5FD3D1"/>
<path d="M31.6687 14.2075C31.6843 15.1913 30.9496 15.9918 30.0274 16.0084C29.1052 16.0251 28.3549 15.2247 28.3549 14.2575C28.3549 13.2737 29.0739 12.4732 29.9961 12.4566C30.9027 12.4232 31.653 13.2236 31.6687 14.2075Z" fill="#5FD3D1"/>
</g>
<defs>
<clipPath id="clip0_120:1551">
<rect width="40" height="32" fill="white"/>
</clipPath>
</defs>
</svg>
