<svg width="43" height="40" viewBox="0 0 43 40" fill="none" xmlns="http://www.w3.org/2000/svg">
<mask id="path-1-outside-1_120:1597" maskUnits="userSpaceOnUse" x="0" y="0" width="43" height="40" fill="black">
<rect fill="white" width="43" height="40"/>
<path fill-rule="evenodd" clip-rule="evenodd" d="M26.5679 1.18435C26.2554 1.41994 25.3034 2.33958 23.217 4.42113L21.7277 5.90695L20.5388 5.09222C18.0014 3.35343 16.0603 2.0799 15.9473 2.0799C15.7551 2.0799 3.97012 6.36256 2.10371 7.11067C1.16914 7.48526 1 7.59717 1 7.84086C1 7.99119 1.23761 8.16746 3.04129 9.35531C3.78419 9.84459 4.95645 10.6187 5.64629 11.0755L6.90052 11.9062L6.81147 12.0831C6.65003 12.4038 6.10648 13.3252 4.90405 15.3167C3.41255 17.7868 2.92495 18.6361 2.92495 18.7636C2.92495 18.9632 3.16762 19.1021 5.2056 20.0684C5.87306 20.3849 6.44272 20.663 6.47147 20.6865C6.5126 20.72 6.52432 21.5516 6.52633 24.5755C6.52913 28.8011 6.57173 31.2006 6.6476 31.4077C6.69008 31.5236 6.7785 31.5787 7.41524 31.8859C8.89519 32.5998 10.7318 33.4661 15.2907 35.601C19.5912 37.6148 20.8418 38.2036 22.1056 38.8097C22.5531 39.0243 22.562 39.0266 22.7124 38.9657C22.9438 38.8719 24.02 38.3658 25.9198 37.4572C27.5256 36.6892 28.9955 35.9797 35.5087 32.8286L38.1093 31.5705L38.134 31.2136C38.1475 31.0174 38.1707 28.7195 38.1856 26.1073C38.2005 23.495 38.2243 21.2013 38.2386 21.0103L38.2646 20.6629L38.9341 20.3105C40.8865 19.2829 41.5148 18.9102 41.5961 18.7311C41.6311 18.6541 41.6265 18.6025 41.5759 18.5043C41.48 18.3184 40.1406 16.1747 38.6145 13.7647C37.8811 12.6067 37.2812 11.6507 37.2812 11.6401C37.2812 11.6296 37.8206 11.1035 38.4799 10.4711C39.6113 9.38592 41.6728 7.27998 41.9132 6.96379C42.0189 6.82483 42.0207 6.81363 41.9583 6.68257C41.8999 6.55961 41.8316 6.5217 41.2716 6.30127C38.4842 5.20388 27.3421 1.0828 26.9496 1.00405C26.8606 0.986206 26.7805 1.02403 26.5679 1.18435ZM28.2148 2.412C32.6303 4.02854 34.9417 4.87644 37.0929 5.6688C38.4508 6.16899 39.8019 6.66649 40.0953 6.77438C40.3888 6.88226 40.6289 6.98688 40.6289 7.0069C40.629 7.06458 38.2614 9.4433 37.3914 10.2597C36.9571 10.6672 36.5711 11.0059 36.5335 11.0124C36.4959 11.019 36.1921 10.9307 35.8584 10.8162C35.2595 10.6108 33.7193 10.0839 29.8324 8.75476C28.7392 8.38093 27.3834 7.91819 26.8195 7.72643C26.2556 7.53471 25.0937 7.13662 24.2376 6.84179L22.6809 6.30576L22.7587 6.19737C22.966 5.90826 26.9721 1.99594 27.0608 1.99594C27.0705 1.99594 27.5897 2.18317 28.2148 2.412ZM17.3083 3.9811C19.217 5.26349 20.668 6.29048 20.668 6.35895C20.668 6.39908 19.9149 6.69038 16.5841 7.93851C11.4256 9.87154 7.84542 11.1894 7.75265 11.1894C7.60112 11.1894 6.85562 10.7513 5.2893 9.74148C3.46101 8.56283 2.54419 7.94443 2.57733 7.91219C2.61897 7.87172 5.72216 6.70809 8.44873 5.71062C9.56499 5.30224 10.9679 4.78883 11.5663 4.5697C14.0282 3.66823 15.6498 3.11885 15.9274 3.09227C15.9553 3.08959 16.5768 3.48957 17.3083 3.9811ZM23.2697 7.49882C25.4084 8.19337 32.9948 10.7817 34.9503 11.4841C35.3786 11.6379 35.4341 11.6683 35.3687 11.713C35.1158 11.8866 28.6643 15.2735 24.6957 17.3163C22.9126 18.2341 22.7071 18.3301 22.6034 18.2928C21.9089 18.0433 8.90904 11.9394 8.90904 11.8628C8.90904 11.7879 17.1863 8.6263 20.3751 7.48328C20.985 7.2647 21.5123 7.07554 21.5468 7.06294C21.7032 7.00598 21.9245 7.06198 23.2697 7.49882ZM36.8763 12.7532C37.321 13.4024 38.2194 14.8045 39.3307 16.5838C40.3756 18.257 40.4329 18.3545 40.4013 18.4058C40.3454 18.4965 35.8335 20.9056 30.5857 23.6468C28.3974 24.7898 27.2735 25.3475 27.2379 25.308C26.9895 25.032 23.8429 19.9448 23.5009 19.2663L23.393 19.0522L24.4681 18.4831C26.0079 17.668 28.8346 16.188 31.4017 14.8527C35.2834 12.8336 36.4408 12.2389 36.4887 12.2389C36.5081 12.2389 36.6825 12.4703 36.8763 12.7532ZM9.02111 12.9684C12.5421 14.6076 21.8233 19.009 21.8805 19.0666C21.8926 19.0788 21.8292 19.2241 21.7396 19.3895C21.354 20.1017 19.2778 23.528 18.558 24.6401C18.2737 25.0794 18.2297 25.1288 18.1461 25.1022C17.9903 25.0527 15.8628 24.0831 14.0771 23.2479C8.00022 20.4051 4.13851 18.5295 4.13851 18.4204C4.13851 18.3529 4.89602 17.0629 6.04275 15.1775C7.3518 13.0252 7.73922 12.4068 7.77847 12.4068C7.7986 12.4068 8.35775 12.6595 9.02111 12.9684ZM22.2104 31.4386L22.2163 37.7715L22.1145 37.7459C22.023 37.7229 19.1705 36.4107 16.6298 35.223C16.1004 34.9755 14.1514 34.0645 12.2986 33.1985C10.4459 32.3325 8.60042 31.4695 8.19765 31.2807L7.46533 30.9374L7.47332 26.1166C7.47776 23.4652 7.49073 21.2714 7.50215 21.2415C7.52392 21.1846 7.67431 21.2531 12.8008 23.6559C15.4415 24.8936 17.9113 26.0257 18.2505 26.154C18.4358 26.224 18.4553 26.2244 18.5546 26.159C18.6928 26.0682 19.437 24.9323 20.94 22.5179L22.1536 20.5684L22.179 22.8371C22.1931 24.0848 22.2072 27.9554 22.2104 31.4386ZM24.3383 22.4399C24.9108 23.3519 25.595 24.4439 25.8588 24.8664C26.4749 25.8536 26.828 26.334 26.9624 26.3679C27.0365 26.3865 27.2002 26.3324 27.539 26.1771C28.162 25.8917 30.9228 24.4855 33.5568 23.1121C34.7191 22.506 36.039 21.8249 36.4899 21.5985L37.3097 21.1868L37.3372 22.3486C37.3739 23.8975 37.3678 28.679 37.3276 29.9036C37.3028 30.661 37.2821 30.8945 37.2361 30.9395C37.2033 30.9714 36.3951 31.379 35.4399 31.8452C31.9251 33.5608 23.1734 37.8044 23.1501 37.8044C23.1181 37.8044 23.1717 21.1266 23.2045 20.8935C23.2186 20.7934 23.2453 20.7273 23.2638 20.7466C23.2822 20.7659 23.7658 21.5279 24.3383 22.4399Z"/>
</mask>
<path fill-rule="evenodd" clip-rule="evenodd" d="M26.5679 1.18435C26.2554 1.41994 25.3034 2.33958 23.217 4.42113L21.7277 5.90695L20.5388 5.09222C18.0014 3.35343 16.0603 2.0799 15.9473 2.0799C15.7551 2.0799 3.97012 6.36256 2.10371 7.11067C1.16914 7.48526 1 7.59717 1 7.84086C1 7.99119 1.23761 8.16746 3.04129 9.35531C3.78419 9.84459 4.95645 10.6187 5.64629 11.0755L6.90052 11.9062L6.81147 12.0831C6.65003 12.4038 6.10648 13.3252 4.90405 15.3167C3.41255 17.7868 2.92495 18.6361 2.92495 18.7636C2.92495 18.9632 3.16762 19.1021 5.2056 20.0684C5.87306 20.3849 6.44272 20.663 6.47147 20.6865C6.5126 20.72 6.52432 21.5516 6.52633 24.5755C6.52913 28.8011 6.57173 31.2006 6.6476 31.4077C6.69008 31.5236 6.7785 31.5787 7.41524 31.8859C8.89519 32.5998 10.7318 33.4661 15.2907 35.601C19.5912 37.6148 20.8418 38.2036 22.1056 38.8097C22.5531 39.0243 22.562 39.0266 22.7124 38.9657C22.9438 38.8719 24.02 38.3658 25.9198 37.4572C27.5256 36.6892 28.9955 35.9797 35.5087 32.8286L38.1093 31.5705L38.134 31.2136C38.1475 31.0174 38.1707 28.7195 38.1856 26.1073C38.2005 23.495 38.2243 21.2013 38.2386 21.0103L38.2646 20.6629L38.9341 20.3105C40.8865 19.2829 41.5148 18.9102 41.5961 18.7311C41.6311 18.6541 41.6265 18.6025 41.5759 18.5043C41.48 18.3184 40.1406 16.1747 38.6145 13.7647C37.8811 12.6067 37.2812 11.6507 37.2812 11.6401C37.2812 11.6296 37.8206 11.1035 38.4799 10.4711C39.6113 9.38592 41.6728 7.27998 41.9132 6.96379C42.0189 6.82483 42.0207 6.81363 41.9583 6.68257C41.8999 6.55961 41.8316 6.5217 41.2716 6.30127C38.4842 5.20388 27.3421 1.0828 26.9496 1.00405C26.8606 0.986206 26.7805 1.02403 26.5679 1.18435ZM28.2148 2.412C32.6303 4.02854 34.9417 4.87644 37.0929 5.6688C38.4508 6.16899 39.8019 6.66649 40.0953 6.77438C40.3888 6.88226 40.6289 6.98688 40.6289 7.0069C40.629 7.06458 38.2614 9.4433 37.3914 10.2597C36.9571 10.6672 36.5711 11.0059 36.5335 11.0124C36.4959 11.019 36.1921 10.9307 35.8584 10.8162C35.2595 10.6108 33.7193 10.0839 29.8324 8.75476C28.7392 8.38093 27.3834 7.91819 26.8195 7.72643C26.2556 7.53471 25.0937 7.13662 24.2376 6.84179L22.6809 6.30576L22.7587 6.19737C22.966 5.90826 26.9721 1.99594 27.0608 1.99594C27.0705 1.99594 27.5897 2.18317 28.2148 2.412ZM17.3083 3.9811C19.217 5.26349 20.668 6.29048 20.668 6.35895C20.668 6.39908 19.9149 6.69038 16.5841 7.93851C11.4256 9.87154 7.84542 11.1894 7.75265 11.1894C7.60112 11.1894 6.85562 10.7513 5.2893 9.74148C3.46101 8.56283 2.54419 7.94443 2.57733 7.91219C2.61897 7.87172 5.72216 6.70809 8.44873 5.71062C9.56499 5.30224 10.9679 4.78883 11.5663 4.5697C14.0282 3.66823 15.6498 3.11885 15.9274 3.09227C15.9553 3.08959 16.5768 3.48957 17.3083 3.9811ZM23.2697 7.49882C25.4084 8.19337 32.9948 10.7817 34.9503 11.4841C35.3786 11.6379 35.4341 11.6683 35.3687 11.713C35.1158 11.8866 28.6643 15.2735 24.6957 17.3163C22.9126 18.2341 22.7071 18.3301 22.6034 18.2928C21.9089 18.0433 8.90904 11.9394 8.90904 11.8628C8.90904 11.7879 17.1863 8.6263 20.3751 7.48328C20.985 7.2647 21.5123 7.07554 21.5468 7.06294C21.7032 7.00598 21.9245 7.06198 23.2697 7.49882ZM36.8763 12.7532C37.321 13.4024 38.2194 14.8045 39.3307 16.5838C40.3756 18.257 40.4329 18.3545 40.4013 18.4058C40.3454 18.4965 35.8335 20.9056 30.5857 23.6468C28.3974 24.7898 27.2735 25.3475 27.2379 25.308C26.9895 25.032 23.8429 19.9448 23.5009 19.2663L23.393 19.0522L24.4681 18.4831C26.0079 17.668 28.8346 16.188 31.4017 14.8527C35.2834 12.8336 36.4408 12.2389 36.4887 12.2389C36.5081 12.2389 36.6825 12.4703 36.8763 12.7532ZM9.02111 12.9684C12.5421 14.6076 21.8233 19.009 21.8805 19.0666C21.8926 19.0788 21.8292 19.2241 21.7396 19.3895C21.354 20.1017 19.2778 23.528 18.558 24.6401C18.2737 25.0794 18.2297 25.1288 18.1461 25.1022C17.9903 25.0527 15.8628 24.0831 14.0771 23.2479C8.00022 20.4051 4.13851 18.5295 4.13851 18.4204C4.13851 18.3529 4.89602 17.0629 6.04275 15.1775C7.3518 13.0252 7.73922 12.4068 7.77847 12.4068C7.7986 12.4068 8.35775 12.6595 9.02111 12.9684ZM22.2104 31.4386L22.2163 37.7715L22.1145 37.7459C22.023 37.7229 19.1705 36.4107 16.6298 35.223C16.1004 34.9755 14.1514 34.0645 12.2986 33.1985C10.4459 32.3325 8.60042 31.4695 8.19765 31.2807L7.46533 30.9374L7.47332 26.1166C7.47776 23.4652 7.49073 21.2714 7.50215 21.2415C7.52392 21.1846 7.67431 21.2531 12.8008 23.6559C15.4415 24.8936 17.9113 26.0257 18.2505 26.154C18.4358 26.224 18.4553 26.2244 18.5546 26.159C18.6928 26.0682 19.437 24.9323 20.94 22.5179L22.1536 20.5684L22.179 22.8371C22.1931 24.0848 22.2072 27.9554 22.2104 31.4386ZM24.3383 22.4399C24.9108 23.3519 25.595 24.4439 25.8588 24.8664C26.4749 25.8536 26.828 26.334 26.9624 26.3679C27.0365 26.3865 27.2002 26.3324 27.539 26.1771C28.162 25.8917 30.9228 24.4855 33.5568 23.1121C34.7191 22.506 36.039 21.8249 36.4899 21.5985L37.3097 21.1868L37.3372 22.3486C37.3739 23.8975 37.3678 28.679 37.3276 29.9036C37.3028 30.661 37.2821 30.8945 37.2361 30.9395C37.2033 30.9714 36.3951 31.379 35.4399 31.8452C31.9251 33.5608 23.1734 37.8044 23.1501 37.8044C23.1181 37.8044 23.1717 21.1266 23.2045 20.8935C23.2186 20.7934 23.2453 20.7273 23.2638 20.7466C23.2822 20.7659 23.7658 21.5279 24.3383 22.4399Z" fill="#5FD3D1"/>
<path fill-rule="evenodd" clip-rule="evenodd" d="M26.5679 1.18435C26.2554 1.41994 25.3034 2.33958 23.217 4.42113L21.7277 5.90695L20.5388 5.09222C18.0014 3.35343 16.0603 2.0799 15.9473 2.0799C15.7551 2.0799 3.97012 6.36256 2.10371 7.11067C1.16914 7.48526 1 7.59717 1 7.84086C1 7.99119 1.23761 8.16746 3.04129 9.35531C3.78419 9.84459 4.95645 10.6187 5.64629 11.0755L6.90052 11.9062L6.81147 12.0831C6.65003 12.4038 6.10648 13.3252 4.90405 15.3167C3.41255 17.7868 2.92495 18.6361 2.92495 18.7636C2.92495 18.9632 3.16762 19.1021 5.2056 20.0684C5.87306 20.3849 6.44272 20.663 6.47147 20.6865C6.5126 20.72 6.52432 21.5516 6.52633 24.5755C6.52913 28.8011 6.57173 31.2006 6.6476 31.4077C6.69008 31.5236 6.7785 31.5787 7.41524 31.8859C8.89519 32.5998 10.7318 33.4661 15.2907 35.601C19.5912 37.6148 20.8418 38.2036 22.1056 38.8097C22.5531 39.0243 22.562 39.0266 22.7124 38.9657C22.9438 38.8719 24.02 38.3658 25.9198 37.4572C27.5256 36.6892 28.9955 35.9797 35.5087 32.8286L38.1093 31.5705L38.134 31.2136C38.1475 31.0174 38.1707 28.7195 38.1856 26.1073C38.2005 23.495 38.2243 21.2013 38.2386 21.0103L38.2646 20.6629L38.9341 20.3105C40.8865 19.2829 41.5148 18.9102 41.5961 18.7311C41.6311 18.6541 41.6265 18.6025 41.5759 18.5043C41.48 18.3184 40.1406 16.1747 38.6145 13.7647C37.8811 12.6067 37.2812 11.6507 37.2812 11.6401C37.2812 11.6296 37.8206 11.1035 38.4799 10.4711C39.6113 9.38592 41.6728 7.27998 41.9132 6.96379C42.0189 6.82483 42.0207 6.81363 41.9583 6.68257C41.8999 6.55961 41.8316 6.5217 41.2716 6.30127C38.4842 5.20388 27.3421 1.0828 26.9496 1.00405C26.8606 0.986206 26.7805 1.02403 26.5679 1.18435ZM28.2148 2.412C32.6303 4.02854 34.9417 4.87644 37.0929 5.6688C38.4508 6.16899 39.8019 6.66649 40.0953 6.77438C40.3888 6.88226 40.6289 6.98688 40.6289 7.0069C40.629 7.06458 38.2614 9.4433 37.3914 10.2597C36.9571 10.6672 36.5711 11.0059 36.5335 11.0124C36.4959 11.019 36.1921 10.9307 35.8584 10.8162C35.2595 10.6108 33.7193 10.0839 29.8324 8.75476C28.7392 8.38093 27.3834 7.91819 26.8195 7.72643C26.2556 7.53471 25.0937 7.13662 24.2376 6.84179L22.6809 6.30576L22.7587 6.19737C22.966 5.90826 26.9721 1.99594 27.0608 1.99594C27.0705 1.99594 27.5897 2.18317 28.2148 2.412ZM17.3083 3.9811C19.217 5.26349 20.668 6.29048 20.668 6.35895C20.668 6.39908 19.9149 6.69038 16.5841 7.93851C11.4256 9.87154 7.84542 11.1894 7.75265 11.1894C7.60112 11.1894 6.85562 10.7513 5.2893 9.74148C3.46101 8.56283 2.54419 7.94443 2.57733 7.91219C2.61897 7.87172 5.72216 6.70809 8.44873 5.71062C9.56499 5.30224 10.9679 4.78883 11.5663 4.5697C14.0282 3.66823 15.6498 3.11885 15.9274 3.09227C15.9553 3.08959 16.5768 3.48957 17.3083 3.9811ZM23.2697 7.49882C25.4084 8.19337 32.9948 10.7817 34.9503 11.4841C35.3786 11.6379 35.4341 11.6683 35.3687 11.713C35.1158 11.8866 28.6643 15.2735 24.6957 17.3163C22.9126 18.2341 22.7071 18.3301 22.6034 18.2928C21.9089 18.0433 8.90904 11.9394 8.90904 11.8628C8.90904 11.7879 17.1863 8.6263 20.3751 7.48328C20.985 7.2647 21.5123 7.07554 21.5468 7.06294C21.7032 7.00598 21.9245 7.06198 23.2697 7.49882ZM36.8763 12.7532C37.321 13.4024 38.2194 14.8045 39.3307 16.5838C40.3756 18.257 40.4329 18.3545 40.4013 18.4058C40.3454 18.4965 35.8335 20.9056 30.5857 23.6468C28.3974 24.7898 27.2735 25.3475 27.2379 25.308C26.9895 25.032 23.8429 19.9448 23.5009 19.2663L23.393 19.0522L24.4681 18.4831C26.0079 17.668 28.8346 16.188 31.4017 14.8527C35.2834 12.8336 36.4408 12.2389 36.4887 12.2389C36.5081 12.2389 36.6825 12.4703 36.8763 12.7532ZM9.02111 12.9684C12.5421 14.6076 21.8233 19.009 21.8805 19.0666C21.8926 19.0788 21.8292 19.2241 21.7396 19.3895C21.354 20.1017 19.2778 23.528 18.558 24.6401C18.2737 25.0794 18.2297 25.1288 18.1461 25.1022C17.9903 25.0527 15.8628 24.0831 14.0771 23.2479C8.00022 20.4051 4.13851 18.5295 4.13851 18.4204C4.13851 18.3529 4.89602 17.0629 6.04275 15.1775C7.3518 13.0252 7.73922 12.4068 7.77847 12.4068C7.7986 12.4068 8.35775 12.6595 9.02111 12.9684ZM22.2104 31.4386L22.2163 37.7715L22.1145 37.7459C22.023 37.7229 19.1705 36.4107 16.6298 35.223C16.1004 34.9755 14.1514 34.0645 12.2986 33.1985C10.4459 32.3325 8.60042 31.4695 8.19765 31.2807L7.46533 30.9374L7.47332 26.1166C7.47776 23.4652 7.49073 21.2714 7.50215 21.2415C7.52392 21.1846 7.67431 21.2531 12.8008 23.6559C15.4415 24.8936 17.9113 26.0257 18.2505 26.154C18.4358 26.224 18.4553 26.2244 18.5546 26.159C18.6928 26.0682 19.437 24.9323 20.94 22.5179L22.1536 20.5684L22.179 22.8371C22.1931 24.0848 22.2072 27.9554 22.2104 31.4386ZM24.3383 22.4399C24.9108 23.3519 25.595 24.4439 25.8588 24.8664C26.4749 25.8536 26.828 26.334 26.9624 26.3679C27.0365 26.3865 27.2002 26.3324 27.539 26.1771C28.162 25.8917 30.9228 24.4855 33.5568 23.1121C34.7191 22.506 36.039 21.8249 36.4899 21.5985L37.3097 21.1868L37.3372 22.3486C37.3739 23.8975 37.3678 28.679 37.3276 29.9036C37.3028 30.661 37.2821 30.8945 37.2361 30.9395C37.2033 30.9714 36.3951 31.379 35.4399 31.8452C31.9251 33.5608 23.1734 37.8044 23.1501 37.8044C23.1181 37.8044 23.1717 21.1266 23.2045 20.8935C23.2186 20.7934 23.2453 20.7273 23.2638 20.7466C23.2822 20.7659 23.7658 21.5279 24.3383 22.4399Z" stroke="#5FD3D1" stroke-width="0.4" mask="url(#path-1-outside-1_120:1597)"/>
</svg>
