<svg width="37" height="41" viewBox="0 0 37 41" fill="none" xmlns="http://www.w3.org/2000/svg">
<g clip-path="url(#clip0_120:1515)">
<path d="M16.8124 17.3836C16.8124 21.7416 16.8124 26.1156 16.8124 30.4735C16.8124 30.7459 16.8755 30.9381 17.049 31.1624C18.5157 32.9729 18.91 35.0077 18.0741 37.1867C17.254 39.3176 15.6769 40.5833 13.4373 40.9358C10.9769 41.3203 8.59545 40.0866 7.42835 37.8756C6.26126 35.6966 6.56092 33.005 8.18539 31.1304C8.35887 30.9221 8.40619 30.7299 8.40619 30.4895C8.40619 21.8057 8.40619 13.1378 8.40619 4.45396C8.40619 2.30703 9.66791 0.624733 11.6394 0.128054C14.0209 -0.480777 16.497 1.26561 16.7809 3.73298C16.8124 4.02137 16.8282 4.32579 16.8282 4.61418C16.8124 8.876 16.8124 13.1218 16.8124 17.3836ZM15.1091 17.5759C15.1091 13.6345 15.1091 9.69312 15.1091 5.76776C15.1091 5.20699 15.1249 4.64623 15.0933 4.08546C14.9829 2.25897 13.0115 1.15345 11.4343 2.01864C10.4092 2.5794 10.0622 3.49265 10.0622 4.61418C10.0622 13.3782 10.0622 22.1261 10.078 30.8901C10.078 31.3547 9.9518 31.7232 9.6206 32.0757C7.85419 33.8862 8.0119 36.722 9.93603 38.3403C11.6394 39.7662 14.147 39.622 15.6138 38.0198C17.2067 36.2734 17.2067 33.758 15.5822 32.1077C15.2353 31.7553 15.1091 31.3868 15.1091 30.8901C15.1249 26.436 15.1091 21.9979 15.1091 17.5759Z" fill="#5FD3D1"/>
<path d="M21.8594 19.6589C21.8594 20.7163 21.8909 21.7738 21.8594 22.8152C21.7963 24.5456 23.0738 25.7152 24.6352 25.6351C25.061 25.619 25.5026 25.6351 25.9284 25.6351C27.4267 25.619 28.4203 24.6898 28.578 23.1837C28.6096 22.7832 28.7358 22.4467 29.1301 22.2865C29.6978 22.0622 30.2498 22.4788 30.2656 23.1196C30.2656 24.3533 29.7925 25.3787 28.9093 26.2119C28.0576 27.0129 27.0482 27.3815 25.8969 27.3494C25.1714 27.3334 24.4459 27.4135 23.7362 27.3013C21.6701 26.9489 20.2191 25.2345 20.1876 23.0395C20.1561 20.7965 20.1561 18.5534 20.1876 16.3103C20.2191 13.9231 21.8594 12.1607 24.1936 12.0004C25.1714 11.9363 26.165 11.8723 27.1428 12.1286C28.925 12.5932 30.2341 14.2595 30.2656 16.086C30.2814 16.6788 29.9817 17.0634 29.4928 17.0954C28.9881 17.1274 28.6569 16.791 28.5938 16.1982C28.4203 14.596 27.4583 13.7148 25.8653 13.7148C25.2976 13.7148 24.7298 13.6988 24.1778 13.7308C22.9792 13.7949 21.954 14.8203 21.9067 16.038C21.8594 17.2556 21.8909 18.4733 21.8909 19.6749C21.8752 19.6589 21.8594 19.6589 21.8594 19.6589Z" fill="#5FD3D1"/>
<path d="M34.4766 17.0793C33.0887 17.0793 31.9689 15.9577 31.9532 14.5478C31.9374 13.1379 33.0729 11.9683 34.4608 11.9523C35.833 11.9523 37 13.1379 36.9843 14.5318C36.9843 15.9417 35.8487 17.0793 34.4766 17.0793ZM34.4924 13.6826C34.035 13.6666 33.6565 14.0511 33.6407 14.4997C33.6249 14.9484 34.0192 15.3489 34.4608 15.3649C34.9024 15.381 35.2967 14.9964 35.3125 14.5318C35.3125 14.0832 34.9498 13.6987 34.4924 13.6826Z" fill="#5FD3D1"/>
<path d="M3.34355 8.55565C2.55497 8.55565 1.76639 8.55565 0.977818 8.55565C0.410043 8.55565 0.0788409 8.28328 -1.66952e-05 7.81864C-0.0631028 7.38605 0.189242 6.98551 0.599301 6.88937C0.741245 6.85733 0.883189 6.84131 1.02513 6.84131C2.55497 6.84131 4.10058 6.84131 5.63042 6.84131C5.83545 6.84131 6.05625 6.85733 6.24551 6.96948C6.56094 7.14572 6.71865 7.43412 6.67134 7.80262C6.62402 8.18715 6.41899 8.42747 6.04048 8.52361C5.81968 8.58769 5.59887 8.57167 5.37807 8.57167C4.71567 8.55565 4.02172 8.55565 3.34355 8.55565Z" fill="#5FD3D1"/>
<path d="M3.3435 17.0793C4.13208 17.0793 4.92065 17.0793 5.70923 17.0793C6.277 17.0793 6.60821 17.3517 6.68706 17.8163C6.75015 18.2489 6.49781 18.6495 6.08775 18.7456C5.9458 18.7776 5.80386 18.7937 5.66192 18.7937C4.13208 18.7937 2.58647 18.7937 1.05663 18.7937C0.8516 18.7937 0.630799 18.7776 0.441541 18.6655C0.12611 18.4892 -0.031605 18.2009 0.0157095 17.8324C0.0630241 17.4478 0.268054 17.2075 0.646571 17.1114C0.867372 17.0473 1.08817 17.0633 1.30897 17.0633C1.98715 17.0793 2.66533 17.0793 3.3435 17.0793Z" fill="#5FD3D1"/>
<path d="M3.53281 29.0636C2.58652 29.0636 1.82949 29.0636 1.05669 29.0636C0.851655 29.0636 0.630854 29.0476 0.441596 28.9515C0.110394 28.7752 -0.0630928 28.4868 -6.71987e-06 28.1023C0.0473079 27.7018 0.283881 27.4134 0.678169 27.3974C2.44458 27.3173 4.21099 27.3173 5.99317 27.3974C6.43477 27.4134 6.70289 27.7979 6.70289 28.2145C6.70289 28.631 6.43477 28.9835 5.99317 29.0316C5.10997 29.1277 4.22676 29.0316 3.53281 29.0636Z" fill="#5FD3D1"/>
<path d="M5.03114 11.9523C4.73148 11.9523 4.43182 11.9683 4.13216 11.9523C3.69056 11.9202 3.37513 11.5678 3.35936 11.1352C3.34359 10.7346 3.64325 10.3501 4.05331 10.302C4.69994 10.238 5.36234 10.2219 6.00898 10.302C6.43481 10.3501 6.70292 10.7346 6.68715 11.1512C6.67138 11.5838 6.37172 11.9042 5.91435 11.9683C5.8828 11.9683 5.83549 11.9843 5.80395 11.9843C5.5516 11.9523 5.28349 11.9523 5.03114 11.9523Z" fill="#5FD3D1"/>
<path d="M5.01529 15.381C4.74717 15.381 4.49483 15.397 4.22671 15.381C3.70625 15.3489 3.35928 14.9965 3.34351 14.5318C3.34351 14.0672 3.69048 13.6987 4.21094 13.6827C4.76294 13.6666 5.31495 13.6666 5.86695 13.6827C6.35587 13.6987 6.70284 14.0512 6.70284 14.5158C6.70284 14.9644 6.37164 15.3329 5.88272 15.365C5.59883 15.397 5.29918 15.381 5.01529 15.381Z" fill="#5FD3D1"/>
<path d="M5.03114 22.2063C4.73148 22.2063 4.43182 22.2223 4.13216 22.2063C3.69056 22.1743 3.37513 21.8218 3.35936 21.4052C3.34359 20.9887 3.64325 20.5881 4.08485 20.5561C4.71571 20.508 5.34657 20.508 5.97743 20.5561C6.41904 20.5881 6.71869 20.9726 6.71869 21.4052C6.70292 21.8538 6.38749 22.1903 5.91435 22.2223C5.61469 22.2223 5.3308 22.2063 5.03114 22.2063Z" fill="#5FD3D1"/>
<path d="M5.04686 23.9527C5.34652 23.9527 5.64617 23.9367 5.94583 23.9527C6.37167 23.9847 6.67132 24.3052 6.70287 24.7378C6.73441 25.1543 6.46629 25.5388 6.04046 25.6029C5.36229 25.683 4.68411 25.6991 4.00594 25.6029C3.61165 25.5388 3.34353 25.1543 3.3593 24.7698C3.37507 24.3532 3.69051 24.0328 4.10057 23.9687C4.13211 23.9687 4.17942 23.9527 4.21097 23.9527C4.49485 23.9367 4.76297 23.9367 5.04686 23.9527C5.04686 23.9367 5.04686 23.9367 5.04686 23.9527Z" fill="#5FD3D1"/>
<path d="M13.4373 25.2185C13.4373 27.5737 13.4373 29.9129 13.4373 32.2681C13.4373 32.5245 13.5004 32.6527 13.7528 32.7808C14.7937 33.2935 15.3299 34.4952 15.0618 35.6007C14.7779 36.7863 13.7843 37.5874 12.6172 37.6034C11.4659 37.6034 10.4565 36.8183 10.1569 35.6808C9.87298 34.5593 10.3934 33.3416 11.4344 32.8129C11.7025 32.6687 11.7656 32.5245 11.7656 32.2361C11.7498 27.6218 11.7656 22.9915 11.7656 18.3772C11.7656 18.2009 11.7656 18.0247 11.7813 17.8645C11.8286 17.4479 12.1441 17.1595 12.5541 17.1275C12.9484 17.0954 13.2954 17.3518 13.4058 17.7523C13.4531 17.9125 13.4531 18.0888 13.4531 18.265C13.4373 20.5722 13.4373 22.8953 13.4373 25.2185ZM11.7813 35.0239C11.7813 35.4885 12.1441 35.8731 12.6014 35.8731C13.0431 35.8731 13.4373 35.4725 13.4373 35.0399C13.4373 34.5913 13.0588 34.1908 12.6014 34.1908C12.1441 34.1908 11.7813 34.5593 11.7813 35.0239Z" fill="#5FD3D1"/>
</g>
<defs>
<clipPath id="clip0_120:1515">
<rect width="37" height="41" fill="white"/>
</clipPath>
</defs>
</svg>
