<svg width="25" height="20" viewBox="0 0 25 20" fill="none" xmlns="http://www.w3.org/2000/svg">
<path fill-rule="evenodd" clip-rule="evenodd" d="M11.9844 0.00832006C11.8411 0.0367477 11.6857 0.270382 11.6857 0.457262C11.6857 0.594126 11.7151 0.646734 11.8775 0.800226C12.2385 1.14154 12.4096 1.35742 12.4577 1.53219C12.5609 1.90774 12.5239 2.01211 12.0989 2.54593C11.7657 2.96439 11.6723 3.23298 11.6943 3.7086C11.7146 4.14583 11.826 4.39538 12.2084 4.86028C12.3502 5.03259 12.4771 5.22121 12.4905 5.27945C12.5613 5.5867 12.3827 6.00449 12.0701 6.26302C11.7708 6.51055 11.6857 6.62248 11.6857 6.76864C11.6857 7.11343 11.9267 7.31748 12.2206 7.22147C12.4233 7.15527 12.8297 6.79031 12.9985 6.52289C13.2505 6.12361 13.303 5.93968 13.3042 5.45127C13.3052 5.05292 13.2935 4.97993 13.1969 4.78049C13.1373 4.6574 12.9663 4.40812 12.8169 4.22656C12.6676 4.04495 12.5342 3.84788 12.5205 3.78861C12.4714 3.57518 12.5383 3.37082 12.7395 3.11958C13.12 2.64449 13.1673 2.57038 13.2462 2.32566C13.489 1.5726 13.1695 0.695008 12.4608 0.168248C12.2683 0.0252158 12.1312 -0.0208227 11.9844 0.00832006ZM9.46144 2.75033C9.326 2.79078 9.00774 3.04104 8.83061 3.24634C8.52215 3.60388 8.35728 4.05371 8.35728 4.53756C8.35728 4.99048 8.45044 5.22671 8.80618 5.67569C9.15302 6.11342 9.20017 6.23902 9.13748 6.55775C9.09274 6.78509 8.94977 6.97317 8.51403 7.37813C8.3834 7.49949 8.36466 7.5419 8.36581 7.71336C8.3672 7.92407 8.41464 8.02106 8.55655 8.10348C8.78473 8.23592 9.08151 8.09906 9.45073 7.69115C9.73439 7.37777 9.90197 7.04272 9.96741 6.6581C10.0625 6.0996 9.93583 5.70318 9.47796 5.12623C9.20759 4.7855 9.18455 4.74067 9.18455 4.5549C9.18455 4.44401 9.21042 4.28578 9.24207 4.20322C9.31424 4.01496 9.55865 3.71718 9.74304 3.59297C10.0997 3.35268 10.0706 2.86847 9.69249 2.75288C9.62737 2.73295 9.52339 2.73183 9.46144 2.75033ZM16.0492 2.78698C15.763 2.92899 15.3663 3.37422 15.1915 3.74968C15.046 4.06211 15.0355 4.11146 15.0316 4.49952C15.0278 4.86841 15.0401 4.94319 15.1413 5.16775C15.204 5.30681 15.3749 5.56614 15.5213 5.74404C15.8123 6.09786 15.8472 6.18524 15.8164 6.4828C15.7892 6.74611 15.6394 6.98332 15.3479 7.2246C15.0463 7.47414 14.9797 7.61199 15.0452 7.85036C15.1049 8.06764 15.2915 8.18269 15.5113 8.13772C15.7129 8.09651 16.0881 7.78054 16.2995 7.4741C16.5468 7.1154 16.6512 6.78902 16.6523 6.37065C16.6536 5.84756 16.5682 5.64423 16.1113 5.08309C15.9823 4.92464 15.8667 4.74035 15.8544 4.67353C15.7984 4.36847 15.9849 3.94885 16.2833 3.70807C16.6113 3.4435 16.647 3.39165 16.647 3.18023C16.647 3.03349 16.6215 2.95362 16.5465 2.86534C16.4911 2.8003 16.4189 2.74707 16.3858 2.74707C16.3527 2.74707 16.3011 2.73737 16.2711 2.72553C16.241 2.71368 16.1412 2.74135 16.0492 2.78698ZM0.179058 9.17332C0.0664241 9.27277 0 9.41616 0 9.55977C0 9.81759 0.141704 9.90345 1.98862 10.7648C4.38369 11.8818 5.36468 12.3388 5.80185 12.5411C6.25345 12.7501 6.36411 12.7567 6.52255 12.584C6.63551 12.4608 6.66245 12.3657 6.64395 12.1559C6.62407 11.9307 6.83207 12.0361 1.3464 9.47109C0.509456 9.07976 0.335318 9.03534 0.179058 9.17332ZM13.2957 9.16299C13.0626 9.23142 12.807 9.39242 12.5994 9.60161L12.4676 9.73445L12.2509 9.65601C11.7608 9.47865 11.2206 9.53537 10.8175 9.80655L10.6258 9.9355L10.4979 9.83269C10.4276 9.77611 10.2414 9.68474 10.0842 9.62963C9.73513 9.5073 9.32883 9.52299 8.96941 9.67272C8.70892 9.78125 8.33383 10.1247 8.17359 10.4014C8.1191 10.4955 8.0569 10.5605 8.03533 10.546C7.92462 10.4714 7.48336 10.4351 7.24964 10.4813C7.01179 10.5283 6.99649 10.5257 6.89349 10.4204C6.64055 10.1618 6.08468 9.95172 5.79073 10.0037C5.49814 10.0555 5.35065 10.3469 5.47387 10.63C5.54439 10.7919 5.65186 10.8584 5.92485 10.9085C6.16107 10.9519 6.29773 11.0392 6.51886 11.288C6.74068 11.5375 6.85155 11.5617 7.19285 11.435C7.4761 11.3297 7.78485 11.3733 8.0045 11.5493C8.13361 11.6529 8.21943 11.6866 8.35392 11.6866C8.58772 11.6866 8.70822 11.5572 8.77079 11.239C8.83348 10.9204 8.951 10.7248 9.15736 10.5955C9.53938 10.3561 9.85916 10.4105 10.2101 10.7748C10.531 11.1079 10.7313 11.1186 10.9975 10.8169C11.0941 10.7074 11.2418 10.5867 11.3256 10.5487C11.6116 10.4193 12.0714 10.4874 12.219 10.6812C12.2936 10.7793 12.4823 10.882 12.5877 10.882C12.747 10.882 12.8985 10.7564 13.0111 10.531C13.251 10.0504 13.6754 9.86872 14.0847 10.0714C14.4003 10.2277 14.5961 10.5775 14.5966 10.986C14.5968 11.1165 14.6262 11.189 14.7205 11.2918L14.8442 11.4266L15.2228 11.3963C15.6508 11.362 15.7321 11.3848 16.0112 11.617C16.34 11.8906 16.5684 11.8096 16.8315 11.3264C16.8766 11.2436 16.9947 11.1164 17.0939 11.0438C17.3372 10.8658 17.6563 10.8583 17.8984 11.0249C18.1005 11.164 18.1517 11.2293 18.3076 11.5472C18.4657 11.8696 18.5912 11.9417 18.871 11.8713C18.9818 11.8435 19.1362 11.8207 19.2142 11.8207C19.4144 11.8207 19.7193 12.0028 19.8765 12.2162C20.0489 12.4504 20.2013 12.4859 20.4939 12.3602C20.8643 12.201 21.093 12.2465 21.4611 12.5528C21.7145 12.7636 21.8563 12.7661 22.0429 12.5626C22.1523 12.4433 22.1823 12.3743 22.1823 12.2415C22.1823 12.0981 22.1527 12.0415 21.9869 11.8683C21.8795 11.7561 21.6811 11.6039 21.5462 11.5301C21.315 11.4038 21.2722 11.3959 20.8072 11.3944C20.3409 11.3929 20.3059 11.3864 20.1717 11.2768C19.8727 11.0325 19.3772 10.8563 19.131 10.9066C19.0297 10.9273 18.9795 10.915 18.9379 10.8594C18.6555 10.4816 18.4927 10.3287 18.2109 10.177C17.9177 10.019 17.8814 10.0105 17.5101 10.0125C17.1525 10.0144 17.0939 10.0275 16.8352 10.1635C16.6793 10.2454 16.4749 10.3897 16.3809 10.4841L16.21 10.6558L16.003 10.57C15.8892 10.5229 15.7 10.4704 15.5828 10.4535C15.4024 10.4273 15.3635 10.4046 15.3306 10.3059C15.0272 9.39582 14.1606 8.90911 13.2957 9.16299ZM0.246056 13.6869C0.0246018 13.8075 -0.023207 13.9622 0.0323923 14.378C0.149495 15.2539 0.647141 15.9044 1.45267 16.2343C1.54448 16.2719 1.82121 16.315 2.06759 16.3301L2.51558 16.3575L2.58639 16.715C2.76016 17.5921 3.09458 18.2397 3.69567 18.8631C4.29578 19.4854 5.01989 19.8507 5.86237 19.9559C6.33283 20.0147 18.6787 20.0147 19.1491 19.9559C19.9916 19.8507 20.7157 19.4854 21.3158 18.8631C21.9169 18.2397 22.2513 17.5921 22.4251 16.715L22.4959 16.3575L22.9439 16.3301C23.1903 16.315 23.467 16.2719 23.5588 16.2343C24.3634 15.9047 24.8616 15.2568 24.9776 14.3891C25.0348 13.9612 24.9887 13.8084 24.7654 13.6869C24.6298 13.613 23.9589 13.6087 12.5057 13.6087C1.05261 13.6087 0.381692 13.613 0.246056 13.6869ZM24.0684 14.6075C24.0684 14.6916 23.8602 14.9962 23.7061 15.1376C23.4578 15.3654 23.1791 15.4412 22.5895 15.4412C22.0049 15.4412 21.8245 15.4898 21.7453 15.6689C21.7192 15.728 21.678 15.9683 21.6538 16.2028C21.6035 16.6902 21.505 17.035 21.3042 17.4265C20.8976 18.2191 20.2646 18.7494 19.4593 18.972C19.1413 19.0599 19.0063 19.0617 12.5163 19.0617C5.97168 19.0617 5.89381 19.0606 5.56731 18.9698C4.51023 18.6755 3.75591 17.8693 3.44133 16.6975C3.39914 16.5403 3.37438 16.3945 3.38635 16.3734C3.39828 16.3523 7.27387 16.3351 11.9988 16.3351H20.5895L20.7094 16.2045C20.8958 16.0012 20.854 15.6202 20.632 15.5008C20.5939 15.4803 16.3374 15.4534 11.1732 15.4412L1.78361 15.4188L1.57909 15.316C1.46662 15.2595 1.33037 15.169 1.27628 15.1149C1.13831 14.9768 0.943056 14.6796 0.943056 14.6075C0.943056 14.557 2.8263 14.5472 12.5057 14.5472C22.1852 14.5472 24.0684 14.557 24.0684 14.6075Z" fill="#A2B0BA"/>
</svg>
