<svg width="21" height="23" viewBox="0 0 21 23" fill="none" xmlns="http://www.w3.org/2000/svg">
<g clip-path="url(#clip0_106:42)">
<path d="M-1.94957e-05 15.8909C-1.94957e-05 14.4571 -0.0292267 12.9935 -1.94957e-05 11.5597C0.058395 9.14026 0.876197 7.01948 2.33656 5.13766C2.59942 4.77922 2.9207 4.45065 3.24198 4.15195C3.32961 4.06234 3.38802 3.94286 3.38802 3.82338C3.38802 3.61429 3.38802 3.40519 3.38802 3.1961C3.38802 3.07662 3.35881 3.01688 3.24198 2.95714C2.54101 2.68831 2.16132 2.0013 2.27814 1.25455C2.39497 0.537662 2.97912 0 3.73851 0C5.25728 0 6.77606 0 8.32404 0C9.02502 0 9.60916 0.567532 9.72599 1.22468C9.84282 2.0013 9.49233 2.65844 8.82057 2.92727C8.67453 2.98701 8.64532 3.04675 8.64532 3.1961C8.58691 3.73377 8.73294 4.12208 9.11264 4.51039C10.7482 6.24286 11.6829 8.33377 11.9457 10.6935C12.0042 11.0818 12.0042 11.5 12.0042 11.9182C12.0042 14.6961 12.0042 17.4442 12.0042 20.2221C12.0042 21.5662 11.2156 22.5818 9.98885 22.9104C9.7844 22.9701 9.55075 22.9701 9.3463 22.9701C7.12655 22.9701 4.936 22.9701 2.71625 22.9701C1.16827 23 0.0291877 21.8351 -1.94957e-05 20.2818C-1.94957e-05 18.8182 -1.94957e-05 17.3545 -1.94957e-05 15.8909ZM0.759369 15.6818C0.759369 17.1753 0.759369 18.6987 0.759369 20.1922C0.759369 21.4169 1.54796 22.2234 2.74546 22.2234C4.9068 22.2234 7.09734 22.2234 9.25867 22.2234C9.46312 22.2234 9.66757 22.1935 9.84282 22.1636C10.7482 21.8948 11.2448 21.1779 11.2448 20.2221C11.2448 17.474 11.2448 14.726 11.2448 11.9481C11.2448 11.0818 11.1279 10.2455 10.9235 9.40909C10.8651 9.22987 10.8359 9.17013 10.6314 9.22987C9.66758 9.55844 8.64532 9.61818 7.65228 9.43896C6.9221 9.28961 6.25033 8.99091 5.57856 8.63247C4.26424 7.94545 2.9207 7.85584 1.54796 8.3039C1.43113 8.33377 1.37272 8.39351 1.34351 8.51299C0.963819 9.58831 0.759369 10.6636 0.759369 11.7987C0.759369 13.113 0.759369 14.3974 0.759369 15.6818ZM1.81083 7.40779C1.89845 7.43766 1.95687 7.40779 2.01528 7.40779C2.74546 7.25844 3.50485 7.25844 4.23503 7.37792C5.02362 7.52727 5.75381 7.88571 6.45478 8.24416C7.62307 8.84156 8.82056 8.93117 10.0765 8.63247C10.6314 8.48312 10.6314 8.48312 10.427 7.94546C10.3978 7.88571 10.3685 7.82597 10.3393 7.76623C9.7844 6.57143 9.05422 5.52597 8.09038 4.62987C7.91514 4.45065 7.82752 4.27143 7.85673 4.03247C7.85673 3.79351 7.85673 3.52468 7.85673 3.25584C7.85673 3.13636 7.82752 3.07662 7.71069 3.07662C6.57161 3.07662 5.43253 3.07662 4.29344 3.07662C4.14741 3.07662 4.1182 3.13636 4.1182 3.25584C4.1182 3.52468 4.1182 3.79351 4.1182 4.03247C4.1182 4.24156 4.05979 4.42078 3.88454 4.57013C3.50485 4.92857 3.12515 5.31688 2.80387 5.76494C2.45339 6.27273 2.1029 6.81039 1.81083 7.40779ZM6.01667 2.3C6.77606 2.3 7.56465 2.3 8.32404 2.3C8.44087 2.3 8.52849 2.27013 8.64532 2.21039C8.93739 2.03117 9.05422 1.67273 8.9666 1.34416C8.87898 0.985714 8.58691 0.776623 8.17801 0.776623C6.71764 0.776623 5.28649 0.776623 3.82613 0.776623C3.7093 0.776623 3.59247 0.776623 3.50485 0.836364C3.18357 0.955844 2.94991 1.31429 3.00833 1.67273C3.06674 2.03117 3.35881 2.3 3.68009 2.3C4.46869 2.3 5.22808 2.3 6.01667 2.3Z" fill="#A2B0BA"/>
<path d="M16.9109 13.0234C18.1084 13.0234 19.3351 13.0234 20.5326 13.0234C20.9123 13.0234 21.0584 13.1728 21.0292 13.5611C20.9123 14.9053 20.8247 16.2494 20.7079 17.5936C20.5911 18.9377 20.4742 20.3117 20.3866 21.6559C20.3866 21.8351 20.3574 22.0143 20.3282 22.1637C20.1529 22.6416 19.744 23.0001 19.2183 23.0001C17.6703 23.0001 16.0931 23.0001 14.5452 23.0001C13.961 23.0001 13.4937 22.552 13.4353 21.9546C13.3185 20.5208 13.2016 19.0871 13.0848 17.6533C12.968 16.2793 12.8511 14.9351 12.7635 13.5611C12.7343 13.2027 12.8804 13.0234 13.2308 13.0234C14.4575 13.0234 15.6842 13.0234 16.9109 13.0234ZM16.9109 16.1001C15.9179 16.1001 14.9249 16.1001 13.961 16.1001C13.7858 16.1001 13.7566 16.1598 13.7566 16.3092C13.9026 18.1014 14.0486 19.9234 14.1947 21.7156C14.2239 22.1338 14.3407 22.2533 14.7496 22.2533C16.1808 22.2533 17.6119 22.2533 19.0431 22.2533C19.452 22.2533 19.5688 22.1338 19.598 21.7455C19.744 19.9533 19.8901 18.1312 20.0361 16.339C20.0361 16.1897 20.0069 16.1299 19.8317 16.1299C18.8678 16.1001 17.8748 16.1001 16.9109 16.1001ZM16.8817 13.8001C15.8303 13.8001 14.7788 13.8001 13.7566 13.8001C13.6689 13.8001 13.5521 13.7403 13.5521 13.9494C13.5813 14.3377 13.6397 14.726 13.6397 15.1143C13.6397 15.2936 13.6982 15.3533 13.8734 15.3533C15.3046 15.3533 16.7357 15.3533 18.1669 15.3533C18.751 15.3533 19.3351 15.3533 19.8901 15.3533C20.0069 15.3533 20.0945 15.3533 20.0945 15.204C20.1237 14.8156 20.1529 14.4273 20.1822 14.039C20.2114 13.8598 20.153 13.8299 19.9777 13.8299C18.9847 13.8001 17.9332 13.8001 16.8817 13.8001Z" fill="#A2B0BA"/>
<path d="M9.75519 16.6674C9.75519 16.2493 9.75519 15.8609 9.75519 15.4428C9.75519 15.1441 9.87202 14.9648 10.1349 14.9648C10.3685 14.9648 10.5146 15.1441 10.5146 15.4428C10.5146 16.2493 10.5146 17.0558 10.5146 17.8921C10.5146 18.2207 10.3977 18.3999 10.1349 18.3999C9.90122 18.3999 9.75519 18.2207 9.75519 17.922C9.75519 17.4739 9.75519 17.0856 9.75519 16.6674Z" fill="#A2B0BA"/>
<path d="M9.75519 13.591C9.75519 13.5312 9.75519 13.4715 9.75519 13.4117C9.7844 13.1728 9.93043 13.0234 10.1349 13.0234C10.3393 13.0234 10.4854 13.1728 10.5146 13.4117C10.5146 13.5312 10.5146 13.6507 10.5146 13.7403C10.5146 13.9793 10.3685 14.1585 10.1349 14.1585C9.93043 14.1585 9.7844 14.0092 9.75519 13.7403C9.75519 13.7105 9.75519 13.6507 9.75519 13.591Z" fill="#A2B0BA"/>
</g>
<defs>
<clipPath id="clip0_106:42">
<rect width="21" height="23" fill="white"/>
</clipPath>
</defs>
</svg>
