<svg width="17" height="27" viewBox="0 0 17 27" fill="none" xmlns="http://www.w3.org/2000/svg">
<g clip-path="url(#clip0_106:76)">
<path d="M13.3038 24.0471C12.8239 24.374 12.3543 24.6061 11.8233 24.701C11.5783 24.7432 11.3332 24.7537 11.0882 24.7537C9.1993 24.7537 7.31041 24.7432 5.42152 24.7643C4.63534 24.7748 3.91041 24.585 3.24675 24.1314C3.22633 24.1103 3.1957 24.0998 3.13443 24.0682C3.28759 24.5639 3.43053 25.0174 3.66537 25.4287C3.86957 25.7768 4.1963 25.9455 4.58428 25.9455C5.06416 25.9455 5.53383 25.9455 6.01371 25.9455C6.39149 25.9455 6.61612 26.1459 6.60591 26.4728C6.60591 26.7998 6.38128 27.0002 6.0035 27.0002C5.53383 27.0002 5.06416 27.0107 4.6047 27.0002C3.68579 26.9791 3.01191 26.5361 2.62392 25.6713C1.99089 24.258 1.64374 22.7709 1.49059 21.2311C1.23534 18.7103 1.40891 16.2002 1.72543 13.69C1.96026 11.8443 2.28699 10.0092 2.65455 8.19511C2.66476 8.16347 2.66476 8.12129 2.66476 8.08965C2.57287 8.04746 2.54224 8.12129 2.49119 8.15293C2.16446 8.38496 1.83774 8.62754 1.51101 8.85957C1.16386 9.10215 0.898398 9.04941 0.663563 8.70136C-0.806707 6.47597 0.183683 2.93222 3.24675 2.36269C4.80891 2.07793 6.13624 2.60527 7.14705 3.90254C7.44314 4.28222 7.4023 4.57754 7.01431 4.85176C6.74885 5.05215 6.48338 5.24199 6.20771 5.44238C6.2996 5.52676 6.37107 5.49511 6.44254 5.49511C7.42272 5.49511 8.4029 5.49511 9.37287 5.50566C9.56687 5.50566 9.63834 5.43183 9.66897 5.25254C9.9038 3.64941 10.7615 2.56308 12.2113 1.93027C13.5284 1.35019 14.8149 0.727927 16.1218 0.126755C16.2035 0.0951148 16.275 0.0529273 16.3567 0.0318336C16.5915 -0.0314477 16.8263 0.0740211 16.9386 0.295505C17.051 0.51699 16.9999 0.812302 16.7957 0.959959C16.7038 1.02324 16.6017 1.07597 16.4996 1.11816C15.1314 1.75097 13.7735 2.38379 12.4053 3.0166C11.4455 3.45957 10.8942 4.22949 10.7002 5.28418C10.6594 5.47402 10.7206 5.52676 10.9044 5.52676C11.4864 5.51621 12.0582 5.52676 12.6401 5.52676C13.0894 5.52676 13.2323 5.64277 13.3344 6.08574C13.8654 8.50097 14.3146 10.9268 14.6413 13.3842C14.9272 15.5568 15.1314 17.7295 15.0395 19.9232C14.9579 21.9061 14.6311 23.8256 13.8245 25.6502C13.4263 26.5467 12.7525 27.0107 11.8029 27.0213C11.4251 27.0213 11.0576 27.0213 10.6798 27.0213C10.3326 27.0213 10.0978 26.7998 10.108 26.4939C10.108 26.1881 10.3428 25.9771 10.69 25.9666C11.0678 25.9666 11.4558 25.9666 11.8335 25.9666C12.3134 25.9561 12.6606 25.7346 12.8648 25.2811C13.0383 24.8803 13.1915 24.49 13.3038 24.0471ZM8.21912 23.6885C9.18909 23.6885 10.1591 23.6885 11.129 23.6885C11.3128 23.6885 11.5068 23.6885 11.6906 23.6463C12.6299 23.4248 13.263 22.7814 13.7735 21.9799C13.8041 21.9271 13.8143 21.8428 13.8245 21.7795C13.9675 20.8619 14.0287 19.9338 14.0287 18.9951C14.0389 16.0842 13.6203 13.2154 13.1404 10.3572C13.12 10.2201 13.0588 10.1674 12.926 10.1674C11.9356 10.1674 10.935 10.1674 9.94465 10.1674C9.8017 10.1674 9.75065 10.2201 9.73023 10.3572C9.56687 11.2537 9.39329 12.1502 9.21972 13.0467C8.699 15.7889 8.16807 18.5205 7.64735 21.2627C7.57588 21.6213 7.34104 21.8217 7.04495 21.7584C6.73864 21.6951 6.57528 21.4209 6.64675 21.0518C7.32062 17.5186 7.99449 13.9748 8.67858 10.4416C8.71942 10.2307 8.68879 10.1674 8.47437 10.1674C6.84074 10.1779 5.20711 10.1779 3.57347 10.1674C3.38969 10.1674 3.32843 10.2201 3.2978 10.41C2.95065 12.4561 2.65455 14.5021 2.5014 16.5693C2.38909 18.1092 2.36867 19.6596 2.54224 21.1994C2.59329 21.6107 2.63413 22.0221 2.93023 22.3701C3.58368 23.14 4.30861 23.7096 5.36026 23.6885C6.32002 23.6779 7.26957 23.6885 8.21912 23.6885ZM6.21792 9.13379C7.05516 9.13379 7.88218 9.13379 8.71942 9.13379C8.85215 9.13379 8.93383 9.12324 8.96446 8.95449C9.08699 8.22676 9.22993 7.50957 9.37287 6.78183C9.41371 6.60254 9.38308 6.5498 9.1993 6.5498C7.54525 6.56035 5.9014 6.56035 4.24735 6.5498C4.08398 6.5498 4.02272 6.61308 3.99209 6.76074C3.85936 7.46738 3.71642 8.17402 3.56326 8.87011C3.52242 9.07051 3.54284 9.12324 3.75726 9.12324C4.58428 9.12324 5.4011 9.13379 6.21792 9.13379ZM11.4149 9.13379C11.8437 9.13379 12.2828 9.12324 12.7116 9.13379C12.875 9.13379 12.9158 9.08105 12.8852 8.92285C12.732 8.19511 12.5789 7.46738 12.4359 6.73965C12.4053 6.59199 12.344 6.56035 12.2113 6.56035C11.6906 6.5709 11.1699 6.5709 10.6594 6.56035C10.5164 6.56035 10.4552 6.60254 10.4245 6.76074C10.2918 7.48847 10.1591 8.20566 10.0059 8.92285C9.96507 9.12324 10.0263 9.14433 10.1897 9.14433C10.5981 9.12324 11.0065 9.13379 11.4149 9.13379ZM4.21672 4.44043C4.20651 4.44043 4.18609 4.44043 4.17588 4.44043C4.17588 4.71465 4.17588 4.98886 4.17588 5.25254C4.17588 5.32636 4.13503 5.42129 4.21672 5.47402C4.30861 5.52676 4.39029 5.47402 4.47197 5.41074C4.96206 5.05215 5.44194 4.69355 5.93203 4.34551C6.05455 4.26113 6.06476 4.2084 5.94224 4.10293C5.49299 3.71269 4.98248 3.48066 4.41071 3.37519C4.24735 3.34355 4.20651 3.41738 4.20651 3.57558C4.21672 3.86035 4.21672 4.15566 4.21672 4.44043ZM1.02092 6.38105C1.02092 6.79238 1.08218 7.18261 1.23534 7.5623C1.28639 7.68886 1.32723 7.73105 1.44975 7.63613C1.93984 7.26699 2.42993 6.9084 2.92002 6.56035C3.11401 6.42324 3.04254 6.34941 2.86897 6.28613C2.5014 6.14902 2.14404 6.00136 1.77648 5.85371C1.04134 5.5584 1.04134 5.5584 1.02092 6.38105ZM3.15485 4.32441C3.16507 4.32441 3.17528 4.32441 3.1957 4.32441C3.1957 4.09238 3.1957 3.8709 3.1957 3.63886C3.1957 3.52285 3.18549 3.45957 3.04254 3.5123C2.49119 3.71269 2.03173 4.03965 1.66416 4.50371C1.59269 4.59863 1.59269 4.64082 1.71522 4.69355C2.14404 4.8623 2.57287 5.03105 2.99149 5.1998C3.11401 5.25254 3.15485 5.21035 3.15485 5.08379C3.15485 4.83066 3.15485 4.57754 3.15485 4.32441Z" fill="#A2B0BA"/>
<path d="M8.37238 25.9453C8.64806 25.9453 8.88289 26.1668 8.8931 26.4516C8.90331 26.7363 8.67869 26.9895 8.41322 26.9895C8.12734 27 7.88229 26.7574 7.88229 26.4621C7.87208 26.1879 8.09671 25.9453 8.37238 25.9453Z" fill="#A2B0BA"/>
<path d="M12.8955 18.9846C12.8955 19.2482 12.9057 19.5119 12.8955 19.7756C12.8648 20.3557 12.4258 20.8197 11.8642 20.8303C11.3742 20.8408 10.8739 20.8408 10.3838 20.8303C9.76094 20.8197 9.31169 20.3768 9.28106 19.7228C9.26064 19.2166 9.26064 18.6998 9.28106 18.1936C9.30148 17.5607 9.74052 17.1072 10.3633 17.0861C10.8432 17.065 11.3333 17.065 11.8132 17.0861C12.4564 17.1072 12.8853 17.5713 12.8955 18.2357C12.9057 18.4994 12.9057 18.742 12.8955 18.9846C12.9057 18.9846 12.9057 18.9846 12.8955 18.9846ZM11.8847 19.0268C11.8847 18.7736 11.8745 18.5627 11.8847 18.3518C11.8949 18.2041 11.8336 18.1514 11.6907 18.1514C11.3027 18.1619 10.9045 18.1619 10.5165 18.1514C10.3429 18.1514 10.2919 18.2146 10.3021 18.3834C10.3123 18.7631 10.3123 19.1428 10.3021 19.5119C10.2919 19.7439 10.3736 19.7967 10.5778 19.7861C10.7513 19.7756 10.9351 19.7861 11.1087 19.7861C11.3537 19.7756 11.6702 19.8916 11.8234 19.7439C11.997 19.5646 11.854 19.2377 11.8847 19.0268Z" fill="#A2B0BA"/>
<path d="M7.17775 13.7214C7.16754 14.0062 7.07564 14.2382 6.89186 14.4386C6.64681 14.7022 6.39156 14.9659 6.1363 15.219C5.70747 15.6304 5.14591 15.6304 4.71708 15.198C4.47204 14.9554 4.22699 14.7022 3.99216 14.4491C3.58375 14.0062 3.58375 13.4261 3.99216 12.9937C4.2372 12.73 4.48225 12.4769 4.72729 12.2343C5.14591 11.8229 5.70747 11.8229 6.12609 12.2343C6.38135 12.4874 6.6366 12.7511 6.88165 13.0147C7.07564 13.2151 7.16754 13.4577 7.17775 13.7214ZM6.10567 13.7425C6.09546 13.7108 6.08525 13.6897 6.06483 13.6687C5.87084 13.4683 5.67684 13.2679 5.49306 13.078C5.42159 13.0042 5.37054 13.0675 5.3297 13.1097C5.17654 13.2679 5.02339 13.4366 4.86003 13.5948C4.7375 13.7108 4.74771 13.7847 4.87024 13.8796C5.07444 14.0483 5.2378 14.4175 5.4318 14.3858C5.64621 14.3542 5.83 14.0378 6.02399 13.8374C6.05462 13.8058 6.08525 13.7741 6.10567 13.7425Z" fill="#A2B0BA"/>
</g>
<defs>
<clipPath id="clip0_106:76">
<rect width="17" height="27" fill="white"/>
</clipPath>
</defs>
</svg>
