<svg width="41" height="35" viewBox="0 0 41 35" fill="none" xmlns="http://www.w3.org/2000/svg">
<path fill-rule="evenodd" clip-rule="evenodd" d="M19.6543 0.0145601C19.4195 0.0643084 19.1645 0.473168 19.1645 0.800208C19.1645 1.03972 19.2128 1.13179 19.479 1.40039C20.0712 1.99769 20.3518 2.37549 20.4306 2.68134C20.5999 3.33854 20.5393 3.52119 19.8422 4.45538C19.2958 5.18768 19.1426 5.65771 19.1787 6.49005C19.212 7.25521 19.3947 7.69191 20.0218 8.50549C20.2543 8.80703 20.4624 9.13712 20.4845 9.23904C20.6005 9.77673 20.3076 10.5079 19.7949 10.9603C19.3041 11.3935 19.1645 11.5893 19.1645 11.8451C19.1645 12.4485 19.5598 12.8056 20.0418 12.6376C20.3743 12.5217 21.0407 11.8831 21.3175 11.4151C21.7308 10.7163 21.8168 10.3944 21.8189 9.53972C21.8205 8.84262 21.8013 8.71488 21.6429 8.36586C21.5451 8.15044 21.2647 7.71421 21.0197 7.39647C20.7748 7.07866 20.5561 6.73379 20.5337 6.63007C20.4531 6.25656 20.5627 5.89894 20.8928 5.45926C21.5168 4.62786 21.5944 4.49817 21.7238 4.06991C22.122 2.75205 21.598 1.21626 20.4357 0.294434C20.1201 0.0441277 19.8951 -0.0364397 19.6543 0.0145601ZM15.5168 4.81308C15.2946 4.88387 14.7727 5.32183 14.4822 5.6811C13.9763 6.30678 13.7059 7.09399 13.7059 7.94073C13.7059 8.73334 13.8587 9.14674 14.4421 9.93246C15.0109 10.6985 15.0883 10.9183 14.9855 11.4761C14.9121 11.8739 14.6776 12.2031 13.963 12.9117C13.7488 13.1241 13.718 13.1983 13.7199 13.4984C13.7222 13.8671 13.8 14.0369 14.0327 14.1811C14.407 14.4129 14.8937 14.1733 15.4992 13.4595C15.9644 12.9111 16.2392 12.3248 16.3465 11.6517C16.5025 10.6743 16.2948 9.98057 15.5439 8.9709C15.1004 8.37462 15.0627 8.29617 15.0627 7.97108C15.0627 7.77702 15.1051 7.50012 15.157 7.35564C15.2753 7.02618 15.6762 6.50507 15.9786 6.2877C16.5635 5.86718 16.5158 5.01982 15.8957 4.81754C15.7889 4.78265 15.6184 4.7807 15.5168 4.81308ZM26.3206 4.87722C25.8513 5.12573 25.2008 5.90488 24.914 6.56194C24.6755 7.1087 24.6582 7.19506 24.6518 7.87417C24.6457 8.51972 24.6658 8.65058 24.8317 9.04356C24.9345 9.28691 25.2149 9.74074 25.4549 10.0521C25.9322 10.6713 25.9894 10.8242 25.939 11.3449C25.8943 11.8057 25.6485 12.2208 25.1705 12.643C24.676 13.0797 24.5667 13.321 24.6741 13.7381C24.772 14.1184 25.0781 14.3197 25.4385 14.241C25.7692 14.1689 26.3845 13.616 26.7311 13.0797C27.1368 12.4519 27.3079 11.8808 27.3097 11.1486C27.312 10.2332 27.1719 9.8774 26.4225 8.89542C26.2109 8.61812 26.0213 8.29562 26.0012 8.17868C25.9094 7.64482 26.2152 6.91049 26.7047 6.48911C27.2425 6.02613 27.3011 5.93539 27.3011 5.56541C27.3011 5.30861 27.2592 5.16883 27.1362 5.01434C27.0455 4.90053 26.9269 4.80737 26.8727 4.80737C26.8185 4.80737 26.7338 4.7904 26.6846 4.76967C26.6353 4.74894 26.4715 4.79736 26.3206 4.87722ZM0.293655 16.0533C0.108936 16.2273 0 16.4783 0 16.7296C0 17.1808 0.232395 17.331 3.26133 18.8384C7.18926 20.7932 8.79807 21.593 9.51503 21.9469C10.2557 22.3126 10.4371 22.3242 10.697 22.0219C10.8822 21.8064 10.9264 21.6401 10.8961 21.2728C10.8635 20.8787 11.2046 21.0631 2.20809 16.5744C0.835507 15.8896 0.549922 15.8118 0.293655 16.0533ZM21.8049 16.0352C21.4227 16.155 21.0035 16.4367 20.663 16.8028L20.4468 17.0353L20.0914 16.898C19.2877 16.5876 18.4018 16.6869 17.7406 17.1615L17.4263 17.3871L17.2166 17.2072C17.1013 17.1082 16.7959 16.9483 16.5381 16.8519C15.9656 16.6378 15.2993 16.6652 14.7098 16.9273C14.2826 17.1172 13.6675 17.7182 13.4047 18.2024C13.3153 18.3671 13.2133 18.481 13.1779 18.4555C12.9964 18.325 12.2727 18.2614 11.8894 18.3423C11.4993 18.4245 11.4742 18.4199 11.3053 18.2357C10.8905 17.7831 9.97888 17.4155 9.4968 17.5065C9.01695 17.5971 8.77507 18.1071 8.97714 18.6024C9.0928 18.8859 9.26905 19.0021 9.71676 19.0899C10.1042 19.1659 10.3283 19.3186 10.6909 19.754C11.0547 20.1907 11.2365 20.233 11.7963 20.0112C12.2608 19.8271 12.7671 19.9032 13.1274 20.2114C13.3391 20.3925 13.4799 20.4515 13.7004 20.4515C14.0839 20.4515 14.2815 20.2251 14.3841 19.6683C14.4869 19.1107 14.6796 18.7684 15.0181 18.542C15.6446 18.1231 16.169 18.2185 16.7446 18.8559C17.2708 19.4388 17.5994 19.4576 18.0359 18.9296C18.1943 18.738 18.4365 18.5268 18.574 18.4603C19.043 18.2337 19.7972 18.353 20.0392 18.6922C20.1616 18.8637 20.471 19.0435 20.6439 19.0435C20.9052 19.0435 21.1535 18.8236 21.3381 18.4292C21.7316 17.5881 22.4276 17.2703 23.0989 17.625C23.6164 17.8985 23.9376 18.5107 23.9385 19.2255C23.9388 19.4539 23.987 19.5808 24.1416 19.7607L24.3444 19.9966L24.9653 19.9435C25.6674 19.8835 25.8007 19.9233 26.2584 20.3298C26.7975 20.8085 27.1722 20.6668 27.6037 19.8212C27.6776 19.6762 27.8713 19.4537 28.034 19.3267C28.4331 19.0151 28.9563 19.0021 29.3534 19.2936C29.6849 19.537 29.7687 19.6512 30.0244 20.2075C30.2838 20.7717 30.4896 20.8981 30.9484 20.7749C31.1301 20.726 31.3833 20.6862 31.5112 20.6862C31.8396 20.6862 32.3396 21.0048 32.5974 21.3784C32.8802 21.7881 33.1301 21.8503 33.61 21.6304C34.2175 21.3517 34.5926 21.4314 35.1962 21.9673C35.6117 22.3364 35.8443 22.3406 36.1504 21.9846C36.3298 21.7758 36.379 21.655 36.379 21.4227C36.379 21.1716 36.3305 21.0726 36.0586 20.7695C35.8824 20.5731 35.5571 20.3068 35.3357 20.1777C34.9565 19.9566 34.8865 19.9429 34.1238 19.9402C33.3591 19.9375 33.3017 19.9262 33.0816 19.7344C32.5912 19.3069 31.7786 18.9985 31.3748 19.0866C31.2087 19.1228 31.1264 19.1013 31.0581 19.0039C30.595 18.3427 30.3281 18.0753 29.8658 17.8097C29.3851 17.5333 29.3254 17.5184 28.7165 17.5219C28.1301 17.5253 28.034 17.5482 27.6096 17.7861C27.3541 17.9294 27.0188 18.1819 26.8647 18.3471L26.5844 18.6476L26.2449 18.4975C26.0583 18.415 25.7481 18.3232 25.5557 18.2935C25.2599 18.2479 25.1962 18.208 25.1423 18.0353C24.6447 16.4427 23.2233 15.5909 21.8049 16.0352ZM0.403532 23.952C0.0403469 24.1631 -0.0380595 24.4339 0.0531233 25.1615C0.245172 26.6944 1.06131 27.8326 2.38239 28.41C2.53295 28.4758 2.98678 28.5512 3.39085 28.5776L4.12555 28.6255L4.24168 29.2513C4.52667 30.7862 5.07511 31.9195 6.0609 33.0104C7.04509 34.0995 8.23262 34.7386 9.61428 34.9229C10.3858 35.0257 30.633 35.0257 31.4046 34.9229C32.7862 34.7386 33.9738 34.0995 34.9579 33.0104C35.9437 31.9195 36.4922 30.7862 36.7772 29.2513L36.8933 28.6255L37.628 28.5776C38.0321 28.5512 38.4859 28.4758 38.6365 28.41C39.956 27.8332 40.773 26.6994 40.9633 25.1809C41.0571 24.4321 40.9815 24.1648 40.6153 23.952C40.3929 23.8227 39.2926 23.8152 20.5094 23.8152C1.72629 23.8152 0.625975 23.8227 0.403532 23.952ZM39.4722 25.5632C39.4722 25.7103 39.1308 26.2434 38.8781 26.4907C38.4708 26.8894 38.0138 27.022 37.0467 27.022C36.088 27.022 35.7921 27.1072 35.6623 27.4206C35.6194 27.524 35.5519 27.9445 35.5122 28.3548C35.4298 29.2079 35.2683 29.8112 34.9388 30.4963C34.272 31.8834 33.2339 32.8114 31.9133 33.201C31.3918 33.3548 31.1704 33.3579 20.5267 33.3579C9.79355 33.3579 9.66585 33.3561 9.13039 33.1971C7.39677 32.6821 6.15968 31.2713 5.64379 29.2206C5.57459 28.9455 5.53398 28.6903 5.55361 28.6535C5.57318 28.6165 11.9292 28.5864 19.678 28.5864H33.7668L33.9634 28.3578C34.2692 28.002 34.2005 27.3353 33.8365 27.1264C33.774 27.0905 26.7934 27.0435 18.324 27.022L2.92511 26.9829L2.5897 26.8031C2.40525 26.7042 2.1818 26.5458 2.0931 26.4511C1.86683 26.2095 1.54661 25.6892 1.54661 25.5632C1.54661 25.4748 4.63513 25.4576 20.5094 25.4576C36.3837 25.4576 39.4722 25.4748 39.4722 25.5632Z" fill="#A2B0BA"/>
<path fill-rule="evenodd" clip-rule="evenodd" d="M19.6543 0.0145601C19.4195 0.0643084 19.1645 0.473168 19.1645 0.800208C19.1645 1.03972 19.2128 1.13179 19.479 1.40039C20.0712 1.99769 20.3518 2.37549 20.4306 2.68134C20.5999 3.33854 20.5393 3.52119 19.8422 4.45538C19.2958 5.18768 19.1426 5.65771 19.1787 6.49005C19.212 7.25521 19.3947 7.69191 20.0218 8.50549C20.2543 8.80703 20.4624 9.13712 20.4845 9.23904C20.6005 9.77673 20.3076 10.5079 19.7949 10.9603C19.3041 11.3935 19.1645 11.5893 19.1645 11.8451C19.1645 12.4485 19.5598 12.8056 20.0418 12.6376C20.3743 12.5217 21.0407 11.8831 21.3175 11.4151C21.7308 10.7163 21.8168 10.3944 21.8189 9.53972C21.8205 8.84262 21.8013 8.71488 21.6429 8.36586C21.5451 8.15044 21.2647 7.71421 21.0197 7.39647C20.7748 7.07866 20.5561 6.73379 20.5337 6.63007C20.4531 6.25656 20.5627 5.89894 20.8928 5.45926C21.5168 4.62786 21.5944 4.49817 21.7238 4.06991C22.122 2.75205 21.598 1.21626 20.4357 0.294434C20.1201 0.0441277 19.8951 -0.0364397 19.6543 0.0145601ZM15.5168 4.81308C15.2946 4.88387 14.7727 5.32183 14.4822 5.6811C13.9763 6.30678 13.7059 7.09399 13.7059 7.94073C13.7059 8.73334 13.8587 9.14674 14.4421 9.93246C15.0109 10.6985 15.0883 10.9183 14.9855 11.4761C14.9121 11.8739 14.6776 12.2031 13.963 12.9117C13.7488 13.1241 13.718 13.1983 13.7199 13.4984C13.7222 13.8671 13.8 14.0369 14.0327 14.1811C14.407 14.4129 14.8937 14.1733 15.4992 13.4595C15.9644 12.9111 16.2392 12.3248 16.3465 11.6517C16.5025 10.6743 16.2948 9.98057 15.5439 8.9709C15.1004 8.37462 15.0627 8.29617 15.0627 7.97108C15.0627 7.77702 15.1051 7.50012 15.157 7.35564C15.2753 7.02618 15.6762 6.50507 15.9786 6.2877C16.5635 5.86718 16.5158 5.01982 15.8957 4.81754C15.7889 4.78265 15.6184 4.7807 15.5168 4.81308ZM26.3206 4.87722C25.8513 5.12573 25.2008 5.90488 24.914 6.56194C24.6755 7.1087 24.6582 7.19506 24.6518 7.87417C24.6457 8.51972 24.6658 8.65058 24.8317 9.04356C24.9345 9.28691 25.2149 9.74074 25.4549 10.0521C25.9322 10.6713 25.9894 10.8242 25.939 11.3449C25.8943 11.8057 25.6485 12.2208 25.1705 12.643C24.676 13.0797 24.5667 13.321 24.6741 13.7381C24.772 14.1184 25.0781 14.3197 25.4385 14.241C25.7692 14.1689 26.3845 13.616 26.7311 13.0797C27.1368 12.4519 27.3079 11.8808 27.3097 11.1486C27.312 10.2332 27.1719 9.8774 26.4225 8.89542C26.2109 8.61812 26.0213 8.29562 26.0012 8.17868C25.9094 7.64482 26.2152 6.91049 26.7047 6.48911C27.2425 6.02613 27.3011 5.93539 27.3011 5.56541C27.3011 5.30861 27.2592 5.16883 27.1362 5.01434C27.0455 4.90053 26.9269 4.80737 26.8727 4.80737C26.8185 4.80737 26.7338 4.7904 26.6846 4.76967C26.6353 4.74894 26.4715 4.79736 26.3206 4.87722ZM0.293655 16.0533C0.108936 16.2273 0 16.4783 0 16.7296C0 17.1808 0.232395 17.331 3.26133 18.8384C7.18926 20.7932 8.79807 21.593 9.51503 21.9469C10.2557 22.3126 10.4371 22.3242 10.697 22.0219C10.8822 21.8064 10.9264 21.6401 10.8961 21.2728C10.8635 20.8787 11.2046 21.0631 2.20809 16.5744C0.835507 15.8896 0.549922 15.8118 0.293655 16.0533ZM21.8049 16.0352C21.4227 16.155 21.0035 16.4367 20.663 16.8028L20.4468 17.0353L20.0914 16.898C19.2877 16.5876 18.4018 16.6869 17.7406 17.1615L17.4263 17.3871L17.2166 17.2072C17.1013 17.1082 16.7959 16.9483 16.5381 16.8519C15.9656 16.6378 15.2993 16.6652 14.7098 16.9273C14.2826 17.1172 13.6675 17.7182 13.4047 18.2024C13.3153 18.3671 13.2133 18.481 13.1779 18.4555C12.9964 18.325 12.2727 18.2614 11.8894 18.3423C11.4993 18.4245 11.4742 18.4199 11.3053 18.2357C10.8905 17.7831 9.97888 17.4155 9.4968 17.5065C9.01695 17.5971 8.77507 18.1071 8.97714 18.6024C9.0928 18.8859 9.26905 19.0021 9.71676 19.0899C10.1042 19.1659 10.3283 19.3186 10.6909 19.754C11.0547 20.1907 11.2365 20.233 11.7963 20.0112C12.2608 19.8271 12.7671 19.9032 13.1274 20.2114C13.3391 20.3925 13.4799 20.4515 13.7004 20.4515C14.0839 20.4515 14.2815 20.2251 14.3841 19.6683C14.4869 19.1107 14.6796 18.7684 15.0181 18.542C15.6446 18.1231 16.169 18.2185 16.7446 18.8559C17.2708 19.4388 17.5994 19.4576 18.0359 18.9296C18.1943 18.738 18.4365 18.5268 18.574 18.4603C19.043 18.2337 19.7972 18.353 20.0392 18.6922C20.1616 18.8637 20.471 19.0435 20.6439 19.0435C20.9052 19.0435 21.1535 18.8236 21.3381 18.4292C21.7316 17.5881 22.4276 17.2703 23.0989 17.625C23.6164 17.8985 23.9376 18.5107 23.9385 19.2255C23.9388 19.4539 23.987 19.5808 24.1416 19.7607L24.3444 19.9966L24.9653 19.9435C25.6674 19.8835 25.8007 19.9233 26.2584 20.3298C26.7975 20.8085 27.1722 20.6668 27.6037 19.8212C27.6776 19.6762 27.8713 19.4537 28.034 19.3267C28.4331 19.0151 28.9563 19.0021 29.3534 19.2936C29.6849 19.537 29.7687 19.6512 30.0244 20.2075C30.2838 20.7717 30.4896 20.8981 30.9484 20.7749C31.1301 20.726 31.3833 20.6862 31.5112 20.6862C31.8396 20.6862 32.3396 21.0048 32.5974 21.3784C32.8802 21.7881 33.1301 21.8503 33.61 21.6304C34.2175 21.3517 34.5926 21.4314 35.1962 21.9673C35.6117 22.3364 35.8443 22.3406 36.1504 21.9846C36.3298 21.7758 36.379 21.655 36.379 21.4227C36.379 21.1716 36.3305 21.0726 36.0586 20.7695C35.8824 20.5731 35.5571 20.3068 35.3357 20.1777C34.9565 19.9566 34.8865 19.9429 34.1238 19.9402C33.3591 19.9375 33.3017 19.9262 33.0816 19.7344C32.5912 19.3069 31.7786 18.9985 31.3748 19.0866C31.2087 19.1228 31.1264 19.1013 31.0581 19.0039C30.595 18.3427 30.3281 18.0753 29.8658 17.8097C29.3851 17.5333 29.3254 17.5184 28.7165 17.5219C28.1301 17.5253 28.034 17.5482 27.6096 17.7861C27.3541 17.9294 27.0188 18.1819 26.8647 18.3471L26.5844 18.6476L26.2449 18.4975C26.0583 18.415 25.7481 18.3232 25.5557 18.2935C25.2599 18.2479 25.1962 18.208 25.1423 18.0353C24.6447 16.4427 23.2233 15.5909 21.8049 16.0352ZM0.403532 23.952C0.0403469 24.1631 -0.0380595 24.4339 0.0531233 25.1615C0.245172 26.6944 1.06131 27.8326 2.38239 28.41C2.53295 28.4758 2.98678 28.5512 3.39085 28.5776L4.12555 28.6255L4.24168 29.2513C4.52667 30.7862 5.07511 31.9195 6.0609 33.0104C7.04509 34.0995 8.23262 34.7386 9.61428 34.9229C10.3858 35.0257 30.633 35.0257 31.4046 34.9229C32.7862 34.7386 33.9738 34.0995 34.9579 33.0104C35.9437 31.9195 36.4922 30.7862 36.7772 29.2513L36.8933 28.6255L37.628 28.5776C38.0321 28.5512 38.4859 28.4758 38.6365 28.41C39.956 27.8332 40.773 26.6994 40.9633 25.1809C41.0571 24.4321 40.9815 24.1648 40.6153 23.952C40.3929 23.8227 39.2926 23.8152 20.5094 23.8152C1.72629 23.8152 0.625975 23.8227 0.403532 23.952ZM39.4722 25.5632C39.4722 25.7103 39.1308 26.2434 38.8781 26.4907C38.4708 26.8894 38.0138 27.022 37.0467 27.022C36.088 27.022 35.7921 27.1072 35.6623 27.4206C35.6194 27.524 35.5519 27.9445 35.5122 28.3548C35.4298 29.2079 35.2683 29.8112 34.9388 30.4963C34.272 31.8834 33.2339 32.8114 31.9133 33.201C31.3918 33.3548 31.1704 33.3579 20.5267 33.3579C9.79355 33.3579 9.66585 33.3561 9.13039 33.1971C7.39677 32.6821 6.15968 31.2713 5.64379 29.2206C5.57459 28.9455 5.53398 28.6903 5.55361 28.6535C5.57318 28.6165 11.9292 28.5864 19.678 28.5864H33.7668L33.9634 28.3578C34.2692 28.002 34.2005 27.3353 33.8365 27.1264C33.774 27.0905 26.7934 27.0435 18.324 27.022L2.92511 26.9829L2.5897 26.8031C2.40525 26.7042 2.1818 26.5458 2.0931 26.4511C1.86683 26.2095 1.54661 25.6892 1.54661 25.5632C1.54661 25.4748 4.63513 25.4576 20.5094 25.4576C36.3837 25.4576 39.4722 25.4748 39.4722 25.5632Z" fill="#5FD3D1"/>
</svg>
