<svg width="42" height="33" viewBox="0 0 42 33" fill="none" xmlns="http://www.w3.org/2000/svg">
<g clip-path="url(#clip0_120:153)">
<path d="M0.0144177 16.2235C0.0673366 14.9414 -0.10906 13.3435 0.0849763 11.7641C0.473049 8.51238 2.18409 6.37555 5.11228 5.27927C7.47599 4.40596 9.9279 4.42454 12.3798 4.57319C15.8901 4.79616 19.3651 4.62893 22.699 3.21677C23.9161 2.6965 25.0804 2.08332 26.2622 1.48873C29.0669 0.0579863 32.0127 -0.257892 35.0644 0.206635C36.2286 0.373865 37.3752 0.634 38.4512 1.15427C40.7444 2.28772 41.9439 4.1644 41.9791 6.8215C42.0144 9.31136 42.0144 11.8012 41.9791 14.2911C41.9439 16.6695 41.0972 18.7877 39.8977 20.7573C37.3575 24.9381 33.8296 27.9482 29.649 30.1408C26.5444 31.7759 23.2458 32.5935 19.7885 32.8722C17.2836 33.0766 14.7964 33.0951 12.3093 32.6678C9.11648 32.1289 6.17065 30.9769 3.75402 28.6357C1.86658 26.8147 0.561247 24.6222 0.137895 21.9093C0.0144177 21.1661 0.0144177 20.4228 0.0144177 19.6796C0.0144177 18.6391 0.0144177 17.5799 0.0144177 16.2235ZM12.715 5.78096C11.9741 5.78096 11.2509 5.78096 10.51 5.78096C8.83424 5.76238 7.19375 5.87386 5.60619 6.44988C3.18955 7.34177 1.67254 9.05123 1.33739 11.7826C1.0728 13.9195 1.51379 15.9076 2.60745 17.7286C4.44197 20.8131 7.17611 22.5597 10.4218 23.4887C14.5671 24.6593 18.7477 24.4921 22.9283 23.7117C27.6381 22.8198 31.7129 20.4972 35.2584 17.1154C37.287 15.183 38.9628 12.9904 40.0388 10.2962C40.3739 9.44143 40.6032 8.54954 40.7091 7.62049C40.9737 5.00055 39.88 3.01238 37.481 2.17623C33.8296 0.894135 30.2135 0.931297 26.6856 2.73366C25.0451 3.56981 23.4222 4.44312 21.6759 5.00055C18.7301 5.92961 15.7313 6.04109 12.715 5.78096ZM40.6738 11.9499C40.5503 12.1729 40.4621 12.3401 40.3739 12.5259C40.2857 12.6931 40.1799 12.8789 40.0917 13.0462C37.3575 17.6543 33.4945 20.8688 28.8552 23.1357C25.3979 24.808 21.7112 25.4397 17.9363 25.5698C15.0258 25.6813 12.1505 25.4583 9.36343 24.5293C5.99426 23.4144 3.24247 21.4262 1.42559 18.1745C1.40795 18.1374 1.35503 18.1188 1.28447 18.0631C1.30211 19.3451 1.19627 20.5715 1.40795 21.7978C1.79602 24.2134 3.01316 26.1644 4.7242 27.781C7.10556 30.0293 10.0161 31.0512 13.1207 31.4972C16.2782 31.9431 19.4357 31.8131 22.5579 31.2185C29.0846 29.9735 34.3588 26.5174 38.363 20.9431C40.1975 18.286 41.0972 15.3316 40.6738 11.9499Z" fill="#5FD3D1"/>
<path d="M17.4633 21.7395C14.3411 21.7209 11.3248 21.2192 8.53769 19.6212C6.68552 18.5621 5.18615 17.1128 4.37473 14.9945C4.05722 14.1584 3.88082 13.3036 3.93374 12.4117C4.02194 10.628 4.9392 9.45736 6.45621 8.8256C9.19035 7.67357 11.8892 7.95229 14.5175 9.29013C15.2231 9.64317 15.7876 10.2378 16.2462 10.9067C16.4755 11.2411 16.7048 11.5942 16.9165 11.9472C17.5515 13.0249 18.4688 13.6938 19.5977 14.084C21.5028 14.753 23.4785 15.1989 25.4012 15.8307C26.0715 16.0536 26.7418 16.258 27.3945 16.5739C27.6061 16.6854 27.8178 16.7783 28.0119 16.9084C29.2643 17.7074 29.2643 18.8222 27.9942 19.584C26.7771 20.3087 25.4188 20.606 24.0782 20.9219C21.8909 21.4793 19.6859 21.7395 17.4633 21.7395ZM17.2164 20.4574C20.1446 20.4388 22.667 20.03 25.1542 19.3239C25.9127 19.1195 26.6536 18.878 27.3415 18.5063C27.6767 18.3205 27.6414 18.1905 27.3415 18.0232C27.1299 17.9118 26.9182 17.8003 26.7065 17.7074C24.8191 16.9084 22.8611 16.3881 20.8854 15.8864C18.5041 15.2732 16.5108 14.1584 15.2937 11.78C14.8174 10.8695 13.9883 10.3307 13.0534 9.99621C12.2773 9.71749 11.4659 9.55026 10.6368 9.47594C9.19035 9.34587 7.77918 9.49452 6.49149 10.2563C5.55659 10.7952 5.11559 11.6685 5.15087 12.7834C5.16851 13.3036 5.25671 13.7868 5.43311 14.2884C6.10341 16.1837 7.40875 17.4658 9.04924 18.4134C11.6952 19.9557 14.5704 20.4388 17.2164 20.4574Z" fill="#5FD3D1"/>
<path d="M30.7282 15.0132C28.1352 15.0317 25.7186 14.2142 23.3549 13.2108C22.3141 12.7649 21.2734 12.2817 20.3032 11.6686C19.8269 11.3713 19.3859 11.0368 19.0684 10.5537C18.5569 9.81046 18.6451 9.04864 19.2977 8.45404C19.9857 7.82228 20.8324 7.54357 21.7144 7.4135C24.0252 7.06046 26.1949 6.29864 28.2058 5.07228C29.3347 4.40336 30.4813 3.77161 31.8043 3.62296C33.1802 3.47431 34.5031 3.62296 35.7555 4.25472C37.2902 5.01654 38.084 6.55877 37.8547 8.36114C37.5901 10.6094 36.5493 12.3932 34.9265 13.8426C33.921 14.7344 32.6862 14.8831 31.4515 14.9946C31.2222 15.0317 30.9752 15.0132 30.7282 15.0132ZM30.7106 13.6939C30.9399 13.6939 31.1869 13.7125 31.4162 13.6939C32.4393 13.5824 33.48 13.5453 34.3091 12.7463C35.4557 11.65 36.2495 10.3122 36.5846 8.71418C36.9374 7.09762 36.3729 5.88985 34.9794 5.33242C33.5859 4.77499 32.1747 4.70066 30.7635 5.23951C29.9168 5.55539 29.1407 6.0385 28.3645 6.48445C26.4771 7.56215 24.4838 8.28681 22.3494 8.62127C21.6262 8.73276 20.903 8.91857 20.2679 9.32735C19.9681 9.51316 19.9681 9.69897 20.1974 9.94053C20.4443 10.2007 20.7089 10.4051 21.0088 10.5723C21.979 11.1669 23.0021 11.6314 24.0252 12.0774C26.1596 12.9878 28.3645 13.7125 30.7106 13.6939Z" fill="#5FD3D1"/>
<path d="M16.987 30.1196C15.5229 30.1382 14.0764 29.971 12.6652 29.5993C12.2242 29.4879 11.9949 29.1534 12.1008 28.7632C12.189 28.3916 12.5241 28.2243 12.9475 28.3358C15.7345 29.0233 18.5216 28.9304 21.3087 28.373C21.3792 28.3544 21.4498 28.3358 21.5203 28.3172C21.9613 28.2615 22.2612 28.4287 22.3318 28.8189C22.4023 29.2091 22.1907 29.525 21.7673 29.5993C21.0264 29.748 20.2856 29.8781 19.5447 29.971C18.698 30.0824 17.8513 30.101 16.987 30.1196Z" fill="#5FD3D1"/>
<path d="M24.5545 28.7446C24.237 28.7261 23.99 28.5774 23.9195 28.2615C23.8489 27.9271 23.9547 27.6112 24.2722 27.4997C25.1366 27.221 26.0009 26.9237 26.8653 26.6078C27.1828 26.4963 27.4474 26.6636 27.5885 26.9794C27.712 27.2953 27.6414 27.6298 27.3415 27.7784C26.4419 28.2058 25.4894 28.5031 24.5545 28.7446Z" fill="#5FD3D1"/>
</g>
<defs>
<clipPath id="clip0_120:153">
<rect width="42" height="33" fill="white"/>
</clipPath>
</defs>
</svg>
