<svg width="42" height="32" viewBox="0 0 42 32" fill="none" xmlns="http://www.w3.org/2000/svg">
<path fill-rule="evenodd" clip-rule="evenodd" d="M5.39825 0.0825302C5.10095 0.219485 0.123757 5.31562 0.0821037 5.5257C0.00816634 5.89867 -0.0353064 26.175 0.0372155 26.4485C0.166151 26.9344 0.50416 27.358 0.945088 27.5861L1.3447 27.7928L16.2617 27.8106L31.1786 27.8283V26.87V25.9116H16.4855H1.79237V16.3685V6.82547H3.46509C5.37634 6.82547 5.66738 6.77485 6.11484 6.36453C6.66294 5.86193 6.67615 5.80159 6.69967 3.69576L6.72049 1.83161H22.8587H38.997V7.85072V13.8699L39.4519 14.1024C39.7021 14.2303 40.1268 14.5074 40.3955 14.7182L40.8841 15.1014V8.3421C40.8841 0.844812 40.9022 1.1597 40.4403 0.612015C40.3058 0.452417 40.07 0.253689 39.9165 0.170367L39.6373 0.0187725L22.6189 0.00406477C8.37967 -0.00824886 5.56742 0.00454385 5.39825 0.0825302ZM8.64051 6.68332C8.30466 6.90804 8.17478 7.18886 8.20962 7.61512C8.23193 7.88793 8.28443 8.03747 8.40313 8.16649C8.76607 8.5608 7.93173 8.5357 20.6788 8.5357C31.9189 8.5357 32.4378 8.53029 32.6625 8.41092C33.1615 8.14577 33.3235 7.42562 32.9907 6.95134C32.6898 6.52249 33.597 6.55177 20.6508 6.55231C9.13792 6.55272 8.83064 6.55608 8.64051 6.68332ZM8.70083 10.7837C8.35237 11.0021 8.24204 11.1803 8.20962 11.5768C8.18549 11.8726 8.20848 11.9958 8.32319 12.1842C8.62265 12.676 7.74632 12.6402 19.5152 12.6402C31.0675 12.6402 30.3158 12.666 30.6317 12.2584C30.9609 11.8336 30.8401 11.1418 30.3816 10.8256L30.1363 10.6564L19.5197 10.6567C9.3015 10.6569 8.89541 10.6616 8.70083 10.7837ZM35.4664 14.4242C34.0834 14.6163 32.6197 15.4408 31.7961 16.4915C30.3122 18.3848 30.0455 20.754 31.0781 22.8707C31.798 24.3464 33.1741 25.4883 34.7508 25.9183C37.0674 26.5501 39.6604 25.5749 41.0127 23.5633C41.3247 23.0993 41.7233 22.2012 41.8683 21.636C42.0543 20.9101 42.0413 19.4837 41.8422 18.7773C41.3361 16.9824 40.1669 15.5907 38.5538 14.8633C37.7031 14.4797 36.4006 14.2944 35.4664 14.4242ZM8.73588 14.8808C8.00217 15.2549 8.01275 16.3473 8.7532 16.6747C9.02475 16.7948 9.44627 16.8006 17.9346 16.8018C23.2764 16.8027 26.9299 16.7775 27.0779 16.7388C27.3854 16.6586 27.719 16.2847 27.7807 15.9512C27.8561 15.5432 27.6402 15.1039 27.2714 14.9148L26.9712 14.7609L17.9708 14.7611C9.53659 14.7611 8.95567 14.7687 8.73588 14.8808ZM37.2376 16.1658C37.9472 16.3356 38.5594 16.7029 39.1655 17.3224C39.9925 18.1678 40.3621 19.0501 40.3706 20.1994C40.376 20.9339 40.274 21.4021 39.9681 22.0465C39.5248 22.9803 38.9548 23.5619 38.0197 24.0347C35.8724 25.1203 33.2348 24.0279 32.3437 21.6837C32.1099 21.0687 32.0512 19.8748 32.2221 19.2075C32.5915 17.7643 33.79 16.5504 35.2226 16.1685C35.7112 16.0383 36.6989 16.037 37.2376 16.1658ZM35.5773 17.1184C33.931 17.4955 32.852 19.0973 33.1271 20.7556C33.3366 22.0184 34.2452 23.0226 35.4715 23.3468C37.2387 23.814 39.0394 22.6087 39.3534 20.7486C39.5021 19.8672 39.2097 18.8234 38.6174 18.121C37.9256 17.3007 36.6369 16.8756 35.5773 17.1184ZM8.71485 19.0084C8.00924 19.3864 8.02158 20.4337 8.73588 20.7979C8.95513 20.9097 9.47593 20.9175 16.7067 20.9176C25.0815 20.9177 24.6906 20.935 25.041 20.5494C25.1659 20.4119 25.2112 20.2745 25.23 19.9762C25.2613 19.4819 25.0988 19.1881 24.69 18.9998C24.4142 18.8727 24.1554 18.8685 16.6877 18.87C9.10011 18.8715 8.96612 18.8738 8.71485 19.0084ZM33.1304 26.5163C33.1112 27.3147 33.1476 31.8999 33.1736 31.9425C33.1928 31.9741 33.2453 32 33.2904 32C33.3354 32 33.9933 31.4773 34.7523 30.8384C35.5114 30.1995 36.1782 29.6762 36.2341 29.6755C36.3345 29.6741 36.7845 30.0326 38.3139 31.3324C39.0956 31.9968 39.2829 32.0969 39.3604 31.8918C39.383 31.8323 39.4014 30.5718 39.4014 29.0908V26.398L39.0232 26.5678C38.8151 26.6612 38.3829 26.8196 38.0627 26.9199C37.5209 27.0897 37.3939 27.1023 36.2336 27.1023C35.07 27.1023 34.9473 27.09 34.3976 26.918C34.0737 26.8165 33.6566 26.6591 33.4709 26.5682C33.1761 26.4238 33.1329 26.4172 33.1304 26.5163Z" fill="#5FD3D1"/>
</svg>
