<svg width="19" height="22" viewBox="0 0 19 22" fill="none" xmlns="http://www.w3.org/2000/svg">
<g clip-path="url(#clip0_106:83)">
<path d="M4.91269 4.40353C4.52739 4.03233 4.21434 3.61163 4.02169 3.11669C3.8772 2.72074 3.80496 2.32479 3.78088 1.9041C3.78088 1.4339 3.78088 0.988459 3.78088 0.518268C3.78088 0.171811 3.94945 -0.00141688 4.28658 -0.00141688C4.88861 -0.00141688 5.46656 -0.0509107 6.06859 0.02333C7.41713 0.221305 8.54894 1.33492 8.78975 2.72074C8.78975 2.77024 8.78975 2.84448 8.86199 2.91872C9.12689 2.47327 9.39178 2.05258 9.72891 1.68137C10.2105 1.11219 10.7885 0.642003 11.4146 0.246052C12.1129 -0.174645 12.9799 0.0233301 13.3892 0.716243C13.7986 1.40916 13.606 2.2753 12.9076 2.72074C12.2815 3.11669 11.7517 3.63638 11.3905 4.2798C11.3423 4.37879 11.2701 4.47777 11.2219 4.62626C11.6313 4.52727 12.0407 4.42828 12.4501 4.40353C14.9304 4.2303 16.8328 5.24493 18.1332 7.42266C20.2283 10.1448 18.0369 14.5003 17.5794 16.1831C17.5071 16.4553 17.4349 16.7275 17.3385 16.9997C17.2422 17.3214 17.0496 17.4699 16.7847 17.3957C16.5439 17.3214 16.4475 17.074 16.5198 16.777C16.6643 16.2326 17.9647 11.7534 18.0369 11.1842C18.3981 8.51152 16.6402 5.91309 14.0635 5.34392C12.5223 4.99746 11.1015 5.34392 9.84932 6.30904C9.51218 6.55651 9.41586 6.55651 9.07872 6.30904C5.99634 3.8591 1.42093 5.78936 0.891147 9.74887C0.794822 10.516 0.842984 11.2584 1.05971 11.9761C1.61358 13.9558 2.16745 15.9356 2.74539 17.9153C3.32334 19.8951 5.05718 21.1819 7.05591 21.1572C7.80242 21.1324 8.52486 20.9345 9.15097 20.5385C9.3677 20.39 9.56035 20.4148 9.80116 20.5385C12.2574 22.0233 15.388 20.7612 16.2067 17.9648C16.3271 17.5441 16.4475 17.1234 16.5679 16.678C16.6402 16.4058 16.8328 16.3068 17.0737 16.3563C17.2904 16.4058 17.4349 16.6038 17.3626 16.8512C17.0496 18.0391 16.7606 19.2517 15.9178 20.2168C14.3525 22.0481 11.7517 22.5678 9.63259 21.4542C9.53626 21.4047 9.46402 21.3552 9.31954 21.4294C6.38164 22.939 2.88988 21.4294 1.92663 18.1381C1.34869 16.1336 0.770741 14.1043 0.216875 12.0751C-0.698207 8.68475 1.39685 5.19543 4.7682 4.47777C4.81637 4.45303 4.86453 4.47777 4.91269 4.40353ZM7.41713 4.32929C7.03183 3.93334 6.67061 3.58688 6.33348 3.21568C6.14083 3.01771 6.11675 2.74549 6.28532 2.57226C6.45388 2.37429 6.71877 2.39903 6.9355 2.62176C7.24856 2.94347 7.58569 3.28992 7.89875 3.61163C7.92283 3.63638 7.94691 3.71062 8.01915 3.68587C8.13956 2.34954 7.36897 1.23593 6.16491 0.938966C5.70737 0.839978 5.22575 0.889472 4.7682 0.889472C4.6478 0.889472 4.6478 0.963713 4.6478 1.03795C4.6478 1.33492 4.6478 1.63188 4.6478 1.92884C4.69596 3.4384 5.94818 4.52727 7.41713 4.32929ZM12.7631 1.45865C12.7631 1.26068 12.6909 1.08745 12.4982 0.963713C12.3056 0.839978 12.0889 0.815231 11.8962 0.938966C10.355 1.9041 9.39178 3.26517 8.93424 5.02221C8.91016 5.12119 8.93424 5.17069 9.00648 5.22018C9.12689 5.29442 9.24729 5.36866 9.3677 5.4429C9.43994 5.4924 9.4881 5.4924 9.56035 5.4429C9.92156 5.22018 10.2587 4.99746 10.3309 4.52727C10.355 4.45303 10.4032 4.37879 10.4273 4.30454C10.8607 3.36416 11.5109 2.59701 12.3778 2.05258C12.5946 1.90409 12.7391 1.75561 12.7631 1.45865Z" fill="white"/>
<path d="M2.60077 10.6166C2.60077 8.76058 3.75666 7.25102 5.39418 6.85507C5.46642 6.83032 5.51458 6.83032 5.58683 6.83032C5.80356 6.83032 5.97213 6.95406 6.02029 7.17678C6.06845 7.37475 5.94804 7.57273 5.7554 7.64697C5.56275 7.72121 5.34602 7.74596 5.15337 7.84495C3.90115 8.41412 3.22688 9.7752 3.53993 11.161C3.56401 11.2105 3.56401 11.26 3.58809 11.3343C3.63626 11.5817 3.51585 11.7797 3.27504 11.8539C3.05831 11.9034 2.84158 11.7797 2.76934 11.557C2.64893 11.2105 2.62485 10.8641 2.60077 10.6166Z" fill="white"/>
</g>
<defs>
<clipPath id="clip0_106:83">
<rect width="19" height="22" fill="white"/>
</clipPath>
</defs>
</svg>
