<svg width="24" height="19" viewBox="0 0 24 19" fill="none" xmlns="http://www.w3.org/2000/svg">
<g clip-path="url(#clip0_106:49)">
<path d="M0.00830844 9.34099C0.0385478 8.60282 -0.0622501 7.68277 0.0486276 6.77343C0.270383 4.90124 1.24812 3.67095 2.92137 3.03976C4.27206 2.53694 5.67315 2.54764 7.07425 2.63323C9.08013 2.7616 11.0658 2.66532 12.9709 1.85226C13.6664 1.55271 14.3317 1.19967 15.007 0.857325C16.6097 0.0335636 18.2931 -0.148306 20.0369 0.119149C20.7021 0.215433 21.3573 0.365208 21.9722 0.664757C23.2826 1.31735 23.968 2.39786 23.9881 3.92771C24.0083 5.36127 24.0083 6.79482 23.9881 8.22838C23.968 9.59775 23.4842 10.8173 22.7987 11.9514C21.3472 14.3584 19.3313 16.0916 16.9424 17.3539C15.1683 18.2954 13.2834 18.7661 11.3078 18.9266C9.87643 19.0443 8.45518 19.055 7.03393 18.8089C5.20948 18.4987 3.52616 17.8354 2.14523 16.4874C1.06669 15.439 0.320782 14.1766 0.078867 12.6146C0.00830845 12.1867 0.00830844 11.7588 0.00830844 11.3309C0.00830844 10.7318 0.00830844 10.122 0.00830844 9.34099ZM7.26576 3.32861C6.84241 3.32861 6.42914 3.32861 6.00579 3.32861C5.04821 3.31791 4.11079 3.3821 3.2036 3.71374C1.82267 4.22726 0.955809 5.21149 0.764293 6.78413C0.613096 8.01442 0.865091 9.15913 1.49004 10.2075C2.53834 11.9834 4.10071 12.9891 5.95539 13.524C8.32414 14.198 10.7131 14.1017 13.102 13.6524C15.7933 13.1389 18.1217 11.8016 20.1477 9.85451C21.3069 8.7419 22.2645 7.47951 22.8794 5.92827C23.0709 5.43615 23.2019 4.92264 23.2624 4.38773C23.4136 2.87928 22.7886 1.73458 21.4178 1.25316C19.3313 0.514982 17.2649 0.536379 15.249 1.5741C14.3115 2.05552 13.3842 2.55834 12.3863 2.87928C10.703 3.41419 8.98941 3.47838 7.26576 3.32861ZM23.2422 6.88041C23.1717 7.00879 23.1213 7.10507 23.0709 7.21205C23.0205 7.30834 22.96 7.41532 22.9096 7.5116C21.3472 10.1648 19.1398 12.0155 16.4888 13.3207C14.5131 14.2836 12.4065 14.6473 10.2494 14.7222C8.58622 14.7864 6.94321 14.658 5.3506 14.1231C3.42536 13.4812 1.85291 12.3365 0.814692 10.4643C0.804612 10.4429 0.774373 10.4322 0.734054 10.4001C0.744134 11.1383 0.683655 11.8444 0.804612 12.5505C1.02637 13.9412 1.72187 15.0645 2.69961 15.9953C4.06039 17.2898 5.72355 17.8782 7.4976 18.1349C9.30188 18.3917 11.1062 18.3168 12.8903 17.9744C16.6198 17.2577 19.6337 15.2678 21.9218 12.0583C22.9701 10.5285 23.4842 8.82748 23.2422 6.88041Z" fill="white"/>
<path d="M9.97895 12.517C8.19483 12.5063 6.47118 12.2175 4.87857 11.2974C3.82019 10.6876 2.96341 9.85316 2.49974 8.63356C2.3183 8.15214 2.21751 7.66003 2.24775 7.14651C2.29814 6.11949 2.82229 5.4455 3.68916 5.08176C5.25152 4.41847 6.79373 4.57895 8.29562 5.34922C8.69882 5.55248 9.02137 5.89482 9.28344 6.27996C9.41448 6.47253 9.54552 6.67579 9.66648 6.87906C10.0293 7.49955 10.5535 7.88469 11.1986 8.10935C12.2872 8.49449 13.4162 8.75124 14.5149 9.11498C14.8979 9.24336 15.2809 9.36104 15.6539 9.54291C15.7748 9.6071 15.8958 9.66059 16.0067 9.73548C16.7223 10.1955 16.7223 10.8374 15.9966 11.276C15.3011 11.6932 14.5249 11.8644 13.7589 12.0463C12.509 12.3672 11.249 12.517 9.97895 12.517ZM9.83783 11.7788C11.5111 11.7681 12.9525 11.5328 14.3737 11.1262C14.8072 11.0086 15.2305 10.8695 15.6236 10.6555C15.8152 10.5485 15.795 10.4737 15.6236 10.3774C15.5027 10.3132 15.3817 10.249 15.2608 10.1955C14.1822 9.73548 13.0634 9.43593 11.9344 9.14708C10.5737 8.79404 9.43464 8.15214 8.73913 6.78277C8.46698 6.25856 7.99323 5.94832 7.459 5.75575C7.01549 5.59527 6.55182 5.49899 6.07807 5.4562C5.25153 5.38131 4.44514 5.4669 3.70932 5.90552C3.17509 6.21577 2.92309 6.71859 2.94325 7.36048C2.95333 7.66003 3.00373 7.93818 3.10453 8.22703C3.48756 9.31825 4.23347 10.0564 5.17089 10.602C6.68286 11.49 8.32586 11.7681 9.83783 11.7788Z" fill="white"/>
<path d="M17.559 8.64425C16.0772 8.65495 14.6963 8.18423 13.3456 7.60653C12.7509 7.34977 12.1562 7.07162 11.6018 6.71858C11.3297 6.54741 11.0777 6.35484 10.8962 6.07669C10.6039 5.64876 10.6543 5.21013 11.0273 4.86779C11.4204 4.50405 11.9042 4.34358 12.4082 4.26869C13.7287 4.06542 14.9685 3.6268 16.1176 2.92072C16.7627 2.53558 17.4179 2.17184 18.1738 2.08626C18.9601 2.00067 19.7161 2.08626 20.4317 2.45C21.3087 2.88862 21.7623 3.77657 21.6312 4.8143C21.48 6.10878 20.8853 7.13581 19.958 7.97027C19.3834 8.48378 18.6778 8.56937 17.9723 8.63356C17.8412 8.65495 17.7001 8.64425 17.559 8.64425ZM17.5489 7.88468C17.6799 7.88468 17.8211 7.89538 17.9521 7.88468C18.5367 7.82049 19.1314 7.7991 19.6052 7.33907C20.2604 6.70788 20.714 5.93761 20.9055 5.01756C21.1071 4.08682 20.7845 3.39144 19.9882 3.07049C19.1919 2.74955 18.3855 2.70675 17.5791 3.017C17.0953 3.19887 16.6518 3.47702 16.2083 3.73378C15.1297 4.35428 13.9907 4.77151 12.7711 4.96407C12.3578 5.02826 11.9445 5.13524 11.5817 5.3706C11.4103 5.47759 11.4103 5.58457 11.5413 5.72365C11.6825 5.87342 11.8337 5.9911 12.005 6.08738C12.5594 6.42973 13.144 6.69718 13.7287 6.95394C14.9483 7.47815 16.2083 7.89538 17.5489 7.88468Z" fill="white"/>
<path d="M9.70681 17.3421C8.87018 17.3528 8.04364 17.2565 7.23725 17.0425C6.98526 16.9783 6.85422 16.7857 6.9147 16.5611C6.9651 16.3471 7.15662 16.2508 7.39853 16.315C8.99114 16.7109 10.5837 16.6574 12.1764 16.3364C12.2167 16.3257 12.257 16.315 12.2973 16.3043C12.5493 16.2722 12.7207 16.3685 12.761 16.5932C12.8013 16.8178 12.6803 16.9997 12.4384 17.0425C12.0151 17.1281 11.5917 17.203 11.1684 17.2565C10.6845 17.3207 10.2007 17.3314 9.70681 17.3421Z" fill="white"/>
<path d="M14.0311 16.5505C13.8496 16.5398 13.7085 16.4542 13.6682 16.2723C13.6279 16.0798 13.6883 15.8979 13.8698 15.8337C14.3637 15.6732 14.8576 15.5021 15.3515 15.3202C15.533 15.256 15.6841 15.3523 15.7648 15.5342C15.8353 15.716 15.795 15.9086 15.6237 15.9942C15.1096 16.2402 14.5653 16.4114 14.0311 16.5505Z" fill="white"/>
</g>
<defs>
<clipPath id="clip0_106:49">
<rect width="24" height="19" fill="white"/>
</clipPath>
</defs>
</svg>
