<svg width="40" height="38" viewBox="0 0 40 38" fill="none" xmlns="http://www.w3.org/2000/svg">
<path fill-rule="evenodd" clip-rule="evenodd" d="M7.94758 0.0364258C7.80363 0.0801356 7.56291 0.241944 7.46664 0.359796C7.27627 0.592819 7.27435 0.607499 7.25294 1.9903L7.2325 3.30984L5.14856 3.33264C2.79073 3.35841 2.85251 3.35091 2.1248 3.69951C1.65718 3.92355 1.30324 4.17991 1.00131 4.5133C0.565525 4.99448 0.268706 5.5392 0.0954119 6.17576L0 6.52622V17.9485V29.3708L0.0921838 29.7213C0.203 30.1427 0.449233 30.6753 0.691787 31.0183C0.890783 31.2997 1.34185 31.7448 1.63275 31.9468C1.91947 32.1459 2.45762 32.3882 2.84425 32.4924L3.18721 32.5848L9.6842 32.5986C13.2575 32.6061 16.2757 32.6009 16.3913 32.587C16.8997 32.5258 17.2815 32.0999 17.2768 31.5992C17.2742 31.3154 17.2016 31.1358 17.0041 30.9239C16.7248 30.6244 17.3637 30.6514 10.0111 30.6282L3.39151 30.6073L3.15725 30.5173C2.73536 30.3551 2.33013 30.0046 2.14793 29.6442C1.92879 29.2107 1.94093 29.8947 1.94093 17.9831C1.94093 10.0395 1.95363 6.90225 1.98649 6.74473C2.12824 6.0645 2.66622 5.50782 3.33022 5.3543C3.44173 5.32853 4.24965 5.31137 5.38352 5.31076L7.25294 5.30977V6.23254C7.25294 6.94909 7.2663 7.18756 7.31272 7.29968C7.50493 7.76387 8.0226 8.00641 8.5223 7.8663C8.7139 7.81261 8.99017 7.57035 9.10331 7.35683C9.18785 7.19733 9.19472 7.12381 9.20686 6.24788L9.21981 5.30977H12.5234H15.8271L15.8422 6.22726C15.8595 7.27972 15.8857 7.38907 16.1835 7.6536C16.5676 7.99483 17.1024 7.99483 17.4865 7.6536C17.7843 7.38907 17.8104 7.27972 17.8278 6.22726L17.8429 5.30977H21.1465H24.4502L24.4631 6.24788C24.4779 7.31452 24.4971 7.38936 24.8296 7.67657C25.3241 8.10373 26.104 7.91132 26.3572 7.29968C26.4037 7.18756 26.417 6.94909 26.417 6.23254V5.30977L28.2864 5.31076C29.3978 5.31137 30.2286 5.32869 30.3352 5.35352C30.9407 5.49438 31.4296 5.95671 31.6621 6.60832C31.6919 6.69194 31.7133 7.90254 31.7279 10.3232L31.7495 13.914L31.8731 14.1158C31.9498 14.2408 32.0729 14.365 32.1968 14.4424C32.3739 14.5528 32.4328 14.5672 32.7097 14.5672C32.9866 14.5672 33.0456 14.5528 33.2226 14.4424C33.3466 14.365 33.4696 14.2408 33.5463 14.1157L33.67 13.9138V10.1788V6.44375L33.5573 6.08137C33.1394 4.73684 32.1981 3.8132 30.8505 3.42538C30.6389 3.36452 30.3198 3.35177 28.5214 3.33235L26.4375 3.30984L26.417 1.9903L26.3966 0.670754L26.2868 0.482307C25.8911 -0.197051 24.9309 -0.149794 24.5523 0.567665C24.4834 0.698093 24.4749 0.837924 24.4633 2.02122L24.4505 3.33045H21.1433H17.8361V2.15726C17.8361 1.47827 17.8176 0.897262 17.7923 0.777967C17.7354 0.510347 17.5615 0.272253 17.3168 0.127144C17.1525 0.0296219 17.0751 0.0109834 16.835 0.0109834C16.5949 0.0109834 16.5175 0.0296219 16.3531 0.127144C16.1085 0.272253 15.9346 0.510347 15.8777 0.777967C15.8523 0.897262 15.8339 1.47827 15.8339 2.15726V3.33045H12.5262H9.21854L9.2062 2.02122C9.19272 0.590386 9.19223 0.587293 8.93382 0.306148C8.70471 0.0569199 8.27096 -0.0617151 7.94758 0.0364258ZM7.83137 11.1665C6.62211 11.3337 5.63698 12.2186 5.30796 13.4332C5.20879 13.7992 5.20879 14.5516 5.30796 14.9177C5.58161 15.9278 6.3027 16.7151 7.25302 17.0414C8.35085 17.4182 9.49285 17.15 10.3217 16.3208C10.7011 15.9412 10.9075 15.6146 11.0864 15.1111C11.1825 14.8407 11.1918 14.7582 11.1918 14.1754C11.1918 13.5927 11.1825 13.5101 11.0864 13.2398C10.9075 12.7362 10.7011 12.4096 10.3217 12.0301C10.0605 11.7687 9.8841 11.6334 9.63464 11.503C9.08035 11.2133 8.40474 11.0872 7.83137 11.1665ZM16.4627 11.1658C15.945 11.2372 15.505 11.4128 15.0842 11.716C13.4197 12.9154 13.4197 15.4355 15.0842 16.6349C15.6148 17.0172 16.1724 17.1959 16.835 17.1959C19.1833 17.1959 20.593 14.6717 19.4008 12.6014C18.8341 11.6173 17.5915 11.0101 16.4627 11.1658ZM24.7054 11.2496C23.6959 11.5164 22.9318 12.2389 22.5923 13.2476C22.3852 13.8632 22.4162 14.7624 22.6622 15.2769C22.7706 15.5036 22.9703 15.6282 23.225 15.6282C23.7259 15.6282 23.9863 15.2144 23.8266 14.672C23.6344 14.0187 23.912 13.1716 24.4381 12.8063C24.7975 12.5567 24.972 12.5053 25.4568 12.5061C25.8571 12.5067 25.9318 12.5188 26.14 12.6166C26.5819 12.8244 26.921 13.2259 27.0742 13.7227C27.1737 14.0451 27.2548 14.1633 27.4432 14.2603C27.835 14.462 28.2653 14.2693 28.3796 13.8411C28.4648 13.5216 28.1892 12.8002 27.7875 12.2914C27.3856 11.7823 26.7098 11.356 26.0968 11.2249C25.7058 11.1413 25.0727 11.1525 24.7054 11.2496ZM8.79391 12.5733C9.25446 12.7458 9.55929 13.033 9.77504 13.4979C9.8765 13.7166 9.88851 13.7883 9.88851 14.1754C9.88851 14.5768 9.87899 14.6287 9.75804 14.8864C9.58916 15.2461 9.29459 15.5434 8.93811 15.7138C8.68027 15.8371 8.63389 15.8455 8.21318 15.8455C7.81041 15.8455 7.73927 15.8339 7.52863 15.7343C7.03204 15.4994 6.65043 14.9903 6.55351 14.4332C6.41638 13.6448 6.94304 12.7878 7.7141 12.5446C7.99449 12.4562 8.51826 12.4701 8.79391 12.5733ZM17.564 12.6434C18.8425 13.2786 18.8354 15.1038 17.5521 15.7174C17.3032 15.8365 17.253 15.8455 16.835 15.8455C16.4168 15.8455 16.3668 15.8366 16.1174 15.7173C15.0635 15.2133 14.816 13.8046 15.6359 12.9772C15.9994 12.6104 16.3396 12.481 16.8995 12.4967C17.2474 12.5065 17.3212 12.5228 17.564 12.6434ZM27.9592 15.3296C24.1352 15.6323 20.7617 17.823 18.9081 21.2076C18.2389 22.4294 17.7473 24.0021 17.5874 25.4328C17.525 25.9918 17.5253 27.311 17.5881 27.8657C18.0074 31.5736 20.1406 34.7976 23.3692 36.6027C26.2414 38.2087 29.7319 38.4434 32.8323 37.239C33.8135 36.8579 34.9634 36.1879 35.7948 35.513C37.8654 33.8322 39.278 31.4961 39.7956 28.8966C39.969 28.0256 40.0024 27.652 39.9999 26.608C39.9973 25.5141 39.9289 24.911 39.7006 23.9689C38.9119 20.7145 36.7198 17.9565 33.7517 16.4845C32.7685 15.997 31.9873 15.7277 30.9527 15.5197C30.0365 15.3355 28.8424 15.2597 27.9592 15.3296ZM29.8505 17.3523C30.8622 17.4778 31.9297 17.7987 32.8527 18.2546C36.6118 20.1116 38.6872 24.3209 37.8762 28.443C37.5098 30.3051 36.6374 31.9477 35.3012 33.2914C34.1288 34.4703 32.6483 35.3177 31.0548 35.7218C30.2042 35.9375 29.6535 36.0043 28.7461 36.0016C27.2526 35.9972 26.0171 35.7051 24.6804 35.0405C21.8226 33.6194 19.8931 30.8316 19.5504 27.6286C19.4802 26.9713 19.5193 25.7149 19.6299 25.0823C19.9622 23.1811 20.7967 21.5282 22.1255 20.1394C23.5705 18.6291 25.4628 17.6657 27.5612 17.3721C28.0372 17.3056 29.3799 17.2939 29.8505 17.3523ZM7.50542 20.6861C6.60708 20.9157 5.81677 21.5994 5.45335 22.4612C4.83859 23.9191 5.4806 25.635 6.90561 26.3422C7.38557 26.5804 7.68006 26.6477 8.23361 26.6455C8.76919 26.6433 9.07622 26.5753 9.52325 26.3598C10.3261 25.9726 10.9654 25.1656 11.1568 24.2977C11.2567 23.8444 11.224 23.1347 11.0831 22.6998C10.7886 21.7902 10.0696 21.0631 9.153 20.748C8.71513 20.5974 7.9627 20.5691 7.50542 20.6861ZM16.1618 20.6726C15.5917 20.7973 14.8952 21.2322 14.5239 21.6953C13.6977 22.7258 13.6077 24.1554 14.3003 25.2479C14.7154 25.9029 15.5414 26.5049 16.025 26.5049C16.3591 26.5049 16.6249 26.2763 16.6739 25.9467C16.6965 25.7944 16.6835 25.7244 16.6031 25.5667C16.5169 25.3978 16.4635 25.3526 16.1794 25.2084C15.2413 24.7326 14.8965 23.7656 15.3406 22.8554C15.5897 22.3447 16.1007 22.0033 16.7202 21.9338C16.9322 21.91 17.1046 21.8652 17.1902 21.8117C17.5856 21.5647 17.5824 20.9719 17.1843 20.7011C17.0708 20.624 16.995 20.6087 16.737 20.6115C16.5662 20.6133 16.3073 20.6408 16.1618 20.6726ZM33.2001 21.2923C33.11 21.3316 32.2606 22.1573 30.9067 23.5217L28.7564 25.6887L27.7664 24.676C27.0522 23.9453 26.7365 23.6499 26.6328 23.6154C26.4416 23.5517 26.1668 23.5871 26.0172 23.6946C25.7746 23.8689 25.6855 24.2936 25.8385 24.5462C25.9463 24.7241 28.3292 27.1582 28.4649 27.229C28.5986 27.2988 28.8568 27.3063 29.0193 27.245C29.0828 27.2211 30.2289 26.0982 31.5763 24.7399C34.1663 22.1291 34.183 22.1097 34.1242 21.7955C34.0846 21.5842 33.9541 21.4029 33.7753 21.3109C33.5831 21.2119 33.3982 21.206 33.2001 21.2923ZM8.73241 22.0095C9.08864 22.1205 9.4146 22.365 9.61968 22.6749C9.84744 23.0191 9.92291 23.2993 9.90105 23.7196C9.85929 24.5229 9.2905 25.1665 8.48941 25.3169C7.8109 25.4442 7.04421 25.0465 6.72051 24.3994C6.24235 23.4436 6.72991 22.3154 7.76371 21.9854C8.01268 21.906 8.43388 21.9164 8.73241 22.0095Z" fill="#5FD3D1"/>
</svg>
