<svg width="23" height="23" viewBox="0 0 23 23" fill="none" xmlns="http://www.w3.org/2000/svg">
<g clip-path="url(#clip0_106:97)">
<path d="M7.74843 7.4571C7.43385 7.1157 7.18219 6.80124 7.01142 6.43288C6.64292 5.66023 6.58899 4.8696 6.79571 4.05202C6.84964 3.84538 6.98446 3.72859 7.19118 3.67468C7.91021 3.48601 8.61126 3.52195 9.30333 3.79148C9.33928 3.80046 9.37523 3.81843 9.41119 3.82742C9.42017 3.82742 9.43815 3.82742 9.46511 3.82742C9.46511 3.46804 9.46511 3.11765 9.55499 2.76726C9.78868 1.78796 10.3549 1.06023 11.2178 0.557103C11.3975 0.44929 11.5683 0.485228 11.748 0.59304C12.2693 0.907493 12.6828 1.31179 12.9884 1.83288C13.0782 1.81492 13.0872 1.73406 13.1142 1.68015C13.6984 0.637962 14.5882 0.080931 15.7746 7.16464e-05C16.0982 -0.0178971 16.3139 0.152806 16.3229 0.431322C16.3319 0.700853 16.1611 0.88054 15.8285 0.898509C15.3432 0.934447 14.9028 1.06921 14.5163 1.37468C14.1119 1.68913 13.8512 2.09343 13.7254 2.59656C13.6984 2.69538 13.7164 2.72234 13.8153 2.74929C15.9634 3.2614 16.7363 5.78601 15.3432 7.38523C15.3342 7.39421 15.3252 7.41218 15.3252 7.43015C15.3791 7.49304 15.451 7.46609 15.514 7.46609C16.242 7.46609 16.97 7.46609 17.689 7.46609C19.5585 7.47507 21.0595 8.66999 21.4909 10.4848C21.5718 10.8262 21.5808 11.1676 21.5808 11.5091C21.5808 14.1415 21.5808 16.7829 21.5808 19.4153C21.5808 19.6219 21.6167 19.7118 21.8504 19.6848C22.0482 19.6669 22.2549 19.6759 22.4526 19.6848C22.8391 19.6938 23.0099 19.8735 22.9919 20.2598C22.9469 21.7063 21.7336 22.9282 20.2865 23.0001C20.1967 23.0091 20.1068 23.0091 20.0169 23.0091C14.3365 23.0091 8.64722 23.0091 2.96687 23.0091C1.60071 23.0091 0.477228 22.2005 0.108724 20.9426C0.045809 20.718 0.00086956 20.4934 -0.00811833 20.2598C-0.0260941 19.8645 0.144676 19.6848 0.531155 19.6848C0.818767 19.6848 1.09739 19.6669 1.385 19.6938C1.59173 19.7118 1.62768 19.6309 1.62768 19.4423C1.61869 16.7829 1.62768 14.1235 1.61869 11.4731C1.61869 10.5567 1.84339 9.71218 2.41861 8.98445C3.16461 8.0321 4.12631 7.51101 5.30372 7.46609C6.09466 7.43015 6.89458 7.4571 7.74843 7.4571ZM2.57141 13.7012C2.51748 13.7821 2.53545 13.863 2.53545 13.9348C2.53545 15.7587 2.53545 17.5915 2.52647 19.4153C2.52647 19.6399 2.59837 19.6759 2.80509 19.6759C4.98915 19.6669 7.18219 19.6669 9.36625 19.6759C9.45613 19.6759 9.546 19.6759 9.63588 19.6938C9.8426 19.7387 9.97742 19.9005 9.98641 20.1071C9.9954 20.3227 9.86957 20.5024 9.65386 20.5563C9.56398 20.5833 9.46511 20.5833 9.36625 20.5833C6.68786 20.5833 4.00048 20.5833 1.32209 20.5833C0.908646 20.5833 0.899658 20.6012 1.0884 20.9696C1.49286 21.7423 2.13999 22.1016 3.00282 22.1016C8.67418 22.1016 14.3365 22.1016 20.0079 22.1016C20.1068 22.1016 20.2056 22.1016 20.2955 22.0926C21.1044 21.9938 21.6617 21.5716 21.9673 20.8169C22.0661 20.5833 22.0571 20.5743 21.8055 20.5743C19.0911 20.5743 16.3678 20.5743 13.6535 20.5743C13.5726 20.5743 13.4917 20.5743 13.4108 20.5653C13.1681 20.5294 13.0153 20.3497 13.0153 20.1251C13.0153 19.8915 13.1681 19.7208 13.4108 19.6848C13.4917 19.6759 13.5726 19.6759 13.6535 19.6759C15.9184 19.6759 18.1744 19.6759 20.4393 19.6759C20.6371 19.6759 20.691 19.6309 20.691 19.4333C20.682 17.6005 20.691 15.7676 20.682 13.9348C20.682 13.863 20.7 13.7911 20.655 13.7192C20.6371 13.7192 20.6191 13.7192 20.6101 13.7192C20.5562 13.7462 20.5112 13.7821 20.4573 13.818C19.7113 14.2942 18.9653 14.2852 18.2283 13.8001C17.9587 13.6204 17.698 13.4317 17.4374 13.252C16.979 12.9376 16.5925 12.9376 16.1251 13.252C15.8555 13.4317 15.5949 13.6204 15.3252 13.8001C14.5882 14.2942 13.7973 14.2942 13.0603 13.8001C12.7906 13.6204 12.53 13.4317 12.2603 13.252C11.8199 12.9555 11.4065 12.9555 10.9661 13.243C10.6965 13.4227 10.4358 13.6114 10.1662 13.7911C9.42017 14.2942 8.62025 14.2942 7.87426 13.8001C7.59563 13.6114 7.326 13.4137 7.03838 13.2251C6.63393 12.9555 6.22049 12.9555 5.81603 13.2251C5.52842 13.4137 5.2498 13.6114 4.96218 13.8091C4.45886 14.1594 3.90161 14.2493 3.3174 14.0966C3.05675 14.0157 2.82307 13.854 2.57141 13.7012ZM3.07473 9.61335C3.39829 9.61335 3.66793 9.61335 3.93756 9.61335C4.80939 9.61335 5.6902 9.61335 6.56203 9.61335C6.93053 9.61335 7.14624 9.8739 7.04737 10.1884C6.98446 10.404 6.81369 10.5028 6.51709 10.5028C5.29473 10.5028 4.07238 10.5028 2.85902 10.5028C2.69724 10.5028 2.62533 10.5387 2.59837 10.7094C2.54444 11.0509 2.53545 11.3923 2.54444 11.7426C2.54444 12.0212 2.44557 12.3356 2.58039 12.5602C2.71521 12.7759 3.01181 12.8926 3.23651 13.0544C3.65894 13.3419 4.08137 13.3419 4.51279 13.0454C4.78243 12.8657 5.04307 12.677 5.31271 12.4973C6.0587 11.9942 6.84964 11.9942 7.60462 12.4973C7.87426 12.677 8.14389 12.8747 8.42252 13.0544C8.83596 13.3329 9.26738 13.3329 9.68082 13.0544C10.0134 12.8298 10.328 12.5962 10.6695 12.3895C11.2986 12.0212 11.9548 12.0122 12.5929 12.3805C12.9434 12.5782 13.267 12.8298 13.5995 13.0544C14.004 13.3239 14.4354 13.3239 14.8399 13.0544C15.1095 12.8747 15.3791 12.677 15.6578 12.4973C16.4128 11.9852 17.2037 11.9852 17.9677 12.4973C18.2553 12.686 18.5249 12.8926 18.8215 13.0813C19.199 13.3239 19.5855 13.3239 19.963 13.0813C20.1787 12.9466 20.3764 12.7938 20.5921 12.6501C20.691 12.5872 20.7179 12.5063 20.7179 12.3895C20.709 12.0391 20.7179 11.6887 20.7179 11.3384C20.682 9.5864 19.4237 8.34656 17.6621 8.34656C13.6535 8.34656 9.64487 8.34656 5.64526 8.34656C5.42955 8.34656 5.21384 8.35554 4.99813 8.39148C4.18922 8.54421 3.56906 8.93054 3.07473 9.61335ZM13.24 3.57585C12.1974 3.53992 11.2986 4.40242 11.2717 5.47156C11.2447 6.53171 12.0986 7.43015 13.1681 7.4571C14.2287 7.48406 15.1185 6.62156 15.1455 5.55241C15.1814 4.48327 14.3276 3.60281 13.24 3.57585ZM10.5616 6.95398C10.5616 5.45359 9.24042 4.28562 7.77539 4.48327C7.65855 4.50124 7.61361 4.53718 7.59563 4.65398C7.3979 6.12741 8.5843 7.48406 10.0673 7.44812C10.5796 7.43015 10.5347 7.49304 10.5616 6.95398ZM10.5616 4.48327C10.9301 3.64773 11.4964 3.09968 12.3053 2.82117C12.4131 2.78523 12.4221 2.74031 12.3862 2.64148C12.2154 2.20124 11.9368 1.83288 11.5683 1.54538C11.4874 1.48249 11.4335 1.49148 11.3616 1.55437C11.1728 1.69812 11.002 1.86882 10.8672 2.06648C10.3369 2.79421 10.2381 3.58484 10.5616 4.48327Z" fill="#A2B0BA"/>
<path d="M11.4865 19.6758C11.7202 19.6668 11.9359 19.8735 11.9449 20.1071C11.9539 20.3407 11.7472 20.5563 11.5135 20.5653C11.2798 20.5743 11.0641 20.3676 11.0551 20.134C11.0461 19.9004 11.2528 19.6848 11.4865 19.6758Z" fill="#A2B0BA"/>
<path d="M8.34971 9.61328C8.58339 9.61328 8.79012 9.81094 8.7991 10.0535C8.80809 10.2871 8.60137 10.5027 8.36768 10.5117C8.12501 10.5207 7.9093 10.3051 7.9093 10.0625C7.9093 9.81992 8.11602 9.61328 8.34971 9.61328Z" fill="#A2B0BA"/>
</g>
<defs>
<clipPath id="clip0_106:97">
<rect width="23" height="23" fill="white"/>
</clipPath>
</defs>
</svg>
