<svg width="47" height="47" viewBox="0 0 47 47" fill="none" xmlns="http://www.w3.org/2000/svg">
<g clip-path="url(#clip0_120:1244)">
<path d="M33.7498 22.826C34.3674 21.6632 34.8875 20.4872 35.219 19.2365C35.7779 17.1032 37.874 15.8004 39.9293 16.3577C41.4488 16.764 42.4902 17.7367 42.806 19.307C43.143 20.905 42.6274 22.2701 41.3276 23.2625C39.2687 24.8432 37.5522 26.7226 35.9594 28.7526C35.7833 28.992 35.7579 29.1077 36.028 29.2778C36.6229 29.6549 37.2237 30.0626 37.7968 30.4914C39.425 31.7161 39.8394 33.8851 38.7772 35.6237C38.5138 36.0698 38.2141 36.4912 37.9143 36.9126C37.5556 37.4402 37.2375 37.5168 36.6572 37.2161C36.6208 37.1913 36.5815 37.1514 36.4803 37.2024C36.6466 38.073 36.8159 38.9589 36.9851 39.8449C37.1397 40.6544 36.9571 40.9426 36.1469 41.0974C32.8145 41.734 29.4667 42.3735 26.1343 43.0101C26.0273 43.0305 25.905 43.0539 25.795 43.0591C25.3888 43.0892 25.0524 42.821 24.9795 42.4391C24.9065 42.0572 25.1357 41.681 25.5062 41.5469C25.6255 41.5082 25.7631 41.482 25.8854 41.4586C28.9122 40.8804 31.9542 40.2993 34.9809 39.7211C35.2866 39.6627 35.382 39.5812 35.3207 39.2604C35.0946 38.2428 34.9115 37.2012 34.7313 36.1749C34.6817 35.9153 34.5731 35.7618 34.3576 35.6289C30.9563 33.3339 27.5521 31.0236 24.1478 28.7133C23.4015 28.2068 23.3431 27.9013 23.8655 27.1524C24.1252 26.7703 24.3697 26.3911 24.6353 26.0396C25.846 24.4151 28.0261 23.9669 29.7657 25.0278C30.4094 25.4115 31.016 25.8498 31.6378 26.2851C31.8199 26.4086 31.9298 26.4035 32.0171 26.1968C32.0142 26.1815 32.0295 26.1786 32.0418 26.1604C32.5323 25.5759 32.6048 24.9605 32.4407 24.1844C31.1263 17.4694 29.8577 10.7456 28.5738 4.02483C28.5067 3.67351 28.3851 3.61758 28.0488 3.68183C21.4938 4.94986 14.9359 6.20262 8.37503 7.4401C8.00815 7.51019 7.93394 7.61936 8.00397 7.98595C8.33508 9.55339 8.62034 11.1296 8.91797 12.6876C9.05219 13.3902 8.84192 13.6995 8.13874 13.8339C6.53366 14.1405 4.92857 14.4471 3.32349 14.7537C3.04833 14.8063 3.00177 14.8943 3.05138 15.154C4.913 24.8992 6.77754 34.6597 8.63916 44.4049C8.70336 44.7409 8.82857 44.7328 9.10373 44.6802C12.2069 44.0874 24.1151 41.8126 27.2183 41.2198C27.3406 41.1965 27.4781 41.1702 27.6033 41.1621C28.0095 41.132 28.346 41.4002 28.4342 41.7791C28.5072 42.161 28.2933 42.5343 27.9075 42.6714C27.8034 42.7071 27.6811 42.7304 27.5741 42.7509C24.1499 43.405 11.936 45.7382 8.51182 46.3923C7.74749 46.5384 7.45622 46.3407 7.31324 45.5922C5.33782 35.2513 3.36532 24.9257 1.38989 14.5848C1.31987 14.2182 1.37143 13.9076 1.5817 13.5983C3.15543 11.3028 4.72625 8.99206 6.28177 6.68424C6.45855 6.3655 6.72565 6.18782 7.09253 6.11773C14.3078 4.7394 21.5383 3.35816 28.7535 1.97983C29.472 1.84258 29.7815 2.05261 29.9215 2.78579C31.1675 9.30804 32.4164 15.8456 33.6623 22.3678C33.6944 22.5358 33.7236 22.6886 33.7498 22.826ZM27.3332 26.0625C26.6577 26.1757 26.1599 26.5558 25.7764 27.1198C25.393 27.6838 25.3901 27.6686 25.9362 28.0392C29.4133 30.3989 32.9085 32.7709 36.3856 35.1306C36.9863 35.5383 36.9863 35.5383 37.3916 34.9226C38.1278 33.8004 37.914 32.4322 36.8217 31.6909C34.2309 29.906 31.6124 28.1423 29.0091 26.3756C28.5023 26.045 27.9294 25.9486 27.3332 26.0625ZM38.4419 17.8609C37.6893 18.068 37.0285 18.59 36.7762 19.509C36.1111 21.9159 34.9988 24.139 33.7832 26.3185C33.5941 26.6555 33.1545 27.0086 33.2587 27.3053C33.3659 27.6173 33.8588 27.7923 34.1865 28.0147C34.2047 28.027 34.2382 28.0365 34.2593 28.0641C34.3955 28.1964 34.4966 28.1454 34.5956 27.9999C36.3186 25.7392 38.2353 23.6632 40.503 21.9318C41.345 21.2801 41.5695 20.0499 41.1047 19.1096C40.6762 18.194 39.5884 17.6419 38.4419 17.8609ZM6.63649 9.03878C5.72122 10.3852 4.81831 11.7134 3.90303 13.0598C4.97309 12.8554 6.04314 12.651 7.1132 12.4466C7.28135 12.4145 7.26093 12.3075 7.23758 12.1853C7.03917 11.1467 6.83783 10.0927 6.63649 9.03878Z" fill="#5FD3D1"/>
<path d="M16.712 14.2543C20.3043 13.568 23.8966 12.8818 27.489 12.1956C28.2839 12.0437 28.5751 12.2414 28.724 13.0204C28.8932 13.9063 29.0653 14.8075 29.2346 15.6934C29.3484 16.2891 29.1163 16.6501 28.5201 16.764C21.2437 18.154 13.9521 19.5469 6.67567 20.9369C6.0795 21.0508 5.7489 20.8132 5.6169 20.2051C5.44474 19.3039 5.27259 18.4027 5.10043 17.5015C4.96621 16.7989 5.17356 16.4743 5.87674 16.34C9.48144 15.6355 13.1043 14.9434 16.712 14.2543ZM20.5974 16.6784C22.814 16.255 25.0305 15.8316 27.2471 15.4082C27.5069 15.3585 27.6023 15.277 27.5192 15.0079C27.4478 14.7999 27.4375 14.5802 27.3966 14.3663C27.2916 13.8165 27.2916 13.8165 26.7566 13.9187C22.6598 14.7013 18.563 15.4839 14.4662 16.2665C14.084 16.3395 13.5628 16.2649 13.3802 16.5531C13.2376 16.802 13.4838 17.2616 13.508 17.6369C13.5416 17.9788 13.6879 17.9984 13.9937 17.94C16.1949 17.5195 18.3962 17.0989 20.5974 16.6784ZM9.5147 18.7956C10.2637 18.6525 11.0099 18.4941 11.7618 18.3663C12.0064 18.3196 12.053 18.2315 11.9939 18.0053C11.9203 17.7028 11.8619 17.3973 11.8188 17.0889C11.7874 16.8415 11.6964 16.7798 11.4365 16.8294C10.2624 17.0695 9.06713 17.282 7.89007 17.5069C7.5079 17.5799 6.9619 17.5417 6.80111 17.7783C6.58793 18.0723 6.90115 18.5507 6.93115 18.9566C6.95963 19.1887 7.03537 19.2534 7.27995 19.2066C8.0472 19.0759 8.78095 18.9357 9.5147 18.7956Z" fill="#5FD3D1"/>
<path d="M18.1679 36.141C18.7335 36.033 19.3115 35.9067 19.88 35.814C20.1246 35.7672 20.2228 35.701 20.2496 35.4267C20.4374 33.5068 22.0289 31.9679 23.8882 31.9135C25.952 31.8518 27.6189 33.1957 27.9618 35.1567C28.2748 37.0442 27.1785 38.8527 25.2896 39.4985C23.5813 40.094 21.5528 39.2624 20.6975 37.6051C20.5503 37.3324 20.4287 37.2765 20.1383 37.332C19.0253 37.5604 17.8941 37.7765 16.7752 37.9744C16.2096 38.0825 15.8179 37.8565 15.7151 37.4012C15.6093 36.9306 15.9178 36.555 16.4987 36.444C17.052 36.3542 17.6023 36.2491 18.1679 36.141ZM22.1437 36.9647C22.6268 37.9174 23.8863 38.3733 24.9061 37.9886C26.0729 37.544 26.6999 36.3477 26.3777 35.1585C26.0642 34.0151 24.9108 33.2856 23.7461 33.4922C22.7343 33.6697 21.8472 34.5832 21.8978 35.4285C22.4634 35.3205 23.0137 35.2153 23.5793 35.1073C23.7016 35.0839 23.8392 35.0576 23.9615 35.0343C24.423 34.9619 24.8206 35.2185 24.9023 35.6462C24.984 36.0738 24.7242 36.4559 24.2686 36.5588C23.5377 36.7143 22.8469 36.8304 22.1437 36.9647Z" fill="#5FD3D1"/>
<path d="M18.4627 23.4191C22.0397 22.7357 25.6168 22.0524 29.1938 21.3691C29.3161 21.3457 29.4537 21.3195 29.576 21.2961C29.9822 21.266 30.3339 21.5313 30.4069 21.9131C30.498 22.3074 30.2565 22.7018 29.8525 22.8265C29.7331 22.8651 29.5926 22.8761 29.4703 22.8995C22.3162 24.2661 15.1621 25.6328 8.00804 26.9994C7.30486 27.1337 6.90658 26.9565 6.79501 26.4554C6.68343 25.9542 7.01307 25.6063 7.73154 25.469C11.3086 24.7857 14.8856 24.1024 18.4627 23.4191Z" fill="#5FD3D1"/>
<path d="M18.1252 21.9004C14.5634 22.5808 11.0016 23.2612 7.42458 23.9445C7.287 23.9708 7.15234 24.0124 7.00893 24.0081C6.61509 24.02 6.27574 23.7365 6.20279 23.3547C6.14805 22.9851 6.36485 22.6271 6.72005 22.4959C6.85471 22.4544 6.99229 22.4281 7.12987 22.4018C14.284 21.0351 21.4381 19.6685 28.5922 18.3018C29.2953 18.1675 29.6936 18.3447 29.8052 18.8459C29.9197 19.3623 29.5871 19.695 28.8839 19.8293C25.3098 20.5279 21.7175 21.2141 18.1252 21.9004Z" fill="#5FD3D1"/>
<path d="M14.338 27.3733C16.3558 26.9879 18.3889 26.5995 20.4068 26.214C20.5291 26.1907 20.6666 26.1644 20.7918 26.1563C21.1704 26.1473 21.5039 26.4002 21.5892 26.7639C21.6775 27.1428 21.4665 27.5315 21.0807 27.6685C20.9613 27.7071 20.8238 27.7334 20.7015 27.7568C16.6505 28.5306 12.6149 29.3015 8.56396 30.0754C8.45696 30.0958 8.36524 30.1133 8.25823 30.1338C7.82438 30.185 7.43916 29.9103 7.37567 29.495C7.31509 29.0949 7.54717 28.7339 7.96644 28.6063C8.07053 28.5706 8.19574 28.5625 8.30275 28.5421C10.3177 28.1413 12.3355 27.7559 14.338 27.3733Z" fill="#5FD3D1"/>
<path d="M13.7002 32.2448C12.141 32.5427 10.597 32.8376 9.0378 33.1355C8.77793 33.1851 8.52751 33.2013 8.29085 33.0407C8.05127 32.8648 7.92815 32.635 7.95206 32.3455C7.98542 32.0225 8.16442 31.7983 8.47377 31.6759C8.60843 31.6343 8.74601 31.608 8.88358 31.5817C11.8797 31.0094 14.8912 30.4341 17.8874 29.8618C17.9944 29.8413 18.0861 29.8238 18.1931 29.8034C18.6575 29.7463 19.0398 30.0057 19.1062 30.4364C19.1697 30.8517 18.9253 31.2309 18.4849 31.3308C17.7693 31.4833 17.0632 31.6024 16.3448 31.7396C15.4734 31.9061 14.5868 32.0755 13.7002 32.2448Z" fill="#5FD3D1"/>
<path d="M26.0551 7.26084C26.3149 7.21119 26.5566 7.1492 26.8194 7.11483C27.2533 7.06361 27.6232 7.34125 27.699 7.73839C27.7749 8.13553 27.5334 8.52997 27.1236 8.62409C26.5914 8.74157 26.0564 8.84378 25.5185 8.93071C25.0875 8.9972 24.7147 8.70429 24.6388 8.30715C24.56 7.89474 24.8198 7.51265 25.2602 7.41269C25.5324 7.34485 25.7923 7.29521 26.0551 7.26084C26.0521 7.24556 26.0521 7.24556 26.0551 7.26084Z" fill="#5FD3D1"/>
<path d="M21.4662 8.12148C21.726 8.07184 21.9677 8.00984 22.2305 7.97547C22.6644 7.92425 23.0466 8.1837 23.1101 8.59903C23.1889 9.01145 22.9292 9.39354 22.5041 9.49058C21.9873 9.60514 21.4675 9.70442 20.9449 9.78843C20.5139 9.85492 20.1287 9.58021 20.0652 9.16487C19.9864 8.75246 20.2462 8.37037 20.6713 8.27333C20.9311 8.22369 21.2063 8.17112 21.4662 8.12148Z" fill="#5FD3D1"/>
<path d="M17.1263 10.5339C16.8817 10.5806 16.64 10.6426 16.4078 10.6711C15.9463 10.7434 15.5611 10.4687 15.4823 10.0563C15.4035 9.64388 15.6633 9.26179 16.0884 9.16475C16.6052 9.05019 17.125 8.95091 17.6476 8.86689C18.0786 8.8004 18.4638 9.07512 18.5273 9.49046C18.606 9.90287 18.3463 10.285 17.9212 10.382C17.649 10.4498 17.3862 10.4842 17.1263 10.5339Z" fill="#5FD3D1"/>
<path d="M20.6653 30.1385C20.5865 29.726 20.8433 29.3287 21.2502 29.2193C21.6753 29.1222 22.0911 29.3911 22.1881 29.8159C22.2698 30.2436 21.9853 30.6621 21.5726 30.7409C21.1445 30.8227 20.744 30.5509 20.6653 30.1385Z" fill="#5FD3D1"/>
</g>
<defs>
<clipPath id="clip0_120:1244">
<rect width="39.8256" height="39.8256" fill="white" transform="translate(0 7.47266) rotate(-10.8149)"/>
</clipPath>
</defs>
</svg>
