<svg width="22" height="21" viewBox="0 0 22 21" fill="none" xmlns="http://www.w3.org/2000/svg">
<g clip-path="url(#clip0_106:103)">
<path d="M17.344 8.80757C17.4471 8.86801 17.5244 8.84211 17.6017 8.84211C18.6498 8.84211 19.7064 8.84211 20.7544 8.84211C21.5533 8.84211 21.9914 9.28248 21.9914 10.0769C21.9914 12.322 21.9914 14.567 21.9914 16.8121C21.9914 17.2093 21.8626 17.5288 21.5791 17.8137C20.6513 18.7377 19.7322 19.6616 18.813 20.5942C18.5381 20.8705 18.2288 21 17.8337 21C15.3425 20.9914 12.8513 20.9914 10.36 21C10.0852 21 9.83603 20.9568 9.61268 20.7841C9.54396 20.7323 9.49242 20.7323 9.42369 20.7841C9.20893 20.9482 8.95981 21 8.69351 21C6.18511 21 3.68531 21 1.17691 21C0.43814 21 -0.0171509 20.551 -0.0171509 19.8084C-0.0171509 17.4338 -0.0171509 15.0592 -0.0171509 12.6846C-0.0171509 12.1665 0.189019 11.8125 0.618538 11.5275C1.77824 10.7418 2.90358 9.92146 4.04611 9.10979C4.20073 8.99753 4.35536 8.88528 4.54435 8.87664C4.75052 8.86801 4.75911 8.76439 4.75911 8.60033C4.75052 7.41735 4.75911 6.22574 4.75911 5.04276C4.75911 4.59375 4.75911 4.1361 4.75911 3.68709C4.7677 3.30715 4.92233 3.00493 5.23158 2.78906C6.30538 2.03783 7.362 1.29523 8.41862 0.552632C8.57324 0.449013 8.71928 0.33676 8.87391 0.224507C9.0629 0.0863487 9.26906 0 9.5096 0C11.8462 0 14.1914 0 16.5279 0C17.0777 0 17.5073 0.405839 17.5846 0.949836C17.6017 1.06209 17.6017 1.18298 17.6017 1.29523C17.6017 3.47985 17.6017 5.67311 17.6017 7.85773C17.6017 8.19449 17.576 8.51398 17.344 8.80757ZM14.114 20.2574C15.3597 20.2574 16.6053 20.2574 17.8509 20.2574C18.2031 20.2574 18.3319 20.1365 18.3319 19.7825C18.3319 17.3993 18.3319 15.016 18.3319 12.6414C18.3319 12.2874 18.2031 12.1579 17.8509 12.1579C15.3597 12.1579 12.8684 12.1579 10.3772 12.1579C10.025 12.1579 9.89616 12.2874 9.89616 12.6414C9.89616 15.0247 9.89616 17.4079 9.89616 19.7825C9.89616 20.1365 10.0164 20.2574 10.3772 20.2574C11.6228 20.2574 12.8684 20.2574 14.114 20.2574ZM4.9481 20.2574C6.1937 20.2574 7.43931 20.2574 8.68492 20.2574C9.04571 20.2574 9.15739 20.1451 9.15739 19.7825C9.15739 17.3993 9.15739 15.016 9.15739 12.6414C9.15739 12.2788 9.03712 12.1579 8.68492 12.1579C6.1937 12.1579 3.70249 12.1579 1.21128 12.1579C0.859069 12.1579 0.730213 12.2874 0.730213 12.6414C0.730213 15.0247 0.730213 17.4079 0.730213 19.7825C0.730213 20.1365 0.850479 20.2574 1.21128 20.2574C2.45688 20.2574 3.70249 20.2574 4.9481 20.2574ZM9.69858 11.4153C10.9356 11.4153 12.1726 11.4153 13.4096 11.4153C13.822 11.4153 13.9251 11.3117 13.9251 10.9145C13.9251 8.54852 13.9251 6.18257 13.9251 3.81661C13.9251 3.43668 13.8134 3.32442 13.444 3.32442C10.9614 3.32442 8.47875 3.32442 5.99613 3.32442C5.60956 3.32442 5.49788 3.43668 5.49788 3.82525C5.49788 6.18257 5.49788 8.54852 5.49788 10.9058C5.49788 11.3117 5.60097 11.4239 6.00472 11.4239C7.24173 11.4153 8.47016 11.4153 9.69858 11.4153ZM16.8372 1.26069C16.7599 1.27796 16.7169 1.3384 16.6654 1.38158C16.0469 1.92558 15.4284 2.47821 14.8099 3.01357C14.6638 3.14309 14.535 3.24671 14.6467 3.47122C14.6982 3.57484 14.6724 3.73026 14.6724 3.85115C14.6724 5.95806 14.6724 8.06497 14.6724 10.1719C14.6724 10.2496 14.6467 10.3273 14.6982 10.3964C14.7755 10.3791 14.8185 10.31 14.8614 10.2582C15.4541 9.66242 16.0383 9.06661 16.6396 8.47944C16.8028 8.31538 16.8802 8.14268 16.8802 7.90954C16.8716 5.76809 16.8802 3.62664 16.8716 1.47656C16.863 1.41612 16.8887 1.32977 16.8372 1.26069ZM19.0707 19.2817C19.148 19.2039 19.191 19.1694 19.2339 19.1349C19.8438 18.5218 20.4538 17.9001 21.0723 17.2956C21.2183 17.1575 21.2698 17.0021 21.2698 16.7948C21.2613 14.6275 21.2698 12.4688 21.2698 10.3014C21.2698 10.2323 21.2698 10.1632 21.2698 10.0942C21.2269 10.1028 21.2097 10.1028 21.2011 10.1114C20.4881 10.7331 19.7751 11.3635 19.0707 11.9852C19.002 12.0456 18.9762 12.0975 19.0106 12.1924C19.0707 12.3565 19.0707 12.5292 19.0707 12.7019C19.0707 14.7915 19.0707 16.8898 19.0707 18.9794C19.0707 19.0572 19.0707 19.1435 19.0707 19.2817ZM20.6599 9.59334C20.5826 9.5847 20.5483 9.57607 20.5139 9.57607C19.2511 9.57607 17.9797 9.57607 16.7169 9.57607C16.6053 9.57607 16.5365 9.62788 16.4592 9.69696C15.9438 10.215 15.4284 10.7331 14.913 11.2599C14.8786 11.2944 14.8185 11.3203 14.8185 11.4153C14.8958 11.4153 14.9731 11.4153 15.0504 11.4153C15.9696 11.4153 16.8973 11.4153 17.8165 11.4153C17.9797 11.4153 18.1515 11.4153 18.2976 11.4844C18.4178 11.5362 18.4866 11.5016 18.5811 11.4239C19.0965 10.9576 19.6205 10.5 20.1445 10.0424C20.3077 9.90419 20.4709 9.76604 20.6599 9.59334ZM16.2788 0.733964C15.2738 0.733964 14.3374 0.733964 13.401 0.733964C13.3237 0.733964 13.2722 0.777138 13.2121 0.820312C12.5162 1.36431 11.8204 1.90831 11.1332 2.4523C11.0988 2.47821 11.0387 2.49548 11.0559 2.57319C11.1332 2.57319 11.2105 2.57319 11.2878 2.57319C12.0352 2.57319 12.7911 2.48684 13.5127 2.5991C14.0539 2.68544 14.3374 2.4523 14.6638 2.15008C15.1793 1.69243 15.7119 1.24342 16.2788 0.733964ZM6.90671 2.53002C6.94107 2.58183 6.97543 2.57319 7.00979 2.57319C7.88601 2.57319 8.77082 2.57319 9.64704 2.57319C9.75872 2.57319 9.83603 2.52138 9.91334 2.46094C10.5834 1.93421 11.2534 1.40748 11.9235 0.889391C11.9664 0.854852 12.0094 0.811678 12.0695 0.759868C12.0266 0.751234 12.0094 0.742599 11.9836 0.742599C11.1675 0.742599 10.3515 0.742599 9.53537 0.742599C9.44087 0.742599 9.35497 0.777138 9.27766 0.837582C8.67633 1.26933 8.06641 1.70107 7.45649 2.13281C7.28468 2.26234 7.0957 2.39186 6.90671 2.53002ZM2.14763 11.3635C2.14763 11.3808 2.15622 11.398 2.15622 11.4153C2.22494 11.4153 2.29367 11.4153 2.36239 11.4153C3.05821 11.4153 3.75403 11.4153 4.44126 11.4153C4.55294 11.4153 4.69039 11.4412 4.77629 11.3894C4.86219 11.3289 4.75911 11.1994 4.7677 11.0872C4.77629 10.6468 4.7677 10.2064 4.7677 9.77467C4.7677 9.71423 4.80206 9.63651 4.73334 9.60197C4.66461 9.56743 4.59589 9.61924 4.54435 9.66242C4.41549 9.7574 4.28664 9.85238 4.16637 9.93873C3.48773 10.4137 2.81768 10.8886 2.14763 11.3635Z" fill="#A2B0BA"/>
<path d="M12.1039 19.5236C11.8548 19.5236 11.6057 19.5322 11.3566 19.5236C10.9786 19.5149 10.6865 19.2472 10.6521 18.8759C10.6264 18.5824 10.6264 18.2888 10.6521 17.9952C10.6779 17.598 10.9786 17.3303 11.3823 17.3217C11.872 17.313 12.353 17.313 12.8427 17.3217C13.255 17.3303 13.5557 17.6152 13.5815 18.0384C13.5986 18.2974 13.5986 18.5564 13.5815 18.8155C13.5557 19.2386 13.255 19.5236 12.8255 19.5322C12.5764 19.5236 12.3359 19.5236 12.1039 19.5236ZM12.1125 18.7896C12.1726 18.7896 12.2242 18.7896 12.2843 18.7896C12.8599 18.7896 12.8599 18.7896 12.8341 18.2111C12.8341 18.2024 12.8341 18.1938 12.8341 18.1938C12.8427 18.0902 12.7997 18.0556 12.6967 18.0556C12.4304 18.0643 12.1726 18.0556 11.9063 18.0556C11.3308 18.0556 11.3308 18.0556 11.3651 18.6514C11.3737 18.7637 11.4081 18.7982 11.5198 18.7982C11.7174 18.781 11.9149 18.7896 12.1125 18.7896Z" fill="#A2B0BA"/>
<path d="M16.7083 17.3129C16.8801 17.3129 17.0519 17.3043 17.2237 17.3129C17.4471 17.3216 17.5931 17.477 17.5931 17.6756C17.5931 17.8742 17.4471 18.0382 17.2237 18.0469C16.8629 18.0555 16.4936 18.0555 16.1328 18.0469C15.9094 18.0382 15.7634 17.8828 15.7634 17.6842C15.7634 17.4683 15.918 17.3216 16.1499 17.3129C16.3389 17.3129 16.5279 17.3129 16.7083 17.3129Z" fill="#A2B0BA"/>
<path d="M16.6826 19.5236C16.5022 19.5236 16.3218 19.5322 16.15 19.5236C15.918 19.5149 15.7634 19.3595 15.772 19.1523C15.7806 18.9537 15.9266 18.7982 16.15 18.7982C16.5022 18.7896 16.863 18.7896 17.2152 18.7982C17.4471 18.7982 17.6018 18.9623 17.5932 19.1782C17.5846 19.3768 17.4386 19.5236 17.2152 19.5322C17.0348 19.5236 16.863 19.5236 16.6826 19.5236Z" fill="#A2B0BA"/>
<path d="M2.94653 17.3129C3.18706 17.3129 3.43618 17.3043 3.67671 17.3129C4.08046 17.3216 4.38113 17.6065 4.39831 18.0123C4.4069 18.2887 4.4069 18.5563 4.39831 18.8327C4.38113 19.2126 4.08046 19.5062 3.70249 19.5148C3.19565 19.5234 2.68882 19.5234 2.18199 19.5148C1.79542 19.5062 1.49475 19.204 1.47757 18.8154C1.46898 18.5477 1.46898 18.28 1.47757 18.021C1.49475 17.6151 1.80401 17.3302 2.19917 17.3129C2.44829 17.3129 2.69741 17.3129 2.94653 17.3129ZM2.94653 18.7895C3.00666 18.7895 3.05821 18.7895 3.11834 18.7895C3.69389 18.7895 3.6939 18.7895 3.66812 18.2109C3.66812 18.2023 3.66812 18.1937 3.66812 18.1937C3.67671 18.0901 3.63376 18.0555 3.53068 18.0555C3.12693 18.0555 2.73177 18.0642 2.32802 18.0555C2.22494 18.0555 2.19058 18.0987 2.19917 18.1937C2.20776 18.3491 2.20776 18.5132 2.19917 18.6686C2.19917 18.7636 2.23353 18.7981 2.32802 18.7895C2.53419 18.7808 2.74036 18.7895 2.94653 18.7895Z" fill="#A2B0BA"/>
<path d="M7.53384 19.5236C7.35344 19.5236 7.18164 19.5236 7.00124 19.5236C6.76071 19.515 6.61467 19.3768 6.60608 19.161C6.60608 18.9451 6.75212 18.7897 6.98406 18.7897C7.33626 18.781 7.69706 18.781 8.04926 18.7897C8.27262 18.7983 8.41865 18.9451 8.41865 19.1523C8.41865 19.3682 8.27262 19.515 8.04067 19.5236C8.02349 19.5236 8.0149 19.5236 7.99772 19.5236C7.85169 19.5236 7.68847 19.5236 7.53384 19.5236Z" fill="#A2B0BA"/>
<path d="M7.53384 17.3129C7.71424 17.3129 7.88605 17.3043 8.06645 17.3129C8.28121 17.3216 8.41865 17.4597 8.42724 17.6583C8.43583 17.8656 8.29839 18.0382 8.08363 18.0469C7.70565 18.0555 7.32767 18.0555 6.94969 18.0469C6.74353 18.0382 6.60608 17.8828 6.60608 17.6842C6.60608 17.477 6.75212 17.3302 6.97547 17.3216C7.15586 17.3129 7.34485 17.3129 7.53384 17.3129Z" fill="#A2B0BA"/>
<path d="M7.68844 10.6727C7.43932 10.6727 7.1902 10.6814 6.94108 10.6727C6.55451 10.6641 6.25385 10.3705 6.23667 9.9733C6.22808 9.70562 6.22808 9.43794 6.23667 9.17889C6.25385 8.79032 6.54592 8.47947 6.94108 8.47083C7.44791 8.4622 7.95475 8.4622 8.46158 8.47083C8.85674 8.47947 9.14881 8.78169 9.16599 9.17026C9.17458 9.43794 9.17458 9.70562 9.16599 9.96466C9.14881 10.3705 8.85674 10.6555 8.4444 10.6727C8.19528 10.6814 7.94616 10.6814 7.68844 10.6727C7.68844 10.6727 7.68844 10.6814 7.68844 10.6727ZM7.71422 9.20479C7.65408 9.20479 7.58536 9.20479 7.52523 9.20479C6.93249 9.20479 6.93249 9.20479 6.96685 9.8006C6.97544 9.89558 6.99262 9.94739 7.09571 9.94739C7.49946 9.93876 7.91179 9.94739 8.31554 9.94739C8.37568 9.94739 8.43581 9.93876 8.42722 9.86104C8.41863 9.65381 8.49594 9.41203 8.39286 9.24797C8.32413 9.13572 8.0836 9.22206 7.92898 9.21343C7.86025 9.20479 7.78294 9.20479 7.71422 9.20479Z" fill="#A2B0BA"/>
<path d="M12.2843 9.20479C12.0953 9.20479 11.9149 9.21343 11.7259 9.20479C11.5112 9.19616 11.3737 9.058 11.3651 8.85077C11.3565 8.64353 11.494 8.47947 11.7173 8.47083C12.0867 8.4622 12.4561 8.4622 12.8255 8.47083C13.0488 8.47947 13.1863 8.63489 13.1863 8.84213C13.1863 9.04937 13.0403 9.19616 12.8169 9.19616C12.6451 9.21343 12.4647 9.20479 12.2843 9.20479Z" fill="#A2B0BA"/>
<path d="M12.2757 10.6728C12.0953 10.6728 11.9149 10.6814 11.7431 10.6728C11.5197 10.6642 11.3823 10.5347 11.3737 10.3274C11.3651 10.1202 11.5025 9.94748 11.7173 9.93885C12.0953 9.93021 12.4732 9.93021 12.8512 9.93885C13.0574 9.94748 13.1948 10.1115 13.1862 10.3101C13.1777 10.5088 13.0402 10.6555 12.8255 10.6642C12.6536 10.6814 12.4647 10.6728 12.2757 10.6728Z" fill="#A2B0BA"/>
</g>
<defs>
<clipPath id="clip0_106:103">
<rect width="22" height="21" fill="white"/>
</clipPath>
</defs>
</svg>
