<svg width="41" height="29" viewBox="0 0 41 29" fill="none" xmlns="http://www.w3.org/2000/svg">
<g clip-path="url(#clip0_120:248)">
<path d="M41 13.9473C41 13.5622 40.9173 13.244 40.7024 12.9259C38.8343 9.97902 36.9496 7.04888 35.098 4.102C34.85 3.70015 34.5524 3.53271 34.0895 3.53271C31.6758 3.54946 29.2621 3.53271 26.8649 3.54946H25.129C25.129 3.54946 25.1125 10.1297 25.129 15.1695C25.129 15.5212 25.0298 15.6049 24.6992 15.6049C20.8637 15.5881 17.0448 15.6049 13.2093 15.6049C9.39032 15.6049 5.5879 15.6049 1.76895 15.6049C1.42177 15.6049 1.30605 15.5547 1.30605 15.1695C1.32258 10.1465 1.32258 11.1846 1.32258 6.16147C1.32258 5.27405 1.68629 4.92244 2.54597 4.92244C5.6375 4.92244 5.60444 3.58295 2.49637 3.58295C0.942339 3.58295 0 4.55408 0 6.14472C0 10.113 0 8.00327 0 11.9715C0 16.0067 0 20.042 0 24.0604C0 24.7637 0.214919 24.9813 0.909274 24.9813C1.60363 24.9813 2.31452 24.9981 3.00887 24.9813C3.25686 24.9813 3.33952 25.0483 3.40565 25.3162C3.90161 27.5096 5.75323 28.9998 7.91895 28.9998C10.0847 28.9998 11.9363 27.5096 12.4323 25.3162C12.4984 25.0148 12.6306 24.9813 12.8786 24.9813C17.954 24.9813 23.0129 24.9813 28.0883 24.9813C28.3694 24.9813 28.4851 25.0316 28.5512 25.3329C29.0306 27.4259 30.8161 28.9328 32.8827 28.9998C35.1476 29.0668 37.0653 27.5766 37.5778 25.3329C37.644 25.0483 37.7431 24.9813 38.0077 24.9813C38.702 24.9981 39.3798 24.9813 40.0742 24.9813C40.8016 24.9813 41 24.7804 41 24.0437C41 20.6782 41 17.3127 41 13.9473ZM7.91895 27.6603C6.1004 27.6603 4.6125 26.1366 4.62903 24.2948C4.64556 22.4698 6.11694 20.9796 7.93548 20.9796C9.75403 20.9796 11.2585 22.4865 11.2419 24.3283C11.2254 26.1534 9.75403 27.6603 7.91895 27.6603ZM25.129 23.2567C25.129 23.5749 25.0464 23.6418 24.7323 23.6418C20.7811 23.6251 16.8298 23.6251 12.8786 23.6418C12.581 23.6418 12.4984 23.5581 12.4323 23.2735C11.9363 21.0968 10.0681 19.6066 7.88589 19.6234C5.73669 19.6401 3.90161 21.147 3.40565 23.307C3.33952 23.5749 3.27339 23.6586 3.00887 23.6418C2.54597 23.6251 2.06653 23.6251 1.60363 23.6418C1.37218 23.6586 1.30605 23.5749 1.30605 23.3404C1.32258 21.3145 1.32258 19.2885 1.30605 17.2792C1.30605 16.9276 1.47137 16.9444 1.70282 16.9444C4.54637 16.9444 7.37339 16.9444 10.2169 16.9444C11.2089 16.9444 12.2008 16.9444 13.1927 16.9444C17.0282 16.9444 20.8472 16.9444 24.6827 16.9276C25.0629 16.9276 25.129 17.0448 25.129 17.3965C25.1125 19.3387 25.129 21.2977 25.129 23.2567ZM34.9988 6.89819C35.1641 6.89819 35.3129 6.89819 35.4286 7.08237C36.6355 9.00789 37.8589 10.9334 39.1319 12.9259C38.9169 12.9259 38.7847 12.9259 38.6524 12.9259C35.8419 12.9259 33.0315 12.9092 30.221 12.9426C29.8242 12.9426 29.7581 12.8254 29.7581 12.4571C29.7746 10.7325 29.7746 8.99114 29.7581 7.26655C29.7581 6.96516 29.8407 6.89819 30.1218 6.89819C31.7419 6.89819 33.3786 6.89819 34.9988 6.89819ZM33.0315 27.6603C31.2129 27.6436 29.7415 26.1199 29.7581 24.2781C29.7746 22.4363 31.279 20.9461 33.1141 20.9796C34.9161 20.9963 36.3875 22.52 36.371 24.3451C36.3544 26.1701 34.8665 27.6603 33.0315 27.6603ZM39.6774 17.4969C39.6774 18.2671 39.6774 18.2671 38.9004 18.2671C38.702 18.2671 38.4871 18.2839 38.2887 18.2671C37.9415 18.2336 37.677 17.9323 37.6935 17.5974C37.7101 17.229 37.925 16.9946 38.2722 16.9611C38.669 16.9276 39.0657 16.9611 39.4625 16.9444C39.6278 16.9444 39.6774 17.0281 39.6609 17.1788C39.6774 17.2792 39.6774 17.3965 39.6774 17.4969ZM38.7516 15.5881C38.0738 15.5714 37.4621 15.6551 36.9661 16.1742C36.3875 16.7769 36.2056 17.4969 36.4867 18.2839C36.7843 19.0876 37.3794 19.5396 38.2391 19.6066C38.6194 19.6401 39.0161 19.6234 39.3964 19.6066C39.6113 19.5899 39.6774 19.6736 39.6774 19.8913C39.6609 21.0466 39.6774 22.2019 39.6774 23.3572C39.6774 23.5581 39.6113 23.6251 39.4129 23.6251C38.9335 23.6083 38.454 23.6083 37.9746 23.6251C37.7266 23.6418 37.644 23.5581 37.5778 23.2902C37.0653 21.0298 35.1641 19.5396 32.8992 19.6066C30.8161 19.6568 29.0306 21.1638 28.5512 23.2902C28.4851 23.5581 28.4024 23.6251 28.1544 23.6251C27.6915 23.6083 27.2121 23.6083 26.7492 23.6251C26.5177 23.6418 26.4185 23.5581 26.4516 23.3237C26.4516 23.2735 26.4516 23.2065 26.4516 23.1563C26.4516 17.2123 26.4516 11.2683 26.4351 5.32428C26.4351 4.95592 26.5177 4.85546 26.8815 4.87221C29.0637 4.88895 31.2625 4.90569 33.4448 4.87221C33.9407 4.87221 34.2052 5.03964 34.3706 5.5587C32.9653 5.5587 31.6097 5.5587 30.254 5.5587C29.8738 5.5587 29.477 5.54195 29.0968 5.5587C28.6835 5.57544 28.419 5.82659 28.419 6.24519C28.419 8.68976 28.419 11.1343 28.419 13.5622C28.419 14.0142 28.7 14.2486 29.1794 14.2486C30.469 14.2486 31.775 14.2486 33.0645 14.2486C35.131 14.2486 37.1976 14.2654 39.2641 14.2319C39.5948 14.2319 39.6774 14.3324 39.6609 14.6505C39.6609 15.6049 39.6774 15.6216 38.7516 15.5881Z" fill="#5FD3D1"/>
<path d="M19.8387 18.2838C20.6818 18.2838 21.5085 18.2838 22.3516 18.2838C22.8476 18.2838 23.1451 18.535 23.1451 18.9368C23.1617 19.3554 22.8476 19.6233 22.3351 19.6233C20.6653 19.6233 19.0121 19.6233 17.3423 19.6233C16.8298 19.6233 16.5157 19.3721 16.5322 18.9536C16.5322 18.535 16.8298 18.2838 17.3589 18.2838C18.1855 18.2671 19.0121 18.2838 19.8387 18.2838Z" fill="#5FD3D1"/>
<path d="M21.5085 21.6327C21.1779 21.6327 20.8472 21.6494 20.5166 21.6327C20.1033 21.6159 19.8387 21.3145 19.8387 20.9462C19.8553 20.5778 20.1198 20.3099 20.5166 20.3099C21.1779 20.2932 21.8391 20.2932 22.4839 20.3099C22.8807 20.3267 23.1452 20.6113 23.1287 20.9797C23.1287 21.348 22.8641 21.6327 22.4674 21.6494C22.1533 21.6327 21.8391 21.6327 21.5085 21.6327Z" fill="#5FD3D1"/>
<path d="M30.0886 15.6051C30.4193 15.6051 30.7499 15.5884 31.0806 15.6051C31.4774 15.6218 31.7419 15.8897 31.7419 16.2581C31.7584 16.6432 31.4774 16.9278 31.0641 16.9446C30.4193 16.9613 29.7745 16.9613 29.1298 16.9446C28.7165 16.9446 28.4354 16.6432 28.4354 16.2748C28.4354 15.8897 28.7165 15.6218 29.1298 15.6218C29.4604 15.5884 29.7745 15.6051 30.0886 15.6051Z" fill="#5FD3D1"/>
<path d="M7.95206 22.3025C9.02666 22.3025 9.9194 23.2234 9.9194 24.3117C9.9194 25.4335 9.01013 26.3377 7.919 26.321C6.8444 26.3042 5.95166 25.4168 5.95166 24.3117C5.95166 23.1899 6.86093 22.2857 7.95206 22.3025ZM7.93553 23.642C7.57182 23.642 7.27424 23.9434 7.27424 24.3117C7.27424 24.6801 7.57182 24.9815 7.93553 24.9815C8.29924 24.9815 8.59682 24.6801 8.59682 24.3117C8.59682 23.9434 8.29924 23.642 7.93553 23.642Z" fill="#5FD3D1"/>
<path d="M35.0484 24.3115C35.0484 25.4333 34.1392 26.3375 33.048 26.3207C31.9734 26.304 31.0807 25.3998 31.0807 24.3115C31.0807 23.2064 31.9734 22.3022 33.0811 22.3022C34.1557 22.3022 35.0484 23.2064 35.0484 24.3115ZM33.7259 24.3115C33.7259 23.9431 33.4283 23.6417 33.0646 23.6417C32.7009 23.6417 32.4033 23.9431 32.4033 24.3115C32.4033 24.6799 32.7009 24.9812 33.0646 24.9812C33.4283 24.9645 33.7259 24.6631 33.7259 24.3115Z" fill="#5FD3D1"/>
<path d="M26.4516 3.58301H2.51294V4.87227H26.4516V3.58301Z" fill="#5FD3D1"/>
<path d="M18.8798 4.2194H17.7225V0H26.3854V3.5664H25.2282V1.17206H18.8798V4.2194Z" fill="#5FD3D1"/>
</g>
<defs>
<clipPath id="clip0_120:248">
<rect width="41" height="29" fill="white"/>
</clipPath>
</defs>
</svg>
