<svg width="22" height="18" viewBox="0 0 22 18" fill="none" xmlns="http://www.w3.org/2000/svg">
<g clip-path="url(#clip0_106:57)">
<path d="M7.34193 17.0712C7.38492 16.3395 7.4279 15.5891 7.75459 14.9044C7.82337 14.7637 7.7288 14.745 7.66002 14.7168C7.25596 14.5198 6.8519 14.3322 6.44783 14.1259C5.76866 13.7788 5.10668 13.3942 4.47909 12.9253C4.36733 12.8408 4.30715 12.8408 4.22978 12.9722C3.51622 14.1071 2.47597 14.6512 1.27237 14.9044C1.02306 14.9513 0.77374 14.9794 0.524424 14.9982C0.214928 15.017 0 14.8106 0.00859711 14.4823C0.0257913 12.9909 0.232122 11.5558 0.98007 10.2707C1.11762 10.0363 1.28097 9.81113 1.46151 9.61416C1.52169 9.5485 1.54748 9.49222 1.47011 9.4078C0.610395 8.41353 0.249316 7.19415 0.0859711 5.89034C0.0343884 5.46825 0 5.03677 0 4.6053C0 4.17382 0.206331 3.97685 0.5932 4.00499C1.63345 4.08003 2.58773 4.39894 3.42165 5.09305C3.73114 5.35569 3.99766 5.65585 4.21258 6.01228C4.28136 6.12484 4.34154 6.17174 4.4619 6.07794C5.12388 5.57143 5.84603 5.16809 6.57679 4.7929C6.72294 4.71786 6.76592 4.6522 6.72294 4.4646C6.41344 3.2546 5.98359 2.08211 5.59672 0.900246C5.58812 0.843967 5.57093 0.787687 5.54513 0.731408C5.40758 0.281174 5.66549 -0.0565019 6.09535 0.00915723C6.64556 0.0935762 7.18718 0.168615 7.7288 0.281174C9.02696 0.543811 10.2993 0.890866 11.5029 1.49118C12.2509 1.86637 12.9558 2.30723 13.4975 3.00134C13.5576 3.07638 13.6264 3.08576 13.7038 3.10452C14.8558 3.26398 15.9648 3.59227 17.0137 4.13631C18.7589 5.03677 20.1602 6.3781 21.2606 8.08524C21.4842 8.43229 21.6819 8.80749 21.8968 9.1733C22.0258 9.39842 22.0172 9.60478 21.8968 9.82989C20.8222 11.8559 19.3951 13.488 17.4951 14.6136C16.3087 15.3077 15.0449 15.7392 13.7124 15.9081C13.6694 15.9174 13.6264 15.9174 13.5834 15.9268C13.2653 15.955 12.9386 15.9081 12.6463 16.0206C12.354 16.1238 12.1907 16.4709 11.9328 16.6678C11.0817 17.3338 10.1188 17.6809 9.09574 17.8685C8.71747 17.9435 8.3306 17.981 7.94373 17.9998C7.49668 18.0279 7.32474 17.8309 7.33333 17.3526C7.34193 17.2681 7.34193 17.1837 7.34193 17.0712ZM12.3626 14.9982C13.807 14.9794 15.0879 14.7074 16.3001 14.1259C18.2946 13.1879 19.7991 11.6496 20.9254 9.6423C20.9855 9.53912 20.9941 9.46408 20.934 9.35152C19.6788 7.12849 17.9766 5.48701 15.7069 4.61468C14.0047 3.95809 12.2681 3.78925 10.4885 4.277C9.13873 4.6522 7.84916 5.20561 6.60258 5.88096C5.87183 6.27492 5.14967 6.68763 4.52208 7.26919C4.21258 7.55996 3.91168 7.4943 3.72255 7.09097C3.61938 6.85647 3.50762 6.63135 3.35287 6.43438C2.76827 5.64647 1.96014 5.25251 1.05744 5.06491C0.902696 5.03677 0.937085 5.14933 0.945682 5.23375C0.98007 5.8622 1.07464 6.4719 1.25518 7.07221C1.50449 7.88826 1.88277 8.61051 2.56194 9.10764C2.83705 9.30462 2.81125 9.70796 2.53615 9.91431C2.32122 10.0832 2.11489 10.2614 1.95154 10.4959C1.25518 11.462 1.02306 12.6063 0.945682 13.7976C0.937085 13.9477 1.00586 13.9383 1.10043 13.9195C2.25244 13.6756 3.19812 13.1129 3.73974 11.9122C3.92888 11.4901 4.22978 11.4245 4.55647 11.7246C4.7542 11.9122 4.96913 12.0811 5.19265 12.2405C6.55959 13.1691 8.0297 13.8726 9.55139 14.4167C10.4971 14.7637 11.4771 15.0076 12.3626 14.9982ZM12.0789 2.98258C10.4283 1.86637 8.57132 1.44428 6.69715 1.1066C6.67995 1.22854 6.72294 1.2942 6.74873 1.37862C7.03243 2.26033 7.35053 3.13266 7.55686 4.04251C7.60844 4.25824 7.67722 4.28638 7.85776 4.20196C8.80344 3.77987 9.77491 3.43281 10.7808 3.2077C11.2106 3.10452 11.6491 3.04824 12.0789 2.98258ZM11.3052 15.8987C10.4455 15.7486 9.66315 15.5141 8.89801 15.2233C8.70887 15.1483 8.6315 15.2139 8.55412 15.3828C8.34779 15.8518 8.3134 16.3583 8.27042 16.8554C8.26182 16.9961 8.34779 16.9586 8.40797 16.9492C8.80344 16.8929 9.19891 16.8367 9.58578 16.7241C10.1876 16.5553 10.755 16.3208 11.3052 15.8987Z" fill="#A2B0BA"/>
<path d="M12.8355 9.48262C12.8613 8.01936 13.1106 6.63114 13.764 5.33671C13.85 5.17725 13.9531 5.03655 14.1337 5.00842C14.3056 4.98028 14.4604 5.03655 14.5721 5.19601C14.6925 5.37423 14.7011 5.56183 14.6065 5.74943C14.3916 6.17152 14.211 6.61238 14.0907 7.08137C13.5491 9.18247 13.6436 11.2179 14.5721 13.1783C14.7269 13.5066 14.6753 13.7786 14.4346 13.9287C14.1939 14.0788 13.9359 13.9756 13.7726 13.6661C13.102 12.3716 12.8613 10.9553 12.8355 9.48262Z" fill="#A2B0BA"/>
<path d="M11.0043 9.48298C11.0387 8.01972 11.2794 6.62211 11.9413 5.32769C12.0273 5.15885 12.1391 5.03691 12.3196 5.00877C12.5002 4.98063 12.6463 5.04629 12.7495 5.20575C12.8698 5.39335 12.8526 5.59033 12.7581 5.77792C12.5345 6.2094 12.3626 6.65963 12.2422 7.13801C11.8124 8.75135 11.8296 10.3741 12.2766 11.978C12.311 12.1 12.354 12.2125 12.3798 12.3345C12.44 12.6346 12.311 12.8973 12.0789 12.9723C11.8382 13.0473 11.6061 12.916 11.5029 12.6252C11.3567 12.175 11.2364 11.7154 11.159 11.2464C11.0644 10.6648 10.9957 10.0833 11.0043 9.48298Z" fill="#A2B0BA"/>
<path d="M17.4177 7.99131C17.4263 8.54473 17.0223 8.99496 16.515 9.00434C16.0078 9.01372 15.5952 8.56349 15.5952 8.01945C15.5952 7.46604 15.9906 7.01581 16.4978 7.00643C16.9965 6.98767 17.4091 7.4379 17.4177 7.99131Z" fill="#A2B0BA"/>
</g>
<defs>
<clipPath id="clip0_106:57">
<rect width="22" height="18" fill="white"/>
</clipPath>
</defs>
</svg>
