<svg width="42" height="36" viewBox="0 0 42 36" fill="none" xmlns="http://www.w3.org/2000/svg">
<path fill-rule="evenodd" clip-rule="evenodd" d="M32.5878 0.0616158C31.0404 0.348219 29.7516 1.38258 29.1618 2.81122C28.8758 3.5041 28.8265 3.7819 28.8298 4.68297C28.8326 5.43643 28.8411 5.52101 28.9503 5.88755C29.0149 6.10438 29.0706 6.31135 29.0741 6.34749C29.0775 6.38362 28.061 7.68948 26.8151 9.24944L24.5499 12.0857H19.9248H15.2998L14.7292 10.8921C13.5618 8.45025 12.0646 5.68177 10.4 2.88704C9.62155 1.58005 9.56161 1.49336 9.34801 1.36546C9.0867 1.20899 8.79168 1.20562 8.49988 1.35569C8.30974 1.4535 8.24328 1.53502 7.80507 2.20832C6.86956 3.64554 5.33377 6.21235 4.34755 7.98695C1.94412 12.3116 0.529541 15.6178 0.101188 17.9115C-0.121199 19.1021 0.0293314 20.7461 0.490226 22.1604C1.13814 24.1487 2.41209 25.8556 4.10942 27.0094C5.06598 27.6597 6.13419 28.0848 7.41071 28.3232C7.97879 28.4293 9.41005 28.4276 9.98315 28.3202C11.4237 28.0502 12.6207 27.5125 13.7711 26.6185C13.9563 26.4746 14.1227 26.3736 14.1409 26.394C14.1592 26.4145 14.3322 26.7761 14.5255 27.1977C14.8992 28.013 15.0057 28.1686 15.2781 28.2974C15.4428 28.3753 15.7256 28.3785 22.376 28.3795L29.3024 28.3804L29.5258 28.2667C29.6885 28.1839 29.7795 28.1002 29.8606 27.9589C29.9719 27.7649 36.5565 13.6125 36.6809 13.2998C36.8402 12.8996 36.6532 12.395 36.2688 12.1876L36.0798 12.0857H33.7285C32.4353 12.0857 31.3772 12.0708 31.3772 12.0527C31.3772 12.0345 31.7593 11.4186 32.2262 10.6839L33.0752 9.348L33.6089 9.32119C33.9024 9.30643 34.2726 9.26241 34.4314 9.22338C35.7393 8.90204 36.8344 8.00789 37.444 6.76362C38.6827 4.23557 37.4805 1.1909 34.8768 0.26184C34.1706 0.00984056 33.2855 -0.0676033 32.5878 0.0616158ZM34.206 1.9476C34.9673 2.19334 35.5659 2.73369 35.9015 3.47839C36.0938 3.90485 36.1538 4.19645 36.1542 4.70487C36.1547 5.49206 35.8896 6.12786 35.3201 6.70505C34.7346 7.29845 33.9915 7.57454 33.1595 7.50779C32.922 7.48873 32.6588 7.47393 32.5746 7.47489C32.3962 7.47695 32.1238 7.60875 31.9938 7.75589C31.9439 7.81244 31.3003 8.80975 30.5637 9.97219L29.2243 12.0857H28.0478C27.0854 12.0857 26.8774 12.0752 26.9055 12.028C26.9243 11.9962 27.8273 10.8617 28.912 9.50674C29.9967 8.15178 30.9174 6.97045 30.9581 6.88153C31.0704 6.63576 31.054 6.36842 30.9071 6.0512C30.3216 4.7867 30.5202 3.51251 31.4456 2.59724C32.1645 1.88619 33.2351 1.63423 34.206 1.9476ZM9.60654 5.0334C12.7902 10.5537 14.9217 15.1583 15.4867 17.7363C15.7155 18.7803 15.7222 19.5787 15.5112 20.6435C14.9903 23.2717 13.1744 25.4111 10.7662 26.2337C10.2597 26.4068 9.59891 26.5524 9.54974 26.5018C9.53537 26.4871 9.53537 26.0474 9.54974 25.5248L9.57585 24.5746L11.3419 23.1708C12.3133 22.3986 13.1563 21.7023 13.2153 21.6232C13.5126 21.225 13.4133 20.6477 12.996 20.348C12.7883 20.1988 12.4759 20.1515 12.235 20.2328C12.1169 20.2726 10.4806 21.5274 9.65087 22.2144C9.60826 22.2497 9.59728 22.0156 9.59728 21.0707V19.8827L9.97243 19.581C10.1788 19.415 10.992 18.7655 11.7795 18.1375C12.5671 17.5095 13.2474 16.9406 13.2913 16.8732C13.6762 16.282 13.248 15.459 12.5556 15.459C12.2873 15.459 12.1011 15.5794 10.9399 16.5037C10.2778 17.0307 9.71163 17.4773 9.68179 17.4962C9.63814 17.5237 9.63188 17.1781 9.64989 15.7393C9.6748 13.7479 9.66558 13.6562 9.41623 13.4145C9.21236 13.2167 9.03045 13.137 8.78345 13.137C8.36063 13.137 8.04769 13.3582 7.94874 13.7271C7.90496 13.8902 7.88378 14.4171 7.86698 15.759C7.8545 16.7554 7.83495 17.5803 7.82355 17.5919C7.8121 17.6036 7.26104 17.1315 6.5989 16.5427C5.36567 15.4461 5.25772 15.3709 4.91674 15.3709C4.83571 15.3709 4.66781 15.4226 4.54369 15.4858C4.24422 15.6383 4.09909 15.8608 4.07474 16.2047C4.04168 16.6718 4.0371 16.6666 6.018 18.4325L7.79658 20.018V21.2019V22.3858L7.35712 21.994C7.11544 21.7786 6.58003 21.3016 6.16737 20.9341C5.75471 20.5666 5.33991 20.2294 5.24558 20.1847C4.75022 19.9503 4.14201 20.2579 4.02809 20.8005C3.98007 21.0293 4.02603 21.3118 4.14025 21.4899C4.17982 21.5517 5.00909 22.3113 5.98297 23.1781L7.75371 24.754V25.6254C7.75371 26.1366 7.73716 26.4969 7.71362 26.4969C7.59636 26.4969 6.99492 26.3472 6.63898 26.2294C5.64868 25.9016 4.75678 25.3262 3.9357 24.4855C3.10768 23.6377 2.53437 22.6872 2.16325 21.5472C1.90669 20.759 1.83265 20.3072 1.80787 19.3789C1.78725 18.607 1.79359 18.5069 1.89533 17.9991C2.35713 15.6937 4.18565 11.7626 7.1214 6.76362C8.27861 4.79318 8.88129 3.84471 8.93745 3.90573C8.96506 3.93569 9.26617 4.44315 9.60654 5.0334ZM34.4213 13.9206C34.4213 13.942 33.103 16.7952 31.4918 20.2611L28.5622 26.5626H22.3755H16.1886L15.817 25.7562L15.4453 24.9499L15.8339 24.3545C16.3995 23.488 16.7754 22.6683 17.0709 21.6567L17.1733 21.3062L17.2276 21.5691C17.4534 22.6611 18.1953 23.9563 19.0033 24.669C20.1411 25.6726 21.3965 26.1591 22.8453 26.158C24.3712 26.1569 25.7316 25.5911 26.8325 24.4996C28.0359 23.3066 28.6351 21.7876 28.576 20.0797C28.5524 19.3983 28.4908 19.0237 28.3083 18.4526C27.753 16.7146 26.3526 15.2799 24.6432 14.6977C24.1045 14.5143 23.708 14.4461 23.0382 14.422C21.3916 14.3625 19.9632 14.9392 18.7925 16.1359C18.2226 16.7186 17.7147 17.5221 17.4441 18.2692C17.3924 18.412 17.3894 18.4053 17.3131 17.9655C17.1213 16.8609 16.6847 15.4296 16.0841 13.9364C16.0665 13.8927 17.9148 13.8816 25.2417 13.8816C30.571 13.8816 34.4213 13.898 34.4213 13.9206ZM23.7867 16.3358C24.1942 16.4363 24.8167 16.7256 25.1391 16.9644C26.3216 17.8404 26.9638 19.314 26.7927 20.7587C26.586 22.5035 25.312 23.9137 23.6175 24.2731C23.0554 24.3923 22.2994 24.3629 21.7611 24.2007C20.6573 23.8681 19.7776 23.1228 19.2713 22.0912C18.7697 21.0692 18.7263 19.7885 19.1573 18.7306C19.4684 17.9671 20.1009 17.2143 20.7794 16.7998C21.1849 16.552 21.838 16.3109 22.2674 16.2504C22.6832 16.1918 23.3559 16.2296 23.7867 16.3358ZM22.4126 17.1374C22.2886 17.2043 22.1794 17.3123 22.095 17.4513L21.9664 17.6634L21.9532 18.5321L21.9399 19.4008L21.1172 19.4011C20.6646 19.4012 20.22 19.4224 20.1292 19.4482C19.8983 19.5136 19.6173 19.8123 19.5478 20.0661C19.4349 20.478 19.629 20.9274 20.0001 21.1134C20.1949 21.2111 20.2655 21.219 21.0768 21.2337L21.945 21.2495L21.9452 22.1321C21.9453 22.6233 21.9658 23.0893 21.9913 23.1832C22.0554 23.4191 22.3477 23.7062 22.5962 23.7773C22.9991 23.8925 23.4389 23.6944 23.6215 23.3152C23.7185 23.1139 23.725 23.0495 23.7391 22.1494L23.7541 21.1967H24.6309C25.5638 21.1967 25.6463 21.1813 25.8828 20.9616C26.1846 20.6815 26.2363 20.1385 25.9946 19.7889C25.7642 19.4557 25.653 19.4246 24.6353 19.4093L23.7457 19.3959V18.7035C23.7457 18.3226 23.726 17.9051 23.7019 17.7755C23.5893 17.1687 22.9453 16.85 22.4126 17.1374ZM35.3596 19.6803C35.1072 19.7724 34.9548 19.9094 34.8315 20.155C34.7676 20.2823 33.8329 22.4462 32.7543 24.9638L30.7933 29.5412L23.2715 29.5631L15.7497 29.585L15.5472 29.7067C14.8664 30.1155 15.0024 31.1416 15.7661 31.3583C15.9859 31.4207 31.3833 31.4189 31.6035 31.3564C31.87 31.2808 32.06 31.0715 32.2569 30.6363C32.3551 30.4195 33.2818 28.266 34.3164 25.8508L36.1974 21.4595L38.6642 21.4585C40.021 21.4579 41.2068 21.4395 41.2993 21.4176C41.9886 21.2542 42.2366 20.395 41.7363 19.9034C41.6375 19.8063 41.478 19.7028 41.3818 19.6734C41.1227 19.5941 35.5783 19.6004 35.3596 19.6803ZM18.9122 31.8634C17.2929 32.2228 16.7415 34.3291 17.971 35.4585C18.691 36.1199 19.757 36.1817 20.5419 35.6075C20.8314 35.3957 21.1353 34.9929 21.2605 34.6549C21.3781 34.3373 21.4179 33.7754 21.3452 33.4566C21.1586 32.6384 20.4688 31.9729 19.6726 31.8432C19.3275 31.7869 19.2472 31.7891 18.9122 31.8634ZM26.2804 31.8464C25.9458 31.9032 25.5402 32.1174 25.2533 32.3887C24.4124 33.1842 24.3823 34.5443 25.1875 35.37C26.1164 36.3225 27.6285 36.1752 28.3519 35.0618C29.1496 33.8338 28.4766 32.1684 27.0585 31.8614C26.7358 31.7915 26.6173 31.7893 26.2804 31.8464Z" fill="#5FD3D1"/>
</svg>
