<svg width="25" height="20" viewBox="0 0 25 20" fill="none" xmlns="http://www.w3.org/2000/svg">
<g clip-path="url(#clip0_106:64)">
<path d="M0.0194722 10.0005C0.0194722 9.20853 -0.0293368 8.407 0.029234 7.61502C0.136614 6.12647 0.829703 4.87647 1.86445 3.81731C3.42634 2.2238 5.34942 1.23143 7.49702 0.649368C9.65438 0.0673073 11.8605 -0.104448 14.096 0.0673073C16.0679 0.219979 17.9714 0.639826 19.7579 1.46998C21.2905 2.18563 22.6571 3.13028 23.7016 4.48525C24.5509 5.59212 25.0097 6.83257 24.9999 8.2257C24.9902 9.37074 24.9804 10.5158 24.9999 11.6608C25.039 13.4452 24.3557 14.9337 23.1159 16.1933C21.5247 17.8249 19.5431 18.8173 17.3369 19.3994C15.0527 20.0005 12.7294 20.1341 10.3768 19.886C8.59034 19.6952 6.87226 19.2944 5.2518 18.531C3.58253 17.7486 2.1085 16.7085 1.05422 15.1723C0.351374 14.1608 -0.00981322 13.0444 -5.14066e-05 11.8135C0.0097104 11.2123 -5.14066e-05 10.6017 -5.14066e-05 10.0005C0.0097104 10.0005 0.00971041 10.0005 0.0194722 10.0005ZM12.9051 0.935628C10.6306 0.935628 8.94177 1.17418 7.15536 1.75624C5.43728 2.31922 3.87539 3.13983 2.60635 4.42799C0.595419 6.46044 0.458754 9.21807 2.26469 11.3841C3.19206 12.5005 4.39276 13.2639 5.71061 13.865C7.55559 14.7047 9.50795 15.115 11.5286 15.22C14.057 15.3536 16.5072 15.0196 18.85 14.0559C20.3045 13.4547 21.6419 12.6532 22.6766 11.4509C24.3752 9.4757 24.4435 6.99479 22.8426 4.9528C22.0031 3.8841 20.9 3.13028 19.6895 2.5196C17.4345 1.39364 15.0136 0.954712 12.9051 0.935628ZM0.985892 11.3173C0.946844 11.928 0.995653 12.5005 1.15184 13.0635C1.5716 14.6284 2.57707 15.7734 3.89491 16.6799C5.91561 18.054 8.20963 18.7028 10.6306 18.97C12.4853 19.1799 14.3303 19.0749 16.1557 18.6837C17.9031 18.3116 19.5529 17.72 21.0367 16.7085C22.2764 15.8593 23.2623 14.8097 23.7407 13.3688C23.9652 12.7104 24.0433 12.033 23.9945 11.2887C23.7016 11.699 23.4283 12.0616 23.1062 12.386C21.7883 13.7219 20.2069 14.657 18.4107 15.2486C14.9746 16.3841 11.4798 16.4795 7.95582 15.6494C5.16395 14.9814 2.74302 13.6837 0.985892 11.3173Z" fill="#A2B0BA"/>
<path d="M15.7848 12.7289C15.3846 12.7289 15.0332 12.5857 14.7501 12.3186C14.1839 11.7747 13.6177 11.2212 13.0613 10.6678C12.827 10.4388 12.8172 10.143 13.0222 9.95215C13.2272 9.75177 13.5103 9.77085 13.7544 9.99986C14.262 10.496 14.7696 10.9922 15.2772 11.4789C15.326 11.5266 15.3748 11.5838 15.4334 11.6315C15.6579 11.8224 15.941 11.8319 16.1362 11.6411C16.3315 11.4502 16.3217 11.1831 16.1167 10.9541C16.0777 10.9159 16.0386 10.8777 15.9996 10.83C13.8813 8.77849 11.7825 6.71742 9.67392 4.65635C9.6544 4.63727 9.62511 4.60864 9.60559 4.58956C9.36154 4.36055 9.06869 4.34147 8.87345 4.54185C8.66846 4.74223 8.67822 5.02849 8.9125 5.2575C9.30297 5.64872 9.70321 6.0304 10.1034 6.42162C10.2596 6.57429 10.4256 6.7365 10.5818 6.89872C10.7868 7.11818 10.7868 7.3949 10.6013 7.58574C10.4158 7.77658 10.1132 7.77658 9.89844 7.5762C9.30297 7.00368 8.69774 6.43116 8.12179 5.83956C7.5849 5.28612 7.62394 4.40826 8.1706 3.87391C8.71726 3.33956 9.59583 3.31093 10.1815 3.81666C10.2206 3.85482 10.2694 3.89299 10.3084 3.93116C12.456 6.0304 14.6036 8.13918 16.761 10.2384C17.1808 10.6487 17.3467 11.1354 17.1905 11.6983C17.0148 12.3186 16.4486 12.7289 15.7848 12.7289Z" fill="#A2B0BA"/>
<path d="M8.48301 12.2899C8.04373 12.2804 7.6923 12.1563 7.41897 11.8892C6.51113 11.0113 5.60328 10.1334 4.71495 9.24604C4.13901 8.68306 4.15853 7.79566 4.71495 7.25176C5.28114 6.69833 6.17922 6.6697 6.75517 7.2136C7.68254 8.09146 8.60015 8.98841 9.49824 9.89489C9.93752 10.3338 10.0156 10.8777 9.76181 11.4407C9.508 11.9941 9.03943 12.2613 8.48301 12.2899ZM5.74971 7.77657C5.54471 7.79566 5.39828 7.88153 5.31042 8.06283C5.22257 8.26321 5.27138 8.44451 5.4178 8.58764C6.29637 9.45596 7.18469 10.3147 8.07301 11.1831C8.28777 11.393 8.58063 11.3834 8.7661 11.1926C8.96134 11.0018 8.96134 10.7155 8.74658 10.5151C7.86802 9.65634 6.98945 8.79757 6.11089 7.93879C6.02304 7.83382 5.89613 7.78612 5.74971 7.77657Z" fill="#A2B0BA"/>
<path d="M16.5072 3.89307C16.9465 3.90261 17.2979 4.01711 17.5712 4.28429C18.4791 5.17169 19.3967 6.04956 20.2948 6.9465C20.861 7.50948 20.8317 8.39688 20.2655 8.94078C19.7188 9.47513 18.811 9.50375 18.2448 8.9694C17.3174 8.09154 16.3998 7.19459 15.5017 6.2881C15.0625 5.84917 14.9844 5.30528 15.2284 4.7423C15.4822 4.18887 15.941 3.92169 16.5072 3.89307ZM19.7188 7.96749C19.7286 7.76711 19.631 7.63353 19.5138 7.51902C18.9281 6.9465 18.3424 6.37398 17.7567 5.80146C17.4834 5.53429 17.2101 5.25757 16.927 4.99039C16.7708 4.84726 16.5951 4.79955 16.3901 4.87589C16.2046 4.95223 16.107 5.08581 16.0874 5.27665C16.0679 5.44841 16.1558 5.582 16.2729 5.6965C17.132 6.5362 17.991 7.37589 18.8403 8.20604C18.8793 8.24421 18.9184 8.28238 18.9672 8.31101C19.1234 8.40643 19.2893 8.41597 19.4553 8.33009C19.631 8.2633 19.7091 8.12017 19.7188 7.96749Z" fill="#A2B0BA"/>
<path d="M11.8118 9.23645C11.5482 9.24599 11.3334 9.04561 11.3139 8.78797C11.3042 8.5208 11.5189 8.29179 11.7922 8.29179C12.0558 8.28225 12.2901 8.51126 12.2901 8.76889C12.2901 9.02652 12.0753 9.23645 11.8118 9.23645Z" fill="#A2B0BA"/>
<path d="M11.9192 13.4923C11.6361 13.4923 11.4213 13.2919 11.4213 13.0152C11.4213 12.7671 11.6458 12.5476 11.8997 12.5381C12.1535 12.5381 12.3877 12.748 12.3975 12.9961C12.4073 13.2728 12.2023 13.4827 11.9192 13.4923Z" fill="#A2B0BA"/>
<path d="M13.9301 3.42539C13.9301 3.69257 13.7348 3.89295 13.4615 3.90249C13.1882 3.91203 12.9734 3.72119 12.9734 3.45402C12.9636 3.1773 13.1784 2.95783 13.4517 2.95783C13.7153 2.94829 13.9203 3.15821 13.9301 3.42539Z" fill="#A2B0BA"/>
<path d="M5.73017 4.57036C5.73017 4.83754 5.53493 5.03792 5.2616 5.04746C4.98827 5.057 4.78328 4.85662 4.77351 4.58944C4.76375 4.31273 4.97851 4.09326 5.25184 4.09326C5.51541 4.09326 5.73017 4.30319 5.73017 4.57036Z" fill="#A2B0BA"/>
<path d="M19.4455 11.4884C19.1624 11.4884 18.9574 11.2785 18.9672 11.0018C18.977 10.7442 19.2015 10.5342 19.4553 10.5438C19.7188 10.5438 19.9336 10.7632 19.9336 11.0209C19.9336 11.2881 19.7286 11.4884 19.4455 11.4884Z" fill="#A2B0BA"/>
</g>
<defs>
<clipPath id="clip0_106:64">
<rect width="25" height="20" fill="white"/>
</clipPath>
</defs>
</svg>
