<svg width="41" height="29" viewBox="0 0 41 29" fill="none" xmlns="http://www.w3.org/2000/svg">
<g clip-path="url(#clip0_120:1372)">
<path d="M41 13.9474C41 13.5623 40.9173 13.2442 40.7024 12.926C38.8343 9.97914 36.9496 7.049 35.098 4.10212C34.85 3.70027 34.5524 3.53284 34.0895 3.53284C31.6758 3.54958 29.2621 3.53284 26.8649 3.54958H25.129C25.129 3.54958 25.1125 10.1298 25.129 15.1697C25.129 15.5213 25.0298 15.605 24.6992 15.605C20.8637 15.5883 17.0448 15.605 13.2093 15.605C9.39032 15.605 5.5879 15.605 1.76895 15.605C1.42177 15.605 1.30605 15.5548 1.30605 15.1697C1.32258 10.1466 1.32258 11.1847 1.32258 6.16159C1.32258 5.27418 1.68629 4.92256 2.54597 4.92256C5.6375 4.92256 5.60444 3.58307 2.49637 3.58307C0.942339 3.58307 0 4.5542 0 6.14485C0 10.1131 0 8.00339 0 11.9716C0 16.0069 0 20.0421 0 24.0605C0 24.7638 0.214919 24.9814 0.909274 24.9814C1.60363 24.9814 2.31452 24.9982 3.00887 24.9814C3.25686 24.9814 3.33952 25.0484 3.40565 25.3163C3.90161 27.5097 5.75323 28.9999 7.91895 28.9999C10.0847 28.9999 11.9363 27.5097 12.4323 25.3163C12.4984 25.0149 12.6306 24.9814 12.8786 24.9814C17.954 24.9814 23.0129 24.9814 28.0883 24.9814C28.3694 24.9814 28.4851 25.0317 28.5512 25.3331C29.0306 27.426 30.8161 28.9329 32.8827 28.9999C35.1476 29.0669 37.0653 27.5767 37.5778 25.3331C37.644 25.0484 37.7431 24.9814 38.0077 24.9814C38.702 24.9982 39.3798 24.9814 40.0742 24.9814C40.8016 24.9814 41 24.7805 41 24.0438C41 20.6783 41 17.3129 41 13.9474ZM7.91895 27.6604C6.1004 27.6604 4.6125 26.1368 4.62903 24.295C4.64556 22.4699 6.11694 20.9797 7.93548 20.9797C9.75403 20.9797 11.2585 22.4866 11.2419 24.3284C11.2254 26.1535 9.75403 27.6604 7.91895 27.6604ZM25.129 23.2569C25.129 23.575 25.0464 23.642 24.7323 23.642C20.7811 23.6252 16.8298 23.6252 12.8786 23.642C12.581 23.642 12.4984 23.5582 12.4323 23.2736C11.9363 21.0969 10.0681 19.6067 7.88589 19.6235C5.73669 19.6402 3.90161 21.1472 3.40565 23.3071C3.33952 23.575 3.27339 23.6587 3.00887 23.642C2.54597 23.6252 2.06653 23.6252 1.60363 23.642C1.37218 23.6587 1.30605 23.575 1.30605 23.3406C1.32258 21.3146 1.32258 19.2886 1.30605 17.2794C1.30605 16.9278 1.47137 16.9445 1.70282 16.9445C4.54637 16.9445 7.37339 16.9445 10.2169 16.9445C11.2089 16.9445 12.2008 16.9445 13.1927 16.9445C17.0282 16.9445 20.8472 16.9445 24.6827 16.9278C25.0629 16.9278 25.129 17.045 25.129 17.3966C25.1125 19.3388 25.129 21.2978 25.129 23.2569ZM34.9988 6.89831C35.1641 6.89831 35.3129 6.89831 35.4286 7.08249C36.6355 9.00801 37.8589 10.9335 39.1319 12.926C38.9169 12.926 38.7847 12.926 38.6524 12.926C35.8419 12.926 33.0315 12.9093 30.221 12.9428C29.8242 12.9428 29.7581 12.8256 29.7581 12.4572C29.7746 10.7326 29.7746 8.99127 29.7581 7.26667C29.7581 6.96528 29.8407 6.89831 30.1218 6.89831C31.7419 6.89831 33.3786 6.89831 34.9988 6.89831ZM33.0315 27.6604C31.2129 27.6437 29.7415 26.12 29.7581 24.2782C29.7746 22.4364 31.279 20.9462 33.1141 20.9797C34.9161 20.9965 36.3875 22.5201 36.371 24.3452C36.3544 26.1702 34.8665 27.6604 33.0315 27.6604ZM39.6774 17.497C39.6774 18.2672 39.6774 18.2672 38.9004 18.2672C38.702 18.2672 38.4871 18.284 38.2887 18.2672C37.9415 18.2338 37.677 17.9324 37.6935 17.5975C37.7101 17.2291 37.925 16.9947 38.2722 16.9612C38.669 16.9278 39.0657 16.9612 39.4625 16.9445C39.6278 16.9445 39.6774 17.0282 39.6609 17.1789C39.6774 17.2794 39.6774 17.3966 39.6774 17.497ZM38.7516 15.5883C38.0738 15.5715 37.4621 15.6552 36.9661 16.1743C36.3875 16.7771 36.2056 17.497 36.4867 18.284C36.7843 19.0877 37.3794 19.5398 38.2391 19.6067C38.6194 19.6402 39.0161 19.6235 39.3964 19.6067C39.6113 19.59 39.6774 19.6737 39.6774 19.8914C39.6609 21.0467 39.6774 22.202 39.6774 23.3573C39.6774 23.5582 39.6113 23.6252 39.4129 23.6252C38.9335 23.6085 38.454 23.6085 37.9746 23.6252C37.7266 23.642 37.644 23.5582 37.5778 23.2903C37.0653 21.0299 35.1641 19.5398 32.8992 19.6067C30.8161 19.657 29.0306 21.1639 28.5512 23.2903C28.4851 23.5582 28.4024 23.6252 28.1544 23.6252C27.6915 23.6085 27.2121 23.6085 26.7492 23.6252C26.5177 23.642 26.4185 23.5582 26.4516 23.3238C26.4516 23.2736 26.4516 23.2066 26.4516 23.1564C26.4516 17.2124 26.4516 11.2684 26.4351 5.32441C26.4351 4.95605 26.5177 4.85558 26.8815 4.87233C29.0637 4.88907 31.2625 4.90582 33.4448 4.87233C33.9407 4.87233 34.2052 5.03977 34.3706 5.55882C32.9653 5.55882 31.6097 5.55882 30.254 5.55882C29.8738 5.55882 29.477 5.54207 29.0968 5.55882C28.6835 5.57556 28.419 5.82672 28.419 6.24531C28.419 8.68988 28.419 11.1345 28.419 13.5623C28.419 14.0144 28.7 14.2488 29.1794 14.2488C30.469 14.2488 31.775 14.2488 33.0645 14.2488C35.131 14.2488 37.1976 14.2655 39.2641 14.232C39.5948 14.232 39.6774 14.3325 39.6609 14.6506C39.6609 15.605 39.6774 15.6217 38.7516 15.5883Z" fill="#5FD3D1"/>
<path d="M19.8387 18.284C20.6818 18.284 21.5085 18.284 22.3516 18.284C22.8476 18.284 23.1451 18.5351 23.1451 18.937C23.1617 19.3556 22.8476 19.6235 22.3351 19.6235C20.6653 19.6235 19.0121 19.6235 17.3423 19.6235C16.8298 19.6235 16.5157 19.3723 16.5322 18.9537C16.5322 18.5351 16.8298 18.284 17.3589 18.284C18.1855 18.2672 19.0121 18.284 19.8387 18.284Z" fill="#5FD3D1"/>
<path d="M21.5085 21.6327C21.1779 21.6327 20.8472 21.6495 20.5166 21.6327C20.1033 21.616 19.8387 21.3146 19.8387 20.9462C19.8553 20.5779 20.1198 20.31 20.5166 20.31C21.1779 20.2932 21.8391 20.2932 22.4839 20.31C22.8807 20.3267 23.1452 20.6114 23.1287 20.9797C23.1287 21.3481 22.8641 21.6327 22.4674 21.6495C22.1533 21.6327 21.8391 21.6327 21.5085 21.6327Z" fill="#5FD3D1"/>
<path d="M30.0886 15.605C30.4193 15.605 30.7499 15.5882 31.0806 15.605C31.4774 15.6217 31.7419 15.8896 31.7419 16.258C31.7584 16.6431 31.4774 16.9277 31.0641 16.9445C30.4193 16.9612 29.7745 16.9612 29.1298 16.9445C28.7165 16.9445 28.4354 16.6431 28.4354 16.2747C28.4354 15.8896 28.7165 15.6217 29.1298 15.6217C29.4604 15.5882 29.7745 15.605 30.0886 15.605Z" fill="#5FD3D1"/>
<path d="M7.95206 22.3025C9.02666 22.3025 9.9194 23.2234 9.9194 24.3117C9.9194 25.4335 9.01013 26.3377 7.919 26.321C6.8444 26.3042 5.95166 25.4168 5.95166 24.3117C5.95166 23.1899 6.86093 22.2857 7.95206 22.3025ZM7.93553 23.642C7.57182 23.642 7.27424 23.9434 7.27424 24.3117C7.27424 24.6801 7.57182 24.9815 7.93553 24.9815C8.29924 24.9815 8.59682 24.6801 8.59682 24.3117C8.59682 23.9434 8.29924 23.642 7.93553 23.642Z" fill="#5FD3D1"/>
<path d="M35.0484 24.3117C35.0484 25.4335 34.1392 26.3377 33.048 26.3209C31.9734 26.3042 31.0807 25.4 31.0807 24.3117C31.0807 23.2066 31.9734 22.3024 33.0811 22.3024C34.1557 22.3024 35.0484 23.2066 35.0484 24.3117ZM33.7259 24.3117C33.7259 23.9433 33.4283 23.6419 33.0646 23.6419C32.7009 23.6419 32.4033 23.9433 32.4033 24.3117C32.4033 24.68 32.7009 24.9814 33.0646 24.9814C33.4283 24.9647 33.7259 24.6633 33.7259 24.3117Z" fill="#5FD3D1"/>
<path d="M26.4516 3.58319H2.51294V4.87245H26.4516V3.58319Z" fill="#5FD3D1"/>
<path d="M18.8798 4.2194H17.7225V0H26.3854V3.5664H25.2282V1.17206H18.8798V4.2194Z" fill="#5FD3D1"/>
</g>
<defs>
<clipPath id="clip0_120:1372">
<rect width="41" height="29" fill="white"/>
</clipPath>
</defs>
</svg>
