<svg width="27" height="44" viewBox="0 0 27 44" fill="none" xmlns="http://www.w3.org/2000/svg">
<g clip-path="url(#clip0_120:1607)">
<path d="M21.1296 39.1877C20.3675 39.7206 19.6215 40.0987 18.7783 40.2534C18.3891 40.3221 17.9999 40.3393 17.6107 40.3393C14.6107 40.3393 11.6107 40.3221 8.61073 40.3565C7.36208 40.3737 6.21073 40.0643 5.15667 39.3253C5.12424 39.2909 5.07559 39.2737 4.97829 39.2221C5.22154 40.0299 5.44857 40.769 5.82154 41.4393C6.14586 42.0065 6.66478 42.2815 7.281 42.2815C8.04316 42.2815 8.78911 42.2815 9.55127 42.2815C10.1513 42.2815 10.508 42.6081 10.4918 43.1409C10.4918 43.6737 10.1351 44.0002 9.53505 44.0002C8.78911 44.0002 8.04316 44.0174 7.31343 44.0002C5.85397 43.9659 4.7837 43.244 4.16748 41.8346C3.16208 39.5315 2.61073 37.1081 2.36748 34.5987C1.96208 30.4909 2.23775 26.4003 2.74046 22.3096C3.11343 19.3018 3.63235 16.3112 4.21613 13.3549C4.23235 13.3034 4.23235 13.2346 4.23235 13.1831C4.0864 13.1143 4.03775 13.2346 3.95667 13.2862C3.43775 13.6643 2.91884 14.0596 2.39992 14.4378C1.84856 14.8331 1.42694 14.7471 1.05397 14.1799C-1.28116 10.5534 0.291808 4.77838 5.15667 3.85025C7.63775 3.38619 9.74586 4.24556 11.3513 6.35963C11.8215 6.97838 11.7567 7.45963 11.1405 7.9065C10.7188 8.23306 10.2972 8.54244 9.85938 8.869C10.0053 9.0065 10.1188 8.95494 10.2323 8.95494C11.7891 8.95494 13.3459 8.95494 14.8864 8.97213C15.1945 8.97213 15.308 8.85181 15.3567 8.55963C15.7296 5.94713 17.0918 4.17681 19.3945 3.14556C21.4864 2.20025 23.5296 1.18619 25.6053 0.206501C25.7351 0.154939 25.8486 0.0861886 25.9783 0.0518136C26.3513 -0.0513114 26.7242 0.120564 26.9026 0.481501C27.081 0.842439 26.9999 1.32369 26.6756 1.56431C26.5296 1.66744 26.3675 1.75338 26.2053 1.82213C24.0324 2.85338 21.8756 3.88463 19.7026 4.91588C18.1783 5.63775 17.3026 6.89244 16.9945 8.61119C16.9296 8.92056 17.0269 9.0065 17.3188 9.0065C18.2432 8.98931 19.1513 9.0065 20.0756 9.0065C20.7891 9.0065 21.0161 9.19556 21.1783 9.91744C22.0215 13.8534 22.7351 17.8065 23.254 21.8112C23.708 25.3518 24.0323 28.8924 23.8864 32.4674C23.7567 35.6987 23.2378 38.8268 21.9567 41.8002C21.3242 43.2612 20.254 44.0174 18.7459 44.0346C18.1459 44.0346 17.5621 44.0346 16.9621 44.0346C16.4107 44.0346 16.0378 43.6737 16.054 43.1752C16.054 42.6768 16.4269 42.3331 16.9783 42.3159C17.5783 42.3159 18.1945 42.3159 18.7945 42.3159C19.5567 42.2987 20.108 41.9377 20.4323 41.1987C20.708 40.5456 20.9513 39.9096 21.1296 39.1877ZM13.054 38.6034C14.5945 38.6034 16.1351 38.6034 17.6756 38.6034C17.9675 38.6034 18.2756 38.6034 18.5675 38.5346C20.0594 38.1737 21.0648 37.1252 21.8756 35.819C21.9242 35.7331 21.9405 35.5956 21.9567 35.4924C22.1837 33.9971 22.281 32.4846 22.281 30.9549C22.2972 26.2112 21.6323 21.5362 20.8702 16.8784C20.8378 16.6549 20.7405 16.569 20.5296 16.569C18.9567 16.569 17.3675 16.569 15.7945 16.569C15.5675 16.569 15.4864 16.6549 15.454 16.8784C15.1945 18.3393 14.9188 19.8003 14.6432 21.2612C13.8161 25.7299 12.9729 30.1815 12.1459 34.6503C12.0323 35.2346 11.6594 35.5612 11.1891 35.4581C10.7026 35.3549 10.4432 34.9081 10.5567 34.3065C11.6269 28.5487 12.6972 22.7737 13.7837 17.0159C13.8486 16.6721 13.7999 16.569 13.4594 16.569C10.8648 16.5862 8.27019 16.5862 5.67559 16.569C5.3837 16.569 5.2864 16.6549 5.23775 16.9643C4.6864 20.2987 4.21613 23.6331 3.97289 27.0018C3.79451 29.5112 3.76208 32.0377 4.03775 34.5471C4.11884 35.2174 4.1837 35.8878 4.65397 36.4549C5.69181 37.7096 6.84316 38.6378 8.51343 38.6034C10.0378 38.5862 11.5459 38.6034 13.054 38.6034ZM9.87559 14.8846C11.2053 14.8846 12.5188 14.8846 13.8486 14.8846C14.0594 14.8846 14.1891 14.8674 14.2378 14.5924C14.4323 13.4065 14.6594 12.2378 14.8864 11.0518C14.9513 10.7596 14.9026 10.6737 14.6107 10.6737C11.9837 10.6909 9.37289 10.6909 6.74586 10.6737C6.4864 10.6737 6.38911 10.7768 6.34046 11.0174C6.12965 12.169 5.90262 13.3206 5.65938 14.4549C5.59451 14.7815 5.62694 14.8674 5.96748 14.8674C7.281 14.8674 8.57829 14.8846 9.87559 14.8846ZM18.1296 14.8846C18.8107 14.8846 19.508 14.8674 20.1891 14.8846C20.4486 14.8846 20.5134 14.7987 20.4648 14.5409C20.2215 13.3549 19.9783 12.169 19.7513 10.9831C19.7026 10.7424 19.6053 10.6909 19.3945 10.6909C18.5675 10.7081 17.7405 10.7081 16.9296 10.6909C16.7026 10.6909 16.6053 10.7596 16.5567 11.0174C16.3459 12.2034 16.1351 13.3721 15.8918 14.5409C15.8269 14.8674 15.9242 14.9018 16.1837 14.9018C16.8323 14.8674 17.481 14.8846 18.1296 14.8846ZM6.69721 7.23619C6.681 7.23619 6.64857 7.23619 6.63235 7.23619C6.63235 7.68306 6.63235 8.12994 6.63235 8.55963C6.63235 8.67994 6.56748 8.83463 6.69721 8.92056C6.84316 9.0065 6.97289 8.92056 7.10262 8.81744C7.881 8.23306 8.64316 7.64869 9.42154 7.0815C9.61613 6.944 9.63235 6.85806 9.43775 6.68619C8.72424 6.05025 7.91343 5.67213 7.00532 5.50025C6.74586 5.44869 6.681 5.569 6.681 5.82681C6.69721 6.29088 6.69721 6.77213 6.69721 7.23619ZM1.62154 10.3987C1.62154 11.069 1.71884 11.7049 1.96208 12.3237C2.04316 12.5299 2.10802 12.5987 2.30262 12.444C3.081 11.8424 3.85938 11.2581 4.63775 10.6909C4.94586 10.4674 4.83235 10.3471 4.55667 10.244C3.97289 10.0206 3.40532 9.77994 2.82154 9.53931C1.65397 9.05806 1.65397 9.05806 1.62154 10.3987ZM5.01073 7.04713C5.02694 7.04713 5.04316 7.04713 5.07559 7.04713C5.07559 6.669 5.07559 6.30806 5.07559 5.92994C5.07559 5.74088 5.05938 5.63775 4.83235 5.72369C3.95667 6.05025 3.22694 6.58306 2.64316 7.33931C2.52965 7.494 2.52965 7.56275 2.72424 7.64869C3.40532 7.92369 4.0864 8.19869 4.75127 8.47369C4.94586 8.55963 5.01073 8.49088 5.01073 8.28463C5.01073 7.87213 5.01073 7.45963 5.01073 7.04713Z" fill="#5FD3D1"/>
<path d="M13.2975 42.2812C13.7353 42.2812 14.1083 42.6422 14.1245 43.1063C14.1407 43.5703 13.784 43.9828 13.3623 43.9828C12.9083 44 12.5191 43.6047 12.5191 43.1234C12.5029 42.6766 12.8596 42.2812 13.2975 42.2812Z" fill="#5FD3D1"/>
<path d="M20.4812 30.9375C20.4812 31.3672 20.4974 31.7969 20.4812 32.2266C20.4325 33.1719 19.7352 33.9281 18.8433 33.9453C18.065 33.9625 17.2704 33.9625 16.492 33.9453C15.5028 33.9281 14.7893 33.2063 14.7406 32.1406C14.7082 31.3156 14.7082 30.4735 14.7406 29.6485C14.7731 28.6172 15.4704 27.8781 16.4596 27.8438C17.2217 27.8094 18.0001 27.8094 18.7623 27.8438C19.7839 27.8781 20.465 28.6344 20.4812 29.7172C20.4974 30.1469 20.4974 30.5422 20.4812 30.9375C20.4974 30.9375 20.4974 30.9375 20.4812 30.9375ZM18.8758 31.0063C18.8758 30.5938 18.8595 30.25 18.8758 29.9063C18.892 29.6656 18.7947 29.5797 18.5677 29.5797C17.9514 29.5969 17.319 29.5969 16.7028 29.5797C16.4271 29.5797 16.346 29.6828 16.3623 29.9578C16.3785 30.5766 16.3785 31.1953 16.3623 31.7969C16.346 32.175 16.4758 32.261 16.8001 32.2438C17.0758 32.2266 17.3677 32.2438 17.6433 32.2438C18.0325 32.2266 18.5352 32.4156 18.7785 32.175C19.0541 31.8828 18.8271 31.35 18.8758 31.0063Z" fill="#5FD3D1"/>
<path d="M11.4001 22.361C11.3839 22.8251 11.2379 23.2032 10.946 23.5297C10.5568 23.9594 10.1514 24.3891 9.74602 24.8016C9.06494 25.4719 8.17305 25.4719 7.49196 24.7672C7.10278 24.3719 6.71359 23.9594 6.34061 23.5469C5.69196 22.8251 5.69196 21.8797 6.34061 21.175C6.7298 20.7454 7.11899 20.3329 7.50818 19.9375C8.17305 19.2672 9.06494 19.2672 9.7298 19.9375C10.1352 20.35 10.5406 20.7797 10.9298 21.2094C11.2379 21.536 11.3839 21.9313 11.4001 22.361ZM9.69737 22.3954C9.68115 22.3438 9.66494 22.3094 9.63251 22.2751C9.3244 21.9485 9.01629 21.6219 8.7244 21.3125C8.61088 21.1922 8.5298 21.2954 8.46494 21.3641C8.22169 21.6219 7.97845 21.8969 7.71899 22.1547C7.5244 22.3438 7.54061 22.4641 7.73521 22.6188C8.05953 22.8938 8.31899 23.4954 8.6271 23.4438C8.96764 23.3922 9.25953 22.8766 9.56764 22.55C9.61629 22.4985 9.66494 22.4469 9.69737 22.3954Z" fill="#5FD3D1"/>
</g>
<defs>
<clipPath id="clip0_120:1607">
<rect width="27" height="44" fill="white"/>
</clipPath>
</defs>
</svg>
