<svg width="40" height="32" viewBox="0 0 40 32" fill="none" xmlns="http://www.w3.org/2000/svg">
<g clip-path="url(#clip0_120:1580)">
<path d="M0.03118 16.0012C0.03118 14.734 -0.0469145 13.4515 0.0467989 12.1844C0.218607 9.80269 1.32755 7.80269 2.98315 6.10803C5.48218 3.55842 8.5591 1.97063 11.9953 1.03933C15.447 0.108033 18.9769 -0.166776 22.5536 0.108033C25.7086 0.352308 28.7543 1.02406 31.6126 2.35231C34.0648 3.49735 36.2514 5.0088 37.9226 7.17674C39.2815 8.94773 40.0156 10.9325 39.9999 13.1615C39.9843 14.9935 39.9687 16.8256 39.9999 18.6577C40.0624 21.5126 38.9691 23.8943 36.9855 25.9096C34.4396 28.5202 31.269 30.108 27.7391 31.0393C24.0843 32.0012 20.367 32.2149 16.6028 31.818C13.7446 31.5126 10.9956 30.8714 8.40291 29.65C5.73208 28.3981 3.37362 26.734 1.68678 24.276C0.562223 22.6577 -0.0156767 20.8714 -5.78364e-05 18.9019C0.0155611 17.9401 -5.78364e-05 16.963 -5.78364e-05 16.0012C0.0155611 16.0012 0.0155611 16.0012 0.03118 16.0012ZM20.6481 1.49735C17.0089 1.49735 14.3069 1.87903 11.4486 2.81032C8.69967 3.71109 6.20064 5.02406 4.17019 7.08513C0.952695 10.337 0.73403 14.7493 3.62353 18.2149C5.10732 20.0012 7.02845 21.2225 9.137 22.1844C12.089 23.5279 15.2127 24.1844 18.4459 24.3523C22.4912 24.566 26.4115 24.0317 30.16 22.4897C32.4872 21.5279 34.627 20.2454 36.2826 18.3218C39.0003 15.1615 39.1097 11.192 36.5482 7.92483C35.2049 6.2149 33.44 5.0088 31.5033 4.0317C27.8953 2.23017 24.0218 1.52788 20.6481 1.49735ZM1.57745 18.108C1.51498 19.0851 1.59307 20.0012 1.84297 20.9019C2.51458 23.4057 4.12333 25.2378 6.23188 26.6882C9.46499 28.8867 13.1354 29.9248 17.0089 30.3523C19.9765 30.6882 22.9285 30.5202 25.8492 29.8943C28.645 29.2989 31.2846 28.3523 33.6587 26.734C35.6423 25.3752 37.2198 23.6958 37.9851 21.3905C38.3443 20.337 38.4693 19.2531 38.3912 18.0622C37.9226 18.7187 37.4853 19.2989 36.9699 19.818C34.8613 21.9554 32.3311 23.4515 29.4572 24.3981C23.9593 26.2149 18.3678 26.3676 12.7293 25.0393C8.26234 23.9706 4.38885 21.8943 1.57745 18.108Z" fill="#5FD3D1"/>
<path d="M25.2558 20.3664C24.6154 20.3664 24.0531 20.1374 23.6002 19.7099C22.6943 18.8397 21.7884 17.9542 20.8981 17.0687C20.5233 16.7023 20.5077 16.229 20.8357 15.9237C21.1636 15.6031 21.6166 15.6336 22.0071 16C22.8192 16.7939 23.6314 17.5878 24.4436 18.3664C24.5217 18.4428 24.5998 18.5344 24.6935 18.6107C25.0528 18.9161 25.5057 18.9313 25.8181 18.626C26.1305 18.3206 26.1148 17.8932 25.7868 17.5267C25.7244 17.4657 25.6619 17.4046 25.5994 17.3283C22.2101 14.0458 18.8521 10.7481 15.4784 7.45041C15.4471 7.41987 15.4003 7.37407 15.369 7.34354C14.9786 6.97712 14.51 6.94659 14.1976 7.2672C13.8696 7.58781 13.8852 8.04583 14.2601 8.41224C14.8849 9.03819 15.5252 9.64888 16.1656 10.2748C16.4155 10.5191 16.681 10.7787 16.9309 11.0382C17.2589 11.3893 17.2589 11.8321 16.9622 12.1374C16.6654 12.4428 16.1812 12.4428 15.8376 12.1222C14.8849 11.2061 13.9165 10.2901 12.995 9.34354C12.1359 8.45804 12.1984 7.05346 13.0731 6.1985C13.9477 5.34354 15.3534 5.29774 16.2906 6.1069C16.353 6.16796 16.4311 6.22903 16.4936 6.2901C19.9298 9.64888 23.3659 13.0229 26.8177 16.3817C27.4893 17.0382 27.7548 17.8168 27.5049 18.7176C27.2238 19.7099 26.3179 20.3664 25.2558 20.3664Z" fill="#5FD3D1"/>
<path d="M13.5729 19.6642C12.87 19.6489 12.3077 19.4504 11.8704 19.023C10.4179 17.6184 8.96529 16.2138 7.54397 14.794C6.62246 13.8932 6.6537 12.4733 7.54397 11.6031C8.44987 10.7176 9.88681 10.6718 10.8083 11.542C12.2921 12.9466 13.7603 14.3817 15.1972 15.8321C15.9001 16.5344 16.025 17.4046 15.6189 18.3054C15.2129 19.1909 14.4631 19.6184 13.5729 19.6642ZM9.19958 12.4428C8.87158 12.4733 8.6373 12.6107 8.49673 12.9008C8.35616 13.2214 8.43425 13.5115 8.66853 13.7405C10.0742 15.1298 11.4956 16.5039 12.9169 17.8932C13.2605 18.2291 13.7291 18.2138 14.0258 17.9085C14.3382 17.6031 14.3382 17.1451 13.9946 16.8245C12.5889 15.4504 11.1832 14.0764 9.77748 12.7024C9.63691 12.5344 9.43386 12.4581 9.19958 12.4428Z" fill="#5FD3D1"/>
<path d="M26.4115 6.22925C27.1144 6.24452 27.6766 6.42772 28.114 6.8552C29.5665 8.27505 31.0347 9.67963 32.4716 11.1147C33.3775 12.0155 33.3307 13.4354 32.4248 14.3056C31.5501 15.1605 30.0976 15.2063 29.1917 14.3514C27.7079 12.9468 26.2397 11.5117 24.8028 10.0613C24.0999 9.35902 23.975 8.48879 24.3654 7.58803C24.7715 6.70253 25.5056 6.27505 26.4115 6.22925ZM31.5501 12.7483C31.5657 12.4277 31.4096 12.214 31.2221 12.0308C30.285 11.1147 29.3479 10.1987 28.4107 9.28268C27.9734 8.8552 27.5361 8.41245 27.0831 7.98497C26.8332 7.75597 26.5521 7.67963 26.2241 7.80177C25.9273 7.9239 25.7711 8.13765 25.7399 8.44299C25.7087 8.7178 25.8492 8.93154 26.0366 9.11474C27.4111 10.4583 28.7856 11.8018 30.1444 13.13C30.2069 13.1911 30.2694 13.2521 30.3475 13.298C30.5974 13.4506 30.8629 13.4659 31.1284 13.3285C31.4096 13.2216 31.5345 12.9926 31.5501 12.7483Z" fill="#5FD3D1"/>
<path d="M18.8989 14.7788C18.4772 14.794 18.1336 14.4734 18.1023 14.0612C18.0867 13.6337 18.4303 13.2673 18.8676 13.2673C19.2894 13.252 19.6642 13.6185 19.6642 14.0307C19.6642 14.4429 19.3206 14.7788 18.8989 14.7788Z" fill="#5FD3D1"/>
<path d="M19.0707 21.588C18.6178 21.588 18.2742 21.2674 18.2742 20.8246C18.2742 20.4277 18.6334 20.0765 19.0395 20.0613C19.4456 20.0613 19.8204 20.3972 19.8361 20.7941C19.8517 21.2369 19.5237 21.5727 19.0707 21.588Z" fill="#5FD3D1"/>
<path d="M22.2881 5.48102C22.2881 5.9085 21.9757 6.22911 21.5384 6.24438C21.1011 6.25964 20.7575 5.9543 20.7575 5.52682C20.7419 5.08407 21.0855 4.73292 21.5228 4.73292C21.9445 4.71766 22.2725 5.05353 22.2881 5.48102Z" fill="#5FD3D1"/>
<path d="M9.16837 7.31292C9.16837 7.7404 8.85599 8.06101 8.41866 8.07628C7.98133 8.09154 7.65334 7.77093 7.63772 7.34345C7.6221 6.9007 7.96572 6.54956 8.40304 6.54956C8.82475 6.54956 9.16837 6.88544 9.16837 7.31292Z" fill="#5FD3D1"/>
<path d="M31.1129 18.3818C30.66 18.3818 30.332 18.046 30.3476 17.6032C30.3632 17.191 30.7224 16.8551 31.1285 16.8704C31.5502 16.8704 31.8938 17.2215 31.8938 17.6337C31.8938 18.0612 31.5658 18.3818 31.1129 18.3818Z" fill="#5FD3D1"/>
</g>
<defs>
<clipPath id="clip0_120:1580">
<rect width="40" height="32" fill="white"/>
</clipPath>
</defs>
</svg>
