<svg width="94" height="131" viewBox="0 0 94 131" fill="none" xmlns="http://www.w3.org/2000/svg">
<path d="M91.2625 28.4L62.5793 -0.283203H-0.174316V130.757H93.5921V30.7296L91.2625 28.4ZM67.5305 63.1984L64.7638 65.0915C63.8904 65.6735 63.7441 66.6932 64.0356 67.5666L65.492 70.6247C66.074 71.9349 65.2005 73.3914 63.8904 73.5365L60.5418 73.8279C59.6684 73.8279 58.7949 74.7014 58.7949 75.5748L58.5035 78.9234C58.3582 79.9431 57.63 80.6702 56.7566 80.8165V116.78H56.4651L46.5648 89.4069L36.6645 116.78H36.373L36.372 80.9621C35.4986 80.9621 34.6251 80.2339 34.4789 79.069L34.1874 75.7204C34.1874 74.847 33.314 73.9735 32.4405 73.9735L28.9459 73.5368C27.4895 73.3916 26.7623 71.9352 27.3442 70.6251L28.8006 67.5669C29.2374 66.6935 28.9459 65.6738 28.0724 65.0919L25.3058 63.1988C24.1408 62.3253 24.1408 60.7237 25.3058 59.8502L28.0724 57.9571C28.9459 57.3752 29.0921 56.3555 28.8006 55.482L27.3442 52.4239C26.7623 51.1138 27.6357 49.6573 28.9459 49.5122L32.2944 49.2207C33.1679 49.2207 34.0413 48.3472 34.0413 47.4738L34.3328 44.1253C34.478 42.6688 35.9344 41.9417 37.2445 42.5236L40.3026 43.98C41.1761 44.4168 42.1958 44.1253 42.7777 43.2518L44.6708 40.4852C45.5443 39.3202 47.1459 39.3202 48.0194 40.4852L49.9125 43.2518C50.4944 44.1253 51.5141 44.2715 52.3876 43.98L55.4457 42.5236C56.7558 41.9417 58.2123 42.8151 58.3574 44.1253L58.6489 47.4738C58.6489 48.3472 59.5223 49.2207 60.3958 49.2207L63.7443 49.6574C65.2007 49.8026 65.9279 51.2591 65.346 52.5692L63.8896 55.6273C63.4528 56.5007 63.7443 57.5204 64.6178 58.1024L67.3844 59.9955C68.6956 60.7237 68.6956 62.4705 67.5307 63.1987L67.5305 63.1984ZM61.5606 32.768L62.8708 5.104L88.9332 31.1664L61.5606 32.768Z" fill="#D3DCEB"/>
</svg>
