<svg width="15" height="15" viewBox="0 0 15 15" fill="none" xmlns="http://www.w3.org/2000/svg">
<path d="M8.32819 7.501L14.8279 1.00127C15.0567 0.772428 15.0567 0.401413 14.8279 0.172605C14.5991 -0.0562035 14.228 -0.0562328 13.9992 0.172605L7.4995 6.67234L0.9998 0.172605C0.770963 -0.0562328 0.399948 -0.0562328 0.17114 0.172605C-0.0576684 0.401442 -0.0576977 0.772457 0.17114 1.00127L6.67084 7.50097L0.17114 14.0007C-0.0576977 14.2295 -0.0576977 14.6006 0.17114 14.8294C0.285544 14.9438 0.435514 15.001 0.585485 15.001C0.735455 15.001 0.885396 14.9438 0.99983 14.8294L7.4995 8.32966L13.9992 14.8294C14.1136 14.9438 14.2636 15.001 14.4136 15.001C14.5635 15.001 14.7135 14.9438 14.8279 14.8294C15.0567 14.6005 15.0567 14.2295 14.8279 14.0007L8.32819 7.501Z" fill="#234051"/>
</svg>
