<svg width="177" height="117" viewBox="0 0 177 117" fill="none" xmlns="http://www.w3.org/2000/svg">
<path d="M88.6872 82.5347C85.3507 82.5347 82.1976 81.9731 79.0461 80.6618L34.9209 63.811V91.5219C34.9209 95.0797 36.9604 98.2624 40.2968 99.5724L81.2702 115.863C86.0903 117.736 91.2812 117.736 96.1026 115.863L137.076 99.5738C140.413 98.2625 142.452 95.0797 142.452 91.5232L142.451 63.811L98.3254 80.85C95.1751 81.9732 92.0221 82.5348 88.6856 82.5348L88.6872 82.5347Z" fill="#C2D6DF"/>
<path d="M174.156 32.1677L94.4343 1.46071C90.7267 -0.0373587 86.6475 -0.0373587 83.1249 1.46071L3.40294 32.1677C-0.119991 33.479 -0.119991 38.5334 3.40294 39.8447L83.1249 70.5517C86.8326 72.0498 90.9117 72.0498 94.4343 70.5517L160.251 45.274V63.8108C157.285 65.3076 155.431 68.1169 155.431 71.6735C155.431 75.0431 157.286 78.0392 160.066 79.5374L155.802 88.8993C154.875 90.959 156.359 93.2054 158.398 93.2054L170.262 93.2067C172.487 93.2067 173.785 90.9603 172.858 88.9006L168.594 79.5387C171.374 78.0407 173.229 75.0447 173.229 71.6748C173.229 68.3048 171.374 65.309 168.594 63.8108V42.0909L174.156 40.0312C177.679 38.5331 177.679 33.4772 174.156 32.1672L174.156 32.1677Z" fill="#C2D6DF"/>
</svg>
