<svg width="132" height="133" viewBox="0 0 132 133" fill="none" xmlns="http://www.w3.org/2000/svg">
<path fill-rule="evenodd" clip-rule="evenodd" d="M65.7471 0.99411C29.3781 0.99411 -0.279053 30.6418 -0.279053 67.0535C-0.279053 103.465 29.3781 133.149 65.7471 133.149C102.116 133.149 131.714 103.465 131.714 67.0535C131.714 30.6418 102.116 0.99411 65.7471 0.99411ZM65.6537 24.9336C67.2774 24.9145 68.839 25.555 69.9826 26.7091C71.1264 27.8633 71.754 29.4317 71.7218 31.0566V64.5676L93.9455 86.8189C95.1114 87.9329 95.7801 89.4712 95.8002 91.0847C95.8213 92.6984 95.1927 94.2529 94.056 95.3969C92.9193 96.541 91.3699 97.1795 89.7582 97.1674C88.1465 97.1563 86.6071 96.4948 85.4876 95.3346L61.4945 71.3006C60.3619 70.1776 59.7202 68.6503 59.7142 67.0538V31.0565C59.6831 29.4539 60.2936 27.9057 61.4082 26.7554C62.5238 25.6052 64.0531 24.9497 65.6538 24.9337L65.6537 24.9336Z" fill="#D3DCEB"/>
</svg>
