<svg width="130" height="28" viewBox="0 0 130 28" fill="none" xmlns="http://www.w3.org/2000/svg">
<path d="M7.78173 26.7256C7.78173 26.7256 7.67859 27.529 6.96843 27.8521C6.25826 28.1752 5.81777 27.9059 5.44388 27.6227L1.61157 24.7592C1.61157 24.7592 0.0816502 23.273 0.0247081 22.1821C-0.0311597 21.0912 0.0247081 7.24408 0.0247081 7.24408C0.0657686 6.5198 0.337673 5.82787 0.800411 5.27008C1.58578 4.30516 3.50677 2.82439 3.50677 2.82439L6.14008 0.747001C6.14008 0.747001 7.29074 -0.0574604 7.76025 0.0093088" fill="white"/>
<path d="M7.75708 21.3769L18.7802 14.6192C18.7802 14.6192 20.4939 13.6694 20.4144 11.2721C20.3359 8.87382 20.6077 7.48782 20.0448 6.46582L14.1002 10.0154L7.75708 13.9461V21.3769Z" fill="white"/>
<path d="M7.74841 6.74576L14.1001 10.0153L20.0436 6.46684C19.8619 6.15099 19.6357 5.86301 19.3721 5.61176C18.9585 5.23053 18.1216 4.80838 17.767 4.61776C17.4125 4.42607 9.28585 0.440381 9.28585 0.440381C9.28585 0.440381 8.42527 -0.0377727 7.74841 -8.04365e-05V6.74576Z" fill="white"/>
<path fill-rule="evenodd" clip-rule="evenodd" d="M36.8567 6.59941C36.0337 5.78095 34.7864 5.37064 33.1114 5.37064H27.7771C27.5612 5.37064 27.3474 5.41049 27.1475 5.4891C26.949 5.56745 26.7677 5.68377 26.6135 5.83157C26.4616 5.97679 26.3403 6.15111 26.2569 6.34418C26.1752 6.53695 26.1333 6.74264 26.1333 6.95049V20.468H29.3758V15.0673H33.3478C34.9002 15.0673 36.0874 14.658 36.9093 13.8385C37.7312 12.9586 38.1427 11.759 38.1427 10.2394C38.1363 8.63049 37.7076 7.4168 36.8567 6.59941ZM34.3448 11.8193C33.9795 12.1693 33.3703 12.3448 32.5151 12.3448H29.3672V8.00157H32.701C33.4015 8.00157 33.9645 8.17603 34.3899 8.52711C34.7552 8.93634 34.9378 9.47803 34.9378 10.1511C34.9378 10.9416 34.7402 11.4973 34.3448 11.8203V11.8193ZM43.4652 8.52603C41.7301 8.52603 40.3753 9.06772 39.4019 10.15C38.4575 11.2054 37.9859 12.6679 37.9859 14.5406C37.9859 16.5006 38.4726 18.0083 39.447 19.0616C40.4204 20.1385 41.7752 20.677 43.5103 20.677C44.9414 20.677 46.1286 20.342 47.073 19.669C48.0163 19.026 48.6545 18.0891 48.9907 16.8603H46.7034C46.4058 16.8419 46.11 16.9189 45.8589 17.08C45.7161 17.1655 45.5977 17.2864 45.5151 17.4311L45.268 17.6788C45.1962 17.7465 45.1098 17.7966 45.0155 17.8253C44.6076 18.0401 44.1514 18.1458 43.6908 18.1322C42.9001 18.1322 42.3059 17.8974 41.9106 17.43C41.484 16.9906 41.2552 16.3176 41.2262 15.4108H49.1261C49.1632 15.313 49.179 15.2083 49.1723 15.1039V14.629C49.1723 12.698 48.6845 11.1903 47.7112 10.107C46.7066 9.05372 45.2917 8.52603 43.4641 8.52603H43.4652ZM41.2273 13.4422C41.2574 12.6819 41.4851 12.095 41.9116 11.6825C42.1276 11.4779 42.3844 11.3174 42.668 11.2119C42.9515 11.106 43.2531 11.0569 43.5555 11.0676C44.286 11.0676 44.849 11.2722 45.2444 11.6814C45.6097 12.0626 45.8213 12.6496 45.8826 13.4422H41.2273ZM56.0677 8.78987C55.2594 8.78707 54.4541 8.88878 53.6718 9.09249C52.9375 9.2769 52.2467 9.60481 51.6391 10.0574C51.0117 10.549 50.5171 11.1902 50.2005 11.9226C49.8502 12.698 49.674 13.6565 49.674 14.798V20.4594H52.8757V14.447C52.8757 13.5671 53.0884 12.9231 53.5139 12.515C53.9404 12.1079 54.5958 11.9043 55.48 11.9065H56.5307V8.78987H56.0677ZM62.1454 9.4931H60.1826V8.70157C60.1826 8.35049 60.2578 8.11572 60.4114 7.99941C60.594 7.8831 60.8992 7.82387 61.3257 7.8228H62.1476V5.41049C61.8904 5.37714 61.6312 5.36275 61.3719 5.36741C61.1298 5.33417 60.8856 5.31905 60.6413 5.32218C59.3929 5.32218 58.4947 5.57095 57.9478 6.06849C57.3698 6.59618 57.0808 7.38557 57.0808 8.4388V20.4637H60.1858V11.6416H60.6424C60.843 11.6396 61.0413 11.5994 61.2269 11.5231C61.4116 11.4466 61.5793 11.3357 61.72 11.1968C61.8597 11.059 61.9703 10.8953 62.0434 10.7143C62.1186 10.5345 62.154 10.3428 62.1508 10.149L62.1454 9.49203V9.4931ZM69.7198 8.87926C68.7153 8.5271 67.5893 8.43234 66.3398 8.5928C65.1638 8.71698 64.0748 9.27142 63.2811 10.15C62.7753 10.715 62.4097 11.3917 62.2142 12.1251C61.9884 12.8946 61.8726 13.6923 61.8704 14.4943C61.8678 15.4388 62.0068 16.3784 62.283 17.2814C62.5174 18.1128 62.9953 18.8545 63.655 19.4105C64.2641 19.9382 65.0774 20.3108 66.0938 20.5305C67.0968 20.7499 68.1375 20.727 69.13 20.4637C70.2549 20.23 71.1842 19.6302 71.9148 18.6653C72.2769 18.1376 72.554 17.5603 72.7356 16.953C72.9645 16.1668 73.0719 15.3548 73.0558 14.5396C73.0558 13.2516 72.7979 12.1273 72.2801 11.1666C71.7542 10.1005 70.8365 9.28025 69.7198 8.87818V8.87926ZM69.3503 17.1285C68.985 17.6562 68.567 17.9846 68.0943 18.116C67.6372 18.2485 67.15 18.2334 66.7019 18.073C66.2453 17.9114 65.9251 17.7165 65.7425 17.485C65.2869 16.9583 65.028 16.03 64.9668 14.699C64.9055 13.369 65.1988 12.3642 65.8445 11.6868C66.1325 11.4434 66.4774 11.27 66.8491 11.1828C67.298 11.0504 67.7765 11.0579 68.2211 11.2043C68.6777 11.3508 69.0806 11.6868 69.4319 12.2134C69.7821 12.739 69.9573 13.5294 69.9573 14.5826C69.9207 15.7543 69.7188 16.603 69.3503 17.1285ZM89.901 9.53295C88.7843 8.86307 87.5054 8.51398 86.204 8.52387C85.5491 8.55127 84.8989 8.64691 84.2637 8.80926C83.6699 8.95571 83.1163 9.23353 82.6435 9.62234C82.1104 9.19008 81.4839 8.88877 80.8139 8.74249C80.139 8.59533 79.4503 8.52132 78.7597 8.52172C77.4896 8.56829 76.2538 8.94657 75.1745 9.61911C74.0936 10.2922 73.5532 11.6243 73.5543 13.6145V20.4605H76.756V13.0039C76.756 12.3017 76.9676 11.7891 77.3941 11.4671C77.8139 11.1475 78.3282 10.9776 78.8553 10.9846C79.3925 10.9803 79.9157 11.1505 80.3401 11.4671C80.7806 11.7902 81.0019 12.3017 81.0019 13.0039V20.4648H84.152V13.0039C84.152 12.3017 84.3722 11.7891 84.8138 11.4671C85.2393 11.1526 85.7614 10.9825 86.2964 10.9825C86.8336 10.9825 87.3558 11.1526 87.7812 11.4671C88.2217 11.7902 88.4431 12.3017 88.4431 13.0039V18.9722C88.4338 19.1709 88.4675 19.3693 88.5419 19.5537C88.6171 19.74 88.731 19.908 88.8771 20.0491C89.0232 20.1891 89.1983 20.299 89.3907 20.37C89.584 20.4422 89.7893 20.4745 89.9955 20.4648H91.5931V13.6177C91.5931 11.5716 91.028 10.2093 89.901 9.53295ZM100.902 9.36064C100.049 8.80603 98.7711 8.5271 97.066 8.52603C95.5426 8.52603 94.3693 8.8631 93.5507 9.53511C93.2002 9.80455 92.9067 10.1412 92.6872 10.5253C92.4677 10.9095 92.3266 11.3336 92.2721 11.773H95.3309C95.3986 11.6211 95.4985 11.4833 95.6242 11.3702C95.7499 11.2571 95.8982 11.1699 96.0604 11.115C96.4286 10.9928 96.8147 10.9334 97.2025 10.9394C97.643 10.9491 98.0813 11.018 98.5025 11.1462C98.9741 11.2776 99.2094 11.563 99.2094 12.0023C99.2094 12.5893 98.5401 12.9694 97.2003 13.1439C96.9552 13.1683 96.7114 13.2046 96.4697 13.2526C96.2905 13.2928 96.1076 13.3152 95.924 13.3194C94.7711 13.4896 93.8203 13.8396 93.0704 14.3716C92.3205 14.9036 91.9477 15.7834 91.9509 17.0122C91.9509 18.3282 92.3624 19.2716 93.1843 19.8423C94.0245 20.411 95.0333 20.7039 96.0604 20.678C96.6943 20.6726 97.326 20.636 97.9556 20.5682C98.6626 20.4989 99.3509 20.3 99.9862 19.9813C100.631 19.6574 101.176 19.1643 101.563 18.5543C102.004 17.8974 102.224 16.982 102.224 15.8103V11.8193C102.242 11.3329 102.13 10.8506 101.899 10.4225C101.667 9.99172 101.323 9.62557 100.902 9.36064ZM99.2578 15.6822C99.2578 16.5006 99.015 17.1446 98.5283 17.6131C98.0416 18.0816 97.3722 18.3153 96.5192 18.3153C96.0013 18.3153 95.6059 18.199 95.332 17.9653C95.1923 17.8253 95.0849 17.6605 95.014 17.4796C94.9431 17.2991 94.9113 17.1057 94.9205 16.912C94.928 16.5674 95.0387 16.2325 95.2407 15.9471C95.4845 15.7134 95.8799 15.5228 96.4278 15.3763L97.4786 15.1566C98.09 15.0297 98.6864 14.8383 99.2578 14.5859V15.6811V15.6822ZM111.819 9.53295C110.702 8.86274 109.422 8.51364 108.12 8.52387C106.85 8.57017 105.615 8.94807 104.535 9.62018C103.454 10.2943 102.914 11.6254 102.915 13.6156V20.4616H106.117V13.0028C106.117 12.3006 106.328 11.788 106.755 11.466C107.175 11.1465 107.69 10.9771 108.217 10.9846C108.754 10.9814 109.277 11.1505 109.702 11.4671C110.135 11.7891 110.352 12.3006 110.352 13.0028V18.9711C110.344 19.1709 110.379 19.3701 110.453 19.5556C110.528 19.741 110.641 19.9085 110.785 20.047C110.931 20.187 111.106 20.2968 111.298 20.369C111.491 20.4411 111.697 20.4734 111.903 20.4637H113.502V13.6166C113.506 11.5705 112.945 10.2082 111.819 9.53187V9.53295ZM117.408 17.4376V10.9416H117.729C117.93 10.9448 118.131 10.9093 118.319 10.8393C118.507 10.7671 118.679 10.6605 118.824 10.5248C118.975 10.387 119.094 10.22 119.172 10.0348C119.252 9.84957 119.289 9.65034 119.282 9.45003V8.83403H117.408V6.86003C117.411 6.66198 117.371 6.46565 117.293 6.28406C117.214 6.10248 117.097 5.93979 116.951 5.8068C116.815 5.66806 116.653 5.55817 116.474 5.48372C116.292 5.40778 116.098 5.36826 115.901 5.36741H114.258V18.2722C114.258 19.6183 114.844 20.3356 116.015 20.4239C117.101 20.51 118.193 20.5251 119.28 20.467V18.186H118.323C117.713 18.186 117.408 17.9362 117.408 17.4376ZM128.535 10.1037C127.531 9.05157 126.115 8.52495 124.289 8.52495C122.554 8.52495 121.199 9.06664 120.225 10.149C119.284 11.2043 118.814 12.669 118.814 14.5406C118.814 16.5006 119.301 18.0083 120.276 19.0616C121.249 20.1385 122.603 20.677 124.339 20.677C125.769 20.677 126.957 20.342 127.901 19.669C128.844 19.026 129.483 18.0891 129.819 16.8603H127.532C127.235 16.8419 126.939 16.9189 126.688 17.08C126.545 17.1653 126.427 17.2863 126.345 17.4311L126.094 17.6734C126.022 17.7409 125.936 17.791 125.842 17.8199C125.434 18.0341 124.978 18.1395 124.518 18.1257C123.726 18.1257 123.133 17.892 122.737 17.4236C122.311 16.9853 122.082 16.3122 122.053 15.4043H129.953C129.99 15.3065 130.005 15.2018 129.998 15.0974V14.629C129.999 12.698 129.513 11.1903 128.54 10.107L128.535 10.1048V10.1037ZM122.056 13.4422C122.085 12.6819 122.313 12.095 122.74 11.6825C122.956 11.4779 123.213 11.3174 123.497 11.2119C123.779 11.1063 124.081 11.0568 124.384 11.0676C125.115 11.0676 125.678 11.2722 126.073 11.6814C126.439 12.0626 126.651 12.6496 126.712 13.4422H122.056Z" fill="white"/>
</svg>
