<svg width="130" height="28" viewBox="0 0 130 28" fill="none" xmlns="http://www.w3.org/2000/svg">
<g clip-path="url(#clip0)">
<path d="M7.78161 26.7256C7.78161 26.7256 7.67847 27.529 6.96831 27.8521C6.25814 28.1752 5.81764 27.9059 5.44376 27.6227L1.61145 24.7592C1.61145 24.7592 0.0815281 23.273 0.024586 22.1821C-0.0312818 21.0912 0.024586 7.24408 0.024586 7.24408C0.0656465 6.5198 0.337551 5.82787 0.800289 5.27008C1.58566 4.30516 3.50665 2.82439 3.50665 2.82439L6.13996 0.747001C6.13996 0.747001 7.29062 -0.0574604 7.76012 0.0093088" fill="#22221F"/>
<path d="M7.75684 21.3769L18.78 14.6192C18.78 14.6192 20.4936 13.6694 20.4141 11.2721C20.3357 8.87382 20.6075 7.48782 20.0445 6.46582L14.1 10.0154L7.75684 13.9461V21.3769Z" fill="#22221F"/>
<path d="M7.74829 6.74576L14.1 10.0153L20.0435 6.46684C19.8618 6.15099 19.6356 5.86301 19.372 5.61176C18.9584 5.23053 18.1214 4.80838 17.7669 4.61776C17.4123 4.42607 9.28573 0.440381 9.28573 0.440381C9.28573 0.440381 8.42515 -0.0377727 7.74829 -8.04365e-05V6.74576Z" fill="#22221F"/>
<path fill-rule="evenodd" clip-rule="evenodd" d="M36.8564 6.59941C36.0335 5.78095 34.7861 5.37064 33.1112 5.37064H27.7769C27.5609 5.37064 27.3471 5.41049 27.1473 5.4891C26.9488 5.56745 26.7674 5.68377 26.6133 5.83157C26.4614 5.97679 26.3401 6.15111 26.2566 6.34418C26.175 6.53695 26.1331 6.74264 26.1331 6.95049V20.468H29.3755V15.0673H33.3475C34.9 15.0673 36.0872 14.658 36.9091 13.8385C37.731 12.9586 38.1425 11.759 38.1425 10.2394C38.136 8.63049 37.7074 7.4168 36.8564 6.59941ZM34.3445 11.8193C33.9793 12.1693 33.3701 12.3448 32.5149 12.3448H29.3669V8.00157H32.7007C33.4012 8.00157 33.9642 8.17603 34.3897 8.52711C34.755 8.93634 34.9376 9.47803 34.9376 10.1511C34.9376 10.9416 34.7399 11.4973 34.3445 11.8203V11.8193ZM43.465 8.52603C41.7298 8.52603 40.375 9.06772 39.4017 10.15C38.4573 11.2054 37.9856 12.6679 37.9856 14.5406C37.9856 16.5006 38.4723 18.0083 39.4468 19.0616C40.4202 20.1385 41.775 20.677 43.5101 20.677C44.9412 20.677 46.1283 20.342 47.0727 19.669C48.016 19.026 48.6542 18.0891 48.9905 16.8603H46.7031C46.4055 16.8419 46.1098 16.9189 45.8587 17.08C45.7159 17.1655 45.5974 17.2864 45.5149 17.4311L45.2678 17.6788C45.196 17.7465 45.1096 17.7966 45.0153 17.8253C44.6074 18.0401 44.1511 18.1458 43.6906 18.1322C42.8998 18.1322 42.3057 17.8974 41.9103 17.43C41.4838 16.9906 41.255 16.3176 41.226 15.4108H49.1259C49.163 15.313 49.1787 15.2083 49.1721 15.1039V14.629C49.1721 12.698 48.6843 11.1903 47.7109 10.107C46.7064 9.05372 45.2914 8.52603 43.4639 8.52603H43.465ZM41.227 13.4422C41.2571 12.6819 41.4849 12.095 41.9114 11.6825C42.1274 11.4779 42.3841 11.3174 42.6678 11.2119C42.9513 11.106 43.2528 11.0569 43.5552 11.0676C44.2858 11.0676 44.8488 11.2722 45.2441 11.6814C45.6094 12.0626 45.8211 12.6496 45.8823 13.4422H41.227ZM56.0674 8.78987C55.2592 8.78707 54.4539 8.88878 53.6716 9.09249C52.9372 9.2769 52.2465 9.60481 51.6388 10.0574C51.0114 10.549 50.5168 11.1902 50.2002 11.9226C49.85 12.698 49.6738 13.6565 49.6738 14.798V20.4594H52.8755V14.447C52.8755 13.5671 53.0882 12.9231 53.5136 12.515C53.9402 12.1079 54.5955 11.9043 55.4798 11.9065H56.5305V8.78987H56.0674ZM62.1452 9.4931H60.1823V8.70157C60.1823 8.35049 60.2575 8.11572 60.4112 7.99941C60.5938 7.8831 60.8989 7.82387 61.3255 7.8228H62.1474V5.41049C61.8902 5.37714 61.6309 5.36275 61.3717 5.36741C61.1296 5.33417 60.8854 5.31905 60.6411 5.32218C59.3926 5.32218 58.4945 5.57095 57.9476 6.06849C57.3696 6.59618 57.0806 7.38557 57.0806 8.4388V20.4637H60.1855V11.6416H60.6422C60.8427 11.6396 61.0411 11.5994 61.2266 11.5231C61.4114 11.4466 61.579 11.3357 61.7198 11.1968C61.8594 11.059 61.9701 10.8953 62.0431 10.7143C62.1184 10.5345 62.1538 10.3428 62.1506 10.149L62.1452 9.49203V9.4931ZM69.7196 8.87926C68.715 8.5271 67.5891 8.43234 66.3396 8.5928C65.1636 8.71698 64.0746 9.27142 63.2808 10.15C62.775 10.715 62.4095 11.3917 62.214 12.1251C61.9881 12.8946 61.8724 13.6923 61.8702 14.4943C61.8675 15.4388 62.0066 16.3784 62.2827 17.2814C62.5171 18.1128 62.9951 18.8545 63.6547 19.4105C64.2639 19.9382 65.0772 20.3108 66.0936 20.5305C67.0966 20.7499 68.1373 20.727 69.1298 20.4637C70.2546 20.23 71.184 19.6302 71.9145 18.6653C72.2766 18.1376 72.5538 17.5603 72.7354 16.953C72.9642 16.1668 73.0717 15.3548 73.0555 14.5396C73.0555 13.2516 72.7977 12.1273 72.2798 11.1666C71.7539 10.1005 70.8362 9.28025 69.7196 8.87818V8.87926ZM69.35 17.1285C68.9847 17.6562 68.5668 17.9846 68.094 18.116C67.6369 18.2485 67.1498 18.2334 66.7017 18.073C66.245 17.9114 65.9249 17.7165 65.7422 17.485C65.2867 16.9583 65.0278 16.03 64.9665 14.699C64.9053 13.369 65.1986 12.3642 65.8443 11.6868C66.1322 11.4434 66.4771 11.27 66.8488 11.1828C67.2978 11.0504 67.7763 11.0579 68.2208 11.2043C68.6774 11.3508 69.0803 11.6868 69.4317 12.2134C69.7819 12.739 69.957 13.5294 69.957 14.5826C69.9205 15.7543 69.7185 16.603 69.35 17.1285ZM89.9007 9.53295C88.7841 8.86307 87.5051 8.51398 86.2038 8.52387C85.5489 8.55127 84.8986 8.64691 84.2635 8.80926C83.6697 8.95571 83.1161 9.23353 82.6433 9.62234C82.1102 9.19008 81.4836 8.88877 80.8136 8.74249C80.1388 8.59533 79.4501 8.52132 78.7594 8.52172C77.4894 8.56829 76.2535 8.94657 75.1742 9.61911C74.0934 10.2922 73.553 11.6243 73.5541 13.6145V20.4605H76.7557V13.0039C76.7557 12.3017 76.9674 11.7891 77.3939 11.4671C77.8136 11.1475 78.3279 10.9776 78.855 10.9846C79.3922 10.9803 79.9155 11.1505 80.3398 11.4671C80.7803 11.7902 81.0017 12.3017 81.0017 13.0039V20.4648H84.1517V13.0039C84.1517 12.3017 84.372 11.7891 84.8136 11.4671C85.239 11.1526 85.7612 10.9825 86.2962 10.9825C86.8334 10.9825 87.3555 11.1526 87.781 11.4671C88.2215 11.7902 88.4428 12.3017 88.4428 13.0039V18.9722C88.4335 19.1709 88.4672 19.3693 88.5417 19.5537C88.6169 19.74 88.7307 19.908 88.8769 20.0491C89.023 20.1891 89.1981 20.299 89.3904 20.37C89.5838 20.4422 89.789 20.4745 89.9953 20.4648H91.5929V13.6177C91.5929 11.5716 91.0278 10.2093 89.9007 9.53295ZM100.901 9.36064C100.048 8.80603 98.7708 8.5271 97.0658 8.52603C95.5423 8.52603 94.3691 8.8631 93.5504 9.53511C93.2 9.80455 92.9064 10.1412 92.687 10.5253C92.4675 10.9095 92.3264 11.3336 92.2719 11.773H95.3307C95.3984 11.6211 95.4983 11.4833 95.624 11.3702C95.7497 11.2571 95.8979 11.1699 96.0602 11.115C96.4284 10.9928 96.8144 10.9334 97.2022 10.9394C97.6427 10.9491 98.0811 11.018 98.5022 11.1462C98.9739 11.2776 99.2092 11.563 99.2092 12.0023C99.2092 12.5893 98.5398 12.9694 97.2001 13.1439C96.955 13.1683 96.7111 13.2046 96.4695 13.2526C96.2902 13.2928 96.1074 13.3152 95.9237 13.3194C94.7709 13.4896 93.8201 13.8396 93.0702 14.3716C92.3203 14.9036 91.9474 15.7834 91.9507 17.0122C91.9507 18.3282 92.3622 19.2716 93.1841 19.8423C94.0242 20.411 95.0331 20.7039 96.0602 20.678C96.6941 20.6726 97.3258 20.636 97.9554 20.5682C98.6624 20.4989 99.3507 20.3 99.986 19.9813C100.631 19.6574 101.176 19.1643 101.563 18.5543C102.004 17.8974 102.224 16.982 102.224 15.8103V11.8193C102.242 11.3329 102.129 10.8506 101.898 10.4225C101.666 9.99172 101.322 9.62557 100.901 9.36064ZM99.2575 15.6822C99.2575 16.5006 99.0147 17.1446 98.528 17.6131C98.0413 18.0816 97.372 18.3153 96.5189 18.3153C96.0011 18.3153 95.6057 18.199 95.3317 17.9653C95.1921 17.8253 95.0846 17.6605 95.0137 17.4796C94.9429 17.2991 94.911 17.1057 94.9202 16.912C94.9278 16.5674 95.0384 16.2325 95.2404 15.9471C95.4843 15.7134 95.8797 15.5228 96.4276 15.3763L97.4784 15.1566C98.0898 15.0297 98.6861 14.8383 99.2575 14.5859V15.6811V15.6822ZM111.819 9.53295C110.702 8.86274 109.422 8.51364 108.12 8.52387C106.85 8.57017 105.614 8.94807 104.535 9.62018C103.454 10.2943 102.914 11.6254 102.915 13.6156V20.4616H106.116V13.0028C106.116 12.3006 106.328 11.788 106.755 11.466C107.175 11.1465 107.689 10.9771 108.217 10.9846C108.754 10.9814 109.277 11.1505 109.702 11.4671C110.135 11.7891 110.352 12.3006 110.352 13.0028V18.9711C110.344 19.1709 110.378 19.3701 110.453 19.5556C110.528 19.741 110.641 19.9085 110.785 20.047C110.931 20.187 111.106 20.2968 111.298 20.369C111.49 20.4411 111.697 20.4734 111.903 20.4637H113.502V13.6166C113.506 11.5705 112.945 10.2082 111.819 9.53187V9.53295ZM117.408 17.4376V10.9416H117.728C117.93 10.9448 118.131 10.9093 118.319 10.8393C118.507 10.7671 118.679 10.6605 118.824 10.5248C118.975 10.387 119.094 10.22 119.172 10.0348C119.252 9.84957 119.288 9.65034 119.282 9.45003V8.83403H117.408V6.86003C117.411 6.66198 117.371 6.46565 117.292 6.28406C117.213 6.10248 117.097 5.93979 116.95 5.8068C116.815 5.66806 116.652 5.55817 116.473 5.48372C116.292 5.40778 116.097 5.36826 115.901 5.36741H114.258V18.2722C114.258 19.6183 114.844 20.3356 116.015 20.4239C117.101 20.51 118.192 20.5251 119.28 20.467V18.186H118.322C117.713 18.186 117.408 17.9362 117.408 17.4376ZM128.534 10.1037C127.531 9.05157 126.115 8.52495 124.288 8.52495C122.553 8.52495 121.199 9.06664 120.225 10.149C119.284 11.2043 118.813 12.669 118.813 14.5406C118.813 16.5006 119.301 18.0083 120.276 19.0616C121.249 20.1385 122.603 20.677 124.339 20.677C125.769 20.677 126.957 20.342 127.9 19.669C128.844 19.026 129.483 18.0891 129.818 16.8603H127.532C127.234 16.8419 126.939 16.9189 126.688 17.08C126.545 17.1653 126.427 17.2863 126.345 17.4311L126.093 17.6734C126.022 17.7409 125.936 17.791 125.842 17.8199C125.434 18.0341 124.978 18.1395 124.517 18.1257C123.725 18.1257 123.132 17.892 122.737 17.4236C122.31 16.9853 122.082 16.3122 122.053 15.4043H129.953C129.989 15.3065 130.005 15.2018 129.998 15.0974V14.629C129.999 12.698 129.513 11.1903 128.54 10.107L128.534 10.1048V10.1037ZM122.056 13.4422C122.085 12.6819 122.313 12.095 122.74 11.6825C122.956 11.4779 123.213 11.3174 123.497 11.2119C123.779 11.1063 124.081 11.0568 124.384 11.0676C125.115 11.0676 125.678 11.2722 126.073 11.6814C126.438 12.0626 126.651 12.6496 126.712 13.4422H122.056Z" fill="#22221F"/>
</g>
<defs>
<clipPath id="clip0">
<rect width="130" height="28" fill="white"/>
</clipPath>
</defs>
</svg>
