<svg width="417" height="86" viewBox="0 0 417 86" fill="none" xmlns="http://www.w3.org/2000/svg">
<path d="M267.11 1.17043C268.129 1.21349 269.147 1.28285 270.167 1.32594L274.992 1.60842C277.94 1.8116 280.886 2.04105 283.775 2.34674C287.041 2.66829 290.356 3.07059 293.5 3.70194C296.272 4.23894 299.041 4.85405 301.756 5.46766C300.37 5.19876 299.038 4.93293 297.652 4.66444C296.212 4.39366 294.826 4.12517 293.385 3.88069C291.944 3.63621 290.503 3.39173 289.005 3.22347C287.723 3.0643 286.438 2.9314 285.154 2.7985L285.261 2.80305C281.354 2.42801 277.388 2.15547 273.418 1.96142C271.542 1.85619 269.664 1.77684 267.786 1.69751L265.908 1.61815C262.955 1.54568 260.057 1.44956 257.104 1.37708C254.419 1.31633 251.682 1.227 248.997 1.16585C247.871 1.11826 246.688 1.12057 245.559 1.12557C239.755 1.11619 233.952 1.08095 228.148 1.04568C227.235 1.03346 226.321 1.04711 225.407 1.06116L217.017 1.17885C212.285 1.2411 207.606 1.30566 202.874 1.36792C198.514 1.52496 194.152 1.70787 189.791 1.89078C186.884 2.00385 183.922 2.14131 181.015 2.25438L178.269 2.37462L177.46 2.41909C168.887 3.07978 160.261 3.71194 151.687 4.37303C151.471 4.38986 151.202 4.4048 150.931 4.44607C161.507 3.6035 172.145 3.02913 182.822 2.72427C186.266 2.63349 189.762 2.57166 193.205 2.50719C194.657 2.48991 196.11 2.44634 197.561 2.45496C199.602 2.4626 201.644 2.49656 203.685 2.5042L222.222 2.65757L224.64 2.68111C224.855 2.66386 225.016 2.67069 225.231 2.67973C227.11 2.73319 228.987 2.81252 230.865 2.89188C237.143 3.13078 243.367 3.39374 249.591 3.6304L253.025 3.77549C254.794 3.90288 256.51 4.00134 258.224 4.12646C264.441 4.54639 270.605 4.93814 276.822 5.35807C277.681 5.39437 278.592 5.45917 279.449 5.52174L283.145 5.83514C289.678 6.39975 296.209 7.01654 302.734 7.76441C315.731 9.2842 328.603 11.1923 340.968 13.682C347.037 14.8723 353.058 16.1764 359.022 17.5927C364.929 18.9965 370.779 20.4762 376.406 22.1308C379.28 22.9643 382.128 23.8368 384.949 24.7476C387.494 25.5632 390.037 26.4314 392.47 27.3739C395.024 28.3376 397.51 29.3793 399.916 30.4952C402.131 31.5067 404.29 32.5686 406.176 33.7239C408.219 34.9641 410.153 36.2787 411.761 37.6585C412.485 38.3185 413.21 38.9786 413.826 39.6604C414.443 40.3163 415.006 40.9954 415.407 41.6685C415.857 42.4746 416.252 43.3043 416.486 44.1272C416.671 44.8175 416.803 45.5311 416.826 46.2401C416.873 47.6849 416.545 49.0876 415.735 50.4435C415.262 51.254 414.69 52.0368 414.024 52.7847C413.459 53.4166 412.842 54.0463 412.119 54.6192C410.673 55.7646 408.961 56.8466 407.144 57.8714C405.107 59.0182 402.913 60.0534 400.507 61.0274C398.256 61.937 395.943 62.7844 393.575 63.5674C388.504 65.2682 383.119 66.772 377.582 68.0855C371.936 69.4211 366.136 70.5662 360.233 71.6283C354.221 72.7121 348.053 73.6844 341.834 74.5759C338.86 75.001 335.832 75.4502 332.807 75.7945C327.136 76.447 321.519 77.1013 315.847 77.7537C313.363 78.0422 310.933 78.3068 308.449 78.5953C307.747 78.6706 307.045 78.7459 306.29 78.8186C296.58 79.6413 286.816 80.4879 277.107 81.3106C276.891 81.3278 276.621 81.3428 276.406 81.3596L274.143 81.5002L265.897 82.0176C259.917 82.368 253.989 82.7473 248.007 83.124C247.145 83.1662 246.282 83.2347 245.42 83.2769C243.804 83.3663 242.135 83.4267 240.52 83.4897C234.185 83.7489 227.85 84.0058 221.515 84.2605C219.147 84.344 216.831 84.4561 214.462 84.5396C213.602 84.5559 212.74 84.5982 211.879 84.6141C206.77 84.6868 201.608 84.7309 196.5 84.8036C191.122 84.865 185.69 84.9504 180.313 85.0117C179.668 85.0108 179.023 85.0095 178.325 85.0064C176.069 84.9637 173.759 84.9448 171.503 84.9017C165.112 84.7893 158.666 84.7006 152.275 84.5878C150.61 84.5697 148.891 84.5235 147.226 84.5058L144.436 84.3879C138.265 84.1531 132.149 83.8947 125.978 83.6603C123.402 83.5515 120.88 83.4713 118.305 83.3624C115.299 83.2614 112.243 83.08 109.241 82.9009C102.431 82.5082 95.6247 82.0629 88.8241 81.4611C82.2909 80.8965 75.7061 80.277 69.1829 79.477C65.8231 79.07 62.4731 78.6223 59.1347 78.134C56.1143 77.6979 53.106 77.2211 50.1119 76.7039C46.9105 76.1488 43.7651 75.5437 40.678 74.8361C37.9625 74.2229 35.2482 73.5838 32.6449 72.8703C29.7763 72.067 26.9626 71.2401 24.2622 70.2866C21.8253 69.4489 19.4977 68.5639 17.2821 67.5782C14.8546 66.505 12.5918 65.3601 10.6032 64.0959C8.82314 62.9714 7.15408 61.7729 5.7563 60.5073C4.25699 59.1061 2.97402 57.6614 2.0706 56.1544C1.21598 54.7541 0.631523 53.3129 0.370586 51.8591C-0.143562 48.7685 0.580058 45.6249 2.53048 42.7171C4.36721 39.9617 7.16379 37.3778 10.6999 35.0878C14.2367 32.7978 18.3544 30.7419 22.7878 28.8574C27.2206 26.972 32.0241 25.2336 36.9802 23.6857C42.1549 22.0684 47.591 20.619 53.0769 19.2507C58.7266 17.837 64.425 16.53 70.174 15.3037C71.854 14.9812 73.4813 14.6305 75.1075 14.3056C75.3787 14.2385 75.6495 14.1972 75.9746 14.1323C76.5854 14.0121 77.1995 13.8982 77.8166 13.7907C83.3959 12.7672 88.974 11.77 94.5532 10.7465L99.4278 9.85088C99.6997 9.78374 100.024 9.74474 100.348 9.70615C101.158 9.60909 101.916 9.48386 102.726 9.38677C108.511 8.58191 114.351 7.7534 120.19 6.95081C121.758 6.7285 123.271 6.5302 124.839 6.30751C125.163 6.26891 125.432 6.25394 125.757 6.21537C126.621 6.12056 127.538 6.02842 128.402 5.93361C134.395 5.29477 140.442 4.65823 146.434 4.01979L151.132 3.51023C151.456 3.47124 151.779 3.45894 152.102 3.44624L154.852 3.24751C160.889 2.82051 166.982 2.36989 173.073 1.94516C174.097 1.88344 175.122 1.79546 176.146 1.73414C176.415 1.71916 176.739 1.68019 177.062 1.66789C178.676 1.63112 180.238 1.56577 181.853 1.5031C187.99 1.26352 194.073 1.04876 200.156 0.807302C201.179 0.771879 202.149 0.707885 203.117 0.696109C205.268 0.682402 207.365 0.639727 209.516 0.625621C215.215 0.577857 220.862 0.501523 226.561 0.453758C227.583 0.444656 228.549 0.45915 229.57 0.476343C232.632 0.500751 235.641 0.52291 238.704 0.546946C241.498 0.560458 244.345 0.601716 247.139 0.615201C247.57 0.607051 248.054 0.601549 248.483 0.619668C249.073 0.644612 249.718 0.64551 250.308 0.670453C255.622 0.842279 260.883 0.985958 266.197 1.15818C266.572 1.17405 266.894 1.18765 267.11 1.17043ZM182.937 5.08994C183.099 5.07044 183.314 5.07951 183.53 5.06269C157.429 5.84853 131.747 8.17351 107.284 12.1764C107.284 12.1752 107.284 12.1741 107.285 12.1729C107.272 12.1759 107.258 12.1753 107.231 12.1742C107.069 12.1933 106.906 12.2391 106.744 12.2586C106.906 12.2391 107.014 12.2173 107.176 12.1978C97.9736 13.7503 88.8712 15.4643 80.1318 17.5081C71.4468 19.5283 63.0724 21.8243 55.167 24.4805C50.2048 26.1595 45.3975 28.0022 41.0124 30.0205C38.7105 31.0775 36.5136 32.1912 34.3693 33.3335C32.4996 34.3302 30.5757 35.3504 28.8097 36.4301C27.7617 37.0679 26.7127 37.7316 25.7706 38.4003C25.2714 38.7727 24.771 39.171 24.2711 39.5434C23.9937 39.7417 23.7168 39.9399 23.4933 40.14C22.8242 40.7152 22.2095 41.2664 21.5416 41.8153C20.4265 42.7648 19.3125 43.6884 18.3572 44.6709C18.7738 43.7183 19.2974 42.7697 19.8749 41.8235C20.1073 41.4134 20.393 41.006 20.6254 40.596C20.9704 40.0597 21.3155 39.5235 21.7143 38.9896C22.6774 37.8233 23.692 36.7124 24.9735 35.6386C26.254 34.5907 27.5871 33.5714 29.1321 32.6137C30.735 31.5799 32.4431 30.5764 34.3095 29.6587C36.0116 28.8126 37.7658 27.9947 39.6266 27.2076C44.2792 25.227 49.2464 23.4169 54.4227 21.747C59.789 20.0306 65.2704 18.4595 70.8534 17.0375C74.9676 15.9918 79.1309 15.0218 83.3383 14.1286C81.9296 14.3843 80.5204 14.6653 79.1123 14.9207C78.5702 15.0291 78.0293 15.1112 77.4872 15.2192C76.675 15.3685 75.861 15.544 75.0477 15.7196C70.641 16.6365 66.2637 17.6059 61.9181 18.6272C57.4391 19.6865 53.0012 20.8109 48.6076 21.9998C44.4753 23.1104 40.5023 24.2803 36.6326 25.5597C28.7261 28.2422 21.3399 31.3142 15.2195 34.9638C12.0745 36.9032 9.45872 39.0226 7.42779 41.2976C6.7014 42.1664 6.07066 43.0689 5.54004 43.9985C5.06965 44.9489 4.65371 45.902 4.34308 46.8858C4.08852 47.8194 3.94054 48.7834 3.95454 49.7287C3.91804 50.5925 4.04352 51.4375 4.22114 52.3103C4.4554 53.1337 4.7429 53.9588 5.19239 54.7649C5.62901 55.6104 6.15069 56.4386 6.75403 57.2439C7.47098 58.0877 8.24116 58.9332 9.17507 59.7334C10.16 60.5884 11.1998 61.419 12.349 62.2023C13.6046 63.0161 14.9153 63.8059 16.3352 64.548C17.8983 65.3383 19.517 66.0807 21.1858 66.7725C24.0614 67.924 27.0321 68.9692 30.0829 69.9027C33.1252 70.8199 36.2294 71.6426 39.3843 72.368C42.5791 73.0801 45.775 73.7663 49.0292 74.3496C52.2295 74.9307 55.5402 75.4377 58.7988 75.9167C62.3775 76.4351 65.9579 76.9272 69.5954 77.3431C72.9644 77.7481 76.3356 78.1001 79.7611 78.4288C86.2927 79.0456 92.8808 79.5862 99.4727 80.0224C102.743 80.2128 106.013 80.4296 109.284 80.5942C110.893 80.6885 112.556 80.7588 114.165 80.8527C115.022 80.9152 115.827 80.9492 116.685 80.9855L130.424 81.4873L146.361 82.0821C147.112 82.1138 147.811 82.117 148.509 82.1202C150.765 82.1632 153.075 82.1822 155.331 82.2248L174.508 82.4843C176.065 82.4978 177.676 82.5395 179.288 82.5549C179.503 82.564 179.719 82.5472 179.933 82.5563C180.633 82.5331 181.331 82.5363 182.031 82.5136C192.035 82.3591 202.037 82.231 212.041 82.0765C220.065 81.7075 228.139 81.3925 236.162 81.0498C238.424 80.9617 240.74 80.8496 243 80.7616C243.647 80.7362 244.346 80.7135 244.993 80.6622C250.328 80.3364 255.611 79.9829 260.945 79.6571C265.795 79.3639 270.592 79.0417 275.442 78.7481C276.249 78.7036 277.113 78.6092 277.923 78.5384C280.512 78.3066 283.155 78.1037 285.744 77.8719C291.624 77.3596 297.45 76.8714 303.33 76.3591C304.194 76.2643 305.055 76.2221 305.866 76.1254L311.375 75.4925L329.36 73.4194C330.818 73.2447 332.276 73.0964 333.736 72.8958C339.844 72.0783 345.9 71.2063 351.908 70.2272C355.48 69.6437 359 69.0054 362.522 68.3412C365.773 67.7178 369.025 67.0682 372.227 66.3378C378.63 64.9033 384.827 63.2505 390.606 61.3175C393.279 60.3811 395.899 59.4425 398.363 58.366C399.622 57.8162 400.828 57.2636 401.982 56.6567C402.848 56.2017 403.692 55.73 404.514 55.2422C405.599 54.6144 406.598 53.9285 407.503 53.1913C408.282 52.5684 408.901 51.9125 409.52 51.2565C410.074 50.6344 410.534 49.9775 410.893 49.2946C411.183 48.7824 411.366 48.2657 411.55 47.7486C411.681 47.177 411.758 46.6295 411.727 46.0774C411.698 45.499 411.668 44.947 411.53 44.3899C411.393 43.8594 411.199 43.3343 410.951 42.8181C410.652 42.2487 410.299 41.6906 409.893 41.147C409.177 40.3033 408.405 39.4836 407.47 38.7097C406.538 37.8837 405.443 37.0767 404.348 36.296C400.792 33.9422 396.417 31.8947 391.821 29.9955C389.074 28.8828 386.214 27.8699 383.299 26.9074C380.276 25.9403 377.2 24.971 374.12 24.0801C367.908 22.2699 361.528 20.6365 355.088 19.1315C344.974 16.7892 334.634 14.7522 324.062 13.0727C318.671 12.215 313.22 11.4603 307.767 10.7578C302.26 10.0792 296.75 9.47924 291.237 8.93141L291.248 8.93188C289.077 8.74037 286.869 8.52852 284.704 8.34048C283.687 8.24523 282.616 8.1736 281.545 8.07607C281.009 8.0271 280.475 7.95184 279.938 7.92917C279.08 7.89291 278.223 7.83075 277.366 7.76819C273.239 7.48885 269.165 7.23808 265.038 6.95875C261.339 6.72385 257.695 6.46491 254.05 6.23229C252.604 6.11849 251.154 6.08358 249.652 6.02012C243.374 5.78118 237.15 5.51823 230.926 5.28117C229.046 5.22811 227.169 5.14878 225.291 5.06942C225.023 5.0581 224.807 5.07533 224.592 5.06625C223.84 5.06083 223.034 5.05271 222.282 5.04727L203.746 4.89349C201.704 4.88625 199.663 4.85269 197.621 4.84465L197.245 4.82878C195.632 4.83926 194.073 4.85241 192.459 4.88878C189.286 4.93829 186.058 5.01187 182.937 5.08994ZM291.461 8.95044C291.575 8.96324 291.7 8.97731 291.826 8.98262L291.46 8.95041L291.461 8.95044ZM107.338 12.1528C107.338 12.1528 107.29 12.1507 107.284 12.1732C107.304 12.1681 107.322 12.1612 107.338 12.1528ZM291.247 8.93223L291.459 8.95078C291.389 8.94266 291.319 8.93648 291.248 8.93225L291.247 8.93223ZM354.714 19.0638C354.674 19.0554 354.634 19.0473 354.608 19.033L354.714 19.0638ZM354.82 19.0942L354.714 19.0638C354.752 19.0697 354.788 19.08 354.82 19.0942ZM28.6167 36.5528C28.6416 36.5348 28.6693 36.5185 28.6993 36.504L28.6167 36.5528ZM28.534 36.602L28.6167 36.5528C28.5886 36.5716 28.5612 36.59 28.534 36.602ZM7.319 41.3193C7.29184 41.3313 7.27738 41.3507 7.26294 41.3696L7.319 41.3193ZM7.26294 41.3696L7.20752 41.4196C7.23243 41.4065 7.25151 41.3895 7.26292 41.37L7.26294 41.3696ZM20.8168 66.5996C20.8695 66.6282 20.9227 66.6305 20.9216 66.6568L20.8168 66.5996ZM107.121 12.2218C107.176 12.1978 107.176 12.1978 107.23 12.2001L107.121 12.2218Z" fill="#10B899"/>
</svg>
