<svg width="28" height="28" viewBox="0 0 28 28" fill="none" xmlns="http://www.w3.org/2000/svg">
<path d="M5.18131 16.1976C4.69913 16.4836 4.375 17.0092 4.375 17.6094C4.375 18.514 5.11098 19.25 6.01562 19.25C6.72853 19.25 7.33644 18.7928 7.56219 18.1562H11.8125C12.7171 18.1562 13.4531 18.8922 13.4531 19.7969C13.4531 20.7015 12.7171 21.4375 11.8125 21.4375H5.25C3.74227 21.4375 2.51562 22.6641 2.51562 24.1719C2.51562 25.6796 3.74227 26.9062 5.25 26.9062H10.7188C11.0208 26.9062 11.2656 26.6614 11.2656 26.3594C11.2656 26.0573 11.0208 25.8125 10.7188 25.8125H5.25C4.34536 25.8125 3.60938 25.0765 3.60938 24.1719C3.60938 23.2672 4.34536 22.5312 5.25 22.5312H11.8125C13.3202 22.5312 14.5469 21.3046 14.5469 19.7969C14.5469 18.2891 13.3202 17.0625 11.8125 17.0625H7.56219C7.43285 16.6978 7.17812 16.3922 6.84994 16.1976L11.0269 9.34434C11.6839 8.35669 12.0312 7.20584 12.0312 6.01562C12.0312 2.69861 9.33264 0 6.01562 0C2.69861 0 0 2.69861 0 6.01562C0 7.20584 0.34732 8.35669 1.00439 9.34434L5.18131 16.1976ZM6.01562 18.1562C5.71408 18.1562 5.46875 17.9109 5.46875 17.6094C5.46875 17.3078 5.71408 17.0625 6.01562 17.0625C6.31717 17.0625 6.5625 17.3078 6.5625 17.6094C6.5625 17.9109 6.31717 18.1562 6.01562 18.1562ZM6.01562 1.09375C8.72955 1.09375 10.9375 3.3017 10.9375 6.01562C10.9375 6.99278 10.6516 7.93707 10.1109 8.74644C10.1067 8.75273 10.1026 8.75913 10.0986 8.76564L6.01562 15.4648C6.01562 15.4648 1.92456 8.75273 1.92035 8.74644C1.3796 7.93707 1.09375 6.99278 1.09375 6.01562C1.09375 3.3017 3.3017 1.09375 6.01562 1.09375Z" fill="#5FD3D1"/>
<path d="M6.01562 8.75C7.52336 8.75 8.75 7.52336 8.75 6.01562C8.75 4.50789 7.52336 3.28125 6.01562 3.28125C4.50789 3.28125 3.28125 4.50789 3.28125 6.01562C3.28125 7.52336 4.50789 8.75 6.01562 8.75ZM6.01562 4.375C6.92027 4.375 7.65625 5.11098 7.65625 6.01562C7.65625 6.92027 6.92027 7.65625 6.01562 7.65625C5.11098 7.65625 4.375 6.92027 4.375 6.01562C4.375 5.11098 5.11098 4.375 6.01562 4.375Z" fill="#5FD3D1"/>
<path d="M21.9844 9.07812C18.6674 9.07812 15.9688 11.7767 15.9688 15.0938C15.9688 16.2859 16.3172 17.4385 16.9763 18.4272L21.1376 24.9547C20.8154 25.1496 20.5656 25.4524 20.4379 25.8125H15.6406C15.3386 25.8125 15.0938 26.0573 15.0938 26.3594C15.0938 26.6614 15.3386 26.9062 15.6406 26.9062H20.4378C20.6636 27.5428 21.2714 28 21.9844 28C22.889 28 23.625 27.264 23.625 26.3594C23.625 25.7643 23.3066 25.2423 22.8312 24.9547L26.9925 18.4272C27.6516 17.4385 28 16.2859 28 15.0938C28 11.7767 25.3014 9.07812 21.9844 9.07812ZM21.9844 26.9062C21.6828 26.9062 21.4375 26.6609 21.4375 26.3594C21.4375 26.0578 21.6828 25.8125 21.9844 25.8125C22.2859 25.8125 22.5312 26.0578 22.5312 26.3594C22.5312 26.6609 22.2859 26.9062 21.9844 26.9062ZM26.0796 17.8246C26.0775 17.8279 21.9844 24.2483 21.9844 24.2483C21.9844 24.2483 17.8912 17.8278 17.8891 17.8246C17.3484 17.0152 17.0625 16.0709 17.0625 15.0938C17.0625 12.3798 19.2705 10.1719 21.9844 10.1719C24.6983 10.1719 26.9062 12.3798 26.9062 15.0938C26.9062 16.0709 26.6204 17.0152 26.0796 17.8246Z" fill="#5FD3D1"/>
<path d="M21.9844 12.3594C20.4766 12.3594 19.25 13.586 19.25 15.0938C19.25 16.6015 20.4766 17.8281 21.9844 17.8281C23.4921 17.8281 24.7188 16.6015 24.7188 15.0938C24.7188 13.586 23.4921 12.3594 21.9844 12.3594ZM21.9844 16.7344C21.0797 16.7344 20.3438 15.9984 20.3438 15.0938C20.3438 14.1891 21.0797 13.4531 21.9844 13.4531C22.889 13.4531 23.625 14.1891 23.625 15.0938C23.625 15.9984 22.889 16.7344 21.9844 16.7344Z" fill="#5FD3D1"/>
<path d="M13.1797 26.9062C13.4817 26.9062 13.7266 26.6614 13.7266 26.3594C13.7266 26.0573 13.4817 25.8125 13.1797 25.8125C12.8777 25.8125 12.6328 26.0573 12.6328 26.3594C12.6328 26.6614 12.8777 26.9062 13.1797 26.9062Z" fill="#5FD3D1"/>
</svg>
