<svg width="29" height="29" viewBox="0 0 29 29" fill="none" xmlns="http://www.w3.org/2000/svg">
<g clip-path="url(#clip0_0:937)">
<path d="M24.8086 15.6108C24.6597 15.6108 24.5134 15.5509 24.4081 15.4456C24.3028 15.3396 24.2422 15.194 24.2422 15.0444C24.2422 14.8955 24.3028 14.7493 24.4081 14.644C24.5134 14.5387 24.6597 14.478 24.8086 14.478C24.9575 14.478 25.1037 14.5387 25.2091 14.644C25.3144 14.7493 25.375 14.8955 25.375 15.0444C25.375 15.194 25.3144 15.34 25.2091 15.4456C25.1037 15.5509 24.9575 15.6108 24.8086 15.6108Z" fill="#5FD3D1"/>
<path d="M7.72571 4.87793C7.57681 4.87793 7.43078 4.81731 7.32524 4.71199C7.21992 4.60645 7.1593 4.46043 7.1593 4.31152C7.1593 4.1624 7.21992 4.01637 7.32524 3.91106C7.43078 3.80574 7.57681 3.74512 7.72571 3.74512C7.87483 3.74512 8.02086 3.80574 8.12617 3.91106C8.23149 4.01637 8.29211 4.1624 8.29211 4.31152C8.29211 4.46043 8.23149 4.60645 8.12617 4.71199C8.02086 4.81731 7.87483 4.87793 7.72571 4.87793Z" fill="#5FD3D1"/>
<path d="M16.8789 5.77734C16.8789 7.08915 15.8118 8.15625 14.5 8.15625C13.1882 8.15625 12.1211 7.08915 12.1211 5.77734C12.1211 4.46554 13.1882 3.39844 14.5 3.39844C15.8118 3.39844 16.8789 4.46554 16.8789 5.77734ZM13.2539 5.77734C13.2539 6.46433 13.8128 7.02344 14.5 7.02344C15.1872 7.02344 15.7461 6.46433 15.7461 5.77734C15.7461 5.09013 15.1872 4.53125 14.5 4.53125C13.8128 4.53125 13.2539 5.09013 13.2539 5.77734Z" fill="#5FD3D1"/>
<path d="M21 15C21 16.1029 20.1029 17 19 17C17.8971 17 17 16.1029 17 15C17 13.8971 17.8971 13 19 13C20.1029 13 21 13.8971 21 15ZM17.9524 15C17.9524 15.5776 18.4222 16.0476 19 16.0476C19.5778 16.0476 20.0476 15.5776 20.0476 15C20.0476 14.4222 19.5778 13.9524 19 13.9524C18.4222 13.9524 17.9524 14.4222 17.9524 15Z" fill="#5FD3D1"/>
<path fill-rule="evenodd" clip-rule="evenodd" d="M5.46892 4.9111L0.292274 7.77301C0.111954 7.87257 0 8.0624 0 8.26861V28.4327C0 28.7455 0.253555 28.9991 0.566406 28.9991H28.4336C28.7464 28.9991 29 28.7455 29 28.4327V8.26861C29 8.0624 28.888 7.87257 28.7077 7.77301L14.7741 0.0698795C14.6035 -0.0245953 14.3965 -0.0245953 14.2259 0.0698795L9.43465 2.71871C9.16096 2.87005 9.06161 3.21476 9.21295 3.48845C9.36429 3.76214 9.709 3.86148 9.98269 3.71015L14.5 1.21265L27.8672 8.6027V27.8663H25.375V17.3092C25.375 16.9964 25.1214 16.7428 24.8086 16.7428C24.4957 16.7428 24.2422 16.9964 24.2422 17.3092V27.8663H23V28H6V27.8663H4.75781V10.6475H24.2422V12.778C24.2422 13.0908 24.4957 13.3444 24.8086 13.3444C25.1214 13.3444 25.375 13.0908 25.375 12.778V10.0811C25.375 9.76826 25.1214 9.5147 24.8086 9.5147H4.19141C3.87856 9.5147 3.625 9.76826 3.625 10.0811V27.8663H1.13281V8.6027L6.01696 5.90254C6.29065 5.7512 6.38999 5.40649 6.23866 5.1328C6.08732 4.85911 5.74261 4.75955 5.46892 4.9111Z" fill="#5FD3D1"/>
<path d="M17.224 24.504C17 24.696 16.7227 24.8453 16.392 24.952C16.0613 25.048 15.72 25.096 15.368 25.096C14.5147 25.096 13.8533 24.8667 13.384 24.408C12.9147 23.9493 12.68 23.2933 12.68 22.44V17.784H11.24V16.52H12.68V14.664H14.216V16.52H16.648V17.784H14.216V22.376C14.216 22.8347 14.328 23.1867 14.552 23.432C14.7867 23.6773 15.1173 23.8 15.544 23.8C16.0133 23.8 16.4133 23.6667 16.744 23.4L17.224 24.504Z" fill="#5FD3D1"/>
</g>
<defs>
<clipPath id="clip0_0:937">
<rect width="29" height="29" fill="white" transform="matrix(-1 0 0 1 29 0)"/>
</clipPath>
</defs>
</svg>
