<svg width="77" height="75" viewBox="0 0 77 75" fill="none" xmlns="http://www.w3.org/2000/svg">
<g clip-path="url(#clip0)">
<path d="M4.76166 5.10318C-1.22461 11.2251 0.000578791 17.7282 0.000578791 37.4844C0.000578791 53.8907 -2.90686 70.3376 12.3096 74.2094C17.0611 75.4126 59.1618 75.4126 63.907 74.2032C70.2424 72.5938 75.3971 67.5344 76.1018 58.7126C76.2001 57.4813 76.2001 17.5094 76.0986 16.2532C75.3495 6.8563 69.4743 1.44068 61.7328 0.343803C59.9585 0.0906785 59.603 0.0156784 50.4998 5.3443e-05C18.2101 0.0156784 11.132 -1.39995 4.76166 5.10318Z" fill="url(#paint0_linear)"/>
<path d="M38.0824 9.80944C26.5574 9.80944 15.6132 8.80007 11.433 19.3626C9.70629 23.7251 9.95704 29.3907 9.95704 37.5032C9.95704 44.6219 9.72533 51.3126 11.433 55.6407C15.6037 66.2094 26.6367 65.1969 38.076 65.1969C49.1122 65.1969 60.4912 66.3282 64.7222 55.6407C66.4521 51.2344 66.1982 45.6532 66.1982 37.5032C66.1982 26.6844 66.8044 19.7001 61.4752 14.4563C56.0793 9.14381 48.7821 9.80944 38.0697 9.80944H38.0824ZM35.5622 14.8001C59.6025 14.7626 62.6623 12.1313 60.9737 48.6844C60.3738 61.6126 50.3755 60.1938 38.0855 60.1938C15.6767 60.1938 15.0324 59.5626 15.0324 37.4907C15.0324 15.1626 16.8098 14.8126 35.5622 14.7938V14.8001ZM53.0956 19.3969C51.2325 19.3969 49.7216 20.8844 49.7216 22.7188C49.7216 24.5532 51.2325 26.0407 53.0956 26.0407C54.9588 26.0407 56.4697 24.5532 56.4697 22.7188C56.4697 20.8844 54.9588 19.3969 53.0956 19.3969ZM38.0824 23.2813C30.1059 23.2813 23.6404 29.6501 23.6404 37.5032C23.6404 45.3563 30.1059 51.7219 38.0824 51.7219C46.0588 51.7219 52.5211 45.3563 52.5211 37.5032C52.5211 29.6501 46.0588 23.2813 38.0824 23.2813ZM38.0824 28.2719C50.477 28.2719 50.4929 46.7344 38.0824 46.7344C25.6908 46.7344 25.6718 28.2719 38.0824 28.2719Z" fill="white"/>
</g>
<defs>
<linearGradient id="paint0_linear" x1="4.90773" y1="70.2097" x2="74.7599" y2="8.80442" gradientUnits="userSpaceOnUse">
<stop stop-color="#FFDD55"/>
<stop offset="0.5" stop-color="#FF543E"/>
<stop offset="1" stop-color="#C837AB"/>
</linearGradient>
<clipPath id="clip0">
<rect width="76.1774" height="75" fill="white"/>
</clipPath>
</defs>
</svg>
