<svg display="none" xmlns="http://www.w3.org/2000/svg">

	<symbol  width="10" height="10" viewBox="0 0 10 10" id="phone">
		<path d="M7.96591 6.45451C7.5424 6.21736 7.11117 6.36496 6.93285 6.59797L6.55992 7.06482C6.37045 7.30197 6.01638 7.27046 6.01638 7.27046C3.43244 6.60958 2.74145 3.99423 2.74145 3.99423C2.74145 3.99423 2.70973 3.64015 2.94634 3.45026L3.41272 3.07711C3.64591 2.898 3.79337 2.46681 3.55589 2.04308C2.92148 0.934419 2.4954 0.55215 2.2785 0.258607C2.05045 -0.0175218 1.70753 -0.0797131 1.35089 0.106861H1.34317C0.601595 0.526444 -0.21028 1.31171 0.0494854 2.1202C0.492716 2.97263 1.30716 5.68998 3.9031 7.74312C5.12306 8.71413 7.05373 9.70919 7.87332 9.93888L7.88103 9.95049C8.68862 10.2109 9.47392 9.39491 9.89315 8.65608V8.65028C10.0792 8.29289 10.0175 7.95457 9.74569 7.73316C9.26388 7.27875 8.53688 6.77708 7.96591 6.45451Z"/>
	</symbol>

</svg>


