<svg width="27" height="18" viewBox="0 0 27 18" fill="none" xmlns="http://www.w3.org/2000/svg">
<path d="M26.8352 8.60231L18.3977 0.164808C18.178 -0.0549361 17.822 -0.0549361 17.6023 0.164808C17.3826 0.384552 17.3826 0.74051 17.6023 0.960201L25.0796 8.43752H0.562518C0.251596 8.43752 0 8.68911 0 9.00003C0 9.31096 0.251596 9.56255 0.562518 9.56255H25.0796L17.6023 17.0398C17.3826 17.2596 17.3826 17.6155 17.6023 17.8352C17.7122 17.9451 17.8561 18 18 18C18.144 18 18.2879 17.9451 18.3978 17.8352L26.8353 9.3977C27.055 9.17801 27.055 8.82205 26.8352 8.60231Z" fill="white"/>
</svg>
