<svg width="34" height="23" viewBox="0 0 34 23" fill="none" xmlns="http://www.w3.org/2000/svg">
<path d="M33.7925 10.8325L23.1675 0.207536C22.8908 -0.0691787 22.4425 -0.0691787 22.1659 0.207536C21.8892 0.484251 21.8892 0.932494 22.1659 1.20914L31.5818 10.625H0.708356C0.316824 10.625 0 10.9418 0 11.3334C0 11.7249 0.316824 12.0417 0.708356 12.0417H31.5818L22.1659 21.4575C21.8892 21.7343 21.8892 22.1825 22.1659 22.4591C22.3042 22.5975 22.4855 22.6667 22.6667 22.6667C22.8479 22.6667 23.0292 22.5975 23.1676 22.4591L33.7926 11.8341C34.0692 11.5575 34.0692 11.1093 33.7925 10.8325Z" fill="white"/>
</svg>
