<svg width="28" height="20" viewBox="0 0 28 20" fill="none" xmlns="http://www.w3.org/2000/svg">
<path d="M27.8291 9.58754L19.0791 0.837538C18.8512 0.609655 18.4821 0.609655 18.2542 0.837538C18.0264 1.06542 18.0264 1.43456 18.2542 1.66239L26.0085 9.41664H0.583352C0.260914 9.41664 0 9.67755 0 9.99999C0 10.3224 0.260914 10.5833 0.583352 10.5833H26.0085L18.2542 18.3375C18.0264 18.5654 18.0264 18.9346 18.2542 19.1624C18.3682 19.2763 18.5175 19.3333 18.6667 19.3333C18.8159 19.3333 18.9652 19.2763 19.0792 19.1624L27.8292 10.4124C28.057 10.1846 28.057 9.81542 27.8291 9.58754Z" fill="#5FD3D1"/>
</svg>
