<svg width="43" height="55" viewBox="0 0 43 55" fill="none" xmlns="http://www.w3.org/2000/svg">
<g clip-path="url(#clip0_0:611)">
<path d="M5.92153 17.5312C5.53949 16.1991 5.64561 15.0175 6.38846 13.9433C6.5158 13.7714 6.45213 13.5995 6.40968 13.4276C5.73051 10.7636 6.89783 8.4003 9.44473 7.4335C9.69941 7.32608 9.78431 7.19718 9.82676 6.93936C10.039 5.13468 11.0153 3.93155 12.6708 3.26554C12.8618 3.1796 12.9679 3.07218 13.0528 2.87882C13.8381 0.794832 15.7695 -0.0645429 17.807 0.751863C18.0193 0.837801 18.1678 0.816316 18.3588 0.730379C20.2266 -0.0645429 22.1792 0.794832 22.8159 2.72843C22.9008 2.98624 23.0281 3.13663 23.2828 3.22257C24.8534 3.69522 25.8722 4.76944 26.3816 6.3378C26.4452 6.53116 26.4877 6.68155 26.6999 6.81046C28.1007 7.58389 28.9921 8.74405 29.4378 10.2694C29.459 10.3124 29.5015 10.3554 29.5652 10.4413C29.7986 9.92569 30.0321 9.45303 30.2656 8.98038C31.1782 7.08975 32.0908 5.17764 33.3218 3.45889C34.001 2.4921 34.7863 1.61124 35.7414 0.923738C37.9911 -0.644621 40.4531 -0.171965 41.9388 2.14835C42.7241 3.39444 43.0849 4.74796 43.0425 6.23038C42.8727 11.8378 41.9176 17.3163 40.4107 22.7089C40.347 22.9023 40.3046 23.0956 40.2409 23.2675C40.0711 23.7616 39.8588 24.2343 40.5805 24.5351C40.9625 24.6855 41.0686 25.1796 41.0262 25.6093C40.7715 29.2616 40.5168 32.8925 40.2621 36.5448C40.0286 39.8534 39.8164 43.1405 39.5829 46.4491C39.498 47.6952 39.4556 48.9628 39.307 50.1874C38.925 53.0448 36.6965 54.9999 33.8312 54.9999C28.504 55.0214 23.1767 54.9999 17.8707 54.9999C14.3687 54.9999 10.8667 54.9999 7.36476 54.9999C4.09625 54.9999 1.82528 52.83 1.61304 49.5214C1.12488 42.453 0.636727 35.3847 0.148573 28.3163C0.106125 27.8007 0.0212286 27.2851 0.0636767 26.7694C0.148573 25.6737 0.0636767 24.578 0.0849008 23.4823C0.106125 21.9355 0.955088 20.8398 2.22853 20.0663C2.84403 19.6796 3.5232 19.3788 4.2236 19.2069C4.71175 19.078 4.62686 18.9276 4.32972 18.6483C3.73544 18.1327 3.09872 17.7675 2.29221 17.7245C1.71916 17.703 1.33712 17.2948 1.33712 16.7792C1.33712 16.2421 1.74038 15.8124 2.31343 15.7909C3.43831 15.7694 4.41462 16.2206 5.2848 16.9081C5.43337 17.1015 5.64561 17.2948 5.92153 17.5312ZM39.0099 26.5546C38.267 26.8769 37.5666 27.1562 36.8875 27.5214C34.9985 28.5097 33.1733 28.4023 31.4117 27.2636C30.1807 26.4472 28.9709 26.4687 27.7399 27.2636C25.7873 28.5097 23.8134 28.5526 21.8608 27.2636C20.6298 26.4687 19.4413 26.4687 18.1891 27.2421C16.2364 28.4452 14.2626 28.5526 12.31 27.2636C11.079 26.4472 9.89043 26.4901 8.63821 27.2421C6.66437 28.4237 4.64808 28.3808 2.65302 27.2206C2.44077 27.0917 2.27098 26.9198 1.95262 26.8769C2.01629 27.8866 2.07997 28.8964 2.14364 29.8847C2.44077 34.2675 2.75914 38.6718 3.05627 43.0546C3.22607 45.3319 3.33219 47.6308 3.56565 49.9081C3.75667 51.7773 5.22113 53.0663 7.0464 53.0663C16.003 53.0878 24.9383 53.0878 33.8949 53.0663C35.7838 53.0663 37.2695 51.6483 37.4181 49.7362C37.6303 47.0507 37.7789 44.3866 37.9699 41.7011C38.2034 38.3495 38.4368 34.998 38.6703 31.6249C38.7764 29.9706 38.8825 28.2948 39.0099 26.5546ZM25.1293 26.1894C25.7873 26.1679 26.2754 25.8886 26.7424 25.5663C27.7187 24.9218 28.8011 24.621 29.9684 24.7069C30.966 24.7714 31.8361 25.1796 32.6639 25.7167C33.5977 26.3183 34.574 26.4257 35.5928 25.9745C36.1659 25.7167 36.7177 25.4374 37.2695 25.2011C37.5242 25.0937 37.6515 24.9433 37.7364 24.6855C39.6891 18.6269 40.8776 12.4608 41.0686 6.07999C41.1111 4.85538 40.729 3.73819 39.965 2.79288C39.2434 1.91202 38.3307 1.71866 37.312 2.2128C36.7177 2.4921 36.2083 2.92179 35.7626 3.41593C34.7014 4.57608 33.8949 5.9296 33.1733 7.32608C31.9635 9.7753 30.7749 12.246 29.5439 14.7167C27.7399 18.3691 26.2754 22.1933 25.1293 26.1894ZM14.6871 18.5624C14.7295 18.498 14.772 18.455 14.772 18.412C14.8569 16.8437 15.6209 15.5976 16.5548 14.4159C17.043 13.8144 17.0217 13.7929 16.3638 13.4062C15.5997 12.9335 15.1116 11.7948 15.2601 10.7851C15.3875 9.94718 15.9817 9.28116 16.8944 9.0878C18.847 8.63663 20.7996 8.20694 22.7522 7.79874C23.6436 7.60538 24.5775 8.09952 24.9383 8.93741C25.3203 9.86124 25.4689 10.8066 24.7897 11.6874C24.5351 12.0312 24.62 12.2675 24.9808 12.4394C25.575 12.7401 26.1905 13.0409 26.6999 13.4921C27.0395 13.7714 27.1668 13.6855 27.3366 13.3417C28.2917 11.4081 27.3366 9.06632 25.2142 8.29288C24.8534 8.16397 24.6412 8.01358 24.62 7.56241C24.4926 5.9296 23.4526 4.98429 21.8184 4.98429C20.9482 4.98429 20.9482 4.98429 21.0331 4.06046C21.0968 3.32999 20.8633 2.81436 20.3115 2.53507C19.7596 2.25577 19.2078 2.38468 18.6772 2.9003C18.1466 3.41593 18.1254 3.43741 17.5948 2.92179C17.0642 2.42764 16.4699 2.23429 15.7907 2.53507C15.0903 2.83585 14.8144 3.41593 14.7932 4.16788C14.772 4.91983 14.772 4.91983 13.9867 4.98429C12.5222 5.11319 11.5459 6.3378 11.7794 7.79874C11.8218 8.03507 11.8643 8.29288 11.9492 8.52921C12.0977 8.93741 12.0128 9.10929 11.5459 9.10929C11.1639 9.10929 10.7606 9.13077 10.3786 9.21671C8.53209 9.64639 7.61945 11.6444 8.46842 13.3847C8.87168 14.2011 8.87167 14.2011 8.23495 14.8026C7.78925 15.2323 7.59823 15.7265 7.64068 16.3495C7.6619 16.7148 7.70435 16.9296 8.15006 16.6718C10.1663 15.5546 12.0128 15.8339 13.6683 17.4667C14.0079 17.7675 14.3475 18.1757 14.6871 18.5624ZM15.0479 24.8144C15.1328 22.2148 13.4561 19.8085 11.9704 18.5194C11.079 17.746 10.0814 17.703 9.06269 18.3046C8.53209 18.6054 8.04394 18.9706 7.61945 19.4003C6.81294 20.1952 5.87908 20.7323 4.79665 21.0331C4.11748 21.2265 3.45953 21.5058 2.88648 21.914C2.07997 22.4726 1.78283 23.2675 1.88895 24.2343C1.91017 24.4062 1.91017 24.5995 2.12241 24.664C2.67424 24.8573 3.14117 25.2226 3.65055 25.5233C4.96644 26.3183 6.30356 26.3398 7.61945 25.5448C9.52962 24.3847 11.4186 24.3847 13.3075 25.5878C13.6895 25.8241 14.0716 26.039 14.4961 26.1464C14.7507 26.2108 14.8993 26.2108 14.8993 25.8886C14.963 25.5233 15.0267 25.1796 15.0479 24.8144ZM18.5923 22.3866C19.6323 22.4511 20.6723 22.0644 21.6486 21.4198C22.2216 21.0331 22.8371 20.6894 23.3677 20.2812C24.0045 19.787 25.002 19.9374 25.4477 19.164C25.8509 18.455 26.0844 17.6601 26.4028 16.9081C26.424 16.8651 26.424 16.8437 26.4452 16.8222C26.6999 16.4355 26.5938 16.1132 26.2967 15.7694C25.6599 15.039 24.8534 14.5878 24.0257 14.1366C23.4951 13.8573 23.0494 13.4921 22.8371 12.8905C22.731 12.5898 22.6037 12.5898 22.3277 12.6542C21.4363 12.8691 20.5449 13.0624 19.6323 13.2343C19.1017 13.3417 18.6772 13.4062 18.7409 14.1796C18.8046 14.8671 18.2527 15.3827 17.8282 15.8769C16.767 17.1659 16.3638 18.5839 16.8732 20.2167C16.9793 20.5605 17.0217 20.9042 17.1066 21.2694C17.3825 22.3437 17.3825 22.3437 18.5923 22.3866ZM24.4077 21.9569C23.771 22.2362 23.3041 22.623 22.7947 22.9452C21.3939 23.8905 19.8658 24.4276 18.1678 24.2987C18.0617 24.2987 17.8707 24.2128 17.8495 24.3632C17.8282 24.5566 17.8919 24.7929 17.9556 24.9862C18.0193 25.1581 18.1678 25.0292 18.2739 25.0077C18.7409 24.8358 19.229 24.7284 19.7172 24.7069C20.8633 24.621 21.9033 24.9648 22.8796 25.5663C23.0069 25.6523 23.1979 25.8886 23.3041 25.5233C23.6649 24.3847 24.0257 23.2245 24.4077 21.9569ZM22.8371 9.75382C22.7947 9.75382 22.7735 9.75382 22.731 9.7753C21.0119 10.1405 19.2927 10.5273 17.5736 10.914C17.3401 10.9569 17.1915 11.1288 17.234 11.3866C17.2976 11.6659 17.5099 11.7519 17.7646 11.6874C18.3588 11.5585 18.9743 11.4296 19.5686 11.2792C20.6723 11.0429 21.7759 10.7851 22.8584 10.5487C23.113 10.4843 23.2828 10.3554 23.2404 10.0761C23.2192 9.83975 23.0494 9.73233 22.8371 9.75382Z" fill="#5FD3D1"/>
<path d="M10.9516 49.3709C9.27493 49.3709 7.59823 49.3709 5.92153 49.3709C5.26358 49.3709 4.86032 49.0916 4.77543 48.576C4.69053 48.1033 5.00889 47.5877 5.49705 47.4803C5.62439 47.4588 5.75173 47.4373 5.85785 47.4373C9.27493 47.4373 12.6708 47.4373 16.0879 47.4373C16.7458 47.4373 17.1278 47.7596 17.1915 48.2752C17.2552 48.8983 16.8307 49.3494 16.1091 49.3494C14.6871 49.3709 13.2438 49.3494 11.8218 49.3494C11.5247 49.3709 11.2275 49.3709 10.9516 49.3709Z" fill="#5FD3D1"/>
<path d="M10.0602 43.5487C11.3973 43.5487 12.7345 43.5487 14.0928 43.5487C14.4961 43.5487 14.8781 43.6131 15.1116 43.9784C15.4724 44.537 15.2177 45.2674 14.581 45.4393C14.3687 45.5038 14.1352 45.5038 13.9018 45.5038C11.3337 45.5038 8.74433 45.5038 6.17622 45.5038C6.0701 45.5038 5.96398 45.5038 5.85786 45.5038C5.17869 45.4608 4.75421 45.0741 4.77543 44.5155C4.79665 43.9569 5.19991 43.5702 5.83663 43.5702C7.1313 43.5487 8.40475 43.5702 9.69942 43.5702C9.80554 43.5487 9.93288 43.5487 10.0602 43.5487Z" fill="#5FD3D1"/>
<path d="M9.04147 41.6151C7.98026 41.6151 6.91906 41.6151 5.85785 41.6151C5.17868 41.6151 4.7542 41.2069 4.7542 40.6483C4.7542 40.0897 5.17868 39.703 5.8154 39.6815C7.98026 39.66 10.1239 39.6815 12.2888 39.6815C12.7132 39.6815 13.0528 39.8104 13.2438 40.2186C13.4136 40.5623 13.3924 40.8846 13.1802 41.1854C12.9467 41.5506 12.5859 41.6151 12.2039 41.6151C11.1639 41.6151 10.1027 41.6151 9.04147 41.6151Z" fill="#5FD3D1"/>
<path d="M20.9906 49.3495C20.651 49.3495 20.3115 49.371 19.9931 49.3495C19.4625 49.3065 19.1017 48.8769 19.1017 48.3827C19.1017 47.8886 19.4837 47.4804 20.0143 47.4374C20.6935 47.4159 21.3514 47.4159 22.0306 47.4374C22.5824 47.4589 22.922 47.8456 22.922 48.3612C22.922 48.8983 22.5824 49.2851 22.0094 49.328C21.6698 49.371 21.3302 49.3495 20.9906 49.3495Z" fill="#5FD3D1"/>
<path d="M33.4067 23.0097C33.1096 23.0312 32.7488 22.9452 32.388 22.8378C31.4117 22.58 30.6688 22.9237 30.2443 23.8261C29.9472 24.4491 29.459 24.6855 28.9284 24.4491C28.3978 24.2128 28.2493 23.6757 28.504 23.0312C29.1619 21.3984 30.9659 20.4745 32.6639 20.9042C34.0434 21.248 34.4679 21.0546 35.1471 19.8085C35.423 19.3144 35.9324 19.1425 36.4205 19.3573C36.8875 19.5722 37.0573 20.0878 36.8875 20.6464C36.4205 22.0214 34.9985 23.0097 33.4067 23.0097Z" fill="#5FD3D1"/>
<path d="M34.1071 14.0507C34.4467 14.0292 34.8287 14.1151 35.2108 14.2226C36.1871 14.4804 36.9087 14.1366 37.3332 13.2128C37.6303 12.5897 38.1185 12.3534 38.6491 12.5897C39.1584 12.8261 39.3282 13.3847 39.0735 14.0077C38.4156 15.662 36.6115 16.5643 34.8924 16.1347C33.5128 15.7909 33.1096 15.9628 32.4092 17.2304C32.1545 17.703 31.6663 17.8964 31.1994 17.6815C30.7113 17.4882 30.499 16.9726 30.6688 16.4354C31.1145 15.0819 32.5365 14.0722 34.1071 14.0507Z" fill="#5FD3D1"/>
<path d="M35.9961 7.60528C36.2932 7.58379 36.6115 7.66973 36.9299 7.75567C37.6303 7.92754 38.1397 7.69121 38.458 7.04668C38.5005 6.96074 38.5217 6.87481 38.5642 6.81035C38.8401 6.35918 39.307 6.20879 39.7527 6.40215C40.2196 6.59551 40.4319 7.06817 40.3045 7.58379C39.9225 9.02324 38.267 10.0115 36.7601 9.71074C36.6328 9.68926 36.5267 9.64629 36.3993 9.62481C35.5503 9.40996 35.1259 9.60332 34.7226 10.3982C34.4255 10.9568 33.9585 11.1717 33.4704 10.9568C32.9398 10.742 32.7488 10.2049 32.961 9.62481C33.4279 8.42168 34.6377 7.60528 35.9961 7.60528Z" fill="#5FD3D1"/>
</g>
<defs>
<clipPath id="clip0_0:611">
<rect width="43" height="55" fill="white"/>
</clipPath>
</defs>
</svg>
