<svg width="27" height="27" viewBox="0 0 27 27" fill="none" xmlns="http://www.w3.org/2000/svg">
<g clip-path="url(#clip0_0:556)">
<path d="M12.679 8.14252C8.8294 8.14252 4.9798 8.14252 1.13019 8.13193C0.877061 8.13193 0.792686 8.17428 0.792686 8.46016C0.803233 10.3131 0.803233 12.166 0.803233 14.019C0.803233 14.1037 0.81378 14.199 0.792686 14.2837C0.761046 14.506 0.623936 14.6437 0.412999 14.6437C0.191515 14.6437 0.0544052 14.5166 0.0122177 14.2943C0.00167084 14.2202 0.00167084 14.146 0.00167084 14.0613C0.00167084 10.5778 0.00167084 7.09428 0.00167084 3.61075C0.00167084 3.15546 0.128233 3.0284 0.581749 3.0284C1.25675 3.0284 1.93175 3.01781 2.60675 3.03899C2.85987 3.04957 2.91261 2.96487 2.90206 2.73193C2.88097 2.3931 2.89151 2.06487 2.90206 1.72605C2.90206 0.741339 3.55597 0.0319277 4.463 0.0213395C5.35948 0.0107512 6.03448 0.730751 6.05558 1.70487C6.06612 2.05428 6.07667 2.41428 6.05558 2.76369C6.03448 3.00722 6.12941 3.04957 6.35089 3.04957C10.1583 3.03899 13.9657 3.04957 17.7626 3.04957C18.2056 3.04957 18.6591 3.03899 19.1021 3.04957C19.2603 3.04957 19.313 3.00722 19.313 2.83781C19.313 2.36134 19.2708 1.88487 19.3341 1.4084C19.4396 0.593104 20.1357 -0.0104252 20.9372 0.0213395C21.7599 0.0531042 22.4138 0.688398 22.4665 1.52487C22.4876 1.9484 22.4876 2.37193 22.4665 2.79546C22.456 2.98605 22.5087 3.04957 22.7091 3.04957C23.4052 3.03899 24.1013 3.03899 24.7868 3.04957C25.2087 3.04957 25.3458 3.18722 25.3458 3.60016C25.3458 5.84487 25.3353 8.10016 25.3247 10.3449C25.3247 10.6731 25.1876 10.8319 24.9345 10.8425C24.6814 10.8425 24.5337 10.6625 24.5232 10.3343C24.5232 9.70957 24.5126 9.08487 24.5232 8.46016C24.5337 8.21663 24.4599 8.17428 24.2278 8.17428C20.3888 8.14252 16.5286 8.14252 12.679 8.14252ZM12.6579 7.3484C15.4739 7.3484 18.2794 7.3484 21.0954 7.3484C22.1607 7.3484 23.2259 7.3484 24.2806 7.3484C24.4177 7.3484 24.5337 7.36957 24.5337 7.15781C24.5232 6.10957 24.5232 5.06134 24.5337 4.0131C24.5337 3.87546 24.4915 3.82252 24.3544 3.82252C23.7849 3.8331 23.2153 3.8331 22.6458 3.82252C22.4982 3.82252 22.4665 3.87546 22.4665 4.0131C22.4771 4.2884 22.4771 4.56369 22.456 4.8284C22.3927 5.64369 21.7388 6.25781 20.9267 6.28958C20.1462 6.32134 19.4607 5.71781 19.3341 4.9131C19.2919 4.6484 19.2919 4.38369 19.313 4.11899C19.3235 3.87546 19.2497 3.81193 19.0071 3.81193C15.59 3.82252 12.1728 3.82252 8.75558 3.82252C7.93292 3.82252 7.09972 3.82252 6.27706 3.82252C6.10831 3.82252 6.04503 3.86487 6.04503 4.04487C6.05558 4.33075 6.05558 4.62722 6.02394 4.9131C5.91847 5.70722 5.22237 6.32134 4.44191 6.28958C3.6298 6.25781 2.9548 5.6331 2.90206 4.8284C2.88097 4.57428 2.88097 4.32016 2.89151 4.06605C2.90206 3.88605 2.85987 3.82252 2.65948 3.82252C2.11105 3.8331 1.57316 3.8331 1.02472 3.82252C0.834874 3.82252 0.792686 3.88605 0.792686 4.06605C0.803233 5.06134 0.803233 6.05663 0.792686 7.05193C0.792686 7.30605 0.866515 7.35899 1.09855 7.35899C4.9587 7.33781 8.80831 7.3484 12.6579 7.3484ZM21.6755 3.12369C21.6755 2.63663 21.6755 2.14957 21.6755 1.6731C21.6755 1.4931 21.6439 1.32369 21.5489 1.16487C21.3696 0.878987 21.0216 0.74134 20.7052 0.836634C20.336 0.942516 20.1146 1.21781 20.1146 1.64134C20.104 2.63663 20.104 3.63193 20.1146 4.62722C20.1146 5.12487 20.4415 5.47428 20.8739 5.48487C21.3485 5.49546 21.686 5.13546 21.686 4.60605C21.6755 4.1084 21.6755 3.61075 21.6755 3.12369ZM3.69308 3.12369C3.69308 3.62134 3.69308 4.12957 3.69308 4.62722C3.69308 5.11428 3.99894 5.46369 4.44191 5.47428C4.87433 5.49546 5.24347 5.15663 5.24347 4.68016C5.26456 3.6531 5.26456 2.61546 5.24347 1.5884C5.23292 1.11193 4.87433 0.773104 4.44191 0.783692C3.99894 0.804869 3.69308 1.14369 3.69308 1.63075C3.69308 2.13899 3.69308 2.63663 3.69308 3.12369Z" fill="#5FD3D1"/>
<path d="M24.532 14.3577C24.532 13.6166 24.532 12.9389 24.532 12.2613C24.532 12.1554 24.532 12.0495 24.5531 11.9436C24.6058 11.7213 24.743 11.6154 24.975 11.6365C25.1859 11.6577 25.3125 11.7848 25.323 11.9965C25.3336 12.3883 25.3336 12.7695 25.3336 13.1613C25.3336 13.7542 25.3441 14.3471 25.3336 14.9295C25.3336 15.0989 25.3758 15.226 25.4812 15.3636C26.6414 16.8671 27.1793 18.5718 26.9578 20.4565C26.6308 23.3683 25.091 25.433 22.3699 26.4918C18.9844 27.8048 15.3773 26.4389 13.5738 23.273C13.4789 23.1036 13.3629 23.0824 13.1941 23.0824C9.02812 23.0824 4.8621 23.0824 0.696091 23.0824C0.590622 23.0824 0.485153 23.0824 0.379684 23.0718C0.147653 23.0507 0.0316376 22.913 0.0105438 22.7013C-3.05264e-06 22.5742 -3.05241e-06 22.4577 -3.05241e-06 22.3307C-3.05241e-06 20.2448 -3.05241e-06 18.1483 -3.05241e-06 16.0624C-3.05241e-06 15.9671 -0.0105499 15.8613 0.0105438 15.7765C0.0527313 15.5754 0.189841 15.4483 0.400778 15.4589C0.611716 15.4695 0.738278 15.5965 0.780465 15.7977C0.791012 15.8824 0.791012 15.9777 0.791012 16.0624C0.791012 18.0424 0.791012 20.033 0.791012 22.013C0.791012 22.2354 0.843747 22.2883 1.06523 22.2883C4.98867 22.2777 8.90156 22.2777 12.825 22.2883C13.0781 22.2883 13.0887 22.2248 13.0254 22.013C12.382 19.9695 12.6035 18.0107 13.6476 16.1471C13.8164 15.8507 14.0906 15.766 14.291 15.9565C14.4914 16.1365 14.4492 16.3483 14.3226 16.5601C13.9746 17.1636 13.732 17.8095 13.5844 18.4977C12.8355 22.0236 15.293 25.5707 18.8367 26.1001C22.0008 26.566 24.8801 24.7871 25.9031 21.7377C27 18.466 25.1016 14.7283 21.8215 13.7224C19.459 12.9918 17.3285 13.4683 15.4828 15.1307C15.4195 15.1836 15.3668 15.2365 15.3035 15.2895C15.1031 15.4483 14.8816 15.4377 14.734 15.2683C14.5863 15.1095 14.5969 14.8766 14.7762 14.6966C15.0187 14.4424 15.293 14.2201 15.5777 14.0083C16.2527 13.5107 16.991 13.1295 17.8031 12.9071C17.993 12.8542 18.0457 12.7589 18.0351 12.5789C18.0246 11.9118 18.0246 11.2342 18.0351 10.5671C18.0351 10.186 18.1723 10.0377 18.5625 10.0377C19.3324 10.0377 20.1129 10.0271 20.8828 10.0377C21.2519 10.0377 21.3891 10.186 21.3996 10.5565C21.4101 11.2236 21.3996 11.9013 21.3996 12.5683C21.3996 12.6848 21.3891 12.7907 21.5473 12.8224C22.0851 12.9495 22.6019 13.1507 23.0976 13.4048C23.5933 13.6483 24.0469 13.9554 24.532 14.3577ZM19.6383 12.6001C19.9441 12.6001 20.1973 12.6001 20.4504 12.6001C20.5558 12.6001 20.6086 12.5683 20.6086 12.4518C20.6086 11.9648 20.6086 11.4883 20.6086 11.0013C20.6086 10.8742 20.5559 10.8318 20.4398 10.8318C19.9652 10.8318 19.4906 10.8318 19.016 10.8318C18.8789 10.8318 18.8262 10.8848 18.8367 11.0118C18.8473 11.2554 18.8367 11.5095 18.8367 11.753C18.8367 12.0283 18.7418 12.3883 18.8789 12.5471C19.0371 12.7165 19.4062 12.5683 19.6383 12.6001Z" fill="#5FD3D1"/>
<path d="M18.9211 22.7648C18.5625 22.7754 18.2672 22.6272 18.0246 22.3837C17.4234 21.7907 16.8222 21.1978 16.2316 20.5837C15.7254 20.0648 15.7254 19.3131 16.2105 18.826C16.6957 18.339 17.434 18.3601 17.9613 18.8684C18.225 19.1225 18.4886 19.3872 18.7418 19.6519C18.8789 19.8001 18.9527 19.8001 19.0898 19.6519C19.9547 18.7625 20.83 17.8837 21.716 17.0154C22.2644 16.4648 23.0343 16.4754 23.5195 17.0154C23.9097 17.4601 23.973 18.1378 23.5722 18.5613C22.3066 19.906 20.9882 21.2084 19.6593 22.4895C19.4484 22.7013 19.1847 22.7754 18.9211 22.7648ZM23.0132 17.8307C23.0027 17.6295 22.8972 17.5025 22.7074 17.4495C22.4859 17.386 22.3382 17.5131 22.2011 17.6507C21.2414 18.6142 20.2816 19.5884 19.3113 20.5519C18.9843 20.8801 18.8156 20.8801 18.4992 20.5625C18.13 20.1919 17.7609 19.8107 17.3812 19.4401C17.1703 19.239 16.9172 19.239 16.7484 19.419C16.5902 19.5884 16.6008 19.8319 16.8011 20.0331C17.3918 20.626 17.9718 21.219 18.573 21.8119C18.805 22.0342 19.016 22.0342 19.2375 21.8119C20.4504 20.6048 21.6527 19.3978 22.855 18.1801C22.95 18.0848 23.0238 17.979 23.0132 17.8307Z" fill="#5FD3D1"/>
<path d="M5.63203 13.3942C5.24179 13.3942 4.86211 13.3942 4.47187 13.3942C4.11328 13.3942 3.96562 13.2566 3.96562 12.9072C3.95507 12.1131 3.95507 11.3189 3.96562 10.5248C3.96562 10.186 4.11328 10.0272 4.44023 10.0272C5.24179 10.0166 6.04336 10.0166 6.83437 10.0272C7.17187 10.0272 7.31953 10.186 7.31953 10.5142C7.33007 11.3083 7.33007 12.1025 7.31953 12.8966C7.31953 13.246 7.17187 13.3836 6.81328 13.3942C6.42304 13.3942 6.03281 13.3942 5.63203 13.3942ZM6.52851 11.7213C6.52851 11.4883 6.51796 11.266 6.52851 11.033C6.53906 10.8742 6.48632 10.8107 6.31757 10.8107C5.86406 10.8213 5.41054 10.8213 4.94648 10.8107C4.80937 10.8107 4.73554 10.8425 4.74609 11.0013C4.75664 11.4672 4.75664 11.9331 4.74609 12.3989C4.74609 12.5366 4.78828 12.5789 4.92539 12.5789C5.4 12.5683 5.87461 12.5683 6.34921 12.5789C6.48632 12.5789 6.52851 12.526 6.52851 12.3883C6.52851 12.1872 6.52851 11.9542 6.52851 11.7213Z" fill="#5FD3D1"/>
<path d="M10.3359 13.3943C9.9457 13.3943 9.54492 13.3943 9.15468 13.3943C8.81718 13.3943 8.65898 13.2461 8.65898 12.9178C8.64843 12.1131 8.64843 11.3084 8.65898 10.5143C8.65898 10.1861 8.80664 10.0378 9.12304 10.0378C9.93515 10.0273 10.7367 10.0273 11.5488 10.0378C11.8652 10.0378 12.0129 10.1967 12.0234 10.5143C12.034 11.319 12.034 12.1237 12.0234 12.9178C12.0234 13.2567 11.8652 13.3943 11.5277 13.3943C11.1269 13.3943 10.7367 13.3943 10.3359 13.3943ZM11.2219 11.7214C11.2219 11.4884 11.2113 11.2661 11.2219 11.0331C11.2324 10.8743 11.1691 10.8108 11.0109 10.8214C10.5574 10.832 10.1039 10.832 9.63984 10.8214C9.49218 10.8214 9.43945 10.8637 9.43945 11.012C9.45 11.4778 9.45 11.9437 9.43945 12.4096C9.43945 12.5473 9.48164 12.5896 9.61874 12.5896C10.0934 12.579 10.568 12.579 11.0426 12.5896C11.1902 12.5896 11.2219 12.5367 11.2219 12.399C11.2219 12.1873 11.2219 11.9543 11.2219 11.7214Z" fill="#5FD3D1"/>
<path d="M15.0293 13.3943C14.6391 13.3943 14.2383 13.3943 13.848 13.3943C13.5105 13.3943 13.3629 13.2461 13.3523 12.9178C13.3523 12.1131 13.3523 11.3084 13.3523 10.5143C13.3523 10.1967 13.5 10.0378 13.8164 10.0378C14.6285 10.0273 15.4301 10.0273 16.2422 10.0378C16.5586 10.0378 16.7062 10.1967 16.7062 10.5143C16.7168 11.319 16.7168 12.1237 16.7062 12.9178C16.7062 13.2461 16.548 13.3943 16.2105 13.3943C15.8203 13.3943 15.4195 13.3943 15.0293 13.3943ZM15.9152 11.7531C15.9152 11.5096 15.9152 11.2555 15.9152 11.012C15.9152 10.8743 15.8625 10.8214 15.7254 10.8214C15.2613 10.8214 14.7973 10.8214 14.3332 10.8214C14.1855 10.8214 14.1328 10.8637 14.1328 11.0226C14.1434 11.4884 14.1434 11.9543 14.1328 12.4202C14.1328 12.5578 14.1855 12.6002 14.3121 12.6002C14.7762 12.5896 15.2402 12.5896 15.7043 12.6002C15.873 12.6002 15.9152 12.5367 15.9047 12.3884C15.9047 12.1767 15.9152 11.9649 15.9152 11.7531Z" fill="#5FD3D1"/>
<path d="M10.3359 18.9108C9.93515 18.9108 9.52382 18.9108 9.12304 18.9108C8.81718 18.9108 8.66953 18.7626 8.65898 18.4555C8.64843 17.6402 8.64843 16.8143 8.65898 15.999C8.65898 15.7026 8.81718 15.5649 9.10195 15.5543C9.92461 15.5437 10.7578 15.5437 11.5805 15.5543C11.8547 15.5543 12.0129 15.7026 12.0129 15.9779C12.0234 16.8143 12.0234 17.6508 12.0129 18.4873C12.0129 18.7626 11.8441 18.9002 11.5699 18.9002C11.1586 18.9108 10.7473 18.9108 10.3359 18.9108ZM10.3254 18.1061C10.5574 18.1061 10.7789 18.0955 11.0109 18.1061C11.1586 18.1167 11.2324 18.0743 11.2324 17.9049C11.2219 17.4496 11.2219 16.9837 11.2324 16.5284C11.2324 16.4014 11.2008 16.3379 11.0531 16.3379C10.5785 16.3484 10.1039 16.3484 9.62929 16.3379C9.48164 16.3379 9.45 16.3908 9.45 16.5284C9.46054 16.9837 9.46054 17.4496 9.45 17.9049C9.45 18.0743 9.51328 18.1167 9.67148 18.1061C9.88242 18.1061 10.1039 18.1061 10.3254 18.1061Z" fill="#5FD3D1"/>
<path d="M5.64257 18.9108C5.25234 18.9108 4.85156 18.9108 4.46132 18.9108C4.12382 18.9108 3.97617 18.7732 3.96562 18.4343C3.95507 17.6296 3.95507 16.8249 3.96562 16.0308C3.96562 15.7026 4.11328 15.5543 4.42968 15.5543C5.24179 15.5437 6.04335 15.5437 6.85546 15.5543C7.17187 15.5543 7.31953 15.7026 7.31953 16.0308C7.33007 16.8355 7.33007 17.6402 7.31953 18.4343C7.31953 18.7732 7.17187 18.9108 6.82382 18.9108C6.43359 18.9108 6.04335 18.9108 5.64257 18.9108ZM5.64257 16.3484C5.41054 16.3484 5.18906 16.359 4.95703 16.3484C4.80937 16.3484 4.75664 16.3802 4.75664 16.539C4.76718 16.9943 4.76718 17.4602 4.75664 17.9155C4.75664 18.0637 4.79882 18.1167 4.94648 18.1167C5.41054 18.1061 5.8746 18.1061 6.33867 18.1167C6.49687 18.1167 6.52851 18.0532 6.52851 17.9155C6.51796 17.4708 6.51796 17.0155 6.52851 16.5708C6.52851 16.412 6.48632 16.3484 6.31757 16.359C6.09609 16.359 5.8746 16.3484 5.64257 16.3484Z" fill="#5FD3D1"/>
</g>
<defs>
<clipPath id="clip0_0:556">
<rect width="27" height="27" fill="white"/>
</clipPath>
</defs>
</svg>
