<svg width="19" height="19" viewBox="0 0 19 19" fill="none" xmlns="http://www.w3.org/2000/svg">
<g clip-path="url(#clip0_0:485)">
<path d="M9.49126 19C5.00103 18.9926 1.07486 15.8383 0.206496 11.4223C-0.498582 7.84492 0.570168 4.78711 3.27915 2.33789C4.77095 0.994531 6.5522 0.267188 8.54868 0.0445313C8.85298 0.0148438 9.1647 0 9.47642 0C9.8772 0 10.1889 0.282031 10.2112 0.660547C10.2334 1.06875 9.98111 1.38789 9.56548 1.41758C9.00884 1.46211 8.4522 1.47695 7.9104 1.58828C6.49282 1.88516 5.23853 2.50117 4.16236 3.46602C2.72251 4.75 1.83189 6.33086 1.53501 8.22344C1.20845 10.3313 1.6315 12.298 2.85611 14.057C4.16978 15.9348 5.96587 17.1074 8.23697 17.4562C10.7381 17.8348 12.9647 17.1816 14.8647 15.4969C16.2897 14.2277 17.1432 12.6395 17.4624 10.7691C17.5292 10.3684 17.544 9.96016 17.5588 9.55195C17.5737 9.08437 17.8631 8.7875 18.2713 8.7875C18.6795 8.7875 18.9913 9.09922 18.9913 9.52227C18.9913 10.5094 18.8502 11.4816 18.5311 12.4168C17.5514 15.2742 15.6514 17.2707 12.8385 18.384C11.7698 18.807 10.6491 18.9926 9.49126 19Z" fill="#5FD3D1"/>
<path d="M4.51993 8.26806C4.53477 7.97118 4.66837 7.74853 4.94298 7.62978C5.22501 7.50361 5.4922 7.54814 5.71485 7.76337C5.9672 8.00829 6.19727 8.27548 6.43477 8.53525C7.19923 9.35908 7.96368 10.1903 8.72071 11.0216C8.83204 11.1477 8.88399 11.1403 9.00274 11.029C11.7859 8.24579 14.5691 5.47001 17.3524 2.69423C17.5602 2.48642 17.7828 2.3454 18.0945 2.40478C18.6141 2.50868 18.8516 3.10986 18.5324 3.5329C18.4879 3.5997 18.4285 3.65165 18.3692 3.71103C15.4004 6.67236 12.4242 9.64111 9.45548 12.6024C9.02501 13.0329 8.63165 13.0255 8.21602 12.5727C7.07305 11.3333 5.93009 10.0864 4.78712 8.84697C4.62384 8.68368 4.50509 8.50556 4.51993 8.26806Z" fill="#5FD3D1"/>
</g>
<defs>
<clipPath id="clip0_0:485">
<rect width="19" height="19" fill="white"/>
</clipPath>
</defs>
</svg>
