<svg width="458" height="459" viewBox="0 0 458 459" fill="none" xmlns="http://www.w3.org/2000/svg">
<path d="M458 229.818C458 356.292 355.473 458.818 229 458.818C102.527 458.818 0 356.292 0 229.818C0 103.345 102.527 0.818359 229 0.818359C355.473 0.818359 458 103.345 458 229.818Z" fill="#F3F6F9"/>
<path d="M143.28 290.495C142.612 290.495 142.013 290.351 141.485 290.063C140.965 289.775 140.556 289.38 140.259 288.878C139.962 288.368 139.813 287.792 139.813 287.15C139.813 286.509 139.962 285.937 140.259 285.435C140.556 284.925 140.965 284.53 141.485 284.25C142.013 283.962 142.612 283.818 143.28 283.818C143.875 283.818 144.403 283.938 144.865 284.176C145.336 284.415 145.699 284.76 145.955 285.213L145.051 285.793C144.845 285.48 144.589 285.246 144.283 285.089C143.978 284.933 143.639 284.855 143.268 284.855C142.839 284.855 142.451 284.95 142.104 285.139C141.766 285.328 141.497 285.6 141.299 285.953C141.109 286.299 141.014 286.698 141.014 287.15C141.014 287.611 141.109 288.018 141.299 288.372C141.497 288.718 141.766 288.985 142.104 289.174C142.451 289.363 142.839 289.458 143.268 289.458C143.639 289.458 143.978 289.38 144.283 289.224C144.589 289.067 144.845 288.833 145.051 288.52L145.955 289.088C145.699 289.54 145.336 289.89 144.865 290.137C144.403 290.375 143.875 290.495 143.28 290.495Z" fill="black"/>
<path d="M152.3 284.917H149.898V290.421H148.709V284.917H146.307V283.88H152.3V284.917Z" fill="black"/>
<path d="M155.856 283.818C156.764 283.818 157.457 284.04 157.936 284.485C158.423 284.929 158.667 285.591 158.667 286.472V290.421H157.54V289.557C157.342 289.861 157.057 290.096 156.686 290.26C156.322 290.417 155.889 290.495 155.386 290.495C154.651 290.495 154.061 290.318 153.615 289.964C153.177 289.61 152.959 289.145 152.959 288.57C152.959 287.994 153.169 287.533 153.59 287.187C154.011 286.834 154.68 286.657 155.596 286.657H157.478V286.422C157.478 285.912 157.33 285.521 157.032 285.25C156.735 284.978 156.298 284.843 155.72 284.843C155.332 284.843 154.952 284.908 154.581 285.04C154.209 285.164 153.896 285.332 153.64 285.546L153.144 284.658C153.483 284.386 153.887 284.18 154.358 284.04C154.828 283.892 155.328 283.818 155.856 283.818ZM155.584 289.582C156.038 289.582 156.43 289.483 156.76 289.285C157.09 289.08 157.33 288.792 157.478 288.421V287.508H155.646C154.638 287.508 154.135 287.846 154.135 288.52C154.135 288.849 154.263 289.108 154.519 289.298C154.775 289.487 155.13 289.582 155.584 289.582Z" fill="black"/>
<path d="M165.277 287.027C166.128 287.241 166.553 287.772 166.553 288.619C166.553 289.195 166.334 289.639 165.896 289.952C165.467 290.264 164.823 290.421 163.965 290.421H160.807V283.88H163.853C164.629 283.88 165.236 284.028 165.674 284.324C166.111 284.612 166.33 285.024 166.33 285.558C166.33 285.904 166.235 286.204 166.045 286.459C165.863 286.706 165.608 286.895 165.277 287.027ZM161.971 286.694H163.754C164.208 286.694 164.551 286.611 164.782 286.447C165.021 286.282 165.141 286.044 165.141 285.731C165.141 285.106 164.679 284.793 163.754 284.793H161.971V286.694ZM163.878 289.507C164.373 289.507 164.745 289.429 164.993 289.273C165.24 289.117 165.364 288.874 165.364 288.545C165.364 288.208 165.248 287.957 165.017 287.792C164.794 287.628 164.439 287.545 163.952 287.545H161.971V289.507H163.878Z" fill="black"/>
<path d="M173.676 283.88V290.421H172.611V288.347H170.704H170.568L169.131 290.421H167.856L169.453 288.187C168.958 288.039 168.578 287.796 168.314 287.459C168.05 287.113 167.918 286.686 167.918 286.175C167.918 285.427 168.174 284.859 168.686 284.472C169.197 284.078 169.903 283.88 170.803 283.88H173.676ZM169.131 286.212C169.131 286.649 169.268 286.973 169.54 287.187C169.821 287.393 170.238 287.496 170.791 287.496H172.611V284.917H170.84C169.701 284.917 169.131 285.349 169.131 286.212Z" fill="black"/>
<path d="M180.886 284.917H178.484V290.421H177.295V284.917H174.893V283.88H180.886V284.917Z" fill="black"/>
<path d="M185.427 283.88H186.616V286.657H190.355V283.88H191.544V290.421H190.355V287.681H186.616V290.421H185.427V283.88Z" fill="black"/>
<path d="M196.195 283.818C197.103 283.818 197.797 284.04 198.275 284.485C198.763 284.929 199.006 285.591 199.006 286.472V290.421H197.879V289.557C197.681 289.861 197.396 290.096 197.025 290.26C196.662 290.417 196.228 290.495 195.725 290.495C194.99 290.495 194.4 290.318 193.954 289.964C193.517 289.61 193.298 289.145 193.298 288.57C193.298 287.994 193.508 287.533 193.929 287.187C194.35 286.834 195.019 286.657 195.935 286.657H197.817V286.422C197.817 285.912 197.669 285.521 197.372 285.25C197.074 284.978 196.637 284.843 196.059 284.843C195.671 284.843 195.291 284.908 194.92 285.04C194.548 285.164 194.235 285.332 193.979 285.546L193.484 284.658C193.822 284.386 194.226 284.18 194.697 284.04C195.168 283.892 195.667 283.818 196.195 283.818ZM195.923 289.582C196.377 289.582 196.769 289.483 197.099 289.285C197.429 289.08 197.669 288.792 197.817 288.421V287.508H195.985C194.978 287.508 194.474 287.846 194.474 288.52C194.474 288.849 194.602 289.108 194.858 289.298C195.114 289.487 195.469 289.582 195.923 289.582Z" fill="black"/>
<path d="M201.147 283.88H202.335V288.644L206.359 283.88H207.437V290.421H206.248V285.657L202.236 290.421H201.147V283.88Z" fill="black"/>
<path d="M214.214 287.027C215.064 287.241 215.489 287.772 215.489 288.619C215.489 289.195 215.271 289.639 214.833 289.952C214.404 290.264 213.76 290.421 212.901 290.421H209.744V283.88H212.79C213.566 283.88 214.173 284.028 214.61 284.324C215.048 284.612 215.267 285.024 215.267 285.558C215.267 285.904 215.172 286.204 214.982 286.459C214.8 286.706 214.544 286.895 214.214 287.027ZM210.908 286.694H212.691C213.145 286.694 213.488 286.611 213.719 286.447C213.958 286.282 214.078 286.044 214.078 285.731C214.078 285.106 213.616 284.793 212.691 284.793H210.908V286.694ZM212.815 289.507C213.31 289.507 213.682 289.429 213.929 289.273C214.177 289.117 214.301 288.874 214.301 288.545C214.301 288.208 214.185 287.957 213.954 287.792C213.731 287.628 213.376 287.545 212.889 287.545H210.908V289.507H212.815Z" fill="black"/>
<path d="M220.309 286.101C221.135 286.11 221.766 286.299 222.204 286.669C222.641 287.039 222.86 287.562 222.86 288.236C222.86 288.944 222.621 289.491 222.142 289.878C221.671 290.256 220.994 290.441 220.111 290.433L217.35 290.421V283.88H218.539V286.089L220.309 286.101ZM223.838 283.88H225.027V290.421H223.838V283.88ZM220.024 289.532C220.561 289.54 220.966 289.433 221.238 289.211C221.519 288.989 221.659 288.66 221.659 288.224C221.659 287.796 221.523 287.484 221.25 287.286C220.978 287.089 220.569 286.986 220.024 286.978L218.539 286.953V289.52L220.024 289.532Z" fill="black"/>
<path d="M230.198 290.495C229.53 290.495 228.931 290.351 228.403 290.063C227.883 289.775 227.474 289.38 227.177 288.878C226.88 288.368 226.731 287.792 226.731 287.15C226.731 286.509 226.88 285.937 227.177 285.435C227.474 284.925 227.883 284.53 228.403 284.25C228.931 283.962 229.53 283.818 230.198 283.818C230.793 283.818 231.321 283.938 231.783 284.176C232.254 284.415 232.617 284.76 232.873 285.213L231.969 285.793C231.763 285.48 231.507 285.246 231.201 285.089C230.896 284.933 230.557 284.855 230.186 284.855C229.757 284.855 229.369 284.95 229.022 285.139C228.684 285.328 228.415 285.6 228.217 285.953C228.027 286.299 227.932 286.698 227.932 287.15C227.932 287.611 228.027 288.018 228.217 288.372C228.415 288.718 228.684 288.985 229.022 289.174C229.369 289.363 229.757 289.458 230.186 289.458C230.557 289.458 230.896 289.38 231.201 289.224C231.507 289.067 231.763 288.833 231.969 288.52L232.873 289.088C232.617 289.54 232.254 289.89 231.783 290.137C231.321 290.375 230.793 290.495 230.198 290.495Z" fill="black"/>
<path d="M243.76 283.88V290.421H234.412V283.88H235.601V289.384H238.498V283.88H239.687V289.384H242.572V283.88H243.76Z" fill="black"/>
<path d="M251.925 283.88L248.743 291.075C248.463 291.741 248.132 292.21 247.753 292.482C247.381 292.753 246.931 292.889 246.403 292.889C246.081 292.889 245.767 292.835 245.462 292.728C245.165 292.63 244.917 292.482 244.719 292.284L245.227 291.396C245.565 291.716 245.957 291.877 246.403 291.877C246.692 291.877 246.931 291.799 247.121 291.642C247.319 291.494 247.497 291.235 247.654 290.865L247.864 290.408L244.967 283.88H246.205L248.496 289.113L250.762 283.88H251.925Z" fill="black"/>
<path d="M258.95 283.818C259.585 283.818 260.155 283.962 260.659 284.25C261.162 284.53 261.558 284.925 261.847 285.435C262.136 285.937 262.281 286.509 262.281 287.15C262.281 287.792 262.136 288.368 261.847 288.878C261.558 289.38 261.162 289.775 260.659 290.063C260.155 290.351 259.585 290.495 258.95 290.495C258.372 290.495 257.848 290.375 257.377 290.137C256.907 289.898 256.519 289.565 256.213 289.137C255.916 288.701 255.73 288.208 255.656 287.656H254.331V290.421H253.143V283.88H254.331V286.558H255.668C255.751 286.015 255.941 285.538 256.238 285.126C256.544 284.707 256.927 284.386 257.39 284.164C257.86 283.934 258.38 283.818 258.95 283.818ZM258.95 289.458C259.354 289.458 259.717 289.363 260.039 289.174C260.37 288.985 260.63 288.718 260.82 288.372C261.009 288.018 261.104 287.611 261.104 287.15C261.104 286.698 261.009 286.299 260.82 285.953C260.63 285.6 260.37 285.328 260.039 285.139C259.717 284.95 259.354 284.855 258.95 284.855C258.545 284.855 258.178 284.95 257.848 285.139C257.518 285.328 257.258 285.6 257.068 285.953C256.886 286.299 256.795 286.698 256.795 287.15C256.795 287.611 256.886 288.018 257.068 288.372C257.258 288.718 257.518 288.985 257.848 289.174C258.178 289.363 258.545 289.458 258.95 289.458Z" fill="black"/>
<path d="M270.125 290.495C269.473 290.495 268.887 290.351 268.367 290.063C267.847 289.775 267.438 289.38 267.141 288.878C266.852 288.368 266.708 287.792 266.708 287.15C266.708 286.509 266.852 285.937 267.141 285.435C267.438 284.925 267.847 284.53 268.367 284.25C268.887 283.962 269.473 283.818 270.125 283.818C270.777 283.818 271.359 283.962 271.871 284.25C272.391 284.53 272.796 284.925 273.085 285.435C273.382 285.937 273.53 286.509 273.53 287.15C273.53 287.792 273.382 288.368 273.085 288.878C272.796 289.38 272.391 289.775 271.871 290.063C271.359 290.351 270.777 290.495 270.125 290.495ZM270.125 289.458C270.546 289.458 270.922 289.363 271.252 289.174C271.59 288.977 271.855 288.705 272.044 288.36C272.234 288.006 272.329 287.603 272.329 287.15C272.329 286.698 272.234 286.299 272.044 285.953C271.855 285.6 271.59 285.328 271.252 285.139C270.922 284.95 270.546 284.855 270.125 284.855C269.704 284.855 269.324 284.95 268.986 285.139C268.656 285.328 268.392 285.6 268.194 285.953C268.004 286.299 267.909 286.698 267.909 287.15C267.909 287.603 268.004 288.006 268.194 288.36C268.392 288.705 268.656 288.977 268.986 289.174C269.324 289.363 269.704 289.458 270.125 289.458Z" fill="black"/>
<path d="M282.255 289.384V291.988H281.128V290.421H275.247V283.88H276.436V289.384H280.026V283.88H281.215V289.384H282.255Z" fill="black"/>
<path d="M289.727 287.187C289.727 287.278 289.719 287.397 289.702 287.545H284.378C284.452 288.121 284.704 288.586 285.133 288.94C285.571 289.285 286.111 289.458 286.755 289.458C287.54 289.458 288.171 289.195 288.65 288.668L289.306 289.433C289.009 289.779 288.637 290.042 288.192 290.223C287.754 290.404 287.263 290.495 286.718 290.495C286.025 290.495 285.41 290.355 284.873 290.075C284.337 289.787 283.92 289.388 283.623 288.878C283.334 288.368 283.189 287.792 283.189 287.15C283.189 286.517 283.33 285.945 283.61 285.435C283.899 284.925 284.291 284.53 284.787 284.25C285.29 283.962 285.856 283.818 286.483 283.818C287.11 283.818 287.667 283.962 288.155 284.25C288.65 284.53 289.034 284.925 289.306 285.435C289.587 285.945 289.727 286.529 289.727 287.187ZM286.483 284.818C285.913 284.818 285.435 284.991 285.047 285.336C284.667 285.682 284.444 286.134 284.378 286.694H288.588C288.522 286.143 288.295 285.694 287.907 285.349C287.527 284.995 287.052 284.818 286.483 284.818Z" fill="black"/>
<path d="M291.571 283.88H292.76V286.657H296.499V283.88H297.688V290.421H296.499V287.681H292.76V290.421H291.571V283.88Z" fill="black"/>
<path d="M302.55 287.656H301.188V290.421H299.999V283.88H301.188V286.644H302.575L304.705 283.88H305.98L303.491 287.027L306.153 290.421H304.754L302.55 287.656Z" fill="black"/>
<path d="M312.882 283.88L309.699 291.075C309.419 291.741 309.089 292.21 308.709 292.482C308.337 292.753 307.887 292.889 307.359 292.889C307.037 292.889 306.724 292.835 306.418 292.728C306.121 292.63 305.873 292.482 305.675 292.284L306.183 291.396C306.521 291.716 306.913 291.877 307.359 291.877C307.648 291.877 307.887 291.799 308.077 291.642C308.275 291.494 308.453 291.235 308.61 290.865L308.82 290.408L305.923 283.88H307.161L309.452 289.113L311.718 283.88H312.882Z" fill="black"/>
<path d="M111 305.036H112.189V307.812H115.928V305.036H117.117V311.576H115.928V308.837H112.189V311.576H111V305.036Z" fill="black"/>
<path d="M121.768 304.974C122.676 304.974 123.37 305.196 123.849 305.64C124.336 306.085 124.579 306.747 124.579 307.627V311.576H123.452V310.712C123.254 311.017 122.97 311.251 122.598 311.416C122.235 311.572 121.801 311.65 121.298 311.65C120.563 311.65 119.973 311.473 119.527 311.12C119.09 310.766 118.871 310.301 118.871 309.725C118.871 309.149 119.081 308.689 119.502 308.343C119.923 307.989 120.592 307.812 121.508 307.812H123.391V307.578C123.391 307.068 123.242 306.677 122.945 306.406C122.648 306.134 122.21 305.998 121.632 305.998C121.244 305.998 120.865 306.064 120.493 306.196C120.122 306.319 119.808 306.488 119.552 306.702L119.057 305.813C119.395 305.542 119.8 305.336 120.27 305.196C120.741 305.048 121.24 304.974 121.768 304.974ZM121.496 310.737C121.95 310.737 122.342 310.638 122.672 310.441C123.003 310.235 123.242 309.947 123.391 309.577V308.664H121.558C120.551 308.664 120.047 309.001 120.047 309.676C120.047 310.005 120.175 310.264 120.431 310.453C120.687 310.643 121.042 310.737 121.496 310.737Z" fill="black"/>
<path d="M136.068 305.036V311.576H126.72V305.036H127.908V310.54H130.806V305.036H131.995V310.54H134.88V305.036H136.068Z" fill="black"/>
<path d="M144.308 308.343C144.308 308.434 144.299 308.553 144.283 308.701H138.958C139.033 309.277 139.285 309.742 139.714 310.095C140.151 310.441 140.692 310.614 141.336 310.614C142.12 310.614 142.752 310.35 143.23 309.824L143.887 310.589C143.589 310.935 143.218 311.198 142.772 311.379C142.335 311.56 141.844 311.65 141.299 311.65C140.605 311.65 139.99 311.511 139.454 311.231C138.917 310.943 138.5 310.544 138.203 310.034C137.914 309.524 137.77 308.948 137.77 308.306C137.77 307.673 137.91 307.101 138.191 306.591C138.48 306.081 138.872 305.686 139.367 305.406C139.871 305.118 140.436 304.974 141.063 304.974C141.691 304.974 142.248 305.118 142.735 305.406C143.23 305.686 143.614 306.081 143.887 306.591C144.167 307.101 144.308 307.685 144.308 308.343ZM141.063 305.974C140.494 305.974 140.015 306.146 139.627 306.492C139.247 306.837 139.024 307.29 138.958 307.849H143.168C143.102 307.298 142.875 306.85 142.487 306.504C142.108 306.15 141.633 305.974 141.063 305.974Z" fill="black"/>
<path d="M146.152 305.036H147.34V309.799L151.365 305.036H152.442V311.576H151.253V306.813L147.241 311.576H146.152V305.036ZM149.223 304.184C148.612 304.184 148.137 304.04 147.799 303.752C147.46 303.456 147.287 303.032 147.278 302.481H148.083C148.092 302.786 148.195 303.032 148.393 303.222C148.599 303.403 148.872 303.493 149.21 303.493C149.549 303.493 149.821 303.403 150.027 303.222C150.234 303.032 150.341 302.786 150.349 302.481H151.179C151.171 303.032 150.993 303.456 150.646 303.752C150.3 304.04 149.825 304.184 149.223 304.184Z" fill="black"/>
<path d="M164.749 310.54V313.094H163.634V311.576H158.149V313.094H157.022V310.54H157.369C157.79 310.515 158.079 310.219 158.235 309.651C158.392 309.083 158.5 308.281 158.557 307.245L158.656 305.036H163.746V310.54H164.749ZM159.647 307.331C159.614 308.154 159.544 308.837 159.437 309.38C159.337 309.914 159.152 310.301 158.879 310.54H162.557V306.072H159.709L159.647 307.331Z" fill="black"/>
<path d="M169.108 311.65C168.456 311.65 167.87 311.506 167.35 311.218C166.83 310.93 166.421 310.536 166.124 310.034C165.835 309.524 165.69 308.948 165.69 308.306C165.69 307.664 165.835 307.093 166.124 306.591C166.421 306.081 166.83 305.686 167.35 305.406C167.87 305.118 168.456 304.974 169.108 304.974C169.76 304.974 170.342 305.118 170.854 305.406C171.374 305.686 171.778 306.081 172.067 306.591C172.364 307.093 172.513 307.664 172.513 308.306C172.513 308.948 172.364 309.524 172.067 310.034C171.778 310.536 171.374 310.93 170.854 311.218C170.342 311.506 169.76 311.65 169.108 311.65ZM169.108 310.614C169.529 310.614 169.904 310.519 170.235 310.33C170.573 310.132 170.837 309.861 171.027 309.515C171.217 309.162 171.312 308.759 171.312 308.306C171.312 307.854 171.217 307.455 171.027 307.109C170.837 306.755 170.573 306.484 170.235 306.294C169.904 306.105 169.529 306.011 169.108 306.011C168.687 306.011 168.307 306.105 167.969 306.294C167.639 306.484 167.374 306.755 167.176 307.109C166.986 307.455 166.891 307.854 166.891 308.306C166.891 308.759 166.986 309.162 167.176 309.515C167.374 309.861 167.639 310.132 167.969 310.33C168.307 310.519 168.687 310.614 169.108 310.614Z" fill="black"/>
<path d="M177.09 311.65C176.421 311.65 175.823 311.506 175.294 311.218C174.774 310.93 174.366 310.536 174.069 310.034C173.771 309.524 173.623 308.948 173.623 308.306C173.623 307.664 173.771 307.093 174.069 306.591C174.366 306.081 174.774 305.686 175.294 305.406C175.823 305.118 176.421 304.974 177.09 304.974C177.684 304.974 178.213 305.093 178.675 305.332C179.145 305.57 179.509 305.916 179.764 306.369L178.861 306.949C178.654 306.636 178.398 306.401 178.093 306.245C177.787 306.089 177.449 306.011 177.077 306.011C176.648 306.011 176.26 306.105 175.914 306.294C175.575 306.484 175.307 306.755 175.109 307.109C174.919 307.455 174.824 307.854 174.824 308.306C174.824 308.767 174.919 309.174 175.109 309.528C175.307 309.873 175.575 310.141 175.914 310.33C176.26 310.519 176.648 310.614 177.077 310.614C177.449 310.614 177.787 310.536 178.093 310.379C178.398 310.223 178.654 309.988 178.861 309.676L179.764 310.244C179.509 310.696 179.145 311.046 178.675 311.292C178.213 311.531 177.684 311.65 177.09 311.65Z" fill="black"/>
<path d="M186.11 306.072H183.708V311.576H182.519V306.072H180.117V305.036H186.11V306.072Z" fill="black"/>
<path d="M189.666 304.974C190.574 304.974 191.267 305.196 191.746 305.64C192.233 306.085 192.476 306.747 192.476 307.627V311.576H191.35V310.712C191.151 311.017 190.867 311.251 190.495 311.416C190.132 311.572 189.699 311.65 189.195 311.65C188.46 311.65 187.87 311.473 187.424 311.12C186.987 310.766 186.768 310.301 186.768 309.725C186.768 309.149 186.979 308.689 187.4 308.343C187.821 307.989 188.489 307.812 189.405 307.812H191.288V307.578C191.288 307.068 191.139 306.677 190.842 306.406C190.545 306.134 190.107 305.998 189.529 305.998C189.141 305.998 188.762 306.064 188.39 306.196C188.019 306.319 187.705 306.488 187.449 306.702L186.954 305.813C187.292 305.542 187.697 305.336 188.167 305.196C188.638 305.048 189.137 304.974 189.666 304.974ZM189.393 310.737C189.847 310.737 190.239 310.638 190.569 310.441C190.9 310.235 191.139 309.947 191.288 309.577V308.664H189.455C188.448 308.664 187.944 309.001 187.944 309.676C187.944 310.005 188.072 310.264 188.328 310.453C188.584 310.643 188.939 310.737 189.393 310.737Z" fill="black"/>
<path d="M199.087 308.183C199.937 308.397 200.362 308.927 200.362 309.775C200.362 310.35 200.143 310.795 199.706 311.107C199.277 311.42 198.633 311.576 197.774 311.576H194.617V305.036H197.663C198.439 305.036 199.046 305.184 199.483 305.48C199.921 305.768 200.139 306.179 200.139 306.714C200.139 307.06 200.044 307.36 199.854 307.615C199.673 307.862 199.417 308.051 199.087 308.183ZM195.781 307.849H197.564C198.018 307.849 198.36 307.767 198.592 307.603C198.831 307.438 198.951 307.199 198.951 306.887C198.951 306.262 198.488 305.949 197.564 305.949H195.781V307.849ZM197.688 310.663C198.183 310.663 198.554 310.585 198.802 310.429C199.05 310.272 199.173 310.03 199.173 309.701C199.173 309.363 199.058 309.112 198.827 308.948C198.604 308.783 198.249 308.701 197.762 308.701H195.781V310.663H197.688Z" fill="black"/>
<path d="M204.773 308.812H203.411V311.576H202.223V305.036H203.411V307.8H204.798L206.928 305.036H208.203L205.715 308.183L208.377 311.576H206.978L204.773 308.812Z" fill="black"/>
<path d="M215.337 308.343C215.337 308.434 215.328 308.553 215.312 308.701H209.987C210.062 309.277 210.313 309.742 210.743 310.095C211.18 310.441 211.721 310.614 212.365 310.614C213.149 310.614 213.78 310.35 214.259 309.824L214.916 310.589C214.618 310.935 214.247 311.198 213.801 311.379C213.364 311.56 212.872 311.65 212.328 311.65C211.634 311.65 211.019 311.511 210.483 311.231C209.946 310.943 209.529 310.544 209.232 310.034C208.943 309.524 208.799 308.948 208.799 308.306C208.799 307.673 208.939 307.101 209.22 306.591C209.509 306.081 209.901 305.686 210.396 305.406C210.9 305.118 211.465 304.974 212.092 304.974C212.72 304.974 213.277 305.118 213.764 305.406C214.259 305.686 214.643 306.081 214.916 306.591C215.196 307.101 215.337 307.685 215.337 308.343ZM212.092 305.974C211.523 305.974 211.044 306.146 210.656 306.492C210.276 306.837 210.053 307.29 209.987 307.849H214.197C214.131 307.298 213.904 306.85 213.516 306.504C213.137 306.15 212.662 305.974 212.092 305.974Z" fill="black"/>
<path d="M217.453 309.96C217.684 309.96 217.874 310.042 218.023 310.206C218.179 310.363 218.258 310.56 218.258 310.799C218.258 310.922 218.241 311.042 218.208 311.157C218.184 311.272 218.13 311.449 218.047 311.687L217.465 313.403H216.685L217.143 311.564C216.987 311.506 216.859 311.412 216.76 311.28C216.669 311.14 216.623 310.98 216.623 310.799C216.623 310.552 216.702 310.35 216.859 310.194C217.016 310.038 217.214 309.96 217.453 309.96Z" fill="black"/>
<path d="M229.985 310.54V313.094H228.871V311.576H223.386V313.094H222.259V310.54H222.606C223.027 310.515 223.315 310.219 223.472 309.651C223.629 309.083 223.736 308.281 223.794 307.245L223.893 305.036H228.982V310.54H229.985ZM224.884 307.331C224.851 308.154 224.781 308.837 224.673 309.38C224.574 309.914 224.389 310.301 224.116 310.54H227.794V306.072H224.946L224.884 307.331Z" fill="black"/>
<path d="M237.465 308.343C237.465 308.434 237.457 308.553 237.44 308.701H232.116C232.19 309.277 232.442 309.742 232.871 310.095C233.309 310.441 233.849 310.614 234.493 310.614C235.278 310.614 235.909 310.35 236.388 309.824L237.044 310.589C236.747 310.935 236.375 311.198 235.93 311.379C235.492 311.56 235.001 311.65 234.456 311.65C233.763 311.65 233.148 311.511 232.611 311.231C232.075 310.943 231.658 310.544 231.361 310.034C231.072 309.524 230.927 308.948 230.927 308.306C230.927 307.673 231.068 307.101 231.348 306.591C231.637 306.081 232.029 305.686 232.525 305.406C233.028 305.118 233.594 304.974 234.221 304.974C234.848 304.974 235.405 305.118 235.893 305.406C236.388 305.686 236.772 306.081 237.044 306.591C237.325 307.101 237.465 307.685 237.465 308.343ZM234.221 305.974C233.651 305.974 233.173 306.146 232.785 306.492C232.405 306.837 232.182 307.29 232.116 307.849H236.326C236.26 307.298 236.033 306.85 235.645 306.504C235.265 306.15 234.79 305.974 234.221 305.974Z" fill="black"/>
<path d="M244.834 305.036V311.576H243.646V306.072H240.822L240.748 307.529C240.707 308.409 240.628 309.145 240.513 309.738C240.397 310.322 240.207 310.791 239.943 311.144C239.679 311.498 239.312 311.675 238.841 311.675C238.627 311.675 238.383 311.638 238.111 311.564L238.185 310.564C238.292 310.589 238.391 310.601 238.482 310.601C238.812 310.601 239.06 310.457 239.225 310.169C239.39 309.882 239.497 309.54 239.547 309.145C239.597 308.75 239.642 308.187 239.683 307.455L239.795 305.036H244.834Z" fill="black"/>
<path d="M249.473 304.974C250.381 304.974 251.074 305.196 251.553 305.64C252.04 306.085 252.284 306.747 252.284 307.627V311.576H251.157V310.712C250.959 311.017 250.674 311.251 250.303 311.416C249.939 311.572 249.506 311.65 249.002 311.65C248.268 311.65 247.678 311.473 247.232 311.12C246.794 310.766 246.576 310.301 246.576 309.725C246.576 309.149 246.786 308.689 247.207 308.343C247.628 307.989 248.297 307.812 249.213 307.812H251.095V307.578C251.095 307.068 250.946 306.677 250.649 306.406C250.352 306.134 249.915 305.998 249.337 305.998C248.949 305.998 248.569 306.064 248.198 306.196C247.826 306.319 247.512 306.488 247.257 306.702L246.761 305.813C247.1 305.542 247.504 305.336 247.975 305.196C248.445 305.048 248.945 304.974 249.473 304.974ZM249.201 310.737C249.655 310.737 250.047 310.638 250.377 310.441C250.707 310.235 250.946 309.947 251.095 309.577V308.664H249.262C248.255 308.664 247.752 309.001 247.752 309.676C247.752 310.005 247.88 310.264 248.136 310.453C248.392 310.643 248.747 310.737 249.201 310.737Z" fill="black"/>
<path d="M260.232 304.974C260.867 304.974 261.437 305.118 261.94 305.406C262.444 305.686 262.84 306.081 263.129 306.591C263.418 307.093 263.562 307.664 263.562 308.306C263.562 308.948 263.418 309.524 263.129 310.034C262.84 310.536 262.444 310.93 261.94 311.218C261.437 311.506 260.867 311.65 260.232 311.65C259.654 311.65 259.13 311.531 258.659 311.292C258.188 311.054 257.801 310.721 257.495 310.293C257.198 309.857 257.012 309.363 256.938 308.812H255.613V311.576H254.424V305.036H255.613V307.714H256.95C257.033 307.171 257.223 306.693 257.52 306.282C257.825 305.863 258.209 305.542 258.671 305.32C259.142 305.089 259.662 304.974 260.232 304.974ZM260.232 310.614C260.636 310.614 260.999 310.519 261.321 310.33C261.651 310.141 261.911 309.873 262.101 309.528C262.291 309.174 262.386 308.767 262.386 308.306C262.386 307.854 262.291 307.455 262.101 307.109C261.911 306.755 261.651 306.484 261.321 306.294C260.999 306.105 260.636 306.011 260.232 306.011C259.827 306.011 259.46 306.105 259.13 306.294C258.799 306.484 258.539 306.755 258.349 307.109C258.168 307.455 258.077 307.854 258.077 308.306C258.077 308.767 258.168 309.174 258.349 309.528C258.539 309.873 258.799 310.141 259.13 310.33C259.46 310.519 259.827 310.614 260.232 310.614Z" fill="black"/>
<path d="M269.92 306.072H267.518V311.576H266.329V306.072H263.927V305.036H269.92V306.072Z" fill="black"/>
<path d="M280.541 305.036V311.576H279.352V306.072H275.65V311.576H274.461V305.036H280.541Z" fill="black"/>
<path d="M285.651 311.65C284.999 311.65 284.413 311.506 283.893 311.218C283.373 310.93 282.964 310.536 282.667 310.034C282.378 309.524 282.234 308.948 282.234 308.306C282.234 307.664 282.378 307.093 282.667 306.591C282.964 306.081 283.373 305.686 283.893 305.406C284.413 305.118 284.999 304.974 285.651 304.974C286.304 304.974 286.886 305.118 287.397 305.406C287.917 305.686 288.322 306.081 288.611 306.591C288.908 307.093 289.057 307.664 289.057 308.306C289.057 308.948 288.908 309.524 288.611 310.034C288.322 310.536 287.917 310.93 287.397 311.218C286.886 311.506 286.304 311.65 285.651 311.65ZM285.651 310.614C286.072 310.614 286.448 310.519 286.778 310.33C287.117 310.132 287.381 309.861 287.571 309.515C287.761 309.162 287.855 308.759 287.855 308.306C287.855 307.854 287.761 307.455 287.571 307.109C287.381 306.755 287.117 306.484 286.778 306.294C286.448 306.105 286.072 306.011 285.651 306.011C285.23 306.011 284.851 306.105 284.512 306.294C284.182 306.484 283.918 306.755 283.72 307.109C283.53 307.455 283.435 307.854 283.435 308.306C283.435 308.759 283.53 309.162 283.72 309.515C283.918 309.861 284.182 310.132 284.512 310.33C284.851 310.519 285.23 310.614 285.651 310.614Z" fill="black"/>
<path d="M295.243 308.183C296.093 308.397 296.518 308.927 296.518 309.775C296.518 310.35 296.3 310.795 295.862 311.107C295.433 311.42 294.789 311.576 293.931 311.576H290.773V305.036H293.819C294.595 305.036 295.202 305.184 295.639 305.48C296.077 305.768 296.296 306.179 296.296 306.714C296.296 307.06 296.201 307.36 296.011 307.615C295.829 307.862 295.573 308.051 295.243 308.183ZM291.937 307.849H293.72C294.174 307.849 294.517 307.767 294.748 307.603C294.987 307.438 295.107 307.199 295.107 306.887C295.107 306.262 294.645 305.949 293.72 305.949H291.937V307.849ZM293.844 310.663C294.339 310.663 294.711 310.585 294.958 310.429C295.206 310.272 295.33 310.03 295.33 309.701C295.33 309.363 295.214 309.112 294.983 308.948C294.76 308.783 294.405 308.701 293.918 308.701H291.937V310.663H293.844Z" fill="black"/>
<path d="M303.27 306.072H300.868V311.576H299.679V306.072H297.277V305.036H303.27V306.072Z" fill="black"/>
<path d="M307.006 311.65C306.354 311.65 305.768 311.506 305.248 311.218C304.728 310.93 304.319 310.536 304.022 310.034C303.733 309.524 303.589 308.948 303.589 308.306C303.589 307.664 303.733 307.093 304.022 306.591C304.319 306.081 304.728 305.686 305.248 305.406C305.768 305.118 306.354 304.974 307.006 304.974C307.658 304.974 308.24 305.118 308.752 305.406C309.272 305.686 309.677 306.081 309.965 306.591C310.263 307.093 310.411 307.664 310.411 308.306C310.411 308.948 310.263 309.524 309.965 310.034C309.677 310.536 309.272 310.93 308.752 311.218C308.24 311.506 307.658 311.65 307.006 311.65ZM307.006 310.614C307.427 310.614 307.803 310.519 308.133 310.33C308.471 310.132 308.735 309.861 308.925 309.515C309.115 309.162 309.21 308.759 309.21 308.306C309.21 307.854 309.115 307.455 308.925 307.109C308.735 306.755 308.471 306.484 308.133 306.294C307.803 306.105 307.427 306.011 307.006 306.011C306.585 306.011 306.205 306.105 305.867 306.294C305.537 306.484 305.273 306.755 305.074 307.109C304.885 307.455 304.79 307.854 304.79 308.306C304.79 308.759 304.885 309.162 305.074 309.515C305.273 309.861 305.537 310.132 305.867 310.33C306.205 310.519 306.585 310.614 307.006 310.614Z" fill="black"/>
<path d="M315.607 304.974C316.243 304.974 316.812 305.114 317.316 305.394C317.819 305.673 318.212 306.064 318.492 306.566C318.781 307.068 318.926 307.648 318.926 308.306C318.926 308.964 318.781 309.548 318.492 310.058C318.212 310.56 317.819 310.951 317.316 311.231C316.812 311.511 316.243 311.65 315.607 311.65C315.137 311.65 314.703 311.56 314.307 311.379C313.919 311.198 313.589 310.935 313.316 310.589V313.97H312.128V305.036H313.267V306.072C313.531 305.71 313.865 305.439 314.27 305.258C314.674 305.069 315.12 304.974 315.607 304.974ZM315.508 310.614C315.929 310.614 316.305 310.519 316.635 310.33C316.973 310.132 317.237 309.861 317.427 309.515C317.625 309.162 317.725 308.759 317.725 308.306C317.725 307.854 317.625 307.455 317.427 307.109C317.237 306.755 316.973 306.484 316.635 306.294C316.305 306.105 315.929 306.011 315.508 306.011C315.095 306.011 314.72 306.109 314.381 306.307C314.051 306.496 313.787 306.763 313.589 307.109C313.399 307.455 313.304 307.854 313.304 308.306C313.304 308.759 313.399 309.162 313.589 309.515C313.779 309.861 314.043 310.132 314.381 310.33C314.72 310.519 315.095 310.614 315.508 310.614Z" fill="black"/>
<path d="M320.653 305.036H321.841V307.812H325.581V305.036H326.769V311.576H325.581V308.837H321.841V311.576H320.653V305.036Z" fill="black"/>
<path d="M332.04 307.257C332.866 307.265 333.497 307.455 333.935 307.825C334.372 308.195 334.591 308.717 334.591 309.392C334.591 310.1 334.352 310.647 333.873 311.033C333.402 311.412 332.725 311.597 331.842 311.589L329.081 311.576V305.036H330.27V307.245L332.04 307.257ZM335.569 305.036H336.758V311.576H335.569V305.036ZM331.755 310.688C332.292 310.696 332.696 310.589 332.969 310.367C333.25 310.145 333.39 309.816 333.39 309.38C333.39 308.952 333.254 308.639 332.981 308.442C332.709 308.244 332.3 308.141 331.755 308.133L330.27 308.109V310.675L331.755 310.688Z" fill="black"/>
<path d="M345 308.343C345 308.434 344.992 308.553 344.975 308.701H339.651C339.725 309.277 339.977 309.742 340.406 310.095C340.844 310.441 341.384 310.614 342.028 310.614C342.812 310.614 343.444 310.35 343.923 309.824L344.579 310.589C344.282 310.935 343.91 311.198 343.465 311.379C343.027 311.56 342.536 311.65 341.991 311.65C341.298 311.65 340.683 311.511 340.146 311.231C339.61 310.943 339.193 310.544 338.896 310.034C338.607 309.524 338.462 308.948 338.462 308.306C338.462 307.673 338.602 307.101 338.883 306.591C339.172 306.081 339.564 305.686 340.059 305.406C340.563 305.118 341.128 304.974 341.756 304.974C342.383 304.974 342.94 305.118 343.427 305.406C343.923 305.686 344.307 306.081 344.579 306.591C344.86 307.101 345 307.685 345 308.343ZM341.756 305.974C341.186 305.974 340.707 306.146 340.319 306.492C339.94 306.837 339.717 307.29 339.651 307.849H343.861C343.795 307.298 343.568 306.85 343.18 306.504C342.8 306.15 342.325 305.974 341.756 305.974Z" fill="black"/>
<path d="M119.614 329.326C120.052 329.441 120.39 329.626 120.63 329.881C120.869 330.136 120.989 330.453 120.989 330.831C120.989 331.218 120.857 331.564 120.592 331.868C120.328 332.164 119.961 332.399 119.49 332.572C119.028 332.736 118.508 332.818 117.93 332.818C117.443 332.818 116.964 332.757 116.494 332.633C116.032 332.502 115.619 332.317 115.256 332.078L115.615 331.177C115.928 331.374 116.288 331.531 116.692 331.646C117.097 331.753 117.505 331.806 117.918 331.806C118.479 331.806 118.925 331.712 119.255 331.523C119.594 331.325 119.763 331.062 119.763 330.733C119.763 330.428 119.627 330.194 119.354 330.029C119.09 329.865 118.714 329.783 118.227 329.783H117.026V328.931H118.141C118.587 328.931 118.937 328.853 119.193 328.697C119.449 328.54 119.577 328.326 119.577 328.055C119.577 327.759 119.424 327.528 119.119 327.364C118.822 327.199 118.417 327.117 117.906 327.117C117.253 327.117 116.564 327.286 115.838 327.623L115.516 326.71C116.316 326.307 117.154 326.105 118.029 326.105C118.558 326.105 119.032 326.179 119.453 326.327C119.874 326.475 120.204 326.685 120.444 326.956C120.683 327.228 120.803 327.536 120.803 327.882C120.803 328.203 120.696 328.491 120.481 328.746C120.266 329.001 119.977 329.194 119.614 329.326Z" fill="black"/>
<path d="M125.136 326.13C126.044 326.13 126.738 326.352 127.216 326.796C127.703 327.24 127.947 327.903 127.947 328.783V332.732H126.82V331.868C126.622 332.173 126.337 332.407 125.966 332.572C125.602 332.728 125.169 332.806 124.666 332.806C123.931 332.806 123.341 332.629 122.895 332.275C122.457 331.922 122.239 331.457 122.239 330.881C122.239 330.305 122.449 329.844 122.87 329.499C123.291 329.145 123.96 328.968 124.876 328.968H126.758V328.734C126.758 328.223 126.61 327.833 126.312 327.561C126.015 327.29 125.578 327.154 125 327.154C124.612 327.154 124.232 327.22 123.861 327.351C123.489 327.475 123.176 327.643 122.92 327.857L122.424 326.969C122.763 326.697 123.167 326.492 123.638 326.352C124.108 326.204 124.608 326.13 125.136 326.13ZM124.864 331.893C125.318 331.893 125.71 331.794 126.04 331.597C126.37 331.391 126.61 331.103 126.758 330.733V329.82H124.926C123.918 329.82 123.415 330.157 123.415 330.831C123.415 331.161 123.543 331.42 123.799 331.609C124.055 331.798 124.41 331.893 124.864 331.893Z" fill="black"/>
<path d="M132.638 329.968H131.276V332.732H130.087V326.191H131.276V328.956H132.663L134.793 326.191H136.068L133.579 329.338L136.241 332.732H134.842L132.638 329.968Z" fill="black"/>
<path d="M139.707 326.13C140.615 326.13 141.309 326.352 141.787 326.796C142.274 327.24 142.518 327.903 142.518 328.783V332.732H141.391V331.868C141.193 332.173 140.908 332.407 140.537 332.572C140.173 332.728 139.74 332.806 139.237 332.806C138.502 332.806 137.912 332.629 137.466 332.275C137.028 331.922 136.81 331.457 136.81 330.881C136.81 330.305 137.02 329.844 137.441 329.499C137.862 329.145 138.531 328.968 139.447 328.968H141.329V328.734C141.329 328.223 141.181 327.833 140.883 327.561C140.586 327.29 140.149 327.154 139.571 327.154C139.183 327.154 138.803 327.22 138.432 327.351C138.06 327.475 137.747 327.643 137.491 327.857L136.995 326.969C137.334 326.697 137.738 326.492 138.209 326.352C138.679 326.204 139.179 326.13 139.707 326.13ZM139.435 331.893C139.889 331.893 140.281 331.794 140.611 331.597C140.941 331.391 141.181 331.103 141.329 330.733V329.82H139.497C138.489 329.82 137.986 330.157 137.986 330.831C137.986 331.161 138.114 331.42 138.37 331.609C138.626 331.798 138.981 331.893 139.435 331.893Z" fill="black"/>
<path d="M148.103 329.326C148.541 329.441 148.879 329.626 149.119 329.881C149.358 330.136 149.478 330.453 149.478 330.831C149.478 331.218 149.346 331.564 149.081 331.868C148.817 332.164 148.45 332.399 147.979 332.572C147.517 332.736 146.997 332.818 146.419 332.818C145.932 332.818 145.453 332.757 144.983 332.633C144.521 332.502 144.108 332.317 143.745 332.078L144.104 331.177C144.417 331.374 144.777 331.531 145.181 331.646C145.585 331.753 145.994 331.806 146.407 331.806C146.968 331.806 147.414 331.712 147.744 331.523C148.083 331.325 148.252 331.062 148.252 330.733C148.252 330.428 148.116 330.194 147.843 330.029C147.579 329.865 147.203 329.783 146.716 329.783H145.515V328.931H146.63C147.075 328.931 147.426 328.853 147.682 328.697C147.938 328.54 148.066 328.326 148.066 328.055C148.066 327.759 147.913 327.528 147.608 327.364C147.311 327.199 146.906 327.117 146.394 327.117C145.742 327.117 145.053 327.286 144.327 327.623L144.005 326.71C144.805 326.307 145.643 326.105 146.518 326.105C147.047 326.105 147.521 326.179 147.942 326.327C148.363 326.475 148.693 326.685 148.933 326.956C149.172 327.228 149.292 327.536 149.292 327.882C149.292 328.203 149.185 328.491 148.97 328.746C148.755 329.001 148.466 329.194 148.103 329.326Z" fill="black"/>
<path d="M154.244 328.413C155.07 328.421 155.701 328.61 156.139 328.98C156.576 329.351 156.795 329.873 156.795 330.548C156.795 331.255 156.556 331.802 156.077 332.189C155.606 332.567 154.929 332.753 154.046 332.744L151.285 332.732V326.191H152.473V328.4L154.244 328.413ZM157.773 326.191H158.962V332.732H157.773V326.191ZM153.959 331.843C154.496 331.852 154.9 331.745 155.173 331.523C155.453 331.3 155.594 330.971 155.594 330.535C155.594 330.107 155.458 329.795 155.185 329.597C154.913 329.4 154.504 329.297 153.959 329.289L152.473 329.264V331.831L153.959 331.843Z" fill="black"/>
<path d="M164.598 326.191H165.787V330.955L169.811 326.191H170.888V332.732H169.7V327.968L165.688 332.732H164.598V326.191Z" fill="black"/>
<path d="M179.381 332.806C178.713 332.806 178.114 332.662 177.586 332.374C177.066 332.086 176.657 331.691 176.36 331.189C176.063 330.679 175.914 330.103 175.914 329.462C175.914 328.82 176.063 328.248 176.36 327.746C176.657 327.236 177.066 326.841 177.586 326.562C178.114 326.274 178.713 326.13 179.381 326.13C179.976 326.13 180.504 326.249 180.966 326.488C181.437 326.726 181.8 327.072 182.056 327.524L181.152 328.104C180.946 327.792 180.69 327.557 180.384 327.401C180.079 327.244 179.74 327.166 179.369 327.166C178.94 327.166 178.552 327.261 178.205 327.45C177.867 327.639 177.598 327.911 177.4 328.265C177.21 328.61 177.115 329.009 177.115 329.462C177.115 329.922 177.21 330.33 177.4 330.683C177.598 331.029 177.867 331.296 178.205 331.486C178.552 331.675 178.94 331.769 179.369 331.769C179.74 331.769 180.079 331.691 180.384 331.535C180.69 331.379 180.946 331.144 181.152 330.831L182.056 331.399C181.8 331.852 181.437 332.201 180.966 332.448C180.504 332.687 179.976 332.806 179.381 332.806Z" fill="black"/>
<path d="M188.401 327.228H185.999V332.732H184.81V327.228H182.408V326.191H188.401V327.228Z" fill="black"/>
<path d="M191.957 326.13C192.865 326.13 193.558 326.352 194.037 326.796C194.524 327.24 194.768 327.903 194.768 328.783V332.732H193.641V331.868C193.443 332.173 193.158 332.407 192.787 332.572C192.423 332.728 191.99 332.806 191.486 332.806C190.752 332.806 190.162 332.629 189.716 332.275C189.278 331.922 189.06 331.457 189.06 330.881C189.06 330.305 189.27 329.844 189.691 329.499C190.112 329.145 190.781 328.968 191.697 328.968H193.579V328.734C193.579 328.223 193.43 327.833 193.133 327.561C192.836 327.29 192.399 327.154 191.821 327.154C191.433 327.154 191.053 327.22 190.682 327.351C190.31 327.475 189.996 327.643 189.741 327.857L189.245 326.969C189.584 326.697 189.988 326.492 190.459 326.352C190.929 326.204 191.429 326.13 191.957 326.13ZM191.685 331.893C192.139 331.893 192.531 331.794 192.861 331.597C193.191 331.391 193.43 331.103 193.579 330.733V329.82H191.746C190.739 329.82 190.236 330.157 190.236 330.831C190.236 331.161 190.364 331.42 190.62 331.609C190.876 331.798 191.231 331.893 191.685 331.893Z" fill="black"/>
<path d="M196.908 326.191H198.097V328.968H201.836V326.191H203.025V332.732H201.836V329.992H198.097V332.732H196.908V326.191Z" fill="black"/>
<path d="M208.147 332.806C207.495 332.806 206.909 332.662 206.389 332.374C205.869 332.086 205.46 331.691 205.163 331.189C204.874 330.679 204.73 330.103 204.73 329.462C204.73 328.82 204.874 328.248 205.163 327.746C205.46 327.236 205.869 326.841 206.389 326.562C206.909 326.274 207.495 326.13 208.147 326.13C208.799 326.13 209.381 326.274 209.893 326.562C210.413 326.841 210.818 327.236 211.107 327.746C211.404 328.248 211.552 328.82 211.552 329.462C211.552 330.103 211.404 330.679 211.107 331.189C210.818 331.691 210.413 332.086 209.893 332.374C209.381 332.662 208.799 332.806 208.147 332.806ZM208.147 331.769C208.568 331.769 208.944 331.675 209.274 331.486C209.612 331.288 209.877 331.017 210.066 330.671C210.256 330.317 210.351 329.914 210.351 329.462C210.351 329.009 210.256 328.61 210.066 328.265C209.877 327.911 209.612 327.639 209.274 327.45C208.944 327.261 208.568 327.166 208.147 327.166C207.726 327.166 207.346 327.261 207.008 327.45C206.678 327.639 206.414 327.911 206.216 328.265C206.026 328.61 205.931 329.009 205.931 329.462C205.931 329.914 206.026 330.317 206.216 330.671C206.414 331.017 206.678 331.288 207.008 331.486C207.346 331.675 207.726 331.769 208.147 331.769Z" fill="black"/>
<path d="M217.739 329.338C218.589 329.552 219.014 330.083 219.014 330.93C219.014 331.506 218.795 331.95 218.358 332.263C217.929 332.576 217.285 332.732 216.426 332.732H213.269V326.191H216.315C217.091 326.191 217.698 326.339 218.135 326.636C218.573 326.924 218.791 327.335 218.791 327.87C218.791 328.215 218.696 328.516 218.507 328.771C218.325 329.017 218.069 329.207 217.739 329.338ZM214.433 329.005H216.216C216.67 329.005 217.012 328.923 217.244 328.758C217.483 328.594 217.603 328.355 217.603 328.042C217.603 327.417 217.14 327.105 216.216 327.105H214.433V329.005ZM216.34 331.819C216.835 331.819 217.206 331.741 217.454 331.584C217.702 331.428 217.826 331.185 217.826 330.856C217.826 330.519 217.71 330.268 217.479 330.103C217.256 329.939 216.901 329.857 216.414 329.857H214.433V331.819H216.34Z" fill="black"/>
<path d="M226.137 326.191V332.732H225.072V330.659H223.165H223.029L221.593 332.732H220.318L221.915 330.498C221.42 330.35 221.04 330.107 220.776 329.77C220.512 329.425 220.379 328.997 220.379 328.487C220.379 327.738 220.635 327.17 221.147 326.784C221.659 326.389 222.365 326.191 223.265 326.191H226.137ZM221.593 328.524C221.593 328.96 221.729 329.285 222.002 329.499C222.282 329.704 222.699 329.807 223.252 329.807H225.072V327.228H223.302C222.163 327.228 221.593 327.66 221.593 328.524Z" fill="black"/>
<path d="M233.348 327.228H230.945V332.732H229.757V327.228H227.354V326.191H233.348V327.228Z" fill="black"/>
<path d="M237.133 332.806C236.464 332.806 235.866 332.662 235.338 332.374C234.818 332.086 234.409 331.691 234.112 331.189C233.815 330.679 233.666 330.103 233.666 329.462C233.666 328.82 233.815 328.248 234.112 327.746C234.409 327.236 234.818 326.841 235.338 326.562C235.866 326.274 236.464 326.13 237.133 326.13C237.727 326.13 238.256 326.249 238.718 326.488C239.189 326.726 239.552 327.072 239.808 327.524L238.904 328.104C238.697 327.792 238.441 327.557 238.136 327.401C237.831 327.244 237.492 327.166 237.121 327.166C236.691 327.166 236.303 327.261 235.957 327.45C235.618 327.639 235.35 327.911 235.152 328.265C234.962 328.61 234.867 329.009 234.867 329.462C234.867 329.922 234.962 330.33 235.152 330.683C235.35 331.029 235.618 331.296 235.957 331.486C236.303 331.675 236.691 331.769 237.121 331.769C237.492 331.769 237.831 331.691 238.136 331.535C238.441 331.379 238.697 331.144 238.904 330.831L239.808 331.399C239.552 331.852 239.189 332.201 238.718 332.448C238.256 332.687 237.727 332.806 237.133 332.806Z" fill="black"/>
<path d="M246.404 326.191V332.732H245.339V330.659H243.432H243.296L241.859 332.732H240.584L242.181 330.498C241.686 330.35 241.306 330.107 241.042 329.77C240.778 329.425 240.646 328.997 240.646 328.487C240.646 327.738 240.902 327.17 241.414 326.784C241.925 326.389 242.631 326.191 243.531 326.191H246.404ZM241.859 328.524C241.859 328.96 241.995 329.285 242.268 329.499C242.549 329.704 242.965 329.807 243.519 329.807H245.339V327.228H243.568C242.429 327.228 241.859 327.66 241.859 328.524Z" fill="black"/>
<path d="M258.128 326.191V332.732H256.939V327.228H253.237V332.732H252.048V326.191H258.128Z" fill="black"/>
<path d="M263.239 332.806C262.587 332.806 262.001 332.662 261.48 332.374C260.96 332.086 260.552 331.691 260.255 331.189C259.966 330.679 259.821 330.103 259.821 329.462C259.821 328.82 259.966 328.248 260.255 327.746C260.552 327.236 260.96 326.841 261.48 326.562C262.001 326.274 262.587 326.13 263.239 326.13C263.891 326.13 264.473 326.274 264.985 326.562C265.505 326.841 265.909 327.236 266.198 327.746C266.495 328.248 266.644 328.82 266.644 329.462C266.644 330.103 266.495 330.679 266.198 331.189C265.909 331.691 265.505 332.086 264.985 332.374C264.473 332.662 263.891 332.806 263.239 332.806ZM263.239 331.769C263.66 331.769 264.035 331.675 264.366 331.486C264.704 331.288 264.968 331.017 265.158 330.671C265.348 330.317 265.443 329.914 265.443 329.462C265.443 329.009 265.348 328.61 265.158 328.265C264.968 327.911 264.704 327.639 264.366 327.45C264.035 327.261 263.66 327.166 263.239 327.166C262.818 327.166 262.438 327.261 262.1 327.45C261.769 327.639 261.505 327.911 261.307 328.265C261.117 328.61 261.022 329.009 261.022 329.462C261.022 329.914 261.117 330.317 261.307 330.671C261.505 331.017 261.769 331.288 262.1 331.486C262.438 331.675 262.818 331.769 263.239 331.769Z" fill="black"/>
<path d="M271.221 332.806C270.552 332.806 269.954 332.662 269.425 332.374C268.905 332.086 268.497 331.691 268.199 331.189C267.902 330.679 267.754 330.103 267.754 329.462C267.754 328.82 267.902 328.248 268.199 327.746C268.497 327.236 268.905 326.841 269.425 326.562C269.954 326.274 270.552 326.13 271.221 326.13C271.815 326.13 272.343 326.249 272.806 326.488C273.276 326.726 273.639 327.072 273.895 327.524L272.991 328.104C272.785 327.792 272.529 327.557 272.224 327.401C271.918 327.244 271.58 327.166 271.208 327.166C270.779 327.166 270.391 327.261 270.044 327.45C269.706 327.639 269.438 327.911 269.24 328.265C269.05 328.61 268.955 329.009 268.955 329.462C268.955 329.922 269.05 330.33 269.24 330.683C269.438 331.029 269.706 331.296 270.044 331.486C270.391 331.675 270.779 331.769 271.208 331.769C271.58 331.769 271.918 331.691 272.224 331.535C272.529 331.379 272.785 331.144 272.991 330.831L273.895 331.399C273.639 331.852 273.276 332.201 272.806 332.448C272.343 332.687 271.815 332.806 271.221 332.806Z" fill="black"/>
<path d="M280.241 327.228H277.838V332.732H276.65V327.228H274.248V326.191H280.241V327.228Z" fill="black"/>
<path d="M283.977 332.806C283.325 332.806 282.738 332.662 282.218 332.374C281.698 332.086 281.29 331.691 280.993 331.189C280.704 330.679 280.559 330.103 280.559 329.462C280.559 328.82 280.704 328.248 280.993 327.746C281.29 327.236 281.698 326.841 282.218 326.562C282.738 326.274 283.325 326.13 283.977 326.13C284.629 326.13 285.211 326.274 285.723 326.562C286.243 326.841 286.647 327.236 286.936 327.746C287.233 328.248 287.382 328.82 287.382 329.462C287.382 330.103 287.233 330.679 286.936 331.189C286.647 331.691 286.243 332.086 285.723 332.374C285.211 332.662 284.629 332.806 283.977 332.806ZM283.977 331.769C284.398 331.769 284.773 331.675 285.103 331.486C285.442 331.288 285.706 331.017 285.896 330.671C286.086 330.317 286.181 329.914 286.181 329.462C286.181 329.009 286.086 328.61 285.896 328.265C285.706 327.911 285.442 327.639 285.103 327.45C284.773 327.261 284.398 327.166 283.977 327.166C283.556 327.166 283.176 327.261 282.838 327.45C282.507 327.639 282.243 327.911 282.045 328.265C281.855 328.61 281.76 329.009 281.76 329.462C281.76 329.914 281.855 330.317 282.045 330.671C282.243 331.017 282.507 331.288 282.838 331.486C283.176 331.675 283.556 331.769 283.977 331.769Z" fill="black"/>
<path d="M294.143 326.191V332.732H293.078V330.659H291.171H291.035L289.599 332.732H288.323L289.921 330.498C289.425 330.35 289.046 330.107 288.782 329.77C288.517 329.425 288.385 328.997 288.385 328.487C288.385 327.738 288.641 327.17 289.153 326.784C289.665 326.389 290.371 326.191 291.27 326.191H294.143ZM289.599 328.524C289.599 328.96 289.735 329.285 290.007 329.499C290.288 329.704 290.705 329.807 291.258 329.807H293.078V327.228H291.308C290.168 327.228 289.599 327.66 289.599 328.524Z" fill="black"/>
<path d="M296.462 326.191H297.651V328.968H301.391V326.191H302.579V332.732H301.391V329.992H297.651V332.732H296.462V326.191Z" fill="black"/>
<path d="M304.891 326.191H306.079V328.968H309.819V326.191H311.007V332.732H309.819V329.992H306.079V332.732H304.891V326.191Z" fill="black"/>
<path d="M316.278 328.413C317.104 328.421 317.735 328.61 318.173 328.98C318.61 329.351 318.829 329.873 318.829 330.548C318.829 331.255 318.59 331.802 318.111 332.189C317.64 332.567 316.963 332.753 316.08 332.744L313.319 332.732V326.191H314.507V328.4L316.278 328.413ZM319.807 326.191H320.996V332.732H319.807V326.191ZM315.993 331.843C316.53 331.852 316.934 331.745 317.207 331.523C317.487 331.3 317.628 330.971 317.628 330.535C317.628 330.107 317.492 329.795 317.219 329.597C316.947 329.4 316.538 329.297 315.993 329.289L314.507 329.264V331.831L315.993 331.843Z" fill="black"/>
<path d="M330.872 326.191V332.732H329.795V327.956L327.343 331.992H326.823L324.396 327.944V332.732H323.307V326.191H324.533L327.108 330.609L329.758 326.191H330.872Z" fill="black"/>
<path d="M333.186 326.191H334.375V330.955L338.399 326.191H339.476V332.732H338.288V327.968L334.276 332.732H333.186V326.191Z" fill="black"/>
<path d="M136.408 104.818C147.947 104.818 157.04 108.282 163.689 115.21C170.337 122.138 173.661 132.101 173.661 145.1C173.661 154.441 171.865 162.497 168.274 169.269C164.758 175.963 159.753 181.061 153.258 184.564C146.839 188.067 139.388 189.818 130.905 189.818C126.397 189.818 122.079 189.273 117.953 188.184C113.826 187.172 110.311 185.732 107.407 183.864L115.66 167.284C119.558 170.086 124.486 171.487 130.447 171.487C136.178 171.487 140.802 169.892 144.317 166.7C147.908 163.431 150.01 158.722 150.621 152.572C146.036 156.542 140.037 158.527 132.625 158.527C127.581 158.527 122.958 157.476 118.755 155.375C114.552 153.195 111.19 150.159 108.668 146.268C106.223 142.298 105 137.783 105 132.724C105 127.197 106.376 122.332 109.127 118.129C111.954 113.848 115.737 110.578 120.475 108.321C125.289 105.986 130.6 104.818 136.408 104.818ZM138.012 141.947C141.298 141.947 143.973 141.013 146.036 139.145C148.099 137.199 149.131 134.67 149.131 131.556C149.131 128.52 148.099 126.068 146.036 124.2C144.049 122.254 141.336 121.281 137.898 121.281C134.688 121.281 132.052 122.215 129.988 124.083C128.002 125.952 127.008 128.481 127.008 131.673C127.008 134.786 128.002 137.277 129.988 139.145C132.052 141.013 134.726 141.947 138.012 141.947Z" fill="#5FD3D1"/>
<path d="M246.501 106.453V120.931L218.189 188.184H193.43L220.481 124.784H199.39V137.394H180.018V106.453H246.501Z" fill="#5FD3D1"/>
<path d="M273.742 150.704C267.705 150.704 262.776 148.681 258.955 144.633C255.134 140.585 253.224 135.059 253.224 128.053C253.224 123.461 254.103 119.452 255.86 116.027C257.618 112.602 260.025 109.995 263.082 108.204C266.215 106.336 269.768 105.402 273.742 105.402C279.855 105.402 284.823 107.465 288.643 111.59C292.464 115.638 294.375 121.126 294.375 128.053C294.375 135.059 292.464 140.585 288.643 144.633C284.823 148.681 279.855 150.704 273.742 150.704ZM321.197 106.453H337.703L282.912 188.184H266.406L321.197 106.453ZM273.742 139.612C275.805 139.612 277.448 138.678 278.671 136.81C279.894 134.942 280.505 132.023 280.505 128.053C280.505 124.083 279.894 121.165 278.671 119.296C277.448 117.428 275.805 116.494 273.742 116.494C271.755 116.494 270.112 117.467 268.813 119.413C267.59 121.281 266.979 124.161 266.979 128.053C266.979 131.945 267.59 134.864 268.813 136.81C270.112 138.678 271.755 139.612 273.742 139.612ZM330.367 189.235C324.254 189.235 319.287 187.211 315.466 183.163C311.721 179.116 309.849 173.589 309.849 166.583C309.849 159.656 311.76 154.168 315.581 150.121C319.401 145.995 324.33 143.932 330.367 143.932C336.481 143.932 341.448 145.995 345.269 150.121C349.09 154.168 351 159.656 351 166.583C351 173.589 349.09 179.116 345.269 183.163C341.448 187.211 336.481 189.235 330.367 189.235ZM330.367 178.143C332.431 178.143 334.074 177.208 335.296 175.34C336.519 173.472 337.13 170.553 337.13 166.583C337.13 162.614 336.519 159.695 335.296 157.827C334.074 155.958 332.431 155.024 330.367 155.024C328.304 155.024 326.661 155.958 325.438 157.827C324.216 159.695 323.604 162.614 323.604 166.583C323.604 170.553 324.216 173.472 325.438 175.34C326.661 177.208 328.304 178.143 330.367 178.143Z" fill="#5FD3D1"/>
<path d="M115.839 231.197H112.127V242.241H104V213.395H112.127V224.604H116.045L122.934 213.395H131.515L122.481 227.324L131.597 242.241H122.398L115.839 231.197Z" fill="#5FD3D1"/>
<path d="M161.96 213.395V242.241H153.916V219.865H145.625L145.46 224.563C145.322 228.684 144.978 232.035 144.428 234.618C143.906 237.2 142.998 239.206 141.706 240.634C140.413 242.035 138.584 242.736 136.219 242.736C135.119 242.736 133.882 242.571 132.507 242.241L132.96 235.566C133.318 235.648 133.689 235.689 134.074 235.689C135.147 235.689 135.972 235.263 136.549 234.412C137.127 233.56 137.539 232.379 137.787 230.868C138.034 229.329 138.199 227.338 138.282 224.893L138.694 213.395H161.96Z" fill="#5FD3D1"/>
<path d="M168.137 213.395H176.181V230.332L188.103 213.395H195.775V242.241H187.731V225.346L175.851 242.241H168.137V213.395Z" fill="#5FD3D1"/>
<path d="M225.159 235.936V242.241H201.976V213.395H224.623V219.7H210.061V224.563H222.89V230.662H210.061V235.936H225.159Z" fill="#5FD3D1"/>
<path d="M257.286 213.395V242.241H249.118V230.991H237.98V242.241H229.812V213.395H237.98V224.233H249.118V213.395H257.286Z" fill="#5FD3D1"/>
<path d="M286.756 219.865H277.928V242.241H269.884V219.865H261.015V213.395H286.756V219.865Z" fill="#5FD3D1"/>
<path d="M304.309 242.818C301.256 242.818 298.506 242.173 296.059 240.882C293.639 239.59 291.727 237.805 290.325 235.524C288.95 233.244 288.262 230.676 288.262 227.818C288.262 224.961 288.95 222.393 290.325 220.112C291.727 217.832 293.639 216.046 296.059 214.755C298.506 213.464 301.256 212.818 304.309 212.818C307.362 212.818 310.098 213.464 312.518 214.755C314.966 216.046 316.877 217.832 318.252 220.112C319.654 222.393 320.356 224.961 320.356 227.818C320.356 230.676 319.654 233.244 318.252 235.524C316.877 237.805 314.966 239.59 312.518 240.882C310.098 242.173 307.362 242.818 304.309 242.818ZM304.309 236.06C305.766 236.06 307.087 235.717 308.269 235.03C309.452 234.343 310.387 233.382 311.074 232.145C311.762 230.882 312.105 229.439 312.105 227.818C312.105 226.197 311.762 224.769 311.074 223.533C310.387 222.269 309.452 221.294 308.269 220.607C307.087 219.92 305.766 219.577 304.309 219.577C302.851 219.577 301.531 219.92 300.349 220.607C299.166 221.294 298.231 222.269 297.544 223.533C296.856 224.769 296.512 226.197 296.512 227.818C296.512 229.439 296.856 230.882 297.544 232.145C298.231 233.382 299.166 234.343 300.349 235.03C301.531 235.717 302.851 236.06 304.309 236.06Z" fill="#5FD3D1"/>
<path d="M345.761 227.159C347.466 227.708 348.759 228.56 349.639 229.714C350.546 230.868 351 232.296 351 234C351 236.555 349.996 238.574 347.989 240.057C346.009 241.513 343.19 242.241 339.532 242.241H324.723V213.395H338.748C342.213 213.395 344.895 214.055 346.792 215.373C348.717 216.665 349.68 218.505 349.68 220.895C349.68 222.296 349.336 223.533 348.649 224.604C347.989 225.676 347.026 226.527 345.761 227.159ZM332.767 224.934H337.965C340.275 224.934 341.43 223.986 341.43 222.09C341.43 220.195 340.275 219.247 337.965 219.247H332.767V224.934ZM339.202 236.39C341.567 236.39 342.75 235.387 342.75 233.382C342.75 231.431 341.567 230.456 339.202 230.456H332.767V236.39H339.202Z" fill="#5FD3D1"/>
<path d="M194 367.818H263V372.818H194V367.818Z" fill="#5FD3D1"/>
</svg>
