<svg width="37" height="37" viewBox="0 0 37 37" fill="none" xmlns="http://www.w3.org/2000/svg">
<g clip-path="url(#clip0_0:358)">
<path d="M31.3344 37.0002C30.9731 37.0002 30.6984 36.8268 30.4527 36.5811C28.5016 34.6154 26.5359 32.6643 24.5848 30.6986C24.3535 30.4674 24.2523 30.4818 24.0356 30.6986C23.1539 31.6092 22.2578 32.4908 21.3617 33.3869C20.6246 34.124 19.7285 33.9072 19.3961 32.91C17.3871 26.883 15.3926 20.8705 13.3691 14.8436C13.2102 14.3666 13.2102 13.933 13.5715 13.5717C13.9328 13.1959 14.3664 13.1959 14.8434 13.3549C20.8703 15.3639 26.9117 17.3729 32.9387 19.3818C33.9215 19.7143 34.1238 20.6104 33.3867 21.3475C32.5051 22.2291 31.6234 23.1252 30.7273 24.0068C30.5106 24.2236 30.4672 24.3393 30.7129 24.585C32.6496 26.4928 34.5719 28.4295 36.4941 30.3518C37.1879 31.0455 37.1879 31.5803 36.4797 32.2885C35.0488 33.7193 33.618 35.1502 32.1871 36.5811C31.9414 36.8268 31.6813 36.9858 31.3344 37.0002ZM34.3695 31.3201C34.2828 31.2334 34.2106 31.1467 34.1238 31.06C32.1727 29.0943 30.207 27.1432 28.2414 25.1775C27.6633 24.5994 27.6633 24.0068 28.2414 23.4143C28.9785 22.6772 29.7156 21.9256 30.4672 21.1885C30.6984 20.9572 30.6406 20.8994 30.366 20.8127C29.3543 20.4947 28.357 20.1479 27.3598 19.8154C23.7176 18.6014 20.0609 17.3873 16.4188 16.1733C16.3176 16.1443 16.202 16.0432 16.1297 16.1443C16.0719 16.2166 16.1441 16.3178 16.173 16.419C17.7195 21.0873 19.2805 25.7412 20.827 30.4096C20.9137 30.6553 20.9715 30.6986 21.1738 30.4963C21.8965 29.7592 22.6191 29.051 23.3418 28.3283C24.0356 27.6346 24.5703 27.6346 25.2641 28.3283C27.2008 30.265 29.152 32.2162 31.0887 34.1529C31.2188 34.283 31.3055 34.4275 31.5078 34.2108C32.4039 33.3002 33.3145 32.4041 34.2106 31.4936C34.2539 31.4502 34.2973 31.3924 34.3695 31.3201Z" fill="#6056A6"/>
<path d="M10.5652 9.48127C10.5652 9.91486 10.3774 10.2473 9.98712 10.4496C9.59689 10.652 9.2211 10.6086 8.85978 10.3774C8.78751 10.3195 8.71524 10.2617 8.64298 10.1895C7.16876 8.7008 5.68009 7.21213 4.20587 5.73791C3.87344 5.40549 3.72891 5.01525 3.87344 4.55275C4.11915 3.80119 5.0586 3.54103 5.63673 4.10471C7.19767 5.63674 8.74415 7.19767 10.2906 8.75861C10.4785 8.9465 10.5652 9.1922 10.5652 9.48127Z" fill="#6056A6"/>
<path d="M10.5652 18.7459C10.5797 19.006 10.4496 19.2662 10.2184 19.483C8.71524 20.9861 7.21212 22.5037 5.69454 24.0068C5.21759 24.4693 4.53829 24.4693 4.11915 24.0357C3.70001 23.6021 3.70001 22.9373 4.16251 22.4748C5.66563 20.9572 7.16876 19.4541 8.68634 17.951C9.03321 17.6041 9.45235 17.5029 9.91485 17.6908C10.3195 17.8498 10.5652 18.24 10.5652 18.7459Z" fill="#6056A6"/>
<path d="M18.6734 10.5651C18.2399 10.5507 17.9074 10.3628 17.7195 9.97256C17.5316 9.56787 17.575 9.17763 17.8496 8.81631C17.9508 8.68623 18.0664 8.58506 18.1676 8.46943C19.584 7.05302 21.0149 5.62216 22.4313 4.20576C23.0238 3.61318 23.8766 3.6999 24.2235 4.3792C24.4402 4.79834 24.3969 5.28974 24.05 5.65107C22.518 7.19756 20.9715 8.74404 19.425 10.2761C19.2371 10.4784 18.977 10.5796 18.6734 10.5651Z" fill="#6056A6"/>
<path d="M15.1758 4.36484C15.1758 5.40547 15.1758 6.43164 15.1758 7.47227C15.1758 8.19492 14.7277 8.68633 14.0773 8.68633C13.4414 8.65742 13.0078 8.18047 13.0078 7.47227C13.0078 5.37656 13.0078 3.28086 13.0078 1.19961C13.0078 0.491406 13.4559 0 14.0918 0C14.7277 0 15.1758 0.491406 15.1758 1.18516C15.1758 2.24023 15.1758 3.29531 15.1758 4.36484Z" fill="#6056A6"/>
<path d="M4.33594 15.1758C3.29531 15.1758 2.24023 15.1758 1.19961 15.1758C0.491406 15.1758 0.0144531 14.7277 0 14.1062C0 13.4559 0.491406 13.0078 1.21406 13.0078C3.29531 13.0078 5.37656 13.0078 7.45781 13.0078C8.18047 13.0078 8.67188 13.4559 8.67188 14.1062C8.67188 14.7566 8.18047 15.1758 7.44336 15.1758C6.40273 15.1758 5.37656 15.1758 4.33594 15.1758Z" fill="#6056A6"/>
</g>
<defs>
<clipPath id="clip0_0:358">
<rect width="37" height="37" fill="white"/>
</clipPath>
</defs>
</svg>
