<svg width="46" height="46" viewBox="0 0 46 46" fill="none" xmlns="http://www.w3.org/2000/svg">
<g clip-path="url(#clip0_0:599)">
<path d="M13.1591 21.381C12.5523 21.7833 12.0214 22.1474 11.4905 22.5114C10.9786 22.8562 10.4666 23.2011 9.95466 23.5459C9.67024 23.7375 9.36686 23.8716 9.02555 23.6801C8.68425 23.4885 8.60841 23.1819 8.60841 22.8371C8.60841 21.7067 8.60841 20.5763 8.60841 19.446C8.60841 19.2927 8.60841 19.1394 8.60841 18.9095C8.11542 19.1586 7.67931 19.3694 7.2432 19.5801C7.05358 19.6759 7.09151 19.8483 7.09151 20.0016C7.09151 21.0936 7.07255 22.2048 7.09151 23.2969C7.09151 23.6417 7.03462 23.795 6.63644 23.795C5.55565 23.7758 5.55565 23.795 5.55565 22.703C5.55565 21.9749 5.55565 21.2469 5.55565 20.4422C5.06265 20.6913 4.62654 20.902 4.19044 21.1128C4.00082 21.2086 4.03875 21.381 4.03875 21.5343C4.03875 22.1474 4.01978 22.7796 4.03875 23.3927C4.03875 23.6609 4.00082 23.7758 3.67848 23.795C2.50288 23.8142 2.50288 23.8142 2.50288 22.6455C2.50288 22.4347 2.50288 22.2432 2.50288 21.9749C1.93405 22.2623 1.42209 22.4922 0.9291 22.7604C0.682603 22.8946 0.549874 22.9137 0.398184 22.6072C-0.113769 21.5534 -0.132731 21.5726 0.910138 21.0553C1.15663 20.9212 1.40313 20.8063 1.74443 20.6338C1.40313 20.3848 1.11871 20.174 0.815332 20.0016C0.625719 19.8866 0.625719 19.7717 0.739487 19.5801C1.38417 18.5264 1.42209 18.4689 2.33223 19.1969C3.05276 19.7717 3.69744 19.8675 4.41797 19.2927C4.49382 19.2352 4.58862 19.1969 4.72135 19.1203C3.94394 18.6413 3.22341 18.1815 2.46496 17.76C2.1995 17.6068 2.16158 17.511 2.31327 17.2236C2.90107 16.2273 2.90107 16.2273 3.88706 16.8212C4.60758 17.2619 5.32811 17.6834 6.02968 18.124C6.25721 18.2773 6.44682 18.2773 6.67436 18.1432C6.9967 17.9516 7.35697 17.7983 7.75515 17.5876C7.01566 17.1469 6.35202 16.6871 5.65045 16.3231C4.49382 15.7292 4.49382 14.9629 5.66941 14.3689C6.37098 14.0241 7.01566 13.5643 7.75515 13.1236C7.30008 12.8937 6.9019 12.7021 6.52267 12.4914C6.33306 12.3764 6.20033 12.4914 6.04864 12.568C5.10058 13.1428 4.15251 13.7175 3.20445 14.2923C2.95795 14.4456 2.84419 14.4073 2.6925 14.1582C2.08574 13.1619 2.08574 13.1619 3.07172 12.568C3.60264 12.2423 4.11459 11.9358 4.70239 11.5718C4.26628 11.3419 3.86809 11.1503 3.48887 10.9395C3.31822 10.8437 3.18549 10.9395 3.05276 11.0353C2.59769 11.3419 2.16158 11.6292 1.72547 11.9358C1.49794 12.0891 1.36521 12.1274 1.21352 11.8591C1.02391 11.5335 0.644681 11.2078 0.663642 10.8821C0.682603 10.5947 1.19456 10.4606 1.49794 10.2307C1.55482 10.1923 1.6117 10.1349 1.72547 10.0391C1.19456 9.77085 0.701564 9.50263 0.208572 9.27273C-0.0568857 9.15777 -0.0758469 9.02366 0.0568819 8.75544C0.568836 7.70171 0.549874 7.70171 1.59274 8.23816C1.87716 8.37227 2.16158 8.52554 2.52184 8.69797C2.52184 8.16152 2.54081 7.70171 2.52184 7.22275C2.50288 6.95453 2.59769 6.87789 2.86315 6.85873C4.03875 6.83957 4.03875 6.82042 4.03875 7.98909C4.03875 8.02741 4.03875 8.04657 4.03875 8.08489C4.03875 9.61758 4.03875 9.61758 5.55565 10.1732C5.55565 9.29188 5.55565 8.4489 5.55565 7.60592C5.55565 6.87789 5.55565 6.87789 6.27617 6.87789C7.07255 6.87789 7.07255 6.87789 7.07255 7.70171C7.07255 8.67881 7.09151 9.6559 7.07255 10.6138C7.07255 10.9012 7.14839 11.0545 7.41385 11.1503C7.79307 11.3035 8.15334 11.5143 8.53256 11.6867C8.64633 11.5335 8.60841 11.3993 8.60841 11.2652C8.60841 10.0965 8.60841 8.92787 8.60841 7.77835C8.60841 7.41433 8.70321 7.12695 9.04452 6.93537C9.36686 6.76294 9.65128 6.87789 9.9357 7.06948C10.9786 7.77835 12.0404 8.48722 13.1591 9.23441C13.1591 8.52554 13.1591 7.91246 13.1591 7.28022C13.1591 7.12695 12.9885 7.06948 12.8747 6.97368C11.6422 5.91996 10.4097 4.88539 9.15828 3.85082C8.94971 3.67839 8.87387 3.54428 9.1014 3.33353C9.36686 3.06531 9.59439 2.56719 9.85985 2.54803C10.1253 2.52887 10.4476 2.95036 10.7321 3.19942C11.5095 3.85082 12.2869 4.50221 13.1401 5.23024C13.1401 4.57885 13.1401 4.02325 13.1401 3.4868C13.1401 3.31438 13.0074 3.23774 12.9126 3.14195C12.4007 2.62466 11.8887 2.08822 11.3768 1.59009C11.1682 1.39851 11.0923 1.24524 11.3578 1.03449C11.6422 0.804588 11.8697 0.363939 12.1542 0.325621C12.4765 0.287304 12.6661 0.766271 12.9505 0.996175C12.9885 1.03449 13.0453 1.07281 13.1401 1.14944C13.1591 1.03449 13.1591 0.977016 13.1591 0.91954C13.197 0.63216 13.0264 0.153193 13.235 0.0765583C13.6331 -0.0575525 14.1072 0.0190823 14.5433 0.0190823C14.7139 0.0190823 14.676 0.172352 14.676 0.268145C14.676 0.536367 14.676 0.804588 14.676 1.20692C14.9794 0.900382 15.2069 0.689636 15.4155 0.459732C15.7378 0.0765583 15.9275 0.459732 16.0223 0.63216C16.1929 0.938699 16.9324 0.996175 16.4963 1.53262C16.0412 2.08822 15.5103 2.56719 14.9983 3.06531C14.7519 3.29522 14.657 3.52512 14.676 3.85082C14.695 4.27231 14.676 4.71296 14.676 5.13445C14.8656 5.19193 14.9225 5.03866 15.0173 4.98118C15.9275 4.23399 16.8186 3.46764 17.7098 2.72046C17.8994 2.54803 18.0132 2.52887 18.1838 2.73962C18.9802 3.64007 18.9802 3.64007 18.0701 4.40642C17.0272 5.28772 15.9843 6.16902 14.9415 7.03116C14.7329 7.20359 14.657 7.37602 14.657 7.64424C14.676 8.16152 14.657 8.69797 14.657 9.29188C15.0552 9.02366 15.3965 8.81292 15.7378 8.58301C16.4773 8.08489 17.2168 7.58676 17.9373 7.08864C18.2028 6.91621 18.4872 6.82041 18.7906 6.99284C19.094 7.16527 19.2077 7.43349 19.2077 7.77835C19.2077 9.08114 19.2077 10.4031 19.2077 11.7825C19.7007 11.5335 20.1558 11.3035 20.5919 11.0736C20.7815 10.9778 20.7246 10.8054 20.7246 10.6522C20.7246 9.56011 20.7436 8.4489 20.7246 7.35686C20.7246 7.03116 20.7815 6.87789 21.1608 6.89705C22.2605 6.91621 22.2605 6.89705 22.2605 8.02741C22.2605 8.73628 22.2605 9.46431 22.2605 10.269C22.7535 10.0199 23.1896 9.80917 23.6447 9.57926C23.8153 9.50263 23.7774 9.34936 23.7774 9.19609C23.7774 8.5447 23.7964 7.8933 23.7774 7.24191C23.7774 6.99284 23.8533 6.91621 24.0998 6.91621C25.2943 6.87789 25.2943 6.85873 25.2943 8.06573C25.2943 8.25732 25.2943 8.4489 25.2943 8.73628C25.8631 8.4489 26.3751 8.219 26.8681 7.95078C27.1336 7.81667 27.2473 7.81667 27.399 8.10405C27.911 9.13861 27.911 9.13861 26.925 9.63674C26.0528 10.0774 26.0528 10.0965 26.8681 10.6138C27.1904 10.8246 27.2094 10.9587 27.0008 11.2652C26.3941 12.1465 26.3561 12.2232 25.5598 11.5526C24.8013 10.9204 24.1187 10.8437 23.3603 11.4377C23.3034 11.476 23.2465 11.4951 23.1327 11.5718C23.7964 11.9741 24.4031 12.3573 25.0289 12.7404C25.7115 13.1619 25.7115 13.1619 25.3133 13.8325C24.934 14.4839 24.934 14.4647 24.3083 14.0816C23.474 13.5834 22.6587 13.0853 21.8434 12.568C21.5969 12.4147 21.4073 12.4148 21.1608 12.5489C20.8384 12.7404 20.4971 12.8937 20.0989 13.1045C20.8574 13.5643 21.521 14.0241 22.2605 14.4073C23.2844 14.9245 23.3792 15.71 22.2415 16.2848C21.521 16.6488 20.8574 17.1086 20.0989 17.5684C20.554 17.7983 20.9522 17.9899 21.3504 18.2198C21.5589 18.3348 21.6727 18.2007 21.8244 18.124C22.7535 17.5684 23.7016 16.9937 24.6307 16.4189C24.8961 16.2465 25.0099 16.2848 25.1616 16.553C25.7494 17.5301 25.7494 17.5301 24.8013 18.1049C24.2894 18.4114 23.7774 18.7371 23.2655 19.0437C23.2465 19.0628 23.2275 19.1011 23.2086 19.1203C23.2275 19.1394 23.2275 19.1394 23.2465 19.1586C24.479 19.8483 24.479 19.8483 25.6356 19.082C26.4509 18.5455 26.4509 18.5455 27.0008 19.3694C27.0387 19.4268 27.0767 19.5035 27.1336 19.5609C27.2852 19.7334 27.2473 19.8483 27.0577 19.9824C26.7733 20.1549 26.4889 20.3656 26.1286 20.6147C26.6785 20.902 27.1525 21.1511 27.6455 21.381C27.911 21.496 27.9489 21.6109 27.8162 21.8791C27.3042 22.9329 27.3232 22.9329 26.2803 22.4156C25.9959 22.2815 25.7115 22.1282 25.3891 21.9749C25.2943 22.4922 25.3512 22.9712 25.3512 23.4502C25.3512 23.6992 25.2753 23.7567 25.0289 23.7758C23.8343 23.8142 23.8343 23.8333 23.8343 22.6072C23.8343 22.5497 23.8343 22.4731 23.8343 22.4156C23.8343 21.017 23.7395 20.902 22.3174 20.4614C22.3174 21.4193 22.2984 22.3773 22.3174 23.3352C22.3174 23.6609 22.2415 23.7758 21.9002 23.7758C20.7815 23.7758 20.7815 23.7758 20.7815 22.6646C20.7815 21.7642 20.7626 20.8829 20.7815 19.9824C20.7815 19.7142 20.7057 19.5801 20.4592 19.4651C20.08 19.2927 19.7007 19.1011 19.2457 18.8712C19.2457 19.7717 19.2457 20.5763 19.2457 21.4002C19.2457 21.8408 19.2457 22.3006 19.2457 22.7413C19.2457 23.1053 19.1888 23.4502 18.8475 23.6417C18.4872 23.8525 18.1838 23.6992 17.8805 23.4885C16.9703 22.8754 16.0602 22.2623 15.169 21.6492C15.0363 21.5534 14.9035 21.4768 14.695 21.3619C14.695 22.0324 14.695 22.6455 14.695 23.2586C14.695 23.4502 14.8656 23.5076 14.9794 23.6034C16.1929 24.638 17.4254 25.6726 18.6579 26.688C18.9233 26.8987 18.9423 27.0328 18.6958 27.2819C18.4303 27.5309 18.2597 28.0291 17.9753 28.0482C17.6908 28.0482 17.4064 27.6459 17.122 27.416C16.3446 26.7646 15.5482 26.094 14.676 25.366C14.676 26.0174 14.676 26.573 14.676 27.1286C14.676 27.301 14.8087 27.3777 14.9035 27.4735C15.4345 28.0099 15.9464 28.5464 16.4773 29.0636C16.6669 29.2361 16.7049 29.3702 16.4963 29.5618C16.2119 29.8108 15.9654 30.2515 15.662 30.309C15.3586 30.3664 15.15 29.8683 14.8656 29.6384C14.8277 29.6001 14.7708 29.5618 14.695 29.5043C14.676 29.6192 14.676 29.6767 14.676 29.7342C14.6381 30.0216 14.8087 30.5005 14.6002 30.5772C14.202 30.7113 13.7279 30.6347 13.2918 30.6347C13.1212 30.6347 13.1591 30.4814 13.1591 30.3856C13.1591 30.1174 13.1591 29.8491 13.1591 29.4468C12.8557 29.7534 12.6282 29.9641 12.4007 30.2132C12.23 30.4048 12.1162 30.3856 11.9456 30.2132C11.0734 29.3893 11.0544 29.3893 11.9077 28.5464C12.0214 28.4314 12.1352 28.2781 12.2869 28.1823C13.2729 27.531 13.2729 26.5539 13.1212 25.4618C12.4575 26.0174 11.8129 26.5539 11.1871 27.0903C10.8269 27.3968 10.4476 27.6842 10.1063 28.0099C9.93569 28.1632 9.84089 28.144 9.6892 27.9716C8.8549 27.052 8.83594 27.0711 9.78401 26.2665C10.8269 25.3852 11.8697 24.5039 12.9126 23.6226C13.1022 23.4693 13.197 23.316 13.1781 23.067C13.1401 22.5497 13.1591 22.0132 13.1591 21.381ZM17.7098 21.5726C17.7098 20.6147 17.6529 19.7334 17.7288 18.8712C17.7667 18.2773 17.5581 17.9899 17.0462 17.76C16.2498 17.4152 15.5103 16.9937 14.676 16.5913C14.676 17.5493 14.676 18.4306 14.676 19.2927C14.676 19.4077 14.676 19.5226 14.7708 19.5993C15.7189 20.2315 16.6859 20.8829 17.7098 21.5726ZM13.1591 16.5913C12.1542 17.0895 11.2251 17.5684 10.277 18.0474C10.1822 18.0857 10.1253 18.1624 10.1253 18.2581C10.1253 19.331 10.1253 20.4039 10.1253 21.5726C11.1492 20.8829 12.0783 20.2507 13.0264 19.6184C13.1401 19.5418 13.1591 19.446 13.1591 19.331C13.1401 18.4497 13.1591 17.5493 13.1591 16.5913ZM14.676 14.1007C15.681 13.6026 16.6101 13.1236 17.5581 12.6447C17.6529 12.6063 17.7098 12.5297 17.7098 12.4148C17.7098 11.3419 17.7098 10.269 17.7098 9.11946C16.7049 9.79001 15.7758 10.4222 14.8467 11.0353C14.7329 11.112 14.676 11.2078 14.676 11.3419C14.676 12.2423 14.676 13.1428 14.676 14.1007ZM10.1253 9.11946C10.1253 9.90496 10.2012 10.6138 10.1063 11.3035C9.95466 12.2998 10.3339 12.8554 11.263 13.1619C11.9077 13.3918 12.4955 13.7559 13.1591 14.0816C13.1591 13.1236 13.1591 12.2423 13.1591 11.3802C13.1591 11.2269 13.1022 11.112 12.9695 11.0353C12.0404 10.4222 11.1303 9.79001 10.1253 9.11946ZM15.6241 15.346C16.5911 15.825 17.4444 16.2656 18.3166 16.7063C18.4114 16.7638 18.5062 16.7255 18.582 16.6871C19.3026 16.2656 20.0041 15.825 20.7815 15.346C20.0041 14.8862 19.3026 14.4456 18.582 14.0049C18.4872 13.9474 18.3924 13.9283 18.2786 13.9858C17.4254 14.4264 16.5721 14.8671 15.6241 15.346ZM7.05358 15.346C7.30008 15.4993 7.43281 15.5951 7.5845 15.6717C8.1723 16.0357 8.7601 16.6105 9.38582 16.668C10.0305 16.7255 10.6562 16.1124 11.2819 15.8058C11.5664 15.6717 11.8887 15.5759 12.1352 15.3077C11.263 14.8671 10.4476 14.4456 9.61335 14.0241C9.49959 13.9666 9.38582 13.9283 9.25309 14.0049C8.55152 14.4456 7.831 14.8671 7.05358 15.346Z" fill="#5FD3D1"/>
<path d="M40.6908 36.0184C40.7856 36.095 40.7856 36.095 40.8046 36.1142C41.3355 36.3441 41.8664 36.7464 42.4163 36.7656C42.9472 36.7656 43.3644 36.21 43.8574 35.9035C43.9901 35.8268 44.1418 35.7502 44.2556 35.6352C44.502 35.4053 44.6537 35.4628 44.8434 35.7502C45.4501 36.689 45.4691 36.6698 44.5589 37.302C44.4452 37.3787 44.3314 37.4553 44.1797 37.5894C44.7485 37.8385 45.2605 38.0684 45.7914 38.2791C46.0379 38.3749 46.0758 38.4899 45.9621 38.7389C45.507 39.8501 45.526 39.8501 44.4262 39.3712C44.1418 39.2562 43.8763 39.0838 43.5161 39.0263C43.5161 39.4861 43.4971 39.9076 43.5161 40.3291C43.535 40.5782 43.4402 40.6548 43.1937 40.6548C41.9992 40.6931 41.9233 40.6931 42.0181 39.5053C42.094 38.5857 41.8475 38.0492 40.9184 37.8385C40.6529 37.781 40.3875 37.6277 40.141 37.4936C39.8376 37.3404 39.7049 37.3595 39.7238 37.7618C39.7428 38.4132 39.7428 39.0646 39.7238 39.716C39.7238 40.4824 39.2498 40.8081 38.5293 40.5207C37.676 40.1758 36.8417 39.831 35.9316 39.467C35.9316 40.1758 35.9316 40.8272 35.9316 41.4786C35.9316 41.7085 36.0833 41.766 36.2349 41.8426C36.8986 42.1683 37.5622 42.5132 38.2259 42.8389C38.4913 42.973 38.5103 43.088 38.3965 43.3562C37.8846 44.4099 37.9035 44.4099 36.8607 43.8735C36.5762 43.7394 36.2918 43.5861 35.9316 43.4137C35.9316 44.18 35.9126 44.8889 35.9316 45.5977C35.9316 45.8851 35.8747 46.0192 35.5523 46.0192C34.4147 46.0192 34.4147 46.0384 34.4147 44.8889C34.4147 44.4291 34.4147 43.9693 34.4147 43.4137C33.8269 43.701 33.296 43.9693 32.784 44.2375C32.5944 44.3333 32.4806 44.3524 32.3479 44.1225C31.7601 43.0305 31.7601 43.0496 32.8598 42.494C33.277 42.2833 33.6752 42.0725 34.0923 41.881C34.3767 41.766 34.4526 41.5936 34.4336 41.287C34.4147 40.7314 34.4336 40.1758 34.4147 39.6202C34.4147 39.6011 34.3957 39.5628 34.3578 39.5053C33.5424 39.831 32.7271 40.1567 31.9118 40.4824C31.0775 40.8081 30.6414 40.5207 30.6224 39.6011C30.6224 38.9688 30.6224 38.3174 30.6224 37.6852C30.6224 37.417 30.5845 37.302 30.2811 37.4361C29.7312 37.7044 29.1624 37.9343 28.5936 38.1642C28.404 38.2408 28.3471 38.3558 28.3471 38.5665C28.366 39.1413 28.3471 39.716 28.3471 40.2908C28.3471 40.5207 28.2902 40.6165 28.0437 40.6356C26.8302 40.674 26.8302 40.6931 26.8302 39.4861C26.8302 38.9497 26.8302 38.9497 26.3372 39.1604C25.939 39.3329 25.5218 39.5053 25.1237 39.6969C24.9151 39.7927 24.8392 39.7352 24.7255 39.5436C24.1756 38.4324 24.1756 38.4324 25.2943 37.9534C25.5598 37.8385 25.8442 37.7044 26.1665 37.5703C25.8252 37.3212 25.5218 37.1296 25.2185 36.9189C25.1426 36.8614 24.9909 36.8231 24.9909 36.7464C24.953 36.2483 25.4081 35.9801 25.5977 35.5778C25.7115 35.3478 25.8631 35.482 25.9769 35.5586C26.5078 35.9035 27.0387 36.2675 27.5507 36.6315C27.7593 36.7656 27.9299 36.8039 28.1575 36.689C28.6125 36.4591 29.0866 36.2866 29.5985 36.0567C29.2572 35.7502 28.859 35.6352 28.5177 35.4436C28.3471 35.3479 28.1385 35.2712 27.9678 35.1563C27.418 34.8114 27.418 34.1217 27.9868 33.796C28.4988 33.5086 29.0297 33.2596 29.6744 32.9339C29.0297 32.6656 28.4798 32.4166 27.9299 32.1867C27.7782 32.1292 27.6645 32.2825 27.5507 32.3399C27.0387 32.6848 26.5268 33.0296 26.0148 33.3745C25.8063 33.5278 25.6925 33.5278 25.5218 33.2979C24.8392 32.3208 24.8392 32.3208 25.8252 31.6502C25.92 31.5927 25.9959 31.5161 26.1665 31.4012C25.6166 31.1713 25.1426 30.9222 24.6307 30.7306C24.3273 30.6157 24.2514 30.5199 24.3842 30.1942C24.8392 29.1596 24.8203 29.1596 25.8631 29.5811C26.1665 29.7152 26.4509 29.8876 26.8112 29.9451C26.8112 29.4853 26.8302 29.0638 26.8112 28.6423C26.7922 28.3741 26.906 28.3358 27.1335 28.3166C28.3281 28.2783 28.404 28.2783 28.3091 29.4853C28.2333 30.4049 28.5177 30.9414 29.4089 31.1521C29.7123 31.2287 29.9967 31.382 30.2811 31.5161C30.5276 31.6502 30.6035 31.5927 30.6035 31.3054C30.5845 30.6348 30.6035 29.9643 30.6035 29.2937C30.6035 28.489 31.0775 28.1633 31.817 28.4507C32.6702 28.7764 33.5045 29.1213 34.3957 29.4853C34.3957 28.7956 34.3767 28.1442 34.3957 27.512C34.3957 27.2629 34.244 27.1863 34.0734 27.1096C33.4097 26.7839 32.7461 26.4391 32.0824 26.1134C31.8549 25.9984 31.798 25.9026 31.9118 25.6536C32.4237 24.5615 32.4048 24.5615 33.4666 25.098C33.751 25.2321 34.0354 25.3853 34.3767 25.5578C34.3767 24.7914 34.3957 24.1017 34.3767 23.412C34.3767 23.1055 34.4147 22.9713 34.7749 22.9713C35.8936 22.9713 35.8936 22.9713 35.8936 24.1209C35.8936 24.5807 35.8936 25.0405 35.8936 25.5769C36.4814 25.2704 37.0124 25.0213 37.5433 24.7339C37.7518 24.619 37.8467 24.6573 37.9794 24.8681C38.5482 25.9409 38.5482 25.9409 37.5054 26.4774C36.9744 26.7456 36.216 26.8606 35.9695 27.3395C35.723 27.8185 35.9126 28.5274 35.8936 29.1213C35.8936 29.2171 35.8936 29.3129 35.8936 29.4853C36.6331 29.1979 37.3157 28.9105 38.0173 28.6232C38.2259 28.5465 38.4345 28.4507 38.643 28.3741C39.2119 28.1825 39.6669 28.5082 39.6859 29.1021C39.7049 29.811 39.7049 30.539 39.6859 31.2479C39.6859 31.5544 39.7617 31.6119 40.0272 31.4778C40.5771 31.2287 41.1269 30.9988 41.6768 30.7689C41.8854 30.6923 41.9612 30.5773 41.9612 30.3474C41.9423 29.7727 41.9612 29.1979 41.9423 28.6232C41.9423 28.3741 42.0181 28.2975 42.2646 28.2975C43.4592 28.2591 43.4592 28.24 43.4592 29.447C43.4592 29.9834 43.4592 29.9834 43.9522 29.7727C44.3504 29.6002 44.7296 29.447 45.1278 29.2554C45.3363 29.1596 45.4501 29.1596 45.5639 29.4087C46.0948 30.5199 46.0948 30.5199 44.9761 30.9988C44.7106 31.1138 44.4262 31.2479 44.1228 31.382C44.4831 31.6311 44.8054 31.861 45.1278 32.0526C45.3363 32.1867 45.4122 32.2825 45.2415 32.5315C44.5969 33.5469 44.5589 33.6236 43.6298 32.8764C42.7766 32.1675 41.9992 32.0717 41.108 32.6848C40.9942 32.7614 40.8615 32.7997 40.634 32.8955C41.1649 33.1638 41.6389 33.4128 42.1129 33.6619C42.4542 33.8343 42.7007 34.0451 42.7007 34.4474C42.7007 34.8497 42.4353 35.0605 42.094 35.2329C41.6579 35.5203 41.2028 35.7502 40.6908 36.0184ZM38.188 30.2708C37.4485 30.5773 36.7848 30.8456 36.1022 31.1138C35.9885 31.1521 35.9126 31.2096 35.9126 31.3437C35.9126 31.9759 35.9126 32.6273 35.9126 33.3362C36.6521 33.0105 37.3157 32.7231 37.9794 32.4549C38.1311 32.3974 38.188 32.2825 38.188 32.1292C38.169 31.5353 38.188 30.9414 38.188 30.2708ZM38.188 38.7198C38.188 38.0492 38.188 37.4553 38.188 36.8422C38.188 36.7273 38.188 36.6315 38.0552 36.574C37.3537 36.2866 36.6711 35.9801 35.9316 35.6544C35.9316 36.3633 35.9316 36.9955 35.9316 37.6277C35.9316 37.7618 35.9885 37.8193 36.1022 37.8768C36.7659 38.145 37.4485 38.4324 38.188 38.7198ZM34.3957 33.3362C34.3957 32.6465 34.3957 32.0142 34.3957 31.4012C34.3957 31.2862 34.3767 31.1904 34.244 31.1329C33.5425 30.8647 32.8598 30.5773 32.1204 30.2708C32.1204 30.9222 32.1204 31.5161 32.1204 32.11C32.1204 32.2633 32.1583 32.3783 32.31 32.4357C32.9736 32.7231 33.6373 33.0105 34.3957 33.3362ZM32.1204 38.7389C32.8598 38.4324 33.5235 38.1642 34.2061 37.896C34.3199 37.8576 34.3957 37.8002 34.3957 37.6661C34.3957 37.0147 34.3957 36.3824 34.3957 35.6735C33.6562 35.9992 32.9926 36.2866 32.3289 36.5548C32.1772 36.6123 32.1204 36.7081 32.1204 36.8805C32.1204 37.4745 32.1204 38.0684 32.1204 38.7389ZM33.1443 34.5432C31.8549 33.7002 31.0206 33.7194 30.1294 34.5623C30.5086 34.7539 30.8879 34.9455 31.2671 35.1371C31.3809 35.1946 31.4757 35.2712 31.6274 35.1946C32.1014 34.9647 32.6133 34.7539 33.1443 34.5432ZM40.141 34.4857C38.9464 33.7002 38.2448 33.7002 37.2399 34.524C38.2069 35.1754 39.1739 35.4628 40.141 34.4857Z" fill="#5FD3D1"/>
<path d="M39.9893 6.91637C41.1459 6.91637 42.1319 6.93553 43.1179 6.91637C43.4023 6.91637 43.4971 6.99301 43.4971 7.29955C43.5161 8.46823 43.5161 8.46823 42.3594 8.46823C41.6579 8.46823 40.9373 8.46823 40.2358 8.46823C40.2168 8.46823 40.1789 8.48739 40.0841 8.54486C40.7857 9.25373 41.4683 9.9626 42.1698 10.6332C42.4542 10.9014 42.4163 11.0546 42.1698 11.3037C41.4114 12.0509 41.4114 12.0509 40.6719 11.3229C40.141 10.7864 39.629 10.2691 39.0981 9.7327C39.0791 9.71354 39.0412 9.69438 38.9464 9.63691C38.9464 10.135 38.9464 10.614 38.9464 11.0738C38.9464 11.3612 38.9464 11.6486 38.9464 11.9359C38.9464 13.1046 38.9464 13.0855 37.7708 13.0855C37.4674 13.0855 37.4105 12.9705 37.4105 12.7023C37.4295 11.8593 37.4105 11.0163 37.4105 10.1733C37.4105 10.0201 37.4105 9.86681 37.4105 9.56027C36.6521 10.3458 35.9505 11.0163 35.3058 11.7252C35.0214 12.0509 34.8508 12.0126 34.5853 11.7252C33.8838 10.978 33.8838 10.9972 34.5664 10.2883C35.0973 9.75186 35.6282 9.19626 36.1781 8.65981C36.197 8.64066 36.216 8.60234 36.2539 8.50654C35.4575 8.50654 34.6991 8.50654 33.9217 8.50654C32.8409 8.50654 32.8598 8.50654 32.8409 7.4145C32.8409 7.01217 32.9736 6.95469 33.3339 6.95469C34.2819 6.97385 35.249 6.95469 36.3677 6.95469C35.5903 6.18834 34.9266 5.47947 34.2251 4.82808C33.9027 4.5407 33.9217 4.36827 34.2251 4.10005C34.9645 3.39118 34.9456 3.37202 35.6851 4.11921C36.235 4.67481 36.7659 5.23041 37.4105 5.88181C37.4105 5.28789 37.4105 4.80892 37.4105 4.34911C37.4105 4.06173 37.4105 3.77435 37.4105 3.48697C37.4105 2.33745 37.4105 2.33745 38.5293 2.35661C38.8326 2.35661 38.9464 2.41408 38.9274 2.73978C38.9085 3.58276 38.9274 4.42575 38.9274 5.26873C38.9274 5.422 38.9274 5.57527 38.9274 5.86265C39.7049 5.07714 40.4064 4.38743 41.0701 3.67856C41.3355 3.39118 41.4683 3.41034 41.7337 3.67856C42.4732 4.4449 42.4922 4.4449 41.7148 5.21125C41.1838 5.72854 40.634 6.26498 39.9893 6.91637Z" fill="#5FD3D1"/>
<path d="M7.09151 40.1755C6.29514 40.9802 5.59357 41.6699 4.91096 42.3979C4.68343 42.6278 4.56966 42.6086 4.36109 42.3979C3.56471 41.5932 3.54575 41.5932 4.34212 40.7886C4.87304 40.2521 5.42292 39.7348 5.97279 39.2176C5.95383 39.1792 5.91591 39.1409 5.89695 39.0834C4.92992 39.0834 3.94394 39.0643 2.97691 39.0834C2.61665 39.0834 2.52184 38.9876 2.52184 38.6428C2.54081 37.5507 2.52184 37.5507 3.60264 37.5507C4.36109 37.5507 5.11954 37.5507 5.87799 37.5507C5.91591 37.3592 5.74526 37.3017 5.66941 37.2059C5.04369 36.5737 4.43693 35.9223 3.79225 35.3092C3.60264 35.1176 3.60264 35.0026 3.79225 34.8111C4.60758 33.9489 4.60758 33.9489 5.44188 34.7919C5.95383 35.29 6.44683 35.8073 6.95878 36.3054C6.97774 36.3246 7.01566 36.3246 7.09151 36.3437C7.09151 35.3475 7.11047 34.3704 7.09151 33.3933C7.07255 33.0293 7.18631 32.9335 7.52762 32.9527C8.60841 32.9718 8.60841 32.9527 8.60841 34.0447C8.60841 34.8111 8.60841 35.5774 8.60841 36.3821C8.81698 36.3246 8.91179 36.1713 9.02556 36.0564C9.63232 35.4433 10.2391 34.8494 10.8269 34.2171C11.0165 34.0255 11.1303 34.0255 11.3199 34.2171C12.1731 35.041 12.1731 35.041 11.3388 35.8839C10.8079 36.4012 10.277 36.9185 9.74608 37.4166C9.76505 37.455 9.80297 37.4933 9.82193 37.5507C10.789 37.5507 11.7749 37.5699 12.742 37.5507C13.1022 37.5507 13.197 37.6465 13.197 37.9914C13.1781 39.0834 13.197 39.0834 12.1162 39.0834C11.3957 39.0834 10.6562 39.0834 9.9357 39.0834C9.89777 39.0834 9.87881 39.1026 9.80297 39.1026C9.89777 39.3133 10.0874 39.4475 10.2201 39.5816C10.77 40.1563 11.3199 40.7119 11.8887 41.2675C12.0783 41.4591 12.1542 41.5549 11.9266 41.804C11.0923 42.647 11.1113 42.6661 10.277 41.8231C9.76505 41.325 9.27205 40.8077 8.7601 40.3096C8.74114 40.2904 8.70321 40.2904 8.62737 40.2713C8.62737 41.2675 8.60841 42.2446 8.62737 43.2217C8.62737 43.5857 8.55152 43.6815 8.19126 43.6815C7.11047 43.6624 7.11047 43.6815 7.11047 42.5895C7.09151 41.8615 7.09151 41.0951 7.09151 40.1755Z" fill="#5FD3D1"/>
<path d="M43.4971 23.0286C43.4971 23.8716 42.7766 24.5613 41.9423 24.5421C41.127 24.523 40.4633 23.8141 40.4633 22.9903C40.4823 22.1473 41.1838 21.4576 42.0181 21.4767C42.8335 21.4959 43.4971 22.2048 43.4971 23.0286Z" fill="#5FD3D1"/>
<path d="M5.57461 28.3548C5.57461 29.1978 4.89201 29.9066 4.03875 29.9066C3.22342 29.9066 2.54081 29.2169 2.54081 28.3931C2.54081 27.5501 3.22342 26.8412 4.07667 26.8412C4.87305 26.8412 5.55565 27.531 5.57461 28.3548Z" fill="#5FD3D1"/>
<path d="M30.5845 13.8134C31.3998 13.8134 32.0824 14.4839 32.1014 15.3269C32.1204 16.1699 31.4188 16.8787 30.5845 16.8787C29.7692 16.8787 29.0866 16.189 29.0676 15.3652C29.0676 14.5222 29.7502 13.8134 30.5845 13.8134Z" fill="#5FD3D1"/>
<path d="M20.7436 38.3173C20.7626 39.1603 20.061 39.8692 19.2267 39.8692C18.4114 39.8692 17.7288 39.1794 17.7098 38.3556C17.6908 37.5126 18.3734 36.8038 19.2267 36.8038C20.042 36.8038 20.7246 37.4743 20.7436 38.3173Z" fill="#5FD3D1"/>
</g>
<defs>
<clipPath id="clip0_0:599">
<rect width="46" height="46" fill="white"/>
</clipPath>
</defs>
</svg>
