<svg width="30" height="30" viewBox="0 0 30 30" fill="none" xmlns="http://www.w3.org/2000/svg">
<g clip-path="url(#clip0_0:570)">
<path d="M1.21922 28.6876C2.62602 28.1486 3.98592 27.6447 5.43962 27.0939C5.20515 26.8829 4.99413 26.7306 4.81828 26.5431C3.49354 25.1017 2.82532 23.379 2.70808 21.4337C2.66119 20.672 2.57913 19.922 2.53223 19.1603C2.50879 18.7618 2.67291 18.5275 2.98944 18.5158C3.3177 18.504 3.49355 18.7033 3.52872 19.1017C3.64595 20.2618 3.64595 21.422 3.86869 22.5704C4.18522 24.2111 5.04102 25.547 6.33059 26.6251C6.41265 26.6954 6.47127 26.6954 6.56506 26.6603C8.42907 25.9572 10.2814 25.254 12.1454 24.5509C12.1571 24.5509 12.1688 24.5275 12.1805 24.5158C12.1336 24.4103 12.0281 24.3986 11.9461 24.3634C7.42086 22.0079 4.6776 18.34 3.70457 13.3361C3.70457 13.3126 3.69284 13.2775 3.69284 13.254C3.64595 12.8673 3.79835 12.6095 4.11488 12.5743C4.40796 12.5275 4.63071 12.7384 4.68932 13.1017C4.78311 13.6173 4.88862 14.1329 5.04102 14.6368C6.36576 19.0197 9.14419 22.1017 13.3529 23.8947C13.5287 23.9767 13.6928 23.9884 13.8804 23.9064C14.8886 23.5079 15.8968 23.1329 16.9168 22.7462C16.9754 22.7228 17.0457 22.6993 17.1512 22.6408C16.3189 22.3595 15.592 21.9845 14.8886 21.5626C11.0668 19.2306 8.05392 16.1134 5.90855 12.1642C5.47479 11.3673 5.1817 10.5236 5.06447 9.62122C4.8769 8.1095 5.81476 7.03138 7.26846 7.07825C7.38569 7.07825 7.50292 7.10169 7.62016 7.12513C7.87807 7.19544 8.01875 7.40638 7.98358 7.67591C7.94841 7.93372 7.73739 8.09778 7.46775 8.09778C6.2837 8.07435 5.8851 8.53138 6.0844 9.69153C6.27197 10.8517 6.79952 11.8829 7.42086 12.8439C9.68346 16.3361 12.5557 19.1954 16.2485 21.1642C16.9519 21.5392 17.7022 21.8322 18.5111 21.9025C18.687 21.9142 18.8628 21.9142 19.0387 21.8908C19.5428 21.8204 19.8124 21.5392 19.871 21.0236C19.9297 20.4611 19.789 19.922 19.6131 19.3947C19.5662 19.2658 19.5193 19.1368 19.5076 19.0079C19.4842 18.7501 19.6014 18.5743 19.8476 18.4923C20.0938 18.422 20.3282 18.4923 20.422 18.715C20.7972 19.6173 21.0551 20.5548 20.7972 21.5392C20.6448 22.1486 20.2462 22.5587 19.66 22.7814C17.3154 23.6603 14.9707 24.5392 12.626 25.4181C8.7456 26.8829 4.8769 28.3478 0.996476 29.8126C0.726839 29.9181 0.457203 30.0822 0.175843 29.8243C-0.0820705 29.5783 0.0351628 29.3087 0.105503 29.0392C0.386863 27.879 0.668223 26.7306 0.949583 25.5704C0.973029 25.5001 0.984753 25.4181 1.0082 25.3478C1.10199 25.0548 1.34818 24.9259 1.61781 24.9962C1.88745 25.0665 2.02813 25.3126 1.96951 25.6173C1.80539 26.3439 1.61781 27.0587 1.44196 27.7736C1.3599 28.0665 1.30128 28.3361 1.21922 28.6876Z" fill="#5FD3D1"/>
<path d="M26.7175 24.5979C25.6975 23.4729 24.4783 22.7932 23.0363 22.5119C22.6495 22.4416 22.4619 22.1955 22.5205 21.9026C22.5909 21.5979 22.8488 21.4573 23.2122 21.5276C24.4549 21.7619 25.5686 22.2776 26.5533 23.0627C26.8699 23.3205 27.1864 23.5901 27.4443 23.9065C27.9601 24.5276 28.476 25.1369 29.0504 25.6994C30.0821 26.6955 30.2462 28.3479 29.578 29.6369C29.4021 29.9651 29.1325 30.0823 28.8628 29.9416C28.5815 29.801 28.5111 29.5198 28.687 29.1916C29.0738 28.4182 29.0738 27.6565 28.687 26.883C28.6635 26.8362 28.6518 26.7659 28.558 26.7541C28.5111 27.094 28.4525 27.4338 28.3118 27.7502C27.9836 28.4651 27.4209 28.8869 26.6354 28.9455C25.803 29.0041 25.1465 28.6643 24.7362 27.926C24.3493 27.2229 24.3845 26.4963 24.8417 25.8283C25.252 25.2307 25.8148 24.8557 26.5064 24.6682C26.5651 24.6448 26.6237 24.633 26.7175 24.5979ZM27.5498 26.5549C27.5498 26.4377 27.5498 26.2854 27.5146 26.133C27.3857 25.6526 27.1512 25.5119 26.6706 25.6643C26.2485 25.7932 25.9086 26.0393 25.6624 26.4143C25.3458 26.8948 25.4865 27.5276 25.9789 27.8205C26.4713 28.1135 27.1161 27.9377 27.3857 27.4221C27.5029 27.1526 27.5498 26.883 27.5498 26.5549Z" fill="#5FD3D1"/>
<path d="M0.961295 5.19216C1.03164 4.80544 1.09025 4.38357 1.17232 3.97341C1.20749 3.77419 1.17232 3.64529 1.01991 3.51638C0.738552 3.25857 0.468916 2.98904 0.199279 2.7195C0.0468757 2.56716 -0.0469109 2.39138 0.0234291 2.16872C0.105492 1.93435 0.269619 1.8406 0.504086 1.80544C0.902679 1.75857 1.28955 1.68825 1.68814 1.64138C1.82882 1.62966 1.91089 1.55935 1.98123 1.43044C2.14535 1.07888 2.33293 0.727317 2.49705 0.375754C2.60256 0.164817 2.74324 0.0241917 2.98943 0.0124729C3.24734 0.000754198 3.39975 0.153098 3.50526 0.375754C3.66938 0.727317 3.85696 1.07888 4.02108 1.43044C4.0797 1.55935 4.17349 1.61794 4.31417 1.62966C4.71276 1.67654 5.09963 1.74685 5.49822 1.79372C5.72097 1.81716 5.89682 1.91091 5.96716 2.13357C6.0375 2.35622 5.96716 2.55544 5.80303 2.7195C5.50995 2.98904 5.22859 3.282 4.9355 3.55154C4.81827 3.657 4.79482 3.76247 4.81827 3.91482C4.88861 4.28982 4.95895 4.66482 5.01757 5.03982C5.05274 5.27419 5.04101 5.49685 4.82999 5.64919C4.61897 5.80154 4.40795 5.75466 4.19693 5.63747C3.86868 5.46169 3.54043 5.29763 3.21217 5.11013C3.05977 5.0281 2.93081 5.01638 2.77841 5.11013C2.42671 5.30935 2.06329 5.50857 1.68814 5.68435C1.32472 5.87185 0.937849 5.62575 0.961295 5.19216ZM1.6178 2.68435C1.80538 2.94216 2.07501 3.07107 2.19225 3.3406C2.30948 3.62185 2.1688 3.89138 2.14535 4.17263C2.13363 4.30154 2.20397 4.30154 2.28603 4.25466C2.37982 4.20779 2.48533 4.16091 2.56739 4.10232C2.84875 3.91482 3.13011 3.91482 3.41147 4.10232C3.54043 4.18435 3.66938 4.26638 3.90385 4.30154C3.55215 3.61013 3.78662 3.0945 4.38451 2.67263C3.62249 2.7195 3.18873 2.36794 3.01288 1.64138C2.79014 1.94607 2.75496 2.27419 2.50877 2.46169C2.27431 2.64919 1.94606 2.56716 1.6178 2.68435Z" fill="#5FD3D1"/>
<path d="M16.0141 15.4806C15.7679 15.4806 15.6038 15.3634 15.5334 15.1407C15.4514 14.8946 15.5569 14.6602 15.8148 14.5313C16.3775 14.2501 16.9402 13.9923 17.503 13.7227C20.3517 12.3634 23.2122 11.004 26.061 9.65633C26.1313 9.62117 26.2017 9.58602 26.272 9.55086C26.5534 9.43367 26.823 9.51571 26.952 9.7618C27.0809 10.0196 26.9989 10.3009 26.7058 10.4532C26.1431 10.7345 25.5686 11.004 24.9942 11.2735C22.122 12.6329 19.2497 14.004 16.3893 15.3634C16.2603 15.422 16.1548 15.4923 16.0141 15.4806Z" fill="#5FD3D1"/>
<path d="M12.4971 6.4454C12.4971 8.6954 12.0985 10.6173 11.3365 12.4688C11.1137 13.0196 10.8793 13.5704 10.6565 14.1095C10.5159 14.4493 10.2345 14.5665 9.95314 14.4376C9.69522 14.3204 9.60144 14.0391 9.73039 13.711C10.1993 12.5509 10.7386 11.4141 11.0551 10.1837C11.5944 8.07431 11.653 5.96493 11.2193 3.83212C11.2075 3.77352 11.1958 3.71493 11.1841 3.65634C11.1255 3.29306 11.2662 3.03524 11.5592 2.97665C11.8523 2.91806 12.0868 3.10556 12.1571 3.46884C12.3916 4.54696 12.5088 5.61337 12.4971 6.4454Z" fill="#5FD3D1"/>
<path d="M18.8863 16.4765C21.3482 16.4883 23.2357 16.8164 25.0528 17.4844C25.299 17.5781 25.4866 17.707 25.4983 18C25.4983 18.375 25.1583 18.5859 24.7714 18.4453C24.1384 18.2226 23.4936 18.0234 22.8371 17.8711C20.6683 17.3789 18.4995 17.3789 16.3306 17.789C15.9203 17.8711 15.51 17.9414 15.088 17.9883C14.7949 18.0234 14.5721 17.8476 14.537 17.5781C14.4901 17.2969 14.6542 17.0508 14.9473 17.0039C16.4244 16.7461 17.8898 16.4531 18.8863 16.4765Z" fill="#5FD3D1"/>
<path d="M20.2462 5.49624C20.6448 5.49624 21.0434 5.49624 21.442 5.49624C21.8054 5.50795 21.993 5.67202 21.993 6.0353C22.0047 6.84389 22.0047 7.65249 21.993 8.46108C21.993 8.81264 21.8054 9.00014 21.442 9.00014C20.6448 9.01186 19.8476 9.01186 19.0387 9.00014C18.6636 9.00014 18.4877 8.81264 18.4877 8.42592C18.476 7.64077 18.476 6.84389 18.4877 6.05874C18.4877 5.6603 18.6636 5.49624 19.0739 5.49624C19.4608 5.48452 19.8594 5.49624 20.2462 5.49624ZM20.9965 7.24233C20.9965 6.50405 20.9965 6.50405 20.2579 6.50405C19.4959 6.50405 19.4959 6.50405 19.4959 7.25405C19.4959 8.00405 19.4959 8.00405 20.2345 8.00405C20.9965 7.99233 20.9965 7.99233 20.9965 7.24233Z" fill="#5FD3D1"/>
<path d="M12.4854 15.0002C12.2978 14.9885 12.1337 14.8947 12.0399 14.6955C11.9461 14.4728 12.0047 14.2736 12.1806 14.1096C12.5323 13.7931 12.8957 13.465 13.2474 13.1486C14.4901 12.0236 15.7445 10.8986 16.9871 9.78533C17.0692 9.7033 17.163 9.62127 17.2568 9.56267C17.4678 9.44549 17.6788 9.48064 17.8429 9.65643C18.0071 9.83221 18.0305 10.0431 17.9133 10.2424C17.8664 10.3244 17.796 10.3947 17.714 10.4533C16.1313 11.883 14.537 13.3127 12.9543 14.7424C12.8371 14.8713 12.6964 14.9885 12.4854 15.0002Z" fill="#5FD3D1"/>
<path d="M27.5146 20.9883C26.6705 20.9883 26.014 20.332 26.014 19.4883C26.014 18.668 26.6823 18 27.5029 18C28.3353 18 29.0152 18.6797 29.0152 19.5117C29.0035 20.3203 28.3353 20.9883 27.5146 20.9883ZM28.007 19.5C28.007 19.2305 27.7725 18.9961 27.5146 18.9961C27.2567 18.9961 27.034 19.207 27.0222 19.4766C27.0105 19.7578 27.2098 19.9805 27.4912 19.9922C27.7608 19.9922 27.9953 19.7695 28.007 19.5Z" fill="#5FD3D1"/>
<path d="M15.4982 6.99612C14.6542 6.99612 13.9976 6.31643 14.0094 5.4844C14.0211 4.67581 14.701 3.99612 15.51 4.00784C16.3423 4.00784 17.0105 4.69925 16.9988 5.53128C16.9871 6.33987 16.3189 6.99612 15.4982 6.99612ZM16.0023 5.49612C16.0023 5.22659 15.7679 4.99221 15.4982 5.00393C15.2286 5.01565 15.0059 5.25003 15.0059 5.51956C15.0176 5.78909 15.2286 5.98831 15.4982 5.98831C15.7796 5.98831 16.0023 5.77737 16.0023 5.49612Z" fill="#5FD3D1"/>
<path d="M11.0082 1.99229C10.4455 1.99229 10.0117 1.5587 10.0117 0.996198C10.0117 0.445417 10.4455 0.0118228 10.9848 0.000104037C11.5358 -0.0116147 11.993 0.433698 12.0047 0.984479C12.0164 1.53526 11.5592 1.99229 11.0082 1.99229Z" fill="#5FD3D1"/>
<path d="M27.4912 7.75785C27.4912 8.26176 27.3271 8.49613 26.9871 8.49613C26.6589 8.49613 26.4947 8.23832 26.4947 7.74613C26.4947 7.62895 26.4947 7.51176 26.5182 7.39457C26.5651 7.14848 26.7761 6.98442 27.0223 6.99613C27.2802 7.00785 27.4678 7.19535 27.4912 7.46488C27.5029 7.57035 27.4912 7.6641 27.4912 7.75785Z" fill="#5FD3D1"/>
<path d="M25.4983 3.26959C25.4983 3.32819 25.4983 3.38678 25.4983 3.44537C25.4866 3.79694 25.299 3.99616 24.9942 3.99616C24.7011 3.99616 24.5135 3.78522 24.5018 3.45709C24.5018 3.31647 24.5018 3.18756 24.5018 3.04694C24.5135 2.71881 24.7128 2.51959 24.9942 2.50787C25.2873 2.50787 25.4866 2.70709 25.4983 3.03522C25.4983 3.10553 25.4983 3.18756 25.4983 3.26959Z" fill="#5FD3D1"/>
<path d="M26.2602 1.51186C26.7643 1.51186 27.0105 1.6642 26.9988 2.00405C26.9988 2.34389 26.7526 2.50795 26.2602 2.50795C26.143 2.50795 26.0258 2.50795 25.9085 2.48452C25.6389 2.42592 25.51 2.25014 25.4982 1.99233C25.4982 1.73452 25.6975 1.54702 25.9554 1.51186C26.0609 1.50014 26.1665 1.51186 26.2602 1.51186Z" fill="#5FD3D1"/>
<path d="M29.2497 10.4883C28.7456 10.4883 28.4994 10.336 28.4994 9.99615C28.4877 9.65631 28.7456 9.48053 29.2614 9.48053C29.7538 9.48053 30 9.65631 30 9.98444C30 10.336 29.7538 10.4883 29.2497 10.4883Z" fill="#5FD3D1"/>
<path d="M27.4912 12.2461C27.4912 12.75 27.3388 12.9961 26.9988 12.9961C26.6588 12.9961 26.483 12.75 26.4947 12.2227C26.4947 12.1289 26.4947 12.0234 26.5064 11.9297C26.5533 11.6719 26.7644 11.4844 27.0105 11.4844C27.2685 11.4844 27.4795 11.6953 27.4912 11.9766C27.5029 12.0703 27.4912 12.1641 27.4912 12.2461Z" fill="#5FD3D1"/>
<path d="M28.3705 9.08209C28.2181 9.07037 28.0657 8.98834 27.9836 8.82427C27.8898 8.66021 27.8898 8.48443 28.007 8.33209C28.1477 8.13287 28.3236 7.95709 28.5229 7.81646C28.8394 7.61724 29.2497 7.8399 29.2614 8.2149C29.2732 8.54302 28.7339 9.09381 28.3705 9.08209Z" fill="#5FD3D1"/>
<path d="M25.4983 0.750061C25.4983 1.25397 25.3342 1.48834 25.0059 1.48834C24.6659 1.48834 24.5018 1.24225 24.5018 0.750061C24.5018 0.66803 24.5018 0.597717 24.5018 0.515686C24.5252 0.19928 24.7363 -0.0116577 25.0176 -0.0116577C25.299 6.10352e-05 25.4866 0.19928 25.4983 0.503967C25.4983 0.597717 25.4983 0.679749 25.4983 0.750061Z" fill="#5FD3D1"/>
<path d="M23.7632 2.49616C23.6225 2.49616 23.4935 2.50787 23.3528 2.47272C23.1066 2.39069 22.9894 2.21491 23.0129 1.95709C23.0363 1.69928 23.177 1.54694 23.4349 1.51178C23.6225 1.48834 23.81 1.50006 23.9859 1.50006C24.279 1.51178 24.4783 1.69928 24.49 1.95709C24.5017 2.22662 24.3141 2.44928 24.0211 2.48444C23.939 2.50787 23.8452 2.49616 23.7632 2.49616Z" fill="#5FD3D1"/>
<path d="M29.2615 11.7538C29.2615 11.9531 29.1677 12.1054 28.9918 12.1992C28.8042 12.2929 28.6284 12.2812 28.476 12.1523C28.3236 12.0234 28.1712 11.871 28.0422 11.7187C27.9133 11.5663 27.9016 11.3788 27.9953 11.1913C28.0774 11.0156 28.2415 10.9218 28.4408 10.9101C28.7339 10.9101 29.2497 11.4492 29.2615 11.7538Z" fill="#5FD3D1"/>
<path d="M25.1935 7.73438C25.5452 7.73438 26.0844 8.26172 26.0844 8.5664C26.0844 8.7539 26.0024 8.90625 25.8382 9C25.6624 9.10547 25.4748 9.10547 25.3224 8.97656C25.1466 8.83594 24.9942 8.67187 24.8535 8.50781C24.7245 8.35547 24.7245 8.16797 24.83 7.99219C24.9004 7.82812 25.0528 7.74609 25.1935 7.73438Z" fill="#5FD3D1"/>
</g>
<defs>
<clipPath id="clip0_0:570">
<rect width="30" height="30" fill="white"/>
</clipPath>
</defs>
</svg>
