<svg width="36" height="36" viewBox="0 0 36 36" fill="none" xmlns="http://www.w3.org/2000/svg">
<path fill-rule="evenodd" clip-rule="evenodd" d="M6.789 6.09678L0.362823 9.64948C0.138977 9.77308 0 10.0087 0 10.2647V35.296C0 35.6843 0.314758 35.9991 0.703125 35.9991H35.2969C35.6852 35.9991 36 35.6843 36 35.296V10.2647C36 10.0087 35.861 9.77308 35.6372 9.64948L18.3403 0.0869827C18.1285 -0.0302963 17.8715 -0.0302963 17.6597 0.0869827L11.712 3.37519C11.3722 3.56306 11.2489 3.99097 11.4368 4.33073C11.6246 4.67048 12.0526 4.7938 12.3923 4.60593L18 1.50559L34.5938 10.6795V34.5928H31.5V21.4875C31.5 21.0992 31.1852 20.7844 30.7969 20.7844C30.4085 20.7844 30.0938 21.0992 30.0938 21.4875V34.5928H28.5517V34.7586H7.44828V34.5928H5.90625V13.2178H30.0938V15.8625C30.0938 16.2509 30.4085 16.5657 30.7969 16.5657C31.1852 16.5657 31.5 16.2509 31.5 15.8625V12.5147C31.5 12.1264 31.1852 11.8116 30.7969 11.8116H5.20312C4.81476 11.8116 4.5 12.1264 4.5 12.5147V34.5928H1.40625V10.6795L7.46933 7.32752C7.80908 7.13966 7.9324 6.71174 7.74454 6.37199C7.55667 6.03223 7.12875 5.90864 6.789 6.09678Z" fill="#5FD3D1"/>
</svg>
