<svg width="43" height="30" viewBox="0 0 43 30" fill="none" xmlns="http://www.w3.org/2000/svg">
<path d="M17.5146 0C20.8945 0 24.2565 0 27.6365 0C29.7512 0 31.1068 1.34008 31.1249 3.43061C31.143 4.86004 31.143 6.28946 31.1249 7.71888C31.1249 8.07624 31.2153 8.16558 31.5768 8.16558C33.7277 8.14771 35.8786 8.16557 38.0295 8.14771C38.6982 8.14771 39.0778 8.37999 39.3489 8.98749C40.4696 11.5068 41.6444 14.0083 42.7832 16.5098C42.9097 16.7957 42.982 17.0637 42.982 17.3675C42.982 19.9047 42.982 22.4598 42.982 24.997C42.982 25.8368 42.6566 26.1584 41.8071 26.1584C41.4998 26.1584 41.1203 26.0691 40.8853 26.212C40.6865 26.3371 40.6684 26.7302 40.5419 26.9982C39.7647 28.8743 37.8668 30.0715 35.8243 29.9643C33.818 29.8571 32.0467 28.4812 31.4683 26.5515C31.3599 26.212 31.2153 26.1406 30.8899 26.1406C25.7928 26.1584 20.6776 26.1584 15.5805 26.1406C15.2733 26.1406 15.1106 26.212 15.0202 26.5337C14.4057 28.5884 12.544 29.9643 10.4292 29.9643C8.27832 29.9643 6.41661 28.5884 5.80207 26.5158C5.71169 26.212 5.5671 26.1227 5.2779 26.1406C4.93448 26.1584 4.59106 26.1406 4.24763 26.1406C2.38593 26.1227 0.939941 24.6397 1.01224 22.7993C1.03032 22.3169 1.08454 21.8166 1.13876 21.3341C1.21106 20.7624 1.66293 20.3871 2.1871 20.4407C2.72935 20.4943 3.09085 20.9232 3.0547 21.4949C3.03662 21.9238 2.96432 22.3526 2.94625 22.7814C2.89202 23.6391 3.47042 24.193 4.33801 24.2466C5.22367 24.318 5.76592 24.193 6.12742 23.1924C6.81426 21.3699 8.80249 20.2978 10.7184 20.4229C12.7609 20.5658 14.478 21.888 15.0383 23.7999C15.1468 24.1572 15.2914 24.2466 15.6528 24.2466C20.027 24.2287 24.383 24.2287 28.7571 24.2466C29.1547 24.2466 29.2451 24.1394 29.2451 23.7463C29.227 17.0101 29.2451 10.2918 29.227 3.55569C29.227 3.37701 29.227 3.19833 29.1909 3.01965C29.0644 2.28708 28.5763 1.87612 27.8172 1.87612C25.7205 1.87612 23.6238 1.87612 21.5452 1.87612C16.8458 1.87612 12.1463 1.87612 7.44688 1.87612C6.45276 1.87612 6.18164 2.07266 5.83822 2.98392C5.6394 3.51995 5.16945 3.78797 4.68143 3.66289C4.15726 3.51995 3.86806 3.03752 3.99459 2.48362C4.30186 1.03633 5.60325 0 7.21191 0C10.6461 0 14.0803 0 17.5146 0ZM31.1249 17.1709C31.1249 19.3687 31.1249 21.5843 31.1249 23.782C31.1249 23.9428 31.0164 24.2108 31.2333 24.2466C31.4683 24.2823 31.4322 23.9964 31.4683 23.8356C32.4082 20.7981 36.0232 19.4937 38.7163 21.2269C39.7466 21.888 40.3973 22.8172 40.7407 23.9786C40.7768 24.0858 40.7407 24.2644 40.9214 24.2466C41.1383 24.2287 41.048 24.05 41.048 23.925C41.066 23.4425 41.048 22.9422 41.048 22.4598C41.048 22.2275 41.0118 22.1203 40.7407 22.1203C40.2888 22.1203 40.0358 21.8702 39.9816 21.4056C39.9454 21.1555 39.9454 20.9053 39.9635 20.6552C39.9996 20.1012 40.2346 19.8511 40.7949 19.8154C40.9937 19.7975 41.048 19.7439 41.048 19.5473C41.0299 19.19 41.0299 18.8326 41.048 18.4753C41.066 18.1537 40.9576 18.0465 40.6323 18.0107C36.7642 17.5283 33.3842 14.5265 32.4624 10.7564C32.2817 10.0417 32.2817 10.0774 31.5406 10.0417C31.143 10.0238 31.1068 10.1846 31.1068 10.5063C31.143 12.7397 31.1249 14.9553 31.1249 17.1709ZM13.3212 25.2114C13.3212 23.6391 12.0379 22.3883 10.4473 22.3705C8.83864 22.3705 7.53725 23.6391 7.55533 25.2293C7.55533 26.7838 8.85671 28.0703 10.4292 28.0703C12.0017 28.0881 13.3212 26.7838 13.3212 25.2114ZM38.9874 25.2472C38.9874 23.6569 37.7041 22.3705 36.0955 22.3883C34.5049 22.3883 33.2216 23.6569 33.2035 25.2114C33.1854 26.7838 34.5049 28.0881 36.0955 28.0881C37.6861 28.0703 38.9874 26.8017 38.9874 25.2472ZM40.3973 16.0274C40.3973 15.9559 40.4154 15.9202 40.3973 15.9023C39.5478 14.0262 38.6802 12.168 37.8307 10.2918C37.7403 10.0774 37.5957 10.0596 37.3969 10.0596C36.4931 10.0596 35.5894 10.0774 34.6856 10.0596C34.3241 10.0417 34.288 10.1668 34.3784 10.4705C34.9025 12.2394 35.8966 13.651 37.3969 14.7409C38.3187 15.3663 39.2947 15.813 40.3973 16.0274Z" fill="#5FD3D1"/>
<path d="M21.491 5.25313C22.8828 5.25313 24.2565 5.25313 25.6482 5.25313C26.4797 5.25313 26.8773 5.66409 26.7689 6.486C26.4797 9.02323 26.1724 11.5605 25.8651 14.1155C25.8109 14.5444 25.6121 14.8839 25.2506 15.1519C24.0034 16.081 22.7562 17.028 21.5272 17.975C21.1837 18.2251 20.8403 18.3681 20.4065 18.3681C17.7134 18.3502 15.0202 18.3681 12.3271 18.3681C11.333 18.3681 10.9895 17.9392 11.1161 16.9565C11.4053 14.5622 11.7125 12.168 11.9656 9.77368C12.0379 9.16617 12.2367 8.71948 12.7428 8.34425C13.9719 7.45086 15.1648 6.52174 16.3578 5.59261C16.7012 5.3246 17.0808 5.19952 17.5145 5.19952C18.834 5.21739 20.1715 5.19952 21.491 5.19952C21.491 5.23526 21.491 5.25313 21.491 5.25313ZM17.2073 10.3454C16.2132 10.3454 15.219 10.3454 14.2249 10.3454C13.9538 10.3454 13.8273 10.399 13.7911 10.6849C13.5923 12.5074 13.3573 14.3121 13.1404 16.1346C13.1043 16.3848 13.1766 16.4741 13.4477 16.4741C15.4721 16.4741 17.4784 16.4562 19.5028 16.4741C19.7739 16.4741 19.8643 16.3669 19.9004 16.1167C20.1173 14.3121 20.3161 12.5074 20.5511 10.7207C20.5873 10.4169 20.4969 10.3454 20.2077 10.3454C19.1955 10.3633 18.2014 10.3454 17.2073 10.3454ZM24.5999 8.36212C23.895 8.89815 23.2804 9.36272 22.6478 9.84515C22.5213 9.93448 22.5393 10.0774 22.5393 10.2204C22.4309 11.1316 22.3224 12.0429 22.214 12.972C22.1236 13.7046 22.0513 14.4372 21.961 15.277C22.6478 14.7588 23.2623 14.2942 23.8588 13.8297C23.9492 13.7582 23.9853 13.6689 24.0034 13.5616C24.1842 11.8642 24.383 10.1668 24.5999 8.36212ZM22.9189 7.23645C22.8285 7.18285 22.8105 7.16498 22.7924 7.16498C21.1114 7.14711 19.4305 7.14711 17.7495 7.14711C17.6591 7.14711 17.5507 7.14711 17.4965 7.18285C16.9723 7.57594 16.4662 7.96903 15.924 8.36212C15.9963 8.41572 16.0143 8.43359 16.0324 8.43359C17.7314 8.43359 19.4305 8.43359 21.1295 8.43359C21.2741 8.43359 21.3826 8.37999 21.491 8.30852C21.961 7.95116 22.4309 7.61167 22.9189 7.23645Z" fill="#5FD3D1"/>
<path d="M7.03108 4.73495C8.06134 4.73495 9.10968 4.73495 10.1399 4.73495C10.3388 4.73495 10.5376 4.75282 10.7183 4.80643C11.116 4.91363 11.4052 5.30672 11.3871 5.71768C11.369 6.14651 11.1521 6.45026 10.7364 6.5932C10.5557 6.64681 10.3568 6.66467 10.158 6.66467C8.06134 6.66467 5.98274 6.66467 3.88606 6.66467C3.79569 6.66467 3.70531 6.66467 3.61494 6.66467C3.05462 6.61107 2.67505 6.21798 2.67505 5.71768C2.67505 5.21738 3.05462 4.82429 3.61494 4.75282C3.74146 4.73495 3.84991 4.75282 3.97644 4.75282C4.98863 4.73495 6.00082 4.73495 7.03108 4.73495Z" fill="#5FD3D1"/>
<path d="M3.83189 12.2931C2.892 12.2931 1.97019 12.3109 1.0303 12.2931C0.271154 12.2752 -0.180716 11.6319 0.0723312 10.9887C0.235005 10.5956 0.560351 10.3991 0.994147 10.3812C2.892 10.3812 4.78986 10.3633 6.66964 10.3812C7.28419 10.3812 7.69991 10.8279 7.68183 11.3639C7.66376 11.9 7.24804 12.2752 6.61542 12.2931C5.6936 12.3109 4.75371 12.2931 3.83189 12.2931Z" fill="#5FD3D1"/>
<path d="M4.03069 16.1703C4.48256 16.1703 4.93443 16.1525 5.3863 16.1703C6.01892 16.1882 6.41657 16.5634 6.43464 17.1173C6.43464 17.6712 6.01892 18.0822 5.36823 18.0822C4.44641 18.1 3.5246 18.1 2.62086 18.0822C1.97016 18.0643 1.55444 17.6891 1.55444 17.1173C1.55444 16.5455 1.97016 16.1882 2.63893 16.1703C3.10888 16.1703 3.57882 16.1703 4.03069 16.1703Z" fill="#5FD3D1"/>
<path d="M10.4111 24.2644C10.9534 24.2644 11.4053 24.6933 11.3872 25.2114C11.3872 25.7296 10.9534 26.1406 10.4473 26.1584C9.90504 26.1763 9.45317 25.7296 9.47125 25.2114C9.45317 24.6933 9.88697 24.2823 10.4111 24.2644Z" fill="#5FD3D1"/>
<path d="M36.0955 26.1584C35.5713 26.1584 35.1556 25.7475 35.1375 25.2293C35.1194 24.6933 35.5532 24.2644 36.0955 24.2644C36.6197 24.2644 37.0534 24.6754 37.0534 25.1936C37.0896 25.7117 36.6377 26.1584 36.0955 26.1584Z" fill="#5FD3D1"/>
</svg>
