<svg width="40" height="40" viewBox="0 0 40 40" fill="none" xmlns="http://www.w3.org/2000/svg">
<path d="M0 20C0 14.125 0 8.23438 0 2.34375C0 0.765625 0.765625 0 2.34375 0C11.0469 0 19.7344 0 28.4375 0C29.5625 0 30.3438 0.546875 30.5938 1.5C30.6562 1.75 30.6719 2.01562 30.6719 2.28125C30.6719 6.26562 30.6719 10.25 30.6719 14.2344C30.6719 14.3906 30.6719 14.5469 30.625 14.7031C30.5469 15 30.3438 15.1719 30.0312 15.1875C29.7031 15.2031 29.4688 15.0469 29.375 14.7344C29.3281 14.5469 29.3125 14.3438 29.3125 14.1562C29.3125 10.2188 29.3125 6.29688 29.3125 2.35938C29.3125 1.53125 29.125 1.34375 28.3125 1.34375C19.6562 1.34375 11 1.34375 2.34375 1.34375C1.53125 1.34375 1.32812 1.53125 1.32812 2.35938C1.32812 14.125 1.32812 25.8906 1.32812 37.6719C1.32812 38.4844 1.51562 38.6875 2.34375 38.6875C11 38.6875 19.6562 38.6875 28.3125 38.6875C29.125 38.6875 29.3125 38.5 29.3125 37.6719C29.3125 35.6875 29.3125 33.6875 29.3125 31.7031C29.3125 31.0312 29.5312 30.7188 29.9844 30.7031C30.4375 30.7031 30.6562 31.0156 30.6562 31.6875C30.6562 33.7031 30.6562 35.7188 30.6562 37.7344C30.6562 39.2344 29.8594 40.0156 28.3594 40.0156C19.6719 40.0156 10.9844 40.0156 2.3125 40.0156C0.765625 40 0 39.2188 0 37.6562C0 31.7812 0 25.8906 0 20Z" fill="#5FD3D1"/>
<path d="M23.5469 32.6406C24.0157 32.0625 24.4532 31.5156 24.8907 31C25.0157 30.8438 24.9688 30.7344 24.8907 30.5781C24.5782 29.9844 24.5313 29.3594 24.8594 28.7813C25.6875 27.3281 26.1875 25.7344 26.7813 24.1875C26.9063 23.8438 27.0625 23.5156 27.25 23.2031C28.9844 20.2031 30.7188 17.1875 32.4688 14.1875C32.625 13.9219 32.625 13.7813 32.3282 13.6719C32.25 13.6406 32.1719 13.5938 32.0938 13.5313C31.7657 13.2969 31.6563 12.9219 31.8282 12.6094C32 12.2969 32.375 12.2031 32.75 12.375C33.3438 12.6406 33.3438 12.6406 33.6563 12.0938C34.0625 11.3906 34.4844 10.7031 34.875 10C35.0782 9.65626 35.3125 9.42188 35.75 9.51563C36 9.57813 36.0157 9.35938 36.0938 9.21876C36.4532 8.57813 36.9375 8.09376 37.7188 8.01563C38.4844 7.92188 39.1094 8.18751 39.5625 8.79688C40.0313 9.42188 40.1094 10.1094 39.7969 10.8281C39.7344 10.9688 39.6719 11.1094 39.5782 11.2344C39.4375 11.4375 39.3907 11.6094 39.5782 11.8438C39.7813 12.0938 39.6719 12.3906 39.5313 12.6406C39.0625 13.4375 38.625 14.25 38.1407 15.0313C37.9688 15.3125 37.9844 15.4375 38.2813 15.5781C39.0938 15.9844 39.5469 16.625 39.5157 17.5781C39.5 17.9219 39.375 18.2344 39.2032 18.5313C38.3594 20 37.5157 21.4688 36.6719 22.9219C36.4219 23.3594 36.0469 23.5 35.7032 23.3125C35.3282 23.1094 35.2657 22.7344 35.5313 22.2656C36.3438 20.8438 37.1719 19.4219 37.9844 18C38.375 17.3281 38.1875 16.8438 37.4375 16.5781C37.2344 16.5 37.2188 16.6563 37.1563 16.75C36.7344 17.4844 36.3125 18.2188 35.8907 18.9531C34.5 21.3594 33.125 23.7813 31.7188 26.1875C31.2032 27.0469 30.4844 27.7656 29.8594 28.5313C29.3438 29.1563 28.8594 29.7969 28.4532 30.5C28 31.3125 27.2969 31.7031 26.3438 31.5938C26.1407 31.5625 26.0313 31.6406 25.9219 31.7969C25.5 32.3438 25.0782 32.8906 24.6407 33.4219C23.875 34.375 22.7032 34.2031 22.2344 33.0781C22.125 32.8125 22.0157 32.5313 21.9063 32.25C21.7344 32.2656 21.7188 32.4063 21.6563 32.5C21.2657 33.0625 20.7032 33.3125 20.1563 33.1563C19.5625 33 19.1875 32.5156 19.125 31.8281C19.0625 31.1406 19.0157 30.4531 18.9532 29.7656C18.9532 29.6719 18.9219 29.5938 18.8438 29.5C18.7969 29.6094 18.75 29.7188 18.7188 29.8281C18.25 31.2344 17.7813 32.6406 17.3125 34.0469C17.125 34.5938 16.7188 34.7813 16.2969 34.5156C16 34.3281 15.9063 34.0469 16.0157 33.7344C16.5625 32.0625 17.1094 30.4063 17.6875 28.75C17.8907 28.1719 18.5 27.8594 19.1094 27.9375C19.6563 28 20.1407 28.4688 20.2188 29.0469C20.3125 29.8281 20.375 30.5938 20.4375 31.375C20.4532 31.4688 20.4532 31.5781 20.4688 31.75C20.6094 31.5469 20.7032 31.4219 20.8125 31.2813C21.4219 30.5 22.5469 30.5938 23.0313 31.4688C23.2344 31.8438 23.3594 32.2344 23.5469 32.6406ZM30.7657 25.0625C30.875 25.0469 30.9063 24.9375 30.9532 24.8594C32.6407 21.9531 34.3125 19.0313 36 16.125C36.125 15.9063 36.0625 15.8125 35.875 15.7031C35.2657 15.375 34.6719 15.0313 34.0938 14.6719C33.875 14.5313 33.7969 14.6094 33.6875 14.7969C32.0157 17.7031 30.3438 20.6094 28.6563 23.5C28.5469 23.6875 28.5157 23.7969 28.75 23.9219C29.375 24.25 29.9688 24.625 30.5782 24.9688C30.6407 25 30.6875 25.0313 30.7657 25.0625ZM38.1094 12.4531C38.1094 12.3438 38.0157 12.3281 37.9532 12.2813C37.3125 11.9063 36.6719 11.5469 36.0313 11.1563C35.8438 11.0469 35.7813 11.1406 35.7032 11.2656C35.3438 11.8906 35 12.5156 34.625 13.125C34.5157 13.2969 34.5469 13.3906 34.7188 13.4844C35.3438 13.8281 35.9688 14.1875 36.5782 14.5625C36.75 14.6719 36.8438 14.6406 36.9375 14.4688C37.2813 13.8438 37.6563 13.2344 38 12.6094C38.0469 12.5625 38.0782 12.5156 38.1094 12.4531ZM28.0313 25.0313C27.9063 25.0156 27.9063 25.125 27.875 25.2031C27.7188 25.5938 27.5625 25.9688 27.4375 26.375C27.3125 26.75 26.9532 27.1875 27.0938 27.4844C27.25 27.7969 27.7657 27.9375 28.1094 28.1563C28.2657 28.2656 28.375 28.25 28.4844 28.0938C28.9375 27.5313 29.4063 26.9688 29.875 26.4063C30.0469 26.2031 29.9688 26.1406 29.7813 26.0313C29.25 25.7344 28.7188 25.4219 28.1875 25.125C28.1563 25.0938 28.0938 25.0625 28.0313 25.0313ZM26.7344 30.3125C27.0469 30.3125 27.6094 29.75 27.5782 29.4688C27.5782 29.3906 26.6094 28.8125 26.5157 28.8125C26.375 28.8281 26.0625 29.4219 26.0625 29.6719C26.0625 30.0313 26.3594 30.3125 26.7344 30.3125ZM38.6563 9.98438C38.6407 9.60938 38.3438 9.34376 37.9532 9.35938C37.6563 9.37501 37.125 9.89063 37.125 10.1875C37.125 10.2656 38.0469 10.8594 38.1719 10.8594C38.3282 10.8594 38.6563 10.25 38.6563 9.98438Z" fill="#5FD3D1"/>
<path d="M15.3125 8C12.5469 8 9.76563 8 7 8C6.1875 8 6 7.8125 6 7.01562C6 6.29687 6 5.57812 6 4.87499C6 4.23437 6.23437 3.99999 6.875 3.99999C8.57812 3.99999 10.2812 3.99999 11.9844 3.99999C15.8594 3.99999 19.75 3.99999 23.625 3.99999C23.8125 3.99999 24.0156 3.98437 24.2031 4.06249C24.5156 4.17187 24.6563 4.40624 24.6406 4.73437C24.6094 5.04687 24.4375 5.26562 24.1094 5.32812C23.9375 5.35937 23.7656 5.35937 23.6094 5.35937C18.3438 5.35937 13.0625 5.35937 7.79688 5.34374C7.40625 5.34374 7.32813 5.45312 7.32813 5.82812C7.35938 6.68749 7.32812 6.68749 8.21875 6.68749C13.3438 6.68749 18.4844 6.68749 23.6094 6.68749C23.7969 6.68749 24 6.68749 24.1875 6.73437C24.5 6.81249 24.6563 7.06249 24.6563 7.375C24.6406 7.6875 24.4844 7.92187 24.1563 7.98437C23.9844 8.01562 23.8125 8.01562 23.6562 8.01562C20.8594 8 18.0938 8 15.3125 8Z" fill="#5FD3D1"/>
<path d="M8.37502 26.0156C9.46877 26.0313 10.4688 26.3281 11.3906 26.9219C11.9531 27.2969 12.1094 27.625 11.875 28.0156C11.6406 28.4063 11.25 28.4219 10.6875 28.0469C9.57814 27.3438 8.39064 27.1563 7.14064 27.5C5.17189 28.0313 3.78127 30.0625 4.01564 32.0781C4.28127 34.3281 6.04689 35.9531 8.25002 36C10.3438 36.0469 12.2344 34.5 12.5781 32.4375C12.6094 32.2031 12.6406 31.9688 12.6563 31.7344C12.7031 31.2656 12.9531 30.9844 13.3438 31C13.7344 31.0156 13.9844 31.2969 13.9844 31.7813C13.9844 35.0313 10.9219 37.7188 7.70314 37.2813C4.89064 36.9063 2.82814 34.7344 2.67189 31.9688C2.48439 28.7344 5.14064 25.9688 8.37502 26.0156Z" fill="#5FD3D1"/>
<path d="M18.6406 15.3281C16.3125 15.3281 13.9844 15.3281 11.6563 15.3281C11.5 15.3281 11.3438 15.3281 11.1875 15.2969C10.8906 15.2344 10.7188 15.0312 10.6875 14.7187C10.6563 14.4062 10.7969 14.1875 11.0781 14.0625C11.25 13.9844 11.4375 13.9844 11.6094 13.9844C16.3125 13.9844 21.0313 13.9844 25.7344 13.9844C25.9063 13.9844 26.0781 13.9844 26.2344 14.0469C26.5313 14.1719 26.6719 14.4063 26.6406 14.7344C26.6094 15.0313 26.4219 15.2344 26.125 15.2969C25.9688 15.3281 25.8125 15.3281 25.6563 15.3281C23.3281 15.3281 20.9844 15.3281 18.6406 15.3281Z" fill="#5FD3D1"/>
<path d="M11.9531 19.3281C9.85937 19.3281 7.76562 19.3281 5.67187 19.3281C5 19.3281 4.6875 19.1094 4.6875 18.6562C4.6875 18.2031 5 17.9844 5.67187 17.9844C9.89062 17.9844 14.0937 17.9844 18.3125 17.9844C18.4531 17.9844 18.5937 17.9844 18.7344 18.0156C19.1094 18.0781 19.3281 18.3281 19.3125 18.6875C19.2969 19.0469 19.0937 19.2656 18.7344 19.3125C18.5781 19.3281 18.4219 19.3281 18.2656 19.3281C16.1562 19.3281 14.0625 19.3281 11.9531 19.3281Z" fill="#5FD3D1"/>
<path d="M15.3125 9.32812C17.4375 9.32812 19.5469 9.32812 21.6719 9.32812C22.3437 9.32812 22.6562 9.54687 22.6562 10C22.6562 10.4531 22.3281 10.6562 21.6562 10.6562C17.4375 10.6562 13.2344 10.6562 9.01561 10.6562C8.34373 10.6562 8.01561 10.4375 8.01561 10C7.99998 9.54687 8.32811 9.32812 8.99998 9.32812C11.0937 9.32812 13.2031 9.32812 15.3125 9.32812Z" fill="#5FD3D1"/>
<path d="M8.65627 22.6562C7.59377 22.6562 6.51564 22.6562 5.45314 22.6562C5.01564 22.6562 4.76564 22.4687 4.70314 22.125C4.62502 21.6875 4.92189 21.3437 5.42189 21.3281C6.07814 21.3125 6.71877 21.3281 7.37502 21.3281C8.81252 21.3281 10.2344 21.3281 11.6719 21.3281C11.7813 21.3281 11.9063 21.3281 12.0156 21.3281C12.3906 21.375 12.6563 21.6562 12.6563 22C12.6563 22.3594 12.375 22.6406 11.9688 22.6562C11.25 22.6719 10.5313 22.6562 9.82814 22.6562C9.43752 22.6562 9.04689 22.6562 8.65627 22.6562Z" fill="#5FD3D1"/>
<path d="M8.18751 33.5469C7.79688 33.5469 7.48438 33.4219 7.21876 33.1562C6.76563 32.7031 6.31251 32.2656 5.87501 31.8125C5.56251 31.4844 5.54688 31.0781 5.82813 30.8125C6.10938 30.5312 6.48438 30.5625 6.82813 30.8906C7.18751 31.2344 7.54688 31.5625 7.87501 31.9375C8.10938 32.2187 8.25001 32.1563 8.46876 31.9219C9.06251 31.2969 9.67188 30.7031 10.2813 30.0937C10.3594 30.0156 10.4219 29.9375 10.5 29.875C10.7969 29.6406 11.1719 29.6562 11.4219 29.9062C11.6563 30.1406 11.7031 30.5312 11.4531 30.7969C10.6406 31.6406 9.81251 32.4531 8.96876 33.2656C8.75001 33.4844 8.46876 33.5469 8.18751 33.5469Z" fill="#5FD3D1"/>
<path d="M23.6406 19.3281C22.9062 19.3281 22.1875 19.3281 21.4531 19.3281C21.1094 19.3281 20.8281 19.2188 20.7031 18.8906C20.5469 18.4531 20.8437 18.0156 21.3437 18.0156C22.875 18 24.4062 18 25.9375 18.0156C26.375 18.0156 26.6406 18.3125 26.625 18.7031C26.6094 19.0781 26.3594 19.3281 25.9219 19.3438C25.1875 19.3438 24.4062 19.3281 23.6406 19.3281Z" fill="#5FD3D1"/>
<path d="M16.9531 22.6562C16.2344 22.6562 15.5156 22.6562 14.8125 22.6562C14.3125 22.6562 14.0156 22.3906 14 22C14 21.6094 14.3125 21.3281 14.7969 21.3281C16.2656 21.3281 17.7344 21.3281 19.2031 21.3281C19.6875 21.3281 20 21.6094 19.9844 22.0156C19.9688 22.4062 19.6875 22.6562 19.2031 22.6562C18.4688 22.6719 17.7031 22.6562 16.9531 22.6562Z" fill="#5FD3D1"/>
</svg>
