<svg width="36" height="34" viewBox="0 0 36 34" fill="none" xmlns="http://www.w3.org/2000/svg">
<path d="M28.3803 14.2607C28.549 14.3586 28.6755 14.3166 28.802 14.3166C30.517 14.3166 32.246 14.3166 33.961 14.3166C35.2683 14.3166 35.9852 15.0296 35.9852 16.3158C35.9852 19.9507 35.9852 23.5856 35.9852 27.2204C35.9852 27.8635 35.7743 28.3808 35.3104 28.8421C33.8063 30.324 32.3022 31.8199 30.8122 33.3158C30.3483 33.7911 29.8141 34.0008 29.1535 34.0008C25.091 33.9869 21.0285 33.9869 16.966 34.0008C16.5162 34.0008 16.1086 33.9309 15.7431 33.6513C15.6306 33.5675 15.5463 33.5675 15.4338 33.6513C15.0824 33.917 14.6747 34.0008 14.239 34.0008C10.1343 34.0008 6.04374 34.0008 1.93909 34.0008C0.73019 34.0008 -0.0148315 33.2739 -0.0148315 32.0716C-0.0148315 28.227 -0.0148315 24.3824 -0.0148315 20.5379C-0.0148315 19.699 0.30848 19.1258 1.02539 18.6645C2.92308 17.3923 4.76455 16.0642 6.63413 14.75C6.88716 14.5683 7.14019 14.3865 7.44944 14.3726C7.78681 14.3586 7.80087 14.1908 7.80087 13.9252C7.78681 12.0518 7.80087 10.1785 7.80087 8.30513C7.80087 7.56417 7.80087 6.80924 7.80087 6.06829C7.80087 5.32733 8.13823 4.81006 8.75674 4.39065C10.6544 3.09049 12.5381 1.77634 14.4217 0.44822C14.8013 0.182595 15.1808 0.0148315 15.6587 0.0148315C19.412 0.0148315 23.1792 0.0148315 26.9325 0.0148315C28.043 0.0148315 28.788 0.769766 28.788 1.90217C28.802 3.53786 28.788 5.15957 28.788 6.79526C28.788 8.76648 28.788 10.7377 28.788 12.6949C28.802 13.2402 28.7599 13.7854 28.3803 14.2607ZM23.0949 32.7985C25.1191 32.7985 27.1433 32.7985 29.1675 32.7985C29.8001 32.7985 29.9969 32.6028 29.9969 31.9877C29.9969 28.1571 29.9969 24.3265 29.9969 20.4959C29.9969 19.8808 29.8001 19.6851 29.1816 19.6851C25.1332 19.6851 21.0707 19.6851 17.0223 19.6851C16.4038 19.6851 16.207 19.8808 16.207 20.4959C16.207 24.3265 16.207 28.1571 16.207 31.9877C16.207 32.6168 16.3897 32.7985 17.0223 32.7985C19.0465 32.7985 21.0707 32.7985 23.0949 32.7985ZM8.09606 32.7985C10.1343 32.7985 12.1726 32.7985 14.2109 32.7985C14.8013 32.7985 14.984 32.6168 14.984 32.0296C14.984 28.1711 14.984 24.3125 14.984 20.468C14.984 19.8808 14.7872 19.6851 14.2109 19.6851C10.1343 19.6851 6.0578 19.6851 1.98126 19.6851C1.40493 19.6851 1.19407 19.8948 1.19407 20.468C1.19407 24.3265 1.19407 28.1851 1.19407 32.0296C1.19407 32.6028 1.39087 32.7985 1.98126 32.7985C4.01953 32.7985 6.0578 32.7985 8.09606 32.7985ZM15.9118 5.36927C13.8875 5.36927 11.8633 5.36927 9.83913 5.36927C9.17845 5.36927 9.00977 5.53703 9.00977 6.19411C9.00977 10.0107 9.00977 13.8413 9.00977 17.6579C9.00977 18.301 9.19251 18.4828 9.85319 18.4828C13.8876 18.4828 17.936 18.4828 21.9703 18.4828C22.631 18.4828 22.7997 18.315 22.7997 17.6579C22.7997 13.8413 22.7997 10.0107 22.7997 6.19411C22.7997 5.53703 22.631 5.36927 21.9703 5.36927C19.9461 5.36927 17.9219 5.36927 15.9118 5.36927ZM23.9945 16.9309C25.1332 15.7985 26.2015 14.736 27.2698 13.6875C27.4947 13.4638 27.5931 13.2262 27.5931 12.9186C27.5931 9.39559 27.5931 5.88654 27.5931 2.36352C27.5931 2.26565 27.6494 2.13983 27.5088 2.02799C26.3139 3.06253 25.1332 4.09707 23.9383 5.13161C23.854 5.20151 23.854 5.27141 23.8821 5.36927C23.9945 5.66286 23.9805 5.95644 23.9805 6.26401C23.9805 9.66121 23.9805 13.0584 23.9805 16.4696C23.9945 16.5954 23.9945 16.7212 23.9945 16.9309ZM31.2058 31.2188C31.3464 31.093 31.4166 31.0231 31.4869 30.9531C32.485 29.9606 33.469 28.968 34.467 27.9893C34.706 27.7656 34.8044 27.514 34.8044 27.1785C34.7903 23.6694 34.8044 20.1744 34.8044 16.6653C34.8044 16.5535 34.8325 16.4416 34.7763 16.3298C34.6498 16.3438 34.5935 16.4416 34.5232 16.4976C33.469 17.4203 32.4147 18.343 31.3464 19.2517C31.1496 19.4194 31.0371 19.5592 31.1496 19.8388C31.2339 20.0485 31.2198 20.3002 31.2198 20.5239C31.2198 23.9071 31.2198 27.3043 31.2198 30.6875C31.2058 30.8553 31.2058 30.9951 31.2058 31.2188ZM33.7501 15.5888C33.736 15.5609 33.722 15.5329 33.7079 15.505C31.5713 15.505 29.4205 15.505 27.2839 15.505C27.1152 15.505 27.0309 15.6028 26.9325 15.7007C26.1171 16.5115 25.3159 17.3084 24.5006 18.1193C24.4022 18.2171 24.3179 18.315 24.1632 18.4688C24.3741 18.4688 24.4865 18.4688 24.6131 18.4688C26.1312 18.4688 27.6494 18.4688 29.1816 18.4688C29.4346 18.4688 29.7017 18.4688 29.9407 18.5806C30.1515 18.6785 30.278 18.6086 30.4327 18.4688C31.2901 17.7138 32.1617 16.9589 33.0191 16.218C33.2581 16.0083 33.4971 15.7985 33.7501 15.5888ZM18.0625 4.12503C18.1749 4.20891 18.3015 4.16697 18.3999 4.16697C19.5806 4.16697 20.7614 4.16697 21.9422 4.16697C22.2093 4.16697 22.4904 4.15299 22.7435 4.26483C22.9403 4.34871 23.0527 4.29279 23.2073 4.16697C24.2476 3.24427 25.3018 2.33555 26.3561 1.42684C26.4264 1.37092 26.5529 1.32898 26.5248 1.18917C24.9926 1.18917 23.4744 1.18917 21.9563 1.18917C21.8016 1.18917 21.6892 1.27306 21.5908 1.35694C20.5225 2.18177 19.4682 3.00661 18.3999 3.83144C18.2874 3.91532 18.1328 3.98523 18.0625 4.12503ZM19.7915 1.24509C19.6931 1.21713 19.665 1.20315 19.6369 1.20315C18.3015 1.20315 16.966 1.20315 15.6306 1.20315C15.476 1.20315 15.3354 1.25907 15.2089 1.35694C14.2249 2.05595 13.2269 2.75496 12.2288 3.45398C11.9196 3.67766 11.6103 3.88736 11.2589 4.13901C11.3573 4.16697 11.3995 4.18095 11.4416 4.18095C12.9036 4.18095 14.3655 4.18095 15.8274 4.18095C15.9399 4.18095 16.0383 4.15299 16.1226 4.08309C17.3175 3.14641 18.5264 2.20973 19.7915 1.24509ZM3.42914 18.4548C3.56971 18.4688 3.62593 18.4828 3.6681 18.4828C4.97541 18.4828 6.29676 18.4828 7.60407 18.4828C7.70247 18.4828 7.89926 18.5666 7.87115 18.329C7.74464 17.5041 7.84304 16.6793 7.81492 15.8545C7.81492 15.7426 7.88521 15.6028 7.75869 15.5469C7.64624 15.491 7.53378 15.5888 7.44944 15.6587C6.71848 16.176 6.00157 16.6793 5.2706 17.1966C4.66615 17.588 4.08982 17.9934 3.42914 18.4548Z" fill="#5FD3D1"/>
<path d="M19.7923 31.6094C19.3987 31.6094 18.991 31.6234 18.5974 31.6094C17.9508 31.5954 17.4588 31.162 17.4167 30.505C17.3885 30.0436 17.3885 29.5683 17.4167 29.1069C17.4588 28.4778 17.9508 28.0444 18.5834 28.0304C19.3846 28.0165 20.1999 28.0165 21.0012 28.0304C21.6619 28.0444 22.1539 28.5058 22.196 29.1628C22.2241 29.5962 22.2241 30.0296 22.196 30.449C22.1539 31.1201 21.6619 31.5814 20.9871 31.5954C20.5795 31.6094 20.1859 31.6094 19.7923 31.6094ZM19.7923 29.2327C19.6939 29.2327 19.5814 29.2327 19.483 29.2327C18.5412 29.2327 18.5412 29.2327 18.5974 30.1974C18.6115 30.3791 18.6677 30.435 18.8505 30.435C19.2722 30.4211 19.6939 30.435 20.1156 30.435C21.0574 30.435 21.0574 30.435 21.0152 29.4984C21.0152 29.4844 21.0152 29.4704 21.0152 29.4704C21.0293 29.3026 20.959 29.2467 20.7903 29.2467C20.453 29.2327 20.1297 29.2327 19.7923 29.2327Z" fill="#5FD3D1"/>
<path d="M27.2846 29.2327C26.9894 29.2327 26.6942 29.2467 26.4131 29.2327C26.0476 29.2188 25.8087 28.9671 25.8087 28.6456C25.8087 28.31 26.0476 28.0584 26.4131 28.0584C27.0035 28.0444 27.608 28.0444 28.1983 28.0584C28.5498 28.0584 28.8028 28.324 28.8028 28.6456C28.8028 28.9671 28.5498 29.2188 28.1983 29.2467C27.8891 29.2327 27.5798 29.2327 27.2846 29.2327Z" fill="#5FD3D1"/>
<path d="M27.3128 30.4211C27.608 30.4211 27.9031 30.4071 28.1843 30.4211C28.5498 30.435 28.7887 30.6867 28.8028 31.0082C28.8028 31.3298 28.5498 31.5954 28.1983 31.6094C27.608 31.6234 27.0035 31.6234 26.4131 31.6094C26.0476 31.5954 25.8087 31.3577 25.8087 31.0222C25.8087 30.6867 26.0476 30.435 26.4131 30.4211C26.6942 30.4071 27.0035 30.4211 27.3128 30.4211Z" fill="#5FD3D1"/>
<path d="M4.77938 28.0304C5.18704 28.0304 5.59469 28.0165 6.00234 28.0304C6.66302 28.0444 7.15502 28.5058 7.18313 29.1628C7.19719 29.5962 7.19719 30.0296 7.18313 30.449C7.15502 31.1061 6.66302 31.5814 6.00234 31.5954C5.20109 31.6094 4.38579 31.6094 3.58454 31.5954C2.9098 31.5814 2.41781 31.0921 2.38969 30.4211C2.37564 30.0156 2.37564 29.6102 2.38969 29.2048C2.41781 28.5337 2.9098 28.0444 3.58454 28.0304C3.99219 28.0304 4.38579 28.0304 4.77938 28.0304ZM4.8075 30.4211C4.9059 30.4211 4.99024 30.4211 5.08864 30.4211C6.03046 30.4211 6.0164 30.4211 6.00234 29.4844C6.00234 29.2607 5.918 29.2188 5.70715 29.2188C5.29949 29.2327 4.89184 29.2188 4.48419 29.2188C3.57048 29.2188 3.58454 29.2188 3.58454 30.1275C3.58454 30.3651 3.68294 30.4211 3.89379 30.4071C4.20305 30.4071 4.5123 30.4211 4.8075 30.4211Z" fill="#5FD3D1"/>
<path d="M12.2858 31.6094C12.0047 31.6094 11.7235 31.6234 11.4424 31.6094C11.0488 31.5954 10.8098 31.3577 10.8098 31.0082C10.8098 30.6727 11.0488 30.435 11.4143 30.4211C12.0047 30.4071 12.581 30.4071 13.1714 30.4211C13.5369 30.435 13.7758 30.6727 13.7899 31.0082C13.7899 31.3577 13.5509 31.5954 13.1573 31.6094C12.8762 31.6234 12.581 31.6094 12.2858 31.6094Z" fill="#5FD3D1"/>
<path d="M12.2999 29.2188C12.0047 29.2188 11.7095 29.2327 11.4284 29.2188C11.0629 29.2048 10.8239 28.9671 10.8239 28.6316C10.8239 28.2961 11.0629 28.0444 11.4284 28.0444C12.0188 28.0304 12.6232 28.0304 13.2136 28.0444C13.565 28.0584 13.7899 28.2821 13.804 28.6176C13.8181 28.9531 13.5791 29.2188 13.2277 29.2327C12.9044 29.2327 12.5951 29.2188 12.2999 29.2188Z" fill="#5FD3D1"/>
<path d="M12.6091 17.2936C12.2015 17.2936 11.7938 17.3076 11.3862 17.2936C10.7114 17.2796 10.2194 16.7903 10.2054 16.1193C10.1913 15.7138 10.1913 15.3084 10.2054 14.903C10.2194 14.2319 10.7255 13.7426 11.4002 13.7286C12.2015 13.7146 13.0168 13.7146 13.818 13.7286C14.4787 13.7426 14.9707 14.2179 14.9988 14.875C15.0129 15.3084 15.0129 15.7418 14.9988 16.1612C14.9707 16.8043 14.4928 17.2656 13.8461 17.2936C13.4385 17.2936 13.0168 17.2936 12.6091 17.2936ZM12.6091 16.0913C12.7075 16.0913 12.7919 16.0913 12.8903 16.0913C13.8602 16.0913 13.8602 16.0913 13.804 15.1267C13.7899 14.9449 13.7337 14.889 13.5509 14.889C13.1292 14.903 12.7075 14.889 12.2858 14.889C11.358 14.889 11.358 14.889 11.3862 15.8257C11.3862 16.0354 11.4564 16.0773 11.6532 16.0773C11.9766 16.0913 12.2858 16.0913 12.6091 16.0913Z" fill="#5FD3D1"/>
<path d="M20.0875 14.903C19.7923 14.903 19.4971 14.9169 19.216 14.903C18.8505 14.889 18.6115 14.6373 18.6115 14.3158C18.6115 13.9803 18.8505 13.7286 19.216 13.7286C19.8064 13.7146 20.3827 13.7146 20.9731 13.7286C21.3526 13.7426 21.6057 13.9943 21.5916 14.3438C21.5775 14.6793 21.3386 14.903 20.9731 14.9169C20.6779 14.9169 20.3827 14.903 20.0875 14.903Z" fill="#5FD3D1"/>
<path d="M20.0875 17.2936C19.7923 17.2936 19.4971 17.3076 19.216 17.2936C18.8505 17.2796 18.6115 17.042 18.6115 16.7064C18.6115 16.3709 18.8505 16.1193 19.216 16.1053C19.8064 16.0913 20.4108 16.0913 21.0012 16.1053C21.3667 16.1193 21.5916 16.3849 21.5916 16.7204C21.5775 17.0559 21.3526 17.2796 20.9731 17.2936C20.945 17.2936 20.9309 17.2936 20.9028 17.2936C20.6357 17.2936 20.3546 17.2936 20.0875 17.2936Z" fill="#5FD3D1"/>
</svg>
