<svg width="36" height="26" viewBox="0 0 36 26" fill="none" xmlns="http://www.w3.org/2000/svg">
<path d="M33.5119 24.6316C34.1023 24.6316 34.6224 24.6316 35.1285 24.6316C35.6626 24.6316 35.9859 24.9053 35.9859 25.3295C35.9719 25.74 35.6626 26 35.1425 26C31.8251 26 28.5076 26 25.2042 26C17.1636 26 9.13706 26 1.09645 26C0.969934 26 0.843421 26 0.716907 26C0.309254 25.9726 0.028114 25.6989 0.014057 25.3295C0.014057 24.9463 0.309254 24.6453 0.730964 24.6453C1.96798 24.6316 3.21906 24.6453 4.45607 24.6453C4.7091 24.6453 4.96212 24.6453 5.28544 24.6453C4.83561 24.0705 4.49824 23.5095 4.35767 22.8663C4.3155 22.6611 4.24522 22.4558 4.25927 22.2642C4.27333 21.9768 4.17493 21.8947 3.87973 21.9084C3.28934 21.9358 2.713 21.9221 2.12261 21.9084C0.94182 21.8811 0.028114 21.0189 0.028114 19.8558C0 13.9168 0 7.99158 0 2.05263C0 0.862105 0.927763 0 2.19289 0C7.00039 0 11.8219 0 16.6294 0C18.4147 0 20.214 0 21.9992 0C23.4471 0 24.3186 0.848421 24.3186 2.24421C24.3186 3.66737 24.3327 5.09053 24.3186 6.51368C24.3186 6.78737 24.403 6.85579 24.6701 6.8421C26.4553 6.82842 28.2265 6.84211 30.0117 6.82842C31.0238 6.81474 31.7267 7.23895 32.1765 8.11474C33.3432 10.3863 34.51 12.6579 35.6767 14.9295C35.9016 15.3537 36.0141 15.7916 36 16.2705C35.9719 17.42 35.9859 18.5695 35.9859 19.7189C35.9859 20.6084 35.5923 21.2653 34.763 21.6758C34.6505 21.7305 34.5662 21.7716 34.5662 21.9221C34.5662 22.9347 34.2148 23.8105 33.5119 24.6316ZM12.1453 1.36842C8.85592 1.36842 5.56658 1.36842 2.27724 1.36842C1.68684 1.36842 1.4057 1.61474 1.4057 2.16211C1.4057 6.36316 1.4057 10.5779 1.4057 14.7789C1.4057 15.0116 1.49004 15.0663 1.7009 15.0526C2.26318 15.0389 2.82546 15.0389 3.38774 15.0526C3.95002 15.0526 4.2171 15.3126 4.2171 15.8463C4.2171 16.6811 4.2171 17.5158 4.2171 18.3368C4.2171 18.8979 3.95002 19.1442 3.37368 19.1579C2.79734 19.1579 2.22101 19.1716 1.65873 19.1579C1.46193 19.1579 1.37759 19.2126 1.4057 19.4042C1.41976 19.5 1.4057 19.6095 1.4057 19.7053C1.4057 20.2663 1.67278 20.5126 2.24912 20.5126C2.88169 20.5126 3.51425 20.4989 4.14682 20.5126C4.38579 20.5126 4.48419 20.4305 4.58258 20.2253C5.34166 18.6653 6.62085 17.7895 8.40609 17.7758C10.2054 17.7621 11.4986 18.6242 12.2718 20.1979C12.3842 20.4305 12.4967 20.4989 12.7638 20.4989C16.0109 20.4853 19.2581 20.4853 22.4912 20.4989C22.8286 20.4989 22.9129 20.4305 22.9129 20.0884C22.9129 14.1905 22.9129 8.25158 22.9129 2.31263C22.9129 1.58737 22.7021 1.36842 21.957 1.36842C18.6818 1.36842 15.4205 1.36842 12.1453 1.36842ZM31.3331 9.57895C31.1644 9.23684 31.0098 8.96316 30.8692 8.67579C30.7146 8.34737 30.4475 8.21053 30.082 8.21053C28.2686 8.21053 26.4553 8.22421 24.6419 8.21053C24.3749 8.21053 24.3186 8.29263 24.3186 8.53895C24.3327 10.5505 24.3186 12.5758 24.3186 14.5874C24.3186 16.4621 24.3186 18.3505 24.3186 20.2253C24.3186 20.4716 24.3889 20.54 24.6279 20.5263C25.1058 20.5126 25.5838 20.5126 26.0617 20.5263C26.2866 20.54 26.3991 20.4716 26.4975 20.2526C27.2284 18.7337 28.4514 17.8716 30.1663 17.8032C31.9516 17.7347 33.2589 18.5421 34.1164 20.0474C34.1726 20.1432 34.1726 20.3211 34.2991 20.3074C34.4537 20.2937 34.4959 20.1295 34.5381 20.0063C34.5662 19.8968 34.5662 19.7874 34.5662 19.6642C34.5662 18.6926 34.5521 17.7211 34.5802 16.7632C34.5802 16.4758 34.4959 16.4074 34.2148 16.4074C31.6986 16.4211 29.1824 16.4074 26.6661 16.4074C25.9492 16.4074 25.7243 16.1884 25.7243 15.4768C25.7243 13.8211 25.7243 12.1653 25.7243 10.5232C25.7243 9.77053 25.9352 9.56526 26.6943 9.56526C28.2124 9.57895 29.7446 9.57895 31.3331 9.57895ZM27.2003 24.6179C26.5396 23.8379 26.1882 23.0168 26.146 22.0726C26.132 21.8811 26.0195 21.8947 25.893 21.8947C25.4291 21.8947 24.9512 21.8947 24.4873 21.8947C20.6638 21.8947 16.8262 21.8947 13.0027 21.8947C12.7638 21.8947 12.6373 21.9221 12.6232 22.2095C12.5951 22.8116 12.4123 23.3726 12.1031 23.8926C11.9625 24.1389 11.7938 24.3579 11.6251 24.6179C16.8262 24.6179 21.9852 24.6179 27.2003 24.6179ZM34.1023 15.0526C34.0882 14.9842 34.0882 14.9432 34.0601 14.9021C33.4135 13.6432 32.7669 12.3842 32.1203 11.1116C32.0359 10.9474 31.9235 10.9474 31.7829 10.9474C30.335 10.9474 28.8872 10.9611 27.4252 10.9474C27.1722 10.9474 27.116 11.0158 27.116 11.2484C27.13 12.4116 27.13 13.5747 27.116 14.7379C27.116 14.9979 27.1722 15.0663 27.4393 15.0663C29.1402 15.0526 30.827 15.0663 32.5279 15.0663C33.0621 15.0526 33.5681 15.0526 34.1023 15.0526ZM5.6228 21.8674C5.60875 23.3726 6.87388 24.6179 8.42015 24.6179C9.95236 24.6179 11.2175 23.4137 11.2456 21.9221C11.2597 20.4032 10.0086 19.1579 8.46232 19.1442C6.91605 19.1442 5.63686 20.3621 5.6228 21.8674ZM27.5517 21.8947C27.5517 23.4 28.8169 24.6316 30.3631 24.6316C31.8954 24.6316 33.1605 23.4137 33.1605 21.9221C33.1745 20.4168 31.9094 19.1716 30.3631 19.1716C28.8169 19.1579 27.5517 20.3758 27.5517 21.8947ZM2.8114 17.1053C2.8114 16.4211 2.8114 16.4211 2.13667 16.4211C1.4057 16.4211 1.4057 16.4211 1.4057 17.1189C1.4057 17.7758 1.4057 17.7758 2.10855 17.7758C2.8114 17.7895 2.8114 17.7895 2.8114 17.1053Z" fill="#5FD3D1"/>
<path d="M14.9567 5.47371C13.5791 5.47371 12.2015 5.47371 10.8098 5.47371C10.7114 5.47371 10.599 5.47371 10.5006 5.47371C10.121 5.44634 9.8399 5.15897 9.8399 4.80318C9.8399 4.44739 10.107 4.16002 10.4865 4.11897C10.6552 4.10529 10.8098 4.10529 10.9785 4.10529C13.6634 4.10529 16.3624 4.10529 19.0472 4.10529C19.1456 4.10529 19.23 4.10529 19.3284 4.10529C19.7782 4.11897 20.0875 4.39265 20.0875 4.7895C20.0875 5.18634 19.7782 5.46002 19.3424 5.47371C19.244 5.47371 19.1597 5.47371 19.0613 5.47371C17.6978 5.47371 16.3342 5.47371 14.9567 5.47371Z" fill="#5FD3D1"/>
<path d="M16.3764 8.21053C15.4205 8.21053 14.4647 8.21053 13.4947 8.21053C12.9746 8.21053 12.6654 7.95052 12.6513 7.54C12.6513 7.11579 12.9606 6.8421 13.5088 6.8421C15.4205 6.8421 17.3463 6.8421 19.2581 6.8421C19.7782 6.8421 20.0875 7.1021 20.1015 7.51263C20.1015 7.93684 19.7923 8.21053 19.244 8.21053C18.2882 8.21053 17.3323 8.21053 16.3764 8.21053Z" fill="#5FD3D1"/>
<path d="M7.7173 4.10529C8.11089 4.0916 8.4342 4.40634 8.4342 4.7895C8.4342 5.15897 8.12495 5.46002 7.74541 5.47371C7.35181 5.48739 7.0285 5.17265 7.0285 4.7895C7.0285 4.42002 7.33776 4.11897 7.7173 4.10529Z" fill="#5FD3D1"/>
<path d="M9.83991 21.8947C9.83991 22.6474 9.20734 23.2631 8.4342 23.2631C7.66107 23.2631 7.0285 22.6474 7.0285 21.8947C7.0285 21.1421 7.66107 20.5263 8.4342 20.5263C9.20734 20.5263 9.83991 21.1421 9.83991 21.8947Z" fill="#5FD3D1"/>
<path d="M31.7689 21.881C31.7689 22.6337 31.1504 23.2495 30.3772 23.2631C29.6041 23.2631 28.9715 22.661 28.9575 21.9084C28.9575 21.1558 29.576 20.54 30.3491 20.5263C31.1222 20.5263 31.7689 21.1284 31.7689 21.881Z" fill="#5FD3D1"/>
</svg>
