<svg width="47" height="40" viewBox="0 0 47 40" fill="none" xmlns="http://www.w3.org/2000/svg">
<path d="M28.6225 13.9933C28.4022 13.4793 28.2186 13.0604 28.1452 12.5845C27.8882 11.0804 28.7327 9.88101 30.2015 9.84293C32.221 9.78582 34.2405 9.7287 36.26 9.88101C36.4804 9.90005 36.5722 9.86197 36.5722 9.61447C36.5722 7.29177 36.5722 4.95002 36.5538 2.62732C36.5538 2.17039 36.2968 1.90386 35.8745 1.90386C32.6065 1.90386 29.3202 1.90386 26.0522 1.88482C25.7034 1.88482 25.7401 2.09424 25.7401 2.3227C25.7401 4.81675 25.7401 7.3108 25.7401 9.78582C25.7401 9.93812 25.7401 10.1095 25.7401 10.2618C25.7034 11.1185 24.9874 11.5183 24.2714 11.0614C23.2616 10.4331 22.2702 9.78582 21.2788 9.11947C21.0218 8.94812 20.8565 8.92908 20.5811 9.11947C19.6265 9.76678 18.6718 10.357 17.7171 10.9852C17.3683 11.2137 17.0011 11.347 16.5972 11.1376C16.1933 10.9091 16.1198 10.5283 16.1198 10.0904C16.1198 7.52023 16.1198 4.95002 16.1382 2.37982C16.1382 1.98001 16.028 1.88482 15.6608 1.88482C12.503 1.90386 9.36356 1.90386 6.24247 1.90386C5.5081 1.90386 5.30614 2.11328 5.30614 2.89386C5.30614 4.83579 5.30614 6.79676 5.30614 8.7387C5.30614 8.891 5.30614 9.06235 5.28778 9.21466C5.23271 9.76678 4.84716 10.1475 4.35146 10.1285C3.85575 10.1095 3.47021 9.7287 3.47021 9.17658C3.45185 6.91099 3.43349 4.64541 3.48856 2.37982C3.50692 1.0852 4.59013 0.0571157 5.85692 0C5.94872 0 6.04052 0 6.13232 0C15.9913 0 25.8686 0 35.7276 0C37.0495 0 38.0225 0.742504 38.3347 1.96097C38.4081 2.26559 38.4081 2.58924 38.4081 2.9129C38.4081 5.36887 38.4081 7.82484 38.4081 10.2808C38.4081 10.6045 38.4999 10.7949 38.7569 10.9852C39.5831 11.5945 40.2624 12.3751 40.96 13.1366C41.2354 13.4412 41.5108 13.7268 41.8046 14.0124C42.5206 14.7358 43.3651 15.1547 44.4116 15.0595C44.7788 15.0214 45.1827 15.0214 45.5499 15.1166C46.3944 15.3451 47.0003 16.0685 47.0186 16.9634C47.037 20.0286 47.037 23.0938 47.0186 26.1399C47.0186 27.2251 46.1557 28.0247 45.0542 28.0628C44.0995 28.0819 43.1632 28.1199 42.2085 28.0628C41.0702 27.9867 40.1339 28.4055 39.2343 29.0719C38.61 29.5288 38.353 30.0048 38.4081 30.7853C38.4815 31.6421 38.4265 32.4988 38.4265 33.3555C38.4265 35.2023 37.4167 36.2494 35.6358 36.2494C28.5491 36.2494 21.4624 36.2494 14.394 36.2494C14.0268 36.2494 13.8065 36.3636 13.5862 36.6873C11.6768 39.524 8.15185 40.7044 5.04911 39.5621C1.83622 38.3817 -0.220029 35.1832 0.0370027 31.6992C0.220596 29.3003 1.28544 27.3774 3.1581 25.9686C3.39677 25.7782 3.48856 25.6069 3.48856 25.3022C3.47021 22.9224 3.48856 20.5426 3.48856 18.1628C3.48856 17.9724 3.48856 17.782 3.50692 17.5916C3.562 17.1537 3.89247 16.8491 4.31474 16.811C4.75536 16.773 5.14091 17.0395 5.25106 17.4774C5.30614 17.6868 5.30614 17.9153 5.30614 18.1437C5.30614 20.2189 5.3245 22.2941 5.30614 24.3693C5.30614 24.7692 5.39794 24.8263 5.76513 24.7311C11.071 23.4174 15.8995 28.2913 14.7612 33.8505C14.6694 34.2884 14.7612 34.3455 15.1468 34.3455C21.9765 34.3455 28.7878 34.3455 35.6175 34.3455C36.3702 34.3455 36.5722 34.1361 36.5722 33.3555C36.5722 32.575 36.5722 31.7944 36.5722 31.0328C36.5722 30.7663 36.5171 30.6711 36.2417 30.7282C35.9663 30.7853 35.6725 30.7853 35.3788 30.7853C31.6886 30.7853 27.9983 30.7853 24.3265 30.7853C22.7659 30.7853 21.6827 29.8524 21.4624 28.3484C21.4257 28.0628 21.4073 27.7772 21.4808 27.4917C21.5542 27.1871 21.5175 27.0728 21.1686 26.9967C19.6999 26.673 18.7819 25.2642 19.0573 23.722C19.1308 23.3603 19.0022 23.3413 18.7268 23.3222C17.3866 23.227 16.3768 22.218 16.1933 20.8091C16.028 19.5526 16.8358 18.277 18.0475 17.8582C18.378 17.7439 18.8921 17.801 19.0573 17.5916C19.2042 17.3822 18.9839 16.9062 19.0206 16.5445C19.1308 15.1356 20.3057 14.0124 21.7011 13.9933C23.8307 13.9743 25.9604 13.9933 28.0718 13.9933C28.237 13.9933 28.4022 13.9933 28.6225 13.9933ZM28.5124 15.8972C26.346 15.8972 24.1612 15.8972 21.9948 15.8972C21.8479 15.8972 21.6827 15.8972 21.5358 15.9162C21.0952 15.9924 20.8198 16.3922 20.8382 16.8301C20.8565 17.287 21.1686 17.6297 21.6093 17.6868C21.7561 17.7059 21.9214 17.7059 22.0683 17.7059C23.739 17.7059 25.4097 17.7059 27.062 17.7059C27.5026 17.7059 27.8331 17.8772 28.0167 18.3151C28.1636 18.6959 28.0901 19.0386 27.8331 19.3241C27.6128 19.5716 27.3007 19.6097 26.9886 19.6097C24.969 19.6097 22.9495 19.6097 20.93 19.6097C20.2507 19.6097 19.5897 19.5907 18.9104 19.6097C18.4882 19.6287 18.1944 19.8382 18.0659 20.2761C17.9558 20.6568 18.0843 20.9614 18.3597 21.2089C18.58 21.4184 18.8554 21.4184 19.1308 21.4184C21.3522 21.4184 23.5737 21.4184 25.7768 21.4184C26.2542 21.4184 26.7315 21.3993 27.1905 21.4374C27.5944 21.4564 27.8882 21.6849 28.0167 22.0847C28.1452 22.4465 28.0534 22.7701 27.8147 23.0557C27.5944 23.3222 27.2823 23.3413 26.9702 23.3413C25.3179 23.3413 23.6655 23.3413 22.0132 23.3413C21.8112 23.3413 21.6093 23.3222 21.4257 23.3984C21.0218 23.5317 20.7831 23.9124 20.8198 24.3503C20.8749 24.7882 21.1319 25.0738 21.5542 25.1309C21.7194 25.1499 21.8847 25.1499 22.0499 25.1499C23.6839 25.1499 25.3179 25.1499 26.9518 25.1499C27.6311 25.1499 28.035 25.5307 28.0534 26.1019C28.0534 26.673 27.6495 27.0538 26.9702 27.0538C26.1257 27.0538 25.2811 27.0538 24.455 27.0538C23.6472 27.0538 23.2065 27.3774 23.2249 27.9867C23.2433 28.5769 23.6472 28.8815 24.455 28.8815C27.521 28.8815 30.5686 28.9005 33.6347 28.8815C36.4436 28.8624 36.0765 29.1671 38.4632 27.3013C39.4546 26.5207 40.5745 26.1209 41.8413 26.159C42.8143 26.197 43.8057 26.159 44.7788 26.178C45.0358 26.178 45.1643 26.1019 45.1643 25.7972C45.146 22.9795 45.1643 20.1428 45.1643 17.3251C45.1643 17.0395 45.0725 16.9443 44.7972 16.9443C44.2647 16.9443 43.7323 16.9824 43.1999 16.9062C41.9882 16.6968 41.0702 15.9733 40.244 15.1166C39.528 14.3931 38.8487 13.6316 38.1327 12.9272C37.4718 12.2799 36.719 11.7658 35.7827 11.7468C34.0018 11.7087 32.2026 11.7277 30.4218 11.7277C29.9811 11.7277 29.8893 11.8991 29.9811 12.337C30.1831 13.3079 30.9542 13.9743 31.9456 13.9933C33.0288 14.0124 34.112 13.9933 35.1952 13.9933C35.7643 13.9933 36.1499 14.3741 36.1683 14.9072C36.1866 15.4593 35.8011 15.8591 35.2136 15.8782C35.085 15.8782 34.9749 15.8782 34.8464 15.8782C32.735 15.8972 30.6237 15.8972 28.5124 15.8972ZM13.0722 32.2513C13.0722 29.0528 10.5753 26.4445 7.47255 26.4255C4.36982 26.4255 1.83622 29.0338 1.83622 32.2513C1.83622 35.4688 4.38817 38.0961 7.49091 38.0771C10.5753 38.0771 13.0722 35.4498 13.0722 32.2513ZM23.9042 8.58639C23.9042 6.37791 23.9042 4.26464 23.9042 2.17039C23.9042 1.86578 23.7206 1.90386 23.537 1.90386C21.8112 1.90386 20.0854 1.90386 18.3597 1.90386C18.0659 1.90386 17.9558 1.98001 17.9558 2.30366C17.9741 4.28367 17.9558 6.26368 17.9558 8.24369C17.9558 8.33889 17.9374 8.43408 18.0475 8.54831C18.7636 8.09138 19.4979 7.6535 20.1956 7.1585C20.7097 6.79676 21.1686 6.8158 21.6643 7.1585C22.3804 7.63446 23.0964 8.07235 23.9042 8.58639Z" fill="#5FD3D1"/>
<path d="M4.35115 12.5464C4.86521 12.5274 5.28748 12.9653 5.28748 13.4793C5.28748 13.9933 4.88357 14.4122 4.38787 14.4312C3.8738 14.4503 3.45154 14.0124 3.45154 13.4793C3.4699 12.9653 3.85544 12.5464 4.35115 12.5464Z" fill="#5FD3D1"/>
<path d="M10.5749 30.4807C10.5749 30.7473 10.4648 30.9757 10.2995 31.1661C9.38156 32.2894 8.48195 33.4317 7.56398 34.555C7.12336 35.088 6.64601 35.1261 6.13195 34.7073C5.65461 34.3075 5.19562 33.9077 4.73664 33.4888C4.27765 33.07 4.22258 32.5369 4.5714 32.099C4.90187 31.6801 5.45265 31.6611 5.93 32.0228C6.18703 32.2323 6.4257 32.6701 6.70109 32.594C6.95812 32.5369 7.16008 32.118 7.38039 31.8515C7.93117 31.1851 8.46359 30.5188 9.01437 29.8524C9.28976 29.5288 9.63859 29.4146 10.0425 29.5859C10.3913 29.7573 10.5749 30.0619 10.5749 30.4807Z" fill="#5FD3D1"/>
</svg>
