<svg width="40" height="39" viewBox="0 0 40 39" fill="none" xmlns="http://www.w3.org/2000/svg">
<path d="M15.1816 38.9991C11.8547 38.9991 8.5123 39.0151 5.18547 38.9991C3.20187 38.9831 1.6556 38.0873 0.640375 36.3117C0.218665 35.5598 0 34.744 0 33.8642C0 32.9044 0 31.9446 0 30.9848C0 30.4409 0.218665 30.2009 0.749707 30.2009C2.10855 30.2009 3.45178 30.1849 4.81062 30.2009C5.15424 30.2009 5.24795 30.121 5.24795 29.753C5.29481 22.2506 5.34166 14.7481 5.38852 7.24564C5.38852 6.39782 5.57595 6.22185 6.40375 6.22185C11.5111 6.22185 16.6029 6.22185 21.7103 6.22185C22.007 6.22185 22.1476 6.14187 22.2726 5.83793C23.7563 2.23867 27.255 -0.0968529 31.0504 -0.000872579C35.7673 0.127101 39.6251 3.93432 39.9688 8.79732C40.3124 13.5324 36.9699 17.8995 32.3936 18.7153C31.8157 18.8113 31.2378 18.8913 30.6443 18.8593C30.3788 18.8433 30.285 18.9073 30.285 19.2112C30.3007 19.8831 30.285 20.5709 30.285 21.2428C30.285 25.4019 30.285 29.5611 30.285 33.7202C30.285 36.2957 28.5982 38.3913 26.146 38.9032C25.5994 39.0151 25.0371 38.9991 24.4748 38.9991C21.3823 38.9991 18.2897 38.9991 15.1816 38.9991ZM6.70051 18.8593C6.65365 18.8593 6.60679 18.8593 6.55994 18.8593C6.55994 22.4585 6.55994 26.0578 6.55994 29.657C6.55994 30.2809 6.48184 30.2009 7.1066 30.2009C11.433 30.2009 15.7751 30.2009 20.1015 30.2009C21.3667 30.2009 21.3823 30.2169 21.3823 31.5127C21.3823 32.4565 21.2886 33.4163 21.4291 34.3441C21.7415 36.4077 23.5221 37.8154 25.5213 37.6394C27.4736 37.4794 28.9574 35.7998 28.9731 33.7362C28.9887 28.8252 28.9731 23.9302 28.9887 19.0192C28.9887 18.7633 28.9106 18.6673 28.6607 18.6033C26.3959 18.0274 24.5841 16.7637 23.2565 14.7961C23.116 14.5881 22.9754 14.5242 22.7411 14.5242C20.6794 14.5401 18.6021 14.5242 16.5404 14.5242C16.3998 14.5242 16.2437 14.5401 16.1187 14.4922C15.7907 14.3962 15.6033 14.1722 15.6189 13.8203C15.6345 13.4844 15.8219 13.2764 16.1343 13.1964C16.2749 13.1644 16.4155 13.1804 16.556 13.1804C18.3834 13.1804 20.1952 13.1804 22.0226 13.1804C22.2101 13.1804 22.3819 13.2124 22.2569 12.8925C21.6166 11.2928 21.4447 9.62915 21.7103 7.9175C21.7571 7.59757 21.6634 7.54958 21.3823 7.54958C16.6185 7.56558 11.8547 7.56558 7.09098 7.54958C6.76298 7.54958 6.68489 7.66156 6.68489 7.98149C6.70051 11.6127 6.70051 15.244 6.70051 18.8593ZM38.688 9.43719C38.688 4.97411 35.1581 1.35885 30.8005 1.35885C26.4428 1.35885 22.8973 4.97411 22.8973 9.43719C22.8973 13.9163 26.4428 17.5475 30.8161 17.5315C35.1738 17.5155 38.688 13.9163 38.688 9.43719ZM21.7727 37.6394C20.8825 36.7756 20.3514 35.7998 20.164 34.648C20.0078 33.7682 20.0859 32.8884 20.1015 32.0086C20.1015 31.6087 20.0234 31.4967 19.6173 31.4967C13.6822 31.5127 7.76259 31.5127 1.82741 31.5127C1.71808 31.5127 1.62437 31.5127 1.51503 31.5127C1.39008 31.5127 1.32761 31.5767 1.32761 31.7046C1.34323 32.6324 1.23389 33.5762 1.4057 34.4881C1.74932 36.3597 3.27997 37.6394 5.15424 37.6394C10.5896 37.6554 16.025 37.6394 21.4604 37.6394C21.5228 37.6554 21.6009 37.6554 21.7727 37.6394Z" fill="#5FD3D1"/>
<path d="M20.5701 26.1386C19.1644 26.1386 17.7587 26.1386 16.353 26.1386C15.8063 26.1386 15.4783 25.7227 15.6345 25.2588C15.7438 24.9549 15.9937 24.8109 16.3061 24.8109C19.1488 24.8109 21.9758 24.8109 24.8184 24.8109C25.2557 24.8109 25.5369 25.0989 25.5213 25.4988C25.5056 25.8827 25.2245 26.1386 24.7716 26.1386C23.3815 26.1386 21.9758 26.1386 20.5701 26.1386Z" fill="#5FD3D1"/>
<path d="M20.6169 19.0201C22.0226 19.0201 23.4283 19.0201 24.834 19.0201C25.2557 19.0201 25.5213 19.276 25.5369 19.6599C25.5369 20.0439 25.287 20.2998 24.8653 20.3318C24.7559 20.3318 24.631 20.3318 24.5217 20.3318C22.7255 20.3318 20.9293 20.3318 19.1331 20.3318C18.3053 20.3318 17.4619 20.3318 16.6341 20.3318C16.5248 20.3318 16.4311 20.3318 16.3217 20.3318C15.8688 20.2998 15.6033 20.0439 15.6189 19.644C15.6345 19.26 15.9 19.0201 16.3217 19.0201C17.7587 19.0041 19.18 19.0201 20.6169 19.0201Z" fill="#5FD3D1"/>
<path d="M14.1664 13.9011C14.1664 15.0369 13.2448 15.9487 12.1047 15.9647C10.9801 15.9647 10.0273 15.0369 10.0273 13.9171C10.0117 12.7814 10.9801 11.8376 12.1203 11.8376C13.2448 11.8536 14.1664 12.7814 14.1664 13.9011ZM12.87 13.9171C12.8856 13.5172 12.5264 13.1813 12.1047 13.1813C11.683 13.1813 11.3237 13.4852 11.3237 13.8851C11.3237 14.2851 11.6517 14.621 12.089 14.621C12.5108 14.637 12.87 14.317 12.87 13.9171Z" fill="#5FD3D1"/>
<path d="M14.1664 19.6599C14.1664 20.7957 13.2605 21.7235 12.1203 21.7235C10.9801 21.7395 10.0117 20.7797 10.0273 19.6599C10.0273 18.5402 10.9801 17.6124 12.1047 17.6124C13.2292 17.6124 14.1664 18.5242 14.1664 19.6599ZM12.089 20.3958C12.5264 20.3958 12.87 20.0759 12.87 19.6759C12.87 19.292 12.5108 18.9561 12.089 18.9561C11.6673 18.9561 11.3237 19.276 11.3081 19.6759C11.3237 20.0759 11.6673 20.3958 12.089 20.3958Z" fill="#5FD3D1"/>
<path d="M14.1663 25.4668C14.1507 26.6025 13.2136 27.4984 12.0734 27.4984C10.9489 27.4824 10.0117 26.5546 10.0117 25.4348C10.0117 24.299 10.9801 23.3712 12.1359 23.3872C13.2917 23.4192 14.182 24.331 14.1663 25.4668ZM12.1203 26.1546C12.5576 26.1546 12.8856 25.8187 12.8856 25.4188C12.87 25.0349 12.5107 24.6989 12.089 24.7149C11.6673 24.7309 11.3237 25.0669 11.3393 25.4668C11.3393 25.8507 11.6829 26.1706 12.1203 26.1546Z" fill="#5FD3D1"/>
<path d="M28.0203 11.8695C28.0047 11.2457 28.2077 10.9577 28.5982 10.9257C29.0043 10.8937 29.2386 11.1337 29.3011 11.6456C29.426 12.7174 30.3788 13.3252 31.3003 12.9413C31.9094 12.6854 32.253 12.0455 32.1749 11.3576C32.0968 10.7338 31.597 10.2059 30.9723 10.1259C30.3788 10.0619 29.7852 9.99793 29.2698 9.646C28.3483 8.99014 27.9266 8.09432 28.0515 6.97455C28.1609 5.88677 28.7388 5.11893 29.7228 4.70302C29.9883 4.59104 30.0976 4.46307 30.0508 4.17512C30.0351 4.06315 30.0508 3.96717 30.0508 3.85519C30.082 3.48727 30.3475 3.24731 30.6911 3.24731C31.0191 3.24731 31.3315 3.48727 31.3003 3.83919C31.2378 4.39908 31.5033 4.59104 31.9563 4.799C32.8778 5.21491 33.362 6.03074 33.4713 7.05453C33.5338 7.55043 33.2995 7.90236 32.8934 7.95035C32.5029 7.99834 32.2218 7.7104 32.1593 7.1985C32.0656 6.33468 31.4565 5.7748 30.6443 5.82279C29.8946 5.85478 29.2854 6.51064 29.2854 7.29448C29.2854 8.09432 29.8946 8.73419 30.7224 8.78218C32.1437 8.86216 33.1589 9.72598 33.4088 11.0537C33.6743 12.4294 32.9403 13.7572 31.6439 14.2211C31.3628 14.317 31.269 14.445 31.3003 14.733C31.3159 14.8609 31.3159 15.0049 31.2847 15.1329C31.2222 15.4848 31.0191 15.6768 30.6755 15.6768C30.3319 15.6928 30.0039 15.4528 30.0508 15.1169C30.1445 14.461 29.7852 14.2371 29.3011 13.9651C28.4889 13.4852 28.0828 12.7014 28.0203 11.8695Z" fill="#5FD3D1"/>
</svg>
