<svg width="38" height="42" viewBox="0 0 38 42" fill="none" xmlns="http://www.w3.org/2000/svg">
<path d="M0 20.9918C0 15.4159 0 9.83991 0 4.26396C0 2.54198 0.744167 1.22999 2.24833 0.426396C2.85 0.0983991 3.515 0 4.19583 0C8.94583 0 13.6958 0 18.4458 0C18.8258 0 19.2058 0 19.5858 0C22.0242 0 23.7342 1.77118 23.75 4.29676C23.75 5.64155 23.7658 6.96993 23.75 8.31472C23.75 8.62632 23.845 8.69192 24.13 8.69192C27.8508 8.67552 31.5717 8.69192 35.2925 8.69192C37.05 8.69192 38 9.67591 38 11.4963C38 15.1043 38 18.7122 38 22.3202C38 24.1078 37.0342 25.1082 35.3083 25.1082C32.4583 25.1082 29.6083 25.1082 26.7583 25.1082C26.505 25.1082 26.315 25.1738 26.1092 25.3214C25.4442 25.8626 24.7633 26.3873 24.0825 26.8957C23.845 27.0761 23.75 27.2565 23.75 27.5681C23.7658 30.9629 23.7658 34.3413 23.75 37.736C23.75 39.4744 23.0058 40.77 21.5017 41.5736C20.9 41.9016 20.235 42 19.5542 42C14.44 42 9.31 42 4.19583 42C3.9425 42 3.68917 42 3.45167 41.9672C1.39333 41.6064 0 39.9336 0 37.7688C0 32.1765 0 26.5841 0 20.9918ZM22.1667 28.3717C21.5333 28.8637 20.9633 29.2901 20.4092 29.7329C20.1242 29.9625 19.8233 30.0937 19.4592 29.9133C19.095 29.7165 19 29.3885 19 28.9949C19.0158 27.8141 19 26.6497 19.0158 25.469C19.0158 25.1738 18.9683 25.059 18.6517 25.0754C18.0658 25.1082 17.4958 25.0918 16.91 25.0754C15.2317 25.0754 14.2658 24.075 14.25 22.3366C14.25 18.6958 14.25 15.0715 14.25 11.4307C14.25 9.70871 15.2158 8.69192 16.8942 8.69192C18.5408 8.69192 20.1875 8.69192 21.8342 8.69192C22.0875 8.69192 22.1667 8.62632 22.1667 8.34752C22.1508 7.33073 22.1508 6.29754 22.1667 5.28075C22.1667 5.00195 22.1033 4.91995 21.8183 4.91995C15.2 4.91995 8.56583 4.91995 1.93167 4.91995C1.64667 4.91995 1.58333 5.00195 1.58333 5.28075C1.58333 14.6615 1.58333 24.0586 1.58333 33.4393C1.58333 33.7017 1.63083 33.7837 1.9 33.7837C8.55 33.7837 15.2 33.7837 21.85 33.7837C22.1192 33.7837 22.1825 33.7017 22.1825 33.4393C22.1667 32.2585 22.1825 31.0613 22.1825 29.8805C22.1667 29.4049 22.1667 28.9293 22.1667 28.3717ZM20.5833 27.5517C20.7892 27.3877 20.9317 27.2893 21.0583 27.1909C22.515 26.0594 23.9717 24.9278 25.4283 23.7962C25.7292 23.5666 26.03 23.4518 26.41 23.4518C29.4025 23.4682 32.395 23.4518 35.3875 23.4518C36.1158 23.4518 36.4167 23.1566 36.4167 22.4186C36.4167 18.7286 36.4167 15.0387 36.4167 11.3487C36.4167 10.6271 36.1317 10.3319 35.4192 10.3319C29.2283 10.3319 23.0217 10.3319 16.8308 10.3319C16.1342 10.3319 15.8333 10.6271 15.8333 11.3487C15.8333 15.0387 15.8333 18.7286 15.8333 22.4186C15.8333 23.1566 16.1183 23.4518 16.8467 23.4518C17.7333 23.4518 18.62 23.4518 19.4908 23.4518C20.2983 23.4518 20.5675 23.7306 20.5675 24.5506C20.5833 25.5182 20.5833 26.4857 20.5833 27.5517ZM11.875 35.4237C8.58167 35.4237 5.28833 35.4237 1.97917 35.4073C1.64667 35.4073 1.55167 35.4893 1.5675 35.8337C1.59917 36.4733 1.5675 37.1128 1.58333 37.7524C1.59917 39.2612 2.58083 40.3108 4.0375 40.3272C9.2625 40.3436 14.4875 40.3436 19.6967 40.3272C21.1375 40.3272 22.135 39.2776 22.1508 37.8016C22.1667 37.1456 22.135 36.4897 22.1667 35.8337C22.1825 35.4893 22.0875 35.4073 21.755 35.4073C18.4617 35.4401 15.1683 35.4237 11.875 35.4237ZM22.0083 3.27997C21.9608 3.14877 21.945 3.08317 21.8975 3.00117C21.4067 2.04998 20.615 1.63998 19.6017 1.63998C14.44 1.63998 9.29417 1.63998 4.1325 1.63998C4.00583 1.63998 3.86333 1.63998 3.73667 1.65638C2.78667 1.73838 1.91583 2.47638 1.78917 3.27997C8.51833 3.27997 15.2475 3.27997 22.0083 3.27997Z" fill="#5FD3D1"/>
<path d="M27.7084 15.2519C26.22 15.2519 24.7317 15.2519 23.2434 15.2519C23.0692 15.2519 22.895 15.2519 22.7367 15.2027C22.3725 15.1043 22.1984 14.8255 22.1667 14.4483C22.1509 14.0875 22.3884 13.7595 22.7367 13.6611C22.8792 13.6283 23.0534 13.6119 23.2117 13.6119C26.2042 13.6119 29.1967 13.6119 32.1892 13.6119C32.3475 13.6119 32.5059 13.6119 32.6642 13.6611C33.0125 13.7595 33.25 14.0875 33.25 14.4483C33.25 14.8091 33.0125 15.1371 32.6484 15.2191C32.49 15.2519 32.3317 15.2683 32.1734 15.2683C30.685 15.2519 29.1967 15.2519 27.7084 15.2519Z" fill="#5FD3D1"/>
<path d="M27.7084 20.1718C26.2042 20.1718 24.7 20.1718 23.1959 20.1718C22.99 20.1718 22.7684 20.1718 22.5784 20.057C22.2934 19.8766 22.135 19.6142 22.1825 19.2698C22.2142 18.9254 22.4042 18.6794 22.7209 18.581C22.8792 18.5318 23.0534 18.5318 23.2275 18.5318C26.22 18.5318 29.2125 18.5318 32.205 18.5318C32.2367 18.5318 32.2842 18.5318 32.3159 18.5318C32.8859 18.5482 33.25 18.8762 33.2342 19.3682C33.2184 19.8438 32.87 20.1718 32.3159 20.1718C31.1284 20.1718 29.9409 20.1718 28.7534 20.1718C28.4209 20.1718 28.0567 20.1718 27.7084 20.1718Z" fill="#5FD3D1"/>
<path d="M19.7917 15.2519C19.38 15.2519 19 14.8747 19 14.4483C19 14.0219 19.3642 13.6283 19.7758 13.6283C20.1875 13.6283 20.5675 14.0055 20.5675 14.4319C20.5833 14.8583 20.2192 15.2519 19.7917 15.2519Z" fill="#5FD3D1"/>
<path d="M20.5834 19.3682C20.5834 19.7946 20.2034 20.1718 19.7917 20.1718C19.38 20.1718 19.0159 19.7782 19.0159 19.3518C19.0159 18.9254 19.3959 18.5482 19.8075 18.5482C20.2192 18.5482 20.5834 18.9254 20.5834 19.3682Z" fill="#5FD3D1"/>
<path d="M13.49 37.0636C13.9808 37.0636 14.4558 37.0472 14.9467 37.0636C15.485 37.08 15.8492 37.4244 15.8333 37.9C15.8175 38.3592 15.4692 38.7036 14.9625 38.7036C13.965 38.72 12.9675 38.72 11.97 38.7036C11.4633 38.7036 11.115 38.3592 11.0992 37.9C11.0992 37.4408 11.4475 37.0964 11.9542 37.08C12.4608 37.0636 12.9675 37.0636 13.49 37.0636Z" fill="#5FD3D1"/>
<path d="M8.72416 38.7036C8.3125 38.7036 7.9325 38.3264 7.9325 37.9C7.9325 37.4736 8.29666 37.08 8.70833 37.08C9.12 37.08 9.5 37.4572 9.5 37.8836C9.5 38.31 9.13583 38.7036 8.72416 38.7036Z" fill="#5FD3D1"/>
</svg>
