<svg width="30" height="30" viewBox="0 0 30 30" fill="none" xmlns="http://www.w3.org/2000/svg">
<circle cx="15" cy="15" r="15" fill="#130B44"/>
<path d="M15.0021 8C16.7345 8 18.1384 9.4043 18.1384 11.1359C18.1384 12.868 16.7345 14.2719 15.0021 14.2719C13.2704 14.2719 11.8666 12.868 11.8666 11.1359C11.8666 9.4043 13.2704 8 15.0021 8ZM15 21.6478C13.2721 21.6478 11.6896 21.0185 10.4689 19.9769C10.1716 19.7233 10 19.3514 10 18.9612C10 17.205 11.4214 15.7994 13.178 15.7994H16.827C18.584 15.7994 20 17.205 20 18.9612C20 19.3518 19.8293 19.7229 19.5315 19.9765C18.3113 21.0185 16.7283 21.6478 15 21.6478Z" fill="white"/>
</svg>
