<svg width="96" height="36" viewBox="0 0 96 36" fill="none" xmlns="http://www.w3.org/2000/svg">
<g clip-path="url(#clip0_0:919)">
<path fill-rule="evenodd" clip-rule="evenodd" d="M35.4957 24.9277C35.6935 24.9964 35.8681 25.1204 35.9992 25.2853L38.9957 29.0686C39.2138 29.3515 39.4608 29.6104 39.7325 29.8409C39.9994 30.082 40.3447 30.215 40.7025 30.2146C40.86 30.2127 41.0166 30.191 41.1689 30.1502C41.3182 30.1147 41.4633 30.0631 41.6018 29.9964V28.4321C41.3689 28.4441 41.136 28.4069 40.9181 28.323C40.7133 28.2068 40.5365 28.0462 40.4003 27.8528L38.0276 24.8133C39.0358 24.7406 39.812 24.3556 40.3562 23.6583C40.9004 22.961 41.1724 22.067 41.1724 20.9765C41.1804 20.4693 41.089 19.9656 40.9039 19.4943C40.7333 19.0658 40.4798 18.6761 40.1583 18.3482C39.8345 18.0226 39.4453 17.7714 39.017 17.6116C38.5509 17.4381 38.0576 17.352 37.5611 17.3577H31.6671V30.0036H33.6989V24.8187H34.8843C35.0928 24.8192 35.2996 24.8561 35.4957 24.9277ZM37.0593 22.9217H33.7024L33.6989 19.2475H37.2749C37.9586 19.2475 38.441 19.3888 38.7219 19.6748C39.0028 19.9609 39.1442 20.3936 39.1442 20.9765C39.1442 21.7023 38.9887 22.2101 38.676 22.4943C38.365 22.7793 37.8261 22.9217 37.0593 22.9217Z" fill="black"/>
<path d="M54.5838 30.2141H45.3273V17.3569H54.6411L54.0411 19.2994H47.3621V22.4241H53.4286V24.383H47.3621V28.2679H54.5767L54.5838 30.2141Z" fill="black"/>
<path d="M58.3667 30.2141V17.3569H67.0596L66.4653 19.2994H60.4104V22.4241H66.1495V24.383H60.4104V30.2031L58.3667 30.2141Z" fill="black"/>
<path d="M78.5635 19.7945C78.2165 19.3906 77.7691 19.0918 77.2679 18.9306C76.7826 18.7796 76.2784 18.7037 75.7719 18.7054C75.1083 18.6883 74.447 18.7895 73.8175 19.0044C73.3198 19.1813 72.8765 19.4895 72.5327 19.8978C72.1943 20.3179 71.9559 20.8126 71.8361 21.343C71.6854 21.9792 71.6121 22.632 71.6178 23.2865V23.7553C71.6178 25.1692 71.9726 26.2705 72.6824 27.0592C73.3922 27.848 74.5236 28.2423 76.0766 28.2423C76.4266 28.2426 76.775 28.1987 77.1144 28.1112C77.4493 28.0243 77.7774 27.9114 78.0956 27.7735V25.2006H75.7682V23.2108H80.0987V29.0673C79.4661 29.4086 78.8016 29.6826 78.1137 29.885C77.4198 30.0983 76.7002 30.2089 75.9753 30.2136C75.0649 30.2267 74.1586 30.0807 73.296 29.7816C72.5389 29.5181 71.849 29.0849 71.2767 28.5136C70.7093 27.9358 70.2715 27.2385 69.9937 26.4704C69.681 25.583 69.5288 24.6449 69.5444 23.7018V23.2699C69.5332 22.3563 69.6667 21.4469 69.9395 20.577C70.182 19.8057 70.586 19.0977 71.1234 18.5024C71.6649 17.9157 72.3302 17.4631 73.0686 17.179C73.9326 16.8548 74.848 16.6977 75.7682 16.7157C76.5672 16.7144 77.3609 16.8536 78.1137 17.1273C78.8734 17.4027 79.5462 17.8829 80.061 18.5172L78.5635 19.7945Z" fill="#28C6C6"/>
<path fill-rule="evenodd" clip-rule="evenodd" d="M87.1544 29.7163C87.9745 30.0628 88.8506 30.2315 89.732 30.2128C90.6104 30.2325 91.4835 30.0637 92.3006 29.7163C93.0066 29.4061 93.6378 28.927 94.1458 28.3153C94.6515 27.6937 95.0294 26.9648 95.2554 26.176C95.5071 25.2941 95.6311 24.3757 95.6213 23.4534V22.9476C95.6304 22.0835 95.4822 21.2257 95.1851 20.4226C94.9122 19.6811 94.4988 19.009 93.9704 18.4494C93.436 17.8945 92.8033 17.4608 92.1101 17.1739C90.5764 16.5612 88.8892 16.5612 87.3555 17.1739C86.66 17.4616 86.0243 17.8951 85.4861 18.4494C84.9532 19.0064 84.5359 19.6791 84.263 20.4226C83.9652 21.2254 83.8163 22.0833 83.8246 22.9476V23.4534C83.8155 24.3766 83.9425 25.2955 84.2011 26.176C84.4316 26.9629 84.8096 27.691 85.3115 28.3153C85.8164 28.9294 86.4476 29.409 87.1544 29.7163ZM86.8399 19.8485C87.4862 19.0733 88.45 18.6856 89.732 18.6856C91.0012 18.6856 91.9589 19.0745 92.606 19.8522C93.2538 20.6299 93.5773 21.6759 93.5773 22.9901V23.4221C93.5826 24.0818 93.5184 24.7401 93.3846 25.3841C93.275 25.9367 93.0572 26.4581 92.7473 26.9143C92.4382 27.3492 92.0285 27.6892 91.5583 27.9C90.9664 28.1501 90.333 28.2681 89.6972 28.247C89.0767 28.2673 88.4591 28.1413 87.8884 27.8778C87.4235 27.6486 87.0191 27.3 86.7099 26.8626C86.3954 26.4074 86.1747 25.8859 86.0621 25.3325C85.9291 24.7045 85.8648 24.0622 85.8693 23.4183V22.9864C85.8709 21.6697 86.1944 20.6238 86.8399 19.8485Z" fill="#28C6C6"/>
<path d="M23.1764 15.6069L18.9402 9.40265L12.3987 19.3118C10.6526 19.4537 9.20988 20.7576 8.86208 22.5081C8.51422 24.2587 9.34549 26.0324 10.8997 26.8561C12.4539 27.6797 14.3552 27.3541 15.5603 26.0579C16.7654 24.7617 16.9828 22.8084 16.0932 21.2698L18.996 16.8658L19.7806 18.0145C22.2669 21.6575 21.6885 26.621 18.4342 29.5684C15.1799 32.5158 10.278 32.5158 7.02364 29.5684C3.76929 26.621 3.19088 21.6575 5.6772 18.0145L12.5427 7.9585C12.6056 7.9585 12.665 7.9787 12.7226 7.9787C14.4514 7.98355 15.9783 6.8308 16.4784 5.14334C16.9785 3.45587 16.3331 1.63378 14.891 0.66157C13.4489 -0.310641 11.552 -0.202459 10.2252 0.927665C8.89844 2.05778 8.45632 3.94189 9.13784 5.56197L2.28137 15.6069C-1.40232 21.0043 -0.545379 28.358 4.27615 32.7249C9.0977 37.0917 16.3601 37.0917 21.1817 32.7249C26.0032 28.358 26.8601 21.0043 23.1764 15.6069Z" fill="#28C6C6"/>
</g>
<defs>
<clipPath id="clip0_0:919">
<rect width="96" height="36" fill="white"/>
</clipPath>
</defs>
</svg>
