<svg width="19" height="25" viewBox="0 0 19 25" fill="none" xmlns="http://www.w3.org/2000/svg">
<path d="M0 9.89408C0 4.93702 3.31362 0.945998 7.82866 0.145842C13.0413 -0.77141 17.9633 2.70244 18.8547 7.962C19.3004 10.5771 18.7481 13.0069 17.1979 15.1439C14.8338 18.3933 12.4115 21.6037 10.0184 24.8336C9.94085 24.9409 9.86333 24.9604 9.73738 24.98C9.26262 25.0483 8.98164 24.8629 8.69097 24.4628C6.44314 21.3988 4.16624 18.3543 1.90872 15.3C0.649159 13.6119 0.0290668 11.6993 0 9.89408ZM6.34625 9.55256C6.34625 11.2895 7.75115 12.7239 9.46609 12.7337C11.2101 12.7434 12.6344 11.3188 12.6344 9.57207C12.6344 7.82539 11.2295 6.40072 9.51453 6.39096C7.78021 6.3812 6.35594 7.80587 6.34625 9.55256Z" fill="#5FD3D1"/>
</svg>
