<svg width="42" height="79" viewBox="0 0 42 79" fill="none" xmlns="http://www.w3.org/2000/svg">
<path d="M1.32529 0.0512433C0.801301 -0.123283 0.235047 0.160009 0.0605207 0.683992C-0.114006 1.20798 0.169286 1.77423 0.69327 1.94876L1.32529 0.0512433ZM30.8525 77.9662C31.0724 78.4728 31.6613 78.7053 32.168 78.4854L40.4241 74.9026C40.9307 74.6827 41.1632 74.0938 40.9433 73.5871C40.7235 73.0805 40.1345 72.848 39.6279 73.0679L32.2891 76.2526L29.1044 68.9139C28.8845 68.4073 28.2956 68.1748 27.7889 68.3946C27.2823 68.6145 27.0498 69.2034 27.2697 69.7101L30.8525 77.9662ZM0.69327 1.94876C9.50506 4.88375 21.6084 12.1774 29.2179 24.4697C36.7941 36.7081 39.9903 54.0192 30.8397 77.2009L32.7 77.9353C42.0596 54.2242 38.8586 36.2434 30.9184 23.417C23.0116 10.6444 10.4796 3.10032 1.32529 0.0512433L0.69327 1.94876Z" fill="#5FD3D1"/>
</svg>
