<svg width="42" height="79" viewBox="0 0 42 79" fill="none" xmlns="http://www.w3.org/2000/svg">
<path d="M1.32541 0.0512433C0.801423 -0.123283 0.235169 0.160009 0.0606427 0.683992C-0.113883 1.20798 0.169408 1.77423 0.693392 1.94876L1.32541 0.0512433ZM30.8526 77.9662C31.0725 78.4728 31.6615 78.7053 32.1681 78.4854L40.4242 74.9026C40.9308 74.6827 41.1633 74.0938 40.9434 73.5871C40.7236 73.0805 40.1346 72.848 39.628 73.0679L32.2892 76.2526L29.1045 68.9139C28.8846 68.4073 28.2957 68.1748 27.789 68.3946C27.2824 68.6145 27.0499 69.2034 27.2698 69.7101L30.8526 77.9662ZM0.693392 1.94876C9.50518 4.88375 21.6085 12.1774 29.218 24.4697C36.7942 36.7081 39.9904 54.0192 30.8398 77.2009L32.7001 77.9353C42.0597 54.2242 38.8587 36.2434 30.9186 23.417C23.0117 10.6444 10.4797 3.10032 1.32541 0.0512433L0.693392 1.94876Z" fill="#5FD3D1"/>
</svg>
