<svg width="83" height="39" viewBox="0 0 83 39" fill="none" xmlns="http://www.w3.org/2000/svg">
<path d="M0.509734 7.4972C0.0283773 7.76797 -0.142339 8.37768 0.128427 8.85904C0.399194 9.3404 1.00891 9.51111 1.49027 9.24035L0.509734 7.4972ZM78.0528 37.9878C78.5757 38.1654 79.1436 37.8855 79.3212 37.3625L82.2159 28.8407C82.3935 28.3178 82.1136 27.7498 81.5906 27.5722C81.0677 27.3946 80.4998 27.6745 80.3221 28.1975L77.7491 35.7724L70.1742 33.1994C69.6513 33.0218 69.0833 33.3017 68.9057 33.8247C68.7281 34.3476 69.008 34.9155 69.5309 35.0931L78.0528 37.9878ZM1.49027 9.24035C9.58519 4.68689 23.1199 0.624734 37.3366 3.24958C51.491 5.86293 66.4589 15.1287 77.4774 37.483L79.2713 36.5988C68.0012 13.734 52.5342 4.02174 37.6997 1.28282C22.9275 -1.44459 8.91932 2.76674 0.509734 7.4972L1.49027 9.24035Z" fill="#5FD3D1"/>
</svg>
