<svg width="55" height="43" viewBox="0 0 55 43" fill="none" xmlns="http://www.w3.org/2000/svg">
<path d="M19.9935 43H0V28.7845C0 23.0323 0.49806 18.506 1.49418 15.2056C2.53773 11.858 4.4351 8.86403 7.18629 6.22368C9.93747 3.58333 13.4476 1.50877 17.7167 0L21.63 8.20395C17.6455 9.52412 14.7758 11.3629 13.0207 13.7204C11.3131 16.0779 10.4118 19.2133 10.3169 23.1266H19.9935V43ZM53.3635 43H33.37V28.7845C33.37 22.9852 33.868 18.4353 34.8642 15.1349C35.9077 11.8344 37.8051 8.86403 40.5563 6.22368C43.3549 3.58333 46.865 1.50877 51.0867 0L55 8.20395C51.0155 9.52412 48.1458 11.3629 46.3907 13.7204C44.6831 16.0779 43.7818 19.2133 43.6869 23.1266H53.3635V43Z" fill="#5FD3D1"/>
</svg>
