<svg width="32" height="83" viewBox="0 0 32 83" fill="none" xmlns="http://www.w3.org/2000/svg">
<path d="M1.79029 0.229465C1.29934 -0.0234911 0.696289 0.169441 0.443332 0.66039C0.190376 1.15134 0.383308 1.75439 0.874257 2.00735L1.79029 0.229465ZM18.9965 81.7558C19.1359 82.2902 19.6822 82.6104 20.2166 82.471L28.9251 80.1991C29.4595 80.0597 29.7797 79.5134 29.6403 78.979C29.5009 78.4446 28.9546 78.1244 28.4202 78.2638L20.6793 80.2833L18.6599 72.5424C18.5205 72.008 17.9742 71.6878 17.4398 71.8272C16.9054 71.9666 16.5852 72.5129 16.7246 73.0473L18.9965 81.7558ZM0.874257 2.00735C9.13051 6.26129 19.9696 15.3279 25.6003 28.6433C31.2062 41.9003 31.7049 59.497 19.1014 80.9976L20.8268 82.0091C33.7181 60.0175 33.3176 41.7584 27.4423 27.8643C21.5917 14.0286 10.3675 4.64877 1.79029 0.229465L0.874257 2.00735Z" fill="#5FD3D1"/>
</svg>
