<svg width="14" height="14" viewBox="0 0 14 14" fill="none" xmlns="http://www.w3.org/2000/svg">
<path d="M0.247282 6.71535L3.47317 7.91936L4.72178 11.9349C4.80167 12.1921 5.11616 12.2871 5.3249 12.1165L7.12306 10.6506C7.31155 10.497 7.58002 10.4893 7.777 10.6323L11.0202 12.987C11.2435 13.1493 11.5599 13.0269 11.6159 12.7571L13.9918 1.32885C14.0529 1.0341 13.7633 0.788214 13.4826 0.89676L0.243502 6.00401C-0.0832121 6.13001 -0.0803655 6.59257 0.247282 6.71535ZM4.52055 7.27843L10.8251 3.39544C10.9384 3.32586 11.055 3.47906 10.9577 3.56932L5.75461 8.40586C5.57172 8.5761 5.45375 8.80392 5.42034 9.05121L5.24309 10.3647C5.21962 10.5401 4.97327 10.5575 4.92487 10.3877L4.24321 7.99258C4.16514 7.71939 4.27891 7.42758 4.52055 7.27843Z" fill="white"/>
</svg>
