<svg width="29" height="61" viewBox="0 0 29 61" fill="none" xmlns="http://www.w3.org/2000/svg">
<g clip-path="url(#clip0_0:902)">
<path d="M18 35.0998V31.9998V17.5998V17.4998V7.0998V6.8998C18 6.5998 17.9 6.2998 17.9 6.0998C17.8 5.5998 17.5 5.0998 17.2 4.5998C16.5 3.7998 15.5 3.2998 14.5 3.2998C13.5 3.2998 12.5 3.7998 11.8 4.5998C11.4 4.9998 11.1 5.4998 11 6.0998C10.9 6.3998 10.9 6.6998 10.9 6.8998V7.0998V17.5998V31.9998V35.0998C6.3 36.5998 3 40.8998 3 45.9998C3 52.2998 8.1 57.3998 14.4 57.3998C20.7 57.3998 25.8 52.2998 25.8 45.9998C25.8 40.8998 22.5 36.5998 18 35.0998ZM14.4 53.6998C10.2 53.6998 6.9 50.2998 6.9 46.1998C6.9 42.3998 9.7 39.1998 13.4 38.6998V8.4998C13.4 7.8998 13.8 7.39981 14.4 7.39981C14.9 7.39981 15.4 7.8998 15.4 8.4998V38.7998C19.1 39.2998 21.9 42.3998 21.9 46.2998C21.9 50.3998 18.6 53.6998 14.4 53.6998Z" fill="#FAFCFC"/>
<path d="M15.4 31.6001H13.4V34.6001H15.4V31.6001Z" fill="url(#paint0_linear_0:902)"/>
<path d="M28.1 41.4001C26.9 37.8001 24.3 34.8001 21 33.1001V28.4001C21.4 28.6001 21.9 28.7001 22.3 28.7001C22.8 28.7001 23.2 28.6001 23.7 28.4001C24.2 28.2001 24.6 27.9001 25.1 27.2001C24.6 26.6001 24.2 26.2001 23.7 26.0001C23.2 25.8001 22.8 25.7001 22.3 25.7001C21.9 25.7001 21.4 25.8001 21 26.0001V22.9001C21.4 23.1001 21.9 23.2001 22.3 23.2001C22.8 23.2001 23.2 23.1001 23.7 22.9001C24.2 22.7001 24.6 22.4001 25.1 21.7001C24.6 21.1001 24.2 20.7001 23.7 20.5001C23.2 20.3001 22.8 20.2001 22.3 20.2001C21.9 20.2001 21.4 20.3001 21 20.5001V17.4001C21.4 17.6001 21.9 17.7001 22.3 17.7001C22.8 17.7001 23.2 17.6001 23.7 17.4001C24.2 17.2001 24.6 16.9001 25.1 16.2001C24.6 15.6001 24.2 15.3001 23.7 15.0001C23.2 14.8001 22.8 14.7001 22.3 14.7001C21.9 14.7001 21.4 14.8001 21 15.0001V11.9001C21.4 12.1001 21.9 12.2001 22.3 12.2001C22.8 12.2001 23.2 12.1001 23.7 11.9001C24.2 11.7001 24.6 11.3001 25.1 10.7001C24.6 10.1001 24.2 9.8001 23.7 9.5001C23.2 9.3001 22.8 9.2001 22.3 9.2001C21.9 9.2001 21.4 9.3001 21 9.5001V7.1001V6.9001V6.8001C21 6.8001 21 6.8001 21 6.7001C21 6.6001 21 6.5001 21 6.4001C21.4 6.6001 21.8 6.6001 22.2 6.6001C22.7 6.6001 23.2 6.5001 23.7 6.3001C24.2 6.1001 24.7 5.8001 25.2 5.1001C24.7 4.5001 24.2 4.2001 23.7 3.9001C23.2 3.7001 22.7 3.6001 22.2 3.6001C21.7 3.6001 21.2 3.7001 20.7 3.9001C20.6 3.9001 20.5 4.0001 20.4 4.0001C20.4 4.0001 20.3 4.0001 20.3 4.1001C20.2 3.9001 20.1 3.7001 20 3.5001C20 3.5001 20 3.4001 19.9 3.4001C19.7 3.1001 19.6 2.8001 19.4 2.6001C18.7 1.7001 17.7 1.0001 16.7 0.500098C16.5 0.400098 16.4 0.400098 16.2 0.300098C15.9 0.200098 15.7 0.200098 15.4 0.100098C15.3 0.100098 15.2 0.100098 15.1 0.100098C14.9 0.100098 14.6 0.100098 14.4 0.100098C14.1 0.100098 13.9 0.100098 13.6 0.100098C12 0.300098 10.5 1.2001 9.4 2.5001C9.2 2.8001 9 3.0001 8.9 3.3001C8.9 3.3001 8.9 3.4001 8.8 3.4001C8.5 4.0001 8.3 4.6001 8.1 5.2001C8 5.7001 7.9 6.1001 7.9 6.6001C7.9 6.6001 7.9 6.6001 7.9 6.7001V6.8001V7.0001V33.0001C3.2 35.5001 0 40.4001 0 46.0001C0 54.0001 6.5 60.4001 14.4 60.4001C22.3 60.4001 28.8 53.9001 28.8 46.0001C28.8 44.4001 28.6 42.9001 28.1 41.4001ZM14.4 57.4001C8.1 57.4001 3 52.3001 3 46.0001C3 41.0001 6.3 36.7001 10.8 35.2001V32.0001V17.6001V7.1001V6.9001C10.8 6.6001 10.8 6.3001 10.9 6.1001C11 5.6001 11.3 5.1001 11.6 4.6001C12.3 3.8001 13.3 3.3001 14.3 3.3001C15.3 3.3001 16.3 3.8001 17 4.6001C17.3 5.0001 17.6 5.5001 17.7 6.1001C17.9 6.3001 18 6.6001 18 6.9001V7.1001V17.5001V17.6001V32.0001V35.1001C22.5 36.6001 25.8 40.9001 25.8 45.9001C25.8 52.3001 20.7 57.4001 14.4 57.4001Z" fill="url(#paint1_linear_0:902)"/>
<path d="M15.4 8.4999V29.9999C15.4 30.5999 14.9 31.0999 14.4 31.0999C13.8 31.0999 13.4 30.5999 13.4 29.9999V8.4999C13.4 7.8999 13.8 7.3999 14.4 7.3999C15 7.3999 15.4 7.8999 15.4 8.4999Z" fill="#2560A0"/>
<path d="M21.9 46.2001C21.9 50.4001 18.5 53.7001 14.4 53.7001C10.2 53.7001 6.90002 50.3001 6.90002 46.2001C6.90002 42.4001 9.70002 39.2001 13.4 38.7001V22.8001C13.4 22.2001 13.8 21.6001 14.4 21.6001C14.9 21.6001 15.4 22.1001 15.4 22.8001V38.7001C19.1 39.2001 21.9 42.4001 21.9 46.2001Z" fill="url(#paint2_linear_0:902)"/>
<path opacity="0.5" d="M11.4 45.2999C12.3389 45.2999 13.1 44.5388 13.1 43.5999C13.1 42.661 12.3389 41.8999 11.4 41.8999C10.4611 41.8999 9.70001 42.661 9.70001 43.5999C9.70001 44.5388 10.4611 45.2999 11.4 45.2999Z" fill="#FDFFFF"/>
</g>
<defs>
<linearGradient id="paint0_linear_0:902" x1="13.42" y1="33.0951" x2="15.42" y2="33.0951" gradientUnits="userSpaceOnUse">
<stop offset="0.0485492" stop-color="#F3F8FF"/>
<stop offset="0.1244" stop-color="#E0ECFE"/>
<stop offset="0.4113" stop-color="#9EC1F8"/>
<stop offset="0.6195" stop-color="#74A6F5"/>
<stop offset="0.7261" stop-color="#649CF4"/>
</linearGradient>
<linearGradient id="paint1_linear_0:902" x1="0" y1="30.1901" x2="28.83" y2="30.1901" gradientUnits="userSpaceOnUse">
<stop offset="0.0485492" stop-color="#D1E4FF"/>
<stop offset="0.1244" stop-color="#E0ECFE"/>
<stop offset="0.4113" stop-color="#9EC1F8"/>
<stop offset="0.6195" stop-color="#74A6F5"/>
<stop offset="0.7261" stop-color="#649CF4"/>
</linearGradient>
<linearGradient id="paint2_linear_0:902" x1="6.89502" y1="37.6951" x2="21.945" y2="37.6951" gradientUnits="userSpaceOnUse">
<stop stop-color="#28C6C6"/>
<stop offset="0.087864" stop-color="#5CD1D1"/>
<stop offset="0.2757" stop-color="#6AE0E0"/>
<stop offset="0.4751" stop-color="#3CBCBC"/>
<stop offset="0.6924" stop-color="#2DB7B7"/>
<stop offset="0.9605" stop-color="#21B6B6"/>
</linearGradient>
<clipPath id="clip0_0:902">
<rect width="28.8" height="60.4" fill="white"/>
</clipPath>
</defs>
</svg>
