<svg width="16" height="16" viewBox="0 0 16 16" fill="none" xmlns="http://www.w3.org/2000/svg">
<g clip-path="url(#clip0_0:929)">
<path d="M15.4367 9.26202C15.914 5.24402 15.2073 2.70735 13.9327 1.56002L13.9333 1.55935C11.876 -0.399984 4.92801 -0.689984 2.46667 1.64735C1.36134 2.79068 0.972007 4.46868 0.92934 6.54602C0.886674 8.62402 0.836007 12.5167 4.46334 13.5727H4.46667L4.46334 15.1854C4.46334 15.1854 4.43867 15.8387 4.85601 15.97C5.33334 16.1247 5.54934 15.8214 7.03401 14.048C9.51667 14.2634 11.4233 13.77 11.64 13.698C12.1413 13.53 14.978 13.1547 15.4367 9.26202ZM7.27867 12.9134C7.27867 12.9134 5.70734 14.8727 5.21867 15.3814C5.05867 15.5467 4.88334 15.5314 4.88601 15.2034C4.88601 14.988 4.89801 12.526 4.89801 12.526C1.82267 11.6447 2.00401 8.33002 2.03734 6.59602C2.07067 4.86135 2.38801 3.44068 3.32401 2.48402C5.48334 0.45935 11.5747 0.912016 13.1267 2.37068C15.024 4.05268 14.3487 8.80468 14.3527 8.96668C13.9627 12.216 11.664 12.422 11.2413 12.5627C11.0607 12.6227 9.38401 13.054 7.27867 12.9134Z" fill="white"/>
<path d="M8.14797 2.86475C7.8913 2.86475 7.8913 3.26475 8.14797 3.26808C10.1393 3.28341 11.7793 4.67141 11.7973 7.21741C11.7973 7.48608 12.1906 7.48275 12.1873 7.21408H12.1866C12.1653 4.47075 10.3746 2.88008 8.14797 2.86475Z" fill="white"/>
<path d="M10.7673 6.79536C10.7613 7.06069 11.154 7.07336 11.1573 6.80469C11.19 5.29202 10.2573 4.04602 8.50467 3.91469C8.248 3.89602 8.22133 4.29936 8.47733 4.31802C9.99734 4.43336 10.798 5.47069 10.7673 6.79536Z" fill="white"/>
<path d="M10.3474 8.51591C10.018 8.32524 9.68268 8.44391 9.54402 8.63124L9.25402 9.00657C9.10669 9.19724 8.83135 9.17191 8.83135 9.17191C6.82202 8.64057 6.28469 6.53791 6.28469 6.53791C6.28469 6.53791 6.26002 6.25324 6.44402 6.10057L6.80669 5.80057C6.98802 5.65657 7.10269 5.30991 6.91802 4.96924C6.42469 4.07791 6.09336 3.77057 5.92469 3.53457C5.74736 3.31257 5.48069 3.26257 5.20336 3.41257H5.19736C4.62069 3.74991 3.98936 4.38124 4.19136 5.03124C4.53603 5.71657 5.16936 7.90124 7.18802 9.55191C8.13669 10.3326 9.63802 11.1326 10.2754 11.3172L10.2814 11.3266C10.9093 11.5359 11.52 10.8799 11.846 10.2859V10.2812C11.9907 9.99391 11.9427 9.72191 11.7313 9.54391C11.3567 9.17857 10.7913 8.77524 10.3474 8.51591Z" fill="white"/>
<path d="M8.77936 5.40278C9.42003 5.44012 9.7307 5.77479 9.76404 6.46212C9.77604 6.73079 10.166 6.71212 10.154 6.44345C10.1114 5.54612 9.64337 5.04612 8.80069 4.99945C8.54403 4.98412 8.52003 5.38745 8.77936 5.40278Z" fill="white"/>
</g>
<defs>
<clipPath id="clip0_0:929">
<rect width="16" height="16" fill="white"/>
</clipPath>
</defs>
</svg>
