<svg width="14" height="14" viewBox="0 0 14 14" fill="none" xmlns="http://www.w3.org/2000/svg">
<path fill-rule="evenodd" clip-rule="evenodd" d="M11.9602 2.03455C10.6442 0.723242 8.8939 0.000769042 7.02928 0C3.18704 0 0.0600162 3.11197 0.0584707 6.93685C0.0579556 8.15955 0.378901 9.3531 0.988936 10.4052L0 14L3.69533 13.0353C4.71355 13.588 5.85986 13.8793 7.02645 13.8797H7.02936C10.8712 13.8797 13.9985 10.7675 14 6.94241C14.0008 5.08867 13.2764 3.34576 11.9602 2.03455ZM7.02928 12.7081H7.02687C5.98728 12.7077 4.96769 12.4296 4.07801 11.9044L3.86654 11.7793L1.67367 12.3519L2.25898 10.2241L2.12117 10.0059C1.54119 9.08787 1.23493 8.02676 1.23544 6.93728C1.23664 3.75814 3.8358 1.17168 7.0316 1.17168C8.57914 1.17219 10.0339 1.77273 11.1277 2.86263C12.2216 3.95254 12.8236 5.40125 12.8231 6.94198C12.8217 10.1214 10.2228 12.7081 7.02928 12.7081ZM10.2073 8.38958C10.0332 8.30276 9.17681 7.88354 9.01711 7.82561C8.85758 7.76776 8.74133 7.73896 8.62533 7.91243C8.50916 8.08589 8.17542 8.47639 8.07377 8.592C7.97211 8.7077 7.87062 8.72223 7.69641 8.63541C7.5222 8.54868 6.96102 8.36556 6.29569 7.77502C5.77795 7.31539 5.42842 6.74775 5.32676 6.57429C5.22527 6.40066 5.3259 6.31589 5.40317 6.22053C5.59172 5.98751 5.78053 5.74321 5.83857 5.6276C5.8967 5.5119 5.86759 5.41064 5.82397 5.32391C5.78053 5.23718 5.4322 4.38397 5.28709 4.03679C5.14559 3.69893 5.00212 3.74456 4.89514 3.73926C4.79365 3.73422 4.67749 3.73319 4.56132 3.73319C4.44523 3.73319 4.25651 3.77651 4.09681 3.95015C3.9372 4.12369 3.48729 4.54299 3.48729 5.3962C3.48729 6.24941 4.11141 7.07366 4.19847 7.18936C4.28553 7.30505 5.4267 9.05591 7.17387 9.80666C7.58943 9.98542 7.91381 10.092 8.16684 10.1719C8.58412 10.3038 8.96371 10.2852 9.26387 10.2406C9.59856 10.1908 10.2943 9.82119 10.4396 9.41633C10.5847 9.01139 10.5847 8.66438 10.541 8.592C10.4976 8.51971 10.3814 8.47639 10.2073 8.38958Z" fill="white"/>
</svg>
