<?xml version="1.0" standalone="no"?>
<!DOCTYPE svg PUBLIC "-//W3C//DTD SVG 20010904//EN"
 "http://www.w3.org/TR/2001/REC-SVG-20010904/DTD/svg10.dtd">
<svg version="1.0" xmlns="http://www.w3.org/2000/svg"
 width="864.000000pt" height="864.000000pt" viewBox="0 0 864.000000 864.000000"
 preserveAspectRatio="xMidYMid meet">
<metadata>
Created by potrace 1.14, written by Peter Selinger 2001-2017
</metadata>
<g transform="translate(0.000000,864.000000) scale(0.100000,-0.100000)"
fill="#000000" stroke="none">
<path d="M3614 6914 c-331 -332 -599 -606 -596 -609 3 -3 0 -5 -6 -5 -14 0
-221 -207 -214 -214 3 -4 0 -6 -6 -6 -14 0 -131 -118 -133 -134 -1 -6 -2 -341
-3 -744 l-1 -733 103 -107 c57 -59 168 -174 246 -256 77 -81 147 -153 154
-160 7 -6 18 -17 25 -24 7 -7 53 -55 103 -107 50 -52 100 -106 110 -119 10
-14 21 -23 26 -20 4 3 8 -2 8 -10 0 -9 7 -16 16 -16 8 0 13 -4 10 -9 -5 -7 14
-21 27 -21 1 0 2 524 2 1165 l-1 1166 336 334 c184 184 338 337 341 340 4 3
529 -516 1169 -1155 l1162 -1160 -1002 -1003 c-550 -551 -1005 -1009 -1010
-1017 -5 -8 -10 -12 -10 -9 0 4 -66 -60 -147 -142 -82 -82 -152 -149 -157
-149 -10 0 -2006 2002 -2006 2013 0 4 -6 8 -12 8 -7 1 -42 33 -78 71 l-65 69
0 580 c0 318 -2 579 -4 579 -2 0 -36 -34 -76 -75 -41 -41 -72 -75 -70 -75 2 0
-168 -174 -378 -386 -210 -213 -389 -394 -398 -403 -14 -15 44 -76 722 -752
406 -405 740 -734 743 -731 4 3 6 0 6 -6 0 -6 376 -386 835 -846 695 -695 836
-832 845 -818 5 9 10 14 10 11 0 -7 278 271 278 278 0 3 6 9 14 14 15 9 1071
1063 1124 1122 19 20 34 35 34 33 0 -2 152 148 338 333 186 185 337 339 335
344 -2 4 0 7 5 7 5 0 235 225 510 500 l501 500 -27 28 c-15 15 -28 27 -30 26
-2 -1 -39 36 -82 81 -43 45 -82 80 -85 77 -3 -3 -5 3 -5 13 0 10 -3 15 -6 12
-4 -4 -19 9 -34 28 -15 19 -30 32 -34 28 -3 -3 -6 1 -6 11 0 9 -3 15 -7 13 -5
-3 -21 13 -38 34 -16 21 -36 38 -43 39 -7 0 -10 5 -7 10 3 6 -1 10 -9 10 -9 0
-16 8 -16 17 0 9 -3 13 -6 10 -4 -4 -15 3 -26 16 -39 46 -712 717 -719 717 -4
0 -9 4 -11 9 -6 18 -147 159 -152 153 -3 -3 -6 -1 -6 4 0 13 -228 242 -235
236 -3 -3 -5 -1 -5 4 0 14 -67 83 -74 76 -3 -3 -6 -1 -6 5 0 6 -19 29 -41 52
-23 22 -46 41 -52 41 -6 0 -8 2 -5 5 4 4 -1351 1367 -1385 1392 -8 7 -182
-161 -613 -593z"/>
<path d="M4219 5942 c-2 -16 -2 -34 0 -77 1 -11 0 -46 -1 -78 -2 -31 1 -57 5
-57 5 0 5 -6 0 -12 -10 -17 -10 -228 0 -228 5 0 5 -6 0 -12 -10 -18 -10 -228
1 -228 5 0 4 -6 -1 -12 -5 -7 -8 -49 -6 -93 2 -44 3 -84 3 -90 -1 -35 -2 -133
-1 -150 1 -11 1 -47 0 -80 0 -33 0 -69 0 -80 1 -11 1 -47 0 -80 0 -33 0 -69 0
-80 1 -11 0 -46 -1 -78 -2 -31 1 -57 5 -57 5 0 5 -6 0 -12 -10 -17 -10 -228 0
-228 5 0 5 -6 0 -12 -10 -18 -10 -228 1 -228 5 0 4 -6 -1 -12 -5 -7 -8 -49 -6
-93 2 -44 3 -84 3 -90 -1 -35 -2 -133 -1 -150 0 -11 0 -64 -2 -117 -1 -54 2
-98 6 -98 5 0 5 -6 0 -12 -10 -18 -10 -308 1 -308 5 0 4 -6 -1 -12 -6 -10 -10
-255 -4 -312 1 -12 41 34 41 47 0 6 2 8 5 5 7 -7 275 261 275 275 0 5 3 8 6 4
8 -8 54 38 54 54 0 7 2 10 5 7 7 -6 680 664 677 675 -1 4 2 7 6 7 5 0 126 117
269 260 l259 260 -65 68 c-36 38 -69 67 -73 65 -5 -2 -8 0 -8 6 0 13 -117 131
-130 131 -6 0 -10 4 -10 9 0 13 -137 151 -150 151 -5 0 -10 5 -10 11 0 14 -88
98 -95 91 -3 -3 -5 0 -5 6 0 13 -377 392 -391 392 -5 0 -9 4 -9 10 0 18 -650
659 -651 642z"/>
</g>
</svg>
