<svg width="253" height="61" fill="none" xmlns="http://www.w3.org/2000/svg"><path d="M161.686 1.026c.616.02 1.231.057 1.847.077l2.916.146c1.781.11 3.562.24 5.309.422 1.973.19 3.978.435 5.879.841 1.677.345 3.352.744 4.994 1.142-.838-.172-1.644-.343-2.482-.516-.871-.173-1.709-.345-2.58-.5-.872-.155-1.743-.31-2.649-.412-.775-.097-1.552-.176-2.328-.255l.065.002c-2.362-.22-4.759-.369-7.157-.462-1.134-.054-2.269-.09-3.404-.126l-1.135-.035c-1.784-.02-3.535-.057-5.319-.077-1.622-.014-3.276-.048-4.899-.063a39.295 39.295 0 00-2.076.008c-3.507.054-7.013.09-10.519.125-.551 0-1.104.02-1.656.039l-5.068.169c-2.858.092-5.684.185-8.543.278-2.633.154-5.268.326-7.902.498-1.755.11-3.544.235-5.3.344l-1.659.112-.488.04c-5.177.547-10.385 1.076-15.562 1.624-.13.014-.293.027-.457.059a330.54 330.54 0 0119.26-1.527c2.08-.099 4.191-.178 6.271-.259.877-.027 1.755-.072 2.631-.081 1.234-.016 2.467-.013 3.7-.03l11.199-.084 1.461-.01c.13-.013.227-.01.357-.006 1.135.017 2.269.053 3.404.089 3.794.1 7.554.22 11.316.32l2.075.065c1.068.07 2.105.12 3.141.19 3.758.227 7.483.436 11.24.663a44.26 44.26 0 011.587.087l2.234.18c3.949.324 7.897.685 11.841 1.137 7.857.922 15.64 2.115 23.119 3.717 3.671.765 7.313 1.609 10.921 2.531 3.574.915 7.113 1.883 10.519 2.974 1.739.55 3.462 1.127 5.17 1.73 1.54.54 3.08 1.118 4.553 1.748a61.15 61.15 0 014.51 2.092c1.341.68 2.649 1.396 3.793 2.18 1.239.84 2.412 1.734 3.388 2.676.44.451.88.903 1.255 1.37.375.45.718.916.962 1.38.275.555.517 1.127.661 1.697.115.478.197.973.213 1.465a5.894 5.894 0 01-.644 2.933 10.272 10.272 0 01-1.025 1.645c-.338.445-.709.889-1.144 1.294-.869.811-1.899 1.581-2.993 2.312a33.339 33.339 0 01-3.998 2.262 64.372 64.372 0 01-4.179 1.837c-3.057 1.235-6.304 2.336-9.645 3.306-3.406.987-6.905 1.843-10.467 2.642a278.14 278.14 0 01-11.105 2.24c-1.794.325-3.623.669-5.448.94-3.424.512-6.815 1.025-10.239 1.537-1.499.226-2.966.435-4.466.662-.424.06-.848.119-1.304.177-5.862.672-11.758 1.362-17.62 2.034-.13.014-.293.027-.423.041l-1.367.122-4.979.445c-3.612.305-7.192.63-10.804.954-.521.038-1.042.095-1.562.133-.976.079-1.984.138-2.959.198-3.826.246-7.652.49-11.479.733-1.43.083-2.829.184-4.259.267-.52.02-1.041.058-1.56.078-3.087.104-6.205.188-9.291.291-3.248.099-6.529.214-9.777.313l-1.202.017c-1.362-.007-2.758.004-4.121-.002-3.861-.012-7.756-.007-11.617-.02-1.006.005-2.044-.01-3.05-.004l-1.686-.053c-3.729-.1-7.425-.216-11.153-.315-1.557-.049-3.08-.079-4.637-.128a182.008 182.008 0 01-5.477-.227c-4.115-.202-8.229-.44-12.34-.789-3.948-.325-7.928-.687-11.872-1.175a216.45 216.45 0 01-6.075-.83 174.298 174.298 0 01-5.456-.9 95.326 95.326 0 01-5.706-1.2c-1.642-.399-3.284-.815-4.86-1.284-1.736-.528-3.438-1.074-5.073-1.709a47.298 47.298 0 01-4.227-1.81c-1.47-.72-2.841-1.493-4.047-2.35-1.08-.764-2.092-1.58-2.941-2.445-.911-.958-1.692-1.949-2.243-2.987-.521-.964-.88-1.96-1.042-2.968-.322-2.142.103-4.335 1.271-6.376 1.1-1.934 2.78-3.759 4.907-5.387 2.129-1.628 4.609-3.1 7.28-4.455 2.671-1.357 5.567-2.614 8.555-3.742 3.12-1.177 6.399-2.24 9.708-3.249a271.967 271.967 0 0110.314-2.92c1.014-.241 1.995-.502 2.977-.745.163-.05.327-.08.523-.13a49.84 49.84 0 011.111-.256c3.367-.769 6.733-1.52 10.1-2.289l2.941-.673c.165-.05.36-.08.556-.11.489-.076.946-.17 1.435-.246 3.492-.62 7.017-1.256 10.541-1.874.947-.17 1.86-.324 2.807-.495.195-.03.358-.044.554-.074.521-.075 1.075-.148 1.597-.223 3.618-.506 7.268-1.011 10.886-1.517l2.836-.403c.196-.03.39-.042.586-.054l1.66-.167c3.646-.36 7.325-.735 11.003-1.094.618-.053 1.238-.125 1.856-.178.162-.013.358-.044.553-.056.975-.042 1.918-.104 2.893-.164 3.707-.23 7.381-.442 11.055-.673.618-.035 1.204-.09 1.788-.108 1.299-.032 2.567-.083 3.866-.115 3.442-.092 6.853-.204 10.296-.296a60.255 60.255 0 011.818-.016c1.85-.014 3.668-.03 5.518-.045 1.688-.02 3.408-.02 5.096-.04.26-.01.553-.019.812-.01.356.01.746.004 1.103.016 3.21.064 6.389.11 9.6.174.227.007.421.013.552 0zm-50.835 3.596c.098-.015.227-.011.358-.025-15.765.816-31.271 2.698-46.035 5.733v-.002a.108.108 0 01-.032.001c-.098.015-.196.049-.294.064.098-.015.163-.031.26-.047-5.553 1.175-11.045 2.46-16.317 3.971-5.24 1.494-10.29 3.177-15.056 5.105-2.992 1.218-5.89 2.548-8.531 3.996a73.408 73.408 0 00-4.001 2.372c-1.126.712-2.285 1.44-3.347 2.21-.631.454-1.263.926-1.83 1.4-.3.264-.6.546-.9.81a5.9 5.9 0 00-.469.423c-.402.407-.771.796-1.172 1.185-.67.671-1.34 1.324-1.914 2.017.248-.666.561-1.33.907-1.995.139-.287.31-.573.449-.86.206-.377.412-.753.652-1.128.577-.82 1.186-1.603 1.956-2.363.77-.741 1.572-1.464 2.501-2.145a30.642 30.642 0 013.117-2.108 55.135 55.135 0 013.204-1.758c2.803-1.425 5.797-2.734 8.918-3.949a156.448 156.448 0 019.909-3.443 175.33 175.33 0 017.531-2.15c-.85.191-1.7.401-2.55.593-.327.081-.653.144-.98.225-.49.112-.982.242-1.472.373-2.659.683-5.3 1.402-7.921 2.156-2.702.783-5.38 1.61-8.029 2.482a121.404 121.404 0 00-7.221 2.598c-4.767 1.947-9.218 4.158-12.902 6.758-1.893 1.38-3.465 2.88-4.684 4.483a13.304 13.304 0 00-1.13 1.897c-.28.665-.529 1.332-.713 2.019a8.206 8.206 0 00-.224 1.98c-.019.6.06 1.186.17 1.791.145.57.322 1.14.596 1.696.267.583.585 1.153.952 1.707.437.579.905 1.158 1.472 1.705a21.21 21.21 0 001.926 1.683 28.621 28.621 0 002.417 1.589 39.952 39.952 0 002.938 1.496c1.742.77 3.54 1.466 5.387 2.083a77.367 77.367 0 005.628 1.617c1.932.462 3.866.906 5.833 1.278 1.936.37 3.938.689 5.908.988 2.164.323 4.329.628 6.528.88 2.036.246 4.074.456 6.145.649 3.948.36 7.93.668 11.913.903 1.977.099 3.953.215 5.93.296.972.049 1.977.08 2.949.129.518.035 1.004.05 1.523.066l8.301.207 9.63.248c.454.014.876.01 1.298.004 1.363.007 2.759-.004 4.122.002l11.585-.018c.942-.007 1.915.006 2.888 0 .13.004.261-.01.39-.006.423-.023.845-.028 1.267-.051 6.043-.211 12.085-.404 18.128-.615 4.846-.34 9.723-.642 14.568-.963 1.366-.085 2.764-.187 4.13-.271.39-.025.813-.048 1.204-.09 3.221-.282 6.411-.582 9.632-.864 2.929-.254 5.826-.527 8.755-.782.487-.039 1.009-.113 1.498-.171 1.563-.188 3.159-.356 4.722-.544 3.55-.417 7.068-.817 10.618-1.234.522-.075 1.042-.113 1.532-.188l3.325-.497 10.857-1.627c.881-.137 1.761-.255 2.642-.41 3.687-.631 7.342-1.3 10.968-2.042a235.24 235.24 0 006.405-1.421c1.962-.467 3.924-.952 5.856-1.493 3.863-1.063 7.6-2.276 11.084-3.68 1.612-.678 3.191-1.357 4.676-2.131a32.32 32.32 0 002.18-1.226c.521-.325 1.03-.661 1.524-1.009a14.166 14.166 0 001.799-1.456c.468-.441.839-.904 1.211-1.366.333-.438.608-.9.822-1.378.173-.359.282-.72.391-1.081.077-.399.122-.78.102-1.163-.02-.402-.04-.785-.126-1.171a6.495 6.495 0 00-.355-1.086 8.918 8.918 0 00-.646-1.151 12.47 12.47 0 00-1.472-1.669c-.567-.564-1.231-1.114-1.895-1.645-2.157-1.6-4.807-2.977-7.59-4.25a75.886 75.886 0 00-5.16-2.057 186.74 186.74 0 00-5.555-1.87c-3.76-1.194-7.62-2.263-11.516-3.243a239.421 239.421 0 00-18.765-3.89 293.44 293.44 0 00-9.852-1.44c-3.33-.414-6.66-.774-9.993-1.098h.007c-1.312-.11-2.647-.234-3.955-.343-.615-.055-1.263-.094-1.91-.15-.324-.03-.647-.076-.971-.086a44.162 44.162 0 01-1.555-.086c-2.494-.15-4.956-.283-7.45-.434-2.235-.125-4.438-.268-6.64-.392-.874-.064-1.75-.073-2.658-.102-3.794-.1-7.554-.219-11.316-.32a203.492 203.492 0 01-3.404-.088c-.162-.005-.293.01-.422.005l-1.396.01-11.199.086c-1.233.016-2.466.014-3.7.03l-.227-.008c-.974.024-1.916.05-2.891.091a543.69 543.69 0 00-5.751.239zm65.573 1.56c.069.007.145.015.221.018l-.221-.019zm-111.217 4.13s-.03 0-.033.015a.15.15 0 00.033-.015zM176.295 6.17l.129.01a2.102 2.102 0 00-.128-.01h-.001zm38.378 6.384a.21.21 0 01-.064-.02l.064.02zm.064.02l-.064-.02a.22.22 0 01.064.02zM17.739 28.087a.329.329 0 01.05-.035l-.05.035zm-.05.035l.05-.035c-.017.013-.033.026-.05.035zM4.892 31.62c-.017.009-.025.022-.034.036l.034-.036zm-.034.036l-.033.035a.089.089 0 00.033-.035zm8.28 17.395c.032.019.064.02.063.038l-.063-.038zm51.939-38.687c.033-.018.033-.018.065-.017l-.065.017z" fill="#10B899"/></svg>