<svg width="1560" height="482" fill="none" xmlns="http://www.w3.org/2000/svg"><g opacity=".4"><path opacity=".2" fill-rule="evenodd" clip-rule="evenodd" d="M688.044 89.201c20.976-33.774 45.098-56.749 89.338-48.588 39.746 7.332 54.105 57.236 80.692 86.933 17.522 19.572 66.539 43.009 74.193 66.705 12.001 37.152 19.65 74.961-18.445 85.847-40.949 11.702-64.597-37.285-107.749-50.742-43.807-13.66-89.575 9.853-122.686-21.116-33.794-31.606-17.03-84.118 4.657-119.039z" fill="url(#paint0_linear_901_2260)" fill-opacity=".69"/><path opacity=".2" fill-rule="evenodd" clip-rule="evenodd" d="M239.579 429.592c-34.791 20.176-67.152 29.377-102.258 1.868-31.54-24.715-20.156-75.344-29.303-113.754-6.028-25.315-37.986-68.497-33.319-92.922 7.318-38.294 18.794-75.17 57.658-67.29 41.777 8.471 39.031 62.555 70.625 94.239 32.073 32.163 83.795 32.423 98.087 74.95 14.586 43.404-25.519 82.049-61.49 102.909z" fill="url(#paint1_linear_901_2260)" fill-opacity=".69"/><path opacity=".2" fill-rule="evenodd" clip-rule="evenodd" d="M1486.07 61.548c32.5 23.533 53.69 49.115 41.23 91.335-11.19 37.933-63.44 47.226-96.23 70.285-21.6 15.197-50.09 60.634-74.98 65.859-39.02 8.191-78.31 12.093-85.86-25.936-8.12-40.878 44.07-59.281 61.82-99.951 18.03-41.287-1.69-87.95 33-117.23 35.4-29.883 87.41-8.693 121.02 15.638z" fill="url(#paint2_linear_901_2260)" fill-opacity=".69"/><path opacity=".2" d="M738.626 259.453c25.145-3.95 53.371 4.006 55.91 9.141 0 0 35.593 18.684 35.593 56.38 0 37.695-64.219 130.535-134.399 118.409-87.724-15.156-138.14-127.163-125.075-172.422 10.452-36.207 49.052-36.544 71.176-32.175 19.034 8.527 71.65 24.616 96.795 20.667z" fill="url(#paint3_linear_901_2260)"/><path opacity=".15" d="M818.033 160.243c4.749-26.153 22.79-52.998 28.946-54.516 0 0 31.625-32.098 70.296-24.454 38.672 7.645 111.445 91.219 74.44 159.518-46.251 85.373-178.803 113.49-220.662 91.14-33.487-17.88-20.323-56.867-8.098-78.286 15.409-17.463 50.33-67.249 55.078-93.402z" fill="url(#paint4_linear_901_2260)"/></g><defs><linearGradient id="paint0_linear_901_2260" x1="772.652" y1="250.017" x2="736.074" y2="96.892" gradientUnits="userSpaceOnUse"><stop stop-color="#FAFAFA" stop-opacity=".69"/><stop offset="1" stop-color="#FAFAFA" stop-opacity=".15"/></linearGradient><linearGradient id="paint1_linear_901_2260" x1="242.232" y1="428.052" x2="140.525" y2="134.015" gradientUnits="userSpaceOnUse"><stop stop-color="#FAFAFA" stop-opacity=".69"/><stop offset="1" stop-color="#FAFAFA" stop-opacity=".15"/></linearGradient><linearGradient id="paint2_linear_901_2260" x1="1483.59" y1="59.754" x2="1253.31" y2="273.874" gradientUnits="userSpaceOnUse"><stop stop-color="#FAFAFA" stop-opacity=".69"/><stop offset="1" stop-color="#FAFAFA" stop-opacity=".15"/></linearGradient><linearGradient id="paint3_linear_901_2260" x1="742.989" y1="237.257" x2="636.305" y2="417.373" gradientUnits="userSpaceOnUse"><stop stop-color="#FAFAFA" stop-opacity=".69"/><stop offset="1" stop-color="#FAFAFA" stop-opacity=".18"/></linearGradient><linearGradient id="paint4_linear_901_2260" x1="778.819" y1="242.009" x2="961.499" y2="82.487" gradientUnits="userSpaceOnUse"><stop stop-color="#FAFAFA" stop-opacity=".69"/><stop offset="1" stop-color="#FAFAFA" stop-opacity=".1"/></linearGradient></defs></svg>