<svg xmlns="http://www.w3.org/2000/svg" width="13" height="8" viewBox="0 0 13 8"><g><g><path d="M12.792.668L12.366.22a.693.693 0 0 0-1.006 0L6.503 5.282 1.64.216a.691.691 0 0 0-1.006 0L.208.659a.764.764 0 0 0 0 1.048l5.79 6.054c.134.14.312.238.504.238h.003c.19 0 .369-.098.502-.238l5.785-6.037a.764.764 0 0 0 .208-.53.757.757 0 0 0-.208-.526z"/><path fill="#8d8d8d" d="M12.792.668L12.366.22a.693.693 0 0 0-1.006 0L6.503 5.282 1.64.216a.691.691 0 0 0-1.006 0L.208.659a.764.764 0 0 0 0 1.048l5.79 6.054c.134.14.312.238.504.238h.003c.19 0 .369-.098.502-.238l5.785-6.037a.764.764 0 0 0 .208-.53.757.757 0 0 0-.208-.526z"/></g></g></svg>