<svg width="255" height="169" fill="none" xmlns="http://www.w3.org/2000/svg"><path d="M0 15C0 6.716 6.716 0 15 0h225c8.284 0 15 6.716 15 15v154H0V15z" fill="#C2D6DF"/><path d="M81.816 26h2.055c5.455 2.02 9.625 5.84 13.794 9.706a117.052 117.052 0 019.566 9.776 18.058 18.058 0 014.45 12.171 15.614 15.614 0 01-.724 4.473 9.447 9.447 0 01-9.344 6.821h-1.694c-2.605 21.819 21.024 45.552 42.807 42.876.07-1.168 0-2.336.21-3.399.876-5.934 7.3-9.52 12.089-9.18h.001a14.99 14.99 0 017.078 2.336 43.01 43.01 0 016.225 4.602 104.959 104.959 0 0113.479 14.846 69.027 69.027 0 013.96 6.855v2.067a16.761 16.761 0 01-5.105 4.942 39.975 39.975 0 01-18.687 7.37c-12.744 1.74-24.866-.701-36.406-5.957-23.805-10.839-40.88-28.37-51.1-52.489h-.001a66.009 66.009 0 01-5.408-29.153c.502-10.383 3.715-19.728 11.038-27.39.533-.474 1.108-.9 1.717-1.273z" fill="#fff"/></svg>