<svg width="40" height="40" viewBox="0 0 40 40" fill="none" xmlns="http://www.w3.org/2000/svg">
<g clip-path="url(#clip0_386_27532)">
<path d="M0 20C0 14.125 0 8.23438 0 2.34375C0 0.765625 0.765625 0 2.34375 0C11.0469 0 19.7344 0 28.4375 0C29.5625 0 30.3438 0.546875 30.5938 1.5C30.6562 1.75 30.6719 2.01562 30.6719 2.28125C30.6719 6.26562 30.6719 10.25 30.6719 14.2344C30.6719 14.3906 30.6719 14.5469 30.625 14.7031C30.5469 15 30.3438 15.1719 30.0312 15.1875C29.7031 15.2031 29.4688 15.0469 29.375 14.7344C29.3281 14.5469 29.3125 14.3438 29.3125 14.1562C29.3125 10.2188 29.3125 6.29688 29.3125 2.35938C29.3125 1.53125 29.125 1.34375 28.3125 1.34375C19.6562 1.34375 11 1.34375 2.34375 1.34375C1.53125 1.34375 1.32812 1.53125 1.32812 2.35938C1.32812 14.125 1.32812 25.8906 1.32812 37.6719C1.32812 38.4844 1.51562 38.6875 2.34375 38.6875C11 38.6875 19.6562 38.6875 28.3125 38.6875C29.125 38.6875 29.3125 38.5 29.3125 37.6719C29.3125 35.6875 29.3125 33.6875 29.3125 31.7031C29.3125 31.0312 29.5312 30.7188 29.9844 30.7031C30.4375 30.7031 30.6562 31.0156 30.6562 31.6875C30.6562 33.7031 30.6562 35.7188 30.6562 37.7344C30.6562 39.2344 29.8594 40.0156 28.3594 40.0156C19.6719 40.0156 10.9844 40.0156 2.3125 40.0156C0.765625 40 0 39.2188 0 37.6562C0 31.7812 0 25.8906 0 20Z" fill="#5FD3D1"/>
<path d="M23.5471 32.6406C24.0158 32.0624 24.4534 31.5156 24.8909 30.9999C25.0159 30.8437 24.969 30.7343 24.8909 30.5781C24.5784 29.9843 24.5315 29.3593 24.8596 28.7812C25.6877 27.3281 26.1877 25.7343 26.7815 24.1874C26.9065 23.8437 27.0627 23.5156 27.2502 23.2031C28.9846 20.2031 30.719 17.1874 32.469 14.1874C32.6252 13.9218 32.6252 13.7812 32.3283 13.6718C32.2502 13.6406 32.1721 13.5937 32.094 13.5312C31.7658 13.2968 31.6565 12.9218 31.8283 12.6093C32.0002 12.2968 32.3752 12.2031 32.7502 12.3749C33.344 12.6406 33.344 12.6406 33.6565 12.0937C34.0627 11.3906 34.4846 10.7031 34.8752 9.99994C35.0783 9.65619 35.3127 9.42182 35.7502 9.51557C36.0002 9.57807 36.0158 9.35932 36.094 9.21869C36.4533 8.57807 36.9377 8.09369 37.719 8.01557C38.4846 7.92182 39.1096 8.18744 39.5627 8.79682C40.0315 9.42182 40.1096 10.1093 39.7971 10.8281C39.7346 10.9687 39.6721 11.1093 39.5783 11.2343C39.4377 11.4374 39.3908 11.6093 39.5783 11.8437C39.7815 12.0937 39.6721 12.3906 39.5315 12.6406C39.0627 13.4374 38.6252 14.2499 38.1408 15.0312C37.969 15.3124 37.9846 15.4374 38.2815 15.5781C39.094 15.9843 39.5471 16.6249 39.5158 17.5781C39.5002 17.9218 39.3752 18.2343 39.2033 18.5312C38.3596 19.9999 37.5158 21.4687 36.6721 22.9218C36.4221 23.3593 36.0471 23.4999 35.7033 23.3124C35.3283 23.1093 35.2658 22.7343 35.5315 22.2656C36.344 20.8437 37.1721 19.4218 37.9846 17.9999C38.3752 17.3281 38.1877 16.8437 37.4377 16.5781C37.2346 16.4999 37.219 16.6562 37.1565 16.7499C36.7346 17.4843 36.3127 18.2187 35.8908 18.9531C34.5002 21.3593 33.1252 23.7812 31.719 26.1874C31.2033 27.0468 30.4846 27.7656 29.8596 28.5312C29.344 29.1562 28.8596 29.7968 28.4534 30.4999C28.0002 31.3124 27.2971 31.7031 26.344 31.5937C26.1409 31.5624 26.0315 31.6406 25.9221 31.7968C25.5002 32.3437 25.0783 32.8906 24.6408 33.4218C23.8752 34.3749 22.7034 34.2031 22.2346 33.0781C22.1252 32.8124 22.0158 32.5312 21.9065 32.2499C21.7346 32.2656 21.719 32.4062 21.6565 32.4999C21.2659 33.0624 20.7034 33.3124 20.1565 33.1562C19.5627 32.9999 19.1877 32.5156 19.1252 31.8281C19.0627 31.1406 19.0159 30.4531 18.9534 29.7656C18.9534 29.6718 18.9221 29.5937 18.844 29.4999C18.7971 29.6093 18.7502 29.7187 18.719 29.8281C18.2502 31.2343 17.7815 32.6406 17.3127 34.0468C17.1252 34.5937 16.719 34.7812 16.2971 34.5156C16.0002 34.3281 15.9065 34.0468 16.0159 33.7343C16.5627 32.0624 17.1096 30.4062 17.6877 28.7499C17.8908 28.1718 18.5002 27.8593 19.1096 27.9374C19.6565 27.9999 20.1408 28.4687 20.219 29.0468C20.3127 29.8281 20.3752 30.5937 20.4377 31.3749C20.4534 31.4687 20.4534 31.5781 20.469 31.7499C20.6096 31.5468 20.7033 31.4218 20.8127 31.2812C21.4221 30.4999 22.5471 30.5937 23.0315 31.4687C23.2346 31.8437 23.3596 32.2343 23.5471 32.6406ZM30.7658 25.0624C30.8752 25.0468 30.9065 24.9374 30.9534 24.8593C32.6409 21.9531 34.3127 19.0312 36.0002 16.1249C36.1252 15.9062 36.0627 15.8124 35.8752 15.7031C35.2659 15.3749 34.6721 15.0312 34.094 14.6718C33.8752 14.5312 33.7971 14.6093 33.6877 14.7968C32.0159 17.7031 30.344 20.6093 28.6565 23.4999C28.5471 23.6874 28.5158 23.7968 28.7502 23.9218C29.3752 24.2499 29.969 24.6249 30.5783 24.9687C30.6408 24.9999 30.6877 25.0312 30.7658 25.0624ZM38.1096 12.4531C38.1096 12.3437 38.0158 12.3281 37.9533 12.2812C37.3127 11.9062 36.6721 11.5468 36.0315 11.1562C35.844 11.0468 35.7815 11.1406 35.7033 11.2656C35.344 11.8906 35.0002 12.5156 34.6252 13.1249C34.5159 13.2968 34.5471 13.3906 34.719 13.4843C35.344 13.8281 35.969 14.1874 36.5783 14.5624C36.7502 14.6718 36.844 14.6406 36.9377 14.4687C37.2815 13.8437 37.6565 13.2343 38.0002 12.6093C38.0471 12.5624 38.0783 12.5156 38.1096 12.4531ZM28.0315 25.0312C27.9065 25.0156 27.9065 25.1249 27.8752 25.2031C27.719 25.5937 27.5627 25.9687 27.4377 26.3749C27.3127 26.7499 26.9533 27.1874 27.094 27.4843C27.2502 27.7968 27.7658 27.9374 28.1096 28.1562C28.2658 28.2656 28.3752 28.2499 28.4846 28.0937C28.9377 27.5312 29.4065 26.9687 29.8752 26.4062C30.0471 26.2031 29.969 26.1406 29.7815 26.0312C29.2502 25.7343 28.719 25.4218 28.1877 25.1249C28.1565 25.0937 28.094 25.0624 28.0315 25.0312ZM26.7346 30.3124C27.0471 30.3124 27.6096 29.7499 27.5783 29.4687C27.5783 29.3906 26.6096 28.8124 26.5158 28.8124C26.3752 28.8281 26.0627 29.4218 26.0627 29.6718C26.0627 30.0312 26.3596 30.3124 26.7346 30.3124ZM38.6565 9.98432C38.6408 9.60932 38.344 9.3437 37.9533 9.35932C37.6565 9.37495 37.1252 9.89057 37.1252 10.1874C37.1252 10.2656 38.0471 10.8593 38.1721 10.8593C38.3283 10.8593 38.6565 10.2499 38.6565 9.98432Z" fill="#5FD3D1"/>
<path d="M15.3125 8.00006C12.5469 8.00006 9.76563 8.00006 7 8.00006C6.1875 8.00006 6 7.81256 6 7.01568C6 6.29693 6 5.57818 6 4.87506C6 4.23443 6.23437 4.00005 6.875 4.00005C8.57812 4.00005 10.2812 4.00005 11.9844 4.00005C15.8594 4.00005 19.75 4.00005 23.625 4.00005C23.8125 4.00005 24.0156 3.98443 24.2031 4.06255C24.5156 4.17193 24.6563 4.4063 24.6406 4.73443C24.6094 5.04693 24.4375 5.26568 24.1094 5.32818C23.9375 5.35943 23.7656 5.35943 23.6094 5.35943C18.3438 5.35943 13.0625 5.35943 7.79688 5.34381C7.40625 5.34381 7.32813 5.45318 7.32813 5.82818C7.35938 6.68756 7.32812 6.68756 8.21875 6.68756C13.3438 6.68756 18.4844 6.68756 23.6094 6.68756C23.7969 6.68756 24 6.68756 24.1875 6.73443C24.5 6.81256 24.6563 7.06256 24.6563 7.37506C24.6406 7.68756 24.4844 7.92193 24.1563 7.98443C23.9844 8.01568 23.8125 8.01568 23.6562 8.01568C20.8594 8.00006 18.0938 8.00006 15.3125 8.00006Z" fill="#5FD3D1"/>
<path d="M8.37459 26.0156C9.46834 26.0312 10.4683 26.3281 11.3902 26.9219C11.9527 27.2969 12.109 27.625 11.8746 28.0156C11.6402 28.4062 11.2496 28.4219 10.6871 28.0469C9.57772 27.3437 8.39022 27.1562 7.14021 27.5C5.17146 28.0312 3.78084 30.0625 4.01521 32.0781C4.28084 34.3281 6.04646 35.9531 8.24959 36C10.3433 36.0469 12.234 34.5 12.5777 32.4375C12.609 32.2031 12.6402 31.9687 12.6558 31.7344C12.7027 31.2656 12.9527 30.9844 13.3433 31C13.734 31.0156 13.984 31.2969 13.984 31.7812C13.984 35.0312 10.9215 37.7187 7.70271 37.2812C4.89021 36.9062 2.82771 34.7344 2.67146 31.9687C2.48396 28.7344 5.14021 25.9687 8.37459 26.0156Z" fill="#5FD3D1"/>
<path d="M18.641 15.3281C16.3129 15.3281 13.9848 15.3281 11.6566 15.3281C11.5004 15.3281 11.3441 15.3281 11.1879 15.2969C10.891 15.2344 10.7191 15.0312 10.6879 14.7187C10.6566 14.4062 10.7973 14.1875 11.0785 14.0625C11.2504 13.9844 11.4379 13.9844 11.6098 13.9844C16.3129 13.9844 21.0316 13.9844 25.7348 13.9844C25.9066 13.9844 26.0785 13.9844 26.2348 14.0469C26.5316 14.1719 26.6723 14.4063 26.641 14.7344C26.6098 15.0313 26.4223 15.2344 26.1254 15.2969C25.9691 15.3281 25.8129 15.3281 25.6566 15.3281C23.3285 15.3281 20.9848 15.3281 18.641 15.3281Z" fill="#5FD3D1"/>
<path d="M11.9531 19.3281C9.85937 19.3281 7.76562 19.3281 5.67187 19.3281C5 19.3281 4.6875 19.1094 4.6875 18.6562C4.6875 18.2031 5 17.9844 5.67187 17.9844C9.89062 17.9844 14.0937 17.9844 18.3125 17.9844C18.4531 17.9844 18.5937 17.9844 18.7344 18.0156C19.1094 18.0781 19.3281 18.3281 19.3125 18.6875C19.2969 19.0469 19.0937 19.2656 18.7344 19.3125C18.5781 19.3281 18.4219 19.3281 18.2656 19.3281C16.1562 19.3281 14.0625 19.3281 11.9531 19.3281Z" fill="#5FD3D1"/>
<path d="M15.3121 9.32812C17.4371 9.32812 19.5464 9.32812 21.6714 9.32812C22.3433 9.32812 22.6558 9.54687 22.6558 10C22.6558 10.4531 22.3277 10.6562 21.6558 10.6562C17.4371 10.6562 13.2339 10.6562 9.01518 10.6562C8.34331 10.6562 8.01518 10.4375 8.01518 10C7.99956 9.54687 8.32768 9.32812 8.99956 9.32812C11.0933 9.32812 13.2027 9.32812 15.3121 9.32812Z" fill="#5FD3D1"/>
<path d="M8.65596 22.6562C7.59346 22.6562 6.51534 22.6562 5.45284 22.6562C5.01534 22.6562 4.76534 22.4687 4.70284 22.125C4.62471 21.6875 4.92159 21.3437 5.42159 21.3281C6.07784 21.3125 6.71846 21.3281 7.37471 21.3281C8.81221 21.3281 10.2341 21.3281 11.6716 21.3281C11.781 21.3281 11.906 21.3281 12.0153 21.3281C12.3903 21.375 12.656 21.6562 12.656 22C12.656 22.3594 12.3747 22.6406 11.9685 22.6562C11.2497 22.6719 10.531 22.6562 9.82784 22.6562C9.43721 22.6562 9.04659 22.6562 8.65596 22.6562Z" fill="#5FD3D1"/>
<path d="M8.18714 33.5468C7.79652 33.5468 7.48402 33.4218 7.21839 33.1562C6.76527 32.7031 6.31214 32.2656 5.87464 31.8124C5.56214 31.4843 5.54652 31.0781 5.82777 30.8124C6.10902 30.5312 6.48402 30.5624 6.82777 30.8906C7.18714 31.2343 7.54652 31.5624 7.87464 31.9374C8.10902 32.2187 8.24964 32.1562 8.46839 31.9218C9.06214 31.2968 9.67152 30.7031 10.2809 30.0937C10.359 30.0156 10.4215 29.9374 10.4996 29.8749C10.7965 29.6406 11.1715 29.6562 11.4215 29.9062C11.6559 30.1406 11.7028 30.5312 11.4528 30.7968C10.6403 31.6406 9.81214 32.4531 8.96839 33.2656C8.74964 33.4843 8.46839 33.5468 8.18714 33.5468Z" fill="#5FD3D1"/>
<path d="M23.6404 19.3281C22.9061 19.3281 22.1873 19.3281 21.4529 19.3281C21.1092 19.3281 20.8279 19.2188 20.7029 18.8906C20.5467 18.4531 20.8436 18.0156 21.3436 18.0156C22.8748 18 24.406 18 25.9373 18.0156C26.3748 18.0156 26.6404 18.3125 26.6248 18.7031C26.6092 19.0781 26.3592 19.3281 25.9217 19.3438C25.1873 19.3438 24.4061 19.3281 23.6404 19.3281Z" fill="#5FD3D1"/>
<path d="M16.9531 22.6562C16.2344 22.6562 15.5156 22.6562 14.8125 22.6562C14.3125 22.6562 14.0156 22.3906 14 22C14 21.6094 14.3125 21.3281 14.7969 21.3281C16.2656 21.3281 17.7344 21.3281 19.2031 21.3281C19.6875 21.3281 20 21.6094 19.9844 22.0156C19.9688 22.4062 19.6875 22.6562 19.2031 22.6562C18.4688 22.6719 17.7031 22.6562 16.9531 22.6562Z" fill="#5FD3D1"/>
</g>
<defs>
<clipPath id="clip0_386_27532">
<rect width="40" height="40" fill="white"/>
</clipPath>
</defs>
</svg>
