<svg width="32" height="44" viewBox="0 0 32 44" fill="none" xmlns="http://www.w3.org/2000/svg">
<g clip-path="url(#clip0_386_27514)">
<path d="M21.1487 44C18.4358 44 15.7228 44 13.0099 44C12.825 44 12.7017 44 12.5167 44C12.2084 43.9389 11.9618 43.6944 12.0234 43.3889C12.0234 43.0833 12.2084 42.8389 12.5167 42.7777C12.64 42.7166 12.825 42.7777 13.0099 42.7777C16.771 42.7777 20.5321 42.7777 24.2932 42.7777C24.6631 42.7777 24.7864 42.7166 24.7864 42.2889C24.7864 40.5166 24.7864 38.7444 24.7864 36.9722C24.7864 36.7888 24.7864 36.6055 24.8481 36.4833C24.9714 36.1777 25.1564 35.9944 25.5263 36.0555C25.8346 36.0555 26.0196 36.2388 26.0812 36.5444C26.1429 36.6666 26.0812 36.85 26.0812 36.9722C26.0812 38.7444 26.0812 40.5777 26.0812 42.35C26.0812 42.6555 26.1429 42.7777 26.5128 42.7777C27.4377 42.7777 28.3625 42.7777 29.2257 42.7777C29.3491 42.7777 29.534 42.7777 29.6573 42.7777C30.4589 42.6555 30.8288 42.2889 30.7055 41.4944C30.5822 40.4555 30.3356 39.4166 30.1506 38.4389C29.719 36.3611 29.2874 34.2222 28.8558 32.1444C28.6092 30.8 27.8076 29.9444 26.4512 29.5166C25.0331 29.0889 23.6149 28.7222 22.1968 28.2944C21.8886 28.2333 21.7652 28.2333 21.7036 28.5389C21.3953 29.5166 21.0254 30.4333 20.7171 31.35C20.4704 31.9611 20.0388 32.3277 19.4223 32.3277C19.2373 32.3277 19.114 32.3889 18.9907 32.5111C18.4358 33 17.8808 33.4888 17.2643 33.9777C16.4627 34.65 15.6612 34.65 14.798 33.9777C14.2431 33.4888 13.6882 33 13.1333 32.5111C13.0099 32.3889 12.8866 32.3277 12.7017 32.3277C12.0234 32.3277 11.5918 31.9611 11.4069 31.4111C11.0369 30.4333 10.7286 29.5166 10.3587 28.5389C10.2354 28.2333 10.1121 28.2333 9.86543 28.2944C8.44732 28.7222 7.02921 29.15 5.6111 29.5777C4.3163 29.9444 3.51476 30.8 3.26813 32.1444C2.65156 35.1389 2.03499 38.1333 1.48008 41.1277C1.48008 41.25 1.41842 41.3722 1.41842 41.4944C1.23345 42.2277 1.54173 42.6555 2.46659 42.7166C3.51476 42.7777 4.62458 42.7166 5.67275 42.7166C5.98104 42.7166 5.91938 42.5333 5.91938 42.35C5.91938 40.5777 5.91938 38.7444 5.91938 36.9722C5.91938 36.7888 5.91938 36.6666 5.98104 36.4833C6.0427 36.1166 6.28932 35.9944 6.65927 35.9944C7.02921 35.9944 7.21418 36.2388 7.27584 36.5444C7.27584 36.6666 7.27584 36.85 7.27584 36.9722C7.27584 38.7444 7.27584 40.5166 7.27584 42.2889C7.27584 42.6555 7.39915 42.7166 7.70743 42.7166C8.32401 42.7166 8.87892 42.7166 9.49549 42.7166C9.98874 42.7166 10.297 42.9611 10.297 43.3277C10.297 43.7555 9.98874 44 9.49549 44C7.21418 44 4.93287 44 2.71322 44C1.2951 44 0.431906 43.3889 0.123621 42.2277C-0.0613499 41.6166 0.0619641 40.9444 0.185278 40.3333C0.740191 37.5222 1.35676 34.65 1.91167 31.8388C2.28162 29.8833 3.39144 28.6611 5.30281 28.1111C6.84424 27.6833 8.44732 27.1944 9.98874 26.7666C10.7286 26.5222 11.2835 25.9722 11.9618 25.6055C12.2084 25.4222 12.0851 24.4444 11.7768 24.2611C10.2354 23.3444 9.06389 22.0611 8.32401 20.4722C7.83075 19.4333 7.52246 18.3944 7.52246 17.2333C7.52246 16.9277 7.46081 16.7444 7.09086 16.6222C5.48778 16.1944 4.68624 14.6666 5.1795 13.2611C5.24115 13.0777 5.36447 12.8333 5.48778 12.65C5.79607 12.3444 5.85772 11.9777 5.85772 11.55C5.85772 10.1444 5.73441 8.67774 6.0427 7.27218C6.16601 6.72218 6.41264 6.47774 6.84424 6.59996C7.21418 6.66107 7.39915 7.02774 7.33749 7.51663C7.09086 8.73885 7.21418 10.0222 7.21418 11.2444C7.21418 11.3055 7.15252 11.4888 7.33749 11.4888C7.46081 11.4888 7.58412 11.4888 7.64578 11.3666C7.95406 10.7555 8.44732 10.6333 9.06389 10.6333C12.5167 10.3888 15.8462 9.41107 19.114 8.24996C20.1005 7.88329 20.9637 8.00552 21.8269 8.67774C22.5668 9.28885 23.3067 9.83885 24.0465 10.3888C24.3548 10.6333 24.6015 10.8777 24.7248 11.2444C24.7864 11.4277 24.9097 11.55 25.0947 11.55C25.2797 11.4888 25.218 11.3055 25.218 11.1833C25.218 9.77774 25.218 8.37218 25.218 6.90552C25.218 4.0944 22.6901 2.68885 20.7787 3.11663C20.4088 3.17774 20.1005 3.11663 19.7922 2.87218C16.0311 0.244403 11.2219 0.977737 8.57063 4.52218C8.50898 4.6444 8.44732 4.70551 8.32401 4.82774C8.07738 5.13329 7.70743 5.1944 7.39915 5.01107C7.09086 4.82774 7.02921 4.39996 7.27584 4.03329C7.83075 3.17774 8.50898 2.4444 9.31052 1.8944C12.64 -0.550041 16.7094 -0.611152 20.1005 1.64996C20.2855 1.77218 20.4088 1.83329 20.6554 1.83329C23.7999 1.52774 26.2662 3.72774 26.3279 6.90552C26.3279 8.61663 26.3279 10.2666 26.3279 11.9777C26.3279 12.1611 26.3279 12.3444 26.4512 12.4666C27.6227 13.6888 27.2527 15.5833 25.588 16.4388C25.5263 16.5 25.403 16.5611 25.3413 16.5611C24.7864 16.6222 24.7248 16.9888 24.6631 17.4777C24.4165 20.35 23.06 22.6111 20.5938 24.1388C20.1005 24.4444 19.9155 24.9333 20.1005 25.4222C20.1622 25.5444 20.2238 25.6055 20.3471 25.6666C21.2103 26.3389 22.1968 26.8277 23.245 27.0722C24.4781 27.3777 25.6496 27.7444 26.8828 28.1111C28.7325 28.6611 29.8423 29.8833 30.2122 31.7777C30.7672 34.7722 31.3837 37.8277 32.0003 40.8222C32.3702 42.7166 31.3837 43.9389 29.4724 43.9389C26.6361 44.0611 23.8616 44 21.1487 44ZM8.69395 14.85C8.69395 15.6444 8.69395 16.4388 8.69395 17.2333C8.7556 18.6388 9.24886 19.9222 10.0504 21.0833C11.8385 23.4666 14.2431 24.4444 17.2643 24.0166C20.0388 23.5888 22.5051 21.3277 23.06 18.6388C23.4916 16.3777 23.245 14.1166 23.245 11.8555C23.245 11.6111 23.1217 11.4888 22.9367 11.3666C22.1352 10.7555 21.3953 10.2055 20.5938 9.5944C20.2238 9.28885 19.8539 9.28885 19.4223 9.41107C16.0311 10.6944 12.5783 11.6722 8.94058 11.9166C8.69395 11.9166 8.57063 12.0388 8.63229 12.2833C8.69395 13.1388 8.69395 13.9944 8.69395 14.85ZM18.6824 25.0555C18.5591 25.1166 18.3741 25.1166 18.2508 25.1777C16.771 25.5444 15.2912 25.5444 13.8731 25.1777C13.2566 25.0555 13.2566 25.0555 13.3182 25.6666C13.3182 25.7277 13.3799 25.85 13.3799 25.9111C13.8731 27.0722 14.3664 28.2944 14.8596 29.4555C14.9213 29.6388 15.0446 29.7 15.2296 29.7C15.6612 29.7 16.1544 29.7 16.586 29.7C16.8943 29.7 17.0176 29.6388 17.141 29.3333C17.5726 28.2333 18.0042 27.1944 18.4974 26.1555C18.744 25.7277 18.744 25.4222 18.6824 25.0555ZM16.0311 30.9833C15.7228 30.9833 15.4762 31.0444 15.1679 30.9833C14.7363 30.9222 14.4897 31.2277 14.1814 31.4111C13.9965 31.5333 14.1198 31.5944 14.2431 31.6555C14.7363 32.0833 15.2296 32.5111 15.7228 32.9389C15.9078 33.1222 16.0928 33.1222 16.2778 32.9389C16.771 32.5111 17.3259 32.0833 17.8192 31.5944C17.8808 31.5333 18.0042 31.4722 17.8808 31.35C17.5726 31.1666 17.3876 30.8611 16.956 30.8611C16.6477 30.9833 16.3394 30.9833 16.0311 30.9833ZM19.3606 30.8611C19.4839 30.8 19.4839 30.6777 19.5456 30.6166C19.7922 29.8833 20.1005 29.0889 20.3471 28.3555C20.6554 27.5 20.6554 27.5 19.8539 27.0111C19.7306 26.8888 19.6689 26.8888 19.5456 27.0722C19.1756 27.9888 18.8057 28.9055 18.3741 29.8222C18.3124 30.0055 18.3124 30.1277 18.4974 30.1889C18.744 30.3722 18.9907 30.5555 19.1756 30.6777C19.2373 30.8 19.299 30.8611 19.3606 30.8611ZM13.6882 29.9444C13.6882 29.8833 13.6265 29.8222 13.6265 29.7611C13.3182 29.0277 13.0099 28.3555 12.7017 27.6222C12.3934 26.8277 12.3934 26.8277 11.6535 27.3166C11.4069 27.4389 11.4069 27.5611 11.4685 27.8666C11.7151 28.5388 11.9618 29.2722 12.2084 29.9444C12.5783 30.9833 12.5783 30.9833 13.4415 30.3111C13.5032 30.25 13.5032 30.25 13.5649 30.1889C13.6882 30.1277 13.6882 30.0666 13.6882 29.9444ZM7.39915 14.1166C7.39915 13.75 7.39915 13.3833 7.39915 13.0166C7.39915 12.7722 7.33749 12.7722 7.15252 12.8333C6.65927 13.0166 6.22767 13.5666 6.22767 14.0555C6.22767 14.5444 6.65927 15.0333 7.15252 15.2777C7.33749 15.3388 7.39915 15.3388 7.39915 15.0944C7.39915 14.85 7.39915 14.4833 7.39915 14.1166ZM24.6631 12.8944C24.6631 13.6888 24.6631 14.4222 24.6631 15.2166C24.6631 15.4611 24.7864 15.4 24.9097 15.3388C25.4647 15.1555 25.8346 14.6055 25.7729 14.0555C25.7729 13.5055 25.3413 13.0166 24.6631 12.8944Z" fill="#5FD3D1"/>
</g>
<defs>
<clipPath id="clip0_386_27514">
<rect width="32" height="44" fill="white"/>
</clipPath>
</defs>
</svg>
