<svg width="37" height="41" viewBox="0 0 37 41" fill="none" xmlns="http://www.w3.org/2000/svg">
<g clip-path="url(#clip0_386_27546)">
<path d="M18.5167 2.70669C20.857 2.70669 23.1815 2.72271 25.5218 2.70669C26.4771 2.69067 27.1139 3.10708 27.5438 3.95591C28.6582 6.16606 30.3777 7.76763 32.6544 8.72856C33.7529 9.19302 34.2305 9.91372 34.1828 11.0989C34.1191 12.8766 34.2146 14.6543 34.0554 16.4161C33.737 19.8434 32.7499 23.0465 31.0941 26.0414C28.3717 31.0063 24.4074 34.7059 19.456 37.3645C18.8351 37.7008 18.2142 37.7168 17.5933 37.3805C12.1165 34.4176 7.86565 30.2696 5.19095 24.568C3.61479 21.2688 2.86651 17.7774 2.85059 14.1258C2.85059 13.0207 2.85059 11.9157 2.85059 10.8106C2.85059 9.86567 3.26453 9.22505 4.14017 8.85669C6.54422 7.83169 8.37511 6.18208 9.55325 3.79575C9.93535 3.04302 10.5403 2.69067 11.3841 2.69067C13.7564 2.70669 16.1286 2.70669 18.5167 2.70669ZM18.5167 3.85981C16.1604 3.85981 13.7882 3.85981 11.4319 3.85981C11.0339 3.85981 10.7473 3.98794 10.5722 4.3563C9.2826 6.96684 7.26065 8.77661 4.60188 9.91372C4.18794 10.0899 3.99689 10.3301 4.01281 10.7946C4.02873 11.9797 4.01281 13.1649 4.02873 14.35C4.06057 18.3059 5.04766 22.0215 6.95816 25.4809C9.56917 30.2375 13.3583 33.761 18.0868 36.3075C18.4371 36.4996 18.7396 36.4196 19.058 36.2434C22.6879 34.2735 25.7766 31.695 28.2443 28.3637C30.8076 24.8883 32.3678 20.9965 32.8613 16.6883C33.0842 14.7825 32.9728 12.8766 33.0046 10.9707C33.0206 10.202 32.9569 10.1379 32.2564 9.83364C29.709 8.71255 27.7508 6.95083 26.493 4.45239C26.286 4.01997 25.9995 3.8438 25.5218 3.8438C23.1815 3.87583 20.857 3.85981 18.5167 3.85981Z" fill="#5FD3D1"/>
<path d="M18.5309 0C21.6673 0 24.8197 0 27.9561 0C28.9909 0 29.5322 0.496484 29.7392 1.50547C30.2168 3.97187 31.7771 5.50938 34.0697 6.32617C34.5314 6.48633 35.009 6.58242 35.5025 6.64648C36.4737 6.77461 36.9991 7.35117 36.9991 8.32812C36.9991 10.7785 36.9832 13.2449 36.9673 15.6953C36.9673 16.1598 36.9195 16.6242 36.8717 17.0887C36.8399 17.5051 36.5852 17.7293 36.2349 17.6973C35.8846 17.6652 35.6777 17.393 35.7095 16.9766C35.9642 14.1098 35.7891 11.243 35.8369 8.37617C35.8369 8.02383 35.6936 7.84766 35.3433 7.79961C33.2418 7.51133 31.4427 6.61445 30.0735 4.96484C29.2934 4.01992 28.7999 2.94688 28.5929 1.72969C28.4974 1.20117 28.4496 1.15312 27.9242 1.15312C21.6355 1.15312 15.3468 1.15312 9.05805 1.15312C8.70779 1.15312 8.50082 1.24922 8.42122 1.63359C7.78438 4.85273 5.74652 6.72656 2.68972 7.59141C2.33946 7.6875 1.95736 7.75156 1.59118 7.79961C1.30461 7.84766 1.16132 7.9918 1.16132 8.26406C1.20908 11.1309 1.03395 13.9977 1.28868 16.8645C1.33645 17.3609 1.16132 17.6652 0.779218 17.7133C0.397118 17.7613 0.158306 17.473 0.110543 16.9445C-0.0805067 14.7824 0.0309391 12.5883 -0.000902602 10.3781C-0.000902602 9.70547 -0.000902602 9.04883 -0.000902602 8.37617C-0.000902602 7.33516 0.508564 6.79063 1.54342 6.64648C3.50168 6.37422 5.10968 5.50938 6.28782 3.87578C6.81321 3.15508 7.13163 2.33828 7.27492 1.45742C7.43412 0.5125 8.0232 0 8.97845 0C12.1626 0 15.3468 0 18.5309 0Z" fill="#5FD3D1"/>
<path d="M18.5001 41C18.2613 41 18.0225 40.9359 17.8155 40.8398C14.2811 39.0781 11.0014 36.964 8.23119 34.1132C4.50571 30.3015 1.94246 25.8332 0.700635 20.6121C0.684714 20.532 0.668794 20.4519 0.652873 20.3718C0.60511 20.0035 0.764319 19.7472 1.08274 19.6671C1.40115 19.6031 1.67181 19.7632 1.76733 20.1156C1.84693 20.4039 1.91062 20.6921 1.9743 20.9644C3.69375 27.3707 7.33962 32.4316 12.5935 36.3714C14.3448 37.6847 16.2553 38.7257 18.1817 39.7187C18.3728 39.8148 18.5479 39.8148 18.7389 39.7187C23.547 37.3804 27.6864 34.2253 30.8069 29.805C32.8289 26.9543 34.2777 23.8312 35.0896 20.4199C35.1055 20.3718 35.1215 20.3238 35.1215 20.2597C35.2488 19.7953 35.5195 19.5871 35.8697 19.6832C36.22 19.7793 36.3633 20.0996 36.2518 20.564C35.4558 23.9273 34.1025 27.0183 32.1602 29.8691C29.1671 34.2894 25.2346 37.6207 20.538 40.0711C20.1081 40.2953 19.6623 40.5195 19.2325 40.7597C19.0414 40.9199 18.7867 41.016 18.5001 41Z" fill="#5FD3D1"/>
<path d="M18.5483 26.634C16.4308 26.634 14.2974 26.634 12.18 26.634C10.7949 26.634 10.0625 25.9133 10.0625 24.5199C10.0625 21.8934 10.0625 19.2668 10.0625 16.6402C10.0625 15.3109 10.7949 14.5742 12.1004 14.5742C12.8486 14.5742 12.8486 14.5742 12.8646 13.7895C12.8964 12.7004 12.769 11.5953 13.0079 10.5223C13.6288 7.76758 16.1602 5.89375 19.01 6.10195C21.7484 6.29414 24.0091 8.60039 24.1684 11.3871C24.2161 12.284 24.2002 13.1969 24.1843 14.1098C24.1843 14.4621 24.248 14.6223 24.6301 14.5742C24.9326 14.5422 25.235 14.5422 25.5375 14.6062C26.445 14.8145 26.9863 15.5512 26.9863 16.5922C26.9863 19.2668 26.9863 21.9254 26.9863 24.6C26.9863 24.7602 26.9704 24.9203 26.9386 25.0805C26.8112 25.8973 26.1903 26.5059 25.3624 26.602C25.1714 26.618 24.9962 26.634 24.8052 26.634C22.7355 26.634 20.6339 26.634 18.5483 26.634ZM18.5165 25.4648C20.6498 25.4648 22.7832 25.4648 24.9166 25.4648C25.5853 25.4648 25.8082 25.2406 25.8082 24.584C25.8082 21.9254 25.8082 19.2668 25.8082 16.6242C25.8082 15.9676 25.5853 15.7434 24.9166 15.7434C20.6499 15.7434 16.3671 15.7434 12.1004 15.7434C11.4158 15.7434 11.2088 15.9676 11.2088 16.6563C11.2088 19.2828 11.2088 21.9094 11.2088 24.5359C11.2088 25.2406 11.4317 25.4648 12.1481 25.4648C14.2815 25.4648 16.399 25.4648 18.5165 25.4648ZM18.5483 14.5742C19.9334 14.5742 21.3026 14.5742 22.6877 14.5742C22.9584 14.5742 23.0539 14.5262 23.0539 14.2219C23.038 13.3891 23.0539 12.5402 23.038 11.7074C23.0061 9.44922 21.223 7.47929 19.0578 7.28711C16.6219 7.06289 14.5522 8.58437 14.1223 10.9387C13.9313 12.0277 14.0745 13.1168 14.0268 14.2059C14.0109 14.5262 14.1382 14.5742 14.4089 14.5742C15.794 14.5582 17.1632 14.5742 18.5483 14.5742Z" fill="#5FD3D1"/>
<path d="M17.9433 22.1176C17.9433 22.0054 17.9433 21.8773 17.9433 21.7652C17.9752 21.4289 17.9115 21.1886 17.609 20.9484C17.004 20.4679 17.0199 19.539 17.5772 18.9945C18.1185 18.466 18.9782 18.466 19.5036 19.0105C20.0449 19.5711 20.029 20.484 19.424 20.9644C19.1692 21.1726 19.0896 21.3648 19.1056 21.6691C19.1215 22.0215 19.1215 22.3898 19.1056 22.7422C19.0896 23.1746 18.8508 23.4469 18.5006 23.4308C18.1662 23.4148 17.9433 23.1586 17.9433 22.7422C17.9433 22.534 17.9433 22.3258 17.9433 22.1176Z" fill="#5FD3D1"/>
</g>
<defs>
<clipPath id="clip0_386_27546">
<rect width="37" height="41" fill="white"/>
</clipPath>
</defs>
</svg>
