<svg width="313" height="189" viewBox="0 0 313 189" fill="none" xmlns="http://www.w3.org/2000/svg">
<ellipse cx="156.293" cy="94.1165" rx="146.021" ry="59.9065" transform="rotate(-14.2996 156.293 94.1165)" fill="#DCDCDC"/>
<path d="M108.718 107.645C109.955 106.911 111.1 107.103 112.153 108.223L112.283 108.648C112.817 110.388 112.196 113.483 110.421 117.933C110.294 118.008 109.964 118.898 109.433 120.6L108.359 122.673C108.251 123.024 107.745 123.934 106.841 125.404L106.732 125.469C106.587 125.555 106.492 125.527 106.449 125.386C106.521 125.343 106.545 125.281 106.521 125.2L106.193 125.394C106.054 125.501 106.003 125.615 106.04 125.736C106.113 125.693 106.162 125.712 106.186 125.793C105.866 126.15 105.583 126.665 105.337 127.337L105.228 127.402L105.265 127.523L105.593 127.329L105.658 127.541C105.585 127.585 105.489 127.69 105.368 127.857L104.822 128.181L104.778 128.459L104.523 128.467C104.22 128.742 104.057 129.054 104.035 129.402L103.789 129.441L103.39 129.929L103.564 130.076L103.63 130.289L103.411 130.418C103.362 130.256 103.149 130.263 102.772 130.439C102.585 130.598 102.459 130.888 102.394 131.309L102.968 131.076C102.943 130.924 102.994 130.81 103.121 130.734L103.23 130.669L103.267 130.791C103.263 131.056 103.079 131.297 102.715 131.513C102.588 131.589 102.381 131.616 102.095 131.595C101.828 131.849 101.541 132.067 101.231 132.251L101.269 132.372L101.487 132.243L101.552 132.455C101.479 132.498 101.379 132.594 101.253 132.741C101.136 132.642 101.069 132.563 101.05 132.502C100.796 132.653 100.306 133.16 99.5806 134.021C99.1808 134.33 98.8899 134.539 98.708 134.647C98.5438 134.672 98.4254 134.707 98.3526 134.75C98.3712 134.811 98.3442 134.863 98.2714 134.906L98.0971 134.758L98.0599 134.637C98.0164 134.495 98.3493 134.178 99.0583 133.685L100.846 131.835C102.567 129.593 104.051 127.456 105.299 125.423C105.537 124.588 105.848 124.057 106.23 123.83C109.872 116.143 111.34 111.146 110.632 108.84C110.502 108.415 110.146 108.375 109.564 108.721C109.437 108.797 109.23 108.824 108.944 108.802C108.69 109.097 108.578 109.294 108.609 109.396L108.008 109.645C107.825 110.448 107.514 110.979 107.078 111.238L106.968 111.303L107.003 110.995L106.975 110.904L106.866 110.969L106.348 111.384L106.423 111.627L106.641 111.497L106.706 111.71C106.213 112.696 105.821 113.276 105.53 113.449L105.493 113.327C105.504 113.153 105.79 112.684 106.351 111.92L106.249 111.587L106.14 111.651L104.81 113.625C104.642 114.131 104.199 114.825 103.48 115.706C103.367 116.18 102.958 116.985 102.253 118.121C102.278 118.202 102.04 118.69 101.54 119.585L101.213 119.779L101.169 120.056L101.271 120.39C101.035 120.531 100.726 121.24 100.344 122.519L100.409 122.732L100.736 122.537L100.764 122.628C100.801 122.75 100.702 122.988 100.467 123.343L100.293 123.195C100.438 123.109 100.486 122.985 100.437 122.823L100.191 122.861L100.081 122.926C100.168 123.209 100.103 123.416 99.8842 123.546L99.9866 123.879L100.249 123.472L100.423 123.62C99.083 126.473 98.3399 128.433 98.194 129.5C97.0003 133.461 96.2266 135.917 95.8732 136.868C95.8451 137.268 95.6316 137.693 95.2326 138.146C95.4374 138.813 95.2395 139.325 94.6392 139.682L94.8135 139.829L94.8786 140.042C94.5244 140.85 94.3041 141.674 94.2177 142.515C94.0722 142.601 93.9232 143.132 93.7707 144.108C93.0576 145.99 92.6364 147.316 92.507 148.087C92.4161 148.141 91.7435 150.19 90.4894 154.235C90.362 154.311 90.2483 154.641 90.1483 155.227C89.818 155.973 89.2592 157.692 88.4717 160.384L88.2261 160.529C87.5026 160.624 87.0488 160.547 86.8647 160.298L86.7996 160.085C88.2207 155.463 89.2942 151.741 90.02 148.918C90.5095 147.288 90.9253 146.085 91.2676 145.307C91.3341 144.192 91.5782 143.27 91.9998 142.541C91.9254 142.298 92.1071 141.628 92.5448 140.531C92.4828 140.329 92.717 139.795 93.2474 138.93C93.3288 138.284 93.7207 137.143 94.423 135.506C94.4276 135.24 94.8614 133.99 95.7245 131.756C96.3235 130.132 97.6219 125.846 99.6196 118.896L100.287 117.603L100.506 117.473C100.633 117.397 100.941 117.561 101.431 117.964L101.649 117.834C101.949 117.13 102.172 116.735 102.317 116.648C102.445 116.572 102.604 116.215 102.795 115.575C104.12 113.234 104.837 112.031 104.946 111.966C106.158 110.027 107.415 108.586 108.718 107.645ZM107.091 110.441L107.047 110.718L107.303 110.71L107.412 110.645L107.375 110.524C107.331 110.382 107.237 110.354 107.091 110.441ZM105.23 113.734L105.267 113.856C105.298 113.957 105.136 114.268 104.78 114.791L104.534 114.937L104.432 114.603L105.23 113.734ZM104.2 115.53C104.237 115.651 104.138 115.889 103.903 116.244L103.685 116.374L103.648 116.253C103.604 116.111 103.788 115.87 104.2 115.53ZM103.576 116.439L103.685 116.374L103.778 116.677L103.669 116.742C103.523 116.829 103.429 116.801 103.385 116.659L103.576 116.439ZM103.116 117.465L103.225 117.4C103.275 117.562 103.227 117.686 103.082 117.772L102.972 117.837C102.941 117.665 102.989 117.541 103.116 117.465ZM102.755 118.074L102.891 117.993C102.922 118.094 102.838 118.276 102.639 118.538L102.602 118.416C102.595 118.253 102.646 118.139 102.755 118.074ZM111.218 113.693L111.32 114.027C111.466 113.941 111.517 113.827 111.473 113.685L111.218 113.693ZM102.086 119.26L102.305 119.131L102.342 119.252C102.373 119.353 102.258 119.541 101.998 119.815L101.824 119.667L102.086 119.26ZM110.87 115.084L110.826 115.361L110.863 115.482L110.972 115.417C111.118 115.331 111.169 115.217 111.125 115.075L110.87 115.084ZM101.411 120.845L101.52 120.78L101.548 120.871C101.591 121.013 101.54 121.127 101.395 121.213L101.286 121.278L101.258 121.187C101.233 121.035 101.284 120.921 101.411 120.845ZM101.077 121.546L101.214 121.465L101.251 121.586C101.294 121.728 101.234 121.847 101.071 121.944L100.896 121.797L101.077 121.546ZM110.001 117.824L110.066 118.036C110.571 117.09 110.784 116.486 110.703 116.223L110.594 116.288C110.485 116.353 110.287 116.865 110.001 117.824ZM109.026 119.694L109.156 120.119L109.484 119.925C109.44 119.783 109.52 119.484 109.725 119.028L109.687 118.907L109.578 118.971C109.356 119.367 109.171 119.608 109.026 119.694ZM108.839 120.451L108.904 120.663L109.258 120.453L109.193 120.24L108.839 120.451ZM107.683 122.572C107.794 122.937 107.586 123.275 107.059 123.589C107.169 123.667 107.249 123.787 107.298 123.949C107.407 123.884 107.642 123.493 108.003 122.777L108.112 122.712L108.01 122.378L107.683 122.572ZM105.78 126.572L106.217 126.313C106.26 126.454 106.209 126.568 106.064 126.655C105.918 126.741 105.824 126.714 105.78 126.572ZM126.889 98.0002L127.001 98.3643C126.892 98.4291 126.796 98.6774 126.713 99.1091C126.543 99.1147 126.421 99.139 126.348 99.1823C126.435 99.4655 126.206 99.8406 125.661 100.308C125.736 100.551 125.7 100.715 125.555 100.802L125.446 100.866L125.371 100.624L125.153 100.753L125.483 100.988C124.914 101.588 124.264 102.692 123.531 104.299C122.912 104.667 122.394 105.501 121.975 106.802L122.161 107.408C122.052 107.473 121.932 107.641 121.799 107.91L121.69 107.975L121.653 107.854L121.76 107.36L121.541 107.49C121.432 107.555 121.36 107.741 121.325 108.048L121.4 108.291L121.618 108.162C121.494 108.809 121.387 109.16 121.296 109.214L120.713 109.417L120.896 109.595L121.008 109.959L120.537 110.526L119.954 110.728C119.997 110.87 119.757 111.491 119.234 112.59L119.49 112.582L119.743 112.145C119.895 112.079 119.992 112.116 120.036 112.258C119.598 113.284 119.26 113.867 119.024 114.007L118.949 113.764L118.84 113.829C118.701 113.936 118.653 114.06 118.696 114.201C118.805 114.137 118.952 114.193 119.135 114.371C118.202 117.078 117.523 119.633 117.099 122.037C117.111 122.987 117.017 123.521 116.817 123.64L116.598 123.77C115.709 123.676 115.234 123.528 115.172 123.326C115.149 122.621 115.444 120.916 116.055 118.21L117.222 111.92C117.904 107.833 118.33 105.714 118.5 105.566L118.718 105.436C119.097 105.761 119.451 105.933 119.78 105.953C119.916 106.398 119.789 107.526 119.398 109.337L119.435 109.458C121.815 104.386 124.3 100.566 126.889 98.0002ZM120.891 108.737L120.966 108.979L121.293 108.785C121.244 108.623 121.146 108.585 121 108.672L120.891 108.737ZM120.175 111.028L120.393 110.898L120.43 111.019C120.486 111.201 120.341 111.431 119.996 111.708L119.959 111.586C119.922 111.465 119.993 111.279 120.175 111.028ZM134.971 94.0606L135.19 93.9309C136.459 93.5833 137.277 94.0062 137.643 95.1997C137.637 97.2123 136.763 99.6923 135.022 102.64C134.106 104.14 133.356 105.064 132.774 105.409C131.774 106.004 130.896 105.807 130.142 104.821C130.111 104.648 130.159 104.524 130.286 104.448C130.742 104.464 131.143 104.369 131.489 104.164C132.981 103.278 134.499 100.654 136.043 96.2936L136.001 95.3143L135.964 95.1929L133.93 96.975L133.855 96.7323L133.637 96.862C133.233 97.5084 133.053 97.9024 133.096 98.044L132.841 98.0523L132.513 98.2468C132.345 98.6098 131.97 99.0714 131.389 99.6316C131.414 99.7126 131.294 100.023 131.03 100.563C130.878 100.557 130.72 100.603 130.556 100.701C130.581 100.782 130.582 100.925 130.559 101.13C130.631 101.086 130.68 101.105 130.705 101.186L130.271 101.874L129.616 102.263C129.678 102.466 129.667 102.711 129.584 103C129.043 103.201 128.751 103.231 128.708 103.09C129.677 101.342 130.303 100.157 130.586 99.5351C130.804 99.334 131.455 98.3731 132.54 96.6524C133.211 95.8951 133.67 95.2878 133.917 94.8303L134.971 94.0606ZM130.96 101.178L131.144 101.356L130.891 101.793L130.707 101.615L130.96 101.178ZM128.748 103.64L129.075 103.445L129.112 103.567C128.795 104.496 128.665 105.052 128.721 105.234L128.066 105.623C128.134 105.846 128.099 106.153 127.962 106.546L127.706 106.554C127.506 106.673 127.35 107.148 127.24 107.979C126.884 108.573 126.692 109.07 126.664 109.469L126.739 109.712L127.282 108.958L127.466 109.136C127.318 109.989 127.163 110.464 126.999 110.561C127.043 110.703 126.95 111.523 126.722 113.022C126.675 113.432 126.739 113.92 126.913 114.487C127.136 115.215 127.939 115.168 129.322 114.347C130.977 113.364 133.157 111.495 135.861 108.741L136.769 107.915L136.88 108.279C136.93 108.441 136.882 108.565 136.736 108.652L136.044 108.919C135.774 109.439 135.666 109.79 135.722 109.972L135.759 110.093L135.357 110.045L135.248 110.11C135.354 110.454 134.302 111.652 132.093 113.706C132.167 113.948 131.913 114.243 131.331 114.588L131.294 114.467L130.857 114.726L130.895 114.848L131.113 114.718L131.187 114.961L131.078 115.026L130.495 115.228C130.545 115.39 130.497 115.514 130.351 115.601L130.242 115.666C130.169 115.709 130.121 115.69 130.096 115.609C130.023 115.652 129.999 115.714 130.024 115.795C128.332 116.8 126.846 116.583 125.566 115.143C125.423 114.678 125.3 114.416 125.196 114.358C124.898 113.387 125.479 110.794 126.939 106.579C127.546 105.262 128.004 104.512 128.314 104.328C128.381 104.479 128.479 104.517 128.606 104.441L128.825 104.312L128.495 104.077L128.748 103.64ZM129.948 102.927L130.167 102.797C130.216 102.959 130.168 103.083 130.023 103.17L129.805 103.299C129.773 103.127 129.821 103.002 129.948 102.927ZM129.333 103.866C129.504 103.861 129.625 103.836 129.698 103.793C129.748 103.955 129.7 104.079 129.554 104.165L129.336 104.295L129.299 104.174L129.333 103.866ZM129.336 104.295L129.447 104.659L129.229 104.789L129.192 104.667C129.16 104.495 129.208 104.371 129.336 104.295ZM129.011 104.918L129.229 104.789C129.26 104.89 129.14 105.2 128.869 105.72L128.76 105.785L128.723 105.663C128.686 105.542 128.782 105.294 129.011 104.918ZM128.435 106.408L128.473 106.53C128.504 106.631 128.371 106.901 128.076 107.339L127.967 107.404L127.709 106.983L127.818 106.918C127.89 106.875 127.939 106.894 127.964 106.975C128.151 106.673 128.308 106.484 128.435 106.408ZM127.061 108.659L127.389 108.465L127.463 108.707L127.136 108.902L127.061 108.659ZM147.453 85.4275C147.908 85.1574 148.484 85.3174 149.181 85.9077L149.209 85.9988C149.24 86.0999 149.171 86.2605 149.002 86.4805C148.528 86.6184 148.136 86.7793 147.827 86.9629C145.273 89.2931 143.356 91.9142 142.077 94.8261C141.958 95.2079 141.935 95.5202 142.01 95.763C142.6 95.8664 144.763 95.2395 148.497 93.8824C148.97 93.6014 149.754 93.8416 150.848 94.6029L150.875 94.6939C151.241 95.8874 150.017 98.2409 147.202 101.754C147.106 102.074 146.702 102.685 145.99 103.586L145.815 103.439L146.006 103.325L145.969 103.204L145.778 103.317C145.877 103.641 145.667 104.148 145.148 104.839C145.021 104.915 144.935 104.882 144.892 104.74C144.842 104.579 144.963 104.376 145.253 104.131L145.225 104.04L144.843 104.267L144.592 104.919C144.458 104.903 144.327 104.932 144.2 105.008L144.156 105.285C144.484 105.162 144.669 105.172 144.713 105.313C144.556 105.574 144.396 105.753 144.232 105.85L143.932 106.028C143.877 106.06 143.841 106.046 143.822 105.986L143.659 106.19L143.44 106.213L143.396 106.49L143.587 106.376L143.652 106.589C143.598 106.621 143.516 106.706 143.407 106.842L142.915 107.026L141.846 108.272L141.229 108.889L141.201 108.798C141.23 108.613 141.232 108.48 141.208 108.4C141.091 108.301 141.024 108.222 141.005 108.161C141.24 107.663 142.818 105.518 145.741 101.725C147.316 99.4266 148.121 98.1594 148.156 97.9233C148.953 96.8044 149.319 95.9294 149.254 95.2981C148.439 95.3756 146.912 95.8644 144.672 96.7645C142.339 97.4327 140.955 97.0587 140.521 95.6427C140.347 95.0763 140.721 93.9814 141.643 92.3579C144.043 88.6129 145.979 86.3027 147.453 85.4275ZM145.423 103.528L145.379 103.805L145.679 103.627C145.636 103.485 145.551 103.452 145.423 103.528ZM140.487 108.576L140.842 108.365C140.899 108.762 140.71 109.09 140.273 109.349L140.236 109.228C140.205 109.127 140.289 108.909 140.487 108.576ZM139.509 109.803L139.591 109.754C139.724 109.699 139.81 109.732 139.847 109.853L139.684 110.058L139.537 109.894L139.509 109.803ZM163.351 77.2045L163.569 77.0749C164.839 76.7272 165.657 77.1502 166.023 78.3437C166.016 80.3563 165.142 82.8362 163.401 85.7836C162.485 87.2843 161.736 88.2075 161.154 88.5533C160.153 89.1476 159.276 88.9513 158.521 87.9645C158.49 87.7918 158.538 87.6677 158.665 87.592C159.122 87.6079 159.523 87.5132 159.868 87.3079C161.36 86.4218 162.878 83.7984 164.423 79.4375L164.38 78.4583L164.343 78.3369L162.309 80.119L162.235 79.8762L162.016 80.0059C161.612 80.6523 161.432 81.0464 161.476 81.188L161.22 81.1963L160.893 81.3907C160.724 81.7537 160.35 82.2153 159.769 82.7756C159.794 82.8565 159.674 83.1668 159.409 83.7066C159.257 83.7013 159.099 83.7473 158.935 83.8446C158.96 83.9255 158.961 84.0685 158.938 84.2735C159.011 84.2303 159.059 84.2491 159.084 84.3301L158.65 85.0183L157.995 85.4073C158.057 85.6096 158.047 85.8551 157.963 86.1438C157.423 86.3452 157.131 86.3751 157.087 86.2335C158.057 84.486 158.683 83.3011 158.965 82.6791C159.183 82.4779 159.835 81.517 160.92 79.7963C161.591 79.0391 162.05 78.4317 162.296 77.9742L163.351 77.2045ZM159.34 84.3218L159.523 84.4997L159.27 84.9369L159.087 84.759L159.34 84.3218ZM157.127 86.7839L157.455 86.5894L157.492 86.7108C157.175 87.6404 157.044 88.1962 157.1 88.3783L156.445 88.7673C156.513 88.9898 156.479 89.2974 156.341 89.69L156.085 89.6983C155.885 89.8172 155.73 90.2921 155.619 91.1231C155.264 91.7169 155.072 92.2135 155.044 92.6128L155.118 92.8555L155.661 92.1024L155.845 92.2803C155.698 93.1329 155.542 93.6079 155.379 93.7051C155.422 93.8467 155.33 94.6669 155.101 96.1657C155.055 96.5759 155.118 97.0641 155.292 97.6305C155.516 98.3588 156.318 98.3123 157.701 97.4911C159.357 96.5078 161.536 94.6393 164.24 91.8854L165.148 91.0592L165.26 91.4233C165.309 91.5852 165.261 91.7093 165.116 91.7957L164.424 92.0633C164.153 92.5829 164.045 92.9337 164.101 93.1157L164.138 93.2371L163.737 93.1889L163.627 93.2537C163.733 93.5976 162.681 94.7962 160.472 96.8496C160.547 97.0923 160.293 97.3866 159.711 97.7324L159.673 97.611L159.237 97.8703L159.274 97.9917L159.492 97.862L159.567 98.1048L159.458 98.1696L158.875 98.3724C158.924 98.5342 158.876 98.6584 158.731 98.7448L158.622 98.8096C158.549 98.8528 158.5 98.834 158.475 98.7531C158.402 98.7963 158.378 98.8584 158.403 98.9393C156.711 99.9442 155.225 99.7268 153.945 98.2871C153.802 97.8219 153.679 97.5603 153.575 97.5023C153.278 96.5313 153.859 93.9383 155.319 89.7232C155.926 88.4062 156.384 87.6558 156.693 87.4721C156.761 87.6232 156.858 87.6609 156.986 87.5852L157.204 87.4556L156.874 87.2211L157.127 86.7839ZM158.328 86.0707L158.546 85.9411C158.596 86.1029 158.548 86.227 158.402 86.3135L158.184 86.4431C158.152 86.2705 158.2 86.1464 158.328 86.0707ZM157.713 87.01C157.883 87.0045 158.005 86.9801 158.077 86.9369C158.127 87.0988 158.079 87.2229 157.933 87.3093L157.715 87.439L157.678 87.3176L157.713 87.01ZM157.715 87.439L157.827 87.8031L157.608 87.9328L157.571 87.8114C157.54 87.6388 157.588 87.5146 157.715 87.439ZM157.39 88.0624L157.608 87.9328C157.64 88.0339 157.52 88.3443 157.249 88.8638L157.14 88.9286L157.102 88.8073C157.065 88.6859 157.161 88.4376 157.39 88.0624ZM156.815 89.5521L156.852 89.6734C156.883 89.7746 156.751 90.0445 156.455 90.4831L156.346 90.5479L156.088 90.1273L156.197 90.0624C156.27 90.0192 156.319 90.0381 156.343 90.119C156.53 89.8167 156.687 89.6277 156.815 89.5521ZM155.441 91.8031L155.768 91.6086L155.842 91.8514L155.515 92.0459L155.441 91.8031ZM184.044 36.9703L184.263 36.8406C185.144 36.6997 185.607 36.7 185.65 36.8416L183.308 45.299L180.948 53.6958C180.857 53.8213 180.604 54.6416 180.186 56.1568C180.084 56.3133 179.651 57.7064 178.887 60.336C178.465 61.9024 177.992 63.3428 177.471 64.657L177.489 64.7177C178.218 64.4285 178.855 64.1218 179.401 63.7976L179.591 63.5769C179.755 63.5512 179.919 63.4897 180.083 63.3924L181.528 62.3189C181.619 62.2649 181.746 62.225 181.91 62.1993L182.128 61.9624C182.674 61.7097 183.102 61.4915 183.411 61.3078L183.629 61.0709C183.793 61.0452 183.912 61.0107 183.984 60.9675L184.775 60.3902L184.803 60.4812C184.876 60.438 184.903 60.3861 184.884 60.3254C184.957 60.2822 185.203 60.172 185.622 59.995C185.749 59.9194 186.204 59.6135 186.985 59.0774C187.058 59.0342 187.186 58.9943 187.368 58.9577C187.877 58.5837 188.286 58.3048 188.595 58.1211L189.878 57.3594C190.042 57.2621 190.19 57.15 190.323 57.0231C190.499 56.9664 191.015 56.7198 191.871 56.2834C192.398 55.8986 192.852 55.5927 193.234 55.3658C193.398 55.2686 193.835 55.045 194.545 54.6951L194.735 54.4744C195.172 54.2866 195.491 54.1332 195.691 54.0144C195.782 53.9603 196.164 53.6977 196.836 53.2264L196.864 53.3174C196.991 53.1703 197.091 53.0751 197.164 53.0319C197.328 52.9347 197.764 52.7111 198.474 52.3612C198.547 52.3179 198.574 52.266 198.555 52.2053L199.402 51.8101L201.612 50.4973L202.322 50.1831L202.513 49.9624C203.077 49.6989 203.514 49.4754 203.823 49.2917L204.287 49.0162L204.832 48.5848L205.015 48.6554L205.215 48.4651C205.628 48.2678 205.87 48.1476 205.943 48.1044C206.349 47.8154 206.652 47.6115 206.852 47.4926L207.089 47.4236C207.204 47.3076 207.353 47.1955 207.534 47.0874C207.607 47.0442 207.65 47.0428 207.662 47.0833L208.107 46.7471C208.162 46.7147 208.669 46.4377 209.627 45.9163L210.209 45.4991C212.095 44.4981 213.118 43.9746 213.275 43.9286L213.83 43.5276C215.012 42.8252 216.038 42.2761 216.905 41.8802L217.096 41.6595L217.715 41.4709L217.942 41.2643L218.752 40.855L218.979 40.6484L219.216 40.5795C219.307 40.5254 219.346 40.4782 219.334 40.4377C220.347 39.8839 220.869 39.6576 220.9 39.7587L221.1 39.5684L221.454 39.3577L222.046 39.078C222.051 38.9552 222.118 38.856 222.245 38.7804L222.354 38.7156C222.549 38.7195 222.919 38.5951 223.466 38.3424C223.471 38.2197 223.537 38.1205 223.665 38.0448C223.714 38.1352 223.802 38.1425 223.93 38.0669L224.611 37.5545C225.418 37.1708 225.901 36.9559 226.059 36.9099C226.167 36.7736 226.313 36.6514 226.495 36.5434L226.604 36.4785C226.755 36.4123 226.844 36.4197 226.869 36.5006C226.96 36.4466 226.999 36.3993 226.986 36.3589L227.796 35.9495L228.615 35.4633C228.688 35.4201 228.733 35.4288 228.752 35.4895L228.97 35.2526C229.547 35.0296 229.871 34.8965 229.944 34.8533L229.898 34.7015C230.092 34.7054 230.742 34.4392 231.846 33.9028L231.995 34.3883L231.905 34.6211C231.268 34.9278 230.934 35.0306 230.903 34.9294L230.713 35.1501L230.603 35.2149C230.44 35.3122 230.333 35.2799 230.283 35.1181L229.929 35.3288L230.112 35.3994L229.803 35.7618L229.339 36.0374C229.176 36.1346 229.072 36.1125 229.029 35.9708C228.956 36.0141 228.926 36.0559 228.938 36.0964L228.101 36.5219L226.755 37.393C226.355 37.6307 226.139 37.699 226.108 37.5978L225.563 38.0292L225.345 38.1589C225.163 38.2669 224.999 38.3284 224.853 38.3434C224.593 38.6174 224.227 38.9306 223.754 39.2831C223.723 39.1819 223.635 39.1746 223.489 39.261C223.307 39.3691 223.159 39.4811 223.044 39.5972L221.75 39.8997L221.559 40.1204L221.205 40.3311L221.251 40.4828C221.074 40.4681 220.832 40.5526 220.522 40.7363C220.572 40.8981 219.712 41.5287 217.941 42.6281C217.607 42.7309 217.431 42.7519 217.412 42.6912L216.858 43.0923L216.612 43.2381C216.435 43.1519 216.101 43.2547 215.61 43.5465C215.647 43.6678 215.593 43.7717 215.447 43.8582L214.874 44.1985C214.783 44.2526 214.729 44.2492 214.71 44.1885L214.52 44.4092L213.782 44.7396C213.728 44.772 213.51 44.9374 213.128 45.2358C212.691 45.4237 212.372 45.577 212.172 45.6959L211.982 45.9166C211.909 45.9598 211.638 45.989 211.17 46.0042L211.244 46.2469L211.026 46.3766L211.089 46.16L210.843 46.3059L210.89 46.4576L210.562 46.6521L209.934 46.9177C209.959 46.9986 209.829 47.1713 209.545 47.4359C209.532 47.3955 209.353 47.4064 209.006 47.4687L208.816 47.6894L207.67 48.3701L207.396 48.425L207.343 48.6719L205.077 49.8026L204.641 50.1692C203.112 51.0053 202.133 51.5274 201.702 51.7355L201.502 51.9259C200.337 52.5459 199.703 52.8627 199.6 52.8763C199.309 53.1206 199.046 53.3131 198.809 53.4535C198.482 53.648 198.045 53.8716 197.499 54.1243C196.935 54.5307 196.569 54.8082 196.399 54.9567L195.671 55.3174L194.989 55.7226C194.916 55.7658 194.87 55.7571 194.852 55.6964C194.761 55.7504 194.725 55.8078 194.743 55.8685L194.142 56.1178C193.651 56.4096 193.16 56.737 192.669 57.1003C192.214 57.2989 191.586 57.6359 190.786 58.1114L190.739 57.9596L190.521 58.0893C190.54 58.15 190.519 58.2579 190.459 58.4131L189.858 58.6624C188.931 59.285 188.44 59.6125 188.385 59.6449C188.36 59.564 188.217 59.5533 187.956 59.6128C187.981 59.6938 187.897 59.8395 187.703 60.0501C187.539 60.1473 187.442 60.1454 187.411 60.0442L187.474 59.8277L187.364 59.8925C187.11 60.0438 186.859 60.2767 186.611 60.5912L186.283 60.7856C186.193 60.8397 186.141 60.8465 186.128 60.806L185.929 60.9963L183.964 62.1633L183.917 62.0116L184.6 61.6064L184.444 61.5195L183.653 62.0968L183.08 62.4371L183.145 62.6495L182.681 62.9251C182.609 62.9683 182.566 62.9697 182.554 62.9292L182.327 63.1358C182.169 63.1818 182.053 63.2264 181.981 63.2696L181.891 63.5023L181.29 63.7517L179.216 64.9835C179.161 65.0159 178.93 65.0336 178.523 65.0366L177.949 65.377C177.507 65.6875 177.305 65.9035 177.342 66.0249L177.887 65.5935L178.242 65.3828L178.316 65.6255L177.961 65.8362C177.034 66.3873 176.625 66.8449 176.737 67.209C176.398 68.4867 176.096 69.4312 175.832 70.0424C175.869 70.1638 175.657 70.804 175.195 71.9631C175.026 73.1638 174.777 73.8613 174.45 74.0558C174.292 74.1018 174.176 74.1464 174.104 74.1896L174.15 74.3413C174.369 74.2117 174.493 74.1974 174.524 74.2986C174.555 74.3997 174.191 75.5965 173.432 77.8889C173.5 78.1114 173.297 78.7819 172.823 79.9005C172.742 80.6182 172.617 81.0871 172.448 81.3071L172.311 81.3881L172.432 81.7826L171.936 82.7946C172.009 82.7514 172.055 82.7602 172.073 82.8208C171.983 82.9464 171.708 83.8389 171.249 85.4984C171.031 86.6087 170.725 87.4001 170.332 87.8725L170.095 87.9415L170.142 88.0932C170.378 87.9527 170.512 87.9331 170.543 88.0342L170.126 88.4614L170.281 88.5483L170.309 88.6394L169.845 88.9149L169.892 89.0666C170.075 89.1015 170.178 89.1595 170.203 89.2404C170.132 89.5696 170.018 89.7929 169.86 89.9104L169.614 89.949C169.237 90.9623 169.031 91.7658 168.998 92.3593L168.164 93.2138L167.981 93.1431L167.934 92.9914L168.553 92.6955L168.534 92.6348L168.214 92.538L168.168 92.3863C168.302 91.4217 168.631 89.9707 169.156 88.0332C169.094 87.8309 169.572 85.9563 170.592 82.4092C170.8 81.5444 171.013 81.0472 171.231 80.9175L171.076 80.8306L171.057 80.7699C171.431 80.2368 171.655 79.4941 171.729 78.5417C171.874 78.4552 171.927 78.1726 171.888 77.6938C172.733 75.4701 173.312 73.5003 173.624 71.7842C173.751 71.7086 174.004 71.1998 174.382 70.258C174.603 69.5051 174.795 68.6255 174.96 67.6191L174.823 67.7001C174.387 67.9595 174.129 68.1364 174.05 68.2308C173.62 68.4389 173.268 68.624 172.995 68.7861L172.531 69.0616C171.731 69.537 171.118 69.9246 170.694 70.2244L169.857 70.6499C167.086 72.3436 165.282 73.4747 164.446 74.0432L164.2 74.0818L163.545 74.5781L163.191 74.7888C162.954 74.9292 162.826 74.9691 162.808 74.9084L162.263 75.3398L161.444 75.8261L160.734 76.1402C160.589 76.2982 160.48 76.3987 160.407 76.442L160.379 76.3509C160.306 76.3942 160.279 76.4461 160.298 76.5068L159.67 76.7723L158.06 77.7286C155.349 79.3386 153.876 79.7592 153.64 78.9905C153.513 79.0661 153.384 78.9273 153.254 78.574C155.263 76.4965 157.622 74.2339 160.334 71.7862C162.26 70.1405 163.44 69.0807 163.875 68.6069C163.966 68.5528 164.018 68.546 164.03 68.5865C165.767 66.8856 168.516 64.5593 172.277 61.6077L172.523 61.4618C173.144 61.4519 173.51 61.629 173.621 61.9931C170.005 64.8583 165.604 68.6325 160.416 73.3158C157.705 75.9065 156.286 77.2396 156.159 77.3152L156.177 77.3759C157.088 76.9787 158.607 76.1479 160.736 74.8837L161.664 74.3327C161.845 74.2246 162.006 74.153 162.146 74.1178C162.279 73.9909 162.428 73.8788 162.591 73.7816C162.755 73.6843 162.843 73.6559 162.856 73.6964L163.41 73.2954L166.657 71.3666C166.966 71.1829 167.385 70.8987 167.912 70.5138C167.985 70.4706 168.03 70.4794 168.049 70.54L168.812 69.979L169.877 69.3469C170.04 69.2496 170.204 69.1881 170.368 69.1624C170.441 69.1192 170.468 69.0672 170.45 69.0065C170.868 68.8295 171.105 68.7248 171.16 68.6924C171.287 68.6167 171.896 68.219 172.987 67.4992L173.834 67.104C175.144 66.326 175.749 65.7752 175.65 65.4515C175.915 64.9833 176.429 63.3986 177.192 60.6975C177.45 60.1375 177.596 59.5607 177.629 58.9672C177.884 58.8159 178.072 58.2377 178.194 57.2327C178.697 55.8578 179.007 54.7649 179.124 53.9541C179.342 53.753 179.583 52.9279 179.849 51.479C180.273 50.1986 180.604 49.0335 180.841 47.9839C180.932 47.9299 181.099 47.2809 181.341 46.037C181.456 45.8495 182.114 43.402 183.315 38.6948C183.571 37.7058 183.814 37.131 184.044 36.9703ZM188.183 59.4063L188.202 59.467L188.666 59.1914L188.483 59.1208C188.356 59.2679 188.256 59.3631 188.183 59.4063ZM181.47 63.3934L181.489 63.4541L181.953 63.1785L181.934 63.1179L181.47 63.3934ZM193.504 56.2458L193.523 56.3065L193.987 56.0309L193.968 55.9702L193.504 56.2458ZM173.603 68.1381L173.631 68.2291L174.094 67.9536L174.067 67.8626L173.603 68.1381ZM202.773 50.812L202.801 50.9031L203.511 50.4817L203.483 50.3906L202.773 50.812ZM217.465 42.4443L217.493 42.5354L218.066 42.195L218.02 42.0433C217.905 42.1594 217.72 42.2931 217.465 42.4443ZM221.478 40.2763L221.696 40.1466L222.288 39.8669L222.335 40.0186L221.525 40.428L221.478 40.2763ZM229.383 35.7601C229.433 35.8505 229.53 35.8524 229.676 35.766L229.738 35.5494L229.383 35.7601ZM184.892 63.1905C185.347 62.9203 185.923 63.0804 186.62 63.6707L186.648 63.7617C186.679 63.8629 186.61 64.0235 186.441 64.2435C185.967 64.3814 185.575 64.5422 185.266 64.7259C182.712 67.0561 180.795 69.6771 179.516 72.5891C179.397 72.9709 179.374 73.2832 179.449 73.5259C180.039 73.6293 182.202 73.0025 185.936 71.6453C186.409 71.3644 187.193 71.6046 188.286 72.3659L188.314 72.4569C188.68 73.6504 187.456 76.0038 184.641 79.5172C184.545 79.837 184.141 80.4477 183.428 81.3493L183.254 81.2017L183.445 81.0883L183.408 80.9669L183.217 81.0803C183.316 81.404 183.106 81.9114 182.587 82.6024C182.46 82.678 182.374 82.645 182.331 82.5034C182.281 82.3416 182.402 82.1385 182.692 81.8941L182.664 81.8031L182.282 82.03L182.031 82.6817C181.897 82.6656 181.766 82.6954 181.639 82.7711L181.595 83.0483C181.923 82.9253 182.108 82.9346 182.152 83.0762C181.995 83.3367 181.835 83.5155 181.671 83.6128L181.371 83.791C181.316 83.8235 181.28 83.8093 181.261 83.7486L181.098 83.9531L180.879 83.9755L180.835 84.2528L181.026 84.1393L181.091 84.3517C181.037 84.3841 180.955 84.4685 180.846 84.6048L180.354 84.7893L179.285 86.0345L178.668 86.6521L178.64 86.5611C178.669 86.3763 178.671 86.2434 178.646 86.1625C178.53 86.0641 178.463 85.9846 178.444 85.9239C178.679 85.4259 180.257 83.2806 183.18 79.488C184.755 77.1896 185.56 75.9223 185.595 75.6863C186.392 74.5674 186.758 73.6923 186.693 73.0611C185.878 73.1386 184.351 73.6274 182.111 74.5275C179.778 75.1956 178.394 74.8217 177.96 73.4057C177.786 72.8393 178.16 71.7443 179.082 70.1209C181.482 66.3758 183.418 64.0657 184.892 63.1905ZM182.862 81.291L182.818 81.5683L183.118 81.39C183.075 81.2484 182.99 81.2154 182.862 81.291ZM177.926 86.3391L178.281 86.1284C178.338 86.5249 178.148 86.8528 177.712 87.1121L177.675 86.9908C177.644 86.8896 177.728 86.6724 177.926 86.3391ZM176.948 87.566L177.03 87.5173C177.163 87.4619 177.249 87.4949 177.286 87.6163L177.123 87.8208L176.976 87.657L176.948 87.566Z" fill="black"/>
</svg>
