<svg width="53" height="45" viewBox="0 0 53 45" fill="none" xmlns="http://www.w3.org/2000/svg">
<path d="M51.8958 18.0831H42.5392L30.7226 0.895153C30.3776 0.392688 29.6907 0.266503 29.1872 0.610485C28.6847 0.956641 28.5575 1.64347 28.9025 2.14593L39.8592 18.083H13.1408L24.0976 2.14604C24.4426 1.64357 24.3154 0.956641 23.8129 0.610589C23.3127 0.266606 22.6247 0.392792 22.2775 0.895257L10.4608 18.0831H1.1042C0.493873 18.0831 0 18.577 0 19.1873C0 19.7976 0.493873 20.2915 1.1042 20.2915H2.50508L9.25502 41.5058C9.84164 43.3464 11.5324 44.5832 13.4636 44.5832H39.5365C41.4677 44.5832 43.1586 43.3464 43.7451 41.5046L50.4949 20.2915H51.8959C52.5062 20.2915 53.0001 19.7976 53.0001 19.1873C53 18.577 52.5061 18.0831 51.8958 18.0831ZM41.6402 40.835C41.3469 41.7559 40.5015 42.3748 39.5364 42.3748H13.4636C12.4985 42.3748 11.6531 41.7559 11.3598 40.836L4.82269 20.2914H48.1774L41.6402 40.835Z" fill="#987A60"/>
</svg>
