<svg width="265" height="87" viewBox="0 0 265 87" fill="none" xmlns="http://www.w3.org/2000/svg">
<path d="M55.0845 34.0957C57.1873 34.0957 58.749 35.2244 59.7695 37.4819V38.1313C59.7695 40.7909 57.512 44.3162 52.9971 48.7075C52.7806 48.7075 51.9147 49.6043 50.3994 51.3979L47.9409 53.2534C47.6317 53.6245 46.5029 54.4131 44.5547 55.6191H44.3691C44.1217 55.6191 43.998 55.5109 43.998 55.2944C44.1217 55.2944 44.1836 55.2326 44.1836 55.1089H43.627C43.3796 55.1398 43.2559 55.248 43.2559 55.4336C43.3796 55.4336 43.4414 55.4954 43.4414 55.6191C42.8229 55.8356 42.189 56.284 41.5396 56.9644H41.354V57.1499H41.9106V57.4746C41.7869 57.4746 41.6014 57.5365 41.354 57.6602H40.4263L40.2407 57.9849L39.8696 57.7993C39.313 57.923 38.9419 58.2013 38.7563 58.6343L38.3853 58.4951L37.5967 58.8198L37.7822 59.1445V59.4692H37.4111C37.4111 59.2218 37.1019 59.0672 36.4834 59.0054C36.1432 59.0672 35.834 59.3455 35.5557 59.8403L36.4834 59.9795C36.5143 59.763 36.638 59.6548 36.8545 59.6548H37.04V59.8403C36.9163 60.1805 36.5452 60.3506 35.9268 60.3506C35.7103 60.3506 35.401 60.2269 34.999 59.9795C34.5042 60.1032 33.994 60.165 33.4683 60.165V60.3506H33.8394V60.6753C33.7157 60.6753 33.5301 60.7217 33.2827 60.8145C33.159 60.598 33.0972 60.4434 33.0972 60.3506C32.6642 60.3506 31.7365 60.6289 30.314 61.1855C29.6027 61.2783 29.0924 61.3247 28.7832 61.3247C28.5358 61.2319 28.3503 61.1855 28.2266 61.1855C28.2266 61.2783 28.1647 61.3247 28.041 61.3247L27.8555 61V60.8145C27.8555 60.598 28.474 60.4434 29.7109 60.3506L33.0972 59.3301C36.5607 57.7529 39.6377 56.1294 42.3281 54.4595C43.0394 53.5627 43.7197 53.1143 44.3691 53.1143C52.9971 45.9707 57.311 40.6362 57.311 37.1108C57.311 36.4614 56.8162 36.1367 55.8267 36.1367C55.6102 36.1367 55.3009 36.013 54.8989 35.7656C54.4041 35.9512 54.1567 36.1213 54.1567 36.2759L53.1826 36.1367C52.5641 37.0335 51.8838 37.4819 51.1416 37.4819H50.9561L51.1416 37.1108V36.9717H50.9561L50.0283 37.1108V37.4819H50.3994V37.8066C49.2552 38.7035 48.4357 39.1519 47.9409 39.1519V38.9663C48.0337 38.7498 48.6522 38.3633 49.7964 37.8066V37.2964H49.6108L46.8276 38.8271C46.3638 39.3529 45.4206 39.9095 43.998 40.4971C43.627 41.0228 42.6838 41.7495 41.1685 42.6772C41.1685 42.8009 40.6118 43.2493 39.4985 44.0225H38.9419L38.7563 44.3472V44.8574C38.3543 44.8574 37.5967 45.5378 36.4834 46.8984V47.2231H37.04V47.3623C37.04 47.5479 36.7926 47.7798 36.2979 48.0581L36.1123 47.7334C36.3597 47.7334 36.4834 47.6097 36.4834 47.3623L36.1123 47.2231H35.9268C35.9268 47.6561 35.7412 47.8726 35.3701 47.8726V48.3828L35.9268 48.0581L36.1123 48.3828C32.9271 51.0423 30.9943 53.006 30.314 54.2739C26.8504 58.4797 24.6548 61.0618 23.7271 62.0205C23.5106 62.5153 23.0158 62.9019 22.2427 63.1802C22.2427 64.2007 21.7324 64.7109 20.7119 64.7109L20.8975 65.0356V65.3604C20.0316 66.1335 19.3512 67.0303 18.8564 68.0508C18.609 68.0508 18.1606 68.6229 17.5112 69.7671C15.6558 71.6535 14.4652 73.0451 13.9395 73.9419C13.7848 73.9419 11.9139 76.0757 8.32666 80.3433C8.11019 80.3433 7.80094 80.6834 7.39893 81.3638C6.59489 82.075 5.0332 83.8687 2.71387 86.7446H2.29639C1.21403 86.3117 0.59554 85.8633 0.440918 85.3994V85.0747C4.52295 80.1886 7.70817 76.1994 9.99658 73.1069C11.4191 71.3752 12.5479 70.1382 13.3828 69.396C13.9704 68.0044 14.728 66.9993 15.6558 66.3809C15.6558 66.0098 16.2124 65.283 17.3257 64.2007C17.3257 63.8914 17.8978 63.3812 19.042 62.6699C19.444 61.8968 20.5109 60.7217 22.2427 59.1445C22.3664 58.8044 23.5415 57.521 25.7681 55.2944C27.3452 53.6554 31.1025 49.1095 37.04 41.6567L38.5708 40.4971H38.9419C39.1584 40.4971 39.5295 40.9455 40.0552 41.8423H40.4263C41.1685 41.1619 41.6632 40.8218 41.9106 40.8218C42.1271 40.8218 42.5137 40.4816 43.0703 39.8013C46.0081 37.7912 47.5698 36.7861 47.7554 36.7861C50.353 35.209 52.7961 34.3122 55.0845 34.0957ZM51.5127 36.4614L51.3271 36.7861L51.6982 36.9717H51.8838V36.7861C51.8838 36.5697 51.7601 36.4614 51.5127 36.4614ZM47.3843 39.291V39.4766C47.3843 39.6312 47.0132 39.9095 46.271 40.3115H45.8535V39.8013L47.3843 39.291ZM45.1113 40.8218C45.1113 41.0073 44.8639 41.2393 44.3691 41.5176H43.998V41.332C43.998 41.1156 44.3691 40.9455 45.1113 40.8218ZM43.8125 41.5176H43.998V41.9814H43.8125C43.5651 41.9814 43.4414 41.8732 43.4414 41.6567L43.8125 41.5176ZM42.6992 42.4917H42.8848C42.8848 42.7391 42.7611 42.8628 42.5137 42.8628H42.3281C42.359 42.6154 42.4827 42.4917 42.6992 42.4917ZM41.9106 43.002H42.1426C42.1426 43.1566 41.9416 43.3267 41.5396 43.5122V43.3267C41.6014 43.1102 41.7251 43.002 41.9106 43.002ZM56.0122 43.8369V44.3472C56.2596 44.3472 56.3833 44.2389 56.3833 44.0225L56.0122 43.8369ZM40.4263 44.0225H40.7974V44.208C40.7974 44.3626 40.55 44.5173 40.0552 44.6719L39.8696 44.3472L40.4263 44.0225ZM54.8989 45.3677L54.7134 45.6924V45.8779H54.8989C55.1463 45.8779 55.27 45.7697 55.27 45.5532L54.8989 45.3677ZM38.7563 45.5532H38.9419V45.6924C38.9419 45.9089 38.8182 46.0171 38.5708 46.0171H38.3853V45.8779C38.4162 45.6615 38.5399 45.5532 38.7563 45.5532ZM37.9678 46.2026H38.1997V46.3882C38.1997 46.6047 38.0605 46.7129 37.7822 46.7129L37.5967 46.3882L37.9678 46.2026ZM52.4404 48.2437V48.5684C53.5846 47.7334 54.1567 47.1149 54.1567 46.7129H53.9712C53.7856 46.7129 53.2754 47.2231 52.4404 48.2437ZM50.2139 49.9136V50.563H50.7705C50.7705 50.3465 51.0179 50.0218 51.5127 49.5889V49.4033H51.3271C50.8324 49.7435 50.4613 49.9136 50.2139 49.9136ZM49.6108 50.7485V51.0732H50.2139V50.7485H49.6108ZM47.0132 52.604C47.0132 53.1606 46.5648 53.439 45.668 53.439C45.7917 53.6245 45.8535 53.841 45.8535 54.0884C46.0391 54.0884 46.5493 53.7637 47.3843 53.1143H47.5698V52.604H47.0132ZM42.5137 56.3149H43.2559C43.2559 56.5314 43.1322 56.6396 42.8848 56.6396C42.6374 56.6396 42.5137 56.5314 42.5137 56.3149ZM85.4678 35.5801V36.1367C85.2822 36.1367 85.0348 36.3841 84.7256 36.8789C84.4782 36.7552 84.2926 36.6934 84.1689 36.6934C84.1689 37.1263 83.6742 37.4355 82.6846 37.6211C82.6846 37.9922 82.5609 38.1777 82.3135 38.1777H82.1279V37.8066H81.7568L82.1279 38.3633C81.0456 38.7035 79.623 39.6312 77.8604 41.1465C76.8089 41.1465 75.6956 41.8268 74.5205 43.1875V44.1152C74.335 44.1152 74.0876 44.2389 73.7783 44.4863H73.5928V44.3008L73.9639 43.7441H73.5928C73.4072 43.7441 73.2217 43.9297 73.0361 44.3008V44.6719H73.4072C72.9434 45.4141 72.6341 45.7852 72.4795 45.7852L71.5518 45.5996L71.7373 45.9707V46.5273L70.8096 46.8984L69.8818 46.7129C69.8818 46.9294 69.2633 47.5479 68.0264 48.5684L68.3975 48.7539L68.9541 48.3828C69.2015 48.4137 69.3252 48.5374 69.3252 48.7539C68.2428 49.7435 67.5007 50.2383 67.0986 50.2383V49.8672H66.9131C66.6657 49.8981 66.542 50.0218 66.542 50.2383C66.7275 50.2383 66.9131 50.4238 67.0986 50.7949C64.5628 53.5781 62.46 56.3613 60.79 59.1445C60.388 60.3815 60.0169 61 59.6768 61H59.3057C58.0687 60.196 57.4502 59.6393 57.4502 59.3301C57.7285 58.4023 58.9036 56.4232 60.9756 53.3926L65.4287 46.1562C68.2119 41.3939 69.7581 38.9818 70.0674 38.9199H70.4385C70.8405 39.6312 71.2734 40.126 71.7373 40.4043C71.7373 41.0846 71.057 42.4453 69.6963 44.4863V44.6719C75.3555 39.9404 80.6126 36.9098 85.4678 35.5801ZM72.1084 44.8574V45.2285H72.665C72.665 44.9811 72.5413 44.8574 72.2939 44.8574H72.1084ZM70.0674 47.2695H70.4385V47.4551C70.4385 47.7334 70.1292 47.9189 69.5107 48.0117V47.8262C69.5107 47.6406 69.6963 47.4551 70.0674 47.2695ZM98.8271 36.6934H99.1982C101.177 37.2191 102.167 38.3942 102.167 40.2188C101.27 42.8164 98.9199 45.3522 95.1162 47.8262C93.137 49.0632 91.6527 49.6816 90.6631 49.6816C88.9622 49.6816 87.7871 48.7539 87.1377 46.8984C87.1686 46.651 87.2923 46.5273 87.5088 46.5273C88.1582 46.8984 88.7767 47.084 89.3643 47.084C91.9001 47.084 95.2399 44.8574 99.3838 40.4043L99.7549 39.1055V38.9199L96.0439 39.6621V39.291H95.6729C94.807 39.8167 94.374 40.1878 94.374 40.4043L94.0029 40.2188H93.4463C93.0443 40.5589 92.3021 40.8682 91.2197 41.1465C91.2197 41.2702 90.9105 41.5794 90.292 42.0742C90.0755 41.9505 89.8281 41.8887 89.5498 41.8887C89.5498 42.0124 89.488 42.1979 89.3643 42.4453C89.488 42.4453 89.5498 42.5072 89.5498 42.6309L88.6221 43.1875H87.5088C87.5088 43.4967 87.3851 43.806 87.1377 44.1152C86.2718 43.9606 85.8389 43.7751 85.8389 43.5586C88.0036 42.0433 89.4261 40.9919 90.1064 40.4043C90.5085 40.3115 91.8691 39.5693 94.1885 38.1777C95.4873 37.7139 96.415 37.2809 96.9717 36.8789L98.8271 36.6934ZM89.9209 42.8164L90.1064 43.1875L89.5498 43.5586L89.3643 43.1875L89.9209 42.8164ZM85.6533 44.3008H86.21V44.4863C85.3441 45.445 84.9111 46.0635 84.9111 46.3418H83.7979C83.7979 46.682 83.6123 47.0531 83.2412 47.4551L82.8701 47.2695C82.5299 47.2695 82.097 47.7643 81.5713 48.7539C80.7982 49.2487 80.3034 49.7435 80.0869 50.2383V50.6094L81.2002 50.0527L81.3857 50.4238C80.7982 51.4134 80.3652 51.9082 80.0869 51.9082C80.0869 52.1247 79.5921 53.1143 78.6025 54.877C78.3551 55.3717 78.2314 56.0521 78.2314 56.918C78.2314 58.0312 79.4066 58.5879 81.7568 58.5879C84.571 58.5879 88.5293 57.8457 93.6318 56.3613L95.3018 55.9902V56.5469C95.3018 56.7943 95.1781 56.918 94.9307 56.918L93.8174 56.7324C93.1989 57.1963 92.8896 57.5674 92.8896 57.8457V58.0312L92.333 57.6602H92.1475C92.1475 58.1859 90.1064 58.9281 86.0244 59.8867C86.0244 60.2578 85.5296 60.4434 84.54 60.4434V60.2578H83.7979V60.4434H84.1689V60.8145H83.9834L83.0557 60.6289C83.0557 60.8763 82.932 61 82.6846 61H82.499C82.3753 61 82.3135 60.9382 82.3135 60.8145C82.1898 60.8145 82.1279 60.8763 82.1279 61C79.252 61 77.2109 59.5775 76.0049 56.7324C76.0049 56.0212 75.943 55.5882 75.8193 55.4336C75.8193 53.9492 77.7985 51.0423 81.7568 46.7129C83.2103 45.4759 84.1999 44.8574 84.7256 44.8574C84.7565 45.1048 84.8802 45.2285 85.0967 45.2285H85.4678L85.0967 44.6719L85.6533 44.3008ZM87.6943 44.3008H88.0654C88.0654 44.5482 87.9417 44.6719 87.6943 44.6719H87.3232C87.3542 44.4245 87.4779 44.3008 87.6943 44.3008ZM86.3955 45.043C86.6429 45.1667 86.8285 45.2285 86.9521 45.2285C86.9521 45.4759 86.8285 45.5996 86.5811 45.5996H86.21V45.4141L86.3955 45.043ZM86.21 45.5996V46.1562H85.8389V45.9707C85.8698 45.7233 85.9935 45.5996 86.21 45.5996ZM85.4678 46.1562H85.8389C85.8389 46.3109 85.5296 46.6201 84.9111 47.084H84.7256V46.8984C84.7256 46.7129 84.973 46.4655 85.4678 46.1562ZM83.9834 47.6406V47.8262C83.9834 47.9808 83.6742 48.2282 83.0557 48.5684H82.8701L82.6846 47.8262H82.8701C82.9938 47.8262 83.0557 47.888 83.0557 48.0117C83.4577 47.7643 83.7669 47.6406 83.9834 47.6406ZM81.0146 49.4961H81.5713V49.8672H81.0146V49.4961ZM120.583 35.1162C121.356 35.1162 122.113 35.7656 122.855 37.0645V37.2036C122.855 37.3582 122.685 37.5129 122.345 37.6675C121.603 37.4819 120.969 37.3892 120.443 37.3892C115.743 38.4406 111.831 40.3579 108.708 43.1411C108.367 43.5431 108.197 43.9297 108.197 44.3008C109.001 44.8883 112.388 45.7388 118.356 46.8521C119.16 46.8521 120.181 47.7643 121.417 49.5889V49.728C121.417 51.5526 118.619 53.6554 113.021 56.0366C112.743 56.3768 111.893 56.8561 110.47 57.4746L110.285 57.1499H110.609V56.9644H110.285C110.285 57.4591 109.759 57.9539 108.708 58.4487C108.491 58.4487 108.383 58.3405 108.383 58.124C108.383 57.8766 108.646 57.7065 109.171 57.6138V57.4746H108.522L107.873 58.124C107.687 58.0003 107.486 57.9385 107.27 57.9385L107.084 58.2632C107.61 58.356 107.873 58.5106 107.873 58.7271C107.532 58.9435 107.223 59.0518 106.945 59.0518H106.435C106.342 59.0518 106.295 59.0054 106.295 58.9126L105.971 59.0518L105.646 58.9126L105.46 59.2373H105.785V59.562C105.692 59.562 105.538 59.6084 105.321 59.7012L104.533 59.562L102.445 60.3506L101.286 60.6753V60.5361C101.409 60.3197 101.471 60.1496 101.471 60.0259C101.347 59.8094 101.286 59.6548 101.286 59.562C101.842 59.0981 105.058 57.5365 110.934 54.877C114.212 53.1143 115.928 52.0938 116.083 51.8154C117.722 50.9805 118.634 50.13 118.82 49.2642C117.614 48.7384 115.202 48.1973 111.583 47.6406C107.934 46.7129 106.11 45.1667 106.11 43.002C106.11 42.1361 107.13 41.0073 109.171 39.6157C114.274 36.616 118.078 35.1162 120.583 35.1162ZM109.682 56.9644L109.496 57.2891H110.006C110.006 57.0726 109.898 56.9644 109.682 56.9644ZM100.358 59.7012H100.961C100.868 60.2578 100.451 60.5361 99.7085 60.5361V60.3506C99.7085 60.196 99.925 59.9795 100.358 59.7012ZM98.4097 60.5361H98.5488C98.7653 60.5671 98.8735 60.6753 98.8735 60.8608L98.5488 61L98.4097 60.6753V60.5361ZM147.069 36.6934H147.44C149.42 37.2191 150.409 38.3942 150.409 40.2188C149.512 42.8164 147.162 45.3522 143.358 47.8262C141.379 49.0632 139.895 49.6816 138.905 49.6816C137.204 49.6816 136.029 48.7539 135.38 46.8984C135.411 46.651 135.535 46.5273 135.751 46.5273C136.4 46.8984 137.019 47.084 137.606 47.084C140.142 47.084 143.482 44.8574 147.626 40.4043L147.997 39.1055V38.9199L144.286 39.6621V39.291H143.915C143.049 39.8167 142.616 40.1878 142.616 40.4043L142.245 40.2188H141.688C141.286 40.5589 140.544 40.8682 139.462 41.1465C139.462 41.2702 139.153 41.5794 138.534 42.0742C138.318 41.9505 138.07 41.8887 137.792 41.8887C137.792 42.0124 137.73 42.1979 137.606 42.4453C137.73 42.4453 137.792 42.5072 137.792 42.6309L136.864 43.1875H135.751C135.751 43.4967 135.627 43.806 135.38 44.1152C134.514 43.9606 134.081 43.7751 134.081 43.5586C136.246 42.0433 137.668 40.9919 138.349 40.4043C138.751 40.3115 140.111 39.5693 142.431 38.1777C143.729 37.7139 144.657 37.2809 145.214 36.8789L147.069 36.6934ZM138.163 42.8164L138.349 43.1875L137.792 43.5586L137.606 43.1875L138.163 42.8164ZM133.896 44.3008H134.452V44.4863C133.586 45.445 133.153 46.0635 133.153 46.3418H132.04C132.04 46.682 131.854 47.0531 131.483 47.4551L131.112 47.2695C130.772 47.2695 130.339 47.7643 129.813 48.7539C129.04 49.2487 128.546 49.7435 128.329 50.2383V50.6094L129.442 50.0527L129.628 50.4238C129.04 51.4134 128.607 51.9082 128.329 51.9082C128.329 52.1247 127.834 53.1143 126.845 54.877C126.597 55.3717 126.474 56.0521 126.474 56.918C126.474 58.0312 127.649 58.5879 129.999 58.5879C132.813 58.5879 136.771 57.8457 141.874 56.3613L143.544 55.9902V56.5469C143.544 56.7943 143.42 56.918 143.173 56.918L142.06 56.7324C141.441 57.1963 141.132 57.5674 141.132 57.8457V58.0312L140.575 57.6602H140.39C140.39 58.1859 138.349 58.9281 134.267 59.8867C134.267 60.2578 133.772 60.4434 132.782 60.4434V60.2578H132.04V60.4434H132.411V60.8145H132.226L131.298 60.6289C131.298 60.8763 131.174 61 130.927 61H130.741C130.618 61 130.556 60.9382 130.556 60.8145C130.432 60.8145 130.37 60.8763 130.37 61C127.494 61 125.453 59.5775 124.247 56.7324C124.247 56.0212 124.185 55.5882 124.062 55.4336C124.062 53.9492 126.041 51.0423 129.999 46.7129C131.452 45.4759 132.442 44.8574 132.968 44.8574C132.999 45.1048 133.122 45.2285 133.339 45.2285H133.71L133.339 44.6719L133.896 44.3008ZM135.937 44.3008H136.308C136.308 44.5482 136.184 44.6719 135.937 44.6719H135.565C135.596 44.4245 135.72 44.3008 135.937 44.3008ZM134.638 45.043C134.885 45.1667 135.071 45.2285 135.194 45.2285C135.194 45.4759 135.071 45.5996 134.823 45.5996H134.452V45.4141L134.638 45.043ZM134.452 45.5996V46.1562H134.081V45.9707C134.112 45.7233 134.236 45.5996 134.452 45.5996ZM133.71 46.1562H134.081C134.081 46.3109 133.772 46.6201 133.153 47.084H132.968V46.8984C132.968 46.7129 133.215 46.4655 133.71 46.1562ZM132.226 47.6406V47.8262C132.226 47.9808 131.916 48.2282 131.298 48.5684H131.112L130.927 47.8262H131.112C131.236 47.8262 131.298 47.888 131.298 48.0117C131.7 47.7643 132.009 47.6406 132.226 47.6406ZM129.257 49.4961H129.813V49.8672H129.257V49.4961ZM194.569 0.558105H194.94C196.27 1.0529 196.935 1.40853 196.935 1.625L189.838 10.7632L182.741 19.8086C182.555 19.9014 181.828 20.7673 180.561 22.4062C180.344 22.5299 179.107 23.9989 176.85 26.813C175.551 28.5138 174.236 30.0137 172.907 31.3125V31.4053C174.082 31.5908 175.133 31.6836 176.061 31.6836L176.432 31.5444C176.68 31.6372 176.942 31.6836 177.221 31.6836L179.772 31.4053C179.927 31.4053 180.128 31.4517 180.375 31.5444L180.792 31.4053C181.689 31.498 182.401 31.5444 182.926 31.5444L183.344 31.4053C183.591 31.498 183.777 31.5444 183.9 31.5444L185.292 31.4053V31.5444C185.416 31.5444 185.478 31.498 185.478 31.4053C185.601 31.4053 186.003 31.4517 186.684 31.5444C186.9 31.5444 187.689 31.498 189.049 31.4053C189.173 31.4053 189.374 31.4517 189.652 31.5444C190.549 31.4517 191.26 31.4053 191.786 31.4053H193.966C194.245 31.4053 194.507 31.3743 194.755 31.3125C195.033 31.3743 195.884 31.4517 197.306 31.5444C198.234 31.4517 199.022 31.4053 199.672 31.4053C199.95 31.4053 200.677 31.4517 201.852 31.5444L202.223 31.4053C202.934 31.498 203.46 31.5444 203.8 31.5444C203.955 31.5444 204.62 31.498 205.795 31.4053V31.5444C206.042 31.4517 206.228 31.4053 206.352 31.4053C206.63 31.4053 207.357 31.4517 208.532 31.5444C208.655 31.5444 208.717 31.498 208.717 31.4053L210.109 31.5444H213.866L215.026 31.6836L215.397 31.5444C216.325 31.6372 217.051 31.6836 217.577 31.6836H218.366L219.34 31.5444L219.572 31.7764L219.943 31.6836C220.623 31.7454 221.025 31.7764 221.149 31.7764C221.86 31.7145 222.386 31.6836 222.726 31.6836L223.097 31.7764C223.314 31.7145 223.576 31.6836 223.886 31.6836C224.009 31.6836 224.071 31.7145 224.071 31.7764L224.86 31.6836C224.953 31.6836 225.803 31.7145 227.411 31.7764L228.432 31.6836C231.586 31.8382 233.287 31.9465 233.534 32.0083L234.508 31.9155C236.518 31.9155 238.235 31.9928 239.657 32.1475L240.028 32.0083L241.002 32.2402L241.42 32.1475L242.765 32.2402L243.183 32.1475L243.554 32.2402C243.708 32.2402 243.786 32.2093 243.786 32.1475C245.486 32.2093 246.337 32.3175 246.337 32.4722L246.708 32.3794H247.311L248.285 32.4722C248.347 32.3175 248.486 32.2402 248.703 32.2402H248.888C249.167 32.3949 249.754 32.5186 250.651 32.6113C250.713 32.4567 250.852 32.3794 251.068 32.3794C251.099 32.534 251.223 32.6113 251.439 32.6113L252.646 32.4722C253.975 32.5959 254.764 32.6886 255.011 32.7505C255.228 32.6577 255.491 32.6113 255.8 32.6113H255.985C256.233 32.6423 256.356 32.7196 256.356 32.8433C256.511 32.8433 256.588 32.8123 256.588 32.7505L257.934 32.8433H259.325C259.449 32.8433 259.511 32.8896 259.511 32.9824L259.928 32.8433C260.856 32.9979 261.382 33.0752 261.505 33.0752V32.8433C261.784 32.9979 262.835 33.1525 264.66 33.3071V34.0493L264.428 34.2812C263.376 34.1885 262.851 34.0648 262.851 33.9102L262.479 34.0493H262.294C262.016 34.0493 261.876 33.9256 261.876 33.6782H261.273L261.505 33.9102L260.902 34.1421H260.114C259.835 34.1421 259.696 34.0339 259.696 33.8174C259.573 33.8174 259.511 33.8483 259.511 33.9102L258.119 33.8174L255.8 33.9102C255.119 33.9102 254.779 33.8328 254.779 33.6782L253.805 33.8174H253.434C253.125 33.8174 252.862 33.771 252.646 33.6782C252.151 33.8328 251.486 33.9565 250.651 34.0493C250.651 33.8947 250.527 33.8174 250.28 33.8174C249.971 33.8174 249.708 33.8483 249.491 33.9102L247.497 33.3071L247.125 33.4463H246.522V33.6782C246.275 33.5236 245.889 33.4463 245.363 33.4463C245.363 33.6937 243.847 33.8483 240.817 33.9102C240.291 33.7865 240.028 33.6782 240.028 33.5854L239.054 33.6782H238.637C238.42 33.4308 237.895 33.3071 237.06 33.3071C237.06 33.4927 236.936 33.5854 236.688 33.5854H235.714C235.56 33.5854 235.482 33.5391 235.482 33.4463L235.111 33.5854L233.905 33.4463C233.812 33.4463 233.426 33.4927 232.746 33.5854C232.034 33.4927 231.509 33.4463 231.168 33.4463L230.797 33.5854C230.674 33.5854 230.272 33.4154 229.591 33.0752V33.4463H229.22L229.406 33.2144H228.988V33.4463H228.432L227.411 33.3071C227.411 33.4308 227.148 33.5545 226.623 33.6782C226.623 33.6164 226.36 33.4927 225.834 33.3071L225.463 33.4463H223.515L223.097 33.3071L222.912 33.5854L219.154 33.3071L218.366 33.4463C215.799 33.3535 214.16 33.2762 213.449 33.2144L213.078 33.3071C211.129 33.2144 210.078 33.137 209.923 33.0752C209.398 33.168 208.934 33.2144 208.532 33.2144C207.975 33.2144 207.248 33.168 206.352 33.0752C205.362 33.168 204.713 33.2453 204.403 33.3071L203.197 33.2144H202.038C201.914 33.2144 201.852 33.168 201.852 33.0752C201.697 33.0752 201.62 33.1216 201.62 33.2144L200.646 33.0752C199.811 33.0752 198.961 33.1216 198.095 33.2144C197.353 33.1216 196.301 33.0752 194.94 33.0752V32.8433H194.569C194.569 32.936 194.492 33.0597 194.337 33.2144L193.363 33.0752C191.755 33.168 190.905 33.2144 190.812 33.2144C190.812 33.0907 190.611 32.967 190.209 32.8433C190.209 32.967 190.023 33.0907 189.652 33.2144C189.374 33.2144 189.235 33.137 189.235 32.9824L189.42 32.7505H189.235C188.802 32.7505 188.338 32.8587 187.843 33.0752H187.287C187.132 33.0752 187.055 33.0443 187.055 32.9824L186.684 33.0752H183.344V32.8433H184.503L184.318 32.6113L182.926 32.7505H181.952V33.0752H181.164C181.04 33.0752 180.978 33.0443 180.978 32.9824L180.561 33.0752C180.313 33.0133 180.128 32.9824 180.004 32.9824L179.772 33.2144L178.798 33.0752H175.272C175.18 33.0752 174.84 32.9206 174.252 32.6113H173.278C172.505 32.6732 172.118 32.7969 172.118 32.9824L173.092 32.8433H173.695V33.2144H173.092C171.515 33.2144 170.727 33.4927 170.727 34.0493C169.675 35.4409 168.825 36.4305 168.175 37.0181C168.175 37.2036 167.588 37.8685 166.413 39.0127C165.639 40.4352 164.975 41.1465 164.418 41.1465C164.171 41.0846 163.985 41.0537 163.861 41.0537V41.2856C164.232 41.2856 164.418 41.363 164.418 41.5176C164.418 41.6722 163.367 42.9401 161.264 45.3213C161.264 45.6615 160.676 46.3727 159.501 47.4551C159.068 48.321 158.681 48.8312 158.341 48.9858H158.109V49.5889L156.95 50.5166C157.073 50.5166 157.135 50.563 157.135 50.6558C156.95 50.7485 156.161 51.6917 154.77 53.4854C153.965 54.7533 153.177 55.5418 152.404 55.8511L152.033 55.7583V55.9902C152.435 55.9902 152.636 56.0675 152.636 56.2222L151.847 56.4541L152.033 56.686V56.8252H151.244V57.0571C151.492 57.2427 151.615 57.3973 151.615 57.521C151.368 57.8921 151.105 58.0931 150.827 58.124L150.456 57.9849C149.466 59.0054 148.817 59.8867 148.507 60.6289L146.93 61.0928L146.698 60.8608V60.6289L147.719 60.7217V60.6289L147.301 60.2578V60.0259C147.92 58.8817 149.033 57.2581 150.641 55.1553C150.641 54.846 152.156 52.7896 155.187 48.9858C155.867 48.0272 156.393 47.5479 156.764 47.5479L156.579 47.3159V47.2231C157.352 46.8211 158.001 46.0326 158.527 44.8574C158.774 44.8574 158.975 44.5327 159.13 43.8833C161.326 41.6567 163.026 39.5539 164.232 37.5747C164.449 37.5747 165.036 37.1108 165.995 36.1831C166.645 35.3791 167.309 34.3895 167.99 33.2144H167.758C167.016 33.2144 166.567 33.2453 166.413 33.3071C165.701 33.2453 165.114 33.2144 164.65 33.2144H163.861C162.501 33.2144 161.449 33.2453 160.707 33.3071L159.315 33.2144C154.584 33.2762 151.492 33.3535 150.038 33.4463L149.667 33.3071L148.507 33.4463H147.904C147.502 33.4463 147.301 33.3999 147.301 33.3071L146.327 33.4463H144.936L143.776 33.3071C143.498 33.3999 143.297 33.4463 143.173 33.4463V33.3071C143.049 33.3071 142.987 33.3535 142.987 33.4463L141.967 33.3071H139.23C134.622 33.3071 132.318 32.7196 132.318 31.5444C132.102 31.5444 131.978 31.2661 131.947 30.7095C135.751 29.5653 140.142 28.452 145.121 27.3696C148.616 26.7202 150.78 26.2563 151.615 25.978C151.77 25.978 151.847 26.009 151.847 26.0708C155.094 25.2049 160.073 24.3081 166.784 23.3804H167.201C168.098 23.8442 168.546 24.3545 168.546 24.9111C162.083 25.8389 154.089 27.3387 144.564 29.4106C139.524 30.6785 136.895 31.3125 136.679 31.3125V31.4053C138.163 31.5908 140.714 31.6836 144.333 31.6836H145.91C146.219 31.6836 146.482 31.7145 146.698 31.7764C146.946 31.7145 147.208 31.6836 147.487 31.6836C147.765 31.6836 147.904 31.7145 147.904 31.7764L148.878 31.6836H154.398C154.924 31.6836 155.651 31.6372 156.579 31.5444C156.702 31.5444 156.764 31.5908 156.764 31.6836L158.109 31.5444H159.918C160.197 31.5444 160.46 31.5908 160.707 31.6836C160.831 31.6836 160.893 31.6372 160.893 31.5444C161.573 31.6372 161.959 31.6836 162.052 31.6836C162.269 31.6836 163.32 31.6372 165.207 31.5444L166.598 31.6836C168.825 31.6836 169.938 31.4362 169.938 30.9414C170.526 30.5394 171.964 28.8849 174.252 25.978C174.87 25.4523 175.334 24.8184 175.644 24.0762C176.076 24.0762 176.602 23.4731 177.221 22.2671C178.55 20.8755 179.478 19.7004 180.004 18.7417C180.406 18.6489 181.117 17.7676 182.138 16.0977C183.313 14.7679 184.302 13.5155 185.106 12.3403C185.261 12.3403 185.787 11.6291 186.684 10.2065C186.931 10.0519 188.957 7.39242 192.76 2.22803C193.564 1.14567 194.167 0.58903 194.569 0.558105ZM190.626 32.7505V32.8433H191.415L191.183 32.6113C190.936 32.7041 190.75 32.7505 190.626 32.7505ZM179.215 32.7505V32.8433H180.004V32.7505H179.215ZM199.672 32.7505V32.8433H200.46V32.7505H199.672ZM165.81 32.8433V32.9824H166.598V32.8433H165.81ZM215.397 32.8433V32.9824H216.603V32.8433H215.397ZM240.214 33.3071V33.4463H241.188V33.2144C240.972 33.2762 240.647 33.3071 240.214 33.3071ZM246.94 33.5854H247.311L248.285 33.6782V33.9102L246.94 33.8174V33.5854ZM260.299 33.8174C260.33 33.972 260.469 34.0493 260.717 34.0493L260.902 33.8174H260.299ZM184.225 35.1162C184.998 35.1162 185.756 35.7656 186.498 37.0645V37.2036C186.498 37.3582 186.328 37.5129 185.988 37.6675C185.246 37.4819 184.612 37.3892 184.086 37.3892C179.385 38.4406 175.473 40.3579 172.35 43.1411C172.01 43.5431 171.84 43.9297 171.84 44.3008C172.644 44.8883 176.03 45.7388 181.999 46.8521C182.803 46.8521 183.823 47.7643 185.06 49.5889V49.728C185.06 51.5526 182.261 53.6554 176.664 56.0366C176.386 56.3768 175.535 56.8561 174.113 57.4746L173.927 57.1499H174.252V56.9644H173.927C173.927 57.4591 173.402 57.9539 172.35 58.4487C172.134 58.4487 172.025 58.3405 172.025 58.124C172.025 57.8766 172.288 57.7065 172.814 57.6138V57.4746H172.165L171.515 58.124C171.33 58.0003 171.129 57.9385 170.912 57.9385L170.727 58.2632C171.252 58.356 171.515 58.5106 171.515 58.7271C171.175 58.9435 170.866 59.0518 170.587 59.0518H170.077C169.984 59.0518 169.938 59.0054 169.938 58.9126L169.613 59.0518L169.289 58.9126L169.103 59.2373H169.428V59.562C169.335 59.562 169.18 59.6084 168.964 59.7012L168.175 59.562L166.088 60.3506L164.928 60.6753V60.5361C165.052 60.3197 165.114 60.1496 165.114 60.0259C164.99 59.8094 164.928 59.6548 164.928 59.562C165.485 59.0981 168.701 57.5365 174.577 54.877C177.855 53.1143 179.571 52.0938 179.726 51.8154C181.365 50.9805 182.277 50.13 182.462 49.2642C181.256 48.7384 178.844 48.1973 175.226 47.6406C171.577 46.7129 169.752 45.1667 169.752 43.002C169.752 42.1361 170.773 41.0073 172.814 39.6157C177.917 36.616 181.72 35.1162 184.225 35.1162ZM173.324 56.9644L173.139 57.2891H173.649C173.649 57.0726 173.541 56.9644 173.324 56.9644ZM164 59.7012H164.604C164.511 60.2578 164.093 60.5361 163.351 60.5361V60.3506C163.351 60.196 163.568 59.9795 164 59.7012ZM162.052 60.5361H162.191C162.408 60.5671 162.516 60.6753 162.516 60.8608L162.191 61L162.052 60.6753V60.5361Z" fill="black"/>
</svg>
