<svg width="106" height="58" viewBox="0 0 106 58" fill="none" xmlns="http://www.w3.org/2000/svg">
<path d="M75.3521 3.12303C75.5959 3.18834 75.8349 3.27133 76.0788 3.33668L77.2194 3.69883C77.911 3.9407 78.5978 4.2002 79.2578 4.50905C80.0075 4.84196 80.7559 5.23104 81.4233 5.76832C82.015 6.22878 82.5928 6.74176 83.1574 7.25179C82.8616 7.02129 82.5786 6.79478 82.2827 6.56455C81.974 6.33087 81.6781 6.10064 81.3647 5.88463C81.0512 5.66862 80.7378 5.45262 80.3973 5.28591C80.1083 5.133 79.8145 4.99773 79.5206 4.86245L79.5464 4.86935C78.6474 4.47752 77.7167 4.15266 76.7719 3.88056C76.3275 3.74284 75.8783 3.62248 75.4293 3.50216L74.9801 3.3818C74.2651 3.2278 73.5674 3.0598 72.8524 2.9058C72.2013 2.76923 71.5421 2.61155 70.8911 2.47471C70.6218 2.40254 70.33 2.36195 70.0512 2.32512C68.6229 2.11203 67.1994 1.88157 65.7758 1.65108C65.5531 1.61034 65.3256 1.58696 65.0979 1.56385L63.0114 1.34427C61.835 1.21761 60.6716 1.09445 59.4953 0.967794C58.3947 0.918267 57.2893 0.886105 56.1839 0.853944C55.4487 0.826563 54.6957 0.813632 53.9605 0.786252L53.2635 0.76941L53.0569 0.770565C50.8328 0.910188 48.6007 1.02873 46.3766 1.16862C46.3206 1.17227 46.2516 1.17273 46.1781 1.1909C48.9261 1.00008 51.6441 0.99215 54.3259 1.16714C55.1896 1.22867 56.0612 1.31156 56.9202 1.39076C57.2808 1.43085 57.6462 1.45326 58.0021 1.51075C58.5037 1.58863 59.0008 1.68422 59.5024 1.7621L64.0425 2.52572L64.6341 2.62771C64.69 2.62376 64.7287 2.63411 64.7799 2.64783C65.2337 2.75078 65.6828 2.8711 66.1319 2.99146C67.6378 3.37602 69.1262 3.77484 70.6194 4.15599L71.4407 4.37605C71.8546 4.52485 72.2607 4.6523 72.6617 4.79765C74.1219 5.30197 75.5738 5.78544 77.034 6.28977C77.2394 6.34481 77.4527 6.42089 77.6532 6.49357L78.5104 6.83633C80.024 7.44937 81.5281 8.09749 83.0086 8.8337C85.9521 10.3204 88.7992 12.0642 91.4226 14.1817C92.7157 15.1997 93.9776 16.2926 95.2064 17.4591C96.4232 18.6151 97.6132 19.8202 98.7186 21.1352C99.285 21.799 99.8386 22.4881 100.379 23.2021C100.868 23.8422 101.347 24.5176 101.786 25.2391C102.252 25.9792 102.687 26.7694 103.091 27.6068C103.464 28.3671 103.816 29.1593 104.085 30.0047C104.378 30.9128 104.631 31.8672 104.793 32.8539C104.859 33.3243 104.926 33.7947 104.962 34.2759C105.003 34.7397 105.026 35.2172 105.011 35.6849C104.985 36.2439 104.941 36.8168 104.859 37.3795C104.788 37.8511 104.699 38.3365 104.584 38.8149C104.351 39.7898 104.032 40.7229 103.602 41.6073C103.348 42.1365 103.075 42.6434 102.784 43.1234C102.537 43.5289 102.278 43.9311 102.003 44.2913C101.453 45.0113 100.847 45.6791 100.226 46.3047C99.5295 47.0046 98.8135 47.6238 98.0555 48.1941C97.3465 48.7266 96.633 49.2151 95.9168 49.6581C94.3792 50.6231 92.7976 51.4443 91.2106 52.1317C89.5933 52.8303 87.9704 53.395 86.336 53.9001C84.6712 54.416 82.9869 54.8512 81.3037 55.2302C80.499 55.4106 79.6767 55.6053 78.8733 55.7295C77.3656 55.967 75.8709 56.2076 74.3632 56.445C73.7022 56.5509 73.0589 56.6425 72.3979 56.7484C72.2121 56.7741 72.0264 56.7998 71.8281 56.8219C69.2968 57.0301 66.7479 57.2526 64.2167 57.4609C64.1607 57.4648 64.0917 57.4653 64.0358 57.469L63.4543 57.4831L61.3355 57.5378C59.8029 57.5608 58.2782 57.6051 56.7409 57.6458C56.5213 57.6435 56.2972 57.6589 56.0777 57.6566C55.6645 57.6593 55.2431 57.6405 54.8345 57.6254C53.2302 57.5743 51.6261 57.5217 50.0223 57.4676C49.4247 57.4395 48.8352 57.4325 48.2376 57.4044C48.0228 57.3847 47.8034 57.3825 47.5887 57.3625C46.3178 57.2295 45.0388 57.0754 43.7681 56.9423C42.433 56.7921 41.0805 56.6561 39.7455 56.5059C39.5867 56.4823 39.4281 56.4585 39.2566 56.4315C38.7083 56.3224 38.1424 56.2273 37.594 56.118C36.0387 55.8146 34.4659 55.5252 32.9108 55.2216C32.5037 55.1501 32.0882 55.0577 31.6811 54.9865L31.0138 54.8077C29.5336 54.4297 28.0707 54.0378 26.5904 53.6601C25.9745 53.495 25.3668 53.3511 24.7508 53.1861C24.0276 53.0109 23.3056 52.7799 22.5965 52.5523C20.9857 52.0452 19.3846 51.5028 17.8115 50.8552C16.298 50.2421 14.7811 49.5903 13.3099 48.819C12.5514 48.4252 11.8021 48.0043 11.0627 47.5565C10.3926 47.1551 9.7325 46.7268 9.08272 46.2717C8.38831 45.7838 7.71617 45.2641 7.07577 44.6776C6.51093 44.1678 5.95076 43.6406 5.43054 43.0672C4.86022 42.424 4.30745 41.7667 3.80403 41.0283C3.3459 40.3772 2.92269 39.6981 2.54418 38.9553C2.1283 38.1459 1.76519 37.2941 1.48984 36.3717C1.24216 35.5508 1.03437 34.6841 0.904796 33.7818C0.773224 32.7845 0.702332 31.7657 0.735485 30.7184C0.762568 29.7447 0.863134 28.7532 1.04554 27.7646C1.44329 25.6645 2.15494 23.5727 3.12878 21.6835C4.04874 19.893 5.17605 18.2521 6.43568 16.8355C7.69545 15.419 9.05859 14.1808 10.4704 13.0693C11.8823 11.9573 13.3605 10.9575 14.844 10.0913C16.3931 9.18626 17.9781 8.40358 19.5616 7.67734C21.1931 6.92636 22.8186 6.24896 24.4428 5.62775C24.9114 5.47033 25.3717 5.29205 25.8274 5.13118C25.9057 5.0956 25.9794 5.07747 26.0704 5.04534C26.2413 4.98608 26.4119 4.93124 26.5822 4.88083C28.1302 4.39015 29.6734 3.91715 31.2214 3.42648L32.5741 2.99684C32.6525 2.9613 32.7389 2.94658 32.8253 2.93213C33.0414 2.89562 33.2494 2.83827 33.4654 2.80172C35.027 2.46566 36.606 2.1156 38.1805 1.78298C38.6044 1.68908 39.0108 1.6094 39.4349 1.51528C39.5213 1.50082 39.5901 1.50032 39.6766 1.4859C39.9055 1.45281 40.1472 1.42344 40.3761 1.39035C41.9606 1.1735 43.5582 0.960144 45.1427 0.743567L46.3863 0.567676C46.4727 0.552952 46.5544 0.556169 46.6361 0.559118L47.3471 0.523211C48.9068 0.45066 50.484 0.364155 52.0566 0.295055C52.3192 0.289946 52.5867 0.267204 52.8493 0.262363C52.9181 0.261862 53.0047 0.247177 53.0863 0.250394C53.4901 0.283118 53.8858 0.294718 54.2943 0.310037C55.8468 0.367292 57.3815 0.439304 58.9211 0.493377C59.179 0.505941 59.4287 0.497382 59.6692 0.52394C60.2013 0.591314 60.7253 0.637297 61.2574 0.704403C62.6694 0.875249 64.0733 1.02497 65.4852 1.19582C65.7385 1.22609 65.9742 1.27029 66.2227 1.31823C66.9729 1.44375 67.7103 1.56586 68.4606 1.69115C69.1468 1.79981 69.841 1.92901 70.527 2.03763C70.6344 2.04748 70.7545 2.061 70.8571 2.08849C70.9983 2.12632 71.1569 2.14989 71.2981 2.18772C72.5779 2.49274 73.8496 2.77695 75.1292 3.08225C75.2191 3.10632 75.296 3.12694 75.3521 3.12303ZM53.9528 2.76474C53.9961 2.75737 54.0474 2.77113 54.1034 2.76749C47.5407 2.36705 40.8199 3.01827 34.1149 4.84321C34.1151 4.8424 34.1153 4.84159 34.1155 4.8408C34.1118 4.84237 34.1085 4.8415 34.102 4.83976C34.0589 4.84685 34.0109 4.87189 33.9677 4.87925C34.0109 4.87189 34.0412 4.86107 34.0845 4.85371C31.5543 5.57167 29.0213 6.40196 26.5217 7.46735C24.0395 8.51875 21.5871 9.76696 19.1891 11.2745C17.6818 12.2287 16.185 13.2988 14.7623 14.502C14.016 15.132 13.2858 15.804 12.5638 16.497C11.9341 17.1017 11.2871 17.7205 10.6689 18.3848C10.3025 18.7771 9.93149 19.1868 9.58599 19.6036C9.39981 19.8367 9.20896 20.0872 9.02263 20.3202C8.92066 20.4439 8.81884 20.5676 8.72981 20.6944C8.46741 21.058 8.22247 21.4073 7.96481 21.7533C7.52902 22.3531 7.0979 22.9356 6.69586 23.5634C6.96011 22.9365 7.25004 22.3163 7.55285 21.6994C7.67968 21.4315 7.81917 21.1673 7.94601 20.8993C8.12198 20.5504 8.29795 20.2015 8.4868 19.8561C8.92192 19.1048 9.36037 18.3926 9.85824 17.715C10.3514 17.0548 10.8528 16.4157 11.3959 15.8256C11.9661 15.1863 12.5571 14.5712 13.1726 14.0195C13.7354 13.5103 14.3064 13.0218 14.8983 12.5579C16.3804 11.3895 17.9111 10.3472 19.4695 9.40676C21.0826 8.44181 22.6995 7.57876 24.316 6.81979C25.5069 6.26201 26.697 5.75692 27.885 5.30511C27.4946 5.42722 27.0998 5.56624 26.7096 5.68812C26.5577 5.74184 26.4105 5.77788 26.2586 5.83132C26.0332 5.90294 25.8029 5.99219 25.5728 6.08149C24.3317 6.54215 23.089 7.03917 21.8452 7.57233C20.5622 8.12629 19.2782 8.72563 17.9942 9.3699C16.7879 9.97077 15.6107 10.6173 14.4404 11.3412C12.0376 12.8665 9.69692 14.6727 7.57002 16.913C6.46624 18.1073 5.46229 19.4417 4.57599 20.9018C4.24963 21.4612 3.94114 22.0466 3.6527 22.6539C3.37557 23.2773 3.11139 23.9045 2.86793 24.5561C2.64682 25.1759 2.4468 25.82 2.28985 26.4572C2.1343 27.0378 2.02182 27.6115 1.91748 28.2057C1.83549 28.7686 1.7663 29.3347 1.74025 29.8936C1.70433 30.4788 1.69232 31.0552 1.70429 31.6192C1.73774 32.213 1.78398 32.81 1.87826 33.3823C1.97579 33.9933 2.09101 34.5898 2.24116 35.1584C2.41239 35.7513 2.60124 36.33 2.82509 36.8804C3.07602 37.4684 3.34881 38.0262 3.64249 38.5516C4.15546 39.4297 4.70989 40.2395 5.30296 40.977C5.89677 41.7032 6.52182 42.368 7.17589 42.969C7.84204 43.5624 8.51285 44.1385 9.21547 44.6473C9.90522 45.1527 10.6347 45.6122 11.3561 46.0509C12.1497 46.5276 12.9482 46.9866 13.7736 47.3964C14.5348 47.7891 15.3055 48.1463 16.0935 48.4898C17.5978 49.1379 19.1289 49.7368 20.6787 50.2654C21.4521 50.5102 22.2207 50.7727 22.9986 51.0001C23.3788 51.1209 23.7766 51.2275 24.1569 51.348C24.3574 51.4207 24.55 51.4723 24.7553 51.5273L28.0542 52.3547L31.8792 53.3231C32.0589 53.3712 32.2304 53.3983 32.4019 53.4253C32.9502 53.5346 33.5161 53.6297 34.0646 53.7388L38.7443 54.5966C39.1258 54.6613 39.5154 54.7467 39.9099 54.8145C39.9612 54.8283 40.0172 54.8246 40.0686 54.8384C40.2449 54.8478 40.4164 54.8748 40.5926 54.8844C43.083 55.1367 45.5686 55.4067 48.059 55.659C50.0981 55.6962 52.1407 55.7717 54.1751 55.8267C54.7471 55.8479 55.3366 55.8549 55.9084 55.8761C56.072 55.8821 56.2482 55.8917 56.4162 55.8802C57.7856 55.8508 59.1468 55.8008 60.5162 55.7714C61.7605 55.7466 62.9969 55.7005 64.2413 55.6755C64.4478 55.6743 64.6767 55.6415 64.8881 55.6227C65.5652 55.5587 66.2506 55.5162 66.9278 55.4523C68.4631 55.3167 69.981 55.1954 71.5164 55.0597C71.7452 55.0266 71.9647 55.0289 72.1807 54.9927L73.6451 54.7626L78.4271 54.0068C78.8161 53.9411 79.2003 53.8931 79.5939 53.81C81.2372 53.4769 82.877 53.1053 84.523 52.6598C85.5019 52.394 86.4773 52.0895 87.4576 51.7675C88.3642 51.4635 89.2755 51.1417 90.1883 50.7638C92.0088 50.0256 93.8158 49.133 95.5673 48.0368C96.3846 47.5013 97.1892 46.9624 97.9788 46.3251C98.3823 45.9995 98.773 45.6703 99.1604 45.3026C99.451 45.0269 99.739 44.7393 100.024 44.44C100.398 44.0558 100.76 43.6293 101.108 43.165C101.406 42.7732 101.67 42.3534 101.933 41.9336C102.176 41.5343 102.4 41.1082 102.605 40.661C102.763 40.3263 102.896 39.9848 103.029 39.643C103.158 39.2627 103.27 38.8966 103.356 38.5236C103.447 38.133 103.533 37.7601 103.594 37.3799C103.65 37.0177 103.691 36.6571 103.718 36.3005C103.741 35.9064 103.748 35.5178 103.741 35.1372C103.707 34.5434 103.656 33.9637 103.558 33.4092C103.468 32.8195 103.335 32.2369 103.198 31.6721C102.721 29.9599 101.991 28.4249 101.181 26.9819C100.693 26.1345 100.161 25.3504 99.606 24.5982C99.0254 23.8391 98.4322 23.0766 97.8247 22.3668C96.6016 20.9261 95.3071 19.5986 93.9761 18.3554C91.8823 16.4174 89.6808 14.677 87.3617 13.1691C86.179 12.3993 84.9645 11.6968 83.7405 11.0293C82.499 10.3761 81.2435 9.77563 79.9785 9.21023L79.9812 9.21095C79.4789 9.00461 78.9708 8.78323 78.4696 8.57948C78.2352 8.47909 77.9833 8.39265 77.7361 8.28881C77.6125 8.23675 77.4937 8.16703 77.3654 8.13265C77.1601 8.07764 76.9595 8.00523 76.7589 7.93256C75.7898 7.59739 74.8287 7.28334 73.8596 6.94818C72.9884 6.6582 72.1346 6.35397 71.2763 6.06744C70.9393 5.93926 70.5881 5.8641 70.2289 5.76785C68.7229 5.38325 67.2345 4.98443 65.7414 4.60301C65.2874 4.50033 64.8384 4.38001 64.3892 4.25965C64.3252 4.24248 64.2691 4.24639 64.2177 4.23263C64.0334 4.2022 63.8362 4.16801 63.6518 4.13754L59.1119 3.37365C58.6102 3.29604 58.113 3.20072 57.6115 3.12257L57.5216 3.0985C57.1225 3.04811 56.7363 3.00143 56.3325 2.96844C55.5424 2.88873 54.7349 2.82332 53.9528 2.76474ZM80.0304 9.23101C80.0563 9.2437 80.0848 9.25764 80.1148 9.2657L80.0302 9.23097L80.0304 9.23101ZM34.1321 4.82917C34.1321 4.82917 34.1206 4.82608 34.1153 4.84103C34.121 4.83829 34.1266 4.8343 34.1321 4.82917ZM79.9808 9.21113L80.03 9.2312C80.0141 9.22323 79.9977 9.21654 79.981 9.21117L79.9808 9.21113ZM93.8956 18.2966C93.8872 18.2894 93.8787 18.2826 93.8745 18.272L93.8956 18.2966ZM93.9165 18.3208L93.8956 18.2966C93.9039 18.3019 93.911 18.3101 93.9165 18.3208ZM10.6005 18.4606C10.6097 18.4494 10.6193 18.4393 10.6292 18.4307L10.6005 18.4606ZM10.5718 18.4908L10.6005 18.4606C10.5904 18.4722 10.5805 18.4837 10.5718 18.4908ZM4.5455 20.9126C4.53677 20.9197 4.52993 20.9322 4.52316 20.9445L4.5455 20.9126ZM4.52316 20.9445L4.50103 20.9761C4.50938 20.9683 4.51697 20.9574 4.52309 20.9447L4.52316 20.9445ZM3.58092 38.422C3.58906 38.4431 3.60179 38.4466 3.59705 38.4642L3.58092 38.422ZM34.067 4.86797C34.0845 4.85371 34.0845 4.85371 34.0973 4.85716L34.067 4.86797Z" fill="#10B899"/>
</svg>
