<svg width="169" height="12" viewBox="0 0 169 12" fill="none" xmlns="http://www.w3.org/2000/svg">
<path d="M108.64 0C104.172 0 99.5634 8.42135e-06 95.095 0.137696C90.2075 0.275385 85.32 0.275359 80.4326 0.413048C76.5226 0.413048 72.6126 0.688449 68.7026 0.826137C64.793 0.963826 60.7434 1.1015 56.8335 1.23918C54.8785 1.37688 52.7839 1.37689 50.6894 1.51458C48.3154 1.65227 45.8019 1.78994 43.428 1.92762C39.7974 2.203 36.0271 2.34068 32.3964 2.47837C29.7433 2.61606 27.0902 2.75378 24.5766 2.89146C22.7613 3.02915 20.946 3.16682 18.991 3.30451C15.9189 3.57989 12.9865 3.71759 9.91442 4.26835C8.23876 4.54371 6.56309 4.95678 4.8874 5.50753C3.21173 6.05829 1.67568 6.60902 0 7.29746C2.0946 7.57283 6.42341 7.9859 6.42341 7.9859C6.42341 7.9859 10.473 8.12359 12.5676 7.9859C13.8243 7.84821 15.081 7.71055 16.3378 7.71055C17.1757 7.57286 17.8739 7.57286 18.7117 7.57286C20.6667 7.43516 22.4821 7.29749 24.437 7.15981C33.2343 6.60905 42.1713 6.19599 50.9686 5.78292C52.7839 5.64524 54.5992 5.64521 56.4145 5.50753C58.6488 5.36984 60.883 5.36983 63.2569 5.23213C67.865 5.09445 72.4733 4.95677 77.0809 4.81909C80.8517 4.6814 84.6217 4.68139 88.5317 4.68139C92.3018 4.68139 95.9326 4.54369 99.7033 4.54369C103.892 4.54369 107.942 4.40601 112.131 4.54369C114.923 4.54369 117.717 4.54369 120.509 4.54369C120.928 4.54369 121.347 4.54369 121.906 4.54369C123.023 4.54369 124 4.54369 125.118 4.54369C127.771 4.68139 130.563 4.6814 133.217 4.81909C130.983 4.81909 128.748 4.95679 126.514 4.95679C122.464 5.09447 118.415 5.23214 114.505 5.36984C105.568 5.7829 96.6309 6.05826 87.6942 6.60902C79.7343 7.02208 71.6351 7.43514 63.6759 7.9859C59.0677 8.26127 54.3199 8.53666 49.7119 8.81204C47.7569 8.94972 45.8019 8.94974 43.9866 9.08743C41.892 9.22512 39.937 9.50049 37.8424 9.77587C36.0271 10.0512 34.2118 10.4643 32.5361 10.7397C36.7253 11.5658 41.1938 12.1166 45.5226 11.9789C49.5722 11.8412 53.4821 11.7035 57.5316 11.4281C66.4686 10.8774 75.4058 10.4643 84.2033 9.91357C92.1625 9.5005 100.122 9.2251 108.082 8.81204C111.992 8.67435 116.041 8.53667 119.951 8.39899C124.14 8.2613 128.329 8.12359 132.518 8.12359C136.848 8.12359 141.037 7.9859 145.365 7.9859C149.833 7.9859 154.442 7.98593 158.91 7.84825C160.028 7.84825 161.144 7.84823 162.401 7.71055C164.217 7.71055 166.032 7.71055 167.708 7.0221C168.406 6.74674 168.825 6.19598 168.964 5.64522C169.104 4.95679 168.825 4.40601 168.267 3.85525C168.127 3.71756 167.987 3.5799 167.848 3.5799C167.428 3.30452 167.149 3.16685 166.591 3.02915C166.311 2.89147 166.032 2.89145 165.753 2.75377C165.333 2.61607 164.915 2.47837 164.357 2.47837C163.379 2.34068 162.541 2.20301 161.563 2.06533C159.748 1.78995 157.933 1.65227 156.118 1.51458C152.487 1.10151 149.48 1.04913 145.226 0.826137C135.795 0.331856 131.482 0.545453 121.068 0.137696C117.996 0.137696 114.784 0.137696 111.712 0.137696C110.455 8.42135e-06 109.618 0 108.64 0Z" fill="#10B899"/>
</svg>
