<svg width="19" height="17" viewBox="0 0 19 17" fill="none" xmlns="http://www.w3.org/2000/svg">
<path d="M8.62222 0.338703L6.13392 4.9487L0.570038 5.68923C0.319328 5.72229 0.110939 5.88277 0.0326233 6.10308C-0.0456924 6.3234 0.0196724 6.56527 0.201193 6.72685L4.22809 10.3124L3.27757 15.3805C3.23481 15.6088 3.33746 15.8396 3.5424 15.9758C3.74734 16.112 4.01903 16.13 4.24329 16.0222L9.2191 13.6331L14.1957 16.0244C14.4201 16.1317 14.6917 16.1134 14.8964 15.9771C15.1012 15.8409 15.2039 15.6103 15.1614 15.3819L14.2109 10.3168L18.2378 6.73124C18.4193 6.56966 18.4847 6.32779 18.4064 6.10747C18.3281 5.88716 18.1197 5.72668 17.869 5.69362L12.3051 4.94944L9.81677 0.339435C9.70449 0.131697 9.47312 0.00015535 9.21974 1.37502e-07C8.96637 -0.000155075 8.73481 0.131103 8.62222 0.338703Z" fill="#FFCC00"/>
</svg>
