<svg width="36" height="36" viewBox="0 0 36 36" fill="none" xmlns="http://www.w3.org/2000/svg">
<rect width="36" height="36" rx="7" fill="#10B899"/>
<mask id="mask0_751_2034" style="mask-type:alpha" maskUnits="userSpaceOnUse" x="7" y="7" width="22" height="22">
<g clip-path="url(#clip0_751_2034)">
<path d="M28.8532 17.5894C26.8537 15.1533 22.6203 12.3103 18 12.3103C13.3632 12.3103 9.12962 15.1726 7.14682 17.5894C6.95106 17.828 6.95106 18.1716 7.14682 18.4102C9.19377 20.9053 13.437 23.6894 18 23.6894C22.7251 23.6894 26.9405 20.7406 28.8532 18.4103C29.049 18.1716 29.049 17.828 28.8532 17.5894ZM22.3954 17.9998C22.3954 20.4234 20.4236 22.3952 18 22.3952C15.5763 22.3952 13.6046 20.4233 13.6046 17.9998C13.6046 15.5762 15.5763 13.6044 18 13.6044C20.4239 13.6044 22.3954 15.5764 22.3954 17.9998ZM8.52113 18C9.24941 17.243 11.0054 15.6095 13.4705 14.561C11.9235 16.5937 11.9229 19.4042 13.4698 21.4376C11.5955 20.6433 9.85441 19.3882 8.52113 18ZM22.5295 21.4386C24.0765 19.4058 24.0771 16.5954 22.5303 14.562C24.4044 15.3564 26.1456 16.6114 27.4789 17.9996C26.7506 18.7566 24.9946 20.3901 22.5295 21.4386Z" fill="black"/>
<path d="M15.8 18C15.8 19.2131 16.7869 20.2 18 20.2C19.2131 20.2 20.2 19.2131 20.2 18C20.2 16.7869 19.2131 15.8 18 15.8C16.7869 15.8 15.8 16.7869 15.8 18ZM18.9059 18C18.9059 18.4996 18.4995 18.9059 18 18.9059C17.5005 18.9059 17.0942 18.4996 17.0942 18C17.0942 17.5005 17.5005 17.0942 18 17.0942C18.4995 17.0942 18.9059 17.5005 18.9059 18Z" fill="black"/>
<path d="M17.9996 9.80392C18.357 9.80392 18.6467 9.51421 18.6467 9.15686V7.64706C18.6467 7.28971 18.357 7 17.9996 7C17.6422 7 17.3525 7.28971 17.3525 7.64706V9.15686C17.3525 9.51421 17.6422 9.80392 17.9996 9.80392Z" fill="black"/>
<path d="M21.8603 10.6693C22.1705 10.8462 22.5658 10.7383 22.7429 10.4277L23.604 8.91793C23.781 8.60752 23.673 8.21238 23.3625 8.0353C23.052 7.85827 22.657 7.96633 22.4799 8.27683L21.6188 9.78663C21.4418 10.097 21.5499 10.4922 21.8603 10.6693Z" fill="black"/>
<path d="M13.2568 10.428C13.4338 10.7384 13.8289 10.8465 14.1394 10.6695C14.4498 10.4924 14.5579 10.0972 14.3809 9.78683L13.5198 8.27702C13.3427 7.96661 12.9475 7.8585 12.6371 8.03554C12.3267 8.21258 12.2186 8.60776 12.3956 8.91817L13.2568 10.428Z" fill="black"/>
<path d="M17.9996 26.196C17.6422 26.196 17.3525 26.4858 17.3525 26.8431V28.3529C17.3525 28.7103 17.6422 29 17.9996 29C18.357 29 18.6467 28.7103 18.6467 28.3529V26.8431C18.6467 26.4858 18.357 26.196 17.9996 26.196Z" fill="black"/>
<path d="M14.1394 25.3307C13.829 25.1537 13.4338 25.2618 13.2568 25.5722L12.3956 27.082C12.2186 27.3924 12.3267 27.7876 12.6371 27.9646C12.9476 28.1416 13.3427 28.0335 13.5198 27.7231L14.3809 26.2133C14.5579 25.9029 14.4498 25.5077 14.1394 25.3307Z" fill="black"/>
<path d="M22.7429 25.5722C22.5659 25.2617 22.1706 25.1537 21.8603 25.3307C21.5499 25.5077 21.4418 25.9029 21.6188 26.2133L22.4799 27.7231C22.6569 28.0335 23.052 28.1417 23.3625 27.9646C23.6729 27.7876 23.781 27.3924 23.604 27.082L22.7429 25.5722Z" fill="black"/>
</g>
</mask>
<g mask="url(#mask0_751_2034)">
<rect x="7" y="7" width="22" height="22" fill="white"/>
</g>
<defs>
<clipPath id="clip0_751_2034">
<rect width="22" height="22" fill="white" transform="translate(7 7)"/>
</clipPath>
</defs>
</svg>
