<svg xmlns="http://www.w3.org/2000/svg" width="16" height="16" viewBox="0 0 16 16">
    <g fill="none" fill-rule="evenodd">
        <g fill="#000" fill-rule="nonzero">
            <path d="M8.91 3c.866 0 1.55.257 2.05.771.5.515.751 1.12.751 1.815 0 .514-.137.971-.411 1.371-.275.4-.648.672-1.12.814.578.153 1.026.427 1.343.822.318.395.477.869.477 1.421 0 .8-.308 1.498-.924 2.093-.616.595-1.43.893-2.44.893H4V3zm-.448 5.757H6.368v2h1.979c.394 0 .705-.097.931-.293.226-.195.34-.445.34-.75 0-.285-.102-.516-.304-.693-.202-.176-.486-.264-.852-.264zM8.39 5.23H6.368V6.87h1.964c.308 0 .551-.078.73-.235.177-.157.267-.37.267-.636 0-.238-.082-.426-.246-.564-.164-.138-.395-.207-.693-.207z"/>
            <path d="M16 0v16H0V0h16zm-1.5 1.5h-13v13h13v-13z"/>
        </g>
    </g>
</svg>
