<?xml version="1.0" standalone="no"?>
<!DOCTYPE svg PUBLIC "-//W3C//DTD SVG 20010904//EN"
 "http://www.w3.org/TR/2001/REC-SVG-20010904/DTD/svg10.dtd">
<svg version="1.0" xmlns="http://www.w3.org/2000/svg"
 width="700.000000pt" height="700.000000pt" viewBox="0 0 700.000000 700.000000"
 preserveAspectRatio="xMidYMid meet">
<metadata>
Created by potrace 1.11, written by Peter Selinger 2001-2013
</metadata>
<g transform="translate(0.000000,700.000000) scale(0.100000,-0.100000)"
fill="#000000" stroke="none">
<path d="M0 3500 l0 -3500 3500 0 3500 0 0 3500 0 3500 -3500 0 -3500 0 0
-3500z m6340 2841 c4 -1 5 -5638 1 -5676 -1 -11 -5658 -14 -5676 -3 -7 4 -10
965 -9 2835 1 1555 2 2833 3 2838 1 7 953 9 2838 8 1561 0 2840 -1 2843 -2z"/>
<path d="M1750 3501 l0 -2190 1108 3 c609 2 1129 7 1155 10 173 24 370 81 502
148 248 124 469 340 596 582 93 179 137 359 136 566 0 312 -113 562 -343 760
-83 72 -234 152 -361 192 -40 13 -73 25 -73 28 0 4 17 12 38 19 414 148 664
591 607 1077 -26 230 -128 445 -294 626 -169 183 -371 291 -647 344 -80 15
-206 17 -1256 21 l-1168 4 0 -2190z m1945 1206 c142 -5 208 -26 279 -89 72
-63 100 -125 103 -230 3 -116 -21 -189 -87 -261 -52 -57 -103 -87 -190 -114
-48 -14 -117 -17 -532 -18 -322 0 -479 3 -481 10 -2 9 -1 677 2 697 2 13 574
16 906 5z m153 -1552 c145 -28 263 -110 315 -218 32 -65 39 -96 43 -174 8
-216 -138 -392 -372 -449 -59 -15 -137 -17 -556 -19 -337 -1 -488 2 -490 9 -3
10 -2 838 1 859 1 4 223 7 494 7 378 -1 509 -4 565 -15z"/>
</g>
</svg>
