<svg width="28" height="28" viewBox="0 0 28 28" fill="none" xmlns="http://www.w3.org/2000/svg">
<path d="M13.9883 28C7.37109 27.9891 1.58515 23.3406 0.305466 16.8328C-0.733596 11.5609 0.841404 7.05469 4.83359 3.44531C7.03203 1.46562 9.65703 0.39375 12.5992 0.065625C13.0477 0.021875 13.507 0 13.9664 0C14.557 0 15.0164 0.415625 15.0492 0.973437C15.082 1.575 14.7102 2.04531 14.0977 2.08906C13.2773 2.15469 12.457 2.17656 11.6586 2.34063C9.56953 2.77813 7.72109 3.68594 6.13515 5.10781C4.01328 7 2.70078 9.32969 2.26328 12.1188C1.78203 15.225 2.40547 18.1234 4.21015 20.7156C6.14609 23.4828 8.79297 25.2109 12.1398 25.725C15.8258 26.2828 19.107 25.3203 21.907 22.8375C24.007 20.9672 25.2648 18.6266 25.7352 15.8703C25.8336 15.2797 25.8555 14.6781 25.8773 14.0766C25.8992 13.3875 26.3258 12.95 26.9273 12.95C27.5289 12.95 27.9883 13.4094 27.9883 14.0328C27.9883 15.4875 27.7805 16.9203 27.3102 18.2984C25.8664 22.5094 23.0664 25.4516 18.9211 27.0922C17.3461 27.7156 15.6945 27.9891 13.9883 28Z" fill="#5FD3D1"/>
<path d="M6.66078 12.1842C6.68266 11.7467 6.87953 11.4186 7.28422 11.2436C7.69984 11.0576 8.09359 11.1233 8.42172 11.4405C8.79359 11.8014 9.13266 12.1951 9.48266 12.578C10.6092 13.792 11.7358 15.017 12.8514 16.242C13.0155 16.428 13.092 16.417 13.267 16.253C17.3686 12.1514 21.4702 8.06076 25.5717 3.97014C25.878 3.66389 26.2061 3.45607 26.6655 3.54357C27.4311 3.6967 27.7811 4.58264 27.3108 5.20607C27.2452 5.30451 27.1577 5.38107 27.0702 5.46857C22.6952 9.83264 18.3092 14.2076 13.9342 18.5717C13.2998 19.2061 12.7202 19.1951 12.1077 18.528C10.4233 16.7014 8.73891 14.8639 7.05453 13.0373C6.81391 12.7967 6.63891 12.5342 6.66078 12.1842Z" fill="#5FD3D1"/>
</svg>
