<svg width="66" height="63" viewBox="0 0 66 63" fill="none" xmlns="http://www.w3.org/2000/svg">
<path d="M48.1631 53.0407C50.1076 50.7017 52.1642 48.476 54.1835 46.2125C54.4452 45.9107 54.5574 45.6467 54.4079 45.2317C53.9591 43.7227 53.5104 42.2137 53.0991 40.667C52.8747 39.9125 53.0991 39.4221 53.66 39.2335C54.2583 39.0449 54.7444 39.3844 54.9688 40.1389C55.3801 41.5347 55.7914 42.9305 56.1654 44.3263C56.3149 44.8544 56.5393 45.0053 57.1002 45.0431C61.2883 45.2317 65.0277 48.3628 65.9625 52.4748C66.1121 53.1161 65.8503 53.5688 65.2146 53.7574C65.0277 53.7952 64.8407 53.8706 64.6537 53.8706C64.0928 53.9083 63.9059 54.1347 63.9059 54.776C63.9433 58.2089 61.5127 61.2646 58.222 62.0568C54.9314 62.8491 51.4537 61.2269 49.958 58.1335C49.6215 57.4544 49.3223 57.4167 48.724 57.5676C47.6396 57.8694 47.1161 57.5299 46.9665 56.3982C46.8917 55.9077 46.7047 55.8323 46.256 55.8323C39.9365 55.8323 33.5795 55.8323 27.26 55.8323C26.8113 55.8323 26.6617 55.9455 26.5495 56.3982C25.7268 60.0574 22.5484 62.7736 18.9212 62.9245C14.92 63.0754 11.405 60.3592 10.5076 56.3982C10.4328 56.0586 10.3954 55.7568 9.94666 55.7946C8.56309 55.9455 8.00219 55.3796 8.18915 53.7952C8.22655 53.3802 8.26394 52.9652 8.37612 52.588C8.5257 52.0976 8.5257 51.6071 8.45091 51.1167C8.00219 48.0988 8.15176 45.1562 9.49794 42.3646C9.61012 42.1005 9.53533 41.9874 9.34836 41.8365C8.67527 41.2706 8.45091 40.5161 8.45091 39.6107C8.45091 39.0449 8.41352 38.479 8.45091 37.9131C8.4883 37.385 8.37612 37.1586 7.77782 37.1964C6.43165 37.2341 5.12287 37.2341 3.77669 37.1964C1.53306 37.1964 0.074707 35.7251 0.074707 33.4616C0.074707 29.8023 0.074707 26.1431 0.074707 22.4838C0.074707 20.2203 1.57046 18.7491 3.81408 18.7491C7.3291 18.7491 10.8441 18.7491 14.3965 18.7491C16.9019 18.7491 18.2855 20.1449 18.2855 22.7101C18.2855 26.7089 18.2855 30.67 18.2855 34.6688C18.2855 35.1215 18.3977 35.3101 18.8838 35.3101C19.669 35.2724 20.4543 35.3101 21.277 35.3101C22.3988 35.3101 22.3988 35.3101 22.2866 34.2161C22.2866 34.1029 22.2492 33.952 22.2492 33.8389C22.137 30.0287 22.511 26.294 23.7076 22.7101C24.6424 19.8808 26.026 17.3155 28.3818 15.3916C28.8305 15.0143 28.8305 14.8257 28.494 14.373C25.4277 10.6005 26.0634 4.71552 29.8401 1.81073C32.4577 -0.188673 35.3744 -0.528194 38.3285 0.943064C41.32 2.45205 42.8158 4.97959 42.9654 8.33708C43.0028 9.09157 42.6662 9.46881 41.8809 9.46881C41.4696 9.46881 41.3574 9.58199 41.3948 10.0347C41.694 12.864 40.086 15.6179 37.4685 16.7874C37.0197 16.976 36.3093 17.0137 36.1597 17.3532C35.9727 17.7305 36.2719 18.3341 36.3467 18.8622C36.4588 19.7299 36.2719 20.7485 36.6458 21.4652C37.0197 22.2197 37.9546 22.6724 38.6277 23.3137C38.852 23.5401 39.1138 23.6155 39.4503 23.6155C40.8339 23.7287 42.1801 23.8419 43.5637 23.955C44.3863 24.0305 45.1716 23.955 45.9569 23.691C47.9387 22.9742 49.9206 22.3329 51.9399 21.6916C53.3234 21.2389 54.1461 21.8802 54.1461 23.3137C54.1461 24.9359 54.1461 26.5203 54.1461 28.1425C54.1461 28.9724 53.7722 29.3119 52.9495 29.3497C52.8747 29.3497 52.8373 29.3497 52.7625 29.3497C52.0147 29.3497 52.0146 29.3497 52.239 30.1041C52.7251 31.8017 53.2113 33.4994 53.6974 35.197C53.9217 35.9892 53.7348 36.4796 53.1365 36.7059C52.5382 36.8946 52.0894 36.555 51.8651 35.7628C51.4163 34.2538 51.005 32.7449 50.5563 31.1982C50.3693 30.5946 50.3693 29.8023 49.958 29.4628C49.5093 29.0856 48.724 29.3497 48.0883 29.3497C47.303 29.3497 47.303 29.3497 47.5274 30.1419C49.5467 36.6305 49.6588 43.0814 47.4526 49.5323C46.9665 51.0035 46.3682 52.4371 45.8447 53.9461C46.6673 54.0215 47.4152 53.9461 48.1631 53.0407ZM15.1444 44.7035C21.3518 42.5155 28.12 46.6275 29.0175 53.1916C29.0923 53.682 29.2045 53.9083 29.8028 53.9083C34.1778 53.8706 38.5155 53.8706 42.8906 53.9083C43.3767 53.9083 43.6384 53.7952 43.788 53.3047C43.9002 52.8898 44.0872 52.4371 44.3115 52.0598C44.5359 51.5694 44.4985 51.4185 43.9002 51.4185C40.9461 51.4562 38.0294 51.4185 35.0753 51.4185C34.8135 51.4185 34.5518 51.4185 34.29 51.4185C33.0934 51.3431 32.5325 50.8149 32.5325 49.57C32.4951 47.6083 32.5325 45.6844 32.5325 43.7227C32.5325 42.5155 32.5325 42.5155 31.2985 42.5155C29.3166 42.5155 27.2974 42.5155 25.3155 42.5155C25.0537 42.5155 24.792 42.5155 24.5676 42.4401C24.1563 42.2892 23.9693 41.9496 23.9693 41.5347C23.9693 41.082 24.1937 40.7802 24.605 40.667C24.8294 40.5916 25.1285 40.5916 25.3529 40.5916C27.4843 40.5916 29.6532 40.5916 31.7846 40.5916C32.0838 40.5916 32.4951 40.7802 32.4951 40.1766C32.4577 39.3467 32.3455 39.1203 31.7098 39.1203C30.6254 39.1203 29.5036 39.1203 28.4192 39.1203C27.26 39.1203 26.1382 39.0071 25.0911 38.5544C24.6798 38.4035 24.2685 38.2149 24.0067 37.8754C23.558 37.3473 22.9971 37.2718 22.324 37.2718C18.5472 37.3095 14.7705 37.3095 10.9937 37.2718C10.4702 37.2718 10.2458 37.3473 10.3206 37.9508C10.358 38.5167 10.3206 39.0826 10.3206 39.6485C10.3206 40.4407 10.4702 40.5916 11.2554 40.5916C14.1722 40.5916 17.0889 40.5916 20.0056 40.5916C20.2673 40.5916 20.5291 40.5916 20.7909 40.6293C21.277 40.7425 21.5387 41.082 21.5013 41.5724C21.5013 42.0628 21.2396 42.4023 20.7535 42.4778C20.5291 42.5155 20.2673 42.5155 20.043 42.5155C17.388 42.5155 14.7705 42.5155 12.1155 42.5155C11.6294 42.5155 11.405 42.6664 11.1807 43.1191C10.3954 44.779 10.0588 46.5143 10.1336 48.3251C11.5172 46.6652 13.1625 45.4203 15.1444 44.7035ZM36.7954 29.3119C36.571 29.3119 36.3093 29.3497 36.1223 29.1988C35.524 28.7461 35.4492 29.1233 35.337 29.6137C35.1875 30.2173 34.8135 30.8964 34.9257 31.4245C35.0379 31.9526 35.8979 31.9526 36.3841 32.2922C38.3285 33.5371 39.2634 35.3856 39.6747 37.5736C40.086 39.8748 39.8991 42.2514 39.8991 44.5526C39.8991 45.1185 40.0486 45.3449 40.6096 45.5335C42.1053 46.0616 42.928 47.2311 43.1523 48.7778C43.2645 49.3814 43.4889 49.5323 44.0498 49.5323C45.2464 49.4946 45.2464 49.5323 45.6203 48.3628C47.6022 42.1005 47.303 35.9137 45.2464 29.7646C45.1342 29.3874 44.9472 29.3119 44.6107 29.3119C43.2645 29.3119 41.9557 29.3119 40.6096 29.3119C39.3382 29.3119 38.0668 29.3119 36.7954 29.3119ZM26.4747 53.9461C27.073 53.9461 27.1852 53.7952 27.073 53.2293C26.4747 49.7209 23.4832 46.7407 19.9308 46.2125C15.2192 45.4958 10.8815 48.7023 10.1336 53.4179C10.0588 53.9083 10.2084 53.9461 10.6197 53.9461C13.2747 53.9461 15.9297 53.9461 18.622 53.9461C21.2022 53.9083 23.8198 53.9083 26.4747 53.9461ZM34.3648 19.3149C34.3648 17.9568 33.9161 17.0137 32.3829 16.9383C31.9716 16.9005 31.4855 16.7119 31.1115 16.4856C30.588 16.1461 30.2141 16.297 29.7654 16.6365C27.5591 18.4095 26.2877 20.7485 25.4277 23.3514C24.6424 25.7281 24.3059 28.1802 24.1189 30.67C24.0815 31.1604 24.1563 31.3113 24.6798 31.3113C27.2226 31.2736 29.8028 31.3113 32.3455 31.3113C32.7195 31.3113 32.9438 31.2359 33.0186 30.8209C33.2056 29.9155 33.4673 29.0101 33.6917 28.1047C33.7665 27.8029 33.6917 27.652 33.4299 27.4634C32.5699 26.8976 31.7098 26.3317 30.8498 25.7658C30.0271 25.2 29.3914 24.4077 29.1297 23.4269C28.7931 22.1443 29.1671 21.0125 30.1019 20.1071C31.1115 19.2017 32.2707 18.9377 33.5795 19.3904C33.8039 19.4658 34.0656 19.579 34.3648 19.6922C34.3648 19.5413 34.3648 19.4281 34.3648 19.3149ZM37.5059 36.8191C36.8702 34.8574 35.5988 33.5371 33.5047 33.273C32.7943 33.1976 32.0464 33.2353 31.3359 33.2353C29.1297 33.2353 26.9234 33.2353 24.7172 33.2353C24.1937 33.2353 24.0815 33.3862 24.1189 33.9143C24.2685 35.7251 25.2407 36.7437 27.0356 36.97C28.5314 37.1586 30.0271 37.0455 31.5229 37.0832C33.5047 37.1209 34.4022 37.9508 34.4396 39.9502C34.477 41.497 34.477 43.0814 34.477 44.6281C34.477 45.0431 34.5892 45.194 35.0005 45.194C35.8231 45.1562 36.6458 45.1562 37.4311 45.194C37.8798 45.194 38.0294 45.0808 38.0294 44.6281C37.992 43.7604 38.0294 42.855 38.0294 41.9496C37.992 40.252 38.0668 38.5167 37.5059 36.8191ZM2.5053 30.255C2.05658 30.255 1.907 30.3682 1.907 30.8209C1.9444 31.764 1.907 32.6694 1.907 33.6125C1.907 34.6311 2.5427 35.2724 3.55233 35.2724C7.59085 35.2724 11.6668 35.2724 15.7053 35.2724C16.0792 35.2724 16.2288 35.197 16.2288 34.782C16.1914 33.4239 16.1914 32.1035 16.2288 30.7455C16.2288 30.2928 16.0418 30.2173 15.6679 30.2173C13.4617 30.2173 11.2554 30.2173 9.04921 30.2173C6.88037 30.255 4.71153 30.255 2.5053 30.255ZM32.009 9.92151C32.009 9.39336 32.0464 8.86522 32.3455 8.41252C32.7943 7.65803 33.5795 7.50714 34.3648 7.50714C36.3467 7.50714 38.3285 7.50714 40.273 7.50714C40.7965 7.50714 40.8713 7.39396 40.7591 6.90354C40.0486 3.9233 37.3189 1.84845 34.29 2.03708C31.3733 2.18797 28.7931 4.60235 28.494 7.58259C28.1948 10.4497 29.0175 12.9017 31.5603 14.5239C31.6724 14.5994 31.7846 14.6371 32.009 14.7502C32.009 13.0904 32.009 11.5059 32.009 9.92151ZM49.1727 55.4928C50.7059 55.1532 52.2764 54.776 53.8095 54.4365C56.9506 53.7197 60.1291 52.9652 63.2702 52.2485C63.7189 52.1353 63.7937 52.0221 63.6067 51.6071C62.4475 48.8532 59.5308 46.9293 56.5767 46.967C56.2401 46.967 56.0158 47.0802 55.7914 47.3065C53.5478 49.8718 51.2668 52.3993 49.0232 54.9646C48.911 55.0778 48.8362 55.191 48.7614 55.3041C48.7988 55.6814 49.0231 55.5305 49.1727 55.4928ZM15.7053 24.2946C16.1166 24.2946 16.3036 24.1814 16.2662 23.7664C16.2288 23.276 16.2662 22.8233 16.2662 22.3329C16.2288 21.352 15.5931 20.7485 14.5835 20.7485C11.8911 20.7485 9.23618 20.7485 6.54383 20.7485C5.57159 20.7485 4.59935 20.7485 3.66451 20.7485C2.61748 20.7485 1.98179 21.3898 1.9444 22.4461C1.9444 22.861 1.98179 23.3137 1.9444 23.7287C1.907 24.2191 2.09397 24.2946 2.5427 24.2946C4.74893 24.2568 6.95516 24.2946 9.16139 24.2946C11.3302 24.2946 13.5365 24.2568 15.7053 24.2946ZM12.8634 55.87C12.4147 55.87 12.3025 55.9832 12.452 56.4359C13.1999 59.1143 15.7801 61.076 18.5472 61.0383C21.3144 61.0383 23.8571 59.0389 24.5676 56.3982C24.6798 55.9455 24.5676 55.87 24.1563 55.87C22.2492 55.87 20.3795 55.87 18.4724 55.87C16.6028 55.87 14.7331 55.87 12.8634 55.87ZM61.9614 55.1155C61.9988 54.7383 61.9988 54.5119 61.4753 54.6628C58.3342 55.4173 55.1557 56.1341 52.0147 56.8508C51.5285 56.964 51.5285 57.0772 51.7155 57.4922C52.6503 59.2275 54.52 60.3215 56.5393 60.3215C59.456 60.2838 61.8118 57.9826 61.9614 55.1155ZM15.6679 28.3311C16.154 28.3311 16.2662 28.1802 16.2662 27.7275C16.2662 26.2562 16.2662 26.2562 14.8079 26.2562C10.7319 26.2562 6.65601 26.2562 2.58009 26.2562C2.01918 26.2562 1.907 26.4071 1.907 26.9353C1.9444 28.2934 1.9444 28.2934 3.29057 28.2934C5.23505 28.2934 7.17952 28.2934 9.16139 28.2934C11.3302 28.2934 13.4991 28.2934 15.6679 28.3311ZM33.9161 14.9011C33.9161 15.2784 34.0282 15.3916 34.4022 15.3916C37.2815 15.5802 39.7495 12.864 39.3382 9.99696C39.3008 9.61971 39.1512 9.43109 38.7399 9.43109C37.3189 9.46881 35.8979 9.46881 34.477 9.43109C33.9535 9.43109 33.8413 9.61971 33.8787 10.0724C33.9161 10.8646 33.8787 11.6191 33.8787 12.4113C33.9535 13.2413 33.9535 14.0712 33.9161 14.9011ZM40.1982 27.3502C40.4974 27.3502 40.6469 27.2748 40.6843 26.9353C40.7591 25.6904 40.7591 25.6149 39.5251 25.6149C38.5155 25.6149 37.7302 25.2754 37.0197 24.5586C36.0475 23.6155 35.0005 22.7479 33.9535 21.8802C33.6543 21.6161 33.3178 21.352 32.9064 21.2389C32.2707 21.0502 31.7472 21.2389 31.3359 21.7293C30.9246 22.2197 30.8872 22.7856 31.2237 23.3514C31.4855 23.8041 31.8594 24.1059 32.2707 24.37C33.6543 25.2754 35.0753 26.2185 36.4962 27.1239C37.2067 27.5766 37.9546 27.2371 38.5529 27.3502C39.1512 27.3502 39.6747 27.3125 40.1982 27.3502ZM40.8339 49.4946C41.32 49.4946 41.3574 49.3059 41.2452 48.9287C40.9835 47.8724 40.273 47.2311 39.1512 47.1934C37.7302 47.1179 36.2719 47.1934 34.8509 47.1556C34.5518 47.1556 34.4396 47.3065 34.4396 47.5706C34.4396 47.6083 34.4396 47.6083 34.4396 47.6461C34.3648 49.4946 34.3648 49.4946 36.1971 49.4946C36.758 49.4946 37.3563 49.4946 37.9172 49.4946C38.8894 49.4946 39.8617 49.4568 40.8339 49.4946ZM51.6781 27.3502C51.9773 27.3502 52.0894 27.2371 52.0894 26.9353C52.0894 25.9922 52.0894 25.0491 52.0894 24.0682C52.0894 23.7664 52.0146 23.6155 51.6781 23.7287C50.2571 24.2191 48.7988 24.7095 47.3778 25.1622C47.0787 25.2754 47.1161 25.3886 47.2282 25.6149C47.4152 25.9922 47.5274 26.4071 47.4526 26.8221C47.4152 27.2748 47.6022 27.3125 47.9761 27.3125C48.5744 27.2748 49.1727 27.3125 49.771 27.3125C50.3693 27.3502 51.0424 27.3502 51.6781 27.3502ZM44.7603 27.3502C45.0968 27.3502 45.4333 27.3502 45.4707 26.8976C45.5081 26.4826 45.3586 26.1431 44.9472 26.0676C44.2367 25.9544 43.5637 25.9167 42.8532 25.8413C42.6662 25.8035 42.5914 25.9544 42.5914 26.1053C42.5914 26.294 42.5914 26.4449 42.5914 26.6335C42.5166 27.1993 42.741 27.4257 43.3019 27.3502C43.5263 27.3125 43.788 27.3502 44.0124 27.3502C44.2367 27.3502 44.4985 27.3502 44.7603 27.3502Z" fill="white"/>
</svg>
