<svg width="57" height="60" viewBox="0 0 57 60" fill="none" xmlns="http://www.w3.org/2000/svg">
<path d="M28.5235 60.0001C19.6511 60.0001 10.8022 60.0001 1.92981 60.0001C1.81214 60.0001 1.69447 60.0001 1.5768 60.0001C0.541288 60.0001 0 59.6016 0 58.8516C0 58.0782 0.517754 57.6563 1.55326 57.6563C2.14162 57.6563 2.72998 57.6329 3.31833 57.6563C3.81255 57.7032 3.90669 57.5157 3.88315 57.0704C3.85962 53.8594 3.85962 50.6719 3.88315 47.461C3.88315 45.1876 5.15401 43.9454 7.41329 43.9454C9.10776 43.9454 10.7787 43.9454 12.4732 43.9454C14.6854 43.9454 15.9798 45.211 15.9798 47.4376C15.9798 50.6251 16.0033 53.8126 15.9798 56.9766C15.9798 57.4923 16.0739 57.6797 16.6387 57.6563C18.4038 57.6094 20.1689 57.6094 21.9339 57.6563C22.4282 57.6563 22.5458 57.5157 22.5458 57.0469C22.5223 50.5547 22.5223 44.086 22.5458 37.5938C22.5458 35.8126 23.4401 34.5704 24.9934 34.1954C25.1817 34.1485 25.3699 34.1016 25.5818 34.1016C27.6057 34.1016 29.6296 34.0548 31.6301 34.1016C33.2539 34.1485 34.5012 35.4141 34.6189 37.0079C34.6424 37.2657 34.6424 37.5235 34.6424 37.7579C34.6424 44.1563 34.6424 50.5782 34.6189 56.9766C34.6189 57.5391 34.7836 57.6563 35.3014 57.6329C37.0665 57.6094 38.8315 57.6094 40.5966 57.6329C41.0908 57.6329 41.2085 57.4922 41.2085 57.0001C41.185 47.6954 41.2085 38.3673 41.2085 29.0626C41.2085 26.3204 41.2791 23.6016 41.185 20.8594C41.0908 18.5391 42.6441 17.0157 44.9034 17.1329C46.4566 17.2266 48.0334 17.2032 49.6102 17.1329C51.8695 17.0157 53.3287 18.5157 53.3287 20.8126C53.2816 32.8126 53.3051 44.7891 53.3051 56.7891C53.3051 57.6329 53.3051 57.6329 54.1524 57.6329C54.6936 57.6329 55.2585 57.6094 55.7998 57.6329C56.5764 57.6563 57.0471 58.1485 57.0471 58.8282C57.0235 59.4844 56.5529 59.9297 55.7998 59.9766C55.635 59.9766 55.4467 59.9766 55.282 59.9766C46.339 60.0001 37.4195 60.0001 28.5235 60.0001ZM43.5384 38.8594C43.5384 44.8829 43.5384 50.9297 43.5149 56.9532C43.5149 57.4922 43.609 57.6798 44.1974 57.6798C46.1978 57.6329 48.1982 57.6329 50.1986 57.6798C50.7634 57.6798 50.9046 57.5391 50.9046 56.9766C50.8811 50.8126 50.8811 44.6485 50.8811 38.461C50.8811 32.5548 50.8811 26.6251 50.8811 20.7188C50.8811 19.7579 50.6693 19.5469 49.7044 19.5469C48.057 19.5469 46.4096 19.5469 44.7622 19.5469C43.6796 19.5469 43.5149 19.711 43.5149 20.8126C43.5384 26.836 43.5384 32.836 43.5384 38.8594ZM32.2655 47.3438C32.2655 44.1094 32.2655 40.8516 32.2655 37.6173C32.2655 36.7032 32.0066 36.4454 31.1358 36.4454C29.4414 36.4454 27.7234 36.4454 26.0289 36.4454C25.1817 36.4454 24.8993 36.7266 24.8993 37.5704C24.8993 44.086 24.8993 50.6251 24.8757 57.1407C24.8757 57.6094 25.0169 57.6798 25.4405 57.6798C27.5351 57.6563 29.6296 57.6563 31.7242 57.6798C32.1713 57.6798 32.289 57.5626 32.2655 57.1407C32.2655 53.8594 32.2655 50.6016 32.2655 47.3438ZM13.6028 52.2657C13.6028 50.6251 13.6028 48.9844 13.6028 47.3438C13.6028 46.5469 13.3439 46.2891 12.5438 46.2891C10.7787 46.2891 9.01363 46.2891 7.24855 46.2891C6.51899 46.2891 6.23658 46.5704 6.23658 47.2735C6.23658 50.6016 6.23658 53.9063 6.23658 57.2344C6.23658 57.6094 6.35425 57.6798 6.70727 57.6798C8.84889 57.6563 10.9905 57.6563 13.1086 57.6798C13.5557 57.6798 13.6263 57.5157 13.6263 57.1407C13.6028 55.5001 13.6028 53.8829 13.6028 52.2657Z" fill="white"/>
<path d="M49.1867 2.34379C47.7982 2.34379 46.5038 2.34379 45.2094 2.34379C44.9505 2.34379 44.6916 2.34379 44.4563 2.25004C43.9621 2.06254 43.7032 1.68754 43.6797 1.17192C43.6797 0.656291 43.9385 0.281291 44.4328 0.0937907C44.621 0.0234782 44.8093 4.06913e-05 44.9976 4.06913e-05C47.2804 4.06913e-05 49.5868 -0.0233968 51.8696 4.06913e-05C52.7403 4.06913e-05 53.211 0.421916 53.211 1.26567C53.2346 3.46879 53.2346 5.67192 53.211 7.87504C53.211 8.62504 52.6933 9.09379 52.0579 9.09379C51.4224 9.09379 50.9047 8.62504 50.8811 7.87504C50.8341 6.84379 50.8576 5.81254 50.8576 4.78129C50.8576 4.57035 50.8576 4.35942 50.8576 4.12504C50.5517 4.19535 50.434 4.38285 50.2928 4.52348C46.4332 8.36723 42.5735 12.1875 38.7375 16.0313C37.8196 16.9219 37.3254 16.9454 36.4076 16.0313C35.1838 14.8125 33.96 13.6172 32.7598 12.375C32.4303 12.0469 32.2655 12.0469 31.9361 12.375C25.4406 18.8672 18.9451 25.336 12.4261 31.8047C12.2379 31.9922 12.0261 32.2032 11.8143 32.3438C11.3671 32.6485 10.7317 32.5782 10.3551 32.2032C9.97858 31.8282 9.90798 31.2188 10.2139 30.75C10.3316 30.5625 10.4963 30.375 10.6611 30.211C17.486 23.4141 24.3345 16.5938 31.1594 9.79692C32.0302 8.92973 32.5715 8.90629 33.4422 9.77348C34.7131 11.0391 35.9604 12.2813 37.2313 13.5469C37.4666 13.7813 37.5843 13.8047 37.8432 13.5704C41.538 9.86723 45.2329 6.18754 48.9513 2.50785C49.0455 2.55473 49.069 2.48442 49.1867 2.34379Z" fill="white"/>
<path d="M7.24858 36.7033C6.61316 36.7033 6.0954 36.1642 6.11894 35.5314C6.11894 34.8986 6.66022 34.3829 7.29565 34.3829C7.93107 34.4064 8.44883 34.9454 8.44883 35.5548C8.42529 36.1876 7.88401 36.7033 7.24858 36.7033Z" fill="white"/>
</svg>
