<svg width="59" height="59" viewBox="0 0 59 59" fill="none" xmlns="http://www.w3.org/2000/svg">
<path d="M17.9074 56.3737C17.193 58.2858 15.8562 59.023 13.9434 58.977C10.5555 58.9309 7.19063 58.9539 3.80273 58.9539C1.40586 58.977 0 57.5716 0 55.1757C0 49.1398 0 43.1269 0 37.091C0 34.695 1.40586 33.2897 3.77969 33.2897C7.25977 33.2897 10.7398 33.2897 14.1969 33.2897C15.3723 33.2897 16.3863 33.6353 17.1469 34.5568C17.3313 34.7642 17.4234 34.7411 17.5848 34.5568C19.0598 33.0824 20.5348 31.5849 22.0328 30.1105C22.2633 29.8801 22.1941 29.6728 22.125 29.4424C20.3273 22.7614 18.5527 16.0804 16.7551 9.39945C16.709 9.26123 16.6859 9.14604 16.6629 9.00781C16.4324 8.08629 16.709 7.57946 17.6309 7.32604C20.5809 6.54276 23.5309 5.75947 26.4578 4.95314C27.057 4.79188 27.8637 4.79188 28.2324 4.3772C28.6012 3.96251 28.3246 3.15619 28.3477 2.53417C28.3707 2.14252 28.3477 1.77392 28.3477 1.38227C28.3477 0.414682 28.7625 0 29.7535 0C29.8227 0 29.9148 0 29.984 0C39.1105 0 48.2371 0 57.3406 0C58.6543 0 58.977 0.345568 58.977 1.63569C58.977 20.2042 58.977 38.7727 58.977 57.3182C58.977 58.6544 58.6543 58.977 57.2945 58.977C46.1398 58.977 34.9852 58.9539 23.8305 59C21.8023 59 20.0508 58.4701 18.6219 57.0187C18.4145 56.8114 18.184 56.6271 17.9074 56.3737ZM51.3023 40.0398C52.132 40.155 52.132 40.155 52.132 39.3948C52.132 35.4323 52.132 31.4928 52.132 27.5303C52.132 26.4475 52.5469 25.8946 53.3074 25.8946C54.068 25.9176 54.4367 26.4475 54.4367 27.5072C54.4367 32.0226 54.4367 36.5381 54.4367 41.0305C54.4367 41.376 54.5059 41.6986 54.6902 41.998C55.8656 44.0484 55.0129 46.6056 52.8234 47.5271C52.4086 47.6884 52.4086 47.8497 52.5238 48.2413C53.2383 50.3378 52.0629 52.5955 49.9426 53.2405C49.4816 53.3788 48.9977 53.4018 48.4676 53.4479C48.9285 54.5076 48.8824 55.5674 48.4676 56.6271C51.0258 56.6271 53.5379 56.6041 56.027 56.6501C56.557 56.6501 56.6723 56.5119 56.6723 55.982C56.6492 38.2889 56.6492 20.5959 56.6723 2.87973C56.6723 2.39594 56.5801 2.23467 56.05 2.23467C47.7762 2.25771 39.5023 2.25771 31.2285 2.23467C30.6984 2.23467 30.6063 2.39594 30.6063 2.87973C30.6293 12.9012 30.6062 22.9227 30.6293 32.9442C30.6293 33.451 30.468 34.0961 30.7215 34.3955C31.0211 34.7411 31.6895 34.4416 32.1965 34.5107C32.7496 34.5798 32.8879 34.3955 32.8879 33.8196C32.8648 26.6318 32.8648 19.4209 32.8648 12.2331C32.8648 12.0258 32.8648 11.8184 32.8648 11.6111C32.9109 10.8739 33.3027 10.5053 34.0172 10.4362C35.8379 10.2749 36.898 9.23819 37.0824 7.46427C37.1746 6.54276 37.5664 6.17415 38.5113 6.17415C41.8992 6.17415 45.3102 6.17415 48.698 6.17415C49.666 6.17415 50.0348 6.51972 50.127 7.51035C50.3113 9.21515 51.4176 10.2979 53.123 10.4362C53.9527 10.5053 54.3445 10.8969 54.3445 11.7263C54.3676 13.1777 54.3445 14.6521 54.3445 16.1035C54.3445 16.426 54.2984 16.7255 54.068 16.9559C53.7453 17.3014 53.3305 17.4627 52.8695 17.3014C52.3164 17.1171 52.0629 16.7255 52.0629 16.1726C52.0398 15.182 52.0398 14.1683 52.0629 13.1777C52.0629 12.8091 51.9938 12.6248 51.5789 12.4865C49.8273 11.9106 48.6289 10.7357 48.0758 8.96173C47.9605 8.61617 47.8453 8.47794 47.4535 8.47794C44.8723 8.50098 42.3141 8.50098 39.7328 8.47794C39.3871 8.47794 39.2488 8.57009 39.1336 8.91566C38.5805 10.6896 37.4051 11.8875 35.6535 12.4635C35.2387 12.6017 35.1234 12.786 35.1465 13.1777C35.1695 16.1035 35.1465 19.0062 35.1465 21.9321C35.1465 25.9406 35.1465 29.9492 35.1465 33.9578C35.1465 34.3725 35.2387 34.5338 35.6766 34.5107C36.4141 34.4647 37.1285 34.5107 37.866 34.5107C38.9723 34.5107 40.0785 34.5107 41.277 34.5107C37.359 32.2761 37.4742 28.0832 39.4102 25.8715C41.5766 23.3834 45.3102 23.2683 47.5687 25.6412C48.675 26.793 49.2051 28.1984 49.0898 29.788C48.9516 31.9075 47.8453 33.428 46.0016 34.4877C47.5918 34.4647 49.159 34.3955 50.3574 35.6626C51.648 36.9528 51.9016 38.4041 51.3023 40.0398ZM23.0008 32.4373C21.3184 34.1191 19.7281 35.7087 18.1148 37.2983C17.9535 37.4596 17.9766 37.6439 17.9766 37.8282C17.9766 42.8735 17.9766 47.9188 17.9766 52.9641C17.9766 53.2636 18.0688 53.4479 18.2992 53.6552C19.0367 54.2772 19.7742 54.8993 20.4656 55.5443C21.3184 56.3276 22.2863 56.6732 23.4387 56.6732C30.2836 56.6501 37.1516 56.6732 43.9965 56.6732C44.3191 56.6732 44.6418 56.6962 44.9645 56.6732C45.6789 56.6271 46.2551 56.1433 46.4164 55.4752C46.693 54.3924 45.9555 53.4479 44.757 53.4479C41.9453 53.4248 39.1105 53.4479 36.2988 53.4479C35.4461 53.4479 34.916 53.0102 34.916 52.319C34.893 51.6048 35.4461 51.1441 36.3219 51.1441C37.9582 51.1441 39.5945 51.1441 41.2078 51.1441C43.6738 51.1441 46.1629 51.1441 48.6289 51.1441C49.5047 51.1441 50.1039 50.7524 50.3344 50.0383C50.7031 48.9094 49.8965 47.9188 48.6289 47.9188C44.5957 47.9188 40.5625 47.9188 36.5293 47.9188C36.3219 47.9188 36.0914 47.9418 35.907 47.8957C35.3539 47.8036 35.0312 47.458 34.9391 46.9051C34.8469 46.4213 35.1695 45.9145 35.6535 45.7071C35.907 45.592 36.1836 45.615 36.4371 45.615C40.2859 45.615 44.1578 45.615 48.0066 45.615C49.0898 45.615 50.15 45.638 51.2332 45.615C52.2703 45.592 52.9848 44.7856 52.8695 43.818C52.7773 42.9656 52.0629 42.4127 51.0719 42.4127C46.232 42.4127 41.3922 42.4127 36.5523 42.4127C36.3449 42.4127 36.1375 42.4358 35.9301 42.3897C35.423 42.3206 35.1004 42.0211 34.9621 41.5142C34.8238 41.0305 35.0082 40.6388 35.377 40.3393C35.6535 40.1089 35.9992 40.0859 36.368 40.0859C39.9863 40.0859 43.6277 40.0859 47.2461 40.0859C48.5367 40.0859 49.2742 39.51 49.2973 38.4963C49.3203 37.4826 48.5367 36.8606 47.2461 36.8606C39.9402 36.8606 32.6574 36.8606 25.3516 36.8606C24.4066 36.8606 24.084 36.6072 23.8535 35.7087C23.577 34.649 23.3004 33.5892 23.0008 32.4373ZM15.6719 46.1679C15.6719 43.1499 15.6719 40.132 15.6719 37.1371C15.6719 35.9621 15.3031 35.5935 14.1047 35.5935C13.0215 35.5935 11.9152 35.6166 10.832 35.5705C10.302 35.5474 10.1176 35.6626 10.1406 36.2386C10.1637 40.2702 10.1637 44.3018 10.1637 48.3335C10.1637 48.5178 10.1637 48.7251 10.1637 48.9094C10.1176 49.5545 9.65664 49.9922 9.03438 49.9922C8.38906 49.9922 7.92813 49.5545 7.88203 48.8864C7.85898 48.7021 7.88203 48.4947 7.88203 48.3104C7.88203 44.2558 7.88203 40.2011 7.90508 36.1695C7.90508 35.6857 7.7668 35.5705 7.30586 35.5705C6.15352 35.6166 5.00117 35.5705 3.84883 35.5935C2.76563 35.5935 2.37383 35.9852 2.37383 37.0449C2.37383 43.1039 2.37383 49.1628 2.37383 55.2448C2.37383 56.2815 2.76562 56.6732 3.80273 56.6732C7.30586 56.6732 10.7859 56.6732 14.2891 56.6732C15.3492 56.6732 15.741 56.2815 15.741 55.1987C15.6719 52.2038 15.6719 49.1859 15.6719 46.1679ZM28.2324 34.5568C28.1633 34.3034 28.1172 34.1191 28.0711 33.9118C26.6652 28.7052 25.2594 23.4756 23.8535 18.269C23.577 17.2323 23.7844 16.8407 24.7754 16.4721C26.2043 15.9422 27.057 14.5369 26.8266 13.0625C26.6422 11.8415 26.8035 11.542 27.9559 11.2194C28.2555 11.1273 28.3477 11.0121 28.3477 10.7126C28.3246 9.62983 28.3246 8.57009 28.3477 7.48731C28.3707 6.98048 28.2785 6.84225 27.7254 7.00351C25.075 7.74073 22.4016 8.4549 19.7281 9.14604C19.198 9.28426 19.152 9.4916 19.2902 9.95236C21.2031 16.8868 22.9316 23.8442 24.9367 30.7556C25.2594 31.8844 25.5129 33.0133 25.8125 34.1421C25.8586 34.3495 25.8816 34.5799 26.2273 34.5799C26.8727 34.5338 27.541 34.5568 28.2324 34.5568ZM46.8773 29.4885C46.8773 27.7376 45.4484 26.2862 43.6969 26.2862C41.9223 26.2632 40.4473 27.7376 40.4473 29.4885C40.4473 31.2394 41.8762 32.6907 43.6277 32.6907C45.4023 32.7138 46.8773 31.2394 46.8773 29.4885ZM28.2555 25.7333C28.2785 25.7333 28.2785 25.7333 28.3016 25.7103C28.3016 22.6693 28.3016 19.6052 28.3016 16.4721C27.7484 17.1863 27.1953 17.7852 26.4809 18.1769C26.2043 18.3151 26.2965 18.4994 26.3656 18.7068C26.6652 19.8126 26.9648 20.9184 27.2645 22.0242C27.5871 23.2913 27.9328 24.5123 28.2555 25.7333Z" fill="white"/>
<path d="M53.3074 20.7341C53.9297 20.7341 54.4367 21.2409 54.4367 21.8629C54.4367 22.508 53.9066 23.0379 53.2613 23.0148C52.639 22.9918 52.132 22.4619 52.1551 21.8399C52.1551 21.2409 52.6851 20.7341 53.3074 20.7341Z" fill="white"/>
<path d="M8.96526 54.3694C8.31995 54.3464 7.81291 53.8165 7.83596 53.1714C7.85901 52.5494 8.38909 52.0656 9.01135 52.0656C9.65666 52.0887 10.1637 52.6185 10.1406 53.2636C10.1176 53.8856 9.58752 54.3694 8.96526 54.3694Z" fill="white"/>
</svg>
