<svg width="56" height="56" viewBox="0 0 56 56" fill="none" xmlns="http://www.w3.org/2000/svg">
<path d="M27.9891 55.9999C18.8708 55.9999 9.77431 55.9999 0.655994 56.0218C0.109332 56.0218 0 55.8906 0 55.3656C0.0437329 54.1406 0.0218664 54.1624 1.22452 54.1406C1.72745 54.1406 2.38344 54.3593 2.71144 54.0531C3.0613 53.7249 2.82077 53.0468 2.82077 52.5218C2.82077 47.3156 2.82077 42.0874 2.82077 36.8812C2.82077 35.7218 3.08317 35.4593 4.22023 35.4593C6.99727 35.4593 9.79617 35.4593 12.5732 35.4593C13.7103 35.4593 13.9727 35.7218 13.9727 36.8812C13.9727 42.4374 13.9727 47.9937 13.9727 53.5499C13.9727 54.0093 14.082 54.1406 14.5412 54.1187C15.8532 54.0968 15.8532 54.1187 15.8532 52.8281C15.8532 43.1593 15.8532 33.5124 15.8532 23.8437C15.8532 22.6406 16.0937 22.3999 17.2964 22.3999C20.0734 22.3999 22.8286 22.3999 25.6056 22.3999C26.8083 22.3999 27.0488 22.6406 27.0488 23.8437C27.0488 33.6874 27.0488 43.5312 27.0488 53.3749C27.0488 54.2718 26.9832 54.1187 27.7923 54.1187C28.9075 54.1187 28.9075 54.1187 28.9075 53.0031C28.9075 46.3968 28.9075 39.8124 28.9075 33.2062C28.9075 31.9374 29.148 31.7187 30.4162 31.7187C33.1933 31.7187 35.9485 31.7187 38.7255 31.7187C39.8188 31.7187 40.1031 32.0031 40.1031 33.1187C40.1031 39.9218 40.1031 46.7249 40.1031 53.5062C40.1031 53.9656 40.1906 54.1406 40.6935 54.1187C41.9836 54.0749 41.9836 54.1187 41.9836 52.8499C41.9836 41.9343 41.9836 31.0187 41.9836 20.1031C41.9836 18.8999 42.2241 18.6593 43.4268 18.6593C46.2257 18.6593 49.0465 18.6593 51.8454 18.6593C52.895 18.6593 53.1574 18.9437 53.1792 19.9937C53.1792 31.1281 53.1792 42.2624 53.1792 53.3968C53.1792 54.2062 53.0918 54.0968 53.879 54.0968C54.4693 54.0968 55.0379 54.1187 55.6283 54.0968C55.9125 54.0968 56 54.1843 56 54.4687C56.0656 55.9562 56.0656 55.9562 54.5568 55.9562C45.7009 55.9999 36.845 55.9999 27.9891 55.9999ZM43.8423 37.3406C43.8423 42.7437 43.8423 48.1687 43.8423 53.5718C43.8423 53.9874 43.9297 54.1187 44.367 54.1187C46.4881 54.0968 48.631 54.0968 50.7521 54.1187C51.1894 54.1187 51.2987 54.0093 51.2987 53.5718C51.2768 42.7218 51.2768 31.8937 51.2987 21.0437C51.2987 20.6499 51.2112 20.5187 50.7958 20.5187C48.6747 20.5406 46.5318 20.5406 44.4108 20.5187C43.9516 20.5187 43.8423 20.6281 43.8423 21.0874C43.8641 26.5124 43.8423 31.9374 43.8423 37.3406ZM17.7337 39.1999C17.7337 43.9906 17.7337 48.7812 17.7337 53.5718C17.7337 53.9874 17.7993 54.1406 18.2585 54.1406C20.3795 54.1187 22.5225 54.1187 24.6435 54.1406C25.059 54.1406 25.1902 54.0312 25.1902 53.5937C25.1683 43.9906 25.1683 34.3874 25.1902 24.7843C25.1902 24.3249 25.0371 24.2593 24.6216 24.2593C22.5006 24.2812 20.4014 24.2812 18.2804 24.2593C17.843 24.2593 17.7118 24.3687 17.7118 24.8281C17.7337 29.6187 17.7337 34.4093 17.7337 39.1999ZM38.2663 43.8812C38.2663 40.6437 38.2663 37.3843 38.2663 34.1468C38.2663 33.7312 38.157 33.5781 37.7196 33.5999C35.5767 33.6218 33.4119 33.6218 31.269 33.5999C30.941 33.5999 30.788 33.6656 30.788 34.0593C30.788 40.5999 30.788 47.1406 30.788 53.6812C30.788 54.0312 30.8973 54.1406 31.2472 54.1406C33.4119 54.1187 35.5767 54.1187 37.7415 54.1406C38.1788 54.1406 38.2444 54.0093 38.2444 53.6156C38.2444 50.3562 38.2663 47.1187 38.2663 43.8812ZM4.70129 45.7624C4.70129 48.3656 4.70129 50.9687 4.70129 53.5718C4.70129 53.9874 4.76689 54.1406 5.22608 54.1406C7.369 54.1187 9.53378 54.1187 11.6767 54.1406C12.0484 54.1406 12.1578 54.0531 12.1578 53.6593C12.1359 48.3656 12.1359 43.0937 12.1578 37.7999C12.1578 37.4062 12.0266 37.3187 11.6548 37.3187C9.53378 37.3406 7.39086 37.3406 5.26982 37.3187C4.81062 37.3187 4.67942 37.4281 4.67942 37.8874C4.70129 40.5124 4.70129 43.1374 4.70129 45.7624Z" fill="white"/>
<path d="M8.65915 16.8219C9.20581 16.8219 9.94927 16.9969 10.6271 17.3906C10.8895 17.5438 11.0645 17.5219 11.2831 17.3031C13.273 15.2906 15.2847 13.2781 17.3183 11.2656C17.5588 11.0469 17.5369 10.8719 17.4057 10.6094C15.7657 7.45939 17.9087 3.82814 21.4948 3.74063C24.5123 3.65313 26.8739 6.80314 25.9555 9.69064C25.8024 10.15 25.868 10.3906 26.2616 10.6969C27.7923 11.8344 29.2792 12.9938 30.7661 14.1531C31.0941 14.4156 31.2909 14.4375 31.6408 14.1531C33.084 12.9281 35.052 12.7313 36.7357 13.6281C37.0199 13.7813 37.1949 13.8031 37.4354 13.5406C39.4253 11.5281 41.437 9.51564 43.4487 7.50314C43.6455 7.30626 43.6673 7.15314 43.5361 6.89064C42.574 4.98751 42.7271 3.17189 44.1265 1.57501C45.4385 0.0875096 47.1222 -0.34999 49.0465 0.21876C50.9051 0.765635 52.2827 2.64688 52.2827 4.61563C52.2827 6.60626 50.9489 8.46564 49.0902 9.05626C47.8001 9.47189 46.5756 9.38439 45.3948 8.72814C45.0887 8.55314 44.9137 8.61876 44.6951 8.85939C42.7271 10.85 40.7372 12.8406 38.7474 14.8094C38.485 15.05 38.485 15.2469 38.6381 15.5531C39.4909 17.2156 39.4034 18.8781 38.3101 20.4094C37.173 21.9844 35.5986 22.6406 33.6744 22.2906C31.7501 21.9188 30.5256 20.7156 30.0008 18.8344C29.7821 18.0688 29.804 17.2813 30.0445 16.5156C30.132 16.2313 30.132 16.0344 29.8477 15.8156C28.2078 14.5906 26.5678 13.3219 24.9497 12.0531C24.7091 11.8563 24.5561 11.8563 24.2937 12.0531C22.6974 13.2344 20.9918 13.3875 19.2206 12.4688C18.9364 12.3156 18.7833 12.3375 18.5647 12.5563C16.6185 14.6125 14.6068 16.625 12.5732 18.6156C12.3546 18.8344 12.3546 19.0094 12.4858 19.2719C13.3604 20.9781 13.273 22.6625 12.1359 24.2156C10.977 25.7906 9.35887 26.425 7.43463 26.0094C5.53224 25.6156 4.35146 24.3688 3.87039 22.4875C3.1488 19.6656 5.46664 16.8 8.65915 16.8219ZM47.5596 7.45939C49.0902 7.45939 50.3366 6.25626 50.3803 4.70314C50.4022 3.17188 49.1121 1.85939 47.5814 1.88126C46.0508 1.88126 44.8044 3.12813 44.8044 4.68126C44.8044 6.23439 46.0071 7.45939 47.5596 7.45939ZM34.5272 14.9625C32.9965 14.9625 31.7501 16.1875 31.7283 17.7188C31.7064 19.25 32.9965 20.5406 34.5272 20.5188C36.0797 20.4969 37.3042 19.2938 37.3042 17.7406C37.3042 16.2094 36.0797 14.9625 34.5272 14.9625ZM21.4948 5.62189C19.9641 5.60001 18.6959 6.84689 18.6959 8.37814C18.674 9.90939 19.8985 11.1781 21.4292 11.2C22.9598 11.2219 24.2718 9.95314 24.2718 8.42189C24.2718 6.91251 23.0035 5.64376 21.4948 5.62189ZM8.39675 18.6813C6.8661 18.6813 5.61971 19.9281 5.61971 21.4594C5.59784 22.9688 6.84423 24.2375 8.39675 24.2375C9.94927 24.2594 11.2175 22.9906 11.1957 21.4375C11.1738 19.9063 9.94927 18.6813 8.39675 18.6813Z" fill="white"/>
</svg>
