<svg width="46" height="64" viewBox="0 0 46 64" fill="none" xmlns="http://www.w3.org/2000/svg">
<path d="M30.4008 64C26.501 64 22.6012 64 18.7014 64C18.4355 64 18.2583 64 17.9924 64C17.5492 63.9111 17.1947 63.5556 17.2833 63.1111C17.2833 62.6667 17.5492 62.3111 17.9924 62.2222C18.1696 62.1334 18.4355 62.2222 18.7014 62.2222C24.108 62.2222 29.5145 62.2222 34.9211 62.2222C35.4529 62.2222 35.6301 62.1334 35.6301 61.5111C35.6301 58.9334 35.6301 56.3556 35.6301 53.7778C35.6301 53.5111 35.6301 53.2445 35.7188 53.0667C35.896 52.6222 36.1619 52.3556 36.6937 52.4445C37.1369 52.4445 37.4028 52.7111 37.4914 53.1556C37.58 53.3334 37.4914 53.6 37.4914 53.7778C37.4914 56.3556 37.4914 59.0223 37.4914 61.6C37.4914 62.0445 37.58 62.2222 38.1118 62.2222C39.4413 62.2222 40.7708 62.2222 42.0116 62.2222C42.1889 62.2222 42.4548 62.2222 42.6321 62.2222C43.7843 62.0445 44.3161 61.5111 44.1388 60.3556C43.9615 58.8445 43.607 57.3334 43.3411 55.9111C42.7207 52.8889 42.1003 49.7778 41.4798 46.7556C41.1253 44.8 39.9731 43.5556 38.0232 42.9334C35.9847 42.3111 33.9461 41.7778 31.9076 41.1556C31.4644 41.0667 31.2872 41.0667 31.1985 41.5111C30.7554 42.9334 30.2236 44.2667 29.7804 45.6C29.4259 46.4889 28.8055 47.0222 27.9191 47.0222C27.6533 47.0222 27.476 47.1111 27.2987 47.2889C26.501 48 25.7034 48.7111 24.817 49.4222C23.6648 50.4 22.5126 50.4 21.2718 49.4222C20.4741 48.7111 19.6764 48 18.8787 47.2889C18.7014 47.1111 18.5242 47.0222 18.2583 47.0222C17.2833 47.0222 16.6629 46.4889 16.397 45.6889C15.8652 44.2667 15.422 42.9334 14.8902 41.5111C14.713 41.0667 14.5357 41.0667 14.1812 41.1556C12.1427 41.7778 10.1041 42.4 8.06559 43.0222C6.20431 43.5556 5.0521 44.8 4.69757 46.7556C3.81125 51.1111 2.92493 55.4667 2.12724 59.8223C2.12724 60 2.03861 60.1778 2.03861 60.3556C1.77271 61.4222 2.21587 62.0445 3.54535 62.1334C5.0521 62.2222 6.64747 62.1334 8.15422 62.1334C8.59738 62.1334 8.50875 61.8667 8.50875 61.6C8.50875 59.0223 8.50875 56.3556 8.50875 53.7778C8.50875 53.5111 8.50875 53.3334 8.59738 53.0667C8.68601 52.5334 9.04054 52.3556 9.57233 52.3556C10.1041 52.3556 10.37 52.7111 10.4586 53.1556C10.4586 53.3334 10.4586 53.6 10.4586 53.7778C10.4586 56.3556 10.4586 58.9334 10.4586 61.5111C10.4586 62.0445 10.6359 62.1334 11.0791 62.1334C11.9654 62.1334 12.7631 62.1334 13.6494 62.1334C14.3585 62.1334 14.8016 62.4889 14.8016 63.0222C14.8016 63.6445 14.3585 64 13.6494 64C10.37 64 7.09063 64 3.89988 64C1.86135 64 0.620499 63.1111 0.177339 61.4222C-0.0885567 60.5334 0.0887072 59.5556 0.265971 58.6667C1.06366 54.5778 1.94998 50.4 2.74767 46.3111C3.27946 43.4667 4.87483 41.6889 7.62243 40.8889C9.83823 40.2667 12.1427 39.5556 14.3585 38.9334C15.422 38.5778 16.2197 37.7778 17.1947 37.2445C17.5492 36.9778 17.3719 35.5556 16.9288 35.2889C14.713 33.9556 13.029 32.0889 11.9654 29.7778C11.2563 28.2667 10.8132 26.7556 10.8132 25.0667C10.8132 24.6222 10.7245 24.3556 10.1928 24.1778C7.88832 23.5556 6.73611 21.3334 7.44516 19.2889C7.53379 19.0222 7.71106 18.6667 7.88832 18.4C8.33148 17.9556 8.42011 17.4222 8.42011 16.8C8.42011 14.7556 8.24285 12.6222 8.68601 10.5778C8.86327 9.7778 9.2178 9.42224 9.83823 9.60002C10.37 9.68891 10.6359 10.2222 10.5473 10.9334C10.1928 12.7111 10.37 14.5778 10.37 16.3556C10.37 16.4445 10.2814 16.7111 10.5473 16.7111C10.7245 16.7111 10.9018 16.7111 10.9904 16.5334C11.4336 15.6445 12.1427 15.4667 13.029 15.4667C17.9924 15.1111 22.7785 13.6889 27.476 12C28.8941 11.4667 30.135 11.6445 31.3758 12.6222C32.4394 13.5111 33.503 14.3111 34.5666 15.1111C35.0097 15.4667 35.3642 15.8222 35.5415 16.3556C35.6301 16.6222 35.8074 16.8 36.0733 16.8C36.3392 16.7111 36.2506 16.4445 36.2506 16.2667C36.2506 14.2222 36.2506 12.1778 36.2506 10.0445C36.2506 5.95557 32.6166 3.91113 29.8691 4.53335C29.3373 4.62224 28.8941 4.53335 28.4509 4.1778C23.0444 0.355573 16.1311 1.42224 12.3199 6.5778C12.2313 6.75557 12.1427 6.84446 11.9654 7.02224C11.6109 7.46669 11.0791 7.55557 10.6359 7.28891C10.1928 7.02224 10.1041 6.40002 10.4586 5.86668C11.2563 4.62224 12.2313 3.55557 13.3835 2.75557C18.1696 -0.799982 24.0193 -0.888871 28.8941 2.40002C29.16 2.5778 29.3373 2.66668 29.6918 2.66668C34.212 2.22224 37.7573 5.42224 37.8459 10.0445C37.8459 12.5334 37.8459 14.9334 37.8459 17.4222C37.8459 17.6889 37.8459 17.9556 38.0232 18.1334C39.7072 19.9111 39.1754 22.6667 36.7823 23.9111C36.6937 24 36.5165 24.0889 36.4278 24.0889C35.6301 24.1778 35.5415 24.7111 35.4529 25.4222C35.0983 29.6 33.1484 32.8889 29.6032 35.1111C28.8941 35.5556 28.6282 36.2667 28.8941 36.9778C28.9827 37.1556 29.0714 37.2445 29.2486 37.3334C30.4895 38.3111 31.9076 39.0222 33.4143 39.3778C35.187 39.8222 36.871 40.3556 38.6436 40.8889C41.3026 41.6889 42.898 43.4667 43.4297 46.2222C44.2274 50.5778 45.1138 55.0223 46.0001 59.3778C46.5319 62.1334 45.1138 63.9111 42.3662 63.9111C38.2891 64.0889 34.3007 64 30.4008 64ZM12.4972 21.6C12.4972 22.7556 12.4972 23.9111 12.4972 25.0667C12.5858 27.1111 13.2949 28.9778 14.4471 30.6667C17.0174 34.1334 20.4741 35.5556 24.817 34.9334C28.8055 34.3111 32.3507 31.0222 33.1484 27.1111C33.7689 23.8222 33.4143 20.5334 33.4143 17.2445C33.4143 16.8889 33.2371 16.7111 32.9712 16.5334C31.819 15.6445 30.7554 14.8445 29.6032 13.9556C29.0714 13.5111 28.5396 13.5111 27.9191 13.6889C23.0444 15.5556 18.081 16.9778 12.8517 17.3334C12.4972 17.3334 12.3199 17.5111 12.4086 17.8667C12.4972 19.1111 12.4972 20.3556 12.4972 21.6ZM26.8556 36.4445C26.6783 36.5334 26.4124 36.5334 26.2351 36.6222C24.108 37.1556 21.9808 37.1556 19.9423 36.6222C19.056 36.4445 19.056 36.4445 19.1446 37.3334C19.1446 37.4222 19.2332 37.6 19.2332 37.6889C19.9423 39.3778 20.6513 41.1556 21.3604 42.8445C21.449 43.1111 21.6263 43.2 21.8922 43.2C22.5126 43.2 23.2217 43.2 23.8421 43.2C24.2852 43.2 24.4625 43.1111 24.6398 42.6667C25.2602 41.0667 25.8806 39.5556 26.5897 38.0445C26.9442 37.4222 26.9442 36.9778 26.8556 36.4445ZM23.0444 45.0667C22.6012 45.0667 22.2467 45.1556 21.8035 45.0667C21.1831 44.9778 20.8286 45.4222 20.3854 45.6889C20.1195 45.8667 20.2968 45.9556 20.4741 46.0445C21.1831 46.6667 21.8922 47.2889 22.6012 47.9111C22.8671 48.1778 23.133 48.1778 23.3989 47.9111C24.108 47.2889 24.9057 46.6667 25.6147 45.9556C25.7034 45.8667 25.8806 45.7778 25.7034 45.6C25.2602 45.3334 24.9943 44.8889 24.3739 44.8889C23.9307 45.0667 23.4876 45.0667 23.0444 45.0667ZM27.8305 44.8889C28.0078 44.8 28.0078 44.6222 28.0964 44.5334C28.4509 43.4667 28.8941 42.3111 29.2486 41.2445C29.6918 40 29.6918 40 28.5396 39.2889C28.3623 39.1111 28.2737 39.1111 28.0964 39.3778C27.5646 40.7111 27.0328 42.0445 26.4124 43.3778C26.3238 43.6445 26.3238 43.8222 26.5897 43.9111C26.9442 44.1778 27.2987 44.4445 27.5646 44.6222C27.6533 44.8 27.7419 44.8889 27.8305 44.8889ZM19.6764 43.5556C19.6764 43.4667 19.5877 43.3778 19.5877 43.2889C19.1446 42.2222 18.7014 41.2445 18.2583 40.1778C17.8151 39.0222 17.8151 39.0222 16.7515 39.7334C16.397 39.9111 16.397 40.0889 16.4856 40.5334C16.8402 41.5111 17.1947 42.5778 17.5492 43.5556C18.081 45.0667 18.081 45.0667 19.3218 44.0889C19.4105 44 19.4105 44 19.4991 43.9111C19.6764 43.8222 19.6764 43.7334 19.6764 43.5556ZM10.6359 20.5334C10.6359 20 10.6359 19.4667 10.6359 18.9334C10.6359 18.5778 10.5473 18.5778 10.2814 18.6667C9.57233 18.9334 8.95191 19.7334 8.95191 20.4445C8.95191 21.1556 9.57233 21.8667 10.2814 22.2222C10.5473 22.3111 10.6359 22.3111 10.6359 21.9556C10.6359 21.6 10.6359 21.0667 10.6359 20.5334ZM35.4529 18.7556C35.4529 19.9111 35.4529 20.9778 35.4529 22.1334C35.4529 22.4889 35.6301 22.4 35.8074 22.3111C36.6051 22.0445 37.1369 21.2445 37.0482 20.4445C37.0482 19.6445 36.4278 18.9334 35.4529 18.7556Z" fill="white"/>
</svg>
