<svg width="41" height="41" viewBox="0 0 41 41" fill="none" xmlns="http://www.w3.org/2000/svg">
<path d="M20.548 0C26.4578 0 32.3676 0 38.2773 0C40.0391 0 41 0.960938 41 2.72266C41 13.7734 41 24.8242 41 35.875C41 37.4445 40.3273 38.2773 38.8059 38.5816C38.6297 38.6137 38.5977 38.6777 38.5977 38.8379C38.5016 40.3113 37.7648 41 36.2914 41C35.6188 41 34.9621 41 34.2895 41C33.0563 40.984 32.2234 40.1672 32.1914 38.95C32.1914 38.6297 32.0793 38.5977 31.807 38.5977C24.2637 38.5977 16.7203 38.5977 9.19297 38.5977C8.9207 38.5977 8.80859 38.6297 8.80859 38.95C8.79258 40.1672 7.94375 40.984 6.71055 41C5.98984 41 5.26914 41 4.54844 41C3.26719 40.984 2.45039 40.1992 2.40234 38.918C2.40234 38.7418 2.40234 38.6137 2.14609 38.5816C0.752734 38.3414 0 37.4285 0 35.9871C0 28.716 0 21.4449 0 14.1738C0 10.3461 0 6.53437 0 2.72266C0 0.960938 0.960938 0 2.72266 0C8.66445 0 14.6063 0 20.548 0ZM20.484 36.9961C26.4098 36.9961 32.3355 36.9961 38.2613 36.9961C39.1582 36.9961 39.3984 36.7559 39.3984 35.843C39.3984 25.657 39.3984 15.4711 39.4145 5.30117C39.4145 4.9168 39.3504 4.78867 38.918 4.78867C30.3816 4.80469 21.8293 4.80469 13.293 4.78867C12.8766 4.78867 12.7965 4.90078 12.7965 5.30117C12.8285 7.03086 11.8516 8.00781 10.1219 8.00781C7.44727 8.00781 4.75664 8.02383 2.08203 7.9918C1.69766 7.9918 1.60156 8.08789 1.60156 8.47227C1.61758 17.6012 1.61758 26.7301 1.61758 35.859C1.61758 36.7559 1.85781 36.9961 2.7707 36.9961C8.66445 36.9961 14.5742 36.9961 20.484 36.9961ZM20.516 3.20312C26.634 3.20312 32.768 3.20312 38.8859 3.20312C38.998 3.20312 39.1262 3.20312 39.2383 3.20312C39.3344 3.20312 39.3664 3.17109 39.3984 3.075C39.6387 2.21016 39.1902 1.60156 38.2934 1.60156C26.4418 1.60156 14.5742 1.60156 2.72266 1.60156C1.85781 1.60156 1.63359 1.85781 1.58555 2.72266C1.56953 3.15508 1.71367 3.20312 2.09805 3.20312C8.23203 3.20312 14.366 3.20312 20.516 3.20312ZM6.10195 6.40625C7.39922 6.40625 8.69648 6.40625 9.97773 6.40625C10.9867 6.40625 11.1949 6.18203 11.2109 5.18906C11.2109 4.86875 11.1148 4.78867 10.8105 4.80469C8.13594 4.8207 5.47734 4.80469 2.80273 4.8207C2.40234 4.8207 1.87383 4.64453 1.66562 4.90078C1.47344 5.14102 1.61758 5.66953 1.58555 6.05391C1.55352 6.37422 1.68164 6.42227 1.96992 6.42227C3.34727 6.40625 4.72461 6.40625 6.10195 6.40625ZM5.6375 38.5977C5.20508 38.5977 4.78867 38.6297 4.35625 38.5816C3.98789 38.5496 3.95586 38.7258 4.00391 38.998C4.05195 39.2863 4.24414 39.3824 4.51641 39.3824C5.18906 39.3824 5.8457 39.3824 6.51836 39.3824C6.61445 39.3824 6.71055 39.3824 6.79063 39.3824C7.14297 39.3344 7.19102 39.0941 7.19102 38.8059C7.19102 38.4535 6.93477 38.6137 6.79063 38.5977C6.42227 38.5816 6.03789 38.5977 5.6375 38.5977ZM35.3785 38.5977C34.9301 38.5977 34.4656 38.5977 34.0172 38.5977C33.841 38.5977 33.793 38.6457 33.777 38.8219C33.7609 39.2223 33.9051 39.3824 34.3055 39.3984C34.802 39.3984 35.2984 39.3984 35.7789 39.3984C36.0352 39.3984 36.2914 39.4145 36.5316 39.3984C36.868 39.3824 36.948 39.1422 36.9641 38.8379C36.9801 38.4695 36.7078 38.6137 36.5477 38.5977C36.1793 38.5816 35.7789 38.5977 35.3785 38.5977Z" fill="white"/>
<path d="M21.3008 22.6461C21.1727 23.1105 21.4289 23.5269 21.7973 23.9433C22.3258 24.5359 22.8383 25.1605 23.3348 25.7851C23.623 26.1375 23.607 26.5058 23.3668 26.8101C23.1426 27.0984 22.7582 27.1945 22.4379 27.0504C22.2457 26.9703 22.1176 26.8101 21.9895 26.666C21.557 26.1535 21.1246 25.641 20.7242 25.1285C20.5641 24.9363 20.484 24.9043 20.3078 25.1285C19.8434 25.7211 19.3629 26.2816 18.8824 26.8582C18.6582 27.1144 18.3699 27.1945 18.0496 27.0984C17.7293 27.0183 17.5531 26.7941 17.4891 26.4898C17.425 26.1855 17.5691 25.9453 17.7453 25.7211C18.2898 25.0644 18.8184 24.3918 19.3949 23.7511C19.6512 23.4629 19.7633 23.1906 19.7152 22.8222C19.6832 22.4699 19.8754 21.9894 19.6352 21.7972C19.427 21.6211 18.9785 21.7652 18.6262 21.7332C18.2578 21.7011 17.9695 21.8133 17.6973 22.0535C17.0566 22.6301 16.368 23.1746 15.6953 23.7191C15.2629 24.0715 14.7664 24.0394 14.4941 23.6871C14.2059 23.3187 14.2539 22.8703 14.6543 22.5179C15.1828 22.0535 15.7273 21.6051 16.2879 21.1726C16.5281 20.9804 16.5121 20.8844 16.2879 20.7082C15.7273 20.2597 15.1668 19.7953 14.6223 19.3308C14.366 19.1066 14.2539 18.8183 14.35 18.466C14.4461 18.1617 14.6703 17.9695 14.9746 17.9054C15.2789 17.8414 15.5191 17.9855 15.7434 18.1777C16.384 18.7062 17.0406 19.2347 17.6813 19.7953C17.9695 20.0515 18.2578 20.1797 18.6422 20.1476C18.9785 20.1156 19.443 20.2597 19.6512 20.0836C19.8754 19.8754 19.6992 19.4109 19.7312 19.0586C19.7793 18.6902 19.6512 18.4019 19.3949 18.1297C18.8184 17.473 18.2578 16.7844 17.7133 16.0957C17.425 15.7273 17.425 15.375 17.6492 15.0707C17.8734 14.7824 18.2418 14.6703 18.5781 14.8144C18.7703 14.8945 18.8984 15.0386 19.0266 15.1988C19.459 15.7113 19.8914 16.2238 20.2918 16.7363C20.452 16.9445 20.548 16.9765 20.7242 16.7523C21.1727 16.1758 21.6531 15.6152 22.1336 15.0547C22.3578 14.7824 22.6621 14.6863 22.9984 14.7984C23.3027 14.8945 23.4789 15.1187 23.543 15.439C23.607 15.7433 23.4469 15.9836 23.2707 16.2078C22.7262 16.8484 22.2137 17.5211 21.6531 18.1457C21.3969 18.434 21.2688 18.7383 21.3168 19.1226C21.3488 19.459 21.1727 19.9074 21.3809 20.1156C21.5891 20.3238 22.0375 20.1476 22.3738 20.1797C22.7582 20.2277 23.0465 20.0996 23.3508 19.8433C24.0074 19.2668 24.6961 18.7062 25.3848 18.1617C25.7371 17.8734 26.1055 17.8734 26.4098 18.1136C26.698 18.3379 26.7941 18.7222 26.666 19.0426C26.5859 19.2347 26.4258 19.3629 26.2816 19.491C25.7691 19.9234 25.2566 20.3558 24.7441 20.7562C24.5199 20.9324 24.552 21.0285 24.7602 21.1886C25.3367 21.6531 25.8973 22.1176 26.4578 22.598C26.7301 22.8222 26.8102 23.1265 26.7141 23.4629C26.602 23.7832 26.3617 23.9593 26.0414 24.0074C25.7691 24.0394 25.5449 23.9113 25.3527 23.7511C24.6641 23.1746 23.9754 22.614 23.2867 22.0375C23.0785 21.8453 22.8543 21.7492 22.566 21.7812C22.3738 21.7972 22.1977 21.7812 22.0055 21.7812C21.3488 21.7812 21.3488 21.7812 21.3488 22.4539C21.3008 22.4379 21.3008 22.4859 21.3008 22.6461Z" fill="white"/>
<path d="M34.3375 33.7929C35.2024 33.7929 36.0672 33.7769 36.932 33.7929C37.5727 33.8089 37.9731 34.3695 37.7168 34.898C37.5727 35.2183 37.3004 35.3785 36.9481 35.3785C35.1863 35.3785 33.4406 35.3945 31.6789 35.3785C31.1824 35.3785 30.8461 35.0261 30.8301 34.5937C30.8141 34.1453 31.1824 33.7929 31.6949 33.7769C32.5758 33.7769 33.4567 33.7929 34.3375 33.7929Z" fill="white"/>
<path d="M21.3008 13.5813C21.3008 14.0297 20.9164 14.4141 20.484 14.3981C20.0676 14.382 19.7152 14.0297 19.6992 13.5973C19.6832 13.1488 20.0516 12.7645 20.484 12.7645C20.9324 12.7645 21.3008 13.1328 21.3008 13.5813Z" fill="white"/>
<path d="M13.181 21.7012C12.7325 21.7012 12.3481 21.3328 12.3481 20.9004C12.3481 20.468 12.7325 20.0996 13.181 20.0996C13.6134 20.0996 13.9817 20.468 13.9817 20.8844C14.0138 21.3168 13.6294 21.7012 13.181 21.7012Z" fill="white"/>
<path d="M28.6359 20.8844C28.652 21.3168 28.2676 21.7012 27.8191 21.7012C27.3707 21.7012 26.9863 21.3328 26.9863 20.9004C26.9863 20.484 27.3387 20.1156 27.7711 20.0996C28.2355 20.0836 28.6359 20.452 28.6359 20.8844Z" fill="white"/>
<path d="M20.5 29.0363C20.0676 29.0363 19.6992 28.6519 19.6992 28.2035C19.7152 27.7551 20.0996 27.3867 20.516 27.4027C20.9324 27.4187 21.2848 27.7871 21.2848 28.2195C21.3008 28.668 20.9324 29.0523 20.5 29.0363Z" fill="white"/>
<path d="M29.3085 33.793C29.741 33.809 30.1093 34.1613 30.1093 34.5937C30.1093 35.0262 29.7249 35.4105 29.2765 35.3945C28.8281 35.3785 28.4757 35.0102 28.4917 34.5617C28.4917 34.1293 28.8601 33.793 29.3085 33.793Z" fill="white"/>
</svg>
