<svg width="34" height="34" viewBox="0 0 34 34" fill="none" xmlns="http://www.w3.org/2000/svg">
<path d="M16.9934 34C11.4572 34 5.9344 34 0.398282 34.0133C0.0663803 34.0133 0 33.9336 0 33.6148C0.0265521 32.8711 0.0132761 32.8844 0.74346 32.8711C1.04881 32.8711 1.44709 33.0039 1.64623 32.818C1.85865 32.6187 1.71261 32.207 1.71261 31.8883C1.71261 28.7273 1.71261 25.5531 1.71261 22.3922C1.71261 21.6883 1.87192 21.5289 2.56228 21.5289C4.24834 21.5289 5.94768 21.5289 7.63374 21.5289C8.32409 21.5289 8.48341 21.6883 8.48341 22.3922C8.48341 25.7656 8.48341 29.139 8.48341 32.5125C8.48341 32.7914 8.54979 32.8711 8.82858 32.8578C9.62515 32.8445 9.62515 32.8578 9.62515 32.0742C9.62515 26.2039 9.62515 20.3469 9.62515 14.4765C9.62515 13.7461 9.77118 13.6 10.5014 13.6C12.1874 13.6 13.8602 13.6 15.5463 13.6C16.2765 13.6 16.4225 13.7461 16.4225 14.4765C16.4225 20.4531 16.4225 26.4297 16.4225 32.4062C16.4225 32.9508 16.3827 32.8578 16.8739 32.8578C17.551 32.8578 17.551 32.8578 17.551 32.1805C17.551 28.1695 17.551 24.1719 17.551 20.1609C17.551 19.3906 17.697 19.2578 18.467 19.2578C20.1531 19.2578 21.8259 19.2578 23.5119 19.2578C24.1757 19.2578 24.3483 19.4305 24.3483 20.1078C24.3483 24.2383 24.3483 28.3687 24.3483 32.4859C24.3483 32.7648 24.4014 32.8711 24.7068 32.8578C25.49 32.8312 25.49 32.8578 25.49 32.0875C25.49 25.4601 25.49 18.8328 25.49 12.2055C25.49 11.475 25.6361 11.3289 26.3663 11.3289C28.0656 11.3289 29.7782 11.3289 31.4775 11.3289C32.1148 11.3289 32.2741 11.5015 32.2874 12.139C32.2874 18.8992 32.2874 25.6594 32.2874 32.4195C32.2874 32.9109 32.2343 32.8445 32.7122 32.8445C33.0707 32.8445 33.4159 32.8578 33.7743 32.8445C33.9469 32.8445 34 32.8976 34 33.0703C34.0398 33.9734 34.0398 33.9734 33.1238 33.9734C27.747 34 22.3702 34 16.9934 34ZM26.6185 22.6711C26.6185 25.9515 26.6185 29.2453 26.6185 32.5258C26.6185 32.7781 26.6716 32.8578 26.9371 32.8578C28.2249 32.8445 29.526 32.8445 30.8137 32.8578C31.0793 32.8578 31.1456 32.7914 31.1456 32.5258C31.1324 25.9383 31.1324 19.364 31.1456 12.7765C31.1456 12.5375 31.0925 12.4578 30.8403 12.4578C29.5525 12.4711 28.2515 12.4711 26.9637 12.4578C26.6849 12.4578 26.6185 12.5242 26.6185 12.8031C26.6318 16.0969 26.6185 19.3906 26.6185 22.6711ZM10.7669 23.8C10.7669 26.7086 10.7669 29.6172 10.7669 32.5258C10.7669 32.7781 10.8067 32.8711 11.0855 32.8711C12.3733 32.8578 13.6743 32.8578 14.9621 32.8711C15.2144 32.8711 15.294 32.8047 15.294 32.539C15.2807 26.7086 15.2807 20.8781 15.294 15.0476C15.294 14.7687 15.2011 14.7289 14.9488 14.7289C13.6611 14.7422 12.3866 14.7422 11.0988 14.7289C10.8333 14.7289 10.7536 14.7953 10.7536 15.0742C10.7669 17.9828 10.7669 20.8914 10.7669 23.8ZM23.2331 26.6422C23.2331 24.6765 23.2331 22.6976 23.2331 20.732C23.2331 20.4797 23.1667 20.3867 22.9012 20.4C21.6002 20.4133 20.2858 20.4133 18.9848 20.4C18.7856 20.4 18.6927 20.4398 18.6927 20.6789C18.6927 24.65 18.6927 28.6211 18.6927 32.5922C18.6927 32.8047 18.7591 32.8711 18.9715 32.8711C20.2858 32.8578 21.6002 32.8578 22.9145 32.8711C23.18 32.8711 23.2198 32.7914 23.2198 32.5523C23.2198 30.5734 23.2331 28.6078 23.2331 26.6422ZM2.85435 27.7844C2.85435 29.3648 2.85435 30.9453 2.85435 32.5258C2.85435 32.7781 2.89418 32.8711 3.17298 32.8711C4.47403 32.8578 5.78836 32.8578 7.08942 32.8711C7.31511 32.8711 7.38149 32.818 7.38149 32.5789C7.36822 29.3648 7.36822 26.164 7.38149 22.95C7.38149 22.7109 7.30184 22.6578 7.07614 22.6578C5.78836 22.6711 4.48731 22.6711 3.19953 22.6578C2.92073 22.6578 2.84108 22.7242 2.84108 23.0031C2.85435 24.5969 2.85435 26.1906 2.85435 27.7844Z" fill="#5FD3D1"/>
<path d="M5.25735 10.2133C5.58925 10.2133 6.04064 10.3195 6.45219 10.5586C6.61151 10.6516 6.71772 10.6383 6.85048 10.5055C8.0586 9.2836 9.27999 8.06172 10.5147 6.83985C10.6607 6.70704 10.6474 6.60079 10.5678 6.44141C9.57207 4.52891 10.8731 2.32422 13.0504 2.2711C14.8825 2.21797 16.3163 4.13047 15.7587 5.8836C15.6658 6.16251 15.7056 6.3086 15.9446 6.49454C16.8739 7.18516 17.7767 7.88907 18.6794 8.59297C18.8786 8.75235 18.9981 8.76563 19.2105 8.59297C20.0867 7.84922 21.2816 7.72969 22.3038 8.27422C22.4764 8.36719 22.5826 8.38048 22.7286 8.2211C23.9368 6.99923 25.1582 5.77735 26.3796 4.55547C26.4991 4.43594 26.5123 4.34297 26.4327 4.1836C25.8485 3.02813 25.9415 1.92579 26.7911 0.956256C27.5877 0.0531308 28.6099 -0.212494 29.7782 0.132818C30.9067 0.46485 31.7431 1.60704 31.7431 2.80235C31.7431 4.01094 30.9333 5.13985 29.8048 5.49844C29.0215 5.75079 28.278 5.69766 27.5611 5.29922C27.3753 5.19298 27.2691 5.23282 27.1363 5.37891C25.9415 6.58751 24.7333 7.7961 23.5252 8.99141C23.3659 9.13751 23.3659 9.25704 23.4588 9.44298C23.9766 10.4523 23.9235 11.4617 23.2597 12.3914C22.5693 13.3477 21.6135 13.7461 20.4452 13.5336C19.2769 13.3078 18.5334 12.5773 18.2148 11.4352C18.082 10.9703 18.0953 10.4922 18.2413 10.0273C18.2944 9.85469 18.2944 9.73516 18.1219 9.60235C17.1261 8.8586 16.1304 8.08829 15.148 7.31797C15.002 7.19844 14.909 7.19844 14.7497 7.31797C13.7806 8.03516 12.745 8.12813 11.6697 7.57032C11.4971 7.47735 11.4042 7.49063 11.2714 7.62344C10.0898 8.87188 8.86844 10.0938 7.63376 11.3024C7.501 11.4352 7.501 11.5414 7.58066 11.7008C8.1117 12.7367 8.0586 13.7594 7.36824 14.7023C6.66461 15.6586 5.68218 16.0438 4.51389 15.7914C3.35887 15.5524 2.64196 14.7953 2.34989 13.6531C1.91178 11.9398 3.31904 10.2 5.25735 10.2133ZM28.8755 4.52891C29.8048 4.52891 30.5615 3.79844 30.5881 2.85547C30.6014 1.92579 29.8181 1.12891 28.8887 1.14219C27.9594 1.14219 27.2027 1.89922 27.2027 2.84219C27.2027 3.78516 27.9329 4.52891 28.8755 4.52891ZM20.9629 9.08438C20.0336 9.08438 19.2769 9.82813 19.2636 10.7578C19.2503 11.6875 20.0336 12.4711 20.9629 12.4578C21.9055 12.4445 22.649 11.7141 22.649 10.7711C22.649 9.84141 21.9055 9.08438 20.9629 9.08438ZM13.0504 3.41329C12.1211 3.40001 11.3511 4.15704 11.3511 5.08672C11.3378 6.01641 12.0812 6.78673 13.0106 6.80001C13.9399 6.81329 14.7365 6.04297 14.7365 5.11329C14.7365 4.19688 13.9664 3.42657 13.0504 3.41329ZM5.09804 11.3422C4.16871 11.3422 3.41198 12.0992 3.41198 13.0289C3.3987 13.9453 4.15544 14.7156 5.09804 14.7156C6.04064 14.7289 6.81065 13.9586 6.79737 13.0156C6.7841 12.0859 6.04064 11.3422 5.09804 11.3422Z" fill="#5FD3D1"/>
</svg>
