<svg width="66" height="42" viewBox="0 0 66 42" fill="none" xmlns="http://www.w3.org/2000/svg">
<g clip-path="url(#clip0_1547_5570)">
<path d="M26.3743 0C32.8711 0 39.3422 0 45.8391 0C47.5665 0 48.3657 0.803704 48.3657 2.54074C48.3657 3.13704 48.1079 3.91481 48.4688 4.3037C48.8555 4.71852 49.6547 4.43333 50.2477 4.43333C52.104 4.45926 53.986 4.43333 55.8422 4.43333C58.6524 4.43333 60.4571 6.27407 60.4571 9.1C60.4571 9.77407 60.6118 10.5259 59.7868 10.8889C59.5805 10.9667 59.7094 11.1481 59.7352 11.2778C60.2508 13.3259 60.7407 15.3741 61.2563 17.4222C61.3337 17.6815 61.4626 17.7852 61.7204 17.863C64.4016 18.563 65.9485 20.6111 65.9743 23.3852C65.9743 26.9111 65.9743 30.437 65.9743 33.937C65.9743 34.9481 65.6133 35.2852 64.6079 35.3111C63.8087 35.3111 63.0094 35.337 62.236 35.3111C61.7719 35.2852 61.5915 35.3889 61.5399 35.9074C61.1532 39.4333 58.4204 41.9481 55.043 41.9481C51.6915 41.9481 48.9329 39.4593 48.5204 35.9852C48.4688 35.4407 48.3399 35.2852 47.7727 35.2852C40.4766 35.3111 33.1547 35.3111 25.8586 35.2852C25.3946 35.2852 25.1883 35.363 25.1368 35.8815C24.8016 39.3815 21.9915 41.9481 18.5883 41.9222C15.211 41.8963 12.4266 39.3037 12.1172 35.8296C12.0657 35.3111 11.8852 35.2593 11.4469 35.2593C9.87427 35.2852 8.30161 35.2852 6.75474 35.2593C5.23364 35.2593 4.38286 34.3778 4.35708 32.8481C4.35708 32.3296 4.3313 31.8111 4.35708 31.2926C4.38286 30.9296 4.22817 30.8 3.86724 30.8259C2.96489 30.8519 2.06255 30.8519 1.16021 30.8259C0.412549 30.8259 -0.0515137 30.4111 -0.0515137 29.7889C-0.0515137 29.1667 0.412549 28.7519 1.18599 28.7519C4.35708 28.7519 7.55396 28.7519 10.725 28.7519C11.4727 28.7519 11.9368 29.1926 11.9368 29.8148C11.9368 30.437 11.4727 30.8259 10.6993 30.8259C9.46177 30.8259 8.19849 30.8519 6.96099 30.8259C6.54849 30.8259 6.3938 30.9296 6.3938 31.3704C6.36802 33.2111 6.36802 33.2111 8.17271 33.2111C9.38443 33.2111 10.6219 33.1852 11.8336 33.2111C12.2204 33.2111 12.4266 33.1074 12.6071 32.7185C13.793 30.1778 15.804 28.7778 18.6141 28.7778C21.3985 28.7778 23.4094 30.1778 24.5954 32.7444C24.7501 33.0815 24.9305 33.2111 25.3172 33.2111C32.0719 33.2111 38.8524 33.1852 45.6071 33.2111C46.1485 33.2111 46.2258 33.0037 46.2258 32.537C46.2001 30.2556 46.2258 27.9481 46.2258 25.6667C46.2258 25.2519 46.2774 24.837 46.6383 24.5519C46.9477 24.3185 47.2829 24.2407 47.6696 24.3963C48.1079 24.6037 48.3141 24.9407 48.3141 25.4333C48.3141 26.7556 48.3141 28.0778 48.3141 29.3741C48.3141 30.437 48.3141 31.5 48.3141 32.537C48.3141 32.7444 48.1594 33.0556 48.4946 33.1593C48.8555 33.263 48.8813 32.9259 48.9844 32.6926C50.6602 28.9852 55.0172 27.6111 58.4204 29.7111C59.5805 30.437 60.4571 31.4222 60.9985 32.6926C61.1532 33.0556 61.3079 33.1852 61.6946 33.1593C62.2618 33.1333 62.8547 33.1333 63.4219 33.1593C63.7313 33.1593 63.886 33.0815 63.886 32.7185C63.8602 31.5 63.8602 30.2556 63.886 29.037C63.886 28.6481 63.7313 28.5444 63.3961 28.5704C63.3704 28.5704 63.3446 28.5704 63.3446 28.5704C60.5602 28.5185 59.5032 27.4037 59.5032 24.5778C59.5032 24.137 59.5032 23.6704 59.5032 23.2296C59.529 22.4519 59.8899 22.0889 60.6633 22.063C61.5141 22.037 62.3907 22.037 63.2415 22.063C63.654 22.063 63.7313 21.9593 63.5251 21.5963C62.9063 20.4556 61.9782 19.7556 60.6891 19.7556C56.7188 19.7037 52.7485 19.7556 48.7782 19.7296C48.4172 19.7296 48.2883 19.8593 48.3141 20.2222C48.3399 20.4815 48.3399 20.7407 48.3141 21C48.2626 21.5704 47.9016 21.9074 47.3602 21.9333C46.8188 21.9593 46.4579 21.6741 46.329 21.1556C46.2516 20.9222 46.2774 20.637 46.2774 20.3778C46.2774 14.4926 46.2774 8.58148 46.2774 2.6963C46.2774 2.12593 46.1485 1.97037 45.5813 1.97037C32.7938 2.07407 19.9805 2.07407 7.19302 2.07407C6.57427 2.07407 6.44536 2.25556 6.44536 2.82593C6.47114 8.65926 6.44536 14.4926 6.44536 20.3259C6.44536 20.5333 6.44536 20.7667 6.44536 20.9741C6.41958 21.5963 6.00708 22.0111 5.46567 22.037C4.92427 22.063 4.46021 21.6481 4.40864 21.0259C4.38286 20.8444 4.40864 20.637 4.40864 20.4556C4.38286 14.5185 4.38286 8.55556 4.38286 2.61852C4.38286 0.777778 5.18208 0 7.03833 0C13.4836 0 19.929 0 26.3743 0ZM53.754 17.7333C55.404 17.7333 57.054 17.7333 58.704 17.7333C59.0133 17.7333 59.2454 17.7333 59.1422 17.2926C58.6266 15.3222 58.1368 13.3259 57.6469 11.3296C57.5696 10.9926 57.3891 10.9407 57.1055 10.9407C54.3469 10.9407 51.6141 10.9407 48.8555 10.9407C48.4688 10.9407 48.3399 11.0704 48.3399 11.4593C48.3657 13.3778 48.3657 15.2963 48.3399 17.2148C48.3399 17.6037 48.443 17.7333 48.8555 17.7333C50.4797 17.7333 52.104 17.7333 53.754 17.7333ZM55.043 39.9C57.4922 39.9 59.5032 37.8778 59.529 35.4148C59.5547 32.9519 57.5438 30.9296 55.0946 30.9037C52.6196 30.8778 50.5571 32.9259 50.5829 35.4148C50.5829 37.8778 52.5938 39.9 55.043 39.9ZM18.6399 39.9C21.0891 39.9 23.1 37.9037 23.1258 35.4407C23.1516 32.9519 21.1149 30.9037 18.6399 30.9037C16.1907 30.9037 14.1797 32.9519 14.1797 35.4148C14.1797 37.8519 16.2165 39.9 18.6399 39.9ZM53.3672 8.86667C54.8626 8.86667 56.3579 8.84074 57.879 8.86667C58.4461 8.86667 58.4719 8.63333 58.3688 8.19259C58.0852 7.15556 57.2086 6.50741 56.0485 6.50741C54.0633 6.48148 52.104 6.50741 50.1188 6.50741C48.3399 6.50741 48.3399 6.50741 48.3399 8.27037C48.3399 8.71111 48.4688 8.86667 48.9071 8.86667C50.4024 8.84074 51.8719 8.86667 53.3672 8.86667ZM62.7774 24.2407C61.5657 24.2407 61.5657 24.2407 61.5915 25.2778C61.6172 26.2889 62.0555 26.5741 63.3446 26.6C64.3758 26.6 63.7313 25.8481 63.9118 25.4593C63.9118 25.4333 63.9118 25.4074 63.9118 25.4074C63.9376 24.2407 63.9376 24.2407 62.7774 24.2407Z" fill="white"/>
<path d="M35.1656 30.9038C32.7937 30.9038 30.3961 30.9038 28.0242 30.9038C27.8179 30.9038 27.5859 30.9038 27.3797 30.8779C26.7867 30.8001 26.4773 30.4371 26.4773 29.8927C26.4515 29.3742 26.7609 28.9853 27.2765 28.8816C27.5086 28.8297 27.7406 28.8297 27.9726 28.8297C32.768 28.8297 37.589 28.8297 42.3844 28.8297C43.4156 28.8297 43.9312 29.1667 43.9312 29.8667C43.957 30.5667 43.4414 30.9038 42.4101 30.9038C40.0125 30.9038 37.589 30.9038 35.1656 30.9038Z" fill="white"/>
<path d="M9.84844 26.4704C7.73438 26.4704 5.59453 26.4704 3.48047 26.4704C2.65547 26.4704 2.19141 26.0816 2.19141 25.4334C2.19141 24.8112 2.68125 24.3964 3.48047 24.3964C7.73438 24.3964 11.9883 24.3964 16.2422 24.3964C16.732 24.3964 17.1445 24.526 17.3766 24.9927C17.557 25.3556 17.5312 25.6927 17.2992 26.0297C17.0414 26.4186 16.6547 26.4704 16.2164 26.4704C14.1023 26.4445 11.9883 26.4704 9.84844 26.4704Z" fill="white"/>
<path d="M55.043 33.2629C56.229 33.2629 57.1571 34.1963 57.1829 35.3889C57.1829 36.5815 56.1774 37.5926 55.0173 37.5407C53.8571 37.5148 52.9032 36.5296 52.929 35.3629C52.929 34.1963 53.8571 33.2629 55.043 33.2629Z" fill="white"/>
<path d="M20.7797 35.4147C20.7797 36.6073 19.8515 37.5666 18.6656 37.5666C17.5055 37.5925 16.4742 36.5555 16.5 35.3888C16.5258 34.2222 17.4797 33.2888 18.6398 33.2888C19.8515 33.2888 20.7797 34.1962 20.7797 35.4147Z" fill="white"/>
<path d="M26.2195 5.75562V10.0334H30.0609V12.0815H26.2195V20.0927C26.2195 21.9334 26.7351 22.9704 28.2304 22.9704C28.9265 22.9704 29.4421 22.8667 29.7773 22.7889L29.9062 24.8112C29.3906 25.0186 28.5656 25.1741 27.5343 25.1741C26.271 25.1741 25.2656 24.7852 24.6468 24.0334C23.8734 23.2297 23.6156 21.9075 23.6156 20.1704V12.0815H21.321V10.0334H23.6156V6.45561L26.2195 5.75562Z" fill="white"/>
<path d="M35.217 10.5518C33.6444 10.5518 32.3811 9.28148 32.3811 7.7C32.3811 6.11852 33.6444 4.84814 35.217 4.84814C36.7897 4.84814 38.053 6.11852 38.053 7.7C38.053 9.28148 36.7639 10.5518 35.217 10.5518ZM35.217 6.06666C34.3147 6.06666 33.5928 6.79259 33.5928 7.7C33.5928 8.6074 34.3147 9.33333 35.217 9.33333C36.1194 9.33333 36.8413 8.6074 36.8413 7.7C36.8413 6.79259 36.0936 6.06666 35.217 6.06666Z" fill="white"/>
</g>
<defs>
<clipPath id="clip0_1547_5570">
<rect width="66" height="42" fill="white"/>
</clipPath>
</defs>
</svg>
