<svg width="39" height="43" viewBox="0 0 39 43" fill="none" xmlns="http://www.w3.org/2000/svg">
<path d="M19.5168 2.8387C21.9837 2.8387 24.4338 2.85549 26.9006 2.8387C27.9075 2.8219 28.5788 3.25862 29.0319 4.14885C30.2066 6.46682 32.019 8.14651 34.4187 9.15432C35.5766 9.64143 36.0801 10.3973 36.0297 11.6403C35.9626 13.5047 36.0633 15.3692 35.8955 17.2168C35.5598 20.8113 34.5194 24.1707 32.7741 27.3117C29.9045 32.5188 25.7259 36.3988 20.5069 39.1871C19.8524 39.5399 19.198 39.5567 18.5435 39.2039C12.7707 36.0965 8.29005 31.7461 5.47077 25.7664C3.80941 22.3063 3.02069 18.6446 3.00391 14.8149C3.00391 13.6559 3.00391 12.4969 3.00391 11.3379C3.00391 10.3469 3.44022 9.67502 4.3632 9.2887C6.89719 8.2137 8.82706 6.48362 10.0689 3.98088C10.4716 3.19143 11.1093 2.8219 11.9987 2.8219C14.4992 2.8387 16.9996 2.8387 19.5168 2.8387ZM19.5168 4.04807C17.0332 4.04807 14.5327 4.04807 12.0491 4.04807C11.6296 4.04807 11.3275 4.18245 11.1429 4.56877C9.7836 7.30666 7.65236 9.20471 4.84986 10.3973C4.41354 10.5821 4.21217 10.834 4.22895 11.3211C4.24573 12.5641 4.22895 13.8071 4.24573 15.05C4.27929 19.1989 5.31974 23.0957 7.33351 26.7238C10.0857 31.7125 14.0796 35.4078 19.0637 38.0785C19.4329 38.2801 19.7518 38.1961 20.0874 38.0113C23.9135 35.9453 27.1691 33.241 29.7703 29.7473C32.4721 26.1024 34.1166 22.0207 34.6369 17.5024C34.8718 15.5035 34.7543 13.5047 34.7879 11.5059C34.8047 10.6996 34.7376 10.6324 33.9992 10.3133C31.3141 9.13752 29.25 7.28987 27.9243 4.66956C27.7061 4.21604 27.4041 4.03127 26.9006 4.03127C24.4338 4.06487 21.9837 4.04807 19.5168 4.04807Z" fill="white"/>
<path d="M19.5324 0C22.8383 0 26.161 0 29.467 0C30.5578 0 31.1283 0.520703 31.3465 1.57891C31.8499 4.16563 33.4945 5.77812 35.911 6.63477C36.3977 6.80273 36.9012 6.90352 37.4214 6.9707C38.445 7.10508 38.9988 7.70977 38.9988 8.73438C38.9988 11.3043 38.982 13.891 38.9653 16.4609C38.9653 16.948 38.9149 17.4352 38.8646 17.9223C38.831 18.359 38.5625 18.5941 38.1933 18.5605C37.8241 18.527 37.606 18.2414 37.6395 17.8047C37.908 14.798 37.7234 11.7914 37.7738 8.78477C37.7738 8.41523 37.6228 8.23047 37.2536 8.18008C35.0384 7.87773 33.1421 6.93711 31.6989 5.20703C30.8766 4.21602 30.3564 3.09063 30.1382 1.81406C30.0376 1.25977 29.9872 1.20938 29.4334 1.20938C22.8048 1.20938 16.1761 1.20938 9.54745 1.20938C9.17826 1.20938 8.9601 1.31016 8.87619 1.71328C8.20494 5.08945 6.05691 7.05469 2.83488 7.96172C2.46569 8.0625 2.06294 8.12969 1.67697 8.18008C1.3749 8.23047 1.22387 8.38164 1.22387 8.66719C1.27421 11.6738 1.08962 14.6805 1.35812 17.6871C1.40846 18.2078 1.22387 18.527 0.821114 18.5773C0.41836 18.6277 0.166638 18.3254 0.116294 17.7711C-0.0850828 15.5035 0.0323871 13.2023 -0.00117574 10.8844C-0.00117574 10.1789 -0.00117574 9.49023 -0.00117574 8.78477C-0.00117574 7.69297 0.535829 7.12187 1.62662 6.9707C3.69074 6.68516 5.38566 5.77813 6.62748 4.06484C7.18127 3.30898 7.5169 2.45234 7.66793 1.52852C7.83574 0.5375 8.45666 0 9.46354 0C12.8198 0 16.1761 0 19.5324 0Z" fill="white"/>
<path d="M19.5 43C19.2482 43 18.9965 42.9328 18.7784 42.832C15.0529 40.9844 11.5959 38.7672 8.67594 35.7773C4.74909 31.7797 2.04729 27.0934 0.738336 21.6176C0.721554 21.5336 0.704773 21.4496 0.687992 21.3656C0.637647 20.9793 0.805462 20.7105 1.14109 20.6266C1.47672 20.5594 1.762 20.7273 1.86269 21.0969C1.9466 21.3992 2.01372 21.7016 2.08085 21.9871C3.89324 28.7059 7.73618 34.0137 13.274 38.1457C15.12 39.523 17.1338 40.6148 19.1643 41.6562C19.3657 41.757 19.5503 41.757 19.7517 41.6562C24.8197 39.2039 29.1828 35.8949 32.472 31.259C34.6032 28.2691 36.1303 24.9937 36.9862 21.416C37.003 21.3656 37.0197 21.3152 37.0197 21.248C37.154 20.7609 37.4393 20.5426 37.8085 20.6434C38.1777 20.7441 38.3287 21.0801 38.2112 21.5672C37.3722 25.0945 35.9457 28.3363 33.8984 31.3262C30.7435 35.9621 26.5985 39.4559 21.648 42.0258C21.1949 42.2609 20.725 42.4961 20.2719 42.748C20.0705 42.916 19.802 43.0168 19.5 43Z" fill="white"/>
<path d="M19.5504 27.9332C17.3185 27.9332 15.0698 27.9332 12.8379 27.9332C11.3779 27.9332 10.606 27.1773 10.606 25.716C10.606 22.9613 10.606 20.2066 10.606 17.4519C10.606 16.0578 11.3779 15.2851 12.754 15.2851C13.5427 15.2851 13.5427 15.2851 13.5595 14.4621C13.593 13.3199 13.4588 12.1609 13.7105 11.0355C14.365 8.14647 17.0332 6.18124 20.0371 6.39959C22.9235 6.60116 25.3065 9.01991 25.4743 11.9426C25.5246 12.8832 25.5078 13.8406 25.4911 14.798C25.4911 15.1676 25.5582 15.3355 25.9609 15.2851C26.2798 15.2515 26.5986 15.2515 26.9175 15.3187C27.874 15.5371 28.4446 16.3098 28.4446 17.4016C28.4446 20.2066 28.4446 22.9949 28.4446 25.8C28.4446 25.968 28.4278 26.1359 28.3943 26.3039C28.26 27.1605 27.6055 27.7988 26.7329 27.8996C26.5315 27.9164 26.3469 27.9332 26.1455 27.9332C23.964 27.9332 21.7488 27.9332 19.5504 27.9332ZM19.5169 26.707C21.7656 26.707 24.0143 26.707 26.263 26.707C26.9678 26.707 27.2028 26.4719 27.2028 25.7832C27.2028 22.9949 27.2028 20.2066 27.2028 17.4351C27.2028 16.7465 26.9678 16.5113 26.263 16.5113C21.7656 16.5113 17.2514 16.5113 12.754 16.5113C12.0324 16.5113 11.8142 16.7465 11.8142 17.4687C11.8142 20.2234 11.8142 22.9781 11.8142 25.7328C11.8142 26.4719 12.0492 26.707 12.8043 26.707C15.053 26.707 17.285 26.707 19.5169 26.707ZM19.5504 15.2851C21.0104 15.2851 22.4536 15.2851 23.9136 15.2851C24.1989 15.2851 24.2996 15.2348 24.2996 14.9156C24.2828 14.0422 24.2996 13.1519 24.2828 12.2785C24.2492 9.91014 22.3697 7.84413 20.0875 7.64256C17.5199 7.40741 15.3383 9.00311 14.8852 11.4723C14.6838 12.6144 14.8349 13.7566 14.7845 14.8988C14.7677 15.2348 14.902 15.2851 15.1873 15.2851C16.6473 15.2683 18.0905 15.2851 19.5504 15.2851Z" fill="white"/>
<path d="M18.9126 23.1965C18.9126 23.0789 18.9126 22.9445 18.9126 22.827C18.9462 22.4742 18.879 22.2223 18.5602 21.9703C17.9225 21.4664 17.9393 20.4922 18.5266 19.9211C19.0972 19.3668 20.0034 19.3668 20.5572 19.9379C21.1277 20.5258 21.111 21.4832 20.4733 21.9871C20.2048 22.2055 20.1208 22.407 20.1376 22.7262C20.1544 23.0957 20.1544 23.482 20.1376 23.8516C20.1208 24.3051 19.8691 24.5906 19.4999 24.5738C19.1475 24.557 18.9126 24.2883 18.9126 23.8516C18.9126 23.6332 18.9126 23.4148 18.9126 23.1965Z" fill="white"/>
</svg>
