<svg width="75" height="51" viewBox="0 0 75 51" fill="none" xmlns="http://www.w3.org/2000/svg">
<path d="M53.115 13.946C54.2868 13.946 55.4587 13.946 56.6306 13.946C58.0368 13.975 58.6814 14.5259 58.8572 15.9176C58.9157 16.4105 59.2087 16.2945 59.4724 16.2945C61.8747 16.2945 64.3064 16.2945 66.7087 16.2945C66.9138 16.2945 67.1482 16.2945 67.3532 16.2945C69.1697 16.3815 70.2243 17.4832 70.2536 19.2518C70.2829 22.4702 70.2829 25.6885 70.2829 28.8778C70.2829 29.3997 70.4294 29.7186 70.8689 30.0085C71.7771 30.6174 72.656 31.2553 73.5642 31.8931C74.7654 32.7339 75.2048 33.8357 74.824 35.2274C74.1208 37.8948 73.3884 40.5912 72.656 43.2587C72.1579 44.9983 70.6638 46.187 68.8181 46.332C68.4079 46.361 68.2029 46.506 67.9978 46.8829C66.7673 49.1444 64.863 50.5361 62.2849 50.942C59.4724 51.3769 57.1872 49.6663 56.865 46.8829C56.8064 46.419 56.6306 46.361 56.2204 46.361C48.281 46.361 40.3415 46.361 32.4314 46.361C31.9919 46.361 31.8161 46.535 31.6111 46.8829C30.3513 49.1734 28.447 50.5651 25.8103 50.971C23.0271 51.3769 20.7712 49.6663 20.4783 46.9119C20.4197 46.506 20.3025 46.39 19.8923 46.39C18.6325 46.419 17.3435 46.419 16.0837 46.39C14.3845 46.361 13.5056 45.2882 13.945 43.6646C14.6189 41.1131 15.322 38.5327 16.0251 35.9812C16.113 35.6623 16.2009 35.3144 16.5232 35.1114C16.9333 34.8505 17.3435 34.8215 17.7536 35.0824C18.1931 35.3724 18.3396 35.8073 18.1931 36.3582C17.5486 38.6777 16.9333 41.0261 16.2888 43.3456C16.0544 44.2155 16.0544 44.2155 16.9626 44.2155C18.0466 44.2155 19.1599 44.1865 20.2439 44.2155C20.7126 44.2445 20.9177 44.0705 21.1228 43.6646C22.5583 41.1131 24.6677 39.5765 27.7146 39.5765C30.2341 39.5475 32.0212 41.1711 32.2849 43.6356C32.3435 44.1285 32.5193 44.2155 32.9587 44.2155C38.115 44.2155 43.2712 44.2155 48.3982 44.2155C48.8376 44.2155 49.0427 44.0705 49.1599 43.6646C51.5622 34.7055 53.9939 25.7754 56.4255 16.8164C56.572 16.2365 56.4255 16.1205 55.8689 16.1205C53.7595 16.1495 51.6208 16.1205 49.5115 16.1205C48.6033 16.1205 48.1638 15.7726 48.1345 15.0767C48.1052 14.3519 48.6033 13.946 49.5115 13.946C50.7419 13.917 51.9138 13.946 53.115 13.946ZM60.029 37.054C57.949 37.054 55.8689 37.054 53.8181 37.054C53.4079 37.054 53.2322 37.17 53.115 37.5759C52.5876 39.5765 52.031 41.577 51.4743 43.5776C51.3572 44.0125 51.3865 44.1865 51.9138 44.1865C53.5544 44.1575 55.195 44.1575 56.8064 44.1865C57.2458 44.1865 57.3923 43.9835 57.5681 43.6646C58.5935 41.722 60.1462 40.4173 62.2556 39.7794C65.5954 38.7936 68.1443 40.3593 68.7302 43.7226C68.7888 44.1285 68.9646 44.1575 69.2575 44.0125C69.9607 43.7226 70.4294 43.2297 70.6052 42.5048C71.0154 41.0261 71.4255 39.5185 71.8064 38.0398C72.0408 37.17 72.0408 37.17 71.1325 37.025C70.4587 36.938 70.0486 36.4741 70.0779 35.8653C70.1072 35.2564 70.5173 34.9085 71.1911 34.8795C71.5427 34.8505 71.865 34.8505 72.2165 34.8795C72.7732 34.9085 72.7732 34.5315 72.7146 34.1546C72.656 33.8937 72.4216 33.7777 72.2458 33.6327C71.3083 32.9659 70.3415 32.299 69.404 31.6032C69.0232 31.3132 68.6423 31.2263 68.1736 31.2263C65.8298 31.2553 63.4861 31.2553 61.1423 31.2263C58.9157 31.1973 57.6853 29.6316 58.2126 27.4861C58.5056 26.3553 58.7986 25.2536 59.1208 24.1228C59.6775 22.1512 61.3181 20.9335 63.3689 20.9045C64.4529 20.8755 65.5661 20.9045 66.6501 20.9045C68.0271 20.9045 68.0271 20.9045 68.0271 19.5418C68.0271 18.585 67.8806 18.44 66.9431 18.44C64.2478 18.44 61.5232 18.44 58.8279 18.44C58.3298 18.44 58.154 18.614 58.0368 19.0489C56.6892 24.0938 55.3122 29.1677 53.9353 34.2126C53.7595 34.8215 53.9646 34.8795 54.4919 34.8795C58.2712 34.8505 62.0505 34.8795 65.8298 34.8795C66.0935 34.8795 66.3572 34.8795 66.6208 34.9085C67.0896 34.9954 67.3532 35.2564 67.4411 35.7203C67.529 36.1552 67.4118 36.5321 67.0603 36.8221C66.738 37.054 66.3865 37.083 66.0056 37.083C64.072 37.054 62.0505 37.054 60.029 37.054ZM64.3357 29.0517C65.4197 29.0517 66.4743 29.0227 67.5583 29.0517C67.9978 29.0517 68.1443 28.9358 68.1443 28.4719C68.115 26.8482 68.115 25.2246 68.115 23.6299C68.115 23.224 67.9978 23.079 67.5876 23.079C66.1814 23.108 64.7458 23.079 63.3396 23.108C62.3728 23.137 61.6111 23.6879 61.3181 24.6157C60.9665 25.7464 60.6736 26.8772 60.3806 28.037C60.2048 28.7618 60.4392 29.0227 61.1716 29.0517C62.2263 29.0807 63.281 29.0517 64.3357 29.0517ZM22.6462 46.419C22.6462 47.9267 23.7302 48.8835 25.3122 48.7965C27.5388 48.6805 29.7947 46.6799 30.1169 44.5054C30.3513 43.0847 29.531 41.925 28.1833 41.722C25.6345 41.3451 22.6755 43.8385 22.6462 46.419ZM64.1013 41.722C61.8747 41.693 59.6189 43.5486 59.1208 45.7811C58.7107 47.6077 59.9118 48.9704 61.7868 48.8255C63.8669 48.6805 65.9763 46.8829 66.4743 44.9113C66.8845 43.0557 65.9177 41.722 64.1013 41.722Z" fill="white"/>
<path d="M28.1248 34.7345C18.4862 34.7635 10.576 26.9641 10.5467 17.4252C10.5174 7.88626 18.369 0.028952 28.0076 -4.17909e-05C37.7049 -0.0290355 45.6737 7.79928 45.6444 17.3672C45.6151 26.9351 37.7635 34.7055 28.1248 34.7345ZM28.0662 32.5599C36.5037 32.5889 43.3885 25.7754 43.4178 17.3962C43.4471 9.075 36.5623 2.20348 28.1248 2.17449C19.7166 2.1455 12.7733 8.95902 12.744 17.2802C12.7147 25.6594 19.5994 32.5309 28.0662 32.5599Z" fill="white"/>
<path d="M7.00184 31.4002C8.90613 31.4002 10.8104 31.4002 12.7147 31.4002C13.6522 31.4002 14.2089 32.183 13.828 32.9369C13.5643 33.4878 13.0663 33.5747 12.5389 33.5747C11.0741 33.5747 9.60926 33.5747 8.14441 33.5747C5.97645 33.5747 3.80848 33.5747 1.64051 33.5747C1.40613 33.5747 1.14246 33.5747 0.908087 33.5168C0.32215 33.4008 -0.000115663 33.0239 0.0291812 32.444C0.0584781 31.8351 0.410041 31.4292 1.02527 31.4002C1.81629 31.3712 2.6366 31.3712 3.42762 31.3712C4.59949 31.4002 5.80067 31.4002 7.00184 31.4002Z" fill="white"/>
<path d="M8.17377 36.0392C9.25775 36.0392 10.371 36.0392 11.455 36.0392C12.2753 36.0392 12.7148 36.4451 12.7148 37.112C12.7148 37.7788 12.246 38.1847 11.455 38.2137C9.22846 38.2427 7.03119 38.2427 4.80463 38.2137C3.98432 38.2137 3.45697 37.7498 3.48627 37.083C3.51557 36.4451 3.98432 36.0682 4.80463 36.0392C5.94721 36.0392 7.06049 36.0392 8.17377 36.0392Z" fill="white"/>
<path d="M9.28703 42.8527C8.87687 42.8527 8.46671 42.8817 8.05656 42.8527C7.44132 42.7947 7.00187 42.3018 7.03117 41.722C7.06046 41.1421 7.49992 40.7072 8.14445 40.7072C8.93546 40.6782 9.69718 40.6782 10.4882 40.7072C11.1034 40.7362 11.4843 41.0551 11.5722 41.664C11.6308 42.2438 11.2499 42.7077 10.6347 42.8237C10.5761 42.8237 10.5468 42.8527 10.4882 42.8527C10.078 42.8527 9.66789 42.8527 9.28703 42.8527Z" fill="white"/>
<path d="M27.5098 45.2592C27.5098 45.8391 26.9824 46.361 26.3672 46.361C25.7812 46.332 25.3125 45.8681 25.3125 45.2882C25.3125 44.6794 25.752 44.2155 26.3672 44.2155C26.9824 44.1575 27.5098 44.6504 27.5098 45.2592Z" fill="white"/>
<path d="M63.8672 45.2592C63.8672 45.868 63.3691 46.3609 62.7539 46.3609C62.1973 46.3319 61.6992 45.8391 61.6699 45.2882C61.6699 44.6793 62.168 44.1864 62.8125 44.2154C63.4277 44.1864 63.8672 44.6503 63.8672 45.2592Z" fill="white"/>
<path d="M27.9783 20.7595C27.8611 20.7595 27.656 20.7885 27.5095 20.7015C26.6599 20.2666 26.1326 20.7305 25.6052 21.3104C25.2244 21.7743 24.7556 22.1802 24.3162 22.5861C23.7009 23.166 23.0564 23.224 22.5876 22.7311C22.1189 22.2382 22.1775 21.6583 22.7634 21.0784C23.3787 20.4696 23.9939 19.8317 24.6384 19.2518C24.9021 18.9909 24.9607 18.7879 24.8435 18.44C24.4041 17.1353 24.697 15.9466 25.6638 14.9608C26.6306 13.975 27.8318 13.714 29.1501 14.1199C29.531 14.2359 29.7654 14.1489 30.0291 13.888C31.7869 12.1194 33.574 10.3798 35.3611 8.61114C35.7712 8.20523 36.24 7.97328 36.7966 8.26321C37.529 8.61114 37.5876 9.48095 36.9138 10.1478C35.1853 11.8874 33.4568 13.5981 31.6697 15.3087C31.2888 15.6856 31.2302 15.9755 31.3767 16.4684C32.0505 18.672 30.322 20.8175 27.9783 20.7595ZM28.0955 18.585C28.7986 18.585 29.3259 18.0631 29.3259 17.3383C29.3259 16.6714 28.7986 16.1495 28.1248 16.1495C27.4509 16.1205 26.865 16.7004 26.865 17.3672C26.8357 18.0341 27.3923 18.585 28.0955 18.585Z" fill="white"/>
<path d="M16.9334 18.44C15.8201 18.44 15.2635 18.1211 15.2635 17.3963C15.2342 16.6424 15.8201 16.2655 16.9627 16.2655C17.1385 16.2655 17.3143 16.2655 17.4608 16.2655C18.2225 16.3235 18.6326 16.7584 18.6033 17.3963C18.574 18.0051 18.1639 18.382 17.4315 18.44C17.2557 18.44 17.1092 18.44 16.9334 18.44Z" fill="white"/>
<path d="M29.1794 6.3496C29.1794 6.58155 29.1794 6.84249 29.1501 7.07444C29.0623 7.62532 28.7107 7.94426 28.1541 7.97325C27.5974 8.00224 27.1873 7.77029 27.0408 7.21941C26.8943 6.63954 26.8943 6.03067 27.0408 5.4218C27.1873 4.89991 27.5974 4.60997 28.1248 4.66796C28.6814 4.69696 29.0623 5.04488 29.1209 5.62476C29.1794 5.85671 29.1501 6.11765 29.1794 6.3496Z" fill="white"/>
<path d="M39.2284 18.44C39.0526 18.44 38.8769 18.44 38.7304 18.44C38.0273 18.382 37.5878 18.0051 37.5878 17.3962C37.5585 16.7873 37.998 16.3524 38.6718 16.2945C39.0526 16.2655 39.4628 16.2655 39.8437 16.2945C40.5175 16.3524 40.9569 16.8163 40.9276 17.4252C40.8984 18.0051 40.4882 18.411 39.8437 18.469C39.6386 18.44 39.4335 18.44 39.2284 18.44Z" fill="white"/>
<path d="M29.1794 28.4429C29.1794 28.6458 29.1794 28.8198 29.1794 29.0227C29.1501 29.6316 28.7985 30.0085 28.1833 30.0665C27.5974 30.1245 27.0993 29.7186 27.0114 29.1097C26.9528 28.7038 26.9528 28.2689 26.9821 27.863C27.0407 27.1671 27.4509 26.7612 28.0661 26.7612C28.7107 26.7612 29.1208 27.1961 29.1501 27.921C29.1794 28.0949 29.1794 28.2689 29.1794 28.4429Z" fill="white"/>
</svg>
