<svg width="44" height="28" viewBox="0 0 44 28" fill="none" xmlns="http://www.w3.org/2000/svg">
<g clip-path="url(#clip0_1547_6779)">
<path d="M17.583 0C21.9143 0 26.2283 0 30.5596 0C31.7111 0 32.2439 0.535802 32.2439 1.69383C32.2439 2.09136 32.0721 2.60988 32.3127 2.86914C32.5705 3.14568 33.1033 2.95556 33.4986 2.95556C34.7361 2.97284 35.9908 2.95556 37.2283 2.95556C39.1018 2.95556 40.3049 4.18272 40.3049 6.06667C40.3049 6.51605 40.408 7.01728 39.858 7.25926C39.7205 7.31111 39.8064 7.4321 39.8236 7.51852C40.1674 8.88395 40.4939 10.2494 40.8377 11.6148C40.8893 11.7877 40.9752 11.8568 41.1471 11.9086C42.9346 12.3753 43.9658 13.7407 43.983 15.5901C43.983 17.9407 43.983 20.2914 43.983 22.6247C43.983 23.2988 43.7424 23.5235 43.0721 23.5407C42.5393 23.5407 42.0064 23.558 41.4908 23.5407C41.1814 23.5235 41.0611 23.5926 41.0268 23.9383C40.7689 26.2889 38.9471 27.9654 36.6955 27.9654C34.4611 27.9654 32.6221 26.3062 32.3471 23.9901C32.3127 23.6272 32.2268 23.5235 31.8486 23.5235C26.9846 23.5407 22.1033 23.5407 17.2393 23.5235C16.9299 23.5235 16.7924 23.5753 16.758 23.921C16.5346 26.2543 14.6611 27.9654 12.3924 27.9481C10.1408 27.9309 8.28457 26.2025 8.07832 23.8864C8.04395 23.5407 7.92363 23.5062 7.63145 23.5062C6.58301 23.5235 5.53457 23.5235 4.50332 23.5062C3.48926 23.5062 2.92207 22.9185 2.90488 21.8988C2.90488 21.5531 2.8877 21.2074 2.90488 20.8617C2.92207 20.6198 2.81895 20.5333 2.57832 20.5506C1.97676 20.5679 1.3752 20.5679 0.773633 20.5506C0.275195 20.5506 -0.0341797 20.2741 -0.0341797 19.8593C-0.0341797 19.4444 0.275195 19.1679 0.79082 19.1679C2.90488 19.1679 5.03613 19.1679 7.1502 19.1679C7.64863 19.1679 7.95801 19.4617 7.95801 19.8765C7.95801 20.2914 7.64863 20.5506 7.13301 20.5506C6.30801 20.5506 5.46582 20.5679 4.64082 20.5506C4.36582 20.5506 4.2627 20.6198 4.2627 20.9136C4.24551 22.1407 4.24551 22.1407 5.44863 22.1407C6.25645 22.1407 7.08145 22.1235 7.88926 22.1407C8.14707 22.1407 8.28457 22.0716 8.40488 21.8123C9.19551 20.1185 10.5361 19.1852 12.4096 19.1852C14.2658 19.1852 15.6064 20.1185 16.3971 21.8296C16.5002 22.0543 16.6205 22.1407 16.8783 22.1407C21.3814 22.1407 25.9018 22.1235 30.4049 22.1407C30.7658 22.1407 30.8174 22.0025 30.8174 21.6914C30.8002 20.1704 30.8174 18.6321 30.8174 17.1111C30.8174 16.8346 30.8518 16.558 31.0924 16.3679C31.2986 16.2123 31.5221 16.1605 31.7799 16.2642C32.0721 16.4025 32.2096 16.6272 32.2096 16.9556C32.2096 17.837 32.2096 18.7185 32.2096 19.5827C32.2096 20.2914 32.2096 21 32.2096 21.6914C32.2096 21.8296 32.1064 22.037 32.3299 22.1062C32.5705 22.1753 32.5877 21.9506 32.6564 21.7951C33.7736 19.3235 36.6783 18.4074 38.9471 19.8074C39.7205 20.2914 40.3049 20.9481 40.6658 21.7951C40.7689 22.037 40.8721 22.1235 41.1299 22.1062C41.508 22.0889 41.9033 22.0889 42.2814 22.1062C42.4877 22.1062 42.5908 22.0543 42.5908 21.8123C42.5736 21 42.5736 20.1704 42.5908 19.358C42.5908 19.0988 42.4877 19.0296 42.2643 19.0469C42.2471 19.0469 42.2299 19.0469 42.2299 19.0469C40.3736 19.0123 39.6689 18.2691 39.6689 16.3852C39.6689 16.0914 39.6689 15.7802 39.6689 15.4864C39.6861 14.9679 39.9268 14.7259 40.4424 14.7086C41.0096 14.6914 41.5939 14.6914 42.1611 14.7086C42.4361 14.7086 42.4877 14.6395 42.3502 14.3975C41.9377 13.637 41.3189 13.1704 40.4596 13.1704C37.8127 13.1358 35.1658 13.1704 32.5189 13.1531C32.2783 13.1531 32.1924 13.2395 32.2096 13.4815C32.2268 13.6543 32.2268 13.8272 32.2096 14C32.1752 14.3802 31.9346 14.6049 31.5736 14.6222C31.2127 14.6395 30.9721 14.4494 30.8861 14.1037C30.8346 13.9481 30.8518 13.758 30.8518 13.5852C30.8518 9.66173 30.8518 5.72099 30.8518 1.79753C30.8518 1.41728 30.7658 1.31358 30.3877 1.31358C21.8627 1.38272 13.3205 1.38272 4.79551 1.38272C4.38301 1.38272 4.29707 1.5037 4.29707 1.88395C4.31426 5.77284 4.29707 9.66173 4.29707 13.5506C4.29707 13.6889 4.29707 13.8444 4.29707 13.9827C4.27988 14.3975 4.00488 14.6741 3.64395 14.6914C3.28301 14.7086 2.97363 14.4321 2.93926 14.0173C2.92207 13.8963 2.93926 13.758 2.93926 13.637C2.92207 9.67901 2.92207 5.7037 2.92207 1.74568C2.92207 0.518519 3.45488 0 4.69238 0C8.98926 0 13.2861 0 17.583 0ZM35.8361 11.8222C36.9361 11.8222 38.0361 11.8222 39.1361 11.8222C39.3424 11.8222 39.4971 11.8222 39.4283 11.5284C39.0846 10.2148 38.758 8.88395 38.4314 7.55309C38.3799 7.32839 38.2596 7.29383 38.0705 7.29383C36.2314 7.29383 34.4096 7.29383 32.5705 7.29383C32.3127 7.29383 32.2268 7.38025 32.2268 7.63951C32.2439 8.91852 32.2439 10.1975 32.2268 11.4765C32.2268 11.7358 32.2955 11.8222 32.5705 11.8222C33.6533 11.8222 34.7361 11.8222 35.8361 11.8222ZM36.6955 26.6C38.3283 26.6 39.6689 25.2519 39.6861 23.6099C39.7033 21.9679 38.3627 20.6198 36.7299 20.6025C35.0799 20.5852 33.7049 21.9506 33.7221 23.6099C33.7221 25.2519 35.0627 26.6 36.6955 26.6ZM12.4268 26.6C14.0596 26.6 15.4002 25.2691 15.4174 23.6272C15.4346 21.9679 14.0768 20.6025 12.4268 20.6025C10.7939 20.6025 9.45332 21.9679 9.45332 23.6099C9.45332 25.2346 10.8111 26.6 12.4268 26.6ZM35.5783 5.91111C36.5752 5.91111 37.5721 5.89383 38.5861 5.91111C38.9643 5.91111 38.9814 5.75556 38.9127 5.46173C38.7236 4.77037 38.1393 4.33827 37.3658 4.33827C36.0424 4.32099 34.7361 4.33827 33.4127 4.33827C32.2268 4.33827 32.2268 4.33827 32.2268 5.51358C32.2268 5.80741 32.3127 5.91111 32.6049 5.91111C33.6018 5.89383 34.5814 5.91111 35.5783 5.91111ZM41.8518 16.1605C41.0439 16.1605 41.0439 16.1605 41.0611 16.8519C41.0783 17.5259 41.3705 17.716 42.2299 17.7333C42.9174 17.7333 42.4877 17.2321 42.608 16.9728C42.608 16.9556 42.608 16.9383 42.608 16.9383C42.6252 16.1605 42.6252 16.1605 41.8518 16.1605Z" fill="#5FD3D1"/>
<path d="M23.4436 20.6025C21.8623 20.6025 20.2639 20.6025 18.6826 20.6025C18.5451 20.6025 18.3904 20.6025 18.2529 20.5852C17.8576 20.5334 17.6514 20.2914 17.6514 19.9284C17.6342 19.5828 17.8405 19.3235 18.1842 19.2544C18.3389 19.2198 18.4936 19.2198 18.6483 19.2198C21.8451 19.2198 25.0592 19.2198 28.2561 19.2198C28.9436 19.2198 29.2873 19.4445 29.2873 19.9111C29.3045 20.3778 28.9608 20.6025 28.2733 20.6025C26.6748 20.6025 25.0592 20.6025 23.4436 20.6025Z" fill="#5FD3D1"/>
<path d="M6.56563 17.6469C5.15625 17.6469 3.72969 17.6469 2.32031 17.6469C1.77031 17.6469 1.46094 17.3877 1.46094 16.9556C1.46094 16.5408 1.7875 16.2642 2.32031 16.2642C5.15625 16.2642 7.99219 16.2642 10.8281 16.2642C11.1547 16.2642 11.4297 16.3506 11.5844 16.6618C11.7047 16.9037 11.6875 17.1284 11.5328 17.3531C11.3609 17.6124 11.1031 17.6469 10.8109 17.6469C9.40156 17.6297 7.99219 17.6469 6.56563 17.6469Z" fill="#5FD3D1"/>
<path d="M36.6958 22.1753C37.4865 22.1753 38.1052 22.7975 38.1224 23.5926C38.1224 24.3876 37.4521 25.0617 36.6787 25.0271C35.9052 25.0099 35.2693 24.3531 35.2865 23.5753C35.2865 22.7975 35.9052 22.1753 36.6958 22.1753Z" fill="#5FD3D1"/>
<path d="M13.8534 23.6099C13.8534 24.4049 13.2347 25.0444 12.4441 25.0444C11.6706 25.0617 10.9831 24.3703 11.0003 23.5926C11.0175 22.8148 11.6534 22.1926 12.4269 22.1926C13.2347 22.1926 13.8534 22.7975 13.8534 23.6099Z" fill="#5FD3D1"/>
<path d="M17.4795 3.83707V6.68892H20.0404V8.05435H17.4795V13.3951C17.4795 14.6223 17.8232 15.3136 18.8201 15.3136C19.2842 15.3136 19.6279 15.2445 19.8514 15.1926L19.9373 16.5408C19.5936 16.679 19.0436 16.7827 18.3561 16.7827C17.5139 16.7827 16.8436 16.5235 16.4311 16.0223C15.9154 15.4864 15.7436 14.605 15.7436 13.4469V8.05435H14.2139V6.68892H15.7436V4.30373L17.4795 3.83707Z" fill="#5FD3D1"/>
<path d="M23.4775 7.03459C22.4291 7.03459 21.5869 6.18767 21.5869 5.13335C21.5869 4.07903 22.4291 3.23212 23.4775 3.23212C24.526 3.23212 25.3682 4.07903 25.3682 5.13335C25.3682 6.18767 24.5088 7.03459 23.4775 7.03459ZM23.4775 4.04446C22.876 4.04446 22.3947 4.52841 22.3947 5.13335C22.3947 5.73829 22.876 6.22224 23.4775 6.22224C24.0791 6.22224 24.5604 5.73829 24.5604 5.13335C24.5604 4.52841 24.0619 4.04446 23.4775 4.04446Z" fill="#5FD3D1"/>
</g>
<defs>
<clipPath id="clip0_1547_6779">
<rect width="44" height="28" fill="white"/>
</clipPath>
</defs>
</svg>
