<svg width="36" height="36" viewBox="0 0 36 36" fill="none" xmlns="http://www.w3.org/2000/svg">
<path d="M17.9649 36.0005C12.7075 36.0005 7.45021 36.0005 2.19289 36.0005C0.773135 36.0005 0.014057 35.2414 0.014057 33.8076C0.014057 26.9477 0.014057 20.0739 0 13.214C0 12.2863 0.351425 11.6397 1.1105 11.1336C6.55057 7.52095 11.9906 3.89424 17.4166 0.267536C17.9508 -0.083889 18.0492 -0.083889 18.5834 0.267536C24.0234 3.89424 29.4635 7.53501 34.9176 11.1477C35.6626 11.6397 36 12.2722 36 13.1719C35.9859 20.0457 35.9859 26.9196 35.9859 33.7935C35.9859 35.2273 35.2269 35.9864 33.8071 35.9864C28.5357 36.0005 23.2503 36.0005 17.9649 36.0005ZM17.9789 13.4952C21.9711 13.4952 25.9633 13.4952 29.9555 13.4952C30.1523 13.4952 30.3631 13.4952 30.5459 13.5374C31.5158 13.7201 32.1203 14.4932 32.1203 15.5616C32.1203 21.7607 32.1203 27.9598 32.1203 34.1449C32.1203 34.2433 32.1343 34.3277 32.1203 34.4261C32.0922 34.6369 32.1765 34.7213 32.3873 34.7072C32.8653 34.6931 33.3432 34.7072 33.8212 34.7072C34.4678 34.7072 34.6927 34.4823 34.6927 33.8357C34.6927 26.9337 34.6927 20.0317 34.6927 13.1438C34.6927 12.722 34.5381 12.455 34.1866 12.216C28.8872 8.68768 23.5877 5.15938 18.3022 1.61701C18.0633 1.44833 17.8946 1.46238 17.6556 1.61701C12.4123 5.15938 7.1269 8.67363 1.84147 12.1879C1.44787 12.455 1.27919 12.7502 1.27919 13.2281C1.29324 17.6982 1.29324 22.1824 1.29324 26.6525C1.29324 29.0703 1.29324 31.4741 1.29324 33.8919C1.29324 34.4964 1.51816 34.7213 2.12261 34.7213C2.57243 34.7213 3.0082 34.6932 3.45802 34.7353C3.80945 34.7634 3.87973 34.6369 3.87973 34.2996C3.86568 28.0864 3.86568 21.8872 3.86568 15.674C3.86568 14.2683 4.62476 13.5092 6.03046 13.5092C10.0226 13.4952 14.0008 13.4952 17.9789 13.4952ZM18.007 14.7884C14.043 14.7884 10.0648 14.7884 6.10074 14.7884C5.32761 14.7884 5.15892 14.9712 5.15892 15.7443C5.15892 21.9153 5.15892 28.0864 5.15892 34.2574C5.15892 34.3136 5.15892 34.3698 5.15892 34.4261C5.13081 34.6369 5.21515 34.7213 5.42601 34.7072C5.77743 34.6931 6.12886 34.7072 6.48028 34.7072C6.70519 34.7072 6.91605 34.6932 7.14096 34.6791C7.1269 34.4823 7.11285 34.2855 7.08473 34.1028C7.08473 34.0606 7.08473 34.0044 7.08473 33.9622C7.08473 31.8958 7.08473 29.8154 7.08473 27.749C7.08473 27.2992 7.16907 26.8915 7.45021 26.526C7.54861 26.3995 7.54861 26.3152 7.45021 26.1887C7.18313 25.8232 7.08473 25.4155 7.08473 24.9657C7.08473 22.8993 7.08473 20.847 7.08473 18.7806C7.08473 17.5014 7.87192 16.7283 9.15111 16.7283C11.1894 16.7283 13.2276 16.7283 15.2659 16.7283C16.5873 16.7283 17.3745 17.5155 17.3745 18.8228C17.3745 20.8329 17.3745 22.8571 17.3745 24.8673C17.3745 25.3593 17.2901 25.8232 16.9809 26.2168C16.9106 26.3152 16.8965 26.3855 16.9809 26.4839C17.3042 26.9056 17.3745 27.3976 17.3745 27.9036C17.3604 29.6467 17.3745 31.3898 17.3745 33.1328C17.3745 33.5826 17.4307 34.0465 17.3182 34.4964C17.2761 34.665 17.3604 34.7072 17.501 34.6932C17.7681 34.6932 18.0351 34.6791 18.3022 34.6932C18.6255 34.7213 18.8083 34.665 18.6677 34.2855C18.6255 34.1449 18.6396 33.9903 18.6396 33.8357C18.6396 31.8396 18.6396 29.8294 18.6396 27.8333C18.6396 27.3413 18.7239 26.8775 19.0332 26.4839C19.1035 26.3855 19.1175 26.3152 19.0332 26.2168C18.7239 25.8091 18.6396 25.3312 18.6396 24.8251C18.6537 22.829 18.6396 20.8189 18.6396 18.8228C18.6396 17.5155 19.4268 16.7283 20.7341 16.7283C22.7442 16.7283 24.7684 16.7283 26.7786 16.7283C28.1702 16.7283 28.9153 17.4874 28.9293 18.879C28.9293 20.8751 28.9293 22.8572 28.9293 24.8532C28.9293 25.3452 28.859 25.8091 28.5498 26.2168C28.4795 26.3152 28.4514 26.3855 28.5357 26.4979C28.8731 26.9337 28.9293 27.4257 28.9293 27.9598C28.9153 29.8997 28.9293 31.8536 28.9293 33.7935C28.9293 34.0325 28.9293 34.2714 28.8872 34.4964C28.845 34.7072 28.9012 34.7353 29.084 34.7353C29.5338 34.7213 29.9977 34.7072 30.4475 34.7353C30.7849 34.7634 30.8692 34.665 30.8692 34.3136C30.8551 28.1145 30.8551 21.9153 30.8551 15.7302C30.8551 14.9852 30.6724 14.8025 29.9133 14.8025C25.9492 14.7884 21.9711 14.7884 18.007 14.7884ZM8.36392 21.845C8.36392 22.8571 8.36392 23.8833 8.36392 24.8954C8.36392 25.4858 8.57477 25.7107 9.16517 25.7107C11.2034 25.7107 13.2417 25.7107 15.28 25.7107C15.8422 25.7107 16.0812 25.4718 16.0812 24.9235C16.0812 22.8712 16.0812 20.8329 16.0812 18.7806C16.0812 18.2183 15.8422 18.0075 15.28 18.0075C13.2417 18.0075 11.2034 18.0075 9.16517 18.0075C8.60289 18.0075 8.37798 18.2324 8.37798 18.7947C8.36392 19.8068 8.36392 20.8189 8.36392 21.845ZM12.2296 27.004C11.2034 27.004 10.1632 27.004 9.13706 27.004C8.60289 27.004 8.36392 27.2289 8.36392 27.7771C8.36392 29.8294 8.36392 31.8677 8.36392 33.92C8.36392 34.4823 8.58883 34.7072 9.15111 34.7213C11.2034 34.7213 13.2417 34.7213 15.294 34.7213C15.8282 34.7213 16.0672 34.4823 16.0672 33.9481C16.0672 31.8958 16.0672 29.8575 16.0672 27.8052C16.0672 27.2429 15.8282 27.018 15.28 27.018C14.2679 26.9899 13.2417 27.004 12.2296 27.004ZM27.6361 21.8732C27.6361 20.8329 27.6361 19.7927 27.6361 18.7525C27.6361 18.2324 27.3971 18.0075 26.877 18.0075C24.8106 18.0075 22.7583 18.0075 20.6919 18.0075C20.1718 18.0075 19.9188 18.2324 19.9188 18.7525C19.9188 20.8189 19.9188 22.8993 19.9188 24.9657C19.9188 25.4858 20.1578 25.7248 20.6779 25.7248C22.7442 25.7248 24.7966 25.7248 26.8629 25.7248C27.3971 25.7248 27.622 25.4858 27.622 24.9516C27.6361 23.9114 27.6361 22.8993 27.6361 21.8732ZM27.6361 30.8556C27.6361 29.8435 27.6361 28.8173 27.6361 27.8052C27.6361 27.2148 27.4112 27.004 26.8208 27.004C24.7966 27.004 22.7724 27.004 20.7481 27.004C20.1578 27.004 19.9328 27.2148 19.9328 27.8052C19.9328 29.8435 19.9328 31.8818 19.9328 33.92C19.9328 34.4964 20.1578 34.7213 20.7481 34.7213C22.7724 34.7213 24.7966 34.7213 26.8208 34.7213C27.4252 34.7213 27.6361 34.4964 27.6361 33.8778C27.6361 32.8657 27.6361 31.8677 27.6361 30.8556Z" fill="white"/>
<path d="M17.993 10.9223C16.77 10.9223 15.5611 10.9223 14.3382 10.9223C13.7056 10.9223 13.5088 10.7114 13.5088 10.0788C13.5088 9.33382 13.5088 8.57474 13.5088 7.82972C13.5088 7.52046 13.6212 7.29555 13.8883 7.12687C15.1253 6.31156 16.3624 5.4822 17.5994 4.65283C17.8805 4.47009 18.1335 4.45603 18.4147 4.63877C19.6658 5.46814 20.9028 6.2975 22.1538 7.12687C22.3928 7.29555 22.5193 7.50641 22.5193 7.8016C22.5193 8.60285 22.5193 9.39004 22.5193 10.1913C22.5193 10.6833 22.2804 10.9082 21.7743 10.9082C20.4951 10.9363 19.244 10.9223 17.993 10.9223ZM17.9649 9.64307C18.9488 9.64307 19.9328 9.64307 20.9168 9.64307C21.1417 9.64307 21.2401 9.6009 21.2261 9.34787C21.212 8.99645 21.212 8.64502 21.2261 8.2936C21.2261 8.12491 21.1699 8.01246 21.0293 7.91406C20.0875 7.29555 19.1597 6.67704 18.2319 6.04448C18.0773 5.93202 17.9508 5.93202 17.7962 6.04448C17.1355 6.4943 16.5029 7.00035 15.8001 7.35178C14.9426 7.77349 14.6474 8.392 14.7739 9.3057C14.8161 9.57279 14.8723 9.62901 15.1253 9.62901C16.0672 9.62901 17.023 9.64307 17.9649 9.64307Z" fill="white"/>
<path d="M14.1555 22.4912C13.9447 22.4912 13.7338 22.5052 13.523 22.4912C13.1294 22.4771 12.8764 22.21 12.8623 21.8586C12.8623 21.4931 13.1153 21.2261 13.5089 21.2261C13.9447 21.212 14.3664 21.212 14.8022 21.2261C15.1677 21.2401 15.4207 21.4931 15.4207 21.8446C15.4207 22.196 15.1817 22.4631 14.8162 22.4912C14.5913 22.5052 14.3805 22.4912 14.1555 22.4912Z" fill="white"/>
<path d="M14.1272 24.417C13.9023 24.417 13.6774 24.431 13.4665 24.417C13.1151 24.3888 12.8761 24.1358 12.8761 23.7984C12.8621 23.4611 13.087 23.1659 13.4384 23.1518C13.9163 23.1237 14.3943 23.1237 14.8722 23.1518C15.2096 23.1659 15.4345 23.4611 15.4345 23.7984C15.4204 24.1358 15.1955 24.3888 14.8441 24.417C14.5911 24.431 14.3662 24.417 14.1272 24.417Z" fill="white"/>
<path d="M14.1554 30.2226C14.3804 30.2226 14.6053 30.2085 14.8161 30.2226C15.1676 30.2507 15.4065 30.4896 15.4065 30.827C15.4206 31.1784 15.1676 31.4596 14.8161 31.4877C14.3663 31.5017 13.9024 31.5017 13.4526 31.4877C13.0871 31.4736 12.8481 31.1784 12.8481 30.8411C12.8481 30.4896 13.1012 30.2366 13.4807 30.2226C13.7197 30.2085 13.9446 30.2226 14.1554 30.2226Z" fill="white"/>
<path d="M14.1412 33.4135C13.9163 33.4135 13.6914 33.4275 13.4806 33.4135C13.1291 33.3854 12.8902 33.1464 12.8761 32.809C12.8621 32.4717 13.087 32.1765 13.4243 32.1483C13.9163 32.1202 14.4083 32.1202 14.8863 32.1483C15.2236 32.1765 15.4345 32.4857 15.4204 32.8231C15.4064 33.1464 15.1815 33.3854 14.8441 33.4135C14.6051 33.4275 14.3662 33.4135 14.1412 33.4135Z" fill="white"/>
<path d="M25.6963 24.417C25.4854 24.417 25.2746 24.431 25.0637 24.417C24.6982 24.3888 24.4452 24.1358 24.4312 23.7984C24.4312 23.4751 24.6561 23.1799 25.0075 23.1518C25.4854 23.1237 25.9634 23.1237 26.4413 23.1518C26.7787 23.1799 27.0177 23.4751 27.0036 23.7984C26.9895 24.1218 26.7506 24.3888 26.3991 24.4029C26.1602 24.431 25.9212 24.417 25.6963 24.417Z" fill="white"/>
<path d="M25.7244 22.4912C25.5135 22.4912 25.3027 22.5052 25.0918 22.4912C24.6982 22.4771 24.4452 22.21 24.4312 21.8586C24.4312 21.5072 24.6842 21.2261 25.0778 21.2261C25.5135 21.212 25.9353 21.212 26.371 21.2261C26.7365 21.2401 26.9895 21.5072 26.9895 21.8446C26.9895 22.1819 26.7365 22.4631 26.3851 22.4912C26.1602 22.5052 25.9353 22.4912 25.7244 22.4912Z" fill="white"/>
<path d="M25.7101 33.4135C25.4852 33.4135 25.2603 33.4275 25.0494 33.4135C24.698 33.3854 24.459 33.1464 24.445 32.809C24.4309 32.4857 24.6558 32.1765 24.9932 32.1483C25.4852 32.1202 25.9772 32.1202 26.4551 32.1483C26.7925 32.1765 27.0174 32.4857 26.9893 32.809C26.9752 33.1183 26.7363 33.3572 26.3989 33.3994C26.3708 33.3994 26.3567 33.3994 26.3286 33.3994C26.1318 33.4135 25.9209 33.4135 25.7101 33.4135Z" fill="white"/>
<path d="M25.7245 30.2226C25.9494 30.2226 26.1743 30.2085 26.3852 30.2226C26.7225 30.2507 26.9756 30.5037 26.9896 30.8411C27.0037 31.1644 26.7647 31.4736 26.4273 31.4877C25.9494 31.5158 25.4715 31.5158 24.9935 31.4877C24.6562 31.4736 24.4172 31.1644 24.4313 30.8411C24.4453 30.5037 24.6843 30.2507 25.0357 30.2226C25.2606 30.2085 25.4996 30.2226 25.7245 30.2226Z" fill="white"/>
</svg>
