<svg width="34" height="34" viewBox="0 0 34 34" fill="none" xmlns="http://www.w3.org/2000/svg">
<g clip-path="url(#clip0_1547_6765)">
<path d="M29.0859 18.3022C28.9114 18.3022 28.7399 18.2319 28.6164 18.1085C28.493 17.9842 28.4219 17.8135 28.4219 17.6382C28.4219 17.4636 28.493 17.2921 28.6164 17.1687C28.7399 17.0452 28.9114 16.9741 29.0859 16.9741C29.2605 16.9741 29.432 17.0452 29.5555 17.1687C29.6789 17.2921 29.75 17.4636 29.75 17.6382C29.75 17.8135 29.6789 17.9847 29.5555 18.1085C29.432 18.2319 29.2605 18.3022 29.0859 18.3022Z" fill="#5FD3D1"/>
<path d="M9.05762 5.71899C8.88304 5.71899 8.71184 5.64792 8.5881 5.52444C8.46463 5.40071 8.39355 5.22951 8.39355 5.05493C8.39355 4.8801 8.46463 4.70889 8.5881 4.58542C8.71184 4.46194 8.88304 4.39087 9.05762 4.39087C9.23245 4.39087 9.40366 4.46194 9.52713 4.58542C9.6506 4.70889 9.72168 4.8801 9.72168 5.05493C9.72168 5.22951 9.6506 5.40071 9.52713 5.52444C9.40366 5.64792 9.23245 5.71899 9.05762 5.71899Z" fill="#5FD3D1"/>
<path d="M19.7891 6.77344C19.7891 8.31142 18.538 9.5625 17 9.5625C15.462 9.5625 14.2109 8.31142 14.2109 6.77344C14.2109 5.23546 15.462 3.98438 17 3.98438C18.538 3.98438 19.7891 5.23546 19.7891 6.77344ZM15.5391 6.77344C15.5391 7.57887 16.1943 8.23438 17 8.23438C17.8057 8.23438 18.4609 7.57887 18.4609 6.77344C18.4609 5.96774 17.8057 5.3125 17 5.3125C16.1943 5.3125 15.5391 5.96774 15.5391 6.77344Z" fill="#5FD3D1"/>
<path d="M24.6211 17.5862C24.6211 18.8792 23.5693 19.931 22.2763 19.931C20.9833 19.931 19.9314 18.8792 19.9314 17.5862C19.9314 16.2932 20.9833 15.2414 22.2763 15.2414C23.5693 15.2414 24.6211 16.2932 24.6211 17.5862ZM21.048 17.5862C21.048 18.2634 21.5989 18.8145 22.2763 18.8145C22.9536 18.8145 23.5045 18.2634 23.5045 17.5862C23.5045 16.9089 22.9536 16.358 22.2763 16.358C21.5989 16.358 21.048 16.9089 21.048 17.5862Z" fill="#5FD3D1"/>
<path fill-rule="evenodd" clip-rule="evenodd" d="M6.41183 5.75801L0.342667 9.11335C0.131256 9.23008 0 9.45264 0 9.6944V33.335C0 33.7018 0.297272 33.9991 0.664062 33.9991H33.3359C33.7027 33.9991 34 33.7018 34 33.335V9.6944C34 9.45264 33.8687 9.23008 33.6573 9.11335L17.3214 0.0820961C17.1214 -0.0286675 16.8786 -0.0286675 16.6786 0.0820961L11.0613 3.18763C10.7404 3.36506 10.624 3.7692 10.8014 4.09008C10.9788 4.41095 11.383 4.52742 11.7038 4.34999L17 1.42189L32.6719 10.0861V32.671H29.75V20.2937C29.75 19.9269 29.4527 19.6297 29.0859 19.6297C28.7191 19.6297 28.4219 19.9269 28.4219 20.2937V32.671H26.9655V32.8276H7.03448V32.671H5.57812V12.4835H28.4219V14.9812C28.4219 15.348 28.7191 15.6453 29.0859 15.6453C29.4527 15.6453 29.75 15.348 29.75 14.9812V11.8194C29.75 11.4526 29.4527 11.1553 29.0859 11.1553H4.91406C4.54727 11.1553 4.25 11.4526 4.25 11.8194V32.671H1.32812V10.0861L7.05437 6.92038C7.37524 6.74295 7.49171 6.33881 7.31429 6.01793C7.13686 5.69706 6.73271 5.58033 6.41183 5.75801Z" fill="#5FD3D1"/>
<path d="M18.224 26.504C18 26.696 17.7227 26.8453 17.392 26.952C17.0613 27.048 16.72 27.096 16.368 27.096C15.5147 27.096 14.8533 26.8667 14.384 26.408C13.9147 25.9493 13.68 25.2933 13.68 24.44V19.784H12.24V18.52H13.68V16.664H15.216V18.52H17.648V19.784H15.216V24.376C15.216 24.8347 15.328 25.1867 15.552 25.432C15.7867 25.6773 16.1173 25.8 16.544 25.8C17.0133 25.8 17.4133 25.6667 17.744 25.4L18.224 26.504Z" fill="#5FD3D1"/>
</g>
<defs>
<clipPath id="clip0_1547_6765">
<rect width="34" height="34" fill="white" transform="matrix(-1 0 0 1 34 0)"/>
</clipPath>
</defs>
</svg>
