<svg width="65" height="58" viewBox="0 0 65 58" fill="none" xmlns="http://www.w3.org/2000/svg">
<path d="M41.5008 1.07475C43.4008 1.07475 45.3008 1.07475 47.1758 1.07475C48.4008 1.07475 48.9508 1.62292 48.9758 2.86877C48.9758 4.36379 48.9758 5.8588 48.9758 7.35382C48.9758 8.45016 48.3758 9.02325 47.2758 9.04817C45.9758 9.07309 45.9758 9.07309 45.9758 10.3937C45.9758 10.9419 45.9758 11.5149 45.9758 12.0631C45.9758 12.3621 46.0508 12.4867 46.3508 12.5615C49.7008 13.309 52.7258 14.7292 55.4008 16.8721C55.6758 17.0963 55.8508 17.0465 56.0758 16.7973C56.4508 16.3987 56.8258 16.0249 57.2258 15.6512C58.0008 14.8787 58.9008 14.804 59.5508 15.4269C60.2258 16.0747 60.1258 16.9718 59.3508 17.7691C59.0258 18.1179 58.7008 18.4668 58.3258 18.7658C57.9758 19.0399 58.0258 19.2392 58.3008 19.5631C60.9508 22.5282 62.7008 25.9917 63.5258 29.8787C65.8758 40.9419 59.3508 52.2292 48.5258 55.7176C35.6508 59.8787 22.0508 52.0299 19.4508 38.7741C18.0508 31.6478 19.8258 25.2442 24.5758 19.6877C24.9758 19.2143 25.0008 18.9651 24.5258 18.5664C24.1258 18.2425 23.7758 17.8439 23.4258 17.4701C22.8508 16.8223 22.8758 15.9502 23.4508 15.402C24.0258 14.8289 24.9008 14.804 25.5258 15.3771C26.0258 15.8256 26.4758 16.299 26.9508 16.7724C27.1758 16.9967 27.3258 16.9967 27.5758 16.8223C30.2508 14.6794 33.2758 13.284 36.6258 12.5116C36.9258 12.4369 37.0258 12.3372 37.0258 12.0133C37.0008 11.1412 37.0008 10.2691 37.0258 9.39701C37.0258 9.07309 36.9508 8.9485 36.6008 8.97342C36.2508 8.99834 35.9008 8.99834 35.5508 8.97342C34.6758 8.92358 34.0508 8.3505 34.0258 7.4784C34.0008 5.80897 34.0008 4.16445 34.0258 2.49502C34.0508 1.57309 34.6758 1 35.6758 1C37.6008 1.07475 39.5508 1.07475 41.5008 1.07475ZM60.9758 34.4884C60.9758 23.799 52.2758 15.0781 41.5258 15.0282C30.7758 15.0033 22.0008 23.7242 21.9758 34.4385C21.9758 45.1279 30.7008 53.8488 41.4258 53.8987C52.1758 53.9236 60.9758 45.2026 60.9758 34.4884ZM41.5008 4.06478C40.4508 4.06478 39.4258 4.06478 38.3758 4.06478C36.9508 4.06478 36.9758 4.06478 36.9508 5.48505C36.9508 5.93355 37.0508 6.08305 37.5258 6.08305C39.8258 6.05814 42.1508 6.08305 44.4508 6.08305C46.0008 6.08305 45.9758 6.08306 45.9758 4.56312C45.9758 4.18937 45.8758 4.06478 45.5008 4.06478C44.1758 4.0897 42.8508 4.06478 41.5008 4.06478ZM41.4258 12.0133C41.9258 12.0133 42.5758 12.2126 42.8758 11.9635C43.2258 11.6644 42.9758 10.9917 43.0008 10.4934C43.0258 9.04817 43.0008 9.04817 41.5758 9.04817C41.0758 9.04817 40.4258 8.89867 40.1258 9.14784C39.7758 9.44684 40.0258 10.1196 40.0008 10.6179C39.9758 12.0382 39.9758 12.0382 41.4258 12.0133Z" fill="white" stroke="#120B44"/>
<path d="M8.97569 32.9684C6.85069 32.9684 4.7257 32.9684 2.6007 32.9684C1.6257 32.9684 0.975697 32.3206 1.0007 31.4485C1.0257 30.6013 1.6757 30.0033 2.6257 29.9784C4.4007 29.9784 6.15069 29.9784 7.92569 29.9784C10.3507 29.9784 12.8007 29.9784 15.2257 29.9784C16.3007 29.9784 17.0007 30.5764 17.0007 31.4734C17.0007 32.3953 16.3257 32.9684 15.2257 32.9684C13.1257 32.9684 11.0507 32.9684 8.97569 32.9684Z" fill="white" stroke="#120B44"/>
<path d="M12.5507 23.9983C14.1007 23.9983 15.6757 23.9983 17.2257 23.9983C18.3007 23.9983 18.9757 24.5963 18.9757 25.5182C18.9757 26.4152 18.3007 26.9883 17.2507 26.9883C14.0757 26.9883 10.8757 26.9883 7.70071 26.9883C6.65071 26.9883 6.00071 26.3903 5.97571 25.5182C5.97571 24.5963 6.65071 24.0232 7.72571 23.9983C9.35071 23.9983 10.9507 23.9983 12.5507 23.9983Z" fill="white" stroke="#120B44"/>
<path d="M10.5507 35.9584C12.1007 35.9584 13.6757 35.9584 15.2257 35.9584C16.3007 35.9584 16.9757 36.5564 16.9757 37.4784C16.9757 38.3754 16.3007 38.9485 15.2507 38.9485C12.0757 38.9485 8.87571 38.9485 5.70071 38.9485C4.65071 38.9485 4.00071 38.3505 3.97571 37.4784C3.97571 36.5564 4.65071 35.9834 5.72571 35.9584C7.35071 35.9584 8.95071 35.9584 10.5507 35.9584Z" fill="white" stroke="#120B44"/>
<path d="M12.9757 41.9385C14.0757 41.9385 15.1757 41.9385 16.2757 41.9385C17.3007 41.9385 17.9757 42.5615 17.9757 43.4585C17.9757 44.3306 17.3007 44.9286 16.3257 44.9286C14.1007 44.9286 11.8757 44.9286 9.65073 44.9286C8.67573 44.9286 8.00073 44.3306 8.00073 43.4585C8.00073 42.5615 8.67573 41.9635 9.70073 41.9385C10.7757 41.9385 11.8757 41.9385 12.9757 41.9385Z" fill="white" stroke="#120B44"/>
<path d="M41.4757 50.9086C32.3757 50.9086 24.9757 43.5083 24.9757 34.4634C24.9757 25.3937 32.4007 18.0182 41.4757 18.0182C50.5757 18.0182 57.9757 25.4186 57.9757 34.4634C57.9757 43.5332 50.5507 50.9335 41.4757 50.9086ZM39.9757 28.0598C39.9757 25.9668 39.9507 23.8737 40.0007 21.7807C40.0007 21.1827 39.8257 21.108 39.3007 21.2076C33.2007 22.304 28.8257 26.9136 28.0757 33.0432C27.1507 40.6927 33.2507 47.7442 40.9757 47.9435C47.8507 48.1179 53.5757 43.4335 54.8257 36.6312C54.9257 36.083 54.8007 35.9584 54.2507 35.9834C50.1007 36.0083 45.9507 36.0083 41.8257 35.9834C40.5507 35.9834 40.0007 35.4352 39.9757 34.1644C39.9757 32.1212 39.9757 30.078 39.9757 28.0598ZM42.9757 27.0631C42.9757 28.8571 43.0007 30.6262 42.9507 32.4202C42.9507 32.8937 43.1007 32.9933 43.5507 32.9933C47.1257 32.9684 50.7007 32.9684 54.3007 32.9933C54.7757 32.9933 54.9007 32.8687 54.8257 32.3953C53.8757 26.6146 49.3007 22.0548 43.5507 21.1578C43.1257 21.083 42.9757 21.1578 42.9757 21.6312C43.0007 23.4501 42.9757 25.2442 42.9757 27.0631Z" fill="white" stroke="#120B44"/>
</svg>
