<svg width="32" height="32" viewBox="0 0 32 32" fill="none" xmlns="http://www.w3.org/2000/svg">
<path d="M6.33337 7.66671C6.33337 6.93033 6.93033 6.33337 7.66671 6.33337H12.3334C13.0697 6.33337 13.6667 6.93033 13.6667 7.66671V12.3334C13.6667 13.0697 13.0697 13.6667 12.3334 13.6667H7.66671C6.93033 13.6667 6.33337 13.0697 6.33337 12.3334V7.66671Z" stroke-width="2" stroke-linecap="round" stroke-linejoin="round"/>
<path d="M6.33337 19.6667C6.33337 18.9303 6.93033 18.3334 7.66671 18.3334H12.3334C13.0697 18.3334 13.6667 18.9303 13.6667 19.6667V24.3334C13.6667 25.0698 13.0697 25.6667 12.3334 25.6667H7.66671C6.93033 25.6667 6.33337 25.0698 6.33337 24.3334V19.6667Z" stroke-width="2" stroke-linecap="round" stroke-linejoin="round"/>
<path d="M18.3334 7.66671C18.3334 6.93033 18.9303 6.33337 19.6667 6.33337H24.3334C25.0698 6.33337 25.6667 6.93033 25.6667 7.66671V12.3334C25.6667 13.0697 25.0698 13.6667 24.3334 13.6667H19.6667C18.9303 13.6667 18.3334 13.0697 18.3334 12.3334V7.66671Z" stroke-width="2" stroke-linecap="round" stroke-linejoin="round"/>
<path d="M18.3334 19.6667C18.3334 18.9303 18.9303 18.3334 19.6667 18.3334H24.3334C25.0698 18.3334 25.6667 18.9303 25.6667 19.6667V24.3334C25.6667 25.0698 25.0698 25.6667 24.3334 25.6667H19.6667C18.9303 25.6667 18.3334 25.0698 18.3334 24.3334V19.6667Z" stroke-width="2" stroke-linecap="round" stroke-linejoin="round"/>
</svg>
