<svg width="24" height="25" viewBox="0 0 24 25" fill="none" xmlns="http://www.w3.org/2000/svg">
<path d="M20.7973 11.374C23.2287 8.84226 22.6438 5.30292 20.8144 3.4356C18.9734 1.55641 15.4826 0.980012 13.03 3.53388L13.0297 3.53413C11.5343 5.09238 11.4326 6.97004 11.3915 8.41462C11.3886 8.5166 11.3861 8.61575 11.3836 8.71233C11.3674 9.33987 11.354 9.85845 11.2699 10.3359C11.1782 10.8568 11.0154 11.2306 10.7351 11.5225L10.7338 11.5238L10.6896 11.57C10.6894 11.5702 10.6892 11.5704 10.689 11.5706C10.4115 11.8593 10.0601 12.0249 9.5699 12.1218C9.11475 12.2118 8.61958 12.2306 8.01064 12.2538C7.91665 12.2573 7.81995 12.261 7.72026 12.2651C6.31098 12.3224 4.46885 12.4497 2.96353 14.0172C0.532175 16.5489 1.11707 20.0882 2.94646 21.9556L2.94667 21.9558C4.78848 23.8347 8.27774 24.4128 10.731 21.8571L10.7311 21.857C12.2266 20.2988 12.3283 18.4211 12.3693 16.9765C12.3722 16.8746 12.3748 16.7754 12.3773 16.6788C12.3935 16.0513 12.4069 15.5327 12.491 15.0553C12.5827 14.5343 12.7455 14.1606 13.0258 13.8687L13.0271 13.8674L13.0713 13.8212C13.0715 13.8209 13.0718 13.8207 13.072 13.8204C13.3495 13.5318 13.7009 13.3663 14.191 13.2694C14.6461 13.1793 15.1413 13.1605 15.7502 13.1374C15.8442 13.1338 15.9409 13.1301 16.0406 13.1261C17.4499 13.0688 19.292 12.9415 20.7973 11.374ZM20.7973 11.374L20.0761 10.6813M20.7973 11.374L20.0761 10.6813M20.0761 10.6813C18.7873 12.0234 17.2005 12.0825 15.72 12.1377C14.4253 12.1859 13.2119 12.2311 12.35 13.1285L3.68479 14.7098C4.9736 13.3678 6.56037 13.3086 8.0409 13.2535C9.33553 13.2053 10.5489 13.16 11.4108 12.2627L11.4563 12.2152C12.3183 11.3177 12.3499 10.0662 12.3836 8.73098C12.422 7.20455 12.4633 5.56858 13.7512 4.22655C15.755 2.14008 18.5927 2.59674 20.1001 4.13542C21.6075 5.67409 22.0798 8.59485 20.0761 10.6813Z" stroke-width="2"/>
</svg>
