<svg width="52" height="56" viewBox="0 0 52 56" fill="none" xmlns="http://www.w3.org/2000/svg">
<path d="M28.5802 32.725C28.6481 30.8 29.1459 28.9625 30.4584 27.3875C30.6168 27.2125 30.6847 27.0375 30.662 26.7969C30.1868 23.8875 29.7795 20.9563 29.5306 18.025C29.508 17.8063 29.3948 17.6969 29.2364 17.6094C28.8518 17.3469 28.6029 16.9969 28.4671 16.5594C28.2408 15.75 27.9919 14.9407 27.8109 14.1313C27.5846 13.1688 28.0824 12.2282 29.0554 11.9657C30.9336 11.4407 32.8344 10.9375 34.7351 10.5C35.8892 10.2375 36.7264 10.8282 37.0206 11.9657C37.2243 12.7094 37.4279 13.4313 37.6542 14.175C37.79 14.6125 37.79 15.05 37.5637 15.4438C37.4279 15.6844 37.4505 15.8813 37.5637 16.1C38.8309 18.6813 39.917 21.35 41.0032 23.9969C41.0937 24.2157 41.1842 24.4125 41.4558 24.5219C44.2617 25.6375 46.0493 27.6719 46.8413 30.45C48.5384 36.4657 50.1451 42.525 51.8874 48.5407C52.5437 50.8594 51.0502 52.6313 49.3304 53.0907C45.6873 54.0313 42.0441 55.0157 38.3557 55.9125C36.3191 56.3938 34.5315 55.2563 33.9884 53.3094C32.6307 48.3875 31.2504 43.4657 29.9153 38.5438C29.508 37.0563 29.0328 35.5688 28.7386 34.0594C28.6029 33.6219 28.6481 33.1844 28.5802 32.725ZM35.3461 49.3063C35.4366 49.2844 35.5045 49.2625 35.595 49.2407C39.8492 48.1469 44.1033 47.0313 48.3574 45.9594C48.7421 45.85 48.6968 45.675 48.629 45.4125C47.407 41.0375 46.2077 36.6625 44.9858 32.2875C44.8953 31.9375 44.7821 31.85 44.3748 31.9375C40.1886 33.0313 35.9797 34.125 31.7708 35.1969C31.3635 35.3063 31.3409 35.4375 31.4314 35.7875C32.1102 38.15 32.7438 40.5344 33.4001 42.8969C33.9658 44.9094 34.5089 46.9 35.0746 48.9125C35.1198 49.0438 35.0972 49.2844 35.3461 49.3063ZM44.1033 29.7282C43.877 29.2032 43.5828 28.8313 43.266 28.4594C42.474 27.5844 41.6142 26.7313 40.3696 26.4907C39.736 26.3594 39.374 26.0532 39.1477 25.5063C38.6725 24.2813 38.152 23.0782 37.6768 21.8532C37.5637 21.5688 37.4279 21.4375 37.0659 21.4375C35.5724 21.4594 34.0789 21.4594 32.6081 21.4375C32.246 21.4375 32.1781 21.5469 32.2234 21.875C32.427 23.1219 32.6081 24.3688 32.7665 25.6157C32.8117 25.9875 32.9022 26.1844 33.3774 26.1188C33.9205 26.0532 34.3957 26.425 34.5089 26.9063C34.6446 27.4313 34.3957 27.9344 33.8526 28.1532C33.5585 28.2844 33.2417 28.3719 32.9475 28.4157C32.4723 28.4813 32.1781 28.7438 31.9292 29.1157C31.2504 30.2094 30.9109 31.4125 30.8657 32.7032C30.8431 33.0969 30.9788 33.1407 31.3409 33.0313C33.4001 32.4844 35.4819 31.9594 37.5411 31.4125C39.7134 30.8657 41.9083 30.2969 44.1033 29.7282ZM37.6542 53.7907C38.4688 53.6813 39.3513 53.3969 40.2338 53.1563C42.9492 52.4563 45.642 51.7563 48.3574 51.0563C49.5794 50.7282 49.9414 50.1375 49.602 48.9563C49.5567 48.7813 49.4888 48.6063 49.4662 48.4313C49.421 48.0157 49.2173 47.95 48.81 48.0594C44.9179 49.0875 41.0485 50.0719 37.1564 51.0782C35.7082 51.45 35.7082 51.45 36.206 52.8282C36.4096 53.4625 36.8848 53.7907 37.6542 53.7907ZM36.4323 19.25C36.4775 19.0094 36.3418 18.8563 36.2739 18.7032C35.8439 17.8063 35.414 16.9313 34.9841 16.0344C34.7804 15.6407 34.7125 15.1813 35.0293 14.8532C35.3687 14.5032 35.3235 14.1969 35.1877 13.825C35.0972 13.5625 35.0067 13.3 34.9614 13.0375C34.9162 12.7313 34.7578 12.7094 34.4862 12.7969C33.4453 13.0813 32.427 13.3219 31.3861 13.6063C30.9788 13.7157 30.3905 13.7157 30.1868 14C29.9606 14.3063 30.3452 14.8094 30.4131 15.225C30.481 15.575 30.5942 15.7938 31.0015 15.9032C31.4314 16.0125 31.6351 16.3844 31.6803 16.8219C31.7482 17.5219 31.8161 18.2438 31.884 18.9438C31.9066 19.1188 31.884 19.3157 32.1781 19.2938C33.5811 19.25 35.0067 19.25 36.4323 19.25Z" fill="#5FD3D1"/>
<path d="M14.2562 55.9781C13.3963 55.9125 12.4685 55.5844 11.4955 55.3438C8.66697 54.6219 5.86105 53.9 3.03251 53.1563C1.49378 52.7625 0.430243 51.8656 0.0681895 50.3344C-0.0675808 49.7656 0.0229327 49.2188 0.181331 48.6719C1.85583 42.5906 3.53033 36.5094 5.25009 30.4281C6.04208 27.65 7.82972 25.6594 10.5904 24.5219C10.8393 24.4344 10.9524 24.2813 11.0429 24.0844C12.1517 21.3938 13.2379 18.7031 14.5277 16.0781C14.6409 15.8594 14.6409 15.6844 14.5277 15.4656C14.3014 15.0719 14.3014 14.6344 14.4146 14.1969C14.6409 13.3875 14.8671 12.5781 15.0934 11.7688C15.3423 10.8938 16.2248 10.2813 17.1526 10.4563C19.1665 10.8719 21.1352 11.3969 23.1039 11.9875C24.009 12.25 24.4842 13.1906 24.2579 14.0875C24.0543 14.9188 23.8054 15.75 23.5791 16.5594C23.4659 16.975 23.217 17.325 22.855 17.5656C22.6287 17.7188 22.5608 17.8938 22.5382 18.1563C22.2892 20.9781 21.9046 23.7781 21.452 26.5563C21.4067 26.8406 21.3615 27.1031 21.5878 27.3656C23.398 29.6625 23.8959 32.2438 23.1491 35C21.4973 41.0813 19.8001 47.1625 18.103 53.2438C17.6052 54.9938 16.2248 56 14.2562 55.9781ZM20.6374 35.5688C20.7505 35.2188 20.4337 35.2406 20.2527 35.1969C16.0664 34.1031 11.8802 33.0313 7.71658 31.9375C7.28664 31.8281 7.15087 31.9156 7.03773 32.3094C5.83842 36.6625 4.63912 40.9938 3.43982 45.325C3.32667 45.6969 3.37193 45.85 3.80187 45.9594C7.98812 47.0313 12.1744 48.1031 16.338 49.2188C16.7679 49.3281 16.8811 49.2188 16.9716 48.8469C17.6731 46.2656 18.3972 43.6844 19.1213 41.1031C19.6191 39.2438 20.1396 37.4063 20.6374 35.5688ZM7.89761 29.6844C8.03338 29.7281 8.10126 29.7719 8.16915 29.7938C12.378 30.8875 16.6095 31.9813 20.8184 33.075C21.1805 33.1625 21.1805 33.0313 21.1805 32.7688C21.1805 31.7844 20.9542 30.8656 20.5695 29.9469C20.2074 29.0719 19.7096 28.3719 18.6235 28.3063C18.5329 28.3063 18.4424 28.2625 18.3519 28.2188C17.7409 28 17.4242 27.5188 17.5373 26.95C17.6278 26.4031 18.1256 26.075 18.7819 26.1188C19.076 26.1406 19.2118 26.0969 19.257 25.7688C19.4154 24.4781 19.5965 23.1656 19.8228 21.875C19.8906 21.4594 19.7322 21.4375 19.3928 21.4375C17.922 21.4375 16.4511 21.4594 14.9803 21.4375C14.6409 21.4375 14.4825 21.5688 14.3693 21.8531C13.8715 23.1 13.3737 24.325 12.8758 25.55C12.6948 25.9656 12.4459 26.3375 11.9481 26.425C9.97942 26.8188 8.89325 28.175 7.89761 29.6844ZM14.1883 53.7688C15.1161 53.8125 15.6139 53.4844 15.8402 52.85C15.9307 52.5656 15.9759 52.2375 16.0891 51.9531C16.2701 51.5375 16.1117 51.3844 15.7044 51.2969C11.6992 50.2688 7.71658 49.2406 3.71136 48.2125C2.71571 47.95 2.73834 47.95 2.44417 48.9125C2.28577 49.4375 2.12737 49.9406 2.53468 50.4219C2.82885 50.7719 3.23616 50.9688 3.68873 51.0781C6.10996 51.7125 8.5312 52.325 10.9298 52.9594C12.0839 53.2438 13.2605 53.5281 14.1883 53.7688ZM17.8088 19.25C18.3972 19.25 18.9855 19.2281 19.5512 19.25C19.9585 19.2719 20.1622 19.2063 20.1622 18.7469C20.1622 18.0906 20.2753 17.4344 20.3206 16.8C20.3432 16.3844 20.5242 15.9906 20.9315 15.9031C21.4294 15.7719 21.5425 15.4656 21.633 15.05C21.6783 14.8313 21.7235 14.6125 21.8141 14.4156C21.9725 14.0438 21.8819 13.8906 21.452 13.7813C20.4564 13.5625 19.4833 13.2781 18.5103 13.0375C17.13 12.6875 17.13 12.6875 16.7679 14.0219C16.7 14.2406 16.5869 14.4594 16.8358 14.6781C17.2658 15.0938 17.2658 15.575 17.0168 16.0781C16.5869 16.975 16.157 17.8938 15.7044 18.7906C15.4781 19.2281 15.6139 19.2938 16.0438 19.2719C16.6548 19.2281 17.2431 19.25 17.8088 19.25Z" fill="#5FD3D1"/>
<path d="M30.7294 7.10937C30.0053 7.08749 29.4395 6.38749 29.7337 5.73124C30.1863 4.68124 30.8199 3.69687 31.5214 2.77812C31.8382 2.34062 32.4491 2.31874 32.9017 2.58124C33.3316 2.84374 33.5805 3.34687 33.3769 3.80624C32.9017 4.85624 32.2681 5.81874 31.5892 6.78124C31.4082 7.04374 31.0688 7.13124 30.7294 7.10937Z" fill="#5FD3D1"/>
<path d="M21.2482 7.10937C20.8182 7.10937 20.5014 6.91249 20.2752 6.56249C19.7773 5.75312 19.2569 4.94374 18.8043 4.11249C18.4649 3.52187 18.6233 2.88749 19.1664 2.58124C19.7094 2.27499 20.343 2.40624 20.7277 2.99687C21.2482 3.80624 21.7686 4.63749 22.2438 5.49062C22.6511 6.27812 22.1081 7.13124 21.2482 7.10937Z" fill="#5FD3D1"/>
<path d="M27.1546 2.55978C27.1546 3.04103 27.1773 3.5004 27.1546 3.98165C27.132 4.65978 26.6342 5.11915 26.0232 5.11915C25.4123 5.11915 24.9144 4.65978 24.9144 3.98165C24.8918 3.04103 24.8918 2.1004 24.9144 1.15978C24.9371 0.503528 25.4349 0.0222778 26.0459 0.0222778C26.6568 0.0222778 27.132 0.503528 27.1773 1.15978C27.1773 1.20353 27.1773 1.2254 27.1773 1.26915C27.1546 1.68478 27.1546 2.12228 27.1546 2.55978Z" fill="#5FD3D1"/>
<path d="M44.2613 40.6438C44.1708 42.9406 42.2021 44.7781 39.9619 44.6906C37.5181 44.5813 35.6852 42.7219 35.7757 40.425C35.8436 38.2156 37.8575 36.3563 40.0977 36.4438C42.4963 36.5313 44.3518 38.3906 44.2613 40.6438ZM42.0211 40.5563C42.0211 39.5063 41.0707 38.6094 39.9845 38.6313C38.921 38.6531 38.0159 39.55 38.0385 40.5781C38.0611 41.6281 39.0115 42.525 40.0751 42.5031C41.1612 42.4813 42.0211 41.6063 42.0211 40.5563Z" fill="#5FD3D1"/>
<path d="M36.6578 25.2438C37.2687 25.2438 37.7666 25.725 37.7666 26.3156C37.7666 26.9063 37.2009 27.4313 36.6125 27.4094C36.0016 27.3875 35.5264 26.9063 35.5264 26.3156C35.5264 25.725 36.0242 25.2438 36.6578 25.2438Z" fill="#5FD3D1"/>
<path d="M7.76157 40.6438C7.69369 38.3907 9.54921 36.5094 11.9478 36.4438C14.2107 36.3782 16.1793 38.2157 16.2472 40.4907C16.3151 42.7438 14.4369 44.6032 12.0383 44.6907C9.79812 44.7782 7.85208 42.9407 7.76157 40.6438ZM10.0244 40.5782C10.0244 41.65 10.9069 42.5032 11.9931 42.5032C13.0792 42.5032 14.0296 41.6063 14.007 40.5563C14.007 39.5282 13.0792 38.6313 12.0383 38.6313C10.9522 38.6313 10.0018 39.5282 10.0244 40.5782Z" fill="#5FD3D1"/>
<path d="M15.4548 25.2656C16.0884 25.2875 16.5636 25.8125 16.5183 26.425C16.473 27.0156 15.93 27.475 15.3416 27.4313C14.7533 27.3875 14.2555 26.8625 14.2781 26.2938C14.2781 25.6813 14.7985 25.2219 15.4548 25.2656Z" fill="#5FD3D1"/>
</svg>
