<svg width="57" height="57" viewBox="0 0 57 57" fill="none" xmlns="http://www.w3.org/2000/svg">
<path d="M28.5441 56.8678C19.4887 56.8678 10.4333 56.8678 1.37787 56.8899C0.817508 56.8899 0.683022 56.7356 0.705437 56.2286C0.750265 55.1705 0.705437 55.1705 1.82615 55.1705C2.29686 55.1705 2.92446 55.3689 3.23826 55.0823C3.55206 54.7737 3.32792 54.1785 3.32792 53.6935C3.32792 47.2568 3.32792 40.8421 3.32792 34.4054C3.32792 34.0306 3.23826 33.722 2.96929 33.4134C2.22961 32.5758 1.78133 31.6058 1.64684 30.5037C1.48994 29.181 1.51235 27.8805 1.87098 26.5799C2.9917 22.3475 4.04518 18.1151 5.09865 13.8828C5.21072 13.4419 5.39004 13.3537 5.81591 13.3537C8.28149 13.3758 10.7471 13.3537 13.2126 13.3758C13.7282 13.3758 13.8851 13.2435 13.9747 12.7365C15.0955 6.8729 18.5248 2.92709 24.2853 1.11952C28.2751 -0.159011 32.1752 0.370035 35.8511 2.35396C36.2322 2.55235 36.3891 2.75075 36.0753 3.12549C35.8511 3.41205 35.7167 3.87497 35.4477 4.00723C35.1339 4.13949 34.7977 3.74271 34.4839 3.5884C26.6164 -0.33536 17.3593 4.20562 15.7231 12.7365C14.7368 17.8727 17.3145 23.4056 21.9318 26.0068C22.4922 26.3154 22.4922 26.3154 22.4922 25.7202C22.4922 23.4717 22.4922 21.2453 22.5146 18.9969C22.5146 18.6001 22.4025 18.4678 21.9991 18.4238C20.2059 18.2474 19.0404 17.013 19.0404 15.2274C19.018 13.3096 19.0404 11.4139 19.018 9.49609C19.018 9.09931 19.1525 9.01113 19.5335 9.01113C20.7663 9.01113 20.7663 9.01113 20.7663 10.2015C20.7663 10.2456 20.7663 10.2676 20.7663 10.3117C20.7663 11.6343 20.7663 11.6123 22.0887 11.5902C22.4474 11.5902 22.537 11.4359 22.5146 11.1273C22.4922 10.5542 22.5146 9.98105 22.5146 9.42996C22.4922 9.12135 22.6267 9.03318 22.9405 9.03318C24.2629 9.01113 24.2629 8.98909 24.2629 10.2456C24.2629 10.2897 24.2629 10.3117 24.2629 10.3558C24.2629 11.6343 24.2629 11.6123 25.563 11.5902C25.9664 11.5902 26.0337 11.4359 26.0112 11.1053C25.9888 10.5321 26.0112 9.95901 26.0112 9.40792C26.0112 9.12135 26.1009 9.03318 26.3923 9.03318C27.7371 8.98909 27.7371 8.96705 27.7371 10.2897C27.7371 11.8988 27.7371 13.5301 27.7371 15.1393C27.7371 17.035 26.6164 18.2474 24.7112 18.4458C24.375 18.4899 24.2405 18.5781 24.2405 18.9308C24.2629 21.5099 24.2629 24.0669 24.2405 26.646C24.2405 26.9767 24.3526 27.131 24.6664 27.2192C27.3113 28.0127 29.9562 27.9907 32.6011 27.1971C32.8924 27.1089 32.9597 26.9546 32.9597 26.6901C32.9597 24.4417 32.9597 22.2153 32.9597 19.9668C32.9597 19.7684 33.0269 19.57 32.7131 19.5039C30.6958 19.0189 29.7993 17.5641 29.5527 15.6683C29.3062 13.7505 29.5751 11.8988 30.6062 10.2015C30.7183 10.0031 30.8527 9.82675 30.9872 9.6504C32.5562 7.66647 35.0666 7.60034 36.5908 9.60631C38.3391 11.9209 38.6081 14.5441 37.6443 17.2334C37.2408 18.3576 36.3443 19.1071 35.1563 19.4157C34.7528 19.5259 34.6856 19.7023 34.6856 20.055C34.708 21.8846 34.6856 23.7363 34.708 25.5659C34.708 25.7643 34.5959 26.0729 34.7977 26.1611C34.9994 26.2492 35.2011 26.0288 35.3804 25.8965C39.4599 23.2954 41.634 19.6141 41.634 14.8086C41.634 10.9951 40.0875 7.82078 37.2184 5.30781C36.9046 5.02124 36.9046 4.86693 37.1736 4.58037C37.9805 3.63249 37.9805 3.61045 38.8995 4.47015C41.253 6.7186 42.7099 9.42996 43.2255 12.6263C43.3151 13.1774 43.5168 13.3096 44.0548 13.3096C46.5204 13.2876 48.986 13.3096 51.4515 13.2876C51.855 13.2876 51.9895 13.4199 52.0791 13.7726C53.2223 18.2915 54.4551 22.7884 55.4861 27.3294C55.9792 29.5117 55.7103 31.694 54.0964 33.4795C53.8947 33.7 53.8723 33.9204 53.8723 34.1849C53.8723 37.2711 53.8723 40.3572 53.8947 43.4433C53.8947 43.9282 53.7826 44.0605 53.2895 44.0384C52.1464 43.9944 52.1464 44.0384 52.1464 42.9142C52.1464 41.7239 52.124 40.5335 52.1464 39.3432C52.1464 38.9464 52.0791 38.7921 51.6308 38.7921C46.7445 38.8141 41.8358 38.8141 36.9494 38.7921C36.5908 38.7921 36.4787 38.8802 36.4787 39.255C36.5012 42.0986 36.5012 44.9422 36.4787 47.7859C36.4787 48.1386 36.5908 48.2488 36.9494 48.2488C41.8358 48.2488 46.7445 48.2267 51.6308 48.2488C52.0791 48.2488 52.1688 48.0945 52.1464 47.6977C52.124 47.1686 52.1464 46.6396 52.1464 46.1105C52.1464 45.9783 52.1016 45.7799 52.3257 45.7578C52.7964 45.7358 53.2671 45.7138 53.7154 45.7578C53.9844 45.7799 53.8723 46.0444 53.8723 46.2208C53.8723 47.9622 53.8723 49.7037 53.8723 51.4451C53.8723 52.5032 53.8947 53.5833 53.8723 54.6414C53.8723 54.9721 53.9619 55.1043 54.3206 55.0823C54.9258 55.0603 55.5085 55.0823 56.1137 55.0823C56.4051 55.0823 56.4948 55.1705 56.5172 55.457C56.6068 56.8017 56.6068 56.8017 55.262 56.8017C46.2962 56.8678 37.4201 56.8678 28.5441 56.8678ZM34.6408 46.9923C34.6408 44.4573 34.6408 41.9223 34.6408 39.3872C34.6408 38.9905 34.5735 38.8141 34.1028 38.8141C30.4045 38.8361 26.7061 38.8361 23.0077 38.8141C22.5818 38.8141 22.4698 38.9243 22.4698 39.3432C22.4922 44.4352 22.4922 49.5053 22.4698 54.5973C22.4698 55.0602 22.6267 55.1484 23.0525 55.1264C26.7285 55.1043 30.4045 55.1043 34.0804 55.1264C34.5287 55.1264 34.6408 55.0162 34.6408 54.5753C34.6184 52.0623 34.6408 49.5273 34.6408 46.9923ZM12.9213 38.8361C10.4781 38.8361 8.03493 38.8361 5.59177 38.8361C5.18831 38.8361 5.05382 38.9243 5.05382 39.3652C5.07624 42.1647 5.07624 44.9863 5.05382 47.7859C5.05382 48.2047 5.16589 48.3149 5.59177 48.3149C10.4557 48.2929 15.342 48.2929 20.2059 48.3149C20.6094 48.3149 20.7439 48.2267 20.7439 47.8079C20.7215 45.0084 20.7215 42.2309 20.7439 39.4313C20.7439 38.9905 20.6318 38.8361 20.1611 38.8361C17.7403 38.8582 15.342 38.8361 12.9213 38.8361ZM23.3439 32.7301C22.0663 34.5817 20.3404 35.5957 18.099 35.5737C15.88 35.5737 14.154 34.5376 12.9213 32.7301C10.8816 35.4414 8.28149 36.213 5.07624 35.0667C5.07624 35.5517 5.07624 35.9925 5.07624 36.4334C5.07624 37.249 4.98658 37.1388 5.77108 37.1388C20.699 37.1388 35.6046 37.1388 50.5325 37.1388C51.0257 37.1388 51.6757 37.3592 51.9895 37.0286C52.2809 36.6979 52.0343 36.0807 52.0791 35.5957C52.124 35.1328 52.0119 35.0446 51.5412 35.221C49.1204 36.1027 46.4755 35.3973 44.7945 33.4355C44.6152 33.215 44.4358 32.9725 44.2341 32.7521C41.7461 36.4775 36.3667 36.5877 33.7666 32.7742C31.2338 36.5436 25.8768 36.4995 23.3439 32.7301ZM53.4912 26.9987C53.4912 26.9105 53.4912 26.8444 53.4912 26.8003C52.5274 22.9868 51.5636 19.1953 50.5998 15.3817C50.5325 15.0952 50.3756 15.007 50.0843 15.029C48.0221 15.029 45.9376 15.0511 43.8755 15.029C43.5169 15.029 43.4496 15.1613 43.472 15.492C43.8979 19.1512 44.3014 22.8104 44.7048 26.4917C44.7496 26.8885 44.8617 27.0428 45.31 27.0428C47.8652 27.0208 50.4205 27.0208 52.9757 27.0208C53.155 26.9987 53.3343 26.9987 53.4912 26.9987ZM7.94527 26.9987C9.22289 26.9987 10.5229 26.9767 11.8005 26.9987C12.204 26.9987 12.3161 26.8885 12.3609 26.4917C12.7644 22.7884 13.1902 19.0851 13.6161 15.4038C13.6609 15.029 13.4816 15.029 13.2126 15.029C11.1505 15.029 9.06599 15.029 7.00387 15.029C6.71248 15.029 6.578 15.1172 6.51075 15.4038C5.56935 19.1292 4.62795 22.8766 3.66413 26.6019C3.57447 26.9987 3.68655 27.0208 4.02276 27.0208C5.32279 26.9987 6.62283 26.9987 7.94527 26.9987ZM44.2565 50.0343C41.7909 50.0343 39.3254 50.0343 36.8598 50.0343C36.5236 50.0343 36.3667 50.1004 36.3667 50.4752C36.3891 51.886 36.3891 53.2968 36.3667 54.7076C36.3667 55.0823 36.5236 55.1484 36.8598 55.1484C41.7461 55.1484 46.6324 55.1484 51.5188 55.1484C51.9671 55.1484 52.0567 54.9941 52.0343 54.5973C52.0119 53.2306 52.0119 51.886 52.0343 50.5193C52.0343 50.1004 51.9222 49.9902 51.4964 49.9902C49.1204 50.0343 46.6773 50.0343 44.2565 50.0343ZM12.9437 55.1484C15.342 55.1484 17.7179 55.1484 20.1163 55.1484C20.5646 55.1484 20.7663 55.0823 20.7439 54.5532C20.699 53.1865 20.7215 51.8419 20.7439 50.4752C20.7439 50.1445 20.6766 49.9902 20.2956 49.9902C15.3644 50.0123 10.4333 50.0123 5.50211 49.9902C5.16589 49.9902 5.05382 50.0784 5.05382 50.4311C5.07624 51.7978 5.07624 53.1865 5.05382 54.5532C5.05382 55.0382 5.21072 55.1264 5.65901 55.1264C8.07976 55.1484 10.5005 55.1484 12.9437 55.1484ZM14.8041 20.5399C14.5799 22.5239 14.3558 24.5078 14.1092 26.4917C14.0644 26.9106 14.1765 27.0428 14.6023 27.0208C15.3644 26.9767 16.1265 27.0208 16.8886 27.0208C18.1438 27.0208 18.1214 27.0208 18.1438 28.2552C18.1438 28.6961 17.9869 28.7622 17.5834 28.7622C16.5524 28.7402 15.5213 28.8063 14.5127 28.7402C13.9075 28.6961 13.7954 28.9606 13.773 29.4456C13.6609 31.5838 15.4317 33.6339 17.5834 33.8322C19.9594 34.0747 22.0887 32.5096 22.4025 30.2832C22.4922 29.7542 22.4474 29.2251 22.4698 28.6961C22.4922 28.3434 22.3577 28.167 22.0439 28.0348C20.7439 27.4396 19.6007 26.646 18.5473 25.6761C16.9558 24.2212 15.7455 22.5018 14.8041 20.5399ZM49.4118 28.7402C48.3584 28.7402 47.3273 28.7402 46.2738 28.7402C44.9962 28.7402 44.9962 28.7402 45.1083 29.9746C45.2652 31.5177 46.0497 32.6639 47.4394 33.3693C48.9635 34.1409 50.4877 34.0306 51.8774 33.0828C53.3119 32.1128 53.8499 30.7021 53.7602 29.0267C53.7378 28.652 53.5137 28.7402 53.2895 28.7402C52.0343 28.7402 50.7343 28.7402 49.4118 28.7402ZM38.9892 33.8543C41.9703 33.8763 43.741 31.0768 43.2927 29.1149C43.2255 28.8063 43.1134 28.7402 42.822 28.7402C42.0375 28.7622 41.253 28.7402 40.4685 28.7402C38.6978 28.7402 36.927 28.7402 35.1563 28.7402C34.9322 28.7402 34.6856 28.674 34.6632 29.0708C34.3942 31.6279 36.3891 33.8322 38.9892 33.8543ZM7.69872 28.7402C6.39868 28.7402 5.09865 28.7402 3.7762 28.7402C3.55206 28.7402 3.35033 28.6961 3.32792 29.0488C3.1486 30.9004 4.11242 32.6419 5.7935 33.4355C7.31767 34.1409 8.81943 34.0086 10.1867 33.0607C11.5988 32.0908 12.0919 30.68 12.0247 29.0267C12.0023 28.674 11.7781 28.7402 11.554 28.7402C10.254 28.7402 8.97633 28.7402 7.69872 28.7402ZM36.4339 14.5661C36.3891 14.1473 36.3667 13.7285 36.2994 13.3096C36.0977 12.2295 35.7839 11.1935 34.977 10.3999C34.2597 9.69449 33.3632 9.67244 32.6459 10.3558C32.4442 10.5542 32.2424 10.7967 32.0855 11.0391C31.2114 12.5822 30.9424 14.2134 31.3459 15.9108C31.6372 17.2334 32.489 17.8727 33.789 17.8727C35.0891 17.8727 35.9184 17.2334 36.2322 15.9108C36.3443 15.492 36.4115 15.029 36.4339 14.5661ZM24.2405 28.9165C24.1733 29.5558 24.2181 30.151 24.375 30.7461C24.9802 32.8182 26.9751 34.0968 29.1717 33.8322C31.301 33.5677 32.87 31.7381 32.9149 29.4897C32.9373 29.0267 32.87 28.8945 32.3545 29.0267C30.6286 29.4897 28.8803 29.644 27.0871 29.4456C26.1457 29.3574 25.2043 29.137 24.2405 28.9165ZM23.3888 13.3317C22.6491 13.3317 21.9094 13.3537 21.1473 13.3317C20.7887 13.3096 20.699 13.4419 20.7215 13.7726C20.7439 14.2796 20.7215 14.8086 20.7439 15.3156C20.7887 16.1753 21.3715 16.7484 22.2456 16.7705C22.9629 16.7925 23.7026 16.7925 24.4198 16.7705C25.3388 16.7484 25.9216 16.1974 25.9664 15.2936C25.9888 14.7866 25.944 14.2575 25.9888 13.7505C26.0112 13.3978 25.8543 13.3317 25.5405 13.3317C24.8009 13.3317 24.106 13.3317 23.3888 13.3317ZM37.0839 26.9987C38.8995 26.9987 40.7375 26.9767 42.553 26.9987C42.9565 26.9987 43.0462 26.8885 43.0013 26.4917C42.8444 25.1911 42.7099 23.9126 42.553 22.612C42.4858 21.9287 42.3961 21.2674 42.3065 20.584C41.0961 23.1631 39.3702 25.2793 37.0839 26.9987Z" fill="#5FD3D1"/>
<path d="M27.6933 46.6176C27.6933 46.838 27.7157 47.0584 27.6933 47.2789C27.6484 47.6095 27.895 48.1165 27.5588 48.2267C27.1329 48.381 26.6174 48.2708 26.1243 48.2708C25.9674 48.2708 25.9674 48.1386 25.9674 48.0283C25.9674 47.0584 25.8329 46.0665 26.0122 45.1186C26.1243 44.5234 26.8639 44.9863 27.3122 44.8761C27.5364 44.81 27.6933 44.9202 27.6933 45.1847C27.6709 45.6697 27.6933 46.1546 27.6933 46.6176Z" fill="#5FD3D1"/>
<path d="M31.1661 46.6397C31.1661 46.816 31.1886 47.0144 31.1661 47.1908C31.1437 47.5434 31.3455 48.0725 31.0765 48.2268C30.6954 48.4693 30.1351 48.2929 29.6644 48.2929C29.4851 48.2929 29.4627 48.1827 29.4627 48.0284C29.4627 47.0805 29.373 46.1106 29.4851 45.1848C29.5747 44.5014 30.2472 45.0084 30.6506 44.8982C30.8523 44.8321 31.211 44.766 31.1886 45.2068C31.1437 45.6697 31.1661 46.1547 31.1661 46.6397Z" fill="#5FD3D1"/>
<path d="M9.64876 41.6356C9.64876 42.4953 9.64876 42.4953 8.75218 42.4953C7.92285 42.4953 7.92285 42.4953 7.92285 41.5034C7.92285 40.7759 7.92285 40.7759 8.9315 40.7759C9.64876 40.7759 9.64876 40.7759 9.64876 41.6356Z" fill="#5FD3D1"/>
<path d="M13.1234 41.6577C13.1234 42.4953 13.1234 42.4953 12.2044 42.4953C11.3975 42.4953 11.3975 42.4953 11.3975 41.4813C11.3975 40.7759 11.3975 40.7759 12.4285 40.7759C13.1234 40.7759 13.1234 40.7759 13.1234 41.6577Z" fill="#5FD3D1"/>
<path d="M14.8721 41.6136C14.8721 40.7759 14.8721 40.7759 15.8359 40.7759C16.598 40.7759 16.598 40.7759 16.598 41.7679C16.598 42.6276 16.71 42.4953 15.6342 42.4953C14.7376 42.4953 14.8945 42.6056 14.8721 41.6136Z" fill="#5FD3D1"/>
</svg>
