<svg width="51" height="52" viewBox="0 0 51 52" fill="none" xmlns="http://www.w3.org/2000/svg">
<path d="M30.8468 49.0762C32.7387 48.4264 34.3716 47.533 35.8453 46.3757C36.4228 45.929 36.9605 45.4214 37.4982 44.8934C38.0159 44.3655 38.6133 44.3249 39.0315 44.7513C39.4696 45.198 39.4298 45.7868 38.9121 46.3148C34.4911 50.7005 29.194 52.6295 23.0604 51.797C14.8757 50.7005 8.58288 44.6092 6.94993 36.4264C5.03817 26.7615 10.7933 16.995 20.0932 14.2335C20.4119 14.132 20.5313 13.9899 20.5313 13.6447C20.5114 12.8731 20.5114 12.0813 20.5313 11.3097C20.5513 9.94928 21.527 8.97466 22.8812 8.95435C23.2994 8.95435 23.7176 8.93405 24.1159 8.95435C24.4544 8.97466 24.5341 8.85283 24.5341 8.52796C24.5142 6.15232 24.5341 3.75638 24.5341 1.38075C24.5341 1.23862 24.5341 1.07618 24.554 0.93405C24.6137 0.426436 25.0319 0.0406494 25.5298 0.0406494C26.0276 0.0406494 26.4657 0.406132 26.5056 0.93405C26.5454 1.25892 26.5255 1.5838 26.5255 1.88836C26.5255 4.06095 26.5454 6.25385 26.5255 8.42643C26.5255 8.83253 26.5852 9.01527 27.0233 8.95435C27.4415 8.91374 27.8796 8.93405 28.3178 8.95435C29.5325 8.99496 30.4884 9.96958 30.5083 11.2082C30.5282 12.0203 30.5282 12.8325 30.5083 13.6447C30.4884 13.9899 30.6079 14.132 30.9265 14.2335C35.0089 15.4924 38.3345 17.8478 40.8039 21.3807C44.2689 26.3148 45.2248 31.7767 43.8109 37.665C43.6317 38.396 43.2135 38.7005 42.6161 38.6193C42.1381 38.5381 41.7797 38.132 41.7996 37.6244C41.7996 37.4214 41.8593 37.2183 41.9191 37.0356C42.1581 36.0609 42.3174 35.0863 42.397 34.0914C42.4169 33.7868 42.3373 33.7259 42.0585 33.7259C39.9874 33.7259 37.9163 33.7259 35.8453 33.7259C35.5665 33.7259 35.4868 33.8274 35.4669 34.0914C35.3873 36.264 35.1483 38.396 34.6504 40.528C34.5907 40.7919 34.6504 40.8528 34.8894 40.8325C35.4271 40.8122 35.9449 40.8122 36.4825 40.8325C37.1198 40.8528 37.5579 41.2589 37.5579 41.8478C37.5579 42.4366 37.1198 42.8427 36.4825 42.863C35.7855 42.8833 35.0885 42.8833 34.3916 42.863C34.1128 42.863 33.9734 42.9442 33.8937 43.2082C33.2166 45.2792 32.2807 47.2285 30.8468 49.0762ZM24.4942 28.1219C24.4942 27.0863 24.4743 26.0508 24.4942 25.0356C24.4942 24.6904 24.4345 24.5686 24.0561 24.5686C22.3236 24.5889 20.611 24.5889 18.8785 24.5686C18.5798 24.5686 18.4603 24.6498 18.3806 24.9544C17.8828 27.0254 17.6438 29.1371 17.5243 31.2691C17.5044 31.5736 17.5841 31.6752 17.9027 31.6752C19.9737 31.6549 22.0448 31.6549 24.1159 31.6752C24.3947 31.6752 24.4942 31.5939 24.4743 31.3097C24.4942 30.2538 24.4942 29.198 24.4942 28.1219ZM24.4942 37.2792C24.4942 36.2234 24.4942 35.1472 24.4942 34.0914C24.4942 33.8071 24.4146 33.7259 24.1358 33.7259C22.0647 33.7462 19.9937 33.7462 17.9226 33.7259C17.604 33.7259 17.5243 33.8274 17.5442 34.132C17.6637 36.264 17.9027 38.3757 18.4005 40.4467C18.4802 40.7513 18.5997 40.8528 18.8984 40.8528C20.6309 40.8325 22.3834 40.8325 24.1159 40.8528C24.4345 40.8528 24.4942 40.7513 24.4942 40.4467C24.4942 39.3706 24.4942 38.3351 24.4942 37.2792ZM26.5056 28.1016C26.5056 29.1574 26.5255 30.2335 26.5056 31.2894C26.5056 31.5939 26.5653 31.6955 26.8839 31.6955C28.955 31.6752 31.0261 31.6752 33.0971 31.6955C33.3759 31.6955 33.4755 31.6143 33.4556 31.33C33.3361 29.1574 33.0971 27.0254 32.5794 24.9137C32.5196 24.6701 32.4201 24.5889 32.1811 24.5889C30.4087 24.5889 28.6364 24.6092 26.864 24.5889C26.5852 24.5889 26.5056 24.6701 26.5056 24.9544C26.5056 25.9899 26.5056 27.0457 26.5056 28.1016ZM26.5056 37.2183C26.5056 38.2741 26.5255 39.3503 26.5056 40.4061C26.5056 40.7513 26.6051 40.8325 26.9238 40.8122C28.6563 40.7919 30.3689 40.7919 32.1014 40.8122C32.44 40.8122 32.5395 40.6904 32.6192 40.3655C33.1171 38.2945 33.3361 36.2031 33.4755 34.0914C33.4954 33.7259 33.3759 33.6853 33.0573 33.6853C31.0261 33.7056 28.9749 33.7056 26.9437 33.6853C26.5653 33.6853 26.5056 33.8274 26.5255 34.1523C26.5056 35.1879 26.5056 36.2031 26.5056 37.2183ZM38.8921 31.6955C39.9277 31.6955 40.9831 31.6955 42.0187 31.6955C42.2377 31.6955 42.397 31.7158 42.3572 31.3909C42.178 29.0965 41.5805 26.9036 40.545 24.8528C40.4454 24.6498 40.326 24.5889 40.1268 24.5889C38.3744 24.5889 36.602 24.5889 34.8496 24.5889C34.5907 24.5889 34.5509 24.6498 34.6106 24.9137C35.0885 27.0254 35.3275 29.1777 35.4271 31.3503C35.447 31.6346 35.5267 31.7158 35.8055 31.7158C36.841 31.6752 37.8566 31.6955 38.8921 31.6955ZM12.0678 31.6955C13.0835 31.6955 14.0991 31.6752 15.0948 31.6955C15.4134 31.6955 15.5528 31.6346 15.5727 31.2691C15.6524 29.1574 15.8914 27.066 16.3494 24.995C16.429 24.6295 16.3494 24.5686 16.0108 24.5889C14.3181 24.6092 12.6254 24.6092 10.9327 24.5889C10.634 24.5889 10.4946 24.6904 10.3752 24.9544C9.39936 26.9645 8.80194 29.0762 8.62271 31.3097C8.58288 31.6955 8.72228 31.7158 9.02099 31.7158C10.0366 31.6752 11.0522 31.6955 12.0678 31.6955ZM16.4489 40.8325C15.9113 38.5584 15.6524 36.3046 15.5727 34.0102C15.5528 33.7462 15.4333 33.7259 15.2342 33.7259C13.1432 33.7259 11.0522 33.7259 8.96125 33.7259C8.70237 33.7259 8.62271 33.7868 8.64262 34.0711C8.82185 36.3452 9.41927 38.4772 10.415 40.5076C10.5345 40.7513 10.6739 40.8528 10.9527 40.8325C11.4903 40.8122 12.0479 40.8325 12.5856 40.8325C13.8601 40.8325 15.1346 40.8325 16.4489 40.8325ZM24.4942 46.3351C24.4942 45.2995 24.4743 44.264 24.4942 43.2488C24.4942 42.9239 24.3947 42.863 24.096 42.863C22.5626 42.8833 21.0093 42.8833 19.4759 42.863C19.1772 42.863 19.0975 42.9239 19.217 43.2285C19.7746 44.731 20.4517 46.1929 21.4275 47.4721C22.1444 48.4264 22.9808 49.2183 24.096 49.7056C24.4345 49.8477 24.5142 49.7868 24.5142 49.4214C24.4942 48.3655 24.4942 47.3503 24.4942 46.3351ZM19.0975 22.5584C20.85 22.5584 22.5227 22.5584 24.1955 22.5584C24.4544 22.5584 24.4942 22.4569 24.4942 22.2335C24.4942 20.1422 24.4942 18.0305 24.4942 15.9391C24.4942 15.5939 24.3548 15.6346 24.1358 15.7158C23.6379 15.9188 23.1799 16.1828 22.7617 16.528C20.9296 18.1117 19.9538 20.2437 19.0975 22.5584ZM31.9023 22.5584C31.046 20.2437 30.0702 18.0711 28.1584 16.4873C27.7602 16.1625 27.3021 15.8985 26.8242 15.6955C26.5454 15.5939 26.4857 15.6549 26.4857 15.9391C26.4857 18.0102 26.4857 20.1016 26.4857 22.1726C26.4857 22.3757 26.4657 22.5381 26.7445 22.5381C28.4572 22.5381 30.1498 22.5584 31.9023 22.5584ZM31.9023 42.863C30.1498 42.863 28.4771 42.863 26.7844 42.863C26.5255 42.863 26.4857 42.9848 26.4857 43.2082C26.4857 45.2995 26.4857 47.4112 26.4857 49.5026C26.4857 49.7665 26.5653 49.8274 26.8043 49.7259C27.322 49.5229 27.8 49.2386 28.2182 48.8731C30.0702 47.2894 31.046 45.1574 31.9023 42.863ZM30.9862 16.4264C32.3006 18.1929 33.2365 20.1422 33.8937 22.2335C33.9933 22.5381 34.1526 22.5584 34.4115 22.5584C35.8652 22.5584 37.3189 22.5584 38.7926 22.5584C38.8921 22.5584 39.0315 22.6193 39.1112 22.4569C37.0003 19.5939 34.3119 17.5635 30.9862 16.4264ZM20.0136 16.4264C16.6879 17.5838 13.9796 19.5939 11.8289 22.5584C13.5415 22.5584 15.1545 22.5584 16.7676 22.5584C16.9866 22.5584 17.0464 22.4366 17.1061 22.2741C17.7832 20.1625 18.6992 18.1929 20.0136 16.4264ZM11.8289 42.863C13.9995 45.8274 16.7078 47.8376 20.0335 48.995C18.7192 47.2285 17.7832 45.2589 17.1061 43.1472C17.0464 42.9442 16.9468 42.863 16.7277 42.863C15.1346 42.863 13.5415 42.863 11.8289 42.863ZM25.5099 13.4214C26.3861 13.4214 27.2623 13.4011 28.1385 13.4214C28.4173 13.4214 28.5169 13.3401 28.497 13.0559C28.4771 12.528 28.4771 12 28.497 11.4924C28.497 11.1472 28.3775 10.9848 28.039 10.9848C26.3463 10.9848 24.6536 10.9848 22.9609 10.9848C22.6223 10.9848 22.4829 11.1472 22.5028 11.4924C22.5227 12.0203 22.5227 12.5483 22.5028 13.0559C22.4829 13.3401 22.5825 13.4417 22.8613 13.4214C23.7375 13.4011 24.6137 13.4214 25.5099 13.4214Z" fill="#5FD3D1"/>
<path d="M12.7843 9.05585C12.4657 9.07615 12.2068 8.93402 11.9877 8.71067C10.8924 7.59392 9.77726 6.47717 8.68198 5.34011C8.18413 4.81219 8.18413 4.26397 8.68198 3.73605C9.77726 2.6193 10.8526 1.50255 11.9479 0.406102C12.4856 -0.142122 13.0033 -0.142122 13.5609 0.406102C14.6562 1.50255 15.7316 2.59899 16.787 3.71575C17.3446 4.28427 17.3247 4.8325 16.787 5.40103C15.7117 6.49747 14.6363 7.59392 13.5609 8.69037C13.3419 8.91372 13.1029 9.07615 12.7843 9.05585ZM14.7558 4.54823C14.696 4.48732 14.6761 4.42641 14.6164 4.3858C14.0588 3.81727 13.4813 3.24874 12.9436 2.65991C12.7843 2.49747 12.6847 2.53808 12.5453 2.68021C12.0076 3.22844 11.47 3.79696 10.9323 4.32488C10.7531 4.50762 10.773 4.60915 10.9323 4.77158C11.47 5.2995 11.9877 5.82742 12.5055 6.37564C12.6847 6.55839 12.7843 6.59899 12.9834 6.39595C13.5012 5.84773 14.0389 5.31981 14.5566 4.77158C14.6363 4.71067 14.696 4.62945 14.7558 4.54823Z" fill="#5FD3D1"/>
<path d="M4.44153 42.9442C4.78007 42.9239 5.01904 43.0863 5.2381 43.3096C6.33337 44.4264 7.42865 45.5228 8.50401 46.6396C9.04169 47.1878 9.04169 47.7157 8.50401 48.2843C7.42865 49.3807 6.35329 50.4975 5.27793 51.5736C4.72033 52.1421 4.20256 52.1421 3.64497 51.5736C2.56961 50.4772 1.49425 49.3807 0.418885 48.2843C-0.118795 47.736 -0.118795 47.2081 0.418885 46.6599C1.49425 45.5431 2.58952 44.4467 3.6848 43.3299C3.88394 43.0863 4.12291 42.9239 4.44153 42.9442ZM6.45286 47.4721C6.41303 47.4112 6.3732 47.3706 6.35329 47.3299C5.77578 46.7411 5.17835 46.132 4.60085 45.5431C4.44153 45.3604 4.34196 45.5025 4.24239 45.6041C3.70471 46.1523 3.16703 46.7005 2.62935 47.2487C2.47004 47.4112 2.43021 47.5127 2.60944 47.6954C3.16703 48.2233 3.70471 48.7919 4.22248 49.3401C4.38179 49.5025 4.48136 49.5228 4.66059 49.3401C5.19827 48.7716 5.75586 48.2233 6.31346 47.6548C6.3732 47.5939 6.41303 47.533 6.45286 47.4721Z" fill="#5FD3D1"/>
<path d="M42.1184 47.4518C42.0985 47.1269 42.2578 46.8833 42.4569 46.6802C43.5721 45.5432 44.6674 44.4061 45.8025 43.2894C46.2804 42.8021 46.8181 42.8021 47.296 43.2894C48.4311 44.4264 49.5463 45.5635 50.6615 46.7208C51.1195 47.1878 51.1195 47.7361 50.6615 48.2031C49.5463 49.3604 48.4311 50.4975 47.296 51.6345C46.8181 52.1219 46.2804 52.1219 45.8025 51.6345C44.6674 50.4975 43.5522 49.3401 42.4171 48.2031C42.2179 48 42.0985 47.7564 42.1184 47.4518ZM48.5506 47.4721C48.4909 47.4112 48.471 47.3503 48.4112 47.3097C47.8337 46.7208 47.2562 46.1523 46.6986 45.5432C46.5393 45.3604 46.4596 45.4823 46.3402 45.5838C45.7826 46.1523 45.2449 46.7005 44.6873 47.2691C44.528 47.4112 44.528 47.5127 44.6873 47.6752C45.225 48.2234 45.7826 48.7513 46.3003 49.3198C46.4796 49.5026 46.599 49.5229 46.7783 49.3198C47.296 48.7716 47.8337 48.2437 48.3515 47.6955C48.4311 47.6345 48.4909 47.5533 48.5506 47.4721Z" fill="#5FD3D1"/>
<path d="M5.97398 9.98986C5.97398 10.2335 5.9939 10.4569 5.97398 10.7005C5.93415 11.2487 5.49604 11.6548 4.99819 11.6548C4.48043 11.6548 4.04232 11.2487 4.00249 10.7208C3.98257 10.2132 3.96266 9.7056 4.00249 9.19799C4.04232 8.64976 4.50034 8.26398 4.99819 8.26398C5.49604 8.28428 5.91424 8.67007 5.95407 9.17768C5.9939 9.46195 5.97398 9.7259 5.97398 9.98986Z" fill="#5FD3D1"/>
<path d="M45.7432 8.64976C45.5042 8.64976 45.2851 8.67006 45.0462 8.64976C44.5085 8.60915 44.15 8.22336 44.1102 7.71575C44.0903 7.16753 44.4288 6.70052 44.9665 6.65991C45.4843 6.6193 46.022 6.6193 46.5596 6.65991C47.0973 6.70052 47.4558 7.18783 47.4159 7.71575C47.396 8.22336 47.0177 8.60915 46.48 8.64976C46.241 8.67006 45.9821 8.64976 45.7432 8.64976Z" fill="#5FD3D1"/>
<path d="M43.432 11.0051C43.432 11.2488 43.452 11.5127 43.432 11.7564C43.3922 12.2843 43.0138 12.6701 42.4961 12.6904C41.9783 12.7107 41.5004 12.3655 41.4605 11.8173C41.4207 11.2894 41.4207 10.7411 41.4605 10.1929C41.5004 9.64469 41.9783 9.29951 42.4961 9.31982C42.9939 9.36043 43.3723 9.72591 43.4121 10.2741C43.432 10.5381 43.432 10.7817 43.432 11.0051Z" fill="#5FD3D1"/>
<path d="M5.97437 16.7106C5.97437 16.9543 5.99428 17.2183 5.97437 17.4619C5.93454 18.0101 5.51634 18.3959 4.97866 18.3959C4.44098 18.3959 4.02278 18.0101 3.98296 17.4619C3.96304 16.9543 3.94313 16.4467 3.98296 15.9391C4.02278 15.3908 4.48081 15.0051 4.97866 15.0254C5.47651 15.0457 5.89471 15.4111 5.93454 15.9391C5.99428 16.203 5.97437 16.467 5.97437 16.7106Z" fill="#5FD3D1"/>
<path d="M8.28403 14.335C8.04507 14.335 7.78618 14.3553 7.54721 14.335C7.06928 14.2944 6.71082 13.9289 6.67099 13.4416C6.63116 12.934 6.89005 12.467 7.3879 12.3655C8.00524 12.2437 8.64249 12.2437 9.25983 12.3655C9.71785 12.467 10.0166 12.9137 9.97673 13.3807C9.9369 13.868 9.57845 14.2538 9.0806 14.3147C8.8018 14.3553 8.54292 14.335 8.28403 14.335Z" fill="#5FD3D1"/>
<path d="M43.432 4.28425C43.432 4.52791 43.452 4.75126 43.432 4.99491C43.3922 5.54314 42.9939 5.94923 42.4562 5.94923C41.9385 5.94923 41.5004 5.58375 41.4605 5.03552C41.4207 4.52791 41.4207 4.0203 41.4605 3.51268C41.5004 2.96446 41.9584 2.55837 42.4562 2.57867C42.9939 2.57867 43.4121 3.00507 43.432 3.57359C43.432 3.79695 43.432 4.0406 43.432 4.28425Z" fill="#5FD3D1"/>
<path d="M1.67265 14.335C1.41377 14.335 1.13497 14.3553 0.876088 14.335C0.398149 14.2944 0.0596098 13.9086 -0.000132521 13.4416C-0.0399607 12.9746 0.238837 12.5076 0.676947 12.4061C1.3142 12.264 1.97136 12.264 2.5887 12.4061C3.06664 12.5076 3.32552 12.9746 3.28569 13.4822C3.22595 13.9492 2.88741 14.3147 2.38956 14.3553C2.1705 14.3553 1.93154 14.335 1.67265 14.335Z" fill="#5FD3D1"/>
<path d="M39.111 8.64976C38.8721 8.64976 38.653 8.67007 38.414 8.64976C37.8764 8.60915 37.4781 8.20306 37.4383 7.69545C37.4183 7.18783 37.7967 6.70052 38.3344 6.65991C38.8522 6.6193 39.3699 6.6193 39.8678 6.65991C40.4055 6.70052 40.7639 7.14722 40.744 7.69545C40.7241 8.22337 40.3457 8.62946 39.7881 8.67007C39.589 8.67007 39.35 8.64976 39.111 8.64976Z" fill="#5FD3D1"/>
<path d="M41.023 42.8427C40.4655 42.8427 40.0273 42.3756 40.0273 41.8071C40.0473 41.2589 40.4854 40.8122 41.023 40.8122C41.5806 40.8122 42.0387 41.2995 42.0188 41.8477C42.0188 42.396 41.5607 42.8427 41.023 42.8427Z" fill="#5FD3D1"/>
</svg>
