<svg width="44" height="48" viewBox="0 0 44 48" fill="none" xmlns="http://www.w3.org/2000/svg">
<path d="M21.9817 48C15.0363 48 8.09087 48 1.16392 48C0.461991 48 0.0740818 47.719 0.000194329 47.1944C-0.0736932 46.5949 0.314216 46.1452 0.94226 46.1265C1.62572 46.1077 2.29071 46.1077 2.97417 46.1265C3.28819 46.1452 3.36208 46.0328 3.36208 45.733C3.3436 44.0656 3.36208 42.3981 3.36208 40.7307C3.36208 35.3349 3.36208 29.9204 3.36208 24.5246C3.36208 23.3255 3.60221 23.082 4.80288 23.082C6.02203 23.082 7.24117 23.0632 8.44184 23.1007C8.90364 23.1195 8.97752 22.9696 8.97752 22.5199C8.95905 18.6417 8.95905 14.7447 8.95905 10.8665C8.95905 9.81734 9.2546 9.51758 10.2706 9.51758C18.0657 9.51758 25.8793 9.51758 33.6744 9.51758C34.6719 9.51758 34.9674 9.81734 34.9674 10.8291C34.9674 14.7447 34.9674 18.6604 34.949 22.5761C34.949 22.9883 35.0598 23.1007 35.4662 23.082C36.7962 23.0632 38.1077 23.0632 39.4376 23.0632C40.2504 23.0632 40.5829 23.4005 40.5829 24.2436C40.5829 27.3349 40.5829 30.4262 40.5829 33.5176C40.5829 37.5457 40.5829 41.5738 40.5829 45.6019C40.5829 45.9953 40.6383 46.164 41.0816 46.1265C41.6727 46.089 42.2823 46.1077 42.8734 46.1077C43.5569 46.1077 43.9632 46.4637 43.9448 47.0445C43.9448 47.6253 43.5384 47.9813 42.8549 47.9813C38.0153 47.9813 33.1941 47.9813 28.3545 47.9813C26.2672 48 24.1245 48 21.9817 48ZM33.1572 28.7588C33.1572 23.1757 33.1572 17.5738 33.1572 11.9906C33.1572 11.3724 33.1572 11.3724 32.5661 11.3724C25.5099 11.3724 18.4721 11.3724 11.4158 11.3724C10.8247 11.3724 10.8247 11.3724 10.8247 11.9719C10.8247 22.445 10.8247 32.9181 10.8247 43.3911C10.8247 44.178 10.8432 44.9462 10.8247 45.733C10.8247 46.0328 10.9171 46.1077 11.1941 46.1077C12.1547 46.089 13.0968 46.089 14.0573 46.1077C14.4637 46.1265 14.5191 45.9766 14.5191 45.6019C14.5006 41.7049 14.5006 37.7892 14.5191 33.8923C14.5191 33.4426 14.4452 33.2178 13.928 33.2553C13.4662 33.2928 13.1152 32.8993 13.0783 32.4497C13.0229 31.9625 13.2999 31.5504 13.7987 31.4567C13.9834 31.4192 14.1866 31.4192 14.3898 31.4192C18.5829 31.4192 22.7945 31.4192 26.9876 31.4192C27.9481 31.4192 28.9271 31.4005 29.8877 31.4192C30.4973 31.438 30.8852 31.8314 30.8852 32.356C30.8852 32.8993 30.4973 33.274 29.8877 33.274C29.5552 33.274 29.4444 33.349 29.4444 33.7049C29.4628 37.6956 29.4628 41.7049 29.4444 45.6956C29.4444 46.0328 29.5552 46.1077 29.8692 46.1077C30.7928 46.089 31.7164 46.089 32.64 46.1077C33.0464 46.1265 33.1572 46.0141 33.1572 45.6019C33.1572 40 33.1572 34.3794 33.1572 28.7588ZM35.0044 35.4848C35.0044 38.8759 35.0044 42.267 35.0044 45.6394C35.0044 45.9766 35.0598 46.1265 35.4477 46.1265C36.4083 46.089 37.3873 46.1077 38.3478 46.1265C38.6434 46.1265 38.7727 46.0703 38.7727 45.7143C38.7542 38.9321 38.7542 32.1312 38.7727 25.349C38.7727 25.0117 38.6434 24.9368 38.3478 24.9368C37.3873 24.9555 36.4452 24.9743 35.4847 24.9368C35.0413 24.9181 34.9859 25.0679 34.9859 25.4614C35.0044 28.815 35.0044 32.1499 35.0044 35.4848ZM8.996 35.541C8.996 32.1686 8.996 28.7963 8.996 25.4239C8.996 25.0867 8.94058 24.9368 8.55267 24.9555C7.59213 24.993 6.61312 24.9743 5.65259 24.9555C5.35704 24.9555 5.22773 25.0117 5.22773 25.3677C5.24621 32.1499 5.24621 38.9508 5.22773 45.733C5.22773 46.0703 5.35704 46.1452 5.65259 46.1452C6.61312 46.1265 7.55519 46.1077 8.51573 46.1452C8.95905 46.164 9.01447 45.9953 9.01447 45.6206C8.97752 42.2483 8.996 38.8946 8.996 35.541ZM22.9238 39.7003C22.9238 41.7049 22.9423 43.6909 22.9238 45.6956C22.9238 46.0515 23.0161 46.1265 23.3671 46.1265C24.6417 46.1077 25.9162 46.1077 27.1908 46.1265C27.5233 46.1265 27.6341 46.0703 27.6341 45.6956C27.6156 41.7049 27.6156 37.7143 27.6341 33.7049C27.6341 33.3677 27.5418 33.2928 27.2093 33.2928C25.9162 33.3115 24.6232 33.3115 23.3302 33.2928C22.9607 33.2928 22.9053 33.4239 22.9053 33.7611C22.9238 35.7471 22.9238 37.7143 22.9238 39.7003ZM21.0766 39.7565C21.0766 37.7518 21.0581 35.7658 21.0766 33.7611C21.0766 33.3864 20.9658 33.2928 20.6148 33.2928C19.3587 33.3115 18.0842 33.3115 16.8281 33.2928C16.4771 33.2928 16.3663 33.3677 16.3663 33.7611C16.3847 37.733 16.3847 41.7237 16.3663 45.6956C16.3663 46.0703 16.4771 46.1265 16.8096 46.1265C18.0657 46.1077 19.3402 46.1077 20.5963 46.1265C20.9658 46.1265 21.0951 46.0515 21.0766 45.6394C21.0581 43.6909 21.0766 41.7237 21.0766 39.7565Z" fill="#5FD3D1"/>
<path d="M22.0191 0.038269C22.3331 0.038269 22.6472 0.188152 22.7949 0.487918C23.2198 1.38722 23.9402 1.81813 24.8823 2.02422C25.6027 2.19284 25.8613 2.96099 25.3625 3.52305C24.716 4.25373 24.4574 5.04061 24.5682 6.01485C24.6421 6.76426 24.0141 7.17644 23.3122 6.97035C23.2752 6.97035 23.2567 6.95162 23.2198 6.95162C22.407 6.48323 21.6127 6.57691 20.7815 6.93288C20.0242 7.27012 19.3592 6.783 19.4515 5.95864C19.5439 5.00314 19.2853 4.25373 18.6757 3.54178C18.14 2.94225 18.4171 2.23031 19.1929 1.98675C19.2299 1.98675 19.2483 1.96801 19.2853 1.96801C20.135 1.8556 20.7446 1.40595 21.1325 0.619065C21.2802 0.300564 21.5573 0.0570044 22.0191 0.038269ZM20.9108 3.4481C21.1509 3.78534 21.3541 4.12258 21.3172 4.53476C21.2987 4.77832 21.465 4.72211 21.5943 4.6659C21.9268 4.51602 22.3147 4.77832 22.5733 4.6659C22.8134 4.55349 22.6287 4.0289 22.8688 3.74787C22.9058 3.7104 22.9242 3.67293 22.9427 3.63546C23.072 3.46684 23.0166 3.41063 22.8319 3.35443C22.5179 3.27949 22.2777 3.09213 22.1115 2.8111C22.0376 2.67996 21.9452 2.62375 21.8529 2.79237C21.6682 3.18581 21.3172 3.33569 20.9108 3.4481Z" fill="#5FD3D1"/>
<path d="M28.1148 5.43325C28.281 4.88992 28.0778 4.44028 27.7084 4.04683C27.5422 3.85948 27.3944 3.65339 27.2651 3.4473C26.9326 2.90398 27.1173 2.21077 27.7269 2.07962C28.7613 1.87353 29.4632 1.33021 29.9989 0.412173C30.3129 -0.149888 31.1257 -0.131153 31.4397 0.430908C31.9385 1.33021 32.6404 1.83606 33.6379 2.06088C34.3029 2.21077 34.543 2.99765 34.0812 3.50351C33.3977 4.27166 33.1576 5.07728 33.25 6.08899C33.3238 6.7822 32.6589 7.25058 32.0308 6.96955C31.1257 6.55737 30.2945 6.55737 29.4078 6.95081C28.7244 7.25058 28.1517 6.80093 28.1148 6.03278C28.1148 5.84543 28.1148 5.63934 28.1148 5.43325ZM31.7907 3.4473C31.3104 3.33489 30.941 3.11006 30.7008 2.60421C30.4607 3.09133 30.0913 3.33489 29.611 3.46604C29.8881 3.82201 29.925 4.21545 30.0543 4.55269C30.2021 4.90866 30.7193 4.42154 31.0518 4.64636C31.0888 4.6651 31.1442 4.68384 31.1811 4.70257C31.3104 4.74004 31.4028 4.68384 31.3843 4.53395C31.3289 4.12177 31.5321 3.80327 31.7907 3.4473Z" fill="#5FD3D1"/>
<path d="M10.7319 5.39577C10.8797 4.87118 10.6395 4.40279 10.2331 3.97188C10.1038 3.822 9.97454 3.65338 9.88218 3.48476C9.53121 2.9227 9.71593 2.19202 10.3624 2.06087C11.3415 1.85478 12.0434 1.36766 12.5421 0.468365C12.8931 -0.168637 13.7059 -0.149902 14.0568 0.487101C14.5556 1.34893 15.2205 1.85478 16.1996 2.04214C16.9015 2.19202 17.0862 2.9227 16.6798 3.52223C16.6614 3.5597 16.6244 3.59717 16.6059 3.63464C15.9779 4.27164 15.7562 5.00232 15.8671 5.90162C15.9779 6.78218 15.3314 7.2131 14.5001 6.93207C14.4447 6.91333 14.3893 6.89459 14.3339 6.85712C13.6504 6.48242 12.967 6.48242 12.2835 6.85712C11.4523 7.30677 10.6026 6.80092 10.7504 5.733C10.7319 5.6768 10.7319 5.58312 10.7319 5.39577ZM12.1727 3.42855C12.4682 3.78452 12.5052 4.17797 12.6345 4.53394C12.8007 4.96485 13.3364 4.38406 13.6689 4.66509C13.7059 4.68382 13.7613 4.70256 13.7982 4.70256C13.9275 4.74003 13.9829 4.68382 13.9645 4.57141C13.909 4.1405 14.1492 3.80326 14.3708 3.42855C13.8536 3.35361 13.5396 3.07258 13.281 2.62293C13.0409 3.09132 12.7084 3.35361 12.1727 3.42855Z" fill="#5FD3D1"/>
<path d="M17.4194 28.815C16.6251 28.815 15.8124 28.815 15.0181 28.815C14.3716 28.815 14.0021 28.4778 14.0021 27.822C13.9837 26.5668 13.9837 25.2928 14.0021 24.0375C14.0206 23.4005 14.3716 23.0632 14.9996 23.0445C16.6436 23.0258 18.2876 23.0258 19.9316 23.0445C20.5597 23.0445 20.8921 23.4192 20.8921 24.0562C20.8921 25.3115 20.9106 26.5855 20.8921 27.8408C20.8921 28.4778 20.5412 28.815 19.9131 28.815C19.0819 28.815 18.2507 28.815 17.4194 28.815ZM17.4564 26.9227C17.8997 26.9227 18.343 26.9227 18.7864 26.9227C18.9895 26.9227 19.0634 26.8478 19.0634 26.6604C19.045 26.1546 19.0634 25.6675 19.0634 25.1616C19.0634 24.9555 18.9711 24.8993 18.7864 24.8993C17.9182 24.8993 17.0315 24.8993 16.1633 24.8993C15.9417 24.8993 15.8493 24.9742 15.8678 25.1991C15.8678 25.6675 15.8863 26.1358 15.8678 26.6042C15.8493 26.8853 15.9786 26.9415 16.2188 26.9415C16.6251 26.9227 17.0315 26.9415 17.4564 26.9227Z" fill="#5FD3D1"/>
<path d="M26.5256 28.815C25.7313 28.815 24.9186 28.815 24.1243 28.815C23.4408 28.815 23.0898 28.4778 23.0898 27.7846C23.0898 26.5293 23.0898 25.2927 23.0898 24.0375C23.0898 23.4005 23.4223 23.0445 24.0504 23.0258C25.6944 23.007 27.3384 23.007 28.9824 23.0258C29.6289 23.0258 29.9614 23.4005 29.9799 24.0562C29.9983 25.2927 29.9983 26.5293 29.9799 27.7471C29.9799 28.459 29.6289 28.7963 28.9085 28.7963C28.1327 28.815 27.3199 28.815 26.5256 28.815ZM26.5256 26.9227C26.9505 26.9227 27.3938 26.904 27.8186 26.9227C28.0588 26.9227 28.1511 26.8665 28.1511 26.6042C28.1327 26.1358 28.1327 25.6675 28.1511 25.1991C28.1511 24.9555 28.0588 24.8806 27.8186 24.8806C26.9689 24.8806 26.1192 24.8993 25.288 24.8806C25.0294 24.8806 24.937 24.9555 24.937 25.2178C24.9555 25.6675 24.9555 26.1171 24.937 26.5668C24.9186 26.8478 25.0294 26.9227 25.288 26.904C25.6944 26.9227 26.1192 26.9415 26.5256 26.9227Z" fill="#5FD3D1"/>
<path d="M17.474 14.6136C18.2682 14.6136 19.081 14.6136 19.8753 14.6136C20.5588 14.6136 20.9097 14.9508 20.9097 15.644C20.9097 16.8993 20.9097 18.1358 20.9097 19.3911C20.9097 20.0281 20.5772 20.3841 19.9492 20.3841C18.3052 20.4028 16.6612 20.4028 15.0172 20.3841C14.3892 20.3841 14.0382 20.0281 14.0197 19.3911C14.0012 18.1358 14.0012 16.8618 14.0197 15.6066C14.0382 14.9508 14.3892 14.6136 15.0357 14.6136C15.8484 14.6136 16.6612 14.6136 17.474 14.6136ZM17.437 18.5293C17.8619 18.5293 18.3052 18.5105 18.73 18.5293C18.9886 18.548 19.081 18.4356 19.0625 18.1733C19.0441 17.7237 19.0441 17.274 19.0625 16.8244C19.0625 16.5808 19.0071 16.4871 18.7485 16.4871C17.8803 16.5059 17.0306 16.5059 16.1625 16.4871C15.9223 16.4871 15.83 16.5621 15.83 16.8056C15.8484 17.2553 15.8484 17.7049 15.83 18.1546C15.83 18.4169 15.9038 18.5293 16.1625 18.5105C16.6058 18.5105 17.0122 18.5293 17.437 18.5293Z" fill="#5FD3D1"/>
<path d="M26.5442 14.6136C27.3385 14.6136 28.1512 14.6136 28.9455 14.6136C29.629 14.6136 29.9984 14.9508 29.9984 15.6253C30.0169 16.8806 30.0169 18.1171 29.9984 19.3724C29.9984 20.0281 29.6474 20.3841 29.0009 20.3841C27.3754 20.4028 25.7499 20.4028 24.1059 20.3841C23.4224 20.3841 23.1084 20.0281 23.1084 19.3162C23.1084 18.0984 23.1084 16.8806 23.1084 15.6628C23.1084 14.9321 23.4409 14.6136 24.1613 14.5948C24.9371 14.6136 25.7314 14.6136 26.5442 14.6136ZM26.5257 18.5293C26.9506 18.5293 27.3939 18.5293 27.8187 18.5293C28.0589 18.5293 28.1512 18.4543 28.1512 18.2108C28.1327 17.7424 28.1512 17.274 28.1512 16.8056C28.1512 16.5995 28.0958 16.4871 27.8557 16.5059C26.9875 16.5059 26.1008 16.5059 25.2327 16.5059C25.011 16.5059 24.9371 16.5808 24.9371 16.8056C24.9556 17.274 24.9556 17.7424 24.9371 18.2108C24.9186 18.4918 25.0479 18.5667 25.2881 18.548C25.6945 18.5105 26.1193 18.5293 26.5257 18.5293Z" fill="#5FD3D1"/>
</svg>
