<svg width="46" height="46" viewBox="0 0 46 46" fill="none" xmlns="http://www.w3.org/2000/svg">
<path d="M40.9339 29.9063C41.4009 30.7505 41.5625 31.5947 41.2572 32.4928C41.0776 33.0137 40.8081 33.4627 40.3771 33.8219C37.2338 36.4084 34.1084 39.0129 30.9651 41.5994C29.8515 42.5154 28.5762 42.9285 27.1572 42.9285C21.3376 42.9285 15.518 42.9285 9.69841 42.9106C9.28529 42.9106 9.15956 43.0004 9.17752 43.4315C9.21345 44.0062 9.19549 44.5631 9.17752 45.1378C9.15956 45.6767 8.87217 45.982 8.33332 45.982C5.65702 45.982 2.98073 45.982 0.304427 46C0.0529623 46 0.0170388 45.9102 -0.000922951 45.6946C-0.0368464 44.4733 -0.0548082 44.4733 1.18455 44.4733C3.1783 44.4733 5.17206 44.4553 7.14785 44.4733C7.52504 44.4733 7.65078 44.4194 7.65078 43.9883C7.63281 40.4498 7.63281 36.9293 7.65078 33.3909C7.65078 33.0316 7.54301 32.9598 7.20173 32.9598C4.93855 32.9777 2.67538 32.9598 0.430159 32.9777C0.0888857 32.9777 -0.000922951 32.8879 0.0170388 32.5467C0.0350005 31.433 0.0170388 31.433 1.13067 31.433C3.44773 31.433 5.76479 31.433 8.08186 31.433C8.2974 31.433 8.5309 31.3971 8.74644 31.5049C8.87217 31.5767 8.96198 31.5228 9.06975 31.451C9.64453 30.966 10.2373 30.4811 10.8839 29.9242C10.6504 29.9063 10.5067 29.9063 10.363 29.9063C8.7644 29.9063 7.16581 29.9063 5.56721 29.9063C2.65741 29.8883 0.484044 28.0203 0.0529623 25.1464C0.0170388 24.9488 0.0170388 24.7333 0.0170388 24.5178C0.0529623 24.0508 0.34035 23.7813 0.86124 23.7634C1.45398 23.7454 2.06468 23.7454 2.65741 23.7634C2.98073 23.7813 3.0885 23.6736 3.0885 23.3503C3.25015 18.1773 5.06429 13.6868 8.65663 9.96876C12.231 6.25068 16.6316 4.23897 21.7687 3.87973C22.1279 3.86177 22.2537 3.754 22.2357 3.39477C22.1998 2.89184 22.2177 2.37095 22.2357 1.86802C22.2357 1.61656 22.1639 1.50879 21.9124 1.52675C21.607 1.54471 21.3197 1.52675 21.0143 1.52675C20.7808 1.54471 20.709 1.4549 20.691 1.2214C20.6371 0 20.6191 0 21.8405 0C22.8644 0 23.8702 0.0179617 24.894 0C25.2174 0 25.3431 0.0538852 25.3251 0.41312C25.3251 1.52675 25.3251 1.54471 24.2115 1.52675C23.8882 1.52675 23.7445 1.58063 23.7804 1.93987C23.8163 2.4428 23.7984 2.96369 23.7804 3.46661C23.7625 3.78993 23.8882 3.86177 24.1935 3.87973C28.8097 4.16712 32.8511 5.83756 36.2997 8.92698C39.9999 12.2499 42.1732 16.417 42.8019 21.3745C42.8917 22.0211 42.9456 22.6857 42.9456 23.3503C42.9456 23.7274 43.0713 23.7993 43.4126 23.7813C43.9874 23.7634 44.5442 23.7634 45.119 23.7813C45.7656 23.7993 46.035 24.1046 46.017 24.7513C45.9632 27.2479 43.9514 29.5111 41.4727 29.8524C41.3111 29.8524 41.1674 29.8704 40.9339 29.9063ZM23.026 23.7275C28.9893 23.7275 34.9706 23.7275 40.9339 23.7275C41.2931 23.7275 41.4188 23.6556 41.4009 23.2604C41.2931 20.5841 40.6824 18.0336 39.479 15.6267C37.0721 10.8848 33.3361 7.6517 28.2529 6.16087C22.3794 4.43655 16.8831 5.40648 11.9796 9.1066C7.3095 12.6091 4.92059 17.387 4.61524 23.2066C4.59728 23.6556 4.72301 23.7454 5.1541 23.7454C11.0994 23.7274 17.0627 23.7275 23.026 23.7275ZM18.5176 41.4018C21.3376 41.4018 24.1756 41.3838 26.9956 41.4018C28.2349 41.4198 29.2947 41.0426 30.2466 40.2343C31.8991 38.8333 33.5875 37.4682 35.258 36.0851C36.6051 34.9715 37.9522 33.8579 39.2994 32.7442C39.8023 32.3311 40.0178 31.7923 39.8023 31.1456C39.6047 30.5349 39.1736 30.2116 38.545 30.1398C38.078 30.0859 37.7008 30.3014 37.3415 30.5529C34.5934 32.5107 31.8452 34.4865 29.0971 36.4444C28.7558 36.6958 28.3966 36.8036 27.9655 36.8036C25.1455 36.7856 22.3076 36.8036 19.4876 36.8036C19.272 36.8036 19.0744 36.7856 18.8589 36.7677C17.7273 36.624 16.8831 35.654 16.8831 34.4865C16.8831 33.319 17.7453 32.367 18.8948 32.2233C19.7211 32.1335 20.5473 32.1874 21.3556 32.1874C22.3076 32.1695 23.2775 32.1874 24.2295 32.1695C24.7144 32.1515 25.0377 31.8641 25.2174 31.433C25.397 31.002 25.2712 30.6068 24.9659 30.2655C24.6965 29.9781 24.3372 29.9063 23.9421 29.9063C20.7449 29.9063 17.5297 29.9242 14.3325 29.9063C13.6141 29.9063 13.0213 30.1218 12.4825 30.5709C11.4946 31.3971 10.5067 32.2233 9.5188 33.0316C9.28529 33.2292 9.19549 33.4268 9.19549 33.7142C9.21345 36.1031 9.21345 38.51 9.19549 40.8989C9.19549 41.294 9.30326 41.4018 9.69841 41.4018C12.6441 41.3838 15.5899 41.4018 18.5176 41.4018ZM1.65156 25.3081C1.93894 26.5295 2.60353 27.3737 3.64531 27.9305C4.29193 28.2718 5.0104 28.3616 5.72887 28.3616C11.6742 28.3616 17.6195 28.3436 23.5469 28.3436C29.151 28.3436 34.7371 28.3616 40.3411 28.3616C42.263 28.3616 43.7898 27.3198 44.2748 25.6853C44.3646 25.3799 44.3107 25.2722 43.9694 25.2901C43.3048 25.326 42.6582 25.326 41.9936 25.326C29.115 25.326 16.2544 25.3081 3.37588 25.3081C2.81907 25.3081 2.26226 25.3081 1.65156 25.3081ZM26.6184 29.9242C26.8339 30.5349 26.9237 31.1277 26.7441 31.7384C26.3849 32.9957 25.379 33.7142 23.9421 33.7321C22.3974 33.7501 20.8526 33.7321 19.3259 33.7321C18.7691 33.7321 18.4458 34.0195 18.4278 34.4686C18.4099 34.9356 18.7511 35.223 19.3259 35.2589C19.3978 35.2589 19.4696 35.2589 19.5414 35.2589C22.2716 35.2589 24.9839 35.2589 27.714 35.2589C28.0014 35.2589 28.2349 35.187 28.4505 35.0254C30.6777 33.4268 32.9229 31.8282 35.1682 30.2296C35.2759 30.1398 35.4196 30.0859 35.5094 29.9242C32.5278 29.9242 29.5821 29.9242 26.6184 29.9242Z" fill="#5FD3D1"/>
<path d="M6.14274 40.6115C6.14274 41.8867 5.10096 42.9285 3.84364 42.9285C2.60428 42.9285 1.5625 41.8688 1.5625 40.6294C1.5625 39.3721 2.60428 38.3303 3.87956 38.3303C5.11892 38.3483 6.14274 39.3541 6.14274 40.6115ZM3.8616 41.3838C4.27472 41.3838 4.61599 41.0066 4.59803 40.5935C4.58007 40.1804 4.2388 39.875 3.84364 39.875C3.43052 39.875 3.07129 40.2522 3.08925 40.6653C3.10721 41.0425 3.46644 41.4018 3.8616 41.3838Z" fill="#5FD3D1"/>
<path d="M23.0089 7.7056C23.0089 8.44204 23.0089 8.44204 22.3084 8.47796C18.77 8.67554 15.6446 9.9149 12.9683 12.2499C12.6271 12.5373 12.4474 12.5912 12.1421 12.214C11.5134 11.4776 11.4775 11.4776 12.2139 10.8669C15.1776 8.38815 18.5904 7.09491 22.4342 6.93325C23.1167 6.89733 22.991 6.84344 23.0089 7.4721C23.0089 7.54395 23.0089 7.63376 23.0089 7.7056Z" fill="#5FD3D1"/>
<path d="M10.1483 15.3034C9.96873 15.1956 9.77115 15.0519 9.57357 14.9262C8.92695 14.4951 8.92695 14.4951 9.37599 13.8665C9.64542 13.5072 9.9328 13.166 10.2022 12.8067C10.328 12.6271 10.4357 12.5732 10.6153 12.7528C10.8848 13.0223 11.3338 13.2378 11.4416 13.5432C11.5494 13.9024 11.0464 14.1359 10.8489 14.4412C10.7052 14.6748 10.5435 14.8723 10.3818 15.0879C10.31 15.1956 10.2741 15.2854 10.1483 15.3034Z" fill="#5FD3D1"/>
</svg>
