<svg width="36" height="50" viewBox="0 0 36 50" fill="none" xmlns="http://www.w3.org/2000/svg">
<path d="M23.1671 49.1321C20.2241 49.1321 17.2812 49.1321 14.3382 49.1321C14.1376 49.1321 14.0038 49.1321 13.8031 49.1321C13.4687 49.0651 13.2012 48.7973 13.268 48.4625C13.268 48.1276 13.4687 47.8598 13.8031 47.7928C13.9369 47.7259 14.1376 47.7928 14.3382 47.7928C18.4182 47.7928 22.4982 47.7928 26.5782 47.7928C26.9796 47.7928 27.1133 47.7259 27.1133 47.2571C27.1133 45.3152 27.1133 43.3733 27.1133 41.4314C27.1133 41.2305 27.1133 41.0296 27.1802 40.8956C27.314 40.5608 27.5146 40.3599 27.916 40.4269C28.2504 40.4269 28.451 40.6278 28.5179 40.9626C28.5848 41.0965 28.5179 41.2974 28.5179 41.4314C28.5179 43.3733 28.5179 45.3822 28.5179 47.3241C28.5179 47.6589 28.5848 47.7928 28.9861 47.7928C29.9894 47.7928 30.9927 47.7928 31.9291 47.7928C32.0628 47.7928 32.2635 47.7928 32.3973 47.7928C33.2668 47.6589 33.6681 47.2571 33.5343 46.3866C33.4006 45.2482 33.133 44.1099 32.9324 43.0385C32.4642 40.7617 31.996 38.418 31.5278 36.1413C31.2602 34.6681 30.3907 33.7306 28.9192 33.2619C27.3809 32.7931 25.8425 32.3914 24.3041 31.9226C23.9697 31.8557 23.8359 31.8557 23.7691 32.1905C23.4346 33.2619 23.0333 34.2663 22.6989 35.2708C22.4313 35.9404 21.9631 36.3422 21.2943 36.3422C21.0936 36.3422 20.9599 36.4091 20.8261 36.5431C20.2241 37.0788 19.6222 37.6145 18.9533 38.1502C18.0838 38.8868 17.2143 38.8868 16.2779 38.1502C15.6759 37.6145 15.0739 37.0788 14.472 36.5431C14.3382 36.4091 14.2044 36.3422 14.0038 36.3422C13.268 36.3422 12.7998 35.9404 12.5992 35.3377C12.1979 34.2663 11.8634 33.2619 11.4621 32.1905C11.3284 31.8557 11.1946 31.8557 10.9271 31.9226C9.38869 32.3914 7.85033 32.8601 6.31196 33.3288C4.90737 33.7306 4.03786 34.6681 3.77031 36.1413C3.10146 39.4225 2.43261 42.7037 1.83064 45.9848C1.83064 46.1188 1.76375 46.2527 1.76375 46.3866C1.5631 47.1902 1.89752 47.6589 2.9008 47.7259C4.03786 47.7928 5.24179 47.7259 6.37885 47.7259C6.71327 47.7259 6.64639 47.525 6.64639 47.3241C6.64639 45.3822 6.64639 43.3733 6.64639 41.4314C6.64639 41.2305 6.64639 41.0965 6.71327 40.8956C6.78016 40.4939 7.0477 40.3599 7.44901 40.3599C7.85032 40.3599 8.05098 40.6278 8.11787 40.9626C8.11787 41.0965 8.11787 41.2974 8.11787 41.4314C8.11787 43.3733 8.11787 45.3152 8.11787 47.2571C8.11787 47.6589 8.25164 47.7259 8.58606 47.7259C9.25492 47.7259 9.85689 47.7259 10.5257 47.7259C11.0608 47.7259 11.3953 47.9937 11.3953 48.3955C11.3953 48.8642 11.0608 49.1321 10.5257 49.1321C8.05098 49.1321 5.57622 49.1321 3.16835 49.1321C1.62998 49.1321 0.693586 48.4625 0.359159 47.1902C0.158502 46.5205 0.292273 45.7839 0.426044 45.1143C1.02801 42.034 1.69687 38.8868 2.29884 35.8065C2.70015 33.6637 3.90409 32.3244 5.97753 31.7217C7.64967 31.253 9.38869 30.7173 11.0608 30.2486C11.8635 29.9807 12.4654 29.378 13.2012 28.9763C13.4687 28.7754 13.3349 27.704 13.0005 27.5031C11.3284 26.4986 10.0575 25.0924 9.25492 23.3514C8.71984 22.213 8.38541 21.0747 8.38541 19.8024C8.38541 19.4675 8.31852 19.2667 7.91721 19.1327C6.17819 18.664 5.30868 16.9899 5.84376 15.4498C5.91065 15.2489 6.04442 14.981 6.17819 14.7801C6.51262 14.4453 6.5795 14.0436 6.5795 13.5748C6.5795 12.0347 6.44573 10.4276 6.78016 8.88742C6.91393 8.28475 7.18147 8.0169 7.64967 8.15083C8.05098 8.21779 8.25164 8.61957 8.18475 9.15527C7.91721 10.4945 8.05098 11.9007 8.05098 13.24C8.05098 13.307 7.9841 13.5079 8.18475 13.5079C8.31852 13.5079 8.45229 13.5079 8.51918 13.3739C8.85361 12.7043 9.38869 12.5704 10.0575 12.5704C13.8031 12.3025 17.4149 11.2311 20.9599 9.95882C22.03 9.55704 22.9664 9.69097 23.9028 10.4276C24.7055 11.0972 25.5081 11.6999 26.3107 12.3025C26.6451 12.5704 26.9127 12.8382 27.0464 13.24C27.1133 13.4409 27.2471 13.5748 27.4478 13.5748C27.6484 13.5079 27.5815 13.307 27.5815 13.173C27.5815 11.6329 27.5815 10.0927 27.5815 8.48564C27.5815 5.40535 24.8392 3.8652 22.7658 4.33394C22.3645 4.40091 22.03 4.33394 21.6956 4.06609C17.6156 1.18669 12.3985 1.99024 9.52246 5.87409C9.45557 6.00801 9.38869 6.07498 9.25492 6.2089C8.98738 6.54372 8.58606 6.61068 8.25164 6.40979C7.91721 6.2089 7.85032 5.74016 8.11787 5.33839C8.71984 4.40091 9.45557 3.59735 10.3251 2.99469C13.9369 0.316174 18.3513 0.249211 22.03 2.72684C22.2307 2.86076 22.3645 2.92772 22.632 2.92772C26.0432 2.59291 28.7186 5.00357 28.7855 8.48564C28.7855 10.3606 28.7855 12.1686 28.7855 14.0436C28.7855 14.2444 28.7855 14.4453 28.9192 14.5793C30.1901 15.9185 29.7887 17.9944 27.9828 18.9318C27.9159 18.9988 27.7822 19.0658 27.7153 19.0658C27.1133 19.1327 27.0464 19.5345 26.9796 20.0702C26.712 23.2175 25.2405 25.6951 22.5651 27.3692C22.03 27.704 21.8294 28.2397 22.03 28.7754C22.0969 28.9093 22.1638 28.9763 22.2976 29.0432C23.234 29.7798 24.3041 30.3155 25.4412 30.5834C26.7789 30.9182 28.0497 31.32 29.3874 31.7217C31.394 32.3244 32.5979 33.6637 32.9992 35.7395C33.6012 39.0207 34.2701 42.3688 34.9389 45.65C35.3402 47.7259 34.2701 49.0651 32.1966 49.0651C29.1199 49.199 26.11 49.1321 23.1671 49.1321ZM9.65623 17.1908C9.65623 18.0613 9.65623 18.9318 9.65623 19.8024C9.72312 21.3425 10.2582 22.7487 11.1277 24.021C13.0674 26.6326 15.6759 27.704 18.9533 27.2352C21.9631 26.7665 24.6386 24.2889 25.2405 21.3425C25.7087 18.8649 25.4412 16.3873 25.4412 13.9096C25.4412 13.6418 25.3074 13.5079 25.1068 13.3739C24.2373 12.7043 23.4346 12.1016 22.5651 11.432C22.1638 11.0972 21.7625 11.0972 21.2943 11.2311C17.6156 12.6373 13.87 13.7087 9.92377 13.9766C9.65623 13.9766 9.52246 14.1105 9.58934 14.3784C9.65623 15.3158 9.65623 16.2533 9.65623 17.1908ZM20.4917 28.3736C20.3579 28.4406 20.1572 28.4406 20.0235 28.5075C18.4182 28.9093 16.813 28.9093 15.2746 28.5075C14.6058 28.3736 14.6058 28.3736 14.6726 29.0432C14.6726 29.1102 14.7395 29.2441 14.7395 29.3111C15.2746 30.5834 15.8097 31.9226 16.3448 33.1949C16.4117 33.3958 16.5454 33.4628 16.7461 33.4628C17.2143 33.4628 17.7494 33.4628 18.2176 33.4628C18.552 33.4628 18.6858 33.3958 18.8195 33.061C19.2877 31.8557 19.7559 30.7173 20.291 29.5789C20.5586 29.1102 20.5586 28.7754 20.4917 28.3736ZM17.6156 34.869C17.2812 34.869 17.0136 34.936 16.6792 34.869C16.211 34.802 15.9435 35.1368 15.609 35.3377C15.4084 35.4717 15.5421 35.5386 15.6759 35.6056C16.211 36.0743 16.7461 36.5431 17.2812 37.0118C17.4818 37.2127 17.6825 37.2127 17.8831 37.0118C18.4182 36.5431 19.0202 36.0743 19.5553 35.5386C19.6222 35.4717 19.7559 35.4047 19.6222 35.2708C19.2877 35.0699 19.0871 34.7351 18.6189 34.7351C18.2844 34.869 17.95 34.869 17.6156 34.869ZM21.2274 34.7351C21.3612 34.6681 21.3612 34.5342 21.4281 34.4672C21.6956 33.6637 22.03 32.7931 22.2976 31.9896C22.632 31.0521 22.632 31.0521 21.7625 30.5164C21.6287 30.3825 21.5618 30.3825 21.4281 30.5834C21.0268 31.5878 20.6254 32.5923 20.1572 33.5967C20.0904 33.7976 20.0904 33.9315 20.291 33.9985C20.5586 34.1994 20.8261 34.4003 21.0268 34.5342C21.0936 34.6681 21.1605 34.7351 21.2274 34.7351ZM15.0739 33.7306C15.0739 33.6637 15.0071 33.5967 15.0071 33.5297C14.6726 32.7262 14.3382 31.9896 14.0038 31.186C13.6694 30.3155 13.6694 30.3155 12.8667 30.8512C12.5992 30.9852 12.5992 31.1191 12.6661 31.4539C12.9336 32.1905 13.2012 32.994 13.4687 33.7306C13.87 34.869 13.87 34.869 14.8064 34.1324C14.8733 34.0654 14.8733 34.0654 14.9402 33.9985C15.0739 33.9315 15.0739 33.8646 15.0739 33.7306ZM8.25164 16.3873C8.25164 15.9855 8.25164 15.5837 8.25164 15.1819C8.25164 14.9141 8.18475 14.9141 7.9841 14.981C7.44901 15.1819 6.98081 15.7846 6.98081 16.3203C6.98081 16.856 7.44901 17.3917 7.9841 17.6595C8.18475 17.7265 8.25164 17.7265 8.25164 17.4587C8.25164 17.1908 8.25164 16.789 8.25164 16.3873ZM26.9796 15.048C26.9796 15.9185 26.9796 16.7221 26.9796 17.5926C26.9796 17.8604 27.1133 17.7935 27.2471 17.7265C27.8491 17.5256 28.2504 16.923 28.1835 16.3203C28.1835 15.7176 27.7153 15.1819 26.9796 15.048Z" fill="#5FD3D1" stroke="#5FD3D1" stroke-width="0.5"/>
</svg>
