<svg width="45" height="45" viewBox="0 0 45 45" fill="none" xmlns="http://www.w3.org/2000/svg">
<path d="M1.82974 43.0314C3.93994 42.2228 5.9798 41.467 8.16034 40.6408C7.80864 40.3244 7.49211 40.0959 7.22834 39.8146C5.24123 37.6525 4.23889 35.0685 4.06304 32.1506C3.9927 31.008 3.8696 29.883 3.79926 28.7404C3.76409 28.1428 4.01028 27.7912 4.48508 27.7736C4.97746 27.7561 5.24123 28.0549 5.29399 28.6525C5.46984 30.3928 5.46984 32.133 5.80395 33.8557C6.27875 36.3166 7.56245 38.3205 9.4968 39.9377C9.6199 40.0432 9.70782 40.0432 9.8485 39.9904C12.6445 38.9357 15.4229 37.881 18.219 36.8264C18.2365 36.8264 18.2541 36.7912 18.2717 36.7736C18.2014 36.6154 18.0431 36.5978 17.92 36.5451C11.1322 33.0119 7.01732 27.51 5.55776 20.0041C5.55776 19.9689 5.54018 19.9162 5.54018 19.8811C5.46984 19.301 5.69844 18.9143 6.17324 18.8615C6.61286 18.7912 6.94698 19.1076 7.0349 19.6525C7.17558 20.426 7.33385 21.1994 7.56245 21.9553C9.54956 28.5295 13.7172 33.1525 20.0302 35.842C20.294 35.965 20.5402 35.9826 20.8215 35.8596C22.3339 35.2619 23.8462 34.6994 25.3761 34.1193C25.464 34.0842 25.5695 34.049 25.7278 33.9611C24.4792 33.5393 23.389 32.9768 22.3339 32.3439C16.6011 28.8459 12.0818 24.1701 8.86374 18.2463C8.2131 17.051 7.77347 15.7853 7.59762 14.4318C7.31626 12.1643 8.72306 10.5471 10.9036 10.6174C11.0795 10.6174 11.2553 10.6525 11.4312 10.6877C11.818 10.7932 12.029 11.1096 11.9763 11.5139C11.9235 11.9006 11.607 12.1467 11.2025 12.1467C9.42646 12.1115 8.82857 12.7971 9.12752 14.5373C9.40888 16.2775 10.2002 17.8244 11.1322 19.2658C14.5261 24.5041 18.8344 28.7932 24.3737 31.7463C25.4288 32.3088 26.5543 32.7482 27.7676 32.8537C28.0314 32.8713 28.2952 32.8713 28.5589 32.8361C29.3151 32.7307 29.7196 32.3088 29.8075 31.5353C29.8954 30.6916 29.6844 29.883 29.4206 29.092C29.3503 28.8986 29.2799 28.7053 29.2623 28.5119C29.2272 28.1252 29.403 27.8615 29.7723 27.7385C30.1416 27.633 30.4933 27.7385 30.634 28.0725C31.1967 29.426 31.5836 30.8322 31.1967 32.3088C30.9681 33.2228 30.3702 33.8381 29.4909 34.1721C25.9739 35.4904 22.4569 36.8088 18.9399 38.1271C13.1193 40.3244 7.31626 42.5217 1.49563 44.7189C1.09117 44.8771 0.68672 45.1232 0.26468 44.7365C-0.12219 44.3674 0.0536597 43.9631 0.15917 43.5588C0.58121 41.8185 1.00325 40.0959 1.42529 38.3557C1.46046 38.2502 1.47804 38.1271 1.51321 38.0217C1.65389 37.5822 2.02318 37.3889 2.42763 37.4943C2.83209 37.5998 3.04311 37.9689 2.95518 38.426C2.70899 39.5158 2.42763 40.5881 2.16386 41.6603C2.04076 42.0998 1.95284 42.5041 1.82974 43.0314Z" fill="#5FD3D1"/>
<path d="M40.0769 36.8967C38.547 35.2092 36.7181 34.1897 34.5552 33.7678C33.9749 33.6623 33.6935 33.2932 33.7814 32.8537C33.887 32.3967 34.2738 32.1858 34.819 32.2912C36.683 32.6428 38.3535 33.4162 39.8307 34.594C40.3055 34.9807 40.7803 35.385 41.1671 35.8596C41.9409 36.7912 42.7146 37.7053 43.5763 38.549C45.1238 40.0432 45.37 42.5217 44.3676 44.4553C44.1038 44.9475 43.6994 45.1233 43.2949 44.9123C42.8729 44.7014 42.7674 44.2795 43.0311 43.7873C43.6115 42.6272 43.6115 41.4846 43.0311 40.3244C42.996 40.2541 42.9784 40.1487 42.8377 40.1311C42.7674 40.6408 42.6794 41.1506 42.4684 41.6252C41.976 42.6975 41.132 43.3303 39.9538 43.4182C38.7052 43.5061 37.7205 42.9963 37.105 41.8889C36.5247 40.8342 36.5775 39.7444 37.2633 38.7424C37.8787 37.8459 38.7228 37.2834 39.7603 37.0022C39.8483 36.967 39.9362 36.9494 40.0769 36.8967ZM41.3254 39.8322C41.3254 39.6565 41.3254 39.4279 41.2726 39.1994C41.0792 38.4787 40.7275 38.2678 40.0065 38.4963C39.3735 38.6897 38.8635 39.0588 38.4942 39.6213C38.0194 40.342 38.2304 41.2912 38.969 41.7307C39.7076 42.1701 40.6748 41.9065 41.0792 41.133C41.2551 40.7287 41.3254 40.3244 41.3254 39.8322Z" fill="#5FD3D1"/>
<path d="M1.44246 7.78879C1.54797 7.20871 1.63589 6.5759 1.75899 5.96067C1.81174 5.66184 1.75899 5.46848 1.53038 5.27512C1.10834 4.8884 0.703888 4.4841 0.299434 4.07981C0.0708286 3.85129 -0.0698514 3.58762 0.0356586 3.25363C0.158754 2.90207 0.404944 2.76145 0.756643 2.70871C1.35453 2.6384 1.93484 2.53293 2.53273 2.46262C2.74375 2.44504 2.86684 2.33957 2.97235 2.14621C3.21854 1.61887 3.4999 1.09152 3.74609 0.564181C3.90436 0.247774 4.11538 0.0368369 4.48466 0.0192587C4.87153 0.00168061 5.10014 0.230196 5.2584 0.564181C5.50459 1.09152 5.78595 1.61887 6.03214 2.14621C6.12007 2.33957 6.26075 2.42746 6.47177 2.44504C7.06966 2.51535 7.64996 2.62082 8.24785 2.69113C8.58197 2.72629 8.84574 2.86692 8.95125 3.2009C9.05676 3.53488 8.95125 3.83371 8.70506 4.07981C8.26544 4.4841 7.8434 4.92356 7.40377 5.32785C7.22792 5.48606 7.19275 5.64426 7.22792 5.87278C7.33343 6.43528 7.43894 6.99778 7.52687 7.56028C7.57962 7.91184 7.56204 8.24582 7.24551 8.47434C6.92898 8.70285 6.61245 8.63254 6.29592 8.45676C5.80354 8.19309 5.31116 7.94699 4.81878 7.66574C4.59017 7.5427 4.39674 7.52512 4.16813 7.66574C3.64058 7.96457 3.09545 8.2634 2.53273 8.52707C1.98759 8.80832 1.40729 8.43918 1.44246 7.78879ZM2.42722 4.02707C2.70858 4.41379 3.11303 4.60715 3.28888 5.01145C3.46473 5.43332 3.25371 5.83762 3.21854 6.25949C3.20096 6.45285 3.30647 6.45285 3.42956 6.38254C3.57024 6.31223 3.72851 6.24192 3.8516 6.15403C4.27364 5.87278 4.69568 5.87278 5.11772 6.15403C5.31116 6.27707 5.50459 6.40012 5.85629 6.45285C5.32874 5.41574 5.68044 4.64231 6.57728 4.00949C5.43425 4.07981 4.78361 3.55246 4.51983 2.46262C4.18572 2.91965 4.13296 3.41184 3.76368 3.69309C3.41198 3.97434 2.9196 3.85129 2.42722 4.02707Z" fill="#5FD3D1"/>
<path d="M24.0217 23.2208C23.6524 23.2208 23.4062 23.045 23.3007 22.711C23.1776 22.3419 23.3359 21.9903 23.7228 21.797C24.5668 21.3751 25.4109 20.9884 26.255 20.5841C30.5282 18.545 34.8189 16.506 39.092 14.4845C39.1976 14.4317 39.3031 14.379 39.4086 14.3263C39.8306 14.1505 40.2351 14.2735 40.4285 14.6427C40.6219 15.0294 40.4988 15.4513 40.0592 15.6798C39.2151 16.1017 38.3535 16.506 37.4918 16.9102C33.1835 18.9493 28.8752 21.006 24.5844 23.045C24.391 23.1329 24.2327 23.2384 24.0217 23.2208Z" fill="#5FD3D1"/>
<path d="M18.7461 9.66804C18.7461 13.043 18.1482 15.9258 17.0052 18.7032C16.6711 19.5294 16.3194 20.3555 15.9852 21.1641C15.7742 21.6739 15.3522 21.8497 14.9301 21.6563C14.5433 21.4805 14.4026 21.0587 14.596 20.5665C15.2994 18.8262 16.1083 17.1212 16.5831 15.2755C17.392 12.1114 17.48 8.94733 16.8293 5.74812C16.8117 5.66023 16.7941 5.57233 16.7766 5.48444C16.6886 4.93952 16.8997 4.5528 17.3393 4.46491C17.7789 4.37702 18.1306 4.65827 18.2361 5.20319C18.5878 6.82038 18.7637 8.41999 18.7461 9.66804Z" fill="#5FD3D1"/>
<path d="M28.3299 24.7147C32.0227 24.7323 34.8539 25.2245 37.5796 26.2265C37.9489 26.3671 38.2302 26.5605 38.2478 26.9999C38.2478 27.5624 37.7379 27.8788 37.1575 27.6679C36.208 27.3339 35.2408 27.0351 34.256 26.8065C31.0028 26.0683 27.7496 26.0683 24.4963 26.6835C23.8809 26.8065 23.2654 26.912 22.6323 26.9823C22.1927 27.0351 21.8586 26.7714 21.8058 26.3671C21.7355 25.9452 21.9817 25.5761 22.4213 25.5058C24.637 25.119 26.8352 24.6796 28.3299 24.7147Z" fill="#5FD3D1"/>
<path d="M30.3697 8.2442C30.9676 8.2442 31.5655 8.2442 32.1634 8.2442C32.7085 8.26178 32.9899 8.50787 32.9899 9.05279C33.0074 10.2657 33.0074 11.4786 32.9899 12.6915C32.9899 13.2188 32.7085 13.5001 32.1634 13.5001C30.9676 13.5176 29.7718 13.5176 28.5584 13.5001C27.9957 13.5001 27.7319 13.2188 27.7319 12.6387C27.7144 11.461 27.7144 10.2657 27.7319 9.08795C27.7319 8.4903 27.9957 8.2442 28.6112 8.2442C29.1915 8.22662 29.7894 8.2442 30.3697 8.2442ZM31.4951 10.8633C31.4951 9.75592 31.4951 9.75592 30.3873 9.75592C29.2443 9.75592 29.2443 9.75592 29.2443 10.8809C29.2443 12.0059 29.2443 12.0059 30.3521 12.0059C31.4951 11.9883 31.4951 11.9883 31.4951 10.8633Z" fill="#5FD3D1"/>
<path d="M18.7289 22.5001C18.4476 22.4826 18.2014 22.3419 18.0607 22.0431C17.92 21.7091 18.0079 21.4103 18.2717 21.1642C18.7993 20.6896 19.3444 20.1974 19.8719 19.7228C21.736 18.0353 23.6175 16.3478 25.4815 14.6779C25.6046 14.5548 25.7453 14.4318 25.886 14.3439C26.2025 14.1681 26.5191 14.2208 26.7653 14.4845C27.0114 14.7482 27.0466 15.0646 26.8708 15.3634C26.8004 15.4865 26.6949 15.5919 26.5718 15.6798C24.1978 17.8244 21.8063 19.9689 19.4323 22.1134C19.2565 22.3068 19.0455 22.4826 18.7289 22.5001Z" fill="#5FD3D1"/>
<path d="M41.2724 31.4824C40.0062 31.4824 39.0215 30.498 39.0215 29.2324C39.0215 28.0019 40.0238 26.9999 41.2548 26.9999C42.5033 26.9999 43.5232 28.0195 43.5232 29.2675C43.5057 30.4804 42.5033 31.4824 41.2724 31.4824ZM42.0109 29.2499C42.0109 28.8456 41.6592 28.4941 41.2724 28.4941C40.8855 28.4941 40.5514 28.8105 40.5338 29.2148C40.5162 29.6367 40.8152 29.9706 41.2372 29.9882C41.6416 29.9882 41.9933 29.6542 42.0109 29.2499Z" fill="#5FD3D1"/>
<path d="M23.2482 10.4941C21.9821 10.4941 20.9973 9.47459 21.0149 8.22654C21.0325 7.01365 22.0524 5.99412 23.2658 6.0117C24.5143 6.0117 25.5166 7.04881 25.4991 8.29685C25.4815 9.50974 24.4791 10.4941 23.2482 10.4941ZM24.0043 8.24412C24.0043 7.83982 23.6526 7.48826 23.2482 7.50584C22.8437 7.52342 22.5096 7.87498 22.5096 8.27927C22.5272 8.68357 22.8437 8.9824 23.2482 8.9824C23.6702 8.9824 24.0043 8.66599 24.0043 8.24412Z" fill="#5FD3D1"/>
<path d="M16.5123 2.98832C15.6682 2.98832 15.0176 2.33792 15.0176 1.49417C15.0176 0.668003 15.6682 0.0176121 16.4771 3.39847e-05C17.3036 -0.0175441 17.9894 0.650425 18.007 1.4766C18.0246 2.30277 17.3388 2.98832 16.5123 2.98832Z" fill="#5FD3D1"/>
<path d="M41.2369 11.6368C41.2369 12.3927 40.9907 12.7442 40.4808 12.7442C39.9884 12.7442 39.7422 12.3575 39.7422 11.6192C39.7422 11.4434 39.7422 11.2677 39.7774 11.0919C39.8477 10.7227 40.1642 10.4767 40.5335 10.4942C40.9204 10.5118 41.2017 10.7931 41.2369 11.1974C41.2545 11.3556 41.2369 11.4962 41.2369 11.6368Z" fill="#5FD3D1"/>
<path d="M38.2477 4.90436C38.2477 4.99225 38.2477 5.08014 38.2477 5.16803C38.2301 5.69538 37.9487 5.9942 37.4915 5.9942C37.0519 5.9942 36.7705 5.6778 36.7529 5.18561C36.7529 4.97467 36.7529 4.78131 36.7529 4.57037C36.7705 4.07819 37.0695 3.77936 37.4915 3.76178C37.9311 3.76178 38.2301 4.06061 38.2477 4.5528C38.2477 4.65826 38.2477 4.78131 38.2477 4.90436Z" fill="#5FD3D1"/>
<path d="M39.3911 2.26764C40.1472 2.26764 40.5165 2.49615 40.4989 3.00592C40.4989 3.51569 40.1296 3.76178 39.3911 3.76178C39.2152 3.76178 39.0394 3.76178 38.8635 3.72662C38.4591 3.63873 38.2656 3.37506 38.248 2.98834C38.248 2.60162 38.547 2.32037 38.9339 2.26764C39.0921 2.25006 39.2504 2.26764 39.3911 2.26764Z" fill="#5FD3D1"/>
<path d="M43.875 15.7325C43.1189 15.7325 42.7496 15.504 42.7496 14.9942C42.732 14.4844 43.1189 14.2208 43.8926 14.2208C44.6312 14.2208 45.0005 14.4844 45.0005 14.9766C45.0005 15.504 44.6312 15.7325 43.875 15.7325Z" fill="#5FD3D1"/>
<path d="M41.2368 18.3691C41.2368 19.125 41.0082 19.4941 40.4982 19.4941C39.9882 19.4941 39.7245 19.125 39.742 18.334C39.742 18.1934 39.742 18.0352 39.7596 17.8945C39.83 17.5078 40.1465 17.2266 40.5158 17.2266C40.9027 17.2266 41.2192 17.543 41.2368 17.9648C41.2544 18.1055 41.2368 18.2461 41.2368 18.3691Z" fill="#5FD3D1"/>
<path d="M42.5558 13.6232C42.3272 13.6056 42.0986 13.4825 41.9755 13.2364C41.8348 12.9903 41.8348 12.7267 42.0107 12.4982C42.2217 12.1993 42.4855 11.9357 42.7844 11.7247C43.2592 11.4259 43.8747 11.7599 43.8923 12.3224C43.9099 12.8146 43.1009 13.6407 42.5558 13.6232Z" fill="#5FD3D1"/>
<path d="M38.2477 1.12506C38.2477 1.88092 38.0015 2.23248 37.5091 2.23248C36.9991 2.23248 36.7529 1.86334 36.7529 1.12506C36.7529 1.00201 36.7529 0.896545 36.7529 0.773499C36.7881 0.298889 37.1046 -0.0175171 37.5267 -0.0175171C37.9487 6.10352e-05 38.2301 0.298889 38.2477 0.75592C38.2477 0.896545 38.2477 1.01959 38.2477 1.12506Z" fill="#5FD3D1"/>
<path d="M35.6455 3.7442C35.4344 3.7442 35.241 3.76178 35.03 3.70905C34.6607 3.586 34.4849 3.32233 34.52 2.93561C34.5552 2.54889 34.7662 2.32037 35.1531 2.26764C35.4344 2.23248 35.7158 2.25006 35.9796 2.25006C36.4192 2.26764 36.7181 2.54889 36.7357 2.93561C36.7533 3.33991 36.472 3.67389 36.0323 3.72662C35.9092 3.76178 35.7686 3.7442 35.6455 3.7442Z" fill="#5FD3D1"/>
<path d="M43.8928 17.6307C43.8928 17.9296 43.7522 18.1581 43.4884 18.2987C43.207 18.4393 42.9433 18.4218 42.7146 18.2284C42.486 18.035 42.2574 17.8065 42.064 17.578C41.8706 17.3495 41.853 17.0682 41.9937 16.787C42.1168 16.5233 42.363 16.3827 42.6619 16.3651C43.1015 16.3651 43.8753 17.1737 43.8928 17.6307Z" fill="#5FD3D1"/>
<path d="M37.7906 11.6016C38.3182 11.6016 39.1271 12.3926 39.1271 12.8496C39.1271 13.1309 39.004 13.3594 38.7578 13.5C38.494 13.6582 38.2127 13.6582 37.9841 13.4648C37.7203 13.2539 37.4917 13.0078 37.2807 12.7617C37.0872 12.5332 37.0872 12.252 37.2455 11.9883C37.351 11.7422 37.5796 11.6191 37.7906 11.6016Z" fill="#5FD3D1"/>
</svg>
