<svg width="69" height="49" viewBox="0 0 69 49" fill="none" xmlns="http://www.w3.org/2000/svg">
<path d="M34.3924 18.0027C29.3831 18.0027 24.3737 18.0027 19.3913 18.0027C17.7484 18.0027 16.4826 18.7066 15.6746 20.1414C15.1899 20.9806 15.4323 21.3596 16.3749 21.3596C23.7004 21.3596 31.0529 21.3596 38.3784 21.3596C39.6173 21.3596 39.8866 21.6303 39.8866 22.8486C39.8866 23.8232 39.9135 24.7977 39.8866 25.7453C39.8597 27.3966 38.6477 28.6149 36.9779 28.6961C36.4931 28.7232 35.8737 28.4795 35.5505 28.8044C35.2004 29.1563 35.4428 29.779 35.4428 30.2933C35.4428 34.1105 35.4428 37.9276 35.4159 41.7176C35.4159 42.1779 35.5505 42.4486 35.9006 42.7464C37.2742 43.8292 38.6477 44.9392 39.9943 46.0491C40.7484 46.6447 40.9369 47.2132 40.6676 47.9171C40.3983 48.648 39.9135 48.9458 38.9709 48.9458C35.9545 48.9458 32.965 48.9458 29.9486 48.9458C28.9252 48.9458 28.4135 48.6751 28.1442 47.9712C27.8749 47.2403 28.0903 46.6176 28.8714 45.995C30.2449 44.885 31.6184 43.748 33.0189 42.6381C33.2882 42.4215 33.369 42.232 33.369 41.9071C33.369 37.6839 33.369 33.4607 33.369 29.2646C33.369 28.8044 33.2344 28.6961 32.8034 28.6961C29.7601 28.6419 28.8983 27.7756 28.8983 24.7165C28.8983 23.39 28.8983 23.39 27.5517 23.39C23.7812 23.39 20.0107 23.39 16.2402 23.39C13.8433 23.39 12.6313 21.3867 13.7625 19.248C14.8936 17.1364 16.6981 16.0265 19.095 15.9453C20.0915 15.9182 21.1149 15.9182 22.1114 15.9453C22.4885 15.9453 22.65 15.837 22.6231 15.458C22.5962 15.0519 22.5962 14.6458 22.6231 14.2397C22.677 13.4005 22.65 12.6696 21.7074 12.1823C21.0341 11.8574 20.7379 11.0994 20.6301 10.3143C20.5493 9.63752 20.5493 8.96073 20.6032 8.28393C20.684 7.41763 21.2226 6.84913 22.0845 6.82206C23.1348 6.79498 24.1852 6.79498 25.2355 6.82206C25.9627 6.84913 26.5013 7.28228 26.6091 7.98614C26.7707 8.93366 26.7976 9.90824 26.5013 10.8558C26.2589 11.6138 25.7472 12.1823 25.047 12.5342C24.8046 12.6425 24.67 12.7779 24.67 13.0756C24.6969 13.8607 24.6969 14.6458 24.67 15.4309C24.67 15.7558 24.7508 15.864 25.1009 15.864C26.9323 15.864 28.7906 15.837 30.6219 15.864C31.0529 15.864 31.0798 15.6475 31.0798 15.3226C31.0798 13.2922 31.1337 11.2618 31.0529 9.23145C30.999 7.63421 31.5646 6.36183 32.6957 5.33311C33.1805 4.89996 33.396 4.41266 33.3421 3.73587C33.2882 2.86957 33.3152 2.03034 33.3421 1.16404C33.3421 0.324818 33.7191 -0.162475 34.3655 -0.135403C35.0119 -0.135403 35.362 0.35189 35.362 1.19112C35.362 2.13863 35.3889 3.08614 35.362 4.03366C35.362 4.46681 35.4428 4.79167 35.7929 5.08946C36.2777 5.52261 36.6817 6.03697 37.0318 6.60548C37.4358 7.22813 37.6243 7.90493 37.5974 8.66294C37.5704 10.8558 37.5974 13.0486 37.5704 15.2143C37.5704 15.7287 37.732 15.864 38.2168 15.837C39.9404 15.8099 41.6641 15.8099 43.3878 15.837C43.8725 15.837 44.0341 15.7016 43.9803 15.2143C43.9533 14.9165 43.9533 14.6187 43.9803 14.348C44.0611 13.4005 44.0611 12.5613 42.9838 12.0198C42.3105 11.6679 42.0142 10.8558 41.9604 10.0436C41.9065 9.44802 41.9065 8.82537 41.9604 8.22979C42.0142 7.39056 42.5798 6.79498 43.4147 6.74084C44.465 6.71377 45.5154 6.6867 46.5657 6.74084C47.4276 6.76791 47.9662 7.36349 48.0201 8.22979C48.047 8.82537 48.047 9.44802 48.0201 10.0436C47.9393 11.1265 47.4006 11.9386 46.4849 12.4259C46.1079 12.6425 46.0002 12.8591 46.0002 13.2651C46.0271 13.9149 46.0271 14.5646 46.0002 15.2143C45.9732 15.6745 46.1079 15.8099 46.5927 15.837C47.9393 15.837 49.2859 15.6745 50.6325 15.9453C52.7332 16.3513 54.2683 17.5696 55.1301 19.5187C55.965 21.3596 54.7531 23.2547 52.7332 23.2547C49.7707 23.2817 46.8081 23.2547 43.8456 23.2547C43.0915 23.2547 42.6067 22.8215 42.6337 22.1989C42.6606 21.6033 43.1184 21.2243 43.8456 21.2243C46.6735 21.2243 49.5013 21.2243 52.3292 21.2243C53.3796 21.2243 53.622 20.8453 53.0833 19.9519C52.2753 18.5442 51.0095 17.8674 49.4205 17.8403C44.465 18.0027 39.4287 18.0027 34.3924 18.0027ZM34.4732 23.4171C34.0154 23.4171 33.5306 23.39 33.0728 23.4171C32.3995 23.4442 31.4299 23.0922 31.1067 23.5524C30.7566 24.0127 30.999 24.9331 30.999 25.664C30.999 26.3138 31.3491 26.6657 31.9955 26.6928C33.6383 26.7198 35.2543 26.7198 36.8971 26.6928C37.5435 26.6928 37.8667 26.3408 37.8667 25.664C37.8936 25.0685 37.8397 24.5 37.8667 23.9044C37.8936 23.5254 37.732 23.4171 37.355 23.4171C36.4123 23.4442 35.4428 23.4171 34.4732 23.4171ZM35.6313 12.1281C35.6313 11.0994 35.6313 10.0436 35.6313 9.01487C35.6313 8.39222 35.4428 7.82371 35.0927 7.30935C34.6618 6.71377 34.1501 6.71377 33.7461 7.30935C33.4229 7.76957 33.1805 8.31101 33.1805 8.87951C33.1536 11.0723 33.1805 13.2922 33.1805 15.485C33.1805 15.837 33.2882 15.9723 33.6383 15.9453C34.1231 15.9182 34.6348 15.9182 35.1196 15.9453C35.5505 15.9723 35.6582 15.8099 35.6582 15.4038C35.6044 14.348 35.6313 13.2381 35.6313 12.1281ZM37.8128 46.9425C36.6547 46.022 35.6582 45.2099 34.6348 44.3977C34.5002 44.2895 34.3655 44.2624 34.2308 44.3707C33.2074 45.1828 32.184 46.022 31.0529 46.9425C33.369 46.9425 35.4697 46.9425 37.8128 46.9425ZM45.0575 8.87951C44.6536 9.01487 43.9533 8.55465 44.0341 9.52924C44.088 10.4497 44.4381 10.964 45.1114 10.937C45.7578 10.9099 46.054 10.4226 46.1079 9.52924C46.1618 8.55465 45.4615 9.01487 45.0575 8.87951ZM23.7273 8.90659C23.3503 9.01487 22.6231 8.55465 22.677 9.55631C22.7308 10.4226 23.054 10.937 23.7004 10.937C24.3468 10.937 24.67 10.4226 24.7508 9.58338C24.8315 8.66294 24.2121 8.93366 23.7273 8.90659Z" fill="#5FD3D1"/>
<path d="M63.4515 35.6536C64.7443 39.5519 65.9831 43.3961 67.2489 47.2403C67.3028 47.4027 67.3836 47.5922 67.4105 47.7547C67.5183 48.3232 67.2759 48.7293 66.7372 48.9188C66.2255 49.1083 65.8215 48.9188 65.5522 48.4315C65.4445 48.242 65.3906 48.0254 65.3098 47.8088C64.1518 44.2624 62.9667 40.716 61.8087 37.1696C61.4047 35.9243 60.9738 35.6265 59.6272 35.5994C58.496 35.5994 57.3918 35.5994 56.2606 35.5994C55.2372 35.5994 54.7525 35.9514 54.3754 36.9259C53.0288 40.5536 51.6822 44.1812 50.3625 47.8088C50.3087 47.9442 50.2817 48.0525 50.2279 48.1878C49.9585 48.8105 49.4199 49.1083 48.9082 48.9188C48.3426 48.7022 48.1002 48.1608 48.3426 47.484C49.7162 43.7751 51.0628 40.0392 52.4632 36.3304C52.6518 35.7889 52.6518 35.6536 52.0054 35.6265C50.3356 35.5453 49.0698 34.4624 48.8543 33.0005C48.6389 31.4845 49.4199 30.1309 50.7934 29.5895C51.2513 29.4 51.7091 29.3729 52.167 29.3729C55.4527 29.3729 58.7115 29.3458 61.9972 29.4C62.6166 29.4 62.7244 29.2105 62.7244 28.642C62.6974 23.0652 62.6974 17.4884 62.7244 11.9387C62.7244 10.2873 63.6131 9.06904 65.0405 8.69004C67.0335 8.17567 68.9187 9.63755 68.9457 11.7221C68.9726 14.2127 68.9457 16.7304 68.9457 19.221C68.9457 22.4155 68.8379 25.637 68.9726 28.8315C69.1342 32.1072 67.0335 35.0851 63.4515 35.6536ZM66.9258 20.8182C66.9258 17.9215 66.9258 15.0519 66.9258 12.1552C66.9258 11.9657 66.9258 11.7492 66.8988 11.5596C66.7911 10.9911 66.3063 10.558 65.7677 10.6392C65.2021 10.7204 64.8251 11.0453 64.7712 11.6409C64.7443 11.8574 64.7712 12.1011 64.7712 12.3177C64.7712 17.9215 64.7712 23.5525 64.7712 29.1563C64.7712 30.6994 64.044 31.4304 62.5089 31.4304C60.3005 31.4304 58.119 31.4304 55.9105 31.4304C54.6447 31.4304 53.352 31.4033 52.0862 31.4304C51.1974 31.4574 50.6857 32.1884 51.0089 32.9464C51.2243 33.4878 51.6822 33.5961 52.2208 33.5961C55.6951 33.5961 59.1693 33.5961 62.6436 33.5961C65.2021 33.5961 66.9527 31.8364 66.9527 29.2646C66.9258 26.4492 66.9258 23.6337 66.9258 20.8182Z" fill="#5FD3D1"/>
<path d="M5.52108 35.6264C4.55152 35.464 3.6897 35.2204 2.90867 34.706C1.05035 33.4878 0.0269321 31.7552 0.0269321 29.5082C0 23.6066 0 17.7049 0 11.8032C0 9.96236 1.37354 8.5817 3.09719 8.55463C4.84778 8.55463 6.19438 9.93529 6.22131 11.7762C6.22131 12.4259 6.24824 13.0756 6.22131 13.7253C6.19438 14.3751 5.81733 14.7811 5.25176 14.7811C4.68618 14.7811 4.25527 14.4021 4.22834 13.7524C4.20141 13.1027 4.22834 12.453 4.20141 11.8032C4.17447 11.0723 3.74356 10.585 3.12412 10.585C2.50468 10.585 2.04684 11.0723 2.04684 11.8032C2.04684 17.732 2.01991 23.6607 2.04684 29.5894C2.04684 31.7823 3.82436 33.5148 6.00585 33.5419C9.61475 33.569 13.2237 33.5419 16.8326 33.5419C17.6136 33.5419 18.0714 33.1088 18.0714 32.432C18.0714 31.7552 17.5867 31.3762 16.7787 31.3762C13.3583 31.3762 9.91101 31.3762 6.49063 31.3762C4.90164 31.3762 4.17447 30.6723 4.17447 29.0751C4.17447 25.6911 4.17447 22.3071 4.17447 18.9231C4.17447 18.7066 4.17447 18.4629 4.25527 18.2463C4.41686 17.732 4.79391 17.4883 5.33255 17.5425C5.84426 17.5966 6.14052 17.9215 6.19438 18.4358C6.22131 18.8961 6.22131 19.3834 6.22131 19.8436C6.22131 22.7403 6.24824 25.6099 6.19438 28.5066C6.19438 29.1292 6.30211 29.3458 6.97541 29.3458C10.2342 29.3187 13.493 29.3187 16.7248 29.3187C18.6639 29.3187 20.0375 30.564 20.0913 32.3508C20.1452 34.0834 18.7986 35.5182 16.9133 35.5994C16.2939 35.6264 16.267 35.7618 16.4555 36.3032C17.8021 39.9309 19.1487 43.5585 20.4684 47.1861C20.5492 47.3756 20.63 47.5651 20.6569 47.7546C20.7377 48.2148 20.5492 48.5938 20.1183 48.8104C19.6874 49.027 19.2834 48.9458 18.9602 48.5938C18.7447 48.3502 18.637 48.0524 18.5293 47.7546C17.2365 44.2082 15.9169 40.6618 14.5972 37.1154C14.1124 35.816 13.7354 35.5452 12.3618 35.5452C11.3384 35.5452 10.2881 35.5452 9.26464 35.5452C7.91803 35.5452 7.51405 35.843 7.08314 37.0883C5.92506 40.6347 4.74005 44.1811 3.58197 47.7276C3.5281 47.8629 3.50117 47.9983 3.44731 48.1066C3.20492 48.7292 2.69321 49.027 2.12763 48.8375C1.56206 48.648 1.31967 48.1066 1.53513 47.4568C2.45082 44.6414 3.39344 41.7988 4.30913 38.9834C4.74005 37.9546 5.1171 36.8447 5.52108 35.6264Z" fill="#5FD3D1"/>
</svg>
