<svg width="1915" height="780" fill="none" xmlns="http://www.w3.org/2000/svg"><g opacity=".5"><g clip-path="url(#clip0_601_1937)"><path opacity=".2" d="M-89.201 750.158c39.515-123.39 197.28-333.424 512.207-186.417 393.658 183.758 234.162-225.236 579.764-211.005" stroke="#64A4DB" stroke-width="2"/></g><g clip-path="url(#clip1_601_1937)"><path opacity=".3" d="M833.29 401.158c39.516-123.39 197.28-333.424 512.21-186.417 393.66 183.758 234.16-225.236 579.76-211.005" stroke="#64A4DB" stroke-width="2"/></g><path opacity=".4" d="M1969.97 914.94c-39.51-123.39-197.28-333.424-512.2-186.417C1064.11 912.281 1223.6 503.287 878 517.518" stroke="#64A4DB" stroke-width="2"/></g><circle opacity=".5" cx="48.5" cy="50.5" r="216" stroke="#64A4DB"/><defs><clipPath id="clip0_601_1937"><path fill="#fff" transform="rotate(25.023 121.193 578.109)" d="M0 0h825.028v823.667H0z"/></clipPath><clipPath id="clip1_601_1937"><path fill="#fff" transform="rotate(25.023 1368.812 2482.187)" d="M0 0h825.028v823.667H0z"/></clipPath></defs></svg>